G04 #@! TF.GenerationSoftware,KiCad,Pcbnew,(5.1.0)-1*
G04 #@! TF.CreationDate,2019-07-03T00:11:45+02:00*
G04 #@! TF.ProjectId,Sequencer_board,53657175-656e-4636-9572-5f626f617264,V0-1*
G04 #@! TF.SameCoordinates,Original*
G04 #@! TF.FileFunction,Legend,Top*
G04 #@! TF.FilePolarity,Positive*
%FSLAX46Y46*%
G04 Gerber Fmt 4.6, Leading zero omitted, Abs format (unit mm)*
G04 Created by KiCad (PCBNEW (5.1.0)-1) date 2019-07-03 00:11:45*
%MOMM*%
%LPD*%
G04 APERTURE LIST*
%ADD10C,0.100000*%
%ADD11C,0.150000*%
%ADD12C,0.120000*%
G04 APERTURE END LIST*
D10*
X53647371Y-137628157D02*
X53611657Y-137663871D01*
X53504514Y-137699585D01*
X53433085Y-137699585D01*
X53325942Y-137663871D01*
X53254514Y-137592442D01*
X53218799Y-137521014D01*
X53183085Y-137378157D01*
X53183085Y-137271014D01*
X53218799Y-137128157D01*
X53254514Y-137056728D01*
X53325942Y-136985300D01*
X53433085Y-136949585D01*
X53504514Y-136949585D01*
X53611657Y-136985300D01*
X53647371Y-137021014D01*
X54075942Y-137699585D02*
X54004514Y-137663871D01*
X53968799Y-137628157D01*
X53933085Y-137556728D01*
X53933085Y-137342442D01*
X53968799Y-137271014D01*
X54004514Y-137235300D01*
X54075942Y-137199585D01*
X54183085Y-137199585D01*
X54254514Y-137235300D01*
X54290228Y-137271014D01*
X54325942Y-137342442D01*
X54325942Y-137556728D01*
X54290228Y-137628157D01*
X54254514Y-137663871D01*
X54183085Y-137699585D01*
X54075942Y-137699585D01*
X54968799Y-137199585D02*
X54968799Y-137699585D01*
X54647371Y-137199585D02*
X54647371Y-137592442D01*
X54683085Y-137663871D01*
X54754514Y-137699585D01*
X54861657Y-137699585D01*
X54933085Y-137663871D01*
X54968799Y-137628157D01*
X55325942Y-137199585D02*
X55325942Y-137699585D01*
X55325942Y-137271014D02*
X55361657Y-137235300D01*
X55433085Y-137199585D01*
X55540228Y-137199585D01*
X55611657Y-137235300D01*
X55647371Y-137306728D01*
X55647371Y-137699585D01*
X55897371Y-137199585D02*
X56183085Y-137199585D01*
X56004514Y-136949585D02*
X56004514Y-137592442D01*
X56040228Y-137663871D01*
X56111657Y-137699585D01*
X56183085Y-137699585D01*
X56718800Y-137663871D02*
X56647371Y-137699585D01*
X56504514Y-137699585D01*
X56433085Y-137663871D01*
X56397371Y-137592442D01*
X56397371Y-137306728D01*
X56433085Y-137235300D01*
X56504514Y-137199585D01*
X56647371Y-137199585D01*
X56718800Y-137235300D01*
X56754514Y-137306728D01*
X56754514Y-137378157D01*
X56397371Y-137449585D01*
X57075942Y-137699585D02*
X57075942Y-137199585D01*
X57075942Y-137342442D02*
X57111657Y-137271014D01*
X57147371Y-137235300D01*
X57218799Y-137199585D01*
X57290228Y-137199585D01*
X57540228Y-137413871D02*
X58111657Y-137413871D01*
X58790228Y-137663871D02*
X58718799Y-137699585D01*
X58575942Y-137699585D01*
X58504514Y-137663871D01*
X58468799Y-137628157D01*
X58433085Y-137556728D01*
X58433085Y-137342442D01*
X58468799Y-137271014D01*
X58504514Y-137235300D01*
X58575942Y-137199585D01*
X58718799Y-137199585D01*
X58790228Y-137235300D01*
X59218799Y-137699585D02*
X59147371Y-137663871D01*
X59111657Y-137592442D01*
X59111657Y-136949585D01*
X59611657Y-137699585D02*
X59540228Y-137663871D01*
X59504514Y-137628157D01*
X59468799Y-137556728D01*
X59468799Y-137342442D01*
X59504514Y-137271014D01*
X59540228Y-137235300D01*
X59611657Y-137199585D01*
X59718799Y-137199585D01*
X59790228Y-137235300D01*
X59825942Y-137271014D01*
X59861657Y-137342442D01*
X59861657Y-137556728D01*
X59825942Y-137628157D01*
X59790228Y-137663871D01*
X59718799Y-137699585D01*
X59611657Y-137699585D01*
X60504514Y-137663871D02*
X60433085Y-137699585D01*
X60290228Y-137699585D01*
X60218799Y-137663871D01*
X60183085Y-137628157D01*
X60147371Y-137556728D01*
X60147371Y-137342442D01*
X60183085Y-137271014D01*
X60218799Y-137235300D01*
X60290228Y-137199585D01*
X60433085Y-137199585D01*
X60504514Y-137235300D01*
X60825942Y-137699585D02*
X60825942Y-136949585D01*
X60897371Y-137413871D02*
X61111657Y-137699585D01*
X61111657Y-137199585D02*
X60825942Y-137485300D01*
X61361657Y-137199585D02*
X61504514Y-137699585D01*
X61647371Y-137342442D01*
X61790228Y-137699585D01*
X61933085Y-137199585D01*
X62218800Y-137699585D02*
X62218800Y-137199585D01*
X62218800Y-136949585D02*
X62183085Y-136985300D01*
X62218800Y-137021014D01*
X62254514Y-136985300D01*
X62218800Y-136949585D01*
X62218800Y-137021014D01*
X62540228Y-137663871D02*
X62611657Y-137699585D01*
X62754514Y-137699585D01*
X62825942Y-137663871D01*
X62861657Y-137592442D01*
X62861657Y-137556728D01*
X62825942Y-137485300D01*
X62754514Y-137449585D01*
X62647371Y-137449585D01*
X62575942Y-137413871D01*
X62540228Y-137342442D01*
X62540228Y-137306728D01*
X62575942Y-137235300D01*
X62647371Y-137199585D01*
X62754514Y-137199585D01*
X62825942Y-137235300D01*
X63468799Y-137663871D02*
X63397371Y-137699585D01*
X63254514Y-137699585D01*
X63183085Y-137663871D01*
X63147371Y-137592442D01*
X63147371Y-137306728D01*
X63183085Y-137235300D01*
X63254514Y-137199585D01*
X63397371Y-137199585D01*
X63468799Y-137235300D01*
X63504514Y-137306728D01*
X63504514Y-137378157D01*
X63147371Y-137449585D01*
X53450942Y-138424585D02*
X53736657Y-138424585D01*
X53558085Y-138174585D02*
X53558085Y-138817442D01*
X53593800Y-138888871D01*
X53665228Y-138924585D01*
X53736657Y-138924585D01*
X54093800Y-138924585D02*
X54022371Y-138888871D01*
X53986657Y-138853157D01*
X53950942Y-138781728D01*
X53950942Y-138567442D01*
X53986657Y-138496014D01*
X54022371Y-138460300D01*
X54093800Y-138424585D01*
X54200942Y-138424585D01*
X54272371Y-138460300D01*
X54308085Y-138496014D01*
X54343800Y-138567442D01*
X54343800Y-138781728D01*
X54308085Y-138853157D01*
X54272371Y-138888871D01*
X54200942Y-138924585D01*
X54093800Y-138924585D01*
X55236657Y-138924585D02*
X55236657Y-138424585D01*
X55236657Y-138174585D02*
X55200942Y-138210300D01*
X55236657Y-138246014D01*
X55272371Y-138210300D01*
X55236657Y-138174585D01*
X55236657Y-138246014D01*
X55593800Y-138424585D02*
X55593800Y-138924585D01*
X55593800Y-138496014D02*
X55629514Y-138460300D01*
X55700942Y-138424585D01*
X55808085Y-138424585D01*
X55879514Y-138460300D01*
X55915228Y-138531728D01*
X55915228Y-138924585D01*
X56593800Y-138888871D02*
X56522371Y-138924585D01*
X56379514Y-138924585D01*
X56308085Y-138888871D01*
X56272371Y-138853157D01*
X56236657Y-138781728D01*
X56236657Y-138567442D01*
X56272371Y-138496014D01*
X56308085Y-138460300D01*
X56379514Y-138424585D01*
X56522371Y-138424585D01*
X56593800Y-138460300D01*
X56915228Y-138924585D02*
X56915228Y-138424585D01*
X56915228Y-138567442D02*
X56950942Y-138496014D01*
X56986657Y-138460300D01*
X57058085Y-138424585D01*
X57129514Y-138424585D01*
X57665228Y-138888871D02*
X57593800Y-138924585D01*
X57450942Y-138924585D01*
X57379514Y-138888871D01*
X57343800Y-138817442D01*
X57343800Y-138531728D01*
X57379514Y-138460300D01*
X57450942Y-138424585D01*
X57593800Y-138424585D01*
X57665228Y-138460300D01*
X57700942Y-138531728D01*
X57700942Y-138603157D01*
X57343800Y-138674585D01*
X58343800Y-138924585D02*
X58343800Y-138531728D01*
X58308085Y-138460300D01*
X58236657Y-138424585D01*
X58093800Y-138424585D01*
X58022371Y-138460300D01*
X58343800Y-138888871D02*
X58272371Y-138924585D01*
X58093800Y-138924585D01*
X58022371Y-138888871D01*
X57986657Y-138817442D01*
X57986657Y-138746014D01*
X58022371Y-138674585D01*
X58093800Y-138638871D01*
X58272371Y-138638871D01*
X58343800Y-138603157D01*
X58665228Y-138888871D02*
X58736657Y-138924585D01*
X58879514Y-138924585D01*
X58950942Y-138888871D01*
X58986657Y-138817442D01*
X58986657Y-138781728D01*
X58950942Y-138710300D01*
X58879514Y-138674585D01*
X58772371Y-138674585D01*
X58700942Y-138638871D01*
X58665228Y-138567442D01*
X58665228Y-138531728D01*
X58700942Y-138460300D01*
X58772371Y-138424585D01*
X58879514Y-138424585D01*
X58950942Y-138460300D01*
X59593800Y-138888871D02*
X59522371Y-138924585D01*
X59379514Y-138924585D01*
X59308085Y-138888871D01*
X59272371Y-138817442D01*
X59272371Y-138531728D01*
X59308085Y-138460300D01*
X59379514Y-138424585D01*
X59522371Y-138424585D01*
X59593800Y-138460300D01*
X59629514Y-138531728D01*
X59629514Y-138603157D01*
X59272371Y-138674585D01*
X60843800Y-138924585D02*
X60843800Y-138174585D01*
X60843800Y-138888871D02*
X60772371Y-138924585D01*
X60629514Y-138924585D01*
X60558085Y-138888871D01*
X60522371Y-138853157D01*
X60486657Y-138781728D01*
X60486657Y-138567442D01*
X60522371Y-138496014D01*
X60558085Y-138460300D01*
X60629514Y-138424585D01*
X60772371Y-138424585D01*
X60843800Y-138460300D01*
X61486657Y-138888871D02*
X61415228Y-138924585D01*
X61272371Y-138924585D01*
X61200942Y-138888871D01*
X61165228Y-138817442D01*
X61165228Y-138531728D01*
X61200942Y-138460300D01*
X61272371Y-138424585D01*
X61415228Y-138424585D01*
X61486657Y-138460300D01*
X61522371Y-138531728D01*
X61522371Y-138603157D01*
X61165228Y-138674585D01*
X61950942Y-138924585D02*
X61879514Y-138888871D01*
X61843800Y-138817442D01*
X61843800Y-138174585D01*
X62558085Y-138924585D02*
X62558085Y-138531728D01*
X62522371Y-138460300D01*
X62450942Y-138424585D01*
X62308085Y-138424585D01*
X62236657Y-138460300D01*
X62558085Y-138888871D02*
X62486657Y-138924585D01*
X62308085Y-138924585D01*
X62236657Y-138888871D01*
X62200942Y-138817442D01*
X62200942Y-138746014D01*
X62236657Y-138674585D01*
X62308085Y-138638871D01*
X62486657Y-138638871D01*
X62558085Y-138603157D01*
X62843800Y-138424585D02*
X63022371Y-138924585D01*
X63200942Y-138424585D02*
X63022371Y-138924585D01*
X62950942Y-139103157D01*
X62915228Y-139138871D01*
X62843800Y-139174585D01*
D11*
X108503980Y-135613495D02*
X107503980Y-135613495D01*
X107503980Y-135375400D01*
X107551600Y-135232542D01*
X107646838Y-135137304D01*
X107742076Y-135089685D01*
X107932552Y-135042066D01*
X108075409Y-135042066D01*
X108265885Y-135089685D01*
X108361123Y-135137304D01*
X108456361Y-135232542D01*
X108503980Y-135375400D01*
X108503980Y-135613495D01*
X108456361Y-134232542D02*
X108503980Y-134327780D01*
X108503980Y-134518257D01*
X108456361Y-134613495D01*
X108361123Y-134661114D01*
X107980171Y-134661114D01*
X107884933Y-134613495D01*
X107837314Y-134518257D01*
X107837314Y-134327780D01*
X107884933Y-134232542D01*
X107980171Y-134184923D01*
X108075409Y-134184923D01*
X108170647Y-134661114D01*
X108456361Y-133803971D02*
X108503980Y-133708733D01*
X108503980Y-133518257D01*
X108456361Y-133423019D01*
X108361123Y-133375400D01*
X108313504Y-133375400D01*
X108218266Y-133423019D01*
X108170647Y-133518257D01*
X108170647Y-133661114D01*
X108123028Y-133756352D01*
X108027790Y-133803971D01*
X107980171Y-133803971D01*
X107884933Y-133756352D01*
X107837314Y-133661114D01*
X107837314Y-133518257D01*
X107884933Y-133423019D01*
X107837314Y-132946828D02*
X108837314Y-132946828D01*
X107884933Y-132946828D02*
X107837314Y-132851590D01*
X107837314Y-132661114D01*
X107884933Y-132565876D01*
X107932552Y-132518257D01*
X108027790Y-132470638D01*
X108313504Y-132470638D01*
X108408742Y-132518257D01*
X108456361Y-132565876D01*
X108503980Y-132661114D01*
X108503980Y-132851590D01*
X108456361Y-132946828D01*
X108503980Y-132042066D02*
X107837314Y-132042066D01*
X107503980Y-132042066D02*
X107551600Y-132089685D01*
X107599219Y-132042066D01*
X107551600Y-131994447D01*
X107503980Y-132042066D01*
X107599219Y-132042066D01*
X107837314Y-131565876D02*
X108503980Y-131565876D01*
X107932552Y-131565876D02*
X107884933Y-131518257D01*
X107837314Y-131423019D01*
X107837314Y-131280161D01*
X107884933Y-131184923D01*
X107980171Y-131137304D01*
X108503980Y-131137304D01*
X51490619Y-130711914D02*
X52490619Y-130711914D01*
X52490619Y-131092866D01*
X52443000Y-131188104D01*
X52395380Y-131235723D01*
X52300142Y-131283342D01*
X52157285Y-131283342D01*
X52062047Y-131235723D01*
X52014428Y-131188104D01*
X51966809Y-131092866D01*
X51966809Y-130711914D01*
X52157285Y-131711914D02*
X51490619Y-131711914D01*
X52062047Y-131711914D02*
X52109666Y-131759533D01*
X52157285Y-131854771D01*
X52157285Y-131997628D01*
X52109666Y-132092866D01*
X52014428Y-132140485D01*
X51490619Y-132140485D01*
X51538238Y-132997628D02*
X51490619Y-132902390D01*
X51490619Y-132711914D01*
X51538238Y-132616676D01*
X51633476Y-132569057D01*
X52014428Y-132569057D01*
X52109666Y-132616676D01*
X52157285Y-132711914D01*
X52157285Y-132902390D01*
X52109666Y-132997628D01*
X52014428Y-133045247D01*
X51919190Y-133045247D01*
X51823952Y-132569057D01*
X52157285Y-133902390D02*
X51490619Y-133902390D01*
X52157285Y-133473819D02*
X51633476Y-133473819D01*
X51538238Y-133521438D01*
X51490619Y-133616676D01*
X51490619Y-133759533D01*
X51538238Y-133854771D01*
X51585857Y-133902390D01*
X51490619Y-134378580D02*
X52157285Y-134378580D01*
X52062047Y-134378580D02*
X52109666Y-134426200D01*
X52157285Y-134521438D01*
X52157285Y-134664295D01*
X52109666Y-134759533D01*
X52014428Y-134807152D01*
X51490619Y-134807152D01*
X52014428Y-134807152D02*
X52109666Y-134854771D01*
X52157285Y-134950009D01*
X52157285Y-135092866D01*
X52109666Y-135188104D01*
X52014428Y-135235723D01*
X51490619Y-135235723D01*
X51490619Y-136140485D02*
X52014428Y-136140485D01*
X52109666Y-136092866D01*
X52157285Y-135997628D01*
X52157285Y-135807152D01*
X52109666Y-135711914D01*
X51538238Y-136140485D02*
X51490619Y-136045247D01*
X51490619Y-135807152D01*
X51538238Y-135711914D01*
X51633476Y-135664295D01*
X51728714Y-135664295D01*
X51823952Y-135711914D01*
X51871571Y-135807152D01*
X51871571Y-136045247D01*
X51919190Y-136140485D01*
X51563638Y-109749057D02*
X51516019Y-109891914D01*
X51516019Y-110130009D01*
X51563638Y-110225247D01*
X51611257Y-110272866D01*
X51706495Y-110320485D01*
X51801733Y-110320485D01*
X51896971Y-110272866D01*
X51944590Y-110225247D01*
X51992209Y-110130009D01*
X52039828Y-109939533D01*
X52087447Y-109844295D01*
X52135066Y-109796676D01*
X52230304Y-109749057D01*
X52325542Y-109749057D01*
X52420780Y-109796676D01*
X52468400Y-109844295D01*
X52516019Y-109939533D01*
X52516019Y-110177628D01*
X52468400Y-110320485D01*
X51516019Y-110749057D02*
X52516019Y-110749057D01*
X51516019Y-111177628D02*
X52039828Y-111177628D01*
X52135066Y-111130009D01*
X52182685Y-111034771D01*
X52182685Y-110891914D01*
X52135066Y-110796676D01*
X52087447Y-110749057D01*
X52182685Y-112082390D02*
X51516019Y-112082390D01*
X52182685Y-111653819D02*
X51658876Y-111653819D01*
X51563638Y-111701438D01*
X51516019Y-111796676D01*
X51516019Y-111939533D01*
X51563638Y-112034771D01*
X51611257Y-112082390D01*
X52182685Y-112415723D02*
X52182685Y-112796676D01*
X52516019Y-112558580D02*
X51658876Y-112558580D01*
X51563638Y-112606200D01*
X51516019Y-112701438D01*
X51516019Y-112796676D01*
X51516019Y-113558580D02*
X52516019Y-113558580D01*
X51563638Y-113558580D02*
X51516019Y-113463342D01*
X51516019Y-113272866D01*
X51563638Y-113177628D01*
X51611257Y-113130009D01*
X51706495Y-113082390D01*
X51992209Y-113082390D01*
X52087447Y-113130009D01*
X52135066Y-113177628D01*
X52182685Y-113272866D01*
X52182685Y-113463342D01*
X52135066Y-113558580D01*
X51516019Y-114177628D02*
X51563638Y-114082390D01*
X51611257Y-114034771D01*
X51706495Y-113987152D01*
X51992209Y-113987152D01*
X52087447Y-114034771D01*
X52135066Y-114082390D01*
X52182685Y-114177628D01*
X52182685Y-114320485D01*
X52135066Y-114415723D01*
X52087447Y-114463342D01*
X51992209Y-114510961D01*
X51706495Y-114510961D01*
X51611257Y-114463342D01*
X51563638Y-114415723D01*
X51516019Y-114320485D01*
X51516019Y-114177628D01*
X52182685Y-114844295D02*
X51516019Y-115034771D01*
X51992209Y-115225247D01*
X51516019Y-115415723D01*
X52182685Y-115606200D01*
X52182685Y-115987152D02*
X51516019Y-115987152D01*
X52087447Y-115987152D02*
X52135066Y-116034771D01*
X52182685Y-116130009D01*
X52182685Y-116272866D01*
X52135066Y-116368104D01*
X52039828Y-116415723D01*
X51516019Y-116415723D01*
D10*
X70469142Y-138616857D02*
X70677785Y-138689428D01*
X71040642Y-138689428D01*
X71194857Y-138616857D01*
X71276500Y-138544285D01*
X71367214Y-138399142D01*
X71385357Y-138254000D01*
X71330928Y-138108857D01*
X71267428Y-138036285D01*
X71131357Y-137963714D01*
X70850142Y-137891142D01*
X70714071Y-137818571D01*
X70650571Y-137746000D01*
X70596142Y-137600857D01*
X70614285Y-137455714D01*
X70705000Y-137310571D01*
X70786642Y-137238000D01*
X70940857Y-137165428D01*
X71303714Y-137165428D01*
X71512357Y-137238000D01*
X72573714Y-138616857D02*
X72419500Y-138689428D01*
X72129214Y-138689428D01*
X71993142Y-138616857D01*
X71938714Y-138471714D01*
X72011285Y-137891142D01*
X72102000Y-137746000D01*
X72256214Y-137673428D01*
X72546500Y-137673428D01*
X72682571Y-137746000D01*
X72737000Y-137891142D01*
X72718857Y-138036285D01*
X71975000Y-138181428D01*
X74070500Y-137673428D02*
X73880000Y-139197428D01*
X73952571Y-138616857D02*
X73798357Y-138689428D01*
X73508071Y-138689428D01*
X73372000Y-138616857D01*
X73308500Y-138544285D01*
X73254071Y-138399142D01*
X73308500Y-137963714D01*
X73399214Y-137818571D01*
X73480857Y-137746000D01*
X73635071Y-137673428D01*
X73925357Y-137673428D01*
X74061428Y-137746000D01*
X75449357Y-137673428D02*
X75322357Y-138689428D01*
X74796214Y-137673428D02*
X74696428Y-138471714D01*
X74750857Y-138616857D01*
X74886928Y-138689428D01*
X75104642Y-138689428D01*
X75258857Y-138616857D01*
X75340500Y-138544285D01*
X76637714Y-138616857D02*
X76483500Y-138689428D01*
X76193214Y-138689428D01*
X76057142Y-138616857D01*
X76002714Y-138471714D01*
X76075285Y-137891142D01*
X76166000Y-137746000D01*
X76320214Y-137673428D01*
X76610500Y-137673428D01*
X76746571Y-137746000D01*
X76801000Y-137891142D01*
X76782857Y-138036285D01*
X76039000Y-138181428D01*
X77481357Y-137673428D02*
X77354357Y-138689428D01*
X77463214Y-137818571D02*
X77544857Y-137746000D01*
X77699071Y-137673428D01*
X77916785Y-137673428D01*
X78052857Y-137746000D01*
X78107285Y-137891142D01*
X78007500Y-138689428D01*
X79395428Y-138616857D02*
X79241214Y-138689428D01*
X78950928Y-138689428D01*
X78814857Y-138616857D01*
X78751357Y-138544285D01*
X78696928Y-138399142D01*
X78751357Y-137963714D01*
X78842071Y-137818571D01*
X78923714Y-137746000D01*
X79077928Y-137673428D01*
X79368214Y-137673428D01*
X79504285Y-137746000D01*
X80629142Y-138616857D02*
X80474928Y-138689428D01*
X80184642Y-138689428D01*
X80048571Y-138616857D01*
X79994142Y-138471714D01*
X80066714Y-137891142D01*
X80157428Y-137746000D01*
X80311642Y-137673428D01*
X80601928Y-137673428D01*
X80738000Y-137746000D01*
X80792428Y-137891142D01*
X80774285Y-138036285D01*
X80030428Y-138181428D01*
X81345785Y-138689428D02*
X81472785Y-137673428D01*
X81436500Y-137963714D02*
X81527214Y-137818571D01*
X81608857Y-137746000D01*
X81763071Y-137673428D01*
X81908214Y-137673428D01*
X83450357Y-138689428D02*
X83640857Y-137165428D01*
X83568285Y-137746000D02*
X83722500Y-137673428D01*
X84012785Y-137673428D01*
X84148857Y-137746000D01*
X84212357Y-137818571D01*
X84266785Y-137963714D01*
X84212357Y-138399142D01*
X84121642Y-138544285D01*
X84040000Y-138616857D01*
X83885785Y-138689428D01*
X83595500Y-138689428D01*
X83459428Y-138616857D01*
X85046928Y-138689428D02*
X84910857Y-138616857D01*
X84847357Y-138544285D01*
X84792928Y-138399142D01*
X84847357Y-137963714D01*
X84938071Y-137818571D01*
X85019714Y-137746000D01*
X85173928Y-137673428D01*
X85391642Y-137673428D01*
X85527714Y-137746000D01*
X85591214Y-137818571D01*
X85645642Y-137963714D01*
X85591214Y-138399142D01*
X85500500Y-138544285D01*
X85418857Y-138616857D01*
X85264642Y-138689428D01*
X85046928Y-138689428D01*
X86861214Y-138689428D02*
X86961000Y-137891142D01*
X86906571Y-137746000D01*
X86770500Y-137673428D01*
X86480214Y-137673428D01*
X86326000Y-137746000D01*
X86870285Y-138616857D02*
X86716071Y-138689428D01*
X86353214Y-138689428D01*
X86217142Y-138616857D01*
X86162714Y-138471714D01*
X86180857Y-138326571D01*
X86271571Y-138181428D01*
X86425785Y-138108857D01*
X86788642Y-138108857D01*
X86942857Y-138036285D01*
X87586928Y-138689428D02*
X87713928Y-137673428D01*
X87677642Y-137963714D02*
X87768357Y-137818571D01*
X87850000Y-137746000D01*
X88004214Y-137673428D01*
X88149357Y-137673428D01*
X89183500Y-138689428D02*
X89374000Y-137165428D01*
X89192571Y-138616857D02*
X89038357Y-138689428D01*
X88748071Y-138689428D01*
X88612000Y-138616857D01*
X88548500Y-138544285D01*
X88494071Y-138399142D01*
X88548499Y-137963714D01*
X88639214Y-137818571D01*
X88720857Y-137746000D01*
X88875071Y-137673428D01*
X89165357Y-137673428D01*
X89301428Y-137746000D01*
X75340500Y-136254000D02*
X76066214Y-136254000D01*
X75140928Y-136689428D02*
X75839428Y-135165428D01*
X76156928Y-136689428D01*
X76764714Y-135891142D02*
X77272714Y-135891142D01*
X77390642Y-136689428D02*
X76664928Y-136689428D01*
X76855428Y-135165428D01*
X77581142Y-135165428D01*
X78914642Y-136689428D02*
X78497357Y-135963714D01*
X78043785Y-136689428D02*
X78234285Y-135165428D01*
X78814857Y-135165428D01*
X78950928Y-135238000D01*
X79014428Y-135310571D01*
X79068857Y-135455714D01*
X79041642Y-135673428D01*
X78950928Y-135818571D01*
X78869285Y-135891142D01*
X78715071Y-135963714D01*
X78134500Y-135963714D01*
X79567785Y-136689428D02*
X79758285Y-135165428D01*
X80230000Y-136616857D02*
X80438642Y-136689428D01*
X80801500Y-136689428D01*
X80955714Y-136616857D01*
X81037357Y-136544285D01*
X81128071Y-136399142D01*
X81146214Y-136254000D01*
X81091785Y-136108857D01*
X81028285Y-136036285D01*
X80892214Y-135963714D01*
X80611000Y-135891142D01*
X80474928Y-135818571D01*
X80411428Y-135746000D01*
X80357000Y-135600857D01*
X80375142Y-135455714D01*
X80465857Y-135310571D01*
X80547500Y-135238000D01*
X80701714Y-135165428D01*
X81064571Y-135165428D01*
X81273214Y-135238000D01*
X82906071Y-136689428D02*
X83096571Y-135165428D01*
X83631785Y-136689428D02*
X83822285Y-135165428D01*
X84357500Y-136689428D02*
X84548000Y-135165428D01*
D12*
X62672179Y-98854800D02*
X62346621Y-98854800D01*
X62672179Y-99874800D02*
X62346621Y-99874800D01*
X67000200Y-95683800D02*
X67000200Y-94583800D01*
X66730200Y-95683800D02*
X67000200Y-95683800D01*
X66730200Y-97183800D02*
X66730200Y-95683800D01*
X73360200Y-95683800D02*
X73360200Y-92853800D01*
X73630200Y-95683800D02*
X73360200Y-95683800D01*
X73630200Y-97183800D02*
X73630200Y-95683800D01*
X62748379Y-92809600D02*
X62422821Y-92809600D01*
X62748379Y-93829600D02*
X62422821Y-93829600D01*
X56963000Y-97697600D02*
X56963000Y-96367600D01*
X58293000Y-97697600D02*
X56963000Y-97697600D01*
X59563000Y-97697600D02*
X59563000Y-95037600D01*
X59563000Y-95037600D02*
X64703000Y-95037600D01*
X59563000Y-97697600D02*
X64703000Y-97697600D01*
X64703000Y-97697600D02*
X64703000Y-95037600D01*
X102270779Y-117854000D02*
X101945221Y-117854000D01*
X102270779Y-118874000D02*
X101945221Y-118874000D01*
X65363754Y-110823400D02*
X65363754Y-111823400D01*
X64863754Y-111323400D02*
X65863754Y-111323400D01*
X75424400Y-113599400D02*
X75424400Y-114797400D01*
X75384400Y-113336400D02*
X75384400Y-115060400D01*
X75344400Y-113136400D02*
X75344400Y-115260400D01*
X75304400Y-112968400D02*
X75304400Y-115428400D01*
X75264400Y-112820400D02*
X75264400Y-115576400D01*
X75224400Y-112688400D02*
X75224400Y-115708400D01*
X75184400Y-112568400D02*
X75184400Y-115828400D01*
X75144400Y-112456400D02*
X75144400Y-115940400D01*
X75104400Y-112352400D02*
X75104400Y-116044400D01*
X75064400Y-112254400D02*
X75064400Y-116142400D01*
X75024400Y-112161400D02*
X75024400Y-116235400D01*
X74984400Y-112073400D02*
X74984400Y-116323400D01*
X74944400Y-111989400D02*
X74944400Y-116407400D01*
X74904400Y-111909400D02*
X74904400Y-116487400D01*
X74864400Y-111833400D02*
X74864400Y-116563400D01*
X74824400Y-111759400D02*
X74824400Y-116637400D01*
X74784400Y-111688400D02*
X74784400Y-116708400D01*
X74744400Y-111619400D02*
X74744400Y-116777400D01*
X74704400Y-111553400D02*
X74704400Y-116843400D01*
X74664400Y-111489400D02*
X74664400Y-116907400D01*
X74624400Y-111428400D02*
X74624400Y-116968400D01*
X74584400Y-111368400D02*
X74584400Y-117028400D01*
X74544400Y-111309400D02*
X74544400Y-117087400D01*
X74504400Y-111253400D02*
X74504400Y-117143400D01*
X74464400Y-111198400D02*
X74464400Y-117198400D01*
X74424400Y-111144400D02*
X74424400Y-117252400D01*
X74384400Y-111092400D02*
X74384400Y-117304400D01*
X74344400Y-111042400D02*
X74344400Y-117354400D01*
X74304400Y-110992400D02*
X74304400Y-117404400D01*
X74264400Y-110944400D02*
X74264400Y-117452400D01*
X74224400Y-110897400D02*
X74224400Y-117499400D01*
X74184400Y-110851400D02*
X74184400Y-117545400D01*
X74144400Y-110806400D02*
X74144400Y-117590400D01*
X74104400Y-110762400D02*
X74104400Y-117634400D01*
X74064400Y-115439400D02*
X74064400Y-117676400D01*
X74064400Y-110720400D02*
X74064400Y-112957400D01*
X74024400Y-115439400D02*
X74024400Y-117718400D01*
X74024400Y-110678400D02*
X74024400Y-112957400D01*
X73984400Y-115439400D02*
X73984400Y-117759400D01*
X73984400Y-110637400D02*
X73984400Y-112957400D01*
X73944400Y-115439400D02*
X73944400Y-117799400D01*
X73944400Y-110597400D02*
X73944400Y-112957400D01*
X73904400Y-115439400D02*
X73904400Y-117838400D01*
X73904400Y-110558400D02*
X73904400Y-112957400D01*
X73864400Y-115439400D02*
X73864400Y-117877400D01*
X73864400Y-110519400D02*
X73864400Y-112957400D01*
X73824400Y-115439400D02*
X73824400Y-117914400D01*
X73824400Y-110482400D02*
X73824400Y-112957400D01*
X73784400Y-115439400D02*
X73784400Y-117951400D01*
X73784400Y-110445400D02*
X73784400Y-112957400D01*
X73744400Y-115439400D02*
X73744400Y-117987400D01*
X73744400Y-110409400D02*
X73744400Y-112957400D01*
X73704400Y-115439400D02*
X73704400Y-118022400D01*
X73704400Y-110374400D02*
X73704400Y-112957400D01*
X73664400Y-115439400D02*
X73664400Y-118056400D01*
X73664400Y-110340400D02*
X73664400Y-112957400D01*
X73624400Y-115439400D02*
X73624400Y-118090400D01*
X73624400Y-110306400D02*
X73624400Y-112957400D01*
X73584400Y-115439400D02*
X73584400Y-118123400D01*
X73584400Y-110273400D02*
X73584400Y-112957400D01*
X73544400Y-115439400D02*
X73544400Y-118155400D01*
X73544400Y-110241400D02*
X73544400Y-112957400D01*
X73504400Y-115439400D02*
X73504400Y-118187400D01*
X73504400Y-110209400D02*
X73504400Y-112957400D01*
X73464400Y-115439400D02*
X73464400Y-118218400D01*
X73464400Y-110178400D02*
X73464400Y-112957400D01*
X73424400Y-115439400D02*
X73424400Y-118248400D01*
X73424400Y-110148400D02*
X73424400Y-112957400D01*
X73384400Y-115439400D02*
X73384400Y-118278400D01*
X73384400Y-110118400D02*
X73384400Y-112957400D01*
X73344400Y-115439400D02*
X73344400Y-118308400D01*
X73344400Y-110088400D02*
X73344400Y-112957400D01*
X73304400Y-115439400D02*
X73304400Y-118336400D01*
X73304400Y-110060400D02*
X73304400Y-112957400D01*
X73264400Y-115439400D02*
X73264400Y-118364400D01*
X73264400Y-110032400D02*
X73264400Y-112957400D01*
X73224400Y-115439400D02*
X73224400Y-118392400D01*
X73224400Y-110004400D02*
X73224400Y-112957400D01*
X73184400Y-115439400D02*
X73184400Y-118419400D01*
X73184400Y-109977400D02*
X73184400Y-112957400D01*
X73144400Y-115439400D02*
X73144400Y-118445400D01*
X73144400Y-109951400D02*
X73144400Y-112957400D01*
X73104400Y-115439400D02*
X73104400Y-118471400D01*
X73104400Y-109925400D02*
X73104400Y-112957400D01*
X73064400Y-115439400D02*
X73064400Y-118496400D01*
X73064400Y-109900400D02*
X73064400Y-112957400D01*
X73024400Y-115439400D02*
X73024400Y-118521400D01*
X73024400Y-109875400D02*
X73024400Y-112957400D01*
X72984400Y-115439400D02*
X72984400Y-118545400D01*
X72984400Y-109851400D02*
X72984400Y-112957400D01*
X72944400Y-115439400D02*
X72944400Y-118569400D01*
X72944400Y-109827400D02*
X72944400Y-112957400D01*
X72904400Y-115439400D02*
X72904400Y-118593400D01*
X72904400Y-109803400D02*
X72904400Y-112957400D01*
X72864400Y-115439400D02*
X72864400Y-118615400D01*
X72864400Y-109781400D02*
X72864400Y-112957400D01*
X72824400Y-115439400D02*
X72824400Y-118638400D01*
X72824400Y-109758400D02*
X72824400Y-112957400D01*
X72784400Y-115439400D02*
X72784400Y-118660400D01*
X72784400Y-109736400D02*
X72784400Y-112957400D01*
X72744400Y-115439400D02*
X72744400Y-118681400D01*
X72744400Y-109715400D02*
X72744400Y-112957400D01*
X72704400Y-115439400D02*
X72704400Y-118702400D01*
X72704400Y-109694400D02*
X72704400Y-112957400D01*
X72664400Y-115439400D02*
X72664400Y-118723400D01*
X72664400Y-109673400D02*
X72664400Y-112957400D01*
X72624400Y-115439400D02*
X72624400Y-118743400D01*
X72624400Y-109653400D02*
X72624400Y-112957400D01*
X72584400Y-115439400D02*
X72584400Y-118762400D01*
X72584400Y-109634400D02*
X72584400Y-112957400D01*
X72544400Y-115439400D02*
X72544400Y-118782400D01*
X72544400Y-109614400D02*
X72544400Y-112957400D01*
X72504400Y-115439400D02*
X72504400Y-118801400D01*
X72504400Y-109595400D02*
X72504400Y-112957400D01*
X72464400Y-115439400D02*
X72464400Y-118819400D01*
X72464400Y-109577400D02*
X72464400Y-112957400D01*
X72424400Y-115439400D02*
X72424400Y-118837400D01*
X72424400Y-109559400D02*
X72424400Y-112957400D01*
X72384400Y-115439400D02*
X72384400Y-118855400D01*
X72384400Y-109541400D02*
X72384400Y-112957400D01*
X72344400Y-115439400D02*
X72344400Y-118872400D01*
X72344400Y-109524400D02*
X72344400Y-112957400D01*
X72304400Y-115439400D02*
X72304400Y-118888400D01*
X72304400Y-109508400D02*
X72304400Y-112957400D01*
X72264400Y-115439400D02*
X72264400Y-118905400D01*
X72264400Y-109491400D02*
X72264400Y-112957400D01*
X72224400Y-115439400D02*
X72224400Y-118921400D01*
X72224400Y-109475400D02*
X72224400Y-112957400D01*
X72184400Y-115439400D02*
X72184400Y-118936400D01*
X72184400Y-109460400D02*
X72184400Y-112957400D01*
X72144400Y-115439400D02*
X72144400Y-118952400D01*
X72144400Y-109444400D02*
X72144400Y-112957400D01*
X72104400Y-115439400D02*
X72104400Y-118966400D01*
X72104400Y-109430400D02*
X72104400Y-112957400D01*
X72064400Y-115439400D02*
X72064400Y-118981400D01*
X72064400Y-109415400D02*
X72064400Y-112957400D01*
X72024400Y-115439400D02*
X72024400Y-118995400D01*
X72024400Y-109401400D02*
X72024400Y-112957400D01*
X71984400Y-115439400D02*
X71984400Y-119009400D01*
X71984400Y-109387400D02*
X71984400Y-112957400D01*
X71944400Y-115439400D02*
X71944400Y-119022400D01*
X71944400Y-109374400D02*
X71944400Y-112957400D01*
X71904400Y-115439400D02*
X71904400Y-119035400D01*
X71904400Y-109361400D02*
X71904400Y-112957400D01*
X71864400Y-115439400D02*
X71864400Y-119048400D01*
X71864400Y-109348400D02*
X71864400Y-112957400D01*
X71824400Y-115439400D02*
X71824400Y-119060400D01*
X71824400Y-109336400D02*
X71824400Y-112957400D01*
X71784400Y-115439400D02*
X71784400Y-119072400D01*
X71784400Y-109324400D02*
X71784400Y-112957400D01*
X71744400Y-115439400D02*
X71744400Y-119083400D01*
X71744400Y-109313400D02*
X71744400Y-112957400D01*
X71704400Y-115439400D02*
X71704400Y-119095400D01*
X71704400Y-109301400D02*
X71704400Y-112957400D01*
X71664400Y-115439400D02*
X71664400Y-119105400D01*
X71664400Y-109291400D02*
X71664400Y-112957400D01*
X71624400Y-115439400D02*
X71624400Y-119116400D01*
X71624400Y-109280400D02*
X71624400Y-112957400D01*
X71584400Y-109270400D02*
X71584400Y-119126400D01*
X71544400Y-109260400D02*
X71544400Y-119136400D01*
X71504400Y-109251400D02*
X71504400Y-119145400D01*
X71464400Y-109242400D02*
X71464400Y-119154400D01*
X71424400Y-109233400D02*
X71424400Y-119163400D01*
X71384400Y-109224400D02*
X71384400Y-119172400D01*
X71344400Y-109216400D02*
X71344400Y-119180400D01*
X71304400Y-109208400D02*
X71304400Y-119188400D01*
X71264400Y-109201400D02*
X71264400Y-119195400D01*
X71224400Y-109194400D02*
X71224400Y-119202400D01*
X71184400Y-109187400D02*
X71184400Y-119209400D01*
X71144400Y-109180400D02*
X71144400Y-119216400D01*
X71104400Y-109174400D02*
X71104400Y-119222400D01*
X71064400Y-109168400D02*
X71064400Y-119228400D01*
X71023400Y-109163400D02*
X71023400Y-119233400D01*
X70983400Y-109158400D02*
X70983400Y-119238400D01*
X70943400Y-109153400D02*
X70943400Y-119243400D01*
X70903400Y-109148400D02*
X70903400Y-119248400D01*
X70863400Y-109144400D02*
X70863400Y-119252400D01*
X70823400Y-109140400D02*
X70823400Y-119256400D01*
X70783400Y-109136400D02*
X70783400Y-119260400D01*
X70743400Y-109133400D02*
X70743400Y-119263400D01*
X70703400Y-109130400D02*
X70703400Y-119266400D01*
X70663400Y-109128400D02*
X70663400Y-119268400D01*
X70623400Y-109125400D02*
X70623400Y-119271400D01*
X70583400Y-109123400D02*
X70583400Y-119273400D01*
X70543400Y-109121400D02*
X70543400Y-119275400D01*
X70503400Y-109120400D02*
X70503400Y-119276400D01*
X70463400Y-109119400D02*
X70463400Y-119277400D01*
X70423400Y-109118400D02*
X70423400Y-119278400D01*
X70383400Y-109118400D02*
X70383400Y-119278400D01*
X70343400Y-109118400D02*
X70343400Y-119278400D01*
X75463400Y-114198400D02*
G75*
G03X75463400Y-114198400I-5120000J0D01*
G01*
X94060000Y-130810000D02*
G75*
G03X94060000Y-130810000I-5120000J0D01*
G01*
X88940000Y-135890000D02*
X88940000Y-125730000D01*
X88900000Y-135890000D02*
X88900000Y-125730000D01*
X88860000Y-135890000D02*
X88860000Y-125730000D01*
X88820000Y-135889000D02*
X88820000Y-125731000D01*
X88780000Y-135888000D02*
X88780000Y-125732000D01*
X88740000Y-135887000D02*
X88740000Y-125733000D01*
X88700000Y-135885000D02*
X88700000Y-125735000D01*
X88660000Y-135883000D02*
X88660000Y-125737000D01*
X88620000Y-135880000D02*
X88620000Y-125740000D01*
X88580000Y-135878000D02*
X88580000Y-125742000D01*
X88540000Y-135875000D02*
X88540000Y-125745000D01*
X88500000Y-135872000D02*
X88500000Y-125748000D01*
X88460000Y-135868000D02*
X88460000Y-125752000D01*
X88420000Y-135864000D02*
X88420000Y-125756000D01*
X88380000Y-135860000D02*
X88380000Y-125760000D01*
X88340000Y-135855000D02*
X88340000Y-125765000D01*
X88300000Y-135850000D02*
X88300000Y-125770000D01*
X88260000Y-135845000D02*
X88260000Y-125775000D01*
X88219000Y-135840000D02*
X88219000Y-125780000D01*
X88179000Y-135834000D02*
X88179000Y-125786000D01*
X88139000Y-135828000D02*
X88139000Y-125792000D01*
X88099000Y-135821000D02*
X88099000Y-125799000D01*
X88059000Y-135814000D02*
X88059000Y-125806000D01*
X88019000Y-135807000D02*
X88019000Y-125813000D01*
X87979000Y-135800000D02*
X87979000Y-125820000D01*
X87939000Y-135792000D02*
X87939000Y-125828000D01*
X87899000Y-135784000D02*
X87899000Y-125836000D01*
X87859000Y-135775000D02*
X87859000Y-125845000D01*
X87819000Y-135766000D02*
X87819000Y-125854000D01*
X87779000Y-135757000D02*
X87779000Y-125863000D01*
X87739000Y-135748000D02*
X87739000Y-125872000D01*
X87699000Y-135738000D02*
X87699000Y-125882000D01*
X87659000Y-135728000D02*
X87659000Y-132051000D01*
X87659000Y-129569000D02*
X87659000Y-125892000D01*
X87619000Y-135717000D02*
X87619000Y-132051000D01*
X87619000Y-129569000D02*
X87619000Y-125903000D01*
X87579000Y-135707000D02*
X87579000Y-132051000D01*
X87579000Y-129569000D02*
X87579000Y-125913000D01*
X87539000Y-135695000D02*
X87539000Y-132051000D01*
X87539000Y-129569000D02*
X87539000Y-125925000D01*
X87499000Y-135684000D02*
X87499000Y-132051000D01*
X87499000Y-129569000D02*
X87499000Y-125936000D01*
X87459000Y-135672000D02*
X87459000Y-132051000D01*
X87459000Y-129569000D02*
X87459000Y-125948000D01*
X87419000Y-135660000D02*
X87419000Y-132051000D01*
X87419000Y-129569000D02*
X87419000Y-125960000D01*
X87379000Y-135647000D02*
X87379000Y-132051000D01*
X87379000Y-129569000D02*
X87379000Y-125973000D01*
X87339000Y-135634000D02*
X87339000Y-132051000D01*
X87339000Y-129569000D02*
X87339000Y-125986000D01*
X87299000Y-135621000D02*
X87299000Y-132051000D01*
X87299000Y-129569000D02*
X87299000Y-125999000D01*
X87259000Y-135607000D02*
X87259000Y-132051000D01*
X87259000Y-129569000D02*
X87259000Y-126013000D01*
X87219000Y-135593000D02*
X87219000Y-132051000D01*
X87219000Y-129569000D02*
X87219000Y-126027000D01*
X87179000Y-135578000D02*
X87179000Y-132051000D01*
X87179000Y-129569000D02*
X87179000Y-126042000D01*
X87139000Y-135564000D02*
X87139000Y-132051000D01*
X87139000Y-129569000D02*
X87139000Y-126056000D01*
X87099000Y-135548000D02*
X87099000Y-132051000D01*
X87099000Y-129569000D02*
X87099000Y-126072000D01*
X87059000Y-135533000D02*
X87059000Y-132051000D01*
X87059000Y-129569000D02*
X87059000Y-126087000D01*
X87019000Y-135517000D02*
X87019000Y-132051000D01*
X87019000Y-129569000D02*
X87019000Y-126103000D01*
X86979000Y-135500000D02*
X86979000Y-132051000D01*
X86979000Y-129569000D02*
X86979000Y-126120000D01*
X86939000Y-135484000D02*
X86939000Y-132051000D01*
X86939000Y-129569000D02*
X86939000Y-126136000D01*
X86899000Y-135467000D02*
X86899000Y-132051000D01*
X86899000Y-129569000D02*
X86899000Y-126153000D01*
X86859000Y-135449000D02*
X86859000Y-132051000D01*
X86859000Y-129569000D02*
X86859000Y-126171000D01*
X86819000Y-135431000D02*
X86819000Y-132051000D01*
X86819000Y-129569000D02*
X86819000Y-126189000D01*
X86779000Y-135413000D02*
X86779000Y-132051000D01*
X86779000Y-129569000D02*
X86779000Y-126207000D01*
X86739000Y-135394000D02*
X86739000Y-132051000D01*
X86739000Y-129569000D02*
X86739000Y-126226000D01*
X86699000Y-135374000D02*
X86699000Y-132051000D01*
X86699000Y-129569000D02*
X86699000Y-126246000D01*
X86659000Y-135355000D02*
X86659000Y-132051000D01*
X86659000Y-129569000D02*
X86659000Y-126265000D01*
X86619000Y-135335000D02*
X86619000Y-132051000D01*
X86619000Y-129569000D02*
X86619000Y-126285000D01*
X86579000Y-135314000D02*
X86579000Y-132051000D01*
X86579000Y-129569000D02*
X86579000Y-126306000D01*
X86539000Y-135293000D02*
X86539000Y-132051000D01*
X86539000Y-129569000D02*
X86539000Y-126327000D01*
X86499000Y-135272000D02*
X86499000Y-132051000D01*
X86499000Y-129569000D02*
X86499000Y-126348000D01*
X86459000Y-135250000D02*
X86459000Y-132051000D01*
X86459000Y-129569000D02*
X86459000Y-126370000D01*
X86419000Y-135227000D02*
X86419000Y-132051000D01*
X86419000Y-129569000D02*
X86419000Y-126393000D01*
X86379000Y-135205000D02*
X86379000Y-132051000D01*
X86379000Y-129569000D02*
X86379000Y-126415000D01*
X86339000Y-135181000D02*
X86339000Y-132051000D01*
X86339000Y-129569000D02*
X86339000Y-126439000D01*
X86299000Y-135157000D02*
X86299000Y-132051000D01*
X86299000Y-129569000D02*
X86299000Y-126463000D01*
X86259000Y-135133000D02*
X86259000Y-132051000D01*
X86259000Y-129569000D02*
X86259000Y-126487000D01*
X86219000Y-135108000D02*
X86219000Y-132051000D01*
X86219000Y-129569000D02*
X86219000Y-126512000D01*
X86179000Y-135083000D02*
X86179000Y-132051000D01*
X86179000Y-129569000D02*
X86179000Y-126537000D01*
X86139000Y-135057000D02*
X86139000Y-132051000D01*
X86139000Y-129569000D02*
X86139000Y-126563000D01*
X86099000Y-135031000D02*
X86099000Y-132051000D01*
X86099000Y-129569000D02*
X86099000Y-126589000D01*
X86059000Y-135004000D02*
X86059000Y-132051000D01*
X86059000Y-129569000D02*
X86059000Y-126616000D01*
X86019000Y-134976000D02*
X86019000Y-132051000D01*
X86019000Y-129569000D02*
X86019000Y-126644000D01*
X85979000Y-134948000D02*
X85979000Y-132051000D01*
X85979000Y-129569000D02*
X85979000Y-126672000D01*
X85939000Y-134920000D02*
X85939000Y-132051000D01*
X85939000Y-129569000D02*
X85939000Y-126700000D01*
X85899000Y-134890000D02*
X85899000Y-132051000D01*
X85899000Y-129569000D02*
X85899000Y-126730000D01*
X85859000Y-134860000D02*
X85859000Y-132051000D01*
X85859000Y-129569000D02*
X85859000Y-126760000D01*
X85819000Y-134830000D02*
X85819000Y-132051000D01*
X85819000Y-129569000D02*
X85819000Y-126790000D01*
X85779000Y-134799000D02*
X85779000Y-132051000D01*
X85779000Y-129569000D02*
X85779000Y-126821000D01*
X85739000Y-134767000D02*
X85739000Y-132051000D01*
X85739000Y-129569000D02*
X85739000Y-126853000D01*
X85699000Y-134735000D02*
X85699000Y-132051000D01*
X85699000Y-129569000D02*
X85699000Y-126885000D01*
X85659000Y-134702000D02*
X85659000Y-132051000D01*
X85659000Y-129569000D02*
X85659000Y-126918000D01*
X85619000Y-134668000D02*
X85619000Y-132051000D01*
X85619000Y-129569000D02*
X85619000Y-126952000D01*
X85579000Y-134634000D02*
X85579000Y-132051000D01*
X85579000Y-129569000D02*
X85579000Y-126986000D01*
X85539000Y-134599000D02*
X85539000Y-132051000D01*
X85539000Y-129569000D02*
X85539000Y-127021000D01*
X85499000Y-134563000D02*
X85499000Y-132051000D01*
X85499000Y-129569000D02*
X85499000Y-127057000D01*
X85459000Y-134526000D02*
X85459000Y-132051000D01*
X85459000Y-129569000D02*
X85459000Y-127094000D01*
X85419000Y-134489000D02*
X85419000Y-132051000D01*
X85419000Y-129569000D02*
X85419000Y-127131000D01*
X85379000Y-134450000D02*
X85379000Y-132051000D01*
X85379000Y-129569000D02*
X85379000Y-127170000D01*
X85339000Y-134411000D02*
X85339000Y-132051000D01*
X85339000Y-129569000D02*
X85339000Y-127209000D01*
X85299000Y-134371000D02*
X85299000Y-132051000D01*
X85299000Y-129569000D02*
X85299000Y-127249000D01*
X85259000Y-134330000D02*
X85259000Y-132051000D01*
X85259000Y-129569000D02*
X85259000Y-127290000D01*
X85219000Y-134288000D02*
X85219000Y-132051000D01*
X85219000Y-129569000D02*
X85219000Y-127332000D01*
X85179000Y-134246000D02*
X85179000Y-127374000D01*
X85139000Y-134202000D02*
X85139000Y-127418000D01*
X85099000Y-134157000D02*
X85099000Y-127463000D01*
X85059000Y-134111000D02*
X85059000Y-127509000D01*
X85019000Y-134064000D02*
X85019000Y-127556000D01*
X84979000Y-134016000D02*
X84979000Y-127604000D01*
X84939000Y-133966000D02*
X84939000Y-127654000D01*
X84899000Y-133916000D02*
X84899000Y-127704000D01*
X84859000Y-133864000D02*
X84859000Y-127756000D01*
X84819000Y-133810000D02*
X84819000Y-127810000D01*
X84779000Y-133755000D02*
X84779000Y-127865000D01*
X84739000Y-133699000D02*
X84739000Y-127921000D01*
X84699000Y-133640000D02*
X84699000Y-127980000D01*
X84659000Y-133580000D02*
X84659000Y-128040000D01*
X84619000Y-133519000D02*
X84619000Y-128101000D01*
X84579000Y-133455000D02*
X84579000Y-128165000D01*
X84539000Y-133389000D02*
X84539000Y-128231000D01*
X84499000Y-133320000D02*
X84499000Y-128300000D01*
X84459000Y-133249000D02*
X84459000Y-128371000D01*
X84419000Y-133175000D02*
X84419000Y-128445000D01*
X84379000Y-133099000D02*
X84379000Y-128521000D01*
X84339000Y-133019000D02*
X84339000Y-128601000D01*
X84299000Y-132935000D02*
X84299000Y-128685000D01*
X84259000Y-132847000D02*
X84259000Y-128773000D01*
X84219000Y-132754000D02*
X84219000Y-128866000D01*
X84179000Y-132656000D02*
X84179000Y-128964000D01*
X84139000Y-132552000D02*
X84139000Y-129068000D01*
X84099000Y-132440000D02*
X84099000Y-129180000D01*
X84059000Y-132320000D02*
X84059000Y-129300000D01*
X84019000Y-132188000D02*
X84019000Y-129432000D01*
X83979000Y-132040000D02*
X83979000Y-129580000D01*
X83939000Y-131872000D02*
X83939000Y-129748000D01*
X83899000Y-131672000D02*
X83899000Y-129948000D01*
X83859000Y-131409000D02*
X83859000Y-130211000D01*
X94419646Y-133685000D02*
X93419646Y-133685000D01*
X93919646Y-134185000D02*
X93919646Y-133185000D01*
X76200000Y-130810000D02*
G75*
G03X76200000Y-130810000I-5120000J0D01*
G01*
X71080000Y-125730000D02*
X71080000Y-135890000D01*
X71120000Y-125730000D02*
X71120000Y-135890000D01*
X71160000Y-125730000D02*
X71160000Y-135890000D01*
X71200000Y-125731000D02*
X71200000Y-135889000D01*
X71240000Y-125732000D02*
X71240000Y-135888000D01*
X71280000Y-125733000D02*
X71280000Y-135887000D01*
X71320000Y-125735000D02*
X71320000Y-135885000D01*
X71360000Y-125737000D02*
X71360000Y-135883000D01*
X71400000Y-125740000D02*
X71400000Y-135880000D01*
X71440000Y-125742000D02*
X71440000Y-135878000D01*
X71480000Y-125745000D02*
X71480000Y-135875000D01*
X71520000Y-125748000D02*
X71520000Y-135872000D01*
X71560000Y-125752000D02*
X71560000Y-135868000D01*
X71600000Y-125756000D02*
X71600000Y-135864000D01*
X71640000Y-125760000D02*
X71640000Y-135860000D01*
X71680000Y-125765000D02*
X71680000Y-135855000D01*
X71720000Y-125770000D02*
X71720000Y-135850000D01*
X71760000Y-125775000D02*
X71760000Y-135845000D01*
X71801000Y-125780000D02*
X71801000Y-135840000D01*
X71841000Y-125786000D02*
X71841000Y-135834000D01*
X71881000Y-125792000D02*
X71881000Y-135828000D01*
X71921000Y-125799000D02*
X71921000Y-135821000D01*
X71961000Y-125806000D02*
X71961000Y-135814000D01*
X72001000Y-125813000D02*
X72001000Y-135807000D01*
X72041000Y-125820000D02*
X72041000Y-135800000D01*
X72081000Y-125828000D02*
X72081000Y-135792000D01*
X72121000Y-125836000D02*
X72121000Y-135784000D01*
X72161000Y-125845000D02*
X72161000Y-135775000D01*
X72201000Y-125854000D02*
X72201000Y-135766000D01*
X72241000Y-125863000D02*
X72241000Y-135757000D01*
X72281000Y-125872000D02*
X72281000Y-135748000D01*
X72321000Y-125882000D02*
X72321000Y-135738000D01*
X72361000Y-125892000D02*
X72361000Y-129569000D01*
X72361000Y-132051000D02*
X72361000Y-135728000D01*
X72401000Y-125903000D02*
X72401000Y-129569000D01*
X72401000Y-132051000D02*
X72401000Y-135717000D01*
X72441000Y-125913000D02*
X72441000Y-129569000D01*
X72441000Y-132051000D02*
X72441000Y-135707000D01*
X72481000Y-125925000D02*
X72481000Y-129569000D01*
X72481000Y-132051000D02*
X72481000Y-135695000D01*
X72521000Y-125936000D02*
X72521000Y-129569000D01*
X72521000Y-132051000D02*
X72521000Y-135684000D01*
X72561000Y-125948000D02*
X72561000Y-129569000D01*
X72561000Y-132051000D02*
X72561000Y-135672000D01*
X72601000Y-125960000D02*
X72601000Y-129569000D01*
X72601000Y-132051000D02*
X72601000Y-135660000D01*
X72641000Y-125973000D02*
X72641000Y-129569000D01*
X72641000Y-132051000D02*
X72641000Y-135647000D01*
X72681000Y-125986000D02*
X72681000Y-129569000D01*
X72681000Y-132051000D02*
X72681000Y-135634000D01*
X72721000Y-125999000D02*
X72721000Y-129569000D01*
X72721000Y-132051000D02*
X72721000Y-135621000D01*
X72761000Y-126013000D02*
X72761000Y-129569000D01*
X72761000Y-132051000D02*
X72761000Y-135607000D01*
X72801000Y-126027000D02*
X72801000Y-129569000D01*
X72801000Y-132051000D02*
X72801000Y-135593000D01*
X72841000Y-126042000D02*
X72841000Y-129569000D01*
X72841000Y-132051000D02*
X72841000Y-135578000D01*
X72881000Y-126056000D02*
X72881000Y-129569000D01*
X72881000Y-132051000D02*
X72881000Y-135564000D01*
X72921000Y-126072000D02*
X72921000Y-129569000D01*
X72921000Y-132051000D02*
X72921000Y-135548000D01*
X72961000Y-126087000D02*
X72961000Y-129569000D01*
X72961000Y-132051000D02*
X72961000Y-135533000D01*
X73001000Y-126103000D02*
X73001000Y-129569000D01*
X73001000Y-132051000D02*
X73001000Y-135517000D01*
X73041000Y-126120000D02*
X73041000Y-129569000D01*
X73041000Y-132051000D02*
X73041000Y-135500000D01*
X73081000Y-126136000D02*
X73081000Y-129569000D01*
X73081000Y-132051000D02*
X73081000Y-135484000D01*
X73121000Y-126153000D02*
X73121000Y-129569000D01*
X73121000Y-132051000D02*
X73121000Y-135467000D01*
X73161000Y-126171000D02*
X73161000Y-129569000D01*
X73161000Y-132051000D02*
X73161000Y-135449000D01*
X73201000Y-126189000D02*
X73201000Y-129569000D01*
X73201000Y-132051000D02*
X73201000Y-135431000D01*
X73241000Y-126207000D02*
X73241000Y-129569000D01*
X73241000Y-132051000D02*
X73241000Y-135413000D01*
X73281000Y-126226000D02*
X73281000Y-129569000D01*
X73281000Y-132051000D02*
X73281000Y-135394000D01*
X73321000Y-126246000D02*
X73321000Y-129569000D01*
X73321000Y-132051000D02*
X73321000Y-135374000D01*
X73361000Y-126265000D02*
X73361000Y-129569000D01*
X73361000Y-132051000D02*
X73361000Y-135355000D01*
X73401000Y-126285000D02*
X73401000Y-129569000D01*
X73401000Y-132051000D02*
X73401000Y-135335000D01*
X73441000Y-126306000D02*
X73441000Y-129569000D01*
X73441000Y-132051000D02*
X73441000Y-135314000D01*
X73481000Y-126327000D02*
X73481000Y-129569000D01*
X73481000Y-132051000D02*
X73481000Y-135293000D01*
X73521000Y-126348000D02*
X73521000Y-129569000D01*
X73521000Y-132051000D02*
X73521000Y-135272000D01*
X73561000Y-126370000D02*
X73561000Y-129569000D01*
X73561000Y-132051000D02*
X73561000Y-135250000D01*
X73601000Y-126393000D02*
X73601000Y-129569000D01*
X73601000Y-132051000D02*
X73601000Y-135227000D01*
X73641000Y-126415000D02*
X73641000Y-129569000D01*
X73641000Y-132051000D02*
X73641000Y-135205000D01*
X73681000Y-126439000D02*
X73681000Y-129569000D01*
X73681000Y-132051000D02*
X73681000Y-135181000D01*
X73721000Y-126463000D02*
X73721000Y-129569000D01*
X73721000Y-132051000D02*
X73721000Y-135157000D01*
X73761000Y-126487000D02*
X73761000Y-129569000D01*
X73761000Y-132051000D02*
X73761000Y-135133000D01*
X73801000Y-126512000D02*
X73801000Y-129569000D01*
X73801000Y-132051000D02*
X73801000Y-135108000D01*
X73841000Y-126537000D02*
X73841000Y-129569000D01*
X73841000Y-132051000D02*
X73841000Y-135083000D01*
X73881000Y-126563000D02*
X73881000Y-129569000D01*
X73881000Y-132051000D02*
X73881000Y-135057000D01*
X73921000Y-126589000D02*
X73921000Y-129569000D01*
X73921000Y-132051000D02*
X73921000Y-135031000D01*
X73961000Y-126616000D02*
X73961000Y-129569000D01*
X73961000Y-132051000D02*
X73961000Y-135004000D01*
X74001000Y-126644000D02*
X74001000Y-129569000D01*
X74001000Y-132051000D02*
X74001000Y-134976000D01*
X74041000Y-126672000D02*
X74041000Y-129569000D01*
X74041000Y-132051000D02*
X74041000Y-134948000D01*
X74081000Y-126700000D02*
X74081000Y-129569000D01*
X74081000Y-132051000D02*
X74081000Y-134920000D01*
X74121000Y-126730000D02*
X74121000Y-129569000D01*
X74121000Y-132051000D02*
X74121000Y-134890000D01*
X74161000Y-126760000D02*
X74161000Y-129569000D01*
X74161000Y-132051000D02*
X74161000Y-134860000D01*
X74201000Y-126790000D02*
X74201000Y-129569000D01*
X74201000Y-132051000D02*
X74201000Y-134830000D01*
X74241000Y-126821000D02*
X74241000Y-129569000D01*
X74241000Y-132051000D02*
X74241000Y-134799000D01*
X74281000Y-126853000D02*
X74281000Y-129569000D01*
X74281000Y-132051000D02*
X74281000Y-134767000D01*
X74321000Y-126885000D02*
X74321000Y-129569000D01*
X74321000Y-132051000D02*
X74321000Y-134735000D01*
X74361000Y-126918000D02*
X74361000Y-129569000D01*
X74361000Y-132051000D02*
X74361000Y-134702000D01*
X74401000Y-126952000D02*
X74401000Y-129569000D01*
X74401000Y-132051000D02*
X74401000Y-134668000D01*
X74441000Y-126986000D02*
X74441000Y-129569000D01*
X74441000Y-132051000D02*
X74441000Y-134634000D01*
X74481000Y-127021000D02*
X74481000Y-129569000D01*
X74481000Y-132051000D02*
X74481000Y-134599000D01*
X74521000Y-127057000D02*
X74521000Y-129569000D01*
X74521000Y-132051000D02*
X74521000Y-134563000D01*
X74561000Y-127094000D02*
X74561000Y-129569000D01*
X74561000Y-132051000D02*
X74561000Y-134526000D01*
X74601000Y-127131000D02*
X74601000Y-129569000D01*
X74601000Y-132051000D02*
X74601000Y-134489000D01*
X74641000Y-127170000D02*
X74641000Y-129569000D01*
X74641000Y-132051000D02*
X74641000Y-134450000D01*
X74681000Y-127209000D02*
X74681000Y-129569000D01*
X74681000Y-132051000D02*
X74681000Y-134411000D01*
X74721000Y-127249000D02*
X74721000Y-129569000D01*
X74721000Y-132051000D02*
X74721000Y-134371000D01*
X74761000Y-127290000D02*
X74761000Y-129569000D01*
X74761000Y-132051000D02*
X74761000Y-134330000D01*
X74801000Y-127332000D02*
X74801000Y-129569000D01*
X74801000Y-132051000D02*
X74801000Y-134288000D01*
X74841000Y-127374000D02*
X74841000Y-134246000D01*
X74881000Y-127418000D02*
X74881000Y-134202000D01*
X74921000Y-127463000D02*
X74921000Y-134157000D01*
X74961000Y-127509000D02*
X74961000Y-134111000D01*
X75001000Y-127556000D02*
X75001000Y-134064000D01*
X75041000Y-127604000D02*
X75041000Y-134016000D01*
X75081000Y-127654000D02*
X75081000Y-133966000D01*
X75121000Y-127704000D02*
X75121000Y-133916000D01*
X75161000Y-127756000D02*
X75161000Y-133864000D01*
X75201000Y-127810000D02*
X75201000Y-133810000D01*
X75241000Y-127865000D02*
X75241000Y-133755000D01*
X75281000Y-127921000D02*
X75281000Y-133699000D01*
X75321000Y-127980000D02*
X75321000Y-133640000D01*
X75361000Y-128040000D02*
X75361000Y-133580000D01*
X75401000Y-128101000D02*
X75401000Y-133519000D01*
X75441000Y-128165000D02*
X75441000Y-133455000D01*
X75481000Y-128231000D02*
X75481000Y-133389000D01*
X75521000Y-128300000D02*
X75521000Y-133320000D01*
X75561000Y-128371000D02*
X75561000Y-133249000D01*
X75601000Y-128445000D02*
X75601000Y-133175000D01*
X75641000Y-128521000D02*
X75641000Y-133099000D01*
X75681000Y-128601000D02*
X75681000Y-133019000D01*
X75721000Y-128685000D02*
X75721000Y-132935000D01*
X75761000Y-128773000D02*
X75761000Y-132847000D01*
X75801000Y-128866000D02*
X75801000Y-132754000D01*
X75841000Y-128964000D02*
X75841000Y-132656000D01*
X75881000Y-129068000D02*
X75881000Y-132552000D01*
X75921000Y-129180000D02*
X75921000Y-132440000D01*
X75961000Y-129300000D02*
X75961000Y-132320000D01*
X76001000Y-129432000D02*
X76001000Y-132188000D01*
X76041000Y-129580000D02*
X76041000Y-132040000D01*
X76081000Y-129748000D02*
X76081000Y-131872000D01*
X76121000Y-129948000D02*
X76121000Y-131672000D01*
X76161000Y-130211000D02*
X76161000Y-131409000D01*
X65600354Y-127935000D02*
X66600354Y-127935000D01*
X66100354Y-127435000D02*
X66100354Y-128435000D01*
X101540000Y-106620000D02*
X101540000Y-109280000D01*
X104140000Y-106620000D02*
X101540000Y-106620000D01*
X104140000Y-109280000D02*
X101540000Y-109280000D01*
X104140000Y-106620000D02*
X104140000Y-109280000D01*
X105410000Y-106620000D02*
X106740000Y-106620000D01*
X106740000Y-106620000D02*
X106740000Y-107950000D01*
X91380000Y-114240000D02*
X91380000Y-116900000D01*
X104140000Y-114240000D02*
X91380000Y-114240000D01*
X104140000Y-116900000D02*
X91380000Y-116900000D01*
X104140000Y-114240000D02*
X104140000Y-116900000D01*
X105410000Y-114240000D02*
X106740000Y-114240000D01*
X106740000Y-114240000D02*
X106740000Y-115570000D01*
X106740000Y-110430000D02*
X106740000Y-111760000D01*
X105410000Y-110430000D02*
X106740000Y-110430000D01*
X104140000Y-110430000D02*
X104140000Y-113090000D01*
X104140000Y-113090000D02*
X101540000Y-113090000D01*
X104140000Y-110430000D02*
X101540000Y-110430000D01*
X101540000Y-110430000D02*
X101540000Y-113090000D01*
X77135800Y-95710000D02*
X77135800Y-94610000D01*
X76865800Y-95710000D02*
X77135800Y-95710000D01*
X76865800Y-97210000D02*
X76865800Y-95710000D01*
X83495800Y-95710000D02*
X83495800Y-92880000D01*
X83765800Y-95710000D02*
X83495800Y-95710000D01*
X83765800Y-97210000D02*
X83765800Y-95710000D01*
X57450000Y-100690000D02*
X55950000Y-100690000D01*
X55950000Y-100690000D02*
X55950000Y-100960000D01*
X55950000Y-100960000D02*
X53120000Y-100960000D01*
X57450000Y-107590000D02*
X55950000Y-107590000D01*
X55950000Y-107590000D02*
X55950000Y-107320000D01*
X55950000Y-107320000D02*
X54850000Y-107320000D01*
X97454800Y-95709200D02*
X97454800Y-94609200D01*
X97184800Y-95709200D02*
X97454800Y-95709200D01*
X97184800Y-97209200D02*
X97184800Y-95709200D01*
X103814800Y-95709200D02*
X103814800Y-92879200D01*
X104084800Y-95709200D02*
X103814800Y-95709200D01*
X104084800Y-97209200D02*
X104084800Y-95709200D01*
X102570000Y-129180000D02*
X104070000Y-129180000D01*
X104070000Y-129180000D02*
X104070000Y-128910000D01*
X104070000Y-128910000D02*
X106900000Y-128910000D01*
X102570000Y-122280000D02*
X104070000Y-122280000D01*
X104070000Y-122280000D02*
X104070000Y-122550000D01*
X104070000Y-122550000D02*
X105170000Y-122550000D01*
X93924800Y-97209200D02*
X93924800Y-95709200D01*
X93924800Y-95709200D02*
X93654800Y-95709200D01*
X93654800Y-95709200D02*
X93654800Y-92879200D01*
X87024800Y-97209200D02*
X87024800Y-95709200D01*
X87024800Y-95709200D02*
X87294800Y-95709200D01*
X87294800Y-95709200D02*
X87294800Y-94609200D01*
X55950000Y-127640000D02*
X54850000Y-127640000D01*
X55950000Y-127910000D02*
X55950000Y-127640000D01*
X57450000Y-127910000D02*
X55950000Y-127910000D01*
X55950000Y-121280000D02*
X53120000Y-121280000D01*
X55950000Y-121010000D02*
X55950000Y-121280000D01*
X57450000Y-121010000D02*
X55950000Y-121010000D01*
X80380521Y-104442800D02*
X80706079Y-104442800D01*
X80380521Y-105462800D02*
X80706079Y-105462800D01*
X68654600Y-105943400D02*
X68724600Y-105943400D01*
X68654600Y-105943400D02*
G75*
G03X68654600Y-105943400I-1370000J0D01*
G01*
X77942121Y-115318000D02*
X78267679Y-115318000D01*
X77942121Y-114298000D02*
X78267679Y-114298000D01*
X94080000Y-121920000D02*
G75*
G03X94080000Y-121920000I-1370000J0D01*
G01*
X91340000Y-121920000D02*
X91270000Y-121920000D01*
X84368421Y-112473200D02*
X84693979Y-112473200D01*
X84368421Y-111453200D02*
X84693979Y-111453200D01*
X68781600Y-122580400D02*
G75*
G03X68781600Y-122580400I-1370000J0D01*
G01*
X68781600Y-122580400D02*
X68851600Y-122580400D01*
X88072079Y-112473200D02*
X87746521Y-112473200D01*
X88072079Y-111453200D02*
X87746521Y-111453200D01*
X53509600Y-110677800D02*
X63279600Y-110677800D01*
X53509600Y-115747800D02*
X63279600Y-115747800D01*
X53509600Y-110677800D02*
X53509600Y-115747800D01*
X63279600Y-110677800D02*
X63279600Y-115747800D01*
X96689600Y-135880000D02*
X96689600Y-130810000D01*
X106459600Y-135880000D02*
X106459600Y-130810000D01*
X106459600Y-130810000D02*
X96689600Y-130810000D01*
X106459600Y-135880000D02*
X96689600Y-135880000D01*
X53509600Y-130896200D02*
X63279600Y-130896200D01*
X53509600Y-135966200D02*
X63279600Y-135966200D01*
X53509600Y-130896200D02*
X53509600Y-135966200D01*
X63279600Y-130896200D02*
X63279600Y-135966200D01*
D11*
X77935000Y-116200000D02*
X77935000Y-116225000D01*
X82085000Y-116200000D02*
X82085000Y-116315000D01*
X82085000Y-125100000D02*
X82085000Y-124985000D01*
X77935000Y-125100000D02*
X77935000Y-124985000D01*
X77935000Y-116200000D02*
X82085000Y-116200000D01*
X77935000Y-125100000D02*
X82085000Y-125100000D01*
X77935000Y-116225000D02*
X76560000Y-116225000D01*
D12*
X87883600Y-110242600D02*
X84883600Y-110242600D01*
X87883600Y-107242600D02*
X83883600Y-107242600D01*
D11*
X59650333Y-99766380D02*
X59317000Y-99290190D01*
X59078904Y-99766380D02*
X59078904Y-98766380D01*
X59459857Y-98766380D01*
X59555095Y-98814000D01*
X59602714Y-98861619D01*
X59650333Y-98956857D01*
X59650333Y-99099714D01*
X59602714Y-99194952D01*
X59555095Y-99242571D01*
X59459857Y-99290190D01*
X59078904Y-99290190D01*
X60126523Y-99766380D02*
X60317000Y-99766380D01*
X60412238Y-99718761D01*
X60459857Y-99671142D01*
X60555095Y-99528285D01*
X60602714Y-99337809D01*
X60602714Y-98956857D01*
X60555095Y-98861619D01*
X60507476Y-98814000D01*
X60412238Y-98766380D01*
X60221761Y-98766380D01*
X60126523Y-98814000D01*
X60078904Y-98861619D01*
X60031285Y-98956857D01*
X60031285Y-99194952D01*
X60078904Y-99290190D01*
X60126523Y-99337809D01*
X60221761Y-99385428D01*
X60412238Y-99385428D01*
X60507476Y-99337809D01*
X60555095Y-99290190D01*
X60602714Y-99194952D01*
X75227819Y-98249038D02*
X75180200Y-98344276D01*
X75084961Y-98439514D01*
X74942104Y-98582371D01*
X74894485Y-98677609D01*
X74894485Y-98772847D01*
X75132580Y-98725228D02*
X75084961Y-98820466D01*
X74989723Y-98915704D01*
X74799247Y-98963323D01*
X74465914Y-98963323D01*
X74275438Y-98915704D01*
X74180200Y-98820466D01*
X74132580Y-98725228D01*
X74132580Y-98534752D01*
X74180200Y-98439514D01*
X74275438Y-98344276D01*
X74465914Y-98296657D01*
X74799247Y-98296657D01*
X74989723Y-98344276D01*
X75084961Y-98439514D01*
X75132580Y-98534752D01*
X75132580Y-98725228D01*
X74132580Y-97963323D02*
X74132580Y-97296657D01*
X75132580Y-97725228D01*
X59853533Y-93797380D02*
X59520200Y-93321190D01*
X59282104Y-93797380D02*
X59282104Y-92797380D01*
X59663057Y-92797380D01*
X59758295Y-92845000D01*
X59805914Y-92892619D01*
X59853533Y-92987857D01*
X59853533Y-93130714D01*
X59805914Y-93225952D01*
X59758295Y-93273571D01*
X59663057Y-93321190D01*
X59282104Y-93321190D01*
X60424961Y-93225952D02*
X60329723Y-93178333D01*
X60282104Y-93130714D01*
X60234485Y-93035476D01*
X60234485Y-92987857D01*
X60282104Y-92892619D01*
X60329723Y-92845000D01*
X60424961Y-92797380D01*
X60615438Y-92797380D01*
X60710676Y-92845000D01*
X60758295Y-92892619D01*
X60805914Y-92987857D01*
X60805914Y-93035476D01*
X60758295Y-93130714D01*
X60710676Y-93178333D01*
X60615438Y-93225952D01*
X60424961Y-93225952D01*
X60329723Y-93273571D01*
X60282104Y-93321190D01*
X60234485Y-93416428D01*
X60234485Y-93606904D01*
X60282104Y-93702142D01*
X60329723Y-93749761D01*
X60424961Y-93797380D01*
X60615438Y-93797380D01*
X60710676Y-93749761D01*
X60758295Y-93702142D01*
X60805914Y-93606904D01*
X60805914Y-93416428D01*
X60758295Y-93321190D01*
X60710676Y-93273571D01*
X60615438Y-93225952D01*
X56408580Y-97629504D02*
X55408580Y-97629504D01*
X55884771Y-97629504D02*
X55884771Y-97058076D01*
X56408580Y-97058076D02*
X55408580Y-97058076D01*
X56408580Y-96153314D02*
X55884771Y-96153314D01*
X55789533Y-96200933D01*
X55741914Y-96296171D01*
X55741914Y-96486647D01*
X55789533Y-96581885D01*
X56360961Y-96153314D02*
X56408580Y-96248552D01*
X56408580Y-96486647D01*
X56360961Y-96581885D01*
X56265723Y-96629504D01*
X56170485Y-96629504D01*
X56075247Y-96581885D01*
X56027628Y-96486647D01*
X56027628Y-96248552D01*
X55980009Y-96153314D01*
X56408580Y-95534266D02*
X56360961Y-95629504D01*
X56265723Y-95677123D01*
X55408580Y-95677123D01*
X56408580Y-95010457D02*
X56360961Y-95105695D01*
X56265723Y-95153314D01*
X55408580Y-95153314D01*
X101941333Y-120151142D02*
X101893714Y-120198761D01*
X101750857Y-120246380D01*
X101655619Y-120246380D01*
X101512761Y-120198761D01*
X101417523Y-120103523D01*
X101369904Y-120008285D01*
X101322285Y-119817809D01*
X101322285Y-119674952D01*
X101369904Y-119484476D01*
X101417523Y-119389238D01*
X101512761Y-119294000D01*
X101655619Y-119246380D01*
X101750857Y-119246380D01*
X101893714Y-119294000D01*
X101941333Y-119341619D01*
X102798476Y-119579714D02*
X102798476Y-120246380D01*
X102560380Y-119198761D02*
X102322285Y-119913047D01*
X102941333Y-119913047D01*
X75601533Y-111253542D02*
X75553914Y-111301161D01*
X75411057Y-111348780D01*
X75315819Y-111348780D01*
X75172961Y-111301161D01*
X75077723Y-111205923D01*
X75030104Y-111110685D01*
X74982485Y-110920209D01*
X74982485Y-110777352D01*
X75030104Y-110586876D01*
X75077723Y-110491638D01*
X75172961Y-110396400D01*
X75315819Y-110348780D01*
X75411057Y-110348780D01*
X75553914Y-110396400D01*
X75601533Y-110444019D01*
X76553914Y-111348780D02*
X75982485Y-111348780D01*
X76268200Y-111348780D02*
X76268200Y-110348780D01*
X76172961Y-110491638D01*
X76077723Y-110586876D01*
X75982485Y-110634495D01*
X82307133Y-131167142D02*
X82259514Y-131214761D01*
X82116657Y-131262380D01*
X82021419Y-131262380D01*
X81878561Y-131214761D01*
X81783323Y-131119523D01*
X81735704Y-131024285D01*
X81688085Y-130833809D01*
X81688085Y-130690952D01*
X81735704Y-130500476D01*
X81783323Y-130405238D01*
X81878561Y-130310000D01*
X82021419Y-130262380D01*
X82116657Y-130262380D01*
X82259514Y-130310000D01*
X82307133Y-130357619D01*
X82688085Y-130357619D02*
X82735704Y-130310000D01*
X82830942Y-130262380D01*
X83069038Y-130262380D01*
X83164276Y-130310000D01*
X83211895Y-130357619D01*
X83259514Y-130452857D01*
X83259514Y-130548095D01*
X83211895Y-130690952D01*
X82640466Y-131262380D01*
X83259514Y-131262380D01*
X77303333Y-131167142D02*
X77255714Y-131214761D01*
X77112857Y-131262380D01*
X77017619Y-131262380D01*
X76874761Y-131214761D01*
X76779523Y-131119523D01*
X76731904Y-131024285D01*
X76684285Y-130833809D01*
X76684285Y-130690952D01*
X76731904Y-130500476D01*
X76779523Y-130405238D01*
X76874761Y-130310000D01*
X77017619Y-130262380D01*
X77112857Y-130262380D01*
X77255714Y-130310000D01*
X77303333Y-130357619D01*
X77636666Y-130262380D02*
X78255714Y-130262380D01*
X77922380Y-130643333D01*
X78065238Y-130643333D01*
X78160476Y-130690952D01*
X78208095Y-130738571D01*
X78255714Y-130833809D01*
X78255714Y-131071904D01*
X78208095Y-131167142D01*
X78160476Y-131214761D01*
X78065238Y-131262380D01*
X77779523Y-131262380D01*
X77684285Y-131214761D01*
X77636666Y-131167142D01*
X97069495Y-108402380D02*
X97069495Y-107402380D01*
X97069495Y-108354761D02*
X96974257Y-108402380D01*
X96783780Y-108402380D01*
X96688542Y-108354761D01*
X96640923Y-108307142D01*
X96593304Y-108211904D01*
X96593304Y-107926190D01*
X96640923Y-107830952D01*
X96688542Y-107783333D01*
X96783780Y-107735714D01*
X96974257Y-107735714D01*
X97069495Y-107783333D01*
X97926638Y-108354761D02*
X97831400Y-108402380D01*
X97640923Y-108402380D01*
X97545685Y-108354761D01*
X97498066Y-108259523D01*
X97498066Y-107878571D01*
X97545685Y-107783333D01*
X97640923Y-107735714D01*
X97831400Y-107735714D01*
X97926638Y-107783333D01*
X97974257Y-107878571D01*
X97974257Y-107973809D01*
X97498066Y-108069047D01*
X98355209Y-108354761D02*
X98450447Y-108402380D01*
X98640923Y-108402380D01*
X98736161Y-108354761D01*
X98783780Y-108259523D01*
X98783780Y-108211904D01*
X98736161Y-108116666D01*
X98640923Y-108069047D01*
X98498066Y-108069047D01*
X98402828Y-108021428D01*
X98355209Y-107926190D01*
X98355209Y-107878571D01*
X98402828Y-107783333D01*
X98498066Y-107735714D01*
X98640923Y-107735714D01*
X98736161Y-107783333D01*
X99212352Y-107735714D02*
X99212352Y-108735714D01*
X99212352Y-107783333D02*
X99307590Y-107735714D01*
X99498066Y-107735714D01*
X99593304Y-107783333D01*
X99640923Y-107830952D01*
X99688542Y-107926190D01*
X99688542Y-108211904D01*
X99640923Y-108307142D01*
X99593304Y-108354761D01*
X99498066Y-108402380D01*
X99307590Y-108402380D01*
X99212352Y-108354761D01*
X100117114Y-108402380D02*
X100117114Y-107735714D01*
X100117114Y-107402380D02*
X100069495Y-107450000D01*
X100117114Y-107497619D01*
X100164733Y-107450000D01*
X100117114Y-107402380D01*
X100117114Y-107497619D01*
X100593304Y-107735714D02*
X100593304Y-108402380D01*
X100593304Y-107830952D02*
X100640923Y-107783333D01*
X100736161Y-107735714D01*
X100879019Y-107735714D01*
X100974257Y-107783333D01*
X101021876Y-107878571D01*
X101021876Y-108402380D01*
X92905628Y-117435380D02*
X93477057Y-117435380D01*
X93191342Y-118435380D02*
X93191342Y-117435380D01*
X93953247Y-118435380D02*
X93858009Y-118387761D01*
X93810390Y-118340142D01*
X93762771Y-118244904D01*
X93762771Y-117959190D01*
X93810390Y-117863952D01*
X93858009Y-117816333D01*
X93953247Y-117768714D01*
X94096104Y-117768714D01*
X94191342Y-117816333D01*
X94238961Y-117863952D01*
X94286580Y-117959190D01*
X94286580Y-118244904D01*
X94238961Y-118340142D01*
X94191342Y-118387761D01*
X94096104Y-118435380D01*
X93953247Y-118435380D01*
X95477057Y-118435380D02*
X95477057Y-117768714D01*
X95477057Y-117863952D02*
X95524676Y-117816333D01*
X95619914Y-117768714D01*
X95762771Y-117768714D01*
X95858009Y-117816333D01*
X95905628Y-117911571D01*
X95905628Y-118435380D01*
X95905628Y-117911571D02*
X95953247Y-117816333D01*
X96048485Y-117768714D01*
X96191342Y-117768714D01*
X96286580Y-117816333D01*
X96334200Y-117911571D01*
X96334200Y-118435380D01*
X97238961Y-118435380D02*
X97238961Y-117911571D01*
X97191342Y-117816333D01*
X97096104Y-117768714D01*
X96905628Y-117768714D01*
X96810390Y-117816333D01*
X97238961Y-118387761D02*
X97143723Y-118435380D01*
X96905628Y-118435380D01*
X96810390Y-118387761D01*
X96762771Y-118292523D01*
X96762771Y-118197285D01*
X96810390Y-118102047D01*
X96905628Y-118054428D01*
X97143723Y-118054428D01*
X97238961Y-118006809D01*
X97715152Y-118435380D02*
X97715152Y-117768714D01*
X97715152Y-117435380D02*
X97667533Y-117483000D01*
X97715152Y-117530619D01*
X97762771Y-117483000D01*
X97715152Y-117435380D01*
X97715152Y-117530619D01*
X98191342Y-117768714D02*
X98191342Y-118435380D01*
X98191342Y-117863952D02*
X98238961Y-117816333D01*
X98334200Y-117768714D01*
X98477057Y-117768714D01*
X98572295Y-117816333D01*
X98619914Y-117911571D01*
X98619914Y-118435380D01*
X95685314Y-112212380D02*
X95685314Y-111212380D01*
X96066266Y-111212380D01*
X96161504Y-111260000D01*
X96209123Y-111307619D01*
X96256742Y-111402857D01*
X96256742Y-111545714D01*
X96209123Y-111640952D01*
X96161504Y-111688571D01*
X96066266Y-111736190D01*
X95685314Y-111736190D01*
X96685314Y-111545714D02*
X96685314Y-112212380D01*
X96685314Y-111640952D02*
X96732933Y-111593333D01*
X96828171Y-111545714D01*
X96971028Y-111545714D01*
X97066266Y-111593333D01*
X97113885Y-111688571D01*
X97113885Y-112212380D01*
X97971028Y-112164761D02*
X97875790Y-112212380D01*
X97685314Y-112212380D01*
X97590076Y-112164761D01*
X97542457Y-112069523D01*
X97542457Y-111688571D01*
X97590076Y-111593333D01*
X97685314Y-111545714D01*
X97875790Y-111545714D01*
X97971028Y-111593333D01*
X98018647Y-111688571D01*
X98018647Y-111783809D01*
X97542457Y-111879047D01*
X98875790Y-111545714D02*
X98875790Y-112212380D01*
X98447219Y-111545714D02*
X98447219Y-112069523D01*
X98494838Y-112164761D01*
X98590076Y-112212380D01*
X98732933Y-112212380D01*
X98828171Y-112164761D01*
X98875790Y-112117142D01*
X99351980Y-112212380D02*
X99351980Y-111545714D01*
X99351980Y-111640952D02*
X99399600Y-111593333D01*
X99494838Y-111545714D01*
X99637695Y-111545714D01*
X99732933Y-111593333D01*
X99780552Y-111688571D01*
X99780552Y-112212380D01*
X99780552Y-111688571D02*
X99828171Y-111593333D01*
X99923409Y-111545714D01*
X100066266Y-111545714D01*
X100161504Y-111593333D01*
X100209123Y-111688571D01*
X100209123Y-112212380D01*
X101113885Y-112212380D02*
X101113885Y-111688571D01*
X101066266Y-111593333D01*
X100971028Y-111545714D01*
X100780552Y-111545714D01*
X100685314Y-111593333D01*
X101113885Y-112164761D02*
X101018647Y-112212380D01*
X100780552Y-112212380D01*
X100685314Y-112164761D01*
X100637695Y-112069523D01*
X100637695Y-111974285D01*
X100685314Y-111879047D01*
X100780552Y-111831428D01*
X101018647Y-111831428D01*
X101113885Y-111783809D01*
X85363419Y-98275238D02*
X85315800Y-98370476D01*
X85220561Y-98465714D01*
X85077704Y-98608571D01*
X85030085Y-98703809D01*
X85030085Y-98799047D01*
X85268180Y-98751428D02*
X85220561Y-98846666D01*
X85125323Y-98941904D01*
X84934847Y-98989523D01*
X84601514Y-98989523D01*
X84411038Y-98941904D01*
X84315800Y-98846666D01*
X84268180Y-98751428D01*
X84268180Y-98560952D01*
X84315800Y-98465714D01*
X84411038Y-98370476D01*
X84601514Y-98322857D01*
X84934847Y-98322857D01*
X85125323Y-98370476D01*
X85220561Y-98465714D01*
X85268180Y-98560952D01*
X85268180Y-98751428D01*
X85268180Y-97370476D02*
X85268180Y-97941904D01*
X85268180Y-97656190D02*
X84268180Y-97656190D01*
X84411038Y-97751428D01*
X84506276Y-97846666D01*
X84553895Y-97941904D01*
X53803561Y-100090219D02*
X53708323Y-100042600D01*
X53613085Y-99947361D01*
X53470228Y-99804504D01*
X53374990Y-99756885D01*
X53279752Y-99756885D01*
X53327371Y-99994980D02*
X53232133Y-99947361D01*
X53136895Y-99852123D01*
X53089276Y-99661647D01*
X53089276Y-99328314D01*
X53136895Y-99137838D01*
X53232133Y-99042600D01*
X53327371Y-98994980D01*
X53517847Y-98994980D01*
X53613085Y-99042600D01*
X53708323Y-99137838D01*
X53755942Y-99328314D01*
X53755942Y-99661647D01*
X53708323Y-99852123D01*
X53613085Y-99947361D01*
X53517847Y-99994980D01*
X53327371Y-99994980D01*
X54136895Y-99090219D02*
X54184514Y-99042600D01*
X54279752Y-98994980D01*
X54517847Y-98994980D01*
X54613085Y-99042600D01*
X54660704Y-99090219D01*
X54708323Y-99185457D01*
X54708323Y-99280695D01*
X54660704Y-99423552D01*
X54089276Y-99994980D01*
X54708323Y-99994980D01*
X105682419Y-98274438D02*
X105634800Y-98369676D01*
X105539561Y-98464914D01*
X105396704Y-98607771D01*
X105349085Y-98703009D01*
X105349085Y-98798247D01*
X105587180Y-98750628D02*
X105539561Y-98845866D01*
X105444323Y-98941104D01*
X105253847Y-98988723D01*
X104920514Y-98988723D01*
X104730038Y-98941104D01*
X104634800Y-98845866D01*
X104587180Y-98750628D01*
X104587180Y-98560152D01*
X104634800Y-98464914D01*
X104730038Y-98369676D01*
X104920514Y-98322057D01*
X105253847Y-98322057D01*
X105444323Y-98369676D01*
X105539561Y-98464914D01*
X105587180Y-98560152D01*
X105587180Y-98750628D01*
X104587180Y-97988723D02*
X104587180Y-97369676D01*
X104968133Y-97703009D01*
X104968133Y-97560152D01*
X105015752Y-97464914D01*
X105063371Y-97417295D01*
X105158609Y-97369676D01*
X105396704Y-97369676D01*
X105491942Y-97417295D01*
X105539561Y-97464914D01*
X105587180Y-97560152D01*
X105587180Y-97845866D01*
X105539561Y-97941104D01*
X105491942Y-97988723D01*
X101504761Y-130777619D02*
X101409523Y-130730000D01*
X101314285Y-130634761D01*
X101171428Y-130491904D01*
X101076190Y-130444285D01*
X100980952Y-130444285D01*
X101028571Y-130682380D02*
X100933333Y-130634761D01*
X100838095Y-130539523D01*
X100790476Y-130349047D01*
X100790476Y-130015714D01*
X100838095Y-129825238D01*
X100933333Y-129730000D01*
X101028571Y-129682380D01*
X101219047Y-129682380D01*
X101314285Y-129730000D01*
X101409523Y-129825238D01*
X101457142Y-130015714D01*
X101457142Y-130349047D01*
X101409523Y-130539523D01*
X101314285Y-130634761D01*
X101219047Y-130682380D01*
X101028571Y-130682380D01*
X102314285Y-130015714D02*
X102314285Y-130682380D01*
X102076190Y-129634761D02*
X101838095Y-130349047D01*
X102457142Y-130349047D01*
X95522419Y-98274438D02*
X95474800Y-98369676D01*
X95379561Y-98464914D01*
X95236704Y-98607771D01*
X95189085Y-98703009D01*
X95189085Y-98798247D01*
X95427180Y-98750628D02*
X95379561Y-98845866D01*
X95284323Y-98941104D01*
X95093847Y-98988723D01*
X94760514Y-98988723D01*
X94570038Y-98941104D01*
X94474800Y-98845866D01*
X94427180Y-98750628D01*
X94427180Y-98560152D01*
X94474800Y-98464914D01*
X94570038Y-98369676D01*
X94760514Y-98322057D01*
X95093847Y-98322057D01*
X95284323Y-98369676D01*
X95379561Y-98464914D01*
X95427180Y-98560152D01*
X95427180Y-98750628D01*
X94427180Y-97417295D02*
X94427180Y-97893485D01*
X94903371Y-97941104D01*
X94855752Y-97893485D01*
X94808133Y-97798247D01*
X94808133Y-97560152D01*
X94855752Y-97464914D01*
X94903371Y-97417295D01*
X94998609Y-97369676D01*
X95236704Y-97369676D01*
X95331942Y-97417295D01*
X95379561Y-97464914D01*
X95427180Y-97560152D01*
X95427180Y-97798247D01*
X95379561Y-97893485D01*
X95331942Y-97941104D01*
X58324761Y-120507619D02*
X58229523Y-120460000D01*
X58134285Y-120364761D01*
X57991428Y-120221904D01*
X57896190Y-120174285D01*
X57800952Y-120174285D01*
X57848571Y-120412380D02*
X57753333Y-120364761D01*
X57658095Y-120269523D01*
X57610476Y-120079047D01*
X57610476Y-119745714D01*
X57658095Y-119555238D01*
X57753333Y-119460000D01*
X57848571Y-119412380D01*
X58039047Y-119412380D01*
X58134285Y-119460000D01*
X58229523Y-119555238D01*
X58277142Y-119745714D01*
X58277142Y-120079047D01*
X58229523Y-120269523D01*
X58134285Y-120364761D01*
X58039047Y-120412380D01*
X57848571Y-120412380D01*
X59134285Y-119412380D02*
X58943809Y-119412380D01*
X58848571Y-119460000D01*
X58800952Y-119507619D01*
X58705714Y-119650476D01*
X58658095Y-119840952D01*
X58658095Y-120221904D01*
X58705714Y-120317142D01*
X58753333Y-120364761D01*
X58848571Y-120412380D01*
X59039047Y-120412380D01*
X59134285Y-120364761D01*
X59181904Y-120317142D01*
X59229523Y-120221904D01*
X59229523Y-119983809D01*
X59181904Y-119888571D01*
X59134285Y-119840952D01*
X59039047Y-119793333D01*
X58848571Y-119793333D01*
X58753333Y-119840952D01*
X58705714Y-119888571D01*
X58658095Y-119983809D01*
X80376633Y-106878380D02*
X80043300Y-106402190D01*
X79805204Y-106878380D02*
X79805204Y-105878380D01*
X80186157Y-105878380D01*
X80281395Y-105926000D01*
X80329014Y-105973619D01*
X80376633Y-106068857D01*
X80376633Y-106211714D01*
X80329014Y-106306952D01*
X80281395Y-106354571D01*
X80186157Y-106402190D01*
X79805204Y-106402190D01*
X81329014Y-106878380D02*
X80757585Y-106878380D01*
X81043300Y-106878380D02*
X81043300Y-105878380D01*
X80948061Y-106021238D01*
X80852823Y-106116476D01*
X80757585Y-106164095D01*
X68387933Y-104025780D02*
X68054600Y-103549590D01*
X67816504Y-104025780D02*
X67816504Y-103025780D01*
X68197457Y-103025780D01*
X68292695Y-103073400D01*
X68340314Y-103121019D01*
X68387933Y-103216257D01*
X68387933Y-103359114D01*
X68340314Y-103454352D01*
X68292695Y-103501971D01*
X68197457Y-103549590D01*
X67816504Y-103549590D01*
X68768885Y-103121019D02*
X68816504Y-103073400D01*
X68911742Y-103025780D01*
X69149838Y-103025780D01*
X69245076Y-103073400D01*
X69292695Y-103121019D01*
X69340314Y-103216257D01*
X69340314Y-103311495D01*
X69292695Y-103454352D01*
X68721266Y-104025780D01*
X69340314Y-104025780D01*
X77938233Y-113830380D02*
X77604900Y-113354190D01*
X77366804Y-113830380D02*
X77366804Y-112830380D01*
X77747757Y-112830380D01*
X77842995Y-112878000D01*
X77890614Y-112925619D01*
X77938233Y-113020857D01*
X77938233Y-113163714D01*
X77890614Y-113258952D01*
X77842995Y-113306571D01*
X77747757Y-113354190D01*
X77366804Y-113354190D01*
X78271566Y-112830380D02*
X78890614Y-112830380D01*
X78557280Y-113211333D01*
X78700138Y-113211333D01*
X78795376Y-113258952D01*
X78842995Y-113306571D01*
X78890614Y-113401809D01*
X78890614Y-113639904D01*
X78842995Y-113735142D01*
X78795376Y-113782761D01*
X78700138Y-113830380D01*
X78414423Y-113830380D01*
X78319185Y-113782761D01*
X78271566Y-113735142D01*
X91273333Y-124742380D02*
X90940000Y-124266190D01*
X90701904Y-124742380D02*
X90701904Y-123742380D01*
X91082857Y-123742380D01*
X91178095Y-123790000D01*
X91225714Y-123837619D01*
X91273333Y-123932857D01*
X91273333Y-124075714D01*
X91225714Y-124170952D01*
X91178095Y-124218571D01*
X91082857Y-124266190D01*
X90701904Y-124266190D01*
X92130476Y-124075714D02*
X92130476Y-124742380D01*
X91892380Y-123694761D02*
X91654285Y-124409047D01*
X92273333Y-124409047D01*
X84313733Y-113939580D02*
X83980400Y-113463390D01*
X83742304Y-113939580D02*
X83742304Y-112939580D01*
X84123257Y-112939580D01*
X84218495Y-112987200D01*
X84266114Y-113034819D01*
X84313733Y-113130057D01*
X84313733Y-113272914D01*
X84266114Y-113368152D01*
X84218495Y-113415771D01*
X84123257Y-113463390D01*
X83742304Y-113463390D01*
X85218495Y-112939580D02*
X84742304Y-112939580D01*
X84694685Y-113415771D01*
X84742304Y-113368152D01*
X84837542Y-113320533D01*
X85075638Y-113320533D01*
X85170876Y-113368152D01*
X85218495Y-113415771D01*
X85266114Y-113511009D01*
X85266114Y-113749104D01*
X85218495Y-113844342D01*
X85170876Y-113891961D01*
X85075638Y-113939580D01*
X84837542Y-113939580D01*
X84742304Y-113891961D01*
X84694685Y-113844342D01*
X68514933Y-120662780D02*
X68181600Y-120186590D01*
X67943504Y-120662780D02*
X67943504Y-119662780D01*
X68324457Y-119662780D01*
X68419695Y-119710400D01*
X68467314Y-119758019D01*
X68514933Y-119853257D01*
X68514933Y-119996114D01*
X68467314Y-120091352D01*
X68419695Y-120138971D01*
X68324457Y-120186590D01*
X67943504Y-120186590D01*
X69372076Y-119662780D02*
X69181600Y-119662780D01*
X69086361Y-119710400D01*
X69038742Y-119758019D01*
X68943504Y-119900876D01*
X68895885Y-120091352D01*
X68895885Y-120472304D01*
X68943504Y-120567542D01*
X68991123Y-120615161D01*
X69086361Y-120662780D01*
X69276838Y-120662780D01*
X69372076Y-120615161D01*
X69419695Y-120567542D01*
X69467314Y-120472304D01*
X69467314Y-120234209D01*
X69419695Y-120138971D01*
X69372076Y-120091352D01*
X69276838Y-120043733D01*
X69086361Y-120043733D01*
X68991123Y-120091352D01*
X68943504Y-120138971D01*
X68895885Y-120234209D01*
X87717133Y-113939580D02*
X87383800Y-113463390D01*
X87145704Y-113939580D02*
X87145704Y-112939580D01*
X87526657Y-112939580D01*
X87621895Y-112987200D01*
X87669514Y-113034819D01*
X87717133Y-113130057D01*
X87717133Y-113272914D01*
X87669514Y-113368152D01*
X87621895Y-113415771D01*
X87526657Y-113463390D01*
X87145704Y-113463390D01*
X88050466Y-112939580D02*
X88717133Y-112939580D01*
X88288561Y-113939580D01*
X57799361Y-110000180D02*
X57466028Y-109523990D01*
X57227933Y-110000180D02*
X57227933Y-109000180D01*
X57608885Y-109000180D01*
X57704123Y-109047800D01*
X57751742Y-109095419D01*
X57799361Y-109190657D01*
X57799361Y-109333514D01*
X57751742Y-109428752D01*
X57704123Y-109476371D01*
X57608885Y-109523990D01*
X57227933Y-109523990D01*
X58085076Y-109000180D02*
X58418409Y-110000180D01*
X58751742Y-109000180D01*
X59608885Y-110000180D02*
X59037457Y-110000180D01*
X59323171Y-110000180D02*
X59323171Y-109000180D01*
X59227933Y-109143038D01*
X59132695Y-109238276D01*
X59037457Y-109285895D01*
X100979361Y-137462380D02*
X100646028Y-136986190D01*
X100407933Y-137462380D02*
X100407933Y-136462380D01*
X100788885Y-136462380D01*
X100884123Y-136510000D01*
X100931742Y-136557619D01*
X100979361Y-136652857D01*
X100979361Y-136795714D01*
X100931742Y-136890952D01*
X100884123Y-136938571D01*
X100788885Y-136986190D01*
X100407933Y-136986190D01*
X101265076Y-136462380D02*
X101598409Y-137462380D01*
X101931742Y-136462380D01*
X102217457Y-136557619D02*
X102265076Y-136510000D01*
X102360314Y-136462380D01*
X102598409Y-136462380D01*
X102693647Y-136510000D01*
X102741266Y-136557619D01*
X102788885Y-136652857D01*
X102788885Y-136748095D01*
X102741266Y-136890952D01*
X102169838Y-137462380D01*
X102788885Y-137462380D01*
X57799361Y-130218580D02*
X57466028Y-129742390D01*
X57227933Y-130218580D02*
X57227933Y-129218580D01*
X57608885Y-129218580D01*
X57704123Y-129266200D01*
X57751742Y-129313819D01*
X57799361Y-129409057D01*
X57799361Y-129551914D01*
X57751742Y-129647152D01*
X57704123Y-129694771D01*
X57608885Y-129742390D01*
X57227933Y-129742390D01*
X58085076Y-129218580D02*
X58418409Y-130218580D01*
X58751742Y-129218580D01*
X58989838Y-129218580D02*
X59608885Y-129218580D01*
X59275552Y-129599533D01*
X59418409Y-129599533D01*
X59513647Y-129647152D01*
X59561266Y-129694771D01*
X59608885Y-129790009D01*
X59608885Y-130028104D01*
X59561266Y-130123342D01*
X59513647Y-130170961D01*
X59418409Y-130218580D01*
X59132695Y-130218580D01*
X59037457Y-130170961D01*
X58989838Y-130123342D01*
X79248095Y-125487180D02*
X79248095Y-126296704D01*
X79295714Y-126391942D01*
X79343333Y-126439561D01*
X79438571Y-126487180D01*
X79629047Y-126487180D01*
X79724285Y-126439561D01*
X79771904Y-126391942D01*
X79819523Y-126296704D01*
X79819523Y-125487180D01*
X80819523Y-126487180D02*
X80248095Y-126487180D01*
X80533809Y-126487180D02*
X80533809Y-125487180D01*
X80438571Y-125630038D01*
X80343333Y-125725276D01*
X80248095Y-125772895D01*
X85621695Y-105794980D02*
X85621695Y-106604504D01*
X85669314Y-106699742D01*
X85716933Y-106747361D01*
X85812171Y-106794980D01*
X86002647Y-106794980D01*
X86097885Y-106747361D01*
X86145504Y-106699742D01*
X86193123Y-106604504D01*
X86193123Y-105794980D01*
X86621695Y-105890219D02*
X86669314Y-105842600D01*
X86764552Y-105794980D01*
X87002647Y-105794980D01*
X87097885Y-105842600D01*
X87145504Y-105890219D01*
X87193123Y-105985457D01*
X87193123Y-106080695D01*
X87145504Y-106223552D01*
X86574076Y-106794980D01*
X87193123Y-106794980D01*
M02*
