G04 #@! TF.GenerationSoftware,KiCad,Pcbnew,(5.1.0)-1*
G04 #@! TF.CreationDate,2019-07-03T00:11:45+02:00*
G04 #@! TF.ProjectId,Sequencer_board,53657175-656e-4636-9572-5f626f617264,V0-1*
G04 #@! TF.SameCoordinates,Original*
G04 #@! TF.FileFunction,Soldermask,Bot*
G04 #@! TF.FilePolarity,Negative*
%FSLAX46Y46*%
G04 Gerber Fmt 4.6, Leading zero omitted, Abs format (unit mm)*
G04 Created by KiCad (PCBNEW (5.1.0)-1) date 2019-07-03 00:11:45*
%MOMM*%
%LPD*%
G04 APERTURE LIST*
%ADD10C,0.100000*%
G04 APERTURE END LIST*
D10*
G36*
X94224549Y-135871116D02*
G01*
X94335734Y-135893232D01*
X94545203Y-135979997D01*
X94733720Y-136105960D01*
X94894040Y-136266280D01*
X95020003Y-136454797D01*
X95106768Y-136664266D01*
X95151000Y-136886636D01*
X95151000Y-137113364D01*
X95106768Y-137335734D01*
X95020003Y-137545203D01*
X94894040Y-137733720D01*
X94733720Y-137894040D01*
X94545203Y-138020003D01*
X94335734Y-138106768D01*
X94224549Y-138128884D01*
X94113365Y-138151000D01*
X93886635Y-138151000D01*
X93775451Y-138128884D01*
X93664266Y-138106768D01*
X93454797Y-138020003D01*
X93266280Y-137894040D01*
X93105960Y-137733720D01*
X92979997Y-137545203D01*
X92893232Y-137335734D01*
X92849000Y-137113364D01*
X92849000Y-136886636D01*
X92893232Y-136664266D01*
X92979997Y-136454797D01*
X93105960Y-136266280D01*
X93266280Y-136105960D01*
X93454797Y-135979997D01*
X93664266Y-135893232D01*
X93775451Y-135871116D01*
X93886635Y-135849000D01*
X94113365Y-135849000D01*
X94224549Y-135871116D01*
X94224549Y-135871116D01*
G37*
G36*
X66224549Y-135871116D02*
G01*
X66335734Y-135893232D01*
X66545203Y-135979997D01*
X66733720Y-136105960D01*
X66894040Y-136266280D01*
X67020003Y-136454797D01*
X67106768Y-136664266D01*
X67151000Y-136886636D01*
X67151000Y-137113364D01*
X67106768Y-137335734D01*
X67020003Y-137545203D01*
X66894040Y-137733720D01*
X66733720Y-137894040D01*
X66545203Y-138020003D01*
X66335734Y-138106768D01*
X66224549Y-138128884D01*
X66113365Y-138151000D01*
X65886635Y-138151000D01*
X65775451Y-138128884D01*
X65664266Y-138106768D01*
X65454797Y-138020003D01*
X65266280Y-137894040D01*
X65105960Y-137733720D01*
X64979997Y-137545203D01*
X64893232Y-137335734D01*
X64849000Y-137113364D01*
X64849000Y-136886636D01*
X64893232Y-136664266D01*
X64979997Y-136454797D01*
X65105960Y-136266280D01*
X65266280Y-136105960D01*
X65454797Y-135979997D01*
X65664266Y-135893232D01*
X65775451Y-135871116D01*
X65886635Y-135849000D01*
X66113365Y-135849000D01*
X66224549Y-135871116D01*
X66224549Y-135871116D01*
G37*
G36*
X58520189Y-132665076D02*
G01*
X58619493Y-132684829D01*
X58759806Y-132742948D01*
X58886084Y-132827325D01*
X58993475Y-132934716D01*
X59077852Y-133060994D01*
X59135971Y-133201307D01*
X59165600Y-133350263D01*
X59165600Y-133502137D01*
X59135971Y-133651093D01*
X59077852Y-133791406D01*
X58993475Y-133917684D01*
X58886084Y-134025075D01*
X58759806Y-134109452D01*
X58619493Y-134167571D01*
X58520189Y-134187324D01*
X58470538Y-134197200D01*
X58318662Y-134197200D01*
X58269011Y-134187324D01*
X58169707Y-134167571D01*
X58029394Y-134109452D01*
X57903116Y-134025075D01*
X57795725Y-133917684D01*
X57711348Y-133791406D01*
X57653229Y-133651093D01*
X57623600Y-133502137D01*
X57623600Y-133350263D01*
X57653229Y-133201307D01*
X57711348Y-133060994D01*
X57795725Y-132934716D01*
X57903116Y-132827325D01*
X58029394Y-132742948D01*
X58169707Y-132684829D01*
X58269011Y-132665076D01*
X58318662Y-132655200D01*
X58470538Y-132655200D01*
X58520189Y-132665076D01*
X58520189Y-132665076D01*
G37*
G36*
X61060189Y-132665076D02*
G01*
X61159493Y-132684829D01*
X61299806Y-132742948D01*
X61426084Y-132827325D01*
X61533475Y-132934716D01*
X61617852Y-133060994D01*
X61675971Y-133201307D01*
X61705600Y-133350263D01*
X61705600Y-133502137D01*
X61675971Y-133651093D01*
X61617852Y-133791406D01*
X61533475Y-133917684D01*
X61426084Y-134025075D01*
X61299806Y-134109452D01*
X61159493Y-134167571D01*
X61060189Y-134187324D01*
X61010538Y-134197200D01*
X60858662Y-134197200D01*
X60809011Y-134187324D01*
X60709707Y-134167571D01*
X60569394Y-134109452D01*
X60443116Y-134025075D01*
X60335725Y-133917684D01*
X60251348Y-133791406D01*
X60193229Y-133651093D01*
X60163600Y-133502137D01*
X60163600Y-133350263D01*
X60193229Y-133201307D01*
X60251348Y-133060994D01*
X60335725Y-132934716D01*
X60443116Y-132827325D01*
X60569394Y-132742948D01*
X60709707Y-132684829D01*
X60809011Y-132665076D01*
X60858662Y-132655200D01*
X61010538Y-132655200D01*
X61060189Y-132665076D01*
X61060189Y-132665076D01*
G37*
G36*
X55980189Y-132665076D02*
G01*
X56079493Y-132684829D01*
X56219806Y-132742948D01*
X56346084Y-132827325D01*
X56453475Y-132934716D01*
X56537852Y-133060994D01*
X56595971Y-133201307D01*
X56625600Y-133350263D01*
X56625600Y-133502137D01*
X56595971Y-133651093D01*
X56537852Y-133791406D01*
X56453475Y-133917684D01*
X56346084Y-134025075D01*
X56219806Y-134109452D01*
X56079493Y-134167571D01*
X55980189Y-134187324D01*
X55930538Y-134197200D01*
X55778662Y-134197200D01*
X55729011Y-134187324D01*
X55629707Y-134167571D01*
X55489394Y-134109452D01*
X55363116Y-134025075D01*
X55255725Y-133917684D01*
X55171348Y-133791406D01*
X55113229Y-133651093D01*
X55083600Y-133502137D01*
X55083600Y-133350263D01*
X55113229Y-133201307D01*
X55171348Y-133060994D01*
X55255725Y-132934716D01*
X55363116Y-132827325D01*
X55489394Y-132742948D01*
X55629707Y-132684829D01*
X55729011Y-132665076D01*
X55778662Y-132655200D01*
X55930538Y-132655200D01*
X55980189Y-132665076D01*
X55980189Y-132665076D01*
G37*
G36*
X104240189Y-132588876D02*
G01*
X104339493Y-132608629D01*
X104479806Y-132666748D01*
X104606084Y-132751125D01*
X104713475Y-132858516D01*
X104797852Y-132984794D01*
X104855971Y-133125107D01*
X104885600Y-133274063D01*
X104885600Y-133425937D01*
X104855971Y-133574893D01*
X104797852Y-133715206D01*
X104713475Y-133841484D01*
X104606084Y-133948875D01*
X104479806Y-134033252D01*
X104339493Y-134091371D01*
X104248593Y-134109452D01*
X104190538Y-134121000D01*
X104038662Y-134121000D01*
X103980607Y-134109452D01*
X103889707Y-134091371D01*
X103749394Y-134033252D01*
X103623116Y-133948875D01*
X103515725Y-133841484D01*
X103431348Y-133715206D01*
X103373229Y-133574893D01*
X103343600Y-133425937D01*
X103343600Y-133274063D01*
X103373229Y-133125107D01*
X103431348Y-132984794D01*
X103515725Y-132858516D01*
X103623116Y-132751125D01*
X103749394Y-132666748D01*
X103889707Y-132608629D01*
X103989011Y-132588876D01*
X104038662Y-132579000D01*
X104190538Y-132579000D01*
X104240189Y-132588876D01*
X104240189Y-132588876D01*
G37*
G36*
X99160189Y-132588876D02*
G01*
X99259493Y-132608629D01*
X99399806Y-132666748D01*
X99526084Y-132751125D01*
X99633475Y-132858516D01*
X99717852Y-132984794D01*
X99775971Y-133125107D01*
X99805600Y-133274063D01*
X99805600Y-133425937D01*
X99775971Y-133574893D01*
X99717852Y-133715206D01*
X99633475Y-133841484D01*
X99526084Y-133948875D01*
X99399806Y-134033252D01*
X99259493Y-134091371D01*
X99168593Y-134109452D01*
X99110538Y-134121000D01*
X98958662Y-134121000D01*
X98900607Y-134109452D01*
X98809707Y-134091371D01*
X98669394Y-134033252D01*
X98543116Y-133948875D01*
X98435725Y-133841484D01*
X98351348Y-133715206D01*
X98293229Y-133574893D01*
X98263600Y-133425937D01*
X98263600Y-133274063D01*
X98293229Y-133125107D01*
X98351348Y-132984794D01*
X98435725Y-132858516D01*
X98543116Y-132751125D01*
X98669394Y-132666748D01*
X98809707Y-132608629D01*
X98909011Y-132588876D01*
X98958662Y-132579000D01*
X99110538Y-132579000D01*
X99160189Y-132588876D01*
X99160189Y-132588876D01*
G37*
G36*
X101700189Y-132588876D02*
G01*
X101799493Y-132608629D01*
X101939806Y-132666748D01*
X102066084Y-132751125D01*
X102173475Y-132858516D01*
X102257852Y-132984794D01*
X102315971Y-133125107D01*
X102345600Y-133274063D01*
X102345600Y-133425937D01*
X102315971Y-133574893D01*
X102257852Y-133715206D01*
X102173475Y-133841484D01*
X102066084Y-133948875D01*
X101939806Y-134033252D01*
X101799493Y-134091371D01*
X101708593Y-134109452D01*
X101650538Y-134121000D01*
X101498662Y-134121000D01*
X101440607Y-134109452D01*
X101349707Y-134091371D01*
X101209394Y-134033252D01*
X101083116Y-133948875D01*
X100975725Y-133841484D01*
X100891348Y-133715206D01*
X100833229Y-133574893D01*
X100803600Y-133425937D01*
X100803600Y-133274063D01*
X100833229Y-133125107D01*
X100891348Y-132984794D01*
X100975725Y-132858516D01*
X101083116Y-132751125D01*
X101209394Y-132666748D01*
X101349707Y-132608629D01*
X101449011Y-132588876D01*
X101498662Y-132579000D01*
X101650538Y-132579000D01*
X101700189Y-132588876D01*
X101700189Y-132588876D01*
G37*
G36*
X73886564Y-129799389D02*
G01*
X74077833Y-129878615D01*
X74077835Y-129878616D01*
X74249973Y-129993635D01*
X74396365Y-130140027D01*
X74511385Y-130312167D01*
X74590611Y-130503436D01*
X74631000Y-130706484D01*
X74631000Y-130913516D01*
X74590611Y-131116564D01*
X74511385Y-131307833D01*
X74511384Y-131307835D01*
X74396365Y-131479973D01*
X74249973Y-131626365D01*
X74077835Y-131741384D01*
X74077834Y-131741385D01*
X74077833Y-131741385D01*
X73886564Y-131820611D01*
X73683516Y-131861000D01*
X73476484Y-131861000D01*
X73273436Y-131820611D01*
X73082167Y-131741385D01*
X73082166Y-131741385D01*
X73082165Y-131741384D01*
X72910027Y-131626365D01*
X72763635Y-131479973D01*
X72648616Y-131307835D01*
X72648615Y-131307833D01*
X72569389Y-131116564D01*
X72529000Y-130913516D01*
X72529000Y-130706484D01*
X72569389Y-130503436D01*
X72648615Y-130312167D01*
X72763635Y-130140027D01*
X72910027Y-129993635D01*
X73082165Y-129878616D01*
X73082167Y-129878615D01*
X73273436Y-129799389D01*
X73476484Y-129759000D01*
X73683516Y-129759000D01*
X73886564Y-129799389D01*
X73886564Y-129799389D01*
G37*
G36*
X69631000Y-131861000D02*
G01*
X67529000Y-131861000D01*
X67529000Y-129759000D01*
X69631000Y-129759000D01*
X69631000Y-131861000D01*
X69631000Y-131861000D01*
G37*
G36*
X86746564Y-129799389D02*
G01*
X86937833Y-129878615D01*
X86937835Y-129878616D01*
X87109973Y-129993635D01*
X87256365Y-130140027D01*
X87371385Y-130312167D01*
X87450611Y-130503436D01*
X87491000Y-130706484D01*
X87491000Y-130913516D01*
X87450611Y-131116564D01*
X87371385Y-131307833D01*
X87371384Y-131307835D01*
X87256365Y-131479973D01*
X87109973Y-131626365D01*
X86937835Y-131741384D01*
X86937834Y-131741385D01*
X86937833Y-131741385D01*
X86746564Y-131820611D01*
X86543516Y-131861000D01*
X86336484Y-131861000D01*
X86133436Y-131820611D01*
X85942167Y-131741385D01*
X85942166Y-131741385D01*
X85942165Y-131741384D01*
X85770027Y-131626365D01*
X85623635Y-131479973D01*
X85508616Y-131307835D01*
X85508615Y-131307833D01*
X85429389Y-131116564D01*
X85389000Y-130913516D01*
X85389000Y-130706484D01*
X85429389Y-130503436D01*
X85508615Y-130312167D01*
X85623635Y-130140027D01*
X85770027Y-129993635D01*
X85942165Y-129878616D01*
X85942167Y-129878615D01*
X86133436Y-129799389D01*
X86336484Y-129759000D01*
X86543516Y-129759000D01*
X86746564Y-129799389D01*
X86746564Y-129799389D01*
G37*
G36*
X92491000Y-131861000D02*
G01*
X90389000Y-131861000D01*
X90389000Y-129759000D01*
X92491000Y-129759000D01*
X92491000Y-131861000D01*
X92491000Y-131861000D01*
G37*
G36*
X70118423Y-121741713D02*
G01*
X70278842Y-121790376D01*
X70411506Y-121861286D01*
X70426678Y-121869396D01*
X70556259Y-121975741D01*
X70662604Y-122105322D01*
X70662605Y-122105324D01*
X70741624Y-122253158D01*
X70790287Y-122413577D01*
X70806717Y-122580400D01*
X70790287Y-122747223D01*
X70741624Y-122907642D01*
X70701077Y-122983500D01*
X70662604Y-123055478D01*
X70556259Y-123185059D01*
X70426678Y-123291404D01*
X70426676Y-123291405D01*
X70278842Y-123370424D01*
X70118423Y-123419087D01*
X69993404Y-123431400D01*
X69909796Y-123431400D01*
X69784777Y-123419087D01*
X69624358Y-123370424D01*
X69476524Y-123291405D01*
X69476522Y-123291404D01*
X69346941Y-123185059D01*
X69240596Y-123055478D01*
X69202123Y-122983500D01*
X69161576Y-122907642D01*
X69112913Y-122747223D01*
X69096483Y-122580400D01*
X69112913Y-122413577D01*
X69161576Y-122253158D01*
X69240595Y-122105324D01*
X69240596Y-122105322D01*
X69346941Y-121975741D01*
X69476522Y-121869396D01*
X69491694Y-121861286D01*
X69624358Y-121790376D01*
X69784777Y-121741713D01*
X69909796Y-121729400D01*
X69993404Y-121729400D01*
X70118423Y-121741713D01*
X70118423Y-121741713D01*
G37*
G36*
X67659828Y-121762103D02*
G01*
X67814700Y-121826253D01*
X67954081Y-121919385D01*
X68072615Y-122037919D01*
X68165747Y-122177300D01*
X68229897Y-122332172D01*
X68262600Y-122496584D01*
X68262600Y-122664216D01*
X68229897Y-122828628D01*
X68165747Y-122983500D01*
X68072615Y-123122881D01*
X67954081Y-123241415D01*
X67814700Y-123334547D01*
X67659828Y-123398697D01*
X67495416Y-123431400D01*
X67327784Y-123431400D01*
X67163372Y-123398697D01*
X67008500Y-123334547D01*
X66869119Y-123241415D01*
X66750585Y-123122881D01*
X66657453Y-122983500D01*
X66593303Y-122828628D01*
X66560600Y-122664216D01*
X66560600Y-122496584D01*
X66593303Y-122332172D01*
X66657453Y-122177300D01*
X66750585Y-122037919D01*
X66869119Y-121919385D01*
X67008500Y-121826253D01*
X67163372Y-121762103D01*
X67327784Y-121729400D01*
X67495416Y-121729400D01*
X67659828Y-121762103D01*
X67659828Y-121762103D01*
G37*
G36*
X90336823Y-121081313D02*
G01*
X90497242Y-121129976D01*
X90564361Y-121165852D01*
X90645078Y-121208996D01*
X90774659Y-121315341D01*
X90881004Y-121444922D01*
X90881005Y-121444924D01*
X90960024Y-121592758D01*
X91008687Y-121753177D01*
X91025117Y-121920000D01*
X91008687Y-122086823D01*
X90960024Y-122247242D01*
X90919477Y-122323100D01*
X90881004Y-122395078D01*
X90774659Y-122524659D01*
X90645078Y-122631004D01*
X90645076Y-122631005D01*
X90497242Y-122710024D01*
X90336823Y-122758687D01*
X90211804Y-122771000D01*
X90128196Y-122771000D01*
X90003177Y-122758687D01*
X89842758Y-122710024D01*
X89694924Y-122631005D01*
X89694922Y-122631004D01*
X89565341Y-122524659D01*
X89458996Y-122395078D01*
X89420523Y-122323100D01*
X89379976Y-122247242D01*
X89331313Y-122086823D01*
X89314883Y-121920000D01*
X89331313Y-121753177D01*
X89379976Y-121592758D01*
X89458995Y-121444924D01*
X89458996Y-121444922D01*
X89565341Y-121315341D01*
X89694922Y-121208996D01*
X89775639Y-121165852D01*
X89842758Y-121129976D01*
X90003177Y-121081313D01*
X90128196Y-121069000D01*
X90211804Y-121069000D01*
X90336823Y-121081313D01*
X90336823Y-121081313D01*
G37*
G36*
X92958228Y-121101703D02*
G01*
X93113100Y-121165853D01*
X93252481Y-121258985D01*
X93371015Y-121377519D01*
X93464147Y-121516900D01*
X93528297Y-121671772D01*
X93561000Y-121836184D01*
X93561000Y-122003816D01*
X93528297Y-122168228D01*
X93464147Y-122323100D01*
X93371015Y-122462481D01*
X93252481Y-122581015D01*
X93113100Y-122674147D01*
X92958228Y-122738297D01*
X92793816Y-122771000D01*
X92626184Y-122771000D01*
X92461772Y-122738297D01*
X92306900Y-122674147D01*
X92167519Y-122581015D01*
X92048985Y-122462481D01*
X91955853Y-122323100D01*
X91891703Y-122168228D01*
X91859000Y-122003816D01*
X91859000Y-121836184D01*
X91891703Y-121671772D01*
X91955853Y-121516900D01*
X92048985Y-121377519D01*
X92167519Y-121258985D01*
X92306900Y-121165853D01*
X92461772Y-121101703D01*
X92626184Y-121069000D01*
X92793816Y-121069000D01*
X92958228Y-121101703D01*
X92958228Y-121101703D01*
G37*
G36*
X92820443Y-114675519D02*
G01*
X92886627Y-114682037D01*
X93056466Y-114733557D01*
X93212991Y-114817222D01*
X93248729Y-114846552D01*
X93350186Y-114929814D01*
X93419902Y-115014765D01*
X93462778Y-115067009D01*
X93546443Y-115223534D01*
X93597963Y-115393373D01*
X93615359Y-115570000D01*
X93597963Y-115746627D01*
X93546443Y-115916466D01*
X93462778Y-116072991D01*
X93433448Y-116108729D01*
X93350186Y-116210186D01*
X93248729Y-116293448D01*
X93212991Y-116322778D01*
X93056466Y-116406443D01*
X92886627Y-116457963D01*
X92820442Y-116464482D01*
X92754260Y-116471000D01*
X92665740Y-116471000D01*
X92599558Y-116464482D01*
X92533373Y-116457963D01*
X92363534Y-116406443D01*
X92207009Y-116322778D01*
X92171271Y-116293448D01*
X92069814Y-116210186D01*
X91986552Y-116108729D01*
X91957222Y-116072991D01*
X91873557Y-115916466D01*
X91822037Y-115746627D01*
X91804641Y-115570000D01*
X91822037Y-115393373D01*
X91873557Y-115223534D01*
X91957222Y-115067009D01*
X92000098Y-115014765D01*
X92069814Y-114929814D01*
X92171271Y-114846552D01*
X92207009Y-114817222D01*
X92363534Y-114733557D01*
X92533373Y-114682037D01*
X92599557Y-114675519D01*
X92665740Y-114669000D01*
X92754260Y-114669000D01*
X92820443Y-114675519D01*
X92820443Y-114675519D01*
G37*
G36*
X95360443Y-114675519D02*
G01*
X95426627Y-114682037D01*
X95596466Y-114733557D01*
X95752991Y-114817222D01*
X95788729Y-114846552D01*
X95890186Y-114929814D01*
X95959902Y-115014765D01*
X96002778Y-115067009D01*
X96086443Y-115223534D01*
X96137963Y-115393373D01*
X96155359Y-115570000D01*
X96137963Y-115746627D01*
X96086443Y-115916466D01*
X96002778Y-116072991D01*
X95973448Y-116108729D01*
X95890186Y-116210186D01*
X95788729Y-116293448D01*
X95752991Y-116322778D01*
X95596466Y-116406443D01*
X95426627Y-116457963D01*
X95360442Y-116464482D01*
X95294260Y-116471000D01*
X95205740Y-116471000D01*
X95139558Y-116464482D01*
X95073373Y-116457963D01*
X94903534Y-116406443D01*
X94747009Y-116322778D01*
X94711271Y-116293448D01*
X94609814Y-116210186D01*
X94526552Y-116108729D01*
X94497222Y-116072991D01*
X94413557Y-115916466D01*
X94362037Y-115746627D01*
X94344641Y-115570000D01*
X94362037Y-115393373D01*
X94413557Y-115223534D01*
X94497222Y-115067009D01*
X94540098Y-115014765D01*
X94609814Y-114929814D01*
X94711271Y-114846552D01*
X94747009Y-114817222D01*
X94903534Y-114733557D01*
X95073373Y-114682037D01*
X95139557Y-114675519D01*
X95205740Y-114669000D01*
X95294260Y-114669000D01*
X95360443Y-114675519D01*
X95360443Y-114675519D01*
G37*
G36*
X97900443Y-114675519D02*
G01*
X97966627Y-114682037D01*
X98136466Y-114733557D01*
X98292991Y-114817222D01*
X98328729Y-114846552D01*
X98430186Y-114929814D01*
X98499902Y-115014765D01*
X98542778Y-115067009D01*
X98626443Y-115223534D01*
X98677963Y-115393373D01*
X98695359Y-115570000D01*
X98677963Y-115746627D01*
X98626443Y-115916466D01*
X98542778Y-116072991D01*
X98513448Y-116108729D01*
X98430186Y-116210186D01*
X98328729Y-116293448D01*
X98292991Y-116322778D01*
X98136466Y-116406443D01*
X97966627Y-116457963D01*
X97900442Y-116464482D01*
X97834260Y-116471000D01*
X97745740Y-116471000D01*
X97679558Y-116464482D01*
X97613373Y-116457963D01*
X97443534Y-116406443D01*
X97287009Y-116322778D01*
X97251271Y-116293448D01*
X97149814Y-116210186D01*
X97066552Y-116108729D01*
X97037222Y-116072991D01*
X96953557Y-115916466D01*
X96902037Y-115746627D01*
X96884641Y-115570000D01*
X96902037Y-115393373D01*
X96953557Y-115223534D01*
X97037222Y-115067009D01*
X97080098Y-115014765D01*
X97149814Y-114929814D01*
X97251271Y-114846552D01*
X97287009Y-114817222D01*
X97443534Y-114733557D01*
X97613373Y-114682037D01*
X97679557Y-114675519D01*
X97745740Y-114669000D01*
X97834260Y-114669000D01*
X97900443Y-114675519D01*
X97900443Y-114675519D01*
G37*
G36*
X102980443Y-114675519D02*
G01*
X103046627Y-114682037D01*
X103216466Y-114733557D01*
X103372991Y-114817222D01*
X103408729Y-114846552D01*
X103510186Y-114929814D01*
X103579902Y-115014765D01*
X103622778Y-115067009D01*
X103706443Y-115223534D01*
X103757963Y-115393373D01*
X103775359Y-115570000D01*
X103757963Y-115746627D01*
X103706443Y-115916466D01*
X103622778Y-116072991D01*
X103593448Y-116108729D01*
X103510186Y-116210186D01*
X103408729Y-116293448D01*
X103372991Y-116322778D01*
X103216466Y-116406443D01*
X103046627Y-116457963D01*
X102980442Y-116464482D01*
X102914260Y-116471000D01*
X102825740Y-116471000D01*
X102759558Y-116464482D01*
X102693373Y-116457963D01*
X102523534Y-116406443D01*
X102367009Y-116322778D01*
X102331271Y-116293448D01*
X102229814Y-116210186D01*
X102146552Y-116108729D01*
X102117222Y-116072991D01*
X102033557Y-115916466D01*
X101982037Y-115746627D01*
X101964641Y-115570000D01*
X101982037Y-115393373D01*
X102033557Y-115223534D01*
X102117222Y-115067009D01*
X102160098Y-115014765D01*
X102229814Y-114929814D01*
X102331271Y-114846552D01*
X102367009Y-114817222D01*
X102523534Y-114733557D01*
X102693373Y-114682037D01*
X102759557Y-114675519D01*
X102825740Y-114669000D01*
X102914260Y-114669000D01*
X102980443Y-114675519D01*
X102980443Y-114675519D01*
G37*
G36*
X100440443Y-114675519D02*
G01*
X100506627Y-114682037D01*
X100676466Y-114733557D01*
X100832991Y-114817222D01*
X100868729Y-114846552D01*
X100970186Y-114929814D01*
X101039902Y-115014765D01*
X101082778Y-115067009D01*
X101166443Y-115223534D01*
X101217963Y-115393373D01*
X101235359Y-115570000D01*
X101217963Y-115746627D01*
X101166443Y-115916466D01*
X101082778Y-116072991D01*
X101053448Y-116108729D01*
X100970186Y-116210186D01*
X100868729Y-116293448D01*
X100832991Y-116322778D01*
X100676466Y-116406443D01*
X100506627Y-116457963D01*
X100440442Y-116464482D01*
X100374260Y-116471000D01*
X100285740Y-116471000D01*
X100219558Y-116464482D01*
X100153373Y-116457963D01*
X99983534Y-116406443D01*
X99827009Y-116322778D01*
X99791271Y-116293448D01*
X99689814Y-116210186D01*
X99606552Y-116108729D01*
X99577222Y-116072991D01*
X99493557Y-115916466D01*
X99442037Y-115746627D01*
X99424641Y-115570000D01*
X99442037Y-115393373D01*
X99493557Y-115223534D01*
X99577222Y-115067009D01*
X99620098Y-115014765D01*
X99689814Y-114929814D01*
X99791271Y-114846552D01*
X99827009Y-114817222D01*
X99983534Y-114733557D01*
X100153373Y-114682037D01*
X100219557Y-114675519D01*
X100285740Y-114669000D01*
X100374260Y-114669000D01*
X100440443Y-114675519D01*
X100440443Y-114675519D01*
G37*
G36*
X106311000Y-116471000D02*
G01*
X104509000Y-116471000D01*
X104509000Y-114669000D01*
X106311000Y-114669000D01*
X106311000Y-116471000D01*
X106311000Y-116471000D01*
G37*
G36*
X73149964Y-113187789D02*
G01*
X73341233Y-113267015D01*
X73341235Y-113267016D01*
X73366261Y-113283738D01*
X73513373Y-113382035D01*
X73659765Y-113528427D01*
X73774785Y-113700567D01*
X73854011Y-113891836D01*
X73894400Y-114094884D01*
X73894400Y-114301916D01*
X73854011Y-114504964D01*
X73786065Y-114669000D01*
X73774784Y-114696235D01*
X73659765Y-114868373D01*
X73513373Y-115014765D01*
X73341235Y-115129784D01*
X73341234Y-115129785D01*
X73341233Y-115129785D01*
X73149964Y-115209011D01*
X72946916Y-115249400D01*
X72739884Y-115249400D01*
X72536836Y-115209011D01*
X72345567Y-115129785D01*
X72345566Y-115129785D01*
X72345565Y-115129784D01*
X72173427Y-115014765D01*
X72027035Y-114868373D01*
X71912016Y-114696235D01*
X71900735Y-114669000D01*
X71832789Y-114504964D01*
X71792400Y-114301916D01*
X71792400Y-114094884D01*
X71832789Y-113891836D01*
X71912015Y-113700567D01*
X72027035Y-113528427D01*
X72173427Y-113382035D01*
X72320539Y-113283738D01*
X72345565Y-113267016D01*
X72345567Y-113267015D01*
X72536836Y-113187789D01*
X72739884Y-113147400D01*
X72946916Y-113147400D01*
X73149964Y-113187789D01*
X73149964Y-113187789D01*
G37*
G36*
X68894400Y-115249400D02*
G01*
X66792400Y-115249400D01*
X66792400Y-113147400D01*
X68894400Y-113147400D01*
X68894400Y-115249400D01*
X68894400Y-115249400D01*
G37*
G36*
X55980189Y-112446676D02*
G01*
X56079493Y-112466429D01*
X56219806Y-112524548D01*
X56346084Y-112608925D01*
X56453475Y-112716316D01*
X56537852Y-112842594D01*
X56595971Y-112982907D01*
X56625600Y-113131863D01*
X56625600Y-113283737D01*
X56595971Y-113432693D01*
X56537852Y-113573006D01*
X56453475Y-113699284D01*
X56346084Y-113806675D01*
X56219806Y-113891052D01*
X56079493Y-113949171D01*
X55980189Y-113968924D01*
X55930538Y-113978800D01*
X55778662Y-113978800D01*
X55729011Y-113968924D01*
X55629707Y-113949171D01*
X55489394Y-113891052D01*
X55363116Y-113806675D01*
X55255725Y-113699284D01*
X55171348Y-113573006D01*
X55113229Y-113432693D01*
X55083600Y-113283737D01*
X55083600Y-113131863D01*
X55113229Y-112982907D01*
X55171348Y-112842594D01*
X55255725Y-112716316D01*
X55363116Y-112608925D01*
X55489394Y-112524548D01*
X55629707Y-112466429D01*
X55729011Y-112446676D01*
X55778662Y-112436800D01*
X55930538Y-112436800D01*
X55980189Y-112446676D01*
X55980189Y-112446676D01*
G37*
G36*
X58520189Y-112446676D02*
G01*
X58619493Y-112466429D01*
X58759806Y-112524548D01*
X58886084Y-112608925D01*
X58993475Y-112716316D01*
X59077852Y-112842594D01*
X59135971Y-112982907D01*
X59165600Y-113131863D01*
X59165600Y-113283737D01*
X59135971Y-113432693D01*
X59077852Y-113573006D01*
X58993475Y-113699284D01*
X58886084Y-113806675D01*
X58759806Y-113891052D01*
X58619493Y-113949171D01*
X58520189Y-113968924D01*
X58470538Y-113978800D01*
X58318662Y-113978800D01*
X58269011Y-113968924D01*
X58169707Y-113949171D01*
X58029394Y-113891052D01*
X57903116Y-113806675D01*
X57795725Y-113699284D01*
X57711348Y-113573006D01*
X57653229Y-113432693D01*
X57623600Y-113283737D01*
X57623600Y-113131863D01*
X57653229Y-112982907D01*
X57711348Y-112842594D01*
X57795725Y-112716316D01*
X57903116Y-112608925D01*
X58029394Y-112524548D01*
X58169707Y-112466429D01*
X58269011Y-112446676D01*
X58318662Y-112436800D01*
X58470538Y-112436800D01*
X58520189Y-112446676D01*
X58520189Y-112446676D01*
G37*
G36*
X61060189Y-112446676D02*
G01*
X61159493Y-112466429D01*
X61299806Y-112524548D01*
X61426084Y-112608925D01*
X61533475Y-112716316D01*
X61617852Y-112842594D01*
X61675971Y-112982907D01*
X61705600Y-113131863D01*
X61705600Y-113283737D01*
X61675971Y-113432693D01*
X61617852Y-113573006D01*
X61533475Y-113699284D01*
X61426084Y-113806675D01*
X61299806Y-113891052D01*
X61159493Y-113949171D01*
X61060189Y-113968924D01*
X61010538Y-113978800D01*
X60858662Y-113978800D01*
X60809011Y-113968924D01*
X60709707Y-113949171D01*
X60569394Y-113891052D01*
X60443116Y-113806675D01*
X60335725Y-113699284D01*
X60251348Y-113573006D01*
X60193229Y-113432693D01*
X60163600Y-113283737D01*
X60163600Y-113131863D01*
X60193229Y-112982907D01*
X60251348Y-112842594D01*
X60335725Y-112716316D01*
X60443116Y-112608925D01*
X60569394Y-112524548D01*
X60709707Y-112466429D01*
X60809011Y-112446676D01*
X60858662Y-112436800D01*
X61010538Y-112436800D01*
X61060189Y-112446676D01*
X61060189Y-112446676D01*
G37*
G36*
X106311000Y-112661000D02*
G01*
X104509000Y-112661000D01*
X104509000Y-110859000D01*
X106311000Y-110859000D01*
X106311000Y-112661000D01*
X106311000Y-112661000D01*
G37*
G36*
X102980442Y-110865518D02*
G01*
X103046627Y-110872037D01*
X103216466Y-110923557D01*
X103372991Y-111007222D01*
X103408729Y-111036552D01*
X103510186Y-111119814D01*
X103593448Y-111221271D01*
X103622778Y-111257009D01*
X103706443Y-111413534D01*
X103757963Y-111583373D01*
X103775359Y-111760000D01*
X103757963Y-111936627D01*
X103706443Y-112106466D01*
X103622778Y-112262991D01*
X103593448Y-112298729D01*
X103510186Y-112400186D01*
X103429467Y-112466429D01*
X103372991Y-112512778D01*
X103216466Y-112596443D01*
X103046627Y-112647963D01*
X102980442Y-112654482D01*
X102914260Y-112661000D01*
X102825740Y-112661000D01*
X102759558Y-112654482D01*
X102693373Y-112647963D01*
X102523534Y-112596443D01*
X102367009Y-112512778D01*
X102310533Y-112466429D01*
X102229814Y-112400186D01*
X102146552Y-112298729D01*
X102117222Y-112262991D01*
X102033557Y-112106466D01*
X101982037Y-111936627D01*
X101964641Y-111760000D01*
X101982037Y-111583373D01*
X102033557Y-111413534D01*
X102117222Y-111257009D01*
X102146552Y-111221271D01*
X102229814Y-111119814D01*
X102331271Y-111036552D01*
X102367009Y-111007222D01*
X102523534Y-110923557D01*
X102693373Y-110872037D01*
X102759558Y-110865518D01*
X102825740Y-110859000D01*
X102914260Y-110859000D01*
X102980442Y-110865518D01*
X102980442Y-110865518D01*
G37*
G36*
X106311000Y-108851000D02*
G01*
X104509000Y-108851000D01*
X104509000Y-107049000D01*
X106311000Y-107049000D01*
X106311000Y-108851000D01*
X106311000Y-108851000D01*
G37*
G36*
X102980442Y-107055518D02*
G01*
X103046627Y-107062037D01*
X103216466Y-107113557D01*
X103372991Y-107197222D01*
X103408729Y-107226552D01*
X103510186Y-107309814D01*
X103593448Y-107411271D01*
X103622778Y-107447009D01*
X103706443Y-107603534D01*
X103757963Y-107773373D01*
X103775359Y-107950000D01*
X103757963Y-108126627D01*
X103706443Y-108296466D01*
X103622778Y-108452991D01*
X103593448Y-108488729D01*
X103510186Y-108590186D01*
X103408729Y-108673448D01*
X103372991Y-108702778D01*
X103216466Y-108786443D01*
X103046627Y-108837963D01*
X102980442Y-108844482D01*
X102914260Y-108851000D01*
X102825740Y-108851000D01*
X102759558Y-108844482D01*
X102693373Y-108837963D01*
X102523534Y-108786443D01*
X102367009Y-108702778D01*
X102331271Y-108673448D01*
X102229814Y-108590186D01*
X102146552Y-108488729D01*
X102117222Y-108452991D01*
X102033557Y-108296466D01*
X101982037Y-108126627D01*
X101964641Y-107950000D01*
X101982037Y-107773373D01*
X102033557Y-107603534D01*
X102117222Y-107447009D01*
X102146552Y-107411271D01*
X102229814Y-107309814D01*
X102331271Y-107226552D01*
X102367009Y-107197222D01*
X102523534Y-107113557D01*
X102693373Y-107062037D01*
X102759558Y-107055518D01*
X102825740Y-107049000D01*
X102914260Y-107049000D01*
X102980442Y-107055518D01*
X102980442Y-107055518D01*
G37*
G36*
X69991423Y-105104713D02*
G01*
X70151842Y-105153376D01*
X70218961Y-105189252D01*
X70299678Y-105232396D01*
X70429259Y-105338741D01*
X70535604Y-105468322D01*
X70535605Y-105468324D01*
X70614624Y-105616158D01*
X70663287Y-105776577D01*
X70679717Y-105943400D01*
X70663287Y-106110223D01*
X70614624Y-106270642D01*
X70574077Y-106346500D01*
X70535604Y-106418478D01*
X70429259Y-106548059D01*
X70299678Y-106654404D01*
X70299676Y-106654405D01*
X70151842Y-106733424D01*
X69991423Y-106782087D01*
X69866404Y-106794400D01*
X69782796Y-106794400D01*
X69657777Y-106782087D01*
X69497358Y-106733424D01*
X69349524Y-106654405D01*
X69349522Y-106654404D01*
X69219941Y-106548059D01*
X69113596Y-106418478D01*
X69075123Y-106346500D01*
X69034576Y-106270642D01*
X68985913Y-106110223D01*
X68969483Y-105943400D01*
X68985913Y-105776577D01*
X69034576Y-105616158D01*
X69113595Y-105468324D01*
X69113596Y-105468322D01*
X69219941Y-105338741D01*
X69349522Y-105232396D01*
X69430239Y-105189252D01*
X69497358Y-105153376D01*
X69657777Y-105104713D01*
X69782796Y-105092400D01*
X69866404Y-105092400D01*
X69991423Y-105104713D01*
X69991423Y-105104713D01*
G37*
G36*
X67532828Y-105125103D02*
G01*
X67687700Y-105189253D01*
X67827081Y-105282385D01*
X67945615Y-105400919D01*
X68038747Y-105540300D01*
X68102897Y-105695172D01*
X68135600Y-105859584D01*
X68135600Y-106027216D01*
X68102897Y-106191628D01*
X68038747Y-106346500D01*
X67945615Y-106485881D01*
X67827081Y-106604415D01*
X67687700Y-106697547D01*
X67532828Y-106761697D01*
X67368416Y-106794400D01*
X67200784Y-106794400D01*
X67036372Y-106761697D01*
X66881500Y-106697547D01*
X66742119Y-106604415D01*
X66623585Y-106485881D01*
X66530453Y-106346500D01*
X66466303Y-106191628D01*
X66433600Y-106027216D01*
X66433600Y-105859584D01*
X66466303Y-105695172D01*
X66530453Y-105540300D01*
X66623585Y-105400919D01*
X66742119Y-105282385D01*
X66881500Y-105189253D01*
X67036372Y-105125103D01*
X67200784Y-105092400D01*
X67368416Y-105092400D01*
X67532828Y-105125103D01*
X67532828Y-105125103D01*
G37*
G36*
X63483443Y-95473119D02*
G01*
X63549627Y-95479637D01*
X63719466Y-95531157D01*
X63875991Y-95614822D01*
X63911729Y-95644152D01*
X64013186Y-95727414D01*
X64096448Y-95828871D01*
X64125778Y-95864609D01*
X64209443Y-96021134D01*
X64260963Y-96190973D01*
X64278359Y-96367600D01*
X64260963Y-96544227D01*
X64209443Y-96714066D01*
X64125778Y-96870591D01*
X64096448Y-96906329D01*
X64013186Y-97007786D01*
X63911729Y-97091048D01*
X63875991Y-97120378D01*
X63719466Y-97204043D01*
X63549627Y-97255563D01*
X63483443Y-97262081D01*
X63417260Y-97268600D01*
X63328740Y-97268600D01*
X63262557Y-97262081D01*
X63196373Y-97255563D01*
X63026534Y-97204043D01*
X62870009Y-97120378D01*
X62834271Y-97091048D01*
X62732814Y-97007786D01*
X62649552Y-96906329D01*
X62620222Y-96870591D01*
X62536557Y-96714066D01*
X62485037Y-96544227D01*
X62467641Y-96367600D01*
X62485037Y-96190973D01*
X62536557Y-96021134D01*
X62620222Y-95864609D01*
X62649552Y-95828871D01*
X62732814Y-95727414D01*
X62834271Y-95644152D01*
X62870009Y-95614822D01*
X63026534Y-95531157D01*
X63196373Y-95479637D01*
X63262557Y-95473119D01*
X63328740Y-95466600D01*
X63417260Y-95466600D01*
X63483443Y-95473119D01*
X63483443Y-95473119D01*
G37*
G36*
X60943443Y-95473119D02*
G01*
X61009627Y-95479637D01*
X61179466Y-95531157D01*
X61335991Y-95614822D01*
X61371729Y-95644152D01*
X61473186Y-95727414D01*
X61556448Y-95828871D01*
X61585778Y-95864609D01*
X61669443Y-96021134D01*
X61720963Y-96190973D01*
X61738359Y-96367600D01*
X61720963Y-96544227D01*
X61669443Y-96714066D01*
X61585778Y-96870591D01*
X61556448Y-96906329D01*
X61473186Y-97007786D01*
X61371729Y-97091048D01*
X61335991Y-97120378D01*
X61179466Y-97204043D01*
X61009627Y-97255563D01*
X60943443Y-97262081D01*
X60877260Y-97268600D01*
X60788740Y-97268600D01*
X60722557Y-97262081D01*
X60656373Y-97255563D01*
X60486534Y-97204043D01*
X60330009Y-97120378D01*
X60294271Y-97091048D01*
X60192814Y-97007786D01*
X60109552Y-96906329D01*
X60080222Y-96870591D01*
X59996557Y-96714066D01*
X59945037Y-96544227D01*
X59927641Y-96367600D01*
X59945037Y-96190973D01*
X59996557Y-96021134D01*
X60080222Y-95864609D01*
X60109552Y-95828871D01*
X60192814Y-95727414D01*
X60294271Y-95644152D01*
X60330009Y-95614822D01*
X60486534Y-95531157D01*
X60656373Y-95479637D01*
X60722557Y-95473119D01*
X60788740Y-95466600D01*
X60877260Y-95466600D01*
X60943443Y-95473119D01*
X60943443Y-95473119D01*
G37*
G36*
X59194000Y-97268600D02*
G01*
X57392000Y-97268600D01*
X57392000Y-95466600D01*
X59194000Y-95466600D01*
X59194000Y-97268600D01*
X59194000Y-97268600D01*
G37*
G36*
X107224549Y-91871116D02*
G01*
X107335734Y-91893232D01*
X107545203Y-91979997D01*
X107733720Y-92105960D01*
X107894040Y-92266280D01*
X108020003Y-92454797D01*
X108106768Y-92664266D01*
X108151000Y-92886636D01*
X108151000Y-93113364D01*
X108106768Y-93335734D01*
X108020003Y-93545203D01*
X107894040Y-93733720D01*
X107733720Y-93894040D01*
X107545203Y-94020003D01*
X107335734Y-94106768D01*
X107224549Y-94128884D01*
X107113365Y-94151000D01*
X106886635Y-94151000D01*
X106775451Y-94128884D01*
X106664266Y-94106768D01*
X106454797Y-94020003D01*
X106266280Y-93894040D01*
X106105960Y-93733720D01*
X105979997Y-93545203D01*
X105893232Y-93335734D01*
X105849000Y-93113364D01*
X105849000Y-92886636D01*
X105893232Y-92664266D01*
X105979997Y-92454797D01*
X106105960Y-92266280D01*
X106266280Y-92105960D01*
X106454797Y-91979997D01*
X106664266Y-91893232D01*
X106775451Y-91871116D01*
X106886635Y-91849000D01*
X107113365Y-91849000D01*
X107224549Y-91871116D01*
X107224549Y-91871116D01*
G37*
G36*
X53224549Y-91871116D02*
G01*
X53335734Y-91893232D01*
X53545203Y-91979997D01*
X53733720Y-92105960D01*
X53894040Y-92266280D01*
X54020003Y-92454797D01*
X54106768Y-92664266D01*
X54151000Y-92886636D01*
X54151000Y-93113364D01*
X54106768Y-93335734D01*
X54020003Y-93545203D01*
X53894040Y-93733720D01*
X53733720Y-93894040D01*
X53545203Y-94020003D01*
X53335734Y-94106768D01*
X53224549Y-94128884D01*
X53113365Y-94151000D01*
X52886635Y-94151000D01*
X52775451Y-94128884D01*
X52664266Y-94106768D01*
X52454797Y-94020003D01*
X52266280Y-93894040D01*
X52105960Y-93733720D01*
X51979997Y-93545203D01*
X51893232Y-93335734D01*
X51849000Y-93113364D01*
X51849000Y-92886636D01*
X51893232Y-92664266D01*
X51979997Y-92454797D01*
X52105960Y-92266280D01*
X52266280Y-92105960D01*
X52454797Y-91979997D01*
X52664266Y-91893232D01*
X52775451Y-91871116D01*
X52886635Y-91849000D01*
X53113365Y-91849000D01*
X53224549Y-91871116D01*
X53224549Y-91871116D01*
G37*
M02*
