M48
; DRILL file {KiCad (5.1.0)-1} date 03/07/2019 00:12:49
; FORMAT={-:-/ absolute / inch / decimal}
; #@! TF.CreationDate,2019-07-03T00:12:49+02:00
; #@! TF.GenerationSoftware,Kicad,Pcbnew,(5.1.0)-1
FMAT,2
INCH
T1C0.0157
T2C0.0315
T3C0.0394
T4C0.0866
%
G90
G05
T1
X2.04Y-4.6821
X2.286Y-3.912
X2.764Y-3.758
X2.932Y-4.8
X3.1114Y-4.43
X3.116Y-4.75
X3.155Y-4.647
X3.252Y-3.616
X3.274Y-4.3127
X3.343Y-4.517
X3.351Y-4.647
X3.36Y-4.8
X3.476Y-4.63
X3.5455Y-4.2685
X3.652Y-3.617
X4.0518Y-3.6162
X4.27Y-5.04
T2
X3.899Y-5.25
X3.999Y-5.25
X4.099Y-5.25
X3.55Y-4.8
X3.65Y-4.8
X2.199Y-5.253
X2.299Y-5.253
X2.399Y-5.253
X2.649Y-4.171
X2.749Y-4.171
X2.654Y-4.826
X2.754Y-4.826
X2.199Y-4.457
X2.299Y-4.457
X2.399Y-4.457
T3
X2.295Y-3.794
X2.395Y-3.794
X2.495Y-3.794
X4.05Y-4.25
X4.15Y-4.25
X2.671Y-4.496
X2.8679Y-4.496
X2.7Y-5.15
X2.8969Y-5.15
X3.4031Y-5.15
X3.6Y-5.15
X4.05Y-4.4
X4.15Y-4.4
X3.65Y-4.55
X3.75Y-4.55
X3.85Y-4.55
X3.95Y-4.55
X4.05Y-4.55
X4.15Y-4.55
T4
X2.0866Y-3.6614
X4.2126Y-3.6614
X3.7008Y-5.3937
X2.5984Y-5.3937
T0
M30
