G04 #@! TF.GenerationSoftware,KiCad,Pcbnew,(5.1.0)-1*
G04 #@! TF.CreationDate,2019-07-03T00:11:45+02:00*
G04 #@! TF.ProjectId,Sequencer_board,53657175-656e-4636-9572-5f626f617264,V0-1*
G04 #@! TF.SameCoordinates,Original*
G04 #@! TF.FileFunction,Copper,L1,Top*
G04 #@! TF.FilePolarity,Positive*
%FSLAX46Y46*%
G04 Gerber Fmt 4.6, Leading zero omitted, Abs format (unit mm)*
G04 Created by KiCad (PCBNEW (5.1.0)-1) date 2019-07-03 00:11:45*
%MOMM*%
%LPD*%
G04 APERTURE LIST*
%ADD10C,0.100000*%
%ADD11C,0.875000*%
%ADD12R,5.800000X6.400000*%
%ADD13R,1.200000X2.200000*%
%ADD14O,1.700000X1.700000*%
%ADD15R,1.700000X1.700000*%
%ADD16C,2.000000*%
%ADD17R,2.000000X2.000000*%
%ADD18R,2.200000X1.200000*%
%ADD19R,6.400000X5.800000*%
%ADD20O,1.600000X1.600000*%
%ADD21C,1.600000*%
%ADD22C,1.440000*%
%ADD23R,1.500000X0.600000*%
%ADD24R,1.600000X0.300000*%
%ADD25C,0.800000*%
%ADD26C,0.250000*%
%ADD27C,0.600000*%
%ADD28C,1.500000*%
%ADD29C,1.250000*%
%ADD30C,0.254000*%
G04 APERTURE END LIST*
D10*
G36*
X61962091Y-98890853D02*
G01*
X61983326Y-98894003D01*
X62004150Y-98899219D01*
X62024362Y-98906451D01*
X62043768Y-98915630D01*
X62062181Y-98926666D01*
X62079424Y-98939454D01*
X62095330Y-98953870D01*
X62109746Y-98969776D01*
X62122534Y-98987019D01*
X62133570Y-99005432D01*
X62142749Y-99024838D01*
X62149981Y-99045050D01*
X62155197Y-99065874D01*
X62158347Y-99087109D01*
X62159400Y-99108550D01*
X62159400Y-99621050D01*
X62158347Y-99642491D01*
X62155197Y-99663726D01*
X62149981Y-99684550D01*
X62142749Y-99704762D01*
X62133570Y-99724168D01*
X62122534Y-99742581D01*
X62109746Y-99759824D01*
X62095330Y-99775730D01*
X62079424Y-99790146D01*
X62062181Y-99802934D01*
X62043768Y-99813970D01*
X62024362Y-99823149D01*
X62004150Y-99830381D01*
X61983326Y-99835597D01*
X61962091Y-99838747D01*
X61940650Y-99839800D01*
X61503150Y-99839800D01*
X61481709Y-99838747D01*
X61460474Y-99835597D01*
X61439650Y-99830381D01*
X61419438Y-99823149D01*
X61400032Y-99813970D01*
X61381619Y-99802934D01*
X61364376Y-99790146D01*
X61348470Y-99775730D01*
X61334054Y-99759824D01*
X61321266Y-99742581D01*
X61310230Y-99724168D01*
X61301051Y-99704762D01*
X61293819Y-99684550D01*
X61288603Y-99663726D01*
X61285453Y-99642491D01*
X61284400Y-99621050D01*
X61284400Y-99108550D01*
X61285453Y-99087109D01*
X61288603Y-99065874D01*
X61293819Y-99045050D01*
X61301051Y-99024838D01*
X61310230Y-99005432D01*
X61321266Y-98987019D01*
X61334054Y-98969776D01*
X61348470Y-98953870D01*
X61364376Y-98939454D01*
X61381619Y-98926666D01*
X61400032Y-98915630D01*
X61419438Y-98906451D01*
X61439650Y-98899219D01*
X61460474Y-98894003D01*
X61481709Y-98890853D01*
X61503150Y-98889800D01*
X61940650Y-98889800D01*
X61962091Y-98890853D01*
X61962091Y-98890853D01*
G37*
D11*
X61721900Y-99364800D03*
D10*
G36*
X63537091Y-98890853D02*
G01*
X63558326Y-98894003D01*
X63579150Y-98899219D01*
X63599362Y-98906451D01*
X63618768Y-98915630D01*
X63637181Y-98926666D01*
X63654424Y-98939454D01*
X63670330Y-98953870D01*
X63684746Y-98969776D01*
X63697534Y-98987019D01*
X63708570Y-99005432D01*
X63717749Y-99024838D01*
X63724981Y-99045050D01*
X63730197Y-99065874D01*
X63733347Y-99087109D01*
X63734400Y-99108550D01*
X63734400Y-99621050D01*
X63733347Y-99642491D01*
X63730197Y-99663726D01*
X63724981Y-99684550D01*
X63717749Y-99704762D01*
X63708570Y-99724168D01*
X63697534Y-99742581D01*
X63684746Y-99759824D01*
X63670330Y-99775730D01*
X63654424Y-99790146D01*
X63637181Y-99802934D01*
X63618768Y-99813970D01*
X63599362Y-99823149D01*
X63579150Y-99830381D01*
X63558326Y-99835597D01*
X63537091Y-99838747D01*
X63515650Y-99839800D01*
X63078150Y-99839800D01*
X63056709Y-99838747D01*
X63035474Y-99835597D01*
X63014650Y-99830381D01*
X62994438Y-99823149D01*
X62975032Y-99813970D01*
X62956619Y-99802934D01*
X62939376Y-99790146D01*
X62923470Y-99775730D01*
X62909054Y-99759824D01*
X62896266Y-99742581D01*
X62885230Y-99724168D01*
X62876051Y-99704762D01*
X62868819Y-99684550D01*
X62863603Y-99663726D01*
X62860453Y-99642491D01*
X62859400Y-99621050D01*
X62859400Y-99108550D01*
X62860453Y-99087109D01*
X62863603Y-99065874D01*
X62868819Y-99045050D01*
X62876051Y-99024838D01*
X62885230Y-99005432D01*
X62896266Y-98987019D01*
X62909054Y-98969776D01*
X62923470Y-98953870D01*
X62939376Y-98939454D01*
X62956619Y-98926666D01*
X62975032Y-98915630D01*
X62994438Y-98906451D01*
X63014650Y-98899219D01*
X63035474Y-98894003D01*
X63056709Y-98890853D01*
X63078150Y-98889800D01*
X63515650Y-98889800D01*
X63537091Y-98890853D01*
X63537091Y-98890853D01*
G37*
D11*
X63296900Y-99364800D03*
D12*
X70180200Y-100253800D03*
D13*
X67900200Y-93953800D03*
X72460200Y-93953800D03*
D10*
G36*
X62038291Y-92845653D02*
G01*
X62059526Y-92848803D01*
X62080350Y-92854019D01*
X62100562Y-92861251D01*
X62119968Y-92870430D01*
X62138381Y-92881466D01*
X62155624Y-92894254D01*
X62171530Y-92908670D01*
X62185946Y-92924576D01*
X62198734Y-92941819D01*
X62209770Y-92960232D01*
X62218949Y-92979638D01*
X62226181Y-92999850D01*
X62231397Y-93020674D01*
X62234547Y-93041909D01*
X62235600Y-93063350D01*
X62235600Y-93575850D01*
X62234547Y-93597291D01*
X62231397Y-93618526D01*
X62226181Y-93639350D01*
X62218949Y-93659562D01*
X62209770Y-93678968D01*
X62198734Y-93697381D01*
X62185946Y-93714624D01*
X62171530Y-93730530D01*
X62155624Y-93744946D01*
X62138381Y-93757734D01*
X62119968Y-93768770D01*
X62100562Y-93777949D01*
X62080350Y-93785181D01*
X62059526Y-93790397D01*
X62038291Y-93793547D01*
X62016850Y-93794600D01*
X61579350Y-93794600D01*
X61557909Y-93793547D01*
X61536674Y-93790397D01*
X61515850Y-93785181D01*
X61495638Y-93777949D01*
X61476232Y-93768770D01*
X61457819Y-93757734D01*
X61440576Y-93744946D01*
X61424670Y-93730530D01*
X61410254Y-93714624D01*
X61397466Y-93697381D01*
X61386430Y-93678968D01*
X61377251Y-93659562D01*
X61370019Y-93639350D01*
X61364803Y-93618526D01*
X61361653Y-93597291D01*
X61360600Y-93575850D01*
X61360600Y-93063350D01*
X61361653Y-93041909D01*
X61364803Y-93020674D01*
X61370019Y-92999850D01*
X61377251Y-92979638D01*
X61386430Y-92960232D01*
X61397466Y-92941819D01*
X61410254Y-92924576D01*
X61424670Y-92908670D01*
X61440576Y-92894254D01*
X61457819Y-92881466D01*
X61476232Y-92870430D01*
X61495638Y-92861251D01*
X61515850Y-92854019D01*
X61536674Y-92848803D01*
X61557909Y-92845653D01*
X61579350Y-92844600D01*
X62016850Y-92844600D01*
X62038291Y-92845653D01*
X62038291Y-92845653D01*
G37*
D11*
X61798100Y-93319600D03*
D10*
G36*
X63613291Y-92845653D02*
G01*
X63634526Y-92848803D01*
X63655350Y-92854019D01*
X63675562Y-92861251D01*
X63694968Y-92870430D01*
X63713381Y-92881466D01*
X63730624Y-92894254D01*
X63746530Y-92908670D01*
X63760946Y-92924576D01*
X63773734Y-92941819D01*
X63784770Y-92960232D01*
X63793949Y-92979638D01*
X63801181Y-92999850D01*
X63806397Y-93020674D01*
X63809547Y-93041909D01*
X63810600Y-93063350D01*
X63810600Y-93575850D01*
X63809547Y-93597291D01*
X63806397Y-93618526D01*
X63801181Y-93639350D01*
X63793949Y-93659562D01*
X63784770Y-93678968D01*
X63773734Y-93697381D01*
X63760946Y-93714624D01*
X63746530Y-93730530D01*
X63730624Y-93744946D01*
X63713381Y-93757734D01*
X63694968Y-93768770D01*
X63675562Y-93777949D01*
X63655350Y-93785181D01*
X63634526Y-93790397D01*
X63613291Y-93793547D01*
X63591850Y-93794600D01*
X63154350Y-93794600D01*
X63132909Y-93793547D01*
X63111674Y-93790397D01*
X63090850Y-93785181D01*
X63070638Y-93777949D01*
X63051232Y-93768770D01*
X63032819Y-93757734D01*
X63015576Y-93744946D01*
X62999670Y-93730530D01*
X62985254Y-93714624D01*
X62972466Y-93697381D01*
X62961430Y-93678968D01*
X62952251Y-93659562D01*
X62945019Y-93639350D01*
X62939803Y-93618526D01*
X62936653Y-93597291D01*
X62935600Y-93575850D01*
X62935600Y-93063350D01*
X62936653Y-93041909D01*
X62939803Y-93020674D01*
X62945019Y-92999850D01*
X62952251Y-92979638D01*
X62961430Y-92960232D01*
X62972466Y-92941819D01*
X62985254Y-92924576D01*
X62999670Y-92908670D01*
X63015576Y-92894254D01*
X63032819Y-92881466D01*
X63051232Y-92870430D01*
X63070638Y-92861251D01*
X63090850Y-92854019D01*
X63111674Y-92848803D01*
X63132909Y-92845653D01*
X63154350Y-92844600D01*
X63591850Y-92844600D01*
X63613291Y-92845653D01*
X63613291Y-92845653D01*
G37*
D11*
X63373100Y-93319600D03*
D14*
X63373000Y-96367600D03*
X60833000Y-96367600D03*
D15*
X58293000Y-96367600D03*
D10*
G36*
X101560691Y-117890053D02*
G01*
X101581926Y-117893203D01*
X101602750Y-117898419D01*
X101622962Y-117905651D01*
X101642368Y-117914830D01*
X101660781Y-117925866D01*
X101678024Y-117938654D01*
X101693930Y-117953070D01*
X101708346Y-117968976D01*
X101721134Y-117986219D01*
X101732170Y-118004632D01*
X101741349Y-118024038D01*
X101748581Y-118044250D01*
X101753797Y-118065074D01*
X101756947Y-118086309D01*
X101758000Y-118107750D01*
X101758000Y-118620250D01*
X101756947Y-118641691D01*
X101753797Y-118662926D01*
X101748581Y-118683750D01*
X101741349Y-118703962D01*
X101732170Y-118723368D01*
X101721134Y-118741781D01*
X101708346Y-118759024D01*
X101693930Y-118774930D01*
X101678024Y-118789346D01*
X101660781Y-118802134D01*
X101642368Y-118813170D01*
X101622962Y-118822349D01*
X101602750Y-118829581D01*
X101581926Y-118834797D01*
X101560691Y-118837947D01*
X101539250Y-118839000D01*
X101101750Y-118839000D01*
X101080309Y-118837947D01*
X101059074Y-118834797D01*
X101038250Y-118829581D01*
X101018038Y-118822349D01*
X100998632Y-118813170D01*
X100980219Y-118802134D01*
X100962976Y-118789346D01*
X100947070Y-118774930D01*
X100932654Y-118759024D01*
X100919866Y-118741781D01*
X100908830Y-118723368D01*
X100899651Y-118703962D01*
X100892419Y-118683750D01*
X100887203Y-118662926D01*
X100884053Y-118641691D01*
X100883000Y-118620250D01*
X100883000Y-118107750D01*
X100884053Y-118086309D01*
X100887203Y-118065074D01*
X100892419Y-118044250D01*
X100899651Y-118024038D01*
X100908830Y-118004632D01*
X100919866Y-117986219D01*
X100932654Y-117968976D01*
X100947070Y-117953070D01*
X100962976Y-117938654D01*
X100980219Y-117925866D01*
X100998632Y-117914830D01*
X101018038Y-117905651D01*
X101038250Y-117898419D01*
X101059074Y-117893203D01*
X101080309Y-117890053D01*
X101101750Y-117889000D01*
X101539250Y-117889000D01*
X101560691Y-117890053D01*
X101560691Y-117890053D01*
G37*
D11*
X101320500Y-118364000D03*
D10*
G36*
X103135691Y-117890053D02*
G01*
X103156926Y-117893203D01*
X103177750Y-117898419D01*
X103197962Y-117905651D01*
X103217368Y-117914830D01*
X103235781Y-117925866D01*
X103253024Y-117938654D01*
X103268930Y-117953070D01*
X103283346Y-117968976D01*
X103296134Y-117986219D01*
X103307170Y-118004632D01*
X103316349Y-118024038D01*
X103323581Y-118044250D01*
X103328797Y-118065074D01*
X103331947Y-118086309D01*
X103333000Y-118107750D01*
X103333000Y-118620250D01*
X103331947Y-118641691D01*
X103328797Y-118662926D01*
X103323581Y-118683750D01*
X103316349Y-118703962D01*
X103307170Y-118723368D01*
X103296134Y-118741781D01*
X103283346Y-118759024D01*
X103268930Y-118774930D01*
X103253024Y-118789346D01*
X103235781Y-118802134D01*
X103217368Y-118813170D01*
X103197962Y-118822349D01*
X103177750Y-118829581D01*
X103156926Y-118834797D01*
X103135691Y-118837947D01*
X103114250Y-118839000D01*
X102676750Y-118839000D01*
X102655309Y-118837947D01*
X102634074Y-118834797D01*
X102613250Y-118829581D01*
X102593038Y-118822349D01*
X102573632Y-118813170D01*
X102555219Y-118802134D01*
X102537976Y-118789346D01*
X102522070Y-118774930D01*
X102507654Y-118759024D01*
X102494866Y-118741781D01*
X102483830Y-118723368D01*
X102474651Y-118703962D01*
X102467419Y-118683750D01*
X102462203Y-118662926D01*
X102459053Y-118641691D01*
X102458000Y-118620250D01*
X102458000Y-118107750D01*
X102459053Y-118086309D01*
X102462203Y-118065074D01*
X102467419Y-118044250D01*
X102474651Y-118024038D01*
X102483830Y-118004632D01*
X102494866Y-117986219D01*
X102507654Y-117968976D01*
X102522070Y-117953070D01*
X102537976Y-117938654D01*
X102555219Y-117925866D01*
X102573632Y-117914830D01*
X102593038Y-117905651D01*
X102613250Y-117898419D01*
X102634074Y-117893203D01*
X102655309Y-117890053D01*
X102676750Y-117889000D01*
X103114250Y-117889000D01*
X103135691Y-117890053D01*
X103135691Y-117890053D01*
G37*
D11*
X102895500Y-118364000D03*
D16*
X72843400Y-114198400D03*
D17*
X67843400Y-114198400D03*
X91440000Y-130810000D03*
D16*
X86440000Y-130810000D03*
D17*
X68580000Y-130810000D03*
D16*
X73580000Y-130810000D03*
D15*
X105410000Y-107950000D03*
D14*
X102870000Y-107950000D03*
D15*
X105410000Y-115570000D03*
D14*
X102870000Y-115570000D03*
X100330000Y-115570000D03*
X97790000Y-115570000D03*
X95250000Y-115570000D03*
X92710000Y-115570000D03*
X102870000Y-111760000D03*
D15*
X105410000Y-111760000D03*
D12*
X80315800Y-100280000D03*
D13*
X78035800Y-93980000D03*
X82595800Y-93980000D03*
D18*
X54220000Y-101860000D03*
X54220000Y-106420000D03*
D19*
X60520000Y-104140000D03*
D12*
X100634800Y-100279200D03*
D13*
X98354800Y-93979200D03*
X102914800Y-93979200D03*
D18*
X105800000Y-128010000D03*
X105800000Y-123450000D03*
D19*
X99500000Y-125730000D03*
D13*
X92754800Y-93979200D03*
X88194800Y-93979200D03*
D12*
X90474800Y-100279200D03*
D19*
X60520000Y-124460000D03*
D18*
X54220000Y-126740000D03*
X54220000Y-122180000D03*
D10*
G36*
X79995991Y-104478853D02*
G01*
X80017226Y-104482003D01*
X80038050Y-104487219D01*
X80058262Y-104494451D01*
X80077668Y-104503630D01*
X80096081Y-104514666D01*
X80113324Y-104527454D01*
X80129230Y-104541870D01*
X80143646Y-104557776D01*
X80156434Y-104575019D01*
X80167470Y-104593432D01*
X80176649Y-104612838D01*
X80183881Y-104633050D01*
X80189097Y-104653874D01*
X80192247Y-104675109D01*
X80193300Y-104696550D01*
X80193300Y-105209050D01*
X80192247Y-105230491D01*
X80189097Y-105251726D01*
X80183881Y-105272550D01*
X80176649Y-105292762D01*
X80167470Y-105312168D01*
X80156434Y-105330581D01*
X80143646Y-105347824D01*
X80129230Y-105363730D01*
X80113324Y-105378146D01*
X80096081Y-105390934D01*
X80077668Y-105401970D01*
X80058262Y-105411149D01*
X80038050Y-105418381D01*
X80017226Y-105423597D01*
X79995991Y-105426747D01*
X79974550Y-105427800D01*
X79537050Y-105427800D01*
X79515609Y-105426747D01*
X79494374Y-105423597D01*
X79473550Y-105418381D01*
X79453338Y-105411149D01*
X79433932Y-105401970D01*
X79415519Y-105390934D01*
X79398276Y-105378146D01*
X79382370Y-105363730D01*
X79367954Y-105347824D01*
X79355166Y-105330581D01*
X79344130Y-105312168D01*
X79334951Y-105292762D01*
X79327719Y-105272550D01*
X79322503Y-105251726D01*
X79319353Y-105230491D01*
X79318300Y-105209050D01*
X79318300Y-104696550D01*
X79319353Y-104675109D01*
X79322503Y-104653874D01*
X79327719Y-104633050D01*
X79334951Y-104612838D01*
X79344130Y-104593432D01*
X79355166Y-104575019D01*
X79367954Y-104557776D01*
X79382370Y-104541870D01*
X79398276Y-104527454D01*
X79415519Y-104514666D01*
X79433932Y-104503630D01*
X79453338Y-104494451D01*
X79473550Y-104487219D01*
X79494374Y-104482003D01*
X79515609Y-104478853D01*
X79537050Y-104477800D01*
X79974550Y-104477800D01*
X79995991Y-104478853D01*
X79995991Y-104478853D01*
G37*
D11*
X79755800Y-104952800D03*
D10*
G36*
X81570991Y-104478853D02*
G01*
X81592226Y-104482003D01*
X81613050Y-104487219D01*
X81633262Y-104494451D01*
X81652668Y-104503630D01*
X81671081Y-104514666D01*
X81688324Y-104527454D01*
X81704230Y-104541870D01*
X81718646Y-104557776D01*
X81731434Y-104575019D01*
X81742470Y-104593432D01*
X81751649Y-104612838D01*
X81758881Y-104633050D01*
X81764097Y-104653874D01*
X81767247Y-104675109D01*
X81768300Y-104696550D01*
X81768300Y-105209050D01*
X81767247Y-105230491D01*
X81764097Y-105251726D01*
X81758881Y-105272550D01*
X81751649Y-105292762D01*
X81742470Y-105312168D01*
X81731434Y-105330581D01*
X81718646Y-105347824D01*
X81704230Y-105363730D01*
X81688324Y-105378146D01*
X81671081Y-105390934D01*
X81652668Y-105401970D01*
X81633262Y-105411149D01*
X81613050Y-105418381D01*
X81592226Y-105423597D01*
X81570991Y-105426747D01*
X81549550Y-105427800D01*
X81112050Y-105427800D01*
X81090609Y-105426747D01*
X81069374Y-105423597D01*
X81048550Y-105418381D01*
X81028338Y-105411149D01*
X81008932Y-105401970D01*
X80990519Y-105390934D01*
X80973276Y-105378146D01*
X80957370Y-105363730D01*
X80942954Y-105347824D01*
X80930166Y-105330581D01*
X80919130Y-105312168D01*
X80909951Y-105292762D01*
X80902719Y-105272550D01*
X80897503Y-105251726D01*
X80894353Y-105230491D01*
X80893300Y-105209050D01*
X80893300Y-104696550D01*
X80894353Y-104675109D01*
X80897503Y-104653874D01*
X80902719Y-104633050D01*
X80909951Y-104612838D01*
X80919130Y-104593432D01*
X80930166Y-104575019D01*
X80942954Y-104557776D01*
X80957370Y-104541870D01*
X80973276Y-104527454D01*
X80990519Y-104514666D01*
X81008932Y-104503630D01*
X81028338Y-104494451D01*
X81048550Y-104487219D01*
X81069374Y-104482003D01*
X81090609Y-104478853D01*
X81112050Y-104477800D01*
X81549550Y-104477800D01*
X81570991Y-104478853D01*
X81570991Y-104478853D01*
G37*
D11*
X81330800Y-104952800D03*
D20*
X69824600Y-105943400D03*
D21*
X67284600Y-105943400D03*
D10*
G36*
X79132591Y-114334053D02*
G01*
X79153826Y-114337203D01*
X79174650Y-114342419D01*
X79194862Y-114349651D01*
X79214268Y-114358830D01*
X79232681Y-114369866D01*
X79249924Y-114382654D01*
X79265830Y-114397070D01*
X79280246Y-114412976D01*
X79293034Y-114430219D01*
X79304070Y-114448632D01*
X79313249Y-114468038D01*
X79320481Y-114488250D01*
X79325697Y-114509074D01*
X79328847Y-114530309D01*
X79329900Y-114551750D01*
X79329900Y-115064250D01*
X79328847Y-115085691D01*
X79325697Y-115106926D01*
X79320481Y-115127750D01*
X79313249Y-115147962D01*
X79304070Y-115167368D01*
X79293034Y-115185781D01*
X79280246Y-115203024D01*
X79265830Y-115218930D01*
X79249924Y-115233346D01*
X79232681Y-115246134D01*
X79214268Y-115257170D01*
X79194862Y-115266349D01*
X79174650Y-115273581D01*
X79153826Y-115278797D01*
X79132591Y-115281947D01*
X79111150Y-115283000D01*
X78673650Y-115283000D01*
X78652209Y-115281947D01*
X78630974Y-115278797D01*
X78610150Y-115273581D01*
X78589938Y-115266349D01*
X78570532Y-115257170D01*
X78552119Y-115246134D01*
X78534876Y-115233346D01*
X78518970Y-115218930D01*
X78504554Y-115203024D01*
X78491766Y-115185781D01*
X78480730Y-115167368D01*
X78471551Y-115147962D01*
X78464319Y-115127750D01*
X78459103Y-115106926D01*
X78455953Y-115085691D01*
X78454900Y-115064250D01*
X78454900Y-114551750D01*
X78455953Y-114530309D01*
X78459103Y-114509074D01*
X78464319Y-114488250D01*
X78471551Y-114468038D01*
X78480730Y-114448632D01*
X78491766Y-114430219D01*
X78504554Y-114412976D01*
X78518970Y-114397070D01*
X78534876Y-114382654D01*
X78552119Y-114369866D01*
X78570532Y-114358830D01*
X78589938Y-114349651D01*
X78610150Y-114342419D01*
X78630974Y-114337203D01*
X78652209Y-114334053D01*
X78673650Y-114333000D01*
X79111150Y-114333000D01*
X79132591Y-114334053D01*
X79132591Y-114334053D01*
G37*
D11*
X78892400Y-114808000D03*
D10*
G36*
X77557591Y-114334053D02*
G01*
X77578826Y-114337203D01*
X77599650Y-114342419D01*
X77619862Y-114349651D01*
X77639268Y-114358830D01*
X77657681Y-114369866D01*
X77674924Y-114382654D01*
X77690830Y-114397070D01*
X77705246Y-114412976D01*
X77718034Y-114430219D01*
X77729070Y-114448632D01*
X77738249Y-114468038D01*
X77745481Y-114488250D01*
X77750697Y-114509074D01*
X77753847Y-114530309D01*
X77754900Y-114551750D01*
X77754900Y-115064250D01*
X77753847Y-115085691D01*
X77750697Y-115106926D01*
X77745481Y-115127750D01*
X77738249Y-115147962D01*
X77729070Y-115167368D01*
X77718034Y-115185781D01*
X77705246Y-115203024D01*
X77690830Y-115218930D01*
X77674924Y-115233346D01*
X77657681Y-115246134D01*
X77639268Y-115257170D01*
X77619862Y-115266349D01*
X77599650Y-115273581D01*
X77578826Y-115278797D01*
X77557591Y-115281947D01*
X77536150Y-115283000D01*
X77098650Y-115283000D01*
X77077209Y-115281947D01*
X77055974Y-115278797D01*
X77035150Y-115273581D01*
X77014938Y-115266349D01*
X76995532Y-115257170D01*
X76977119Y-115246134D01*
X76959876Y-115233346D01*
X76943970Y-115218930D01*
X76929554Y-115203024D01*
X76916766Y-115185781D01*
X76905730Y-115167368D01*
X76896551Y-115147962D01*
X76889319Y-115127750D01*
X76884103Y-115106926D01*
X76880953Y-115085691D01*
X76879900Y-115064250D01*
X76879900Y-114551750D01*
X76880953Y-114530309D01*
X76884103Y-114509074D01*
X76889319Y-114488250D01*
X76896551Y-114468038D01*
X76905730Y-114448632D01*
X76916766Y-114430219D01*
X76929554Y-114412976D01*
X76943970Y-114397070D01*
X76959876Y-114382654D01*
X76977119Y-114369866D01*
X76995532Y-114358830D01*
X77014938Y-114349651D01*
X77035150Y-114342419D01*
X77055974Y-114337203D01*
X77077209Y-114334053D01*
X77098650Y-114333000D01*
X77536150Y-114333000D01*
X77557591Y-114334053D01*
X77557591Y-114334053D01*
G37*
D11*
X77317400Y-114808000D03*
D21*
X92710000Y-121920000D03*
D20*
X90170000Y-121920000D03*
D10*
G36*
X85558891Y-111489253D02*
G01*
X85580126Y-111492403D01*
X85600950Y-111497619D01*
X85621162Y-111504851D01*
X85640568Y-111514030D01*
X85658981Y-111525066D01*
X85676224Y-111537854D01*
X85692130Y-111552270D01*
X85706546Y-111568176D01*
X85719334Y-111585419D01*
X85730370Y-111603832D01*
X85739549Y-111623238D01*
X85746781Y-111643450D01*
X85751997Y-111664274D01*
X85755147Y-111685509D01*
X85756200Y-111706950D01*
X85756200Y-112219450D01*
X85755147Y-112240891D01*
X85751997Y-112262126D01*
X85746781Y-112282950D01*
X85739549Y-112303162D01*
X85730370Y-112322568D01*
X85719334Y-112340981D01*
X85706546Y-112358224D01*
X85692130Y-112374130D01*
X85676224Y-112388546D01*
X85658981Y-112401334D01*
X85640568Y-112412370D01*
X85621162Y-112421549D01*
X85600950Y-112428781D01*
X85580126Y-112433997D01*
X85558891Y-112437147D01*
X85537450Y-112438200D01*
X85099950Y-112438200D01*
X85078509Y-112437147D01*
X85057274Y-112433997D01*
X85036450Y-112428781D01*
X85016238Y-112421549D01*
X84996832Y-112412370D01*
X84978419Y-112401334D01*
X84961176Y-112388546D01*
X84945270Y-112374130D01*
X84930854Y-112358224D01*
X84918066Y-112340981D01*
X84907030Y-112322568D01*
X84897851Y-112303162D01*
X84890619Y-112282950D01*
X84885403Y-112262126D01*
X84882253Y-112240891D01*
X84881200Y-112219450D01*
X84881200Y-111706950D01*
X84882253Y-111685509D01*
X84885403Y-111664274D01*
X84890619Y-111643450D01*
X84897851Y-111623238D01*
X84907030Y-111603832D01*
X84918066Y-111585419D01*
X84930854Y-111568176D01*
X84945270Y-111552270D01*
X84961176Y-111537854D01*
X84978419Y-111525066D01*
X84996832Y-111514030D01*
X85016238Y-111504851D01*
X85036450Y-111497619D01*
X85057274Y-111492403D01*
X85078509Y-111489253D01*
X85099950Y-111488200D01*
X85537450Y-111488200D01*
X85558891Y-111489253D01*
X85558891Y-111489253D01*
G37*
D11*
X85318700Y-111963200D03*
D10*
G36*
X83983891Y-111489253D02*
G01*
X84005126Y-111492403D01*
X84025950Y-111497619D01*
X84046162Y-111504851D01*
X84065568Y-111514030D01*
X84083981Y-111525066D01*
X84101224Y-111537854D01*
X84117130Y-111552270D01*
X84131546Y-111568176D01*
X84144334Y-111585419D01*
X84155370Y-111603832D01*
X84164549Y-111623238D01*
X84171781Y-111643450D01*
X84176997Y-111664274D01*
X84180147Y-111685509D01*
X84181200Y-111706950D01*
X84181200Y-112219450D01*
X84180147Y-112240891D01*
X84176997Y-112262126D01*
X84171781Y-112282950D01*
X84164549Y-112303162D01*
X84155370Y-112322568D01*
X84144334Y-112340981D01*
X84131546Y-112358224D01*
X84117130Y-112374130D01*
X84101224Y-112388546D01*
X84083981Y-112401334D01*
X84065568Y-112412370D01*
X84046162Y-112421549D01*
X84025950Y-112428781D01*
X84005126Y-112433997D01*
X83983891Y-112437147D01*
X83962450Y-112438200D01*
X83524950Y-112438200D01*
X83503509Y-112437147D01*
X83482274Y-112433997D01*
X83461450Y-112428781D01*
X83441238Y-112421549D01*
X83421832Y-112412370D01*
X83403419Y-112401334D01*
X83386176Y-112388546D01*
X83370270Y-112374130D01*
X83355854Y-112358224D01*
X83343066Y-112340981D01*
X83332030Y-112322568D01*
X83322851Y-112303162D01*
X83315619Y-112282950D01*
X83310403Y-112262126D01*
X83307253Y-112240891D01*
X83306200Y-112219450D01*
X83306200Y-111706950D01*
X83307253Y-111685509D01*
X83310403Y-111664274D01*
X83315619Y-111643450D01*
X83322851Y-111623238D01*
X83332030Y-111603832D01*
X83343066Y-111585419D01*
X83355854Y-111568176D01*
X83370270Y-111552270D01*
X83386176Y-111537854D01*
X83403419Y-111525066D01*
X83421832Y-111514030D01*
X83441238Y-111504851D01*
X83461450Y-111497619D01*
X83482274Y-111492403D01*
X83503509Y-111489253D01*
X83524950Y-111488200D01*
X83962450Y-111488200D01*
X83983891Y-111489253D01*
X83983891Y-111489253D01*
G37*
D11*
X83743700Y-111963200D03*
D21*
X67411600Y-122580400D03*
D20*
X69951600Y-122580400D03*
D10*
G36*
X88936991Y-111489253D02*
G01*
X88958226Y-111492403D01*
X88979050Y-111497619D01*
X88999262Y-111504851D01*
X89018668Y-111514030D01*
X89037081Y-111525066D01*
X89054324Y-111537854D01*
X89070230Y-111552270D01*
X89084646Y-111568176D01*
X89097434Y-111585419D01*
X89108470Y-111603832D01*
X89117649Y-111623238D01*
X89124881Y-111643450D01*
X89130097Y-111664274D01*
X89133247Y-111685509D01*
X89134300Y-111706950D01*
X89134300Y-112219450D01*
X89133247Y-112240891D01*
X89130097Y-112262126D01*
X89124881Y-112282950D01*
X89117649Y-112303162D01*
X89108470Y-112322568D01*
X89097434Y-112340981D01*
X89084646Y-112358224D01*
X89070230Y-112374130D01*
X89054324Y-112388546D01*
X89037081Y-112401334D01*
X89018668Y-112412370D01*
X88999262Y-112421549D01*
X88979050Y-112428781D01*
X88958226Y-112433997D01*
X88936991Y-112437147D01*
X88915550Y-112438200D01*
X88478050Y-112438200D01*
X88456609Y-112437147D01*
X88435374Y-112433997D01*
X88414550Y-112428781D01*
X88394338Y-112421549D01*
X88374932Y-112412370D01*
X88356519Y-112401334D01*
X88339276Y-112388546D01*
X88323370Y-112374130D01*
X88308954Y-112358224D01*
X88296166Y-112340981D01*
X88285130Y-112322568D01*
X88275951Y-112303162D01*
X88268719Y-112282950D01*
X88263503Y-112262126D01*
X88260353Y-112240891D01*
X88259300Y-112219450D01*
X88259300Y-111706950D01*
X88260353Y-111685509D01*
X88263503Y-111664274D01*
X88268719Y-111643450D01*
X88275951Y-111623238D01*
X88285130Y-111603832D01*
X88296166Y-111585419D01*
X88308954Y-111568176D01*
X88323370Y-111552270D01*
X88339276Y-111537854D01*
X88356519Y-111525066D01*
X88374932Y-111514030D01*
X88394338Y-111504851D01*
X88414550Y-111497619D01*
X88435374Y-111492403D01*
X88456609Y-111489253D01*
X88478050Y-111488200D01*
X88915550Y-111488200D01*
X88936991Y-111489253D01*
X88936991Y-111489253D01*
G37*
D11*
X88696800Y-111963200D03*
D10*
G36*
X87361991Y-111489253D02*
G01*
X87383226Y-111492403D01*
X87404050Y-111497619D01*
X87424262Y-111504851D01*
X87443668Y-111514030D01*
X87462081Y-111525066D01*
X87479324Y-111537854D01*
X87495230Y-111552270D01*
X87509646Y-111568176D01*
X87522434Y-111585419D01*
X87533470Y-111603832D01*
X87542649Y-111623238D01*
X87549881Y-111643450D01*
X87555097Y-111664274D01*
X87558247Y-111685509D01*
X87559300Y-111706950D01*
X87559300Y-112219450D01*
X87558247Y-112240891D01*
X87555097Y-112262126D01*
X87549881Y-112282950D01*
X87542649Y-112303162D01*
X87533470Y-112322568D01*
X87522434Y-112340981D01*
X87509646Y-112358224D01*
X87495230Y-112374130D01*
X87479324Y-112388546D01*
X87462081Y-112401334D01*
X87443668Y-112412370D01*
X87424262Y-112421549D01*
X87404050Y-112428781D01*
X87383226Y-112433997D01*
X87361991Y-112437147D01*
X87340550Y-112438200D01*
X86903050Y-112438200D01*
X86881609Y-112437147D01*
X86860374Y-112433997D01*
X86839550Y-112428781D01*
X86819338Y-112421549D01*
X86799932Y-112412370D01*
X86781519Y-112401334D01*
X86764276Y-112388546D01*
X86748370Y-112374130D01*
X86733954Y-112358224D01*
X86721166Y-112340981D01*
X86710130Y-112322568D01*
X86700951Y-112303162D01*
X86693719Y-112282950D01*
X86688503Y-112262126D01*
X86685353Y-112240891D01*
X86684300Y-112219450D01*
X86684300Y-111706950D01*
X86685353Y-111685509D01*
X86688503Y-111664274D01*
X86693719Y-111643450D01*
X86700951Y-111623238D01*
X86710130Y-111603832D01*
X86721166Y-111585419D01*
X86733954Y-111568176D01*
X86748370Y-111552270D01*
X86764276Y-111537854D01*
X86781519Y-111525066D01*
X86799932Y-111514030D01*
X86819338Y-111504851D01*
X86839550Y-111497619D01*
X86860374Y-111492403D01*
X86881609Y-111489253D01*
X86903050Y-111488200D01*
X87340550Y-111488200D01*
X87361991Y-111489253D01*
X87361991Y-111489253D01*
G37*
D11*
X87121800Y-111963200D03*
D22*
X60934600Y-113207800D03*
X58394600Y-113207800D03*
X55854600Y-113207800D03*
X104114600Y-133350000D03*
X101574600Y-133350000D03*
X99034600Y-133350000D03*
X60934600Y-133426200D03*
X58394600Y-133426200D03*
X55854600Y-133426200D03*
D23*
X77310000Y-116840000D03*
X77310000Y-118110000D03*
X77310000Y-119380000D03*
X77310000Y-120650000D03*
X77310000Y-121920000D03*
X77310000Y-123190000D03*
X77310000Y-124460000D03*
X82710000Y-124460000D03*
X82710000Y-123190000D03*
X82710000Y-121920000D03*
X82710000Y-120650000D03*
X82710000Y-119380000D03*
X82710000Y-118110000D03*
X82710000Y-116840000D03*
D24*
X84683600Y-107767600D03*
X84683600Y-108417600D03*
X84683600Y-109067600D03*
X84683600Y-109717600D03*
X88083600Y-109717600D03*
X88083600Y-109067600D03*
X88083600Y-108417600D03*
X88083600Y-107767600D03*
D25*
X88290400Y-117602000D03*
X84912200Y-114731800D03*
X79146400Y-120650000D03*
X108458000Y-128016000D03*
X51816000Y-118926000D03*
X58064400Y-99364800D03*
X70205600Y-95453200D03*
X83159600Y-109541600D03*
X92760800Y-91871800D03*
X90055700Y-108419900D03*
X102914800Y-91852400D03*
X79028400Y-112522000D03*
X82600800Y-91846400D03*
X80137000Y-118033800D03*
X85115400Y-118033800D03*
X85344000Y-121920000D03*
X74472800Y-121920000D03*
D26*
X76310000Y-118110000D02*
X77310000Y-118110000D01*
X74950000Y-118110000D02*
X76310000Y-118110000D01*
X69093400Y-114198400D02*
X71023800Y-116128800D01*
X67843400Y-114198400D02*
X69093400Y-114198400D01*
X72968800Y-116128800D02*
X74950000Y-118110000D01*
X71023800Y-116128800D02*
X72968800Y-116128800D01*
D27*
X69824600Y-105943400D02*
X69824600Y-110515400D01*
X67843400Y-112496600D02*
X67843400Y-114198400D01*
X69824600Y-110515400D02*
X67843400Y-112496600D01*
D28*
X60520000Y-107640000D02*
X60520000Y-104140000D01*
X60520000Y-108475000D02*
X60520000Y-107640000D01*
X66243400Y-114198400D02*
X60520000Y-108475000D01*
X67843400Y-114198400D02*
X66243400Y-114198400D01*
D26*
X99398400Y-125831600D02*
X99500000Y-125730000D01*
X88900000Y-123190000D02*
X90170000Y-121920000D01*
X82710000Y-123190000D02*
X88900000Y-123190000D01*
D27*
X90170000Y-129540000D02*
X91440000Y-130810000D01*
X90170000Y-121920000D02*
X90170000Y-129540000D01*
D28*
X99500000Y-129230000D02*
X99500000Y-125730000D01*
X97920000Y-130810000D02*
X99500000Y-129230000D01*
X91440000Y-130810000D02*
X97920000Y-130810000D01*
D26*
X60545400Y-124485400D02*
X60520000Y-124460000D01*
X77310000Y-123190000D02*
X72390000Y-123190000D01*
X71780400Y-122580400D02*
X69951600Y-122580400D01*
X72390000Y-123190000D02*
X71780400Y-122580400D01*
D27*
X69951600Y-129438400D02*
X68580000Y-130810000D01*
X69951600Y-122580400D02*
X69951600Y-129438400D01*
D28*
X60520000Y-127960000D02*
X60520000Y-124460000D01*
X63370000Y-130810000D02*
X60520000Y-127960000D01*
X68580000Y-130810000D02*
X63370000Y-130810000D01*
D29*
X102870000Y-107950000D02*
X100634800Y-105714800D01*
X100634800Y-105714800D02*
X100634800Y-100279200D01*
D26*
X89133600Y-107767600D02*
X89713200Y-107188000D01*
X88083600Y-107767600D02*
X89133600Y-107767600D01*
X89713200Y-107188000D02*
X90449400Y-107188000D01*
X90449400Y-107188000D02*
X91846400Y-108585000D01*
X91846400Y-108585000D02*
X91846400Y-112699800D01*
X91846400Y-112699800D02*
X90932000Y-113614200D01*
X90932000Y-120142000D02*
X92710000Y-121920000D01*
X90932000Y-113614200D02*
X90932000Y-120142000D01*
X68084599Y-105143401D02*
X67284600Y-105943400D01*
X69164200Y-104063800D02*
X68084599Y-105143401D01*
X70739000Y-104063800D02*
X69164200Y-104063800D01*
X79755800Y-104952800D02*
X71628000Y-104952800D01*
X71628000Y-104952800D02*
X70739000Y-104063800D01*
X63758512Y-99826412D02*
X63296900Y-99364800D01*
X66484601Y-102552501D02*
X63758512Y-99826412D01*
X66484601Y-105143401D02*
X66484601Y-102552501D01*
X67284600Y-105943400D02*
X66484601Y-105143401D01*
X63373000Y-99288700D02*
X63296900Y-99364800D01*
X63373000Y-96367600D02*
X63373000Y-99288700D01*
X63373100Y-96367500D02*
X63373000Y-96367600D01*
X63373100Y-93319600D02*
X63373100Y-96367500D01*
D27*
X102870000Y-118338500D02*
X102895500Y-118364000D01*
X102870000Y-115570000D02*
X102870000Y-118338500D01*
X93841370Y-121920000D02*
X92710000Y-121920000D01*
X99914500Y-121920000D02*
X93841370Y-121920000D01*
X102895500Y-118939000D02*
X99914500Y-121920000D01*
X102895500Y-118364000D02*
X102895500Y-118939000D01*
X79146400Y-120650000D02*
X77310000Y-120650000D01*
X69342000Y-120650000D02*
X67411600Y-122580400D01*
X77310000Y-120650000D02*
X69342000Y-120650000D01*
D26*
X52870000Y-101860000D02*
X51816000Y-102914000D01*
X54220000Y-101860000D02*
X52870000Y-101860000D01*
X54220000Y-121330000D02*
X54220000Y-122180000D01*
X51816000Y-118926000D02*
X54220000Y-121330000D01*
X51816000Y-102914000D02*
X51816000Y-118926000D01*
X105806000Y-128016000D02*
X105800000Y-128010000D01*
X108458000Y-128016000D02*
X105806000Y-128016000D01*
X51816000Y-118926000D02*
X51816000Y-118926000D01*
X54220000Y-101010000D02*
X54220000Y-101860000D01*
X55865200Y-99364800D02*
X54220000Y-101010000D01*
X61721900Y-99364800D02*
X58064400Y-99364800D01*
X58064400Y-99364800D02*
X55865200Y-99364800D01*
X70205600Y-100228400D02*
X70180200Y-100253800D01*
X70205600Y-95453200D02*
X70205600Y-100228400D01*
X83633600Y-109067600D02*
X83159600Y-109541600D01*
X84683600Y-109067600D02*
X83633600Y-109067600D01*
X83159600Y-109541600D02*
X83159600Y-109541600D01*
X92760800Y-91871800D02*
X92760800Y-91871800D01*
X92754800Y-91877800D02*
X92760800Y-91871800D01*
X92754800Y-93979200D02*
X92754800Y-91877800D01*
X89133600Y-108417600D02*
X89135900Y-108419900D01*
X88083600Y-108417600D02*
X89133600Y-108417600D01*
X89135900Y-108419900D02*
X90055700Y-108419900D01*
X90055700Y-108419900D02*
X90055700Y-108419900D01*
X102914800Y-93979200D02*
X102914800Y-91852400D01*
X102914800Y-91852400D02*
X102914800Y-91852400D01*
D29*
X102870000Y-111760000D02*
X98475800Y-111760000D01*
X98475800Y-111760000D02*
X90474800Y-103759000D01*
X90474800Y-103759000D02*
X90474800Y-100279200D01*
D26*
X88083600Y-109717600D02*
X87198598Y-109717600D01*
X87198598Y-109717600D02*
X86487000Y-109006002D01*
X85733600Y-107767600D02*
X84683600Y-107767600D01*
X86487000Y-108521000D02*
X85733600Y-107767600D01*
X86487000Y-109006002D02*
X86487000Y-108521000D01*
X81330800Y-105064800D02*
X81330800Y-104952800D01*
X84033600Y-107767600D02*
X81330800Y-105064800D01*
X84683600Y-107767600D02*
X84033600Y-107767600D01*
X81330800Y-101295000D02*
X80315800Y-100280000D01*
X81330800Y-104952800D02*
X81330800Y-101295000D01*
X77310000Y-114815400D02*
X77317400Y-114808000D01*
X77310000Y-116840000D02*
X77310000Y-114815400D01*
X77317400Y-114233000D02*
X79028400Y-112522000D01*
X77317400Y-114808000D02*
X77317400Y-114233000D01*
X79028400Y-112522000D02*
X79028400Y-112522000D01*
X82600800Y-93975000D02*
X82595800Y-93980000D01*
X82600800Y-91846400D02*
X82600800Y-93975000D01*
X82651600Y-110871100D02*
X83743700Y-111963200D01*
X84683600Y-108417600D02*
X82920600Y-108417600D01*
X82920600Y-108417600D02*
X82219800Y-109118400D01*
X82219800Y-110439300D02*
X82651600Y-110871100D01*
X82219800Y-109118400D02*
X82219800Y-110439300D01*
X82260000Y-124460000D02*
X81127600Y-123327600D01*
X82710000Y-124460000D02*
X82260000Y-124460000D01*
X81127600Y-114579300D02*
X83743700Y-111963200D01*
X81127600Y-123327600D02*
X81127600Y-114579300D01*
X89133600Y-109067600D02*
X90144600Y-110078600D01*
X88083600Y-109067600D02*
X89133600Y-109067600D01*
X90144600Y-110515400D02*
X88696800Y-111963200D01*
X90144600Y-110078600D02*
X90144600Y-110515400D01*
X78310000Y-124460000D02*
X80137000Y-122633000D01*
X77310000Y-124460000D02*
X78310000Y-124460000D01*
X80137000Y-122633000D02*
X80137000Y-118033800D01*
X80137000Y-118033800D02*
X80137000Y-118033800D01*
X88696800Y-114452400D02*
X85115400Y-118033800D01*
X88696800Y-111963200D02*
X88696800Y-114452400D01*
X58394600Y-113207800D02*
X62001400Y-116814600D01*
X62001400Y-116814600D02*
X72593200Y-116814600D01*
X75158600Y-119380000D02*
X77310000Y-119380000D01*
X72593200Y-116814600D02*
X75158600Y-119380000D01*
X84778315Y-121920000D02*
X82710000Y-121920000D01*
X85344000Y-121920000D02*
X84778315Y-121920000D01*
X75038485Y-121920000D02*
X77310000Y-121920000D01*
X74472800Y-121920000D02*
X75038485Y-121920000D01*
X61798100Y-95402500D02*
X60833000Y-96367600D01*
X61798100Y-93319600D02*
X61798100Y-95402500D01*
X71610200Y-93953800D02*
X69604400Y-91948000D01*
X72460200Y-93953800D02*
X71610200Y-93953800D01*
X63169700Y-91948000D02*
X61798100Y-93319600D01*
X69604400Y-91948000D02*
X63169700Y-91948000D01*
D30*
G36*
X109340000Y-127473056D02*
G01*
X109261937Y-127356226D01*
X109117774Y-127212063D01*
X108948256Y-127098795D01*
X108759898Y-127020774D01*
X108559939Y-126981000D01*
X108356061Y-126981000D01*
X108156102Y-127020774D01*
X107967744Y-127098795D01*
X107798226Y-127212063D01*
X107754289Y-127256000D01*
X107516858Y-127256000D01*
X107489502Y-127165820D01*
X107430537Y-127055506D01*
X107351185Y-126958815D01*
X107254494Y-126879463D01*
X107144180Y-126820498D01*
X107024482Y-126784188D01*
X106900000Y-126771928D01*
X104700000Y-126771928D01*
X104575518Y-126784188D01*
X104455820Y-126820498D01*
X104345506Y-126879463D01*
X104248815Y-126958815D01*
X104169463Y-127055506D01*
X104110498Y-127165820D01*
X104074188Y-127285518D01*
X104061928Y-127410000D01*
X104061928Y-128610000D01*
X104074188Y-128734482D01*
X104110498Y-128854180D01*
X104169463Y-128964494D01*
X104248815Y-129061185D01*
X104345506Y-129140537D01*
X104455820Y-129199502D01*
X104575518Y-129235812D01*
X104700000Y-129248072D01*
X106900000Y-129248072D01*
X107024482Y-129235812D01*
X107144180Y-129199502D01*
X107254494Y-129140537D01*
X107351185Y-129061185D01*
X107430537Y-128964494D01*
X107489502Y-128854180D01*
X107513218Y-128776000D01*
X107754289Y-128776000D01*
X107798226Y-128819937D01*
X107967744Y-128933205D01*
X108156102Y-129011226D01*
X108356061Y-129051000D01*
X108559939Y-129051000D01*
X108759898Y-129011226D01*
X108948256Y-128933205D01*
X109117774Y-128819937D01*
X109261937Y-128675774D01*
X109340000Y-128558944D01*
X109340000Y-139340000D01*
X50660000Y-139340000D01*
X50660000Y-136829117D01*
X64265000Y-136829117D01*
X64265000Y-137170883D01*
X64331675Y-137506081D01*
X64462463Y-137821831D01*
X64652337Y-138105998D01*
X64894002Y-138347663D01*
X65178169Y-138537537D01*
X65493919Y-138668325D01*
X65829117Y-138735000D01*
X66170883Y-138735000D01*
X66506081Y-138668325D01*
X66821831Y-138537537D01*
X67105998Y-138347663D01*
X67347663Y-138105998D01*
X67537537Y-137821831D01*
X67668325Y-137506081D01*
X67735000Y-137170883D01*
X67735000Y-136829117D01*
X92265000Y-136829117D01*
X92265000Y-137170883D01*
X92331675Y-137506081D01*
X92462463Y-137821831D01*
X92652337Y-138105998D01*
X92894002Y-138347663D01*
X93178169Y-138537537D01*
X93493919Y-138668325D01*
X93829117Y-138735000D01*
X94170883Y-138735000D01*
X94506081Y-138668325D01*
X94821831Y-138537537D01*
X95105998Y-138347663D01*
X95347663Y-138105998D01*
X95537537Y-137821831D01*
X95668325Y-137506081D01*
X95735000Y-137170883D01*
X95735000Y-136829117D01*
X95668325Y-136493919D01*
X95537537Y-136178169D01*
X95347663Y-135894002D01*
X95105998Y-135652337D01*
X94821831Y-135462463D01*
X94506081Y-135331675D01*
X94170883Y-135265000D01*
X93829117Y-135265000D01*
X93493919Y-135331675D01*
X93178169Y-135462463D01*
X92894002Y-135652337D01*
X92652337Y-135894002D01*
X92462463Y-136178169D01*
X92331675Y-136493919D01*
X92265000Y-136829117D01*
X67735000Y-136829117D01*
X67668325Y-136493919D01*
X67537537Y-136178169D01*
X67347663Y-135894002D01*
X67105998Y-135652337D01*
X66821831Y-135462463D01*
X66506081Y-135331675D01*
X66170883Y-135265000D01*
X65829117Y-135265000D01*
X65493919Y-135331675D01*
X65178169Y-135462463D01*
X64894002Y-135652337D01*
X64652337Y-135894002D01*
X64462463Y-136178169D01*
X64331675Y-136493919D01*
X64265000Y-136829117D01*
X50660000Y-136829117D01*
X50660000Y-134361760D01*
X55098645Y-134361760D01*
X55160532Y-134597568D01*
X55402390Y-134710466D01*
X55661627Y-134774011D01*
X55928280Y-134785761D01*
X56192101Y-134745263D01*
X56442953Y-134654075D01*
X56548668Y-134597568D01*
X56610555Y-134361760D01*
X55854600Y-133605805D01*
X55098645Y-134361760D01*
X50660000Y-134361760D01*
X50660000Y-133499880D01*
X54495039Y-133499880D01*
X54535537Y-133763701D01*
X54626725Y-134014553D01*
X54683232Y-134120268D01*
X54919040Y-134182155D01*
X55674995Y-133426200D01*
X56034205Y-133426200D01*
X56790160Y-134182155D01*
X57025968Y-134120268D01*
X57126364Y-133905193D01*
X57193815Y-134068033D01*
X57342103Y-134289962D01*
X57530838Y-134478697D01*
X57752767Y-134626985D01*
X57999361Y-134729128D01*
X58261144Y-134781200D01*
X58528056Y-134781200D01*
X58789839Y-134729128D01*
X59036433Y-134626985D01*
X59258362Y-134478697D01*
X59447097Y-134289962D01*
X59595385Y-134068033D01*
X59664600Y-133900934D01*
X59733815Y-134068033D01*
X59882103Y-134289962D01*
X60070838Y-134478697D01*
X60292767Y-134626985D01*
X60539361Y-134729128D01*
X60801144Y-134781200D01*
X61068056Y-134781200D01*
X61329839Y-134729128D01*
X61576433Y-134626985D01*
X61798362Y-134478697D01*
X61987097Y-134289962D01*
X62135385Y-134068033D01*
X62237528Y-133821439D01*
X62289600Y-133559656D01*
X62289600Y-133292744D01*
X62274443Y-133216544D01*
X97679600Y-133216544D01*
X97679600Y-133483456D01*
X97731672Y-133745239D01*
X97833815Y-133991833D01*
X97982103Y-134213762D01*
X98170838Y-134402497D01*
X98392767Y-134550785D01*
X98639361Y-134652928D01*
X98901144Y-134705000D01*
X99168056Y-134705000D01*
X99429839Y-134652928D01*
X99676433Y-134550785D01*
X99898362Y-134402497D01*
X100087097Y-134213762D01*
X100235385Y-133991833D01*
X100304600Y-133824734D01*
X100373815Y-133991833D01*
X100522103Y-134213762D01*
X100710838Y-134402497D01*
X100932767Y-134550785D01*
X101179361Y-134652928D01*
X101441144Y-134705000D01*
X101708056Y-134705000D01*
X101969839Y-134652928D01*
X102216433Y-134550785D01*
X102438362Y-134402497D01*
X102555299Y-134285560D01*
X103358645Y-134285560D01*
X103420532Y-134521368D01*
X103662390Y-134634266D01*
X103921627Y-134697811D01*
X104188280Y-134709561D01*
X104452101Y-134669063D01*
X104702953Y-134577875D01*
X104808668Y-134521368D01*
X104870555Y-134285560D01*
X104114600Y-133529605D01*
X103358645Y-134285560D01*
X102555299Y-134285560D01*
X102627097Y-134213762D01*
X102775385Y-133991833D01*
X102845038Y-133823676D01*
X102886725Y-133938353D01*
X102943232Y-134044068D01*
X103179040Y-134105955D01*
X103934995Y-133350000D01*
X104294205Y-133350000D01*
X105050160Y-134105955D01*
X105285968Y-134044068D01*
X105398866Y-133802210D01*
X105462411Y-133542973D01*
X105474161Y-133276320D01*
X105433663Y-133012499D01*
X105342475Y-132761647D01*
X105285968Y-132655932D01*
X105050160Y-132594045D01*
X104294205Y-133350000D01*
X103934995Y-133350000D01*
X103179040Y-132594045D01*
X102943232Y-132655932D01*
X102842836Y-132871007D01*
X102775385Y-132708167D01*
X102627097Y-132486238D01*
X102555299Y-132414440D01*
X103358645Y-132414440D01*
X104114600Y-133170395D01*
X104870555Y-132414440D01*
X104808668Y-132178632D01*
X104566810Y-132065734D01*
X104307573Y-132002189D01*
X104040920Y-131990439D01*
X103777099Y-132030937D01*
X103526247Y-132122125D01*
X103420532Y-132178632D01*
X103358645Y-132414440D01*
X102555299Y-132414440D01*
X102438362Y-132297503D01*
X102216433Y-132149215D01*
X101969839Y-132047072D01*
X101708056Y-131995000D01*
X101441144Y-131995000D01*
X101179361Y-132047072D01*
X100932767Y-132149215D01*
X100710838Y-132297503D01*
X100522103Y-132486238D01*
X100373815Y-132708167D01*
X100304600Y-132875266D01*
X100235385Y-132708167D01*
X100087097Y-132486238D01*
X99898362Y-132297503D01*
X99676433Y-132149215D01*
X99429839Y-132047072D01*
X99168056Y-131995000D01*
X98901144Y-131995000D01*
X98639361Y-132047072D01*
X98392767Y-132149215D01*
X98170838Y-132297503D01*
X97982103Y-132486238D01*
X97833815Y-132708167D01*
X97731672Y-132954761D01*
X97679600Y-133216544D01*
X62274443Y-133216544D01*
X62237528Y-133030961D01*
X62135385Y-132784367D01*
X61987097Y-132562438D01*
X61798362Y-132373703D01*
X61576433Y-132225415D01*
X61329839Y-132123272D01*
X61068056Y-132071200D01*
X60801144Y-132071200D01*
X60539361Y-132123272D01*
X60292767Y-132225415D01*
X60070838Y-132373703D01*
X59882103Y-132562438D01*
X59733815Y-132784367D01*
X59664600Y-132951466D01*
X59595385Y-132784367D01*
X59447097Y-132562438D01*
X59258362Y-132373703D01*
X59036433Y-132225415D01*
X58789839Y-132123272D01*
X58528056Y-132071200D01*
X58261144Y-132071200D01*
X57999361Y-132123272D01*
X57752767Y-132225415D01*
X57530838Y-132373703D01*
X57342103Y-132562438D01*
X57193815Y-132784367D01*
X57124162Y-132952524D01*
X57082475Y-132837847D01*
X57025968Y-132732132D01*
X56790160Y-132670245D01*
X56034205Y-133426200D01*
X55674995Y-133426200D01*
X54919040Y-132670245D01*
X54683232Y-132732132D01*
X54570334Y-132973990D01*
X54506789Y-133233227D01*
X54495039Y-133499880D01*
X50660000Y-133499880D01*
X50660000Y-132490640D01*
X55098645Y-132490640D01*
X55854600Y-133246595D01*
X56610555Y-132490640D01*
X56548668Y-132254832D01*
X56306810Y-132141934D01*
X56047573Y-132078389D01*
X55780920Y-132066639D01*
X55517099Y-132107137D01*
X55266247Y-132198325D01*
X55160532Y-132254832D01*
X55098645Y-132490640D01*
X50660000Y-132490640D01*
X50660000Y-127340000D01*
X52481928Y-127340000D01*
X52494188Y-127464482D01*
X52530498Y-127584180D01*
X52589463Y-127694494D01*
X52668815Y-127791185D01*
X52765506Y-127870537D01*
X52875820Y-127929502D01*
X52995518Y-127965812D01*
X53120000Y-127978072D01*
X53934250Y-127975000D01*
X54093000Y-127816250D01*
X54093000Y-126867000D01*
X54347000Y-126867000D01*
X54347000Y-127816250D01*
X54505750Y-127975000D01*
X55320000Y-127978072D01*
X55444482Y-127965812D01*
X55564180Y-127929502D01*
X55674494Y-127870537D01*
X55771185Y-127791185D01*
X55850537Y-127694494D01*
X55909502Y-127584180D01*
X55945812Y-127464482D01*
X55958072Y-127340000D01*
X55955000Y-127025750D01*
X55796250Y-126867000D01*
X54347000Y-126867000D01*
X54093000Y-126867000D01*
X52643750Y-126867000D01*
X52485000Y-127025750D01*
X52481928Y-127340000D01*
X50660000Y-127340000D01*
X50660000Y-126140000D01*
X52481928Y-126140000D01*
X52485000Y-126454250D01*
X52643750Y-126613000D01*
X54093000Y-126613000D01*
X54093000Y-125663750D01*
X54347000Y-125663750D01*
X54347000Y-126613000D01*
X55796250Y-126613000D01*
X55955000Y-126454250D01*
X55958072Y-126140000D01*
X55945812Y-126015518D01*
X55909502Y-125895820D01*
X55850537Y-125785506D01*
X55771185Y-125688815D01*
X55674494Y-125609463D01*
X55564180Y-125550498D01*
X55444482Y-125514188D01*
X55320000Y-125501928D01*
X54505750Y-125505000D01*
X54347000Y-125663750D01*
X54093000Y-125663750D01*
X53934250Y-125505000D01*
X53120000Y-125501928D01*
X52995518Y-125514188D01*
X52875820Y-125550498D01*
X52765506Y-125609463D01*
X52668815Y-125688815D01*
X52589463Y-125785506D01*
X52530498Y-125895820D01*
X52494188Y-126015518D01*
X52481928Y-126140000D01*
X50660000Y-126140000D01*
X50660000Y-118824061D01*
X50781000Y-118824061D01*
X50781000Y-119027939D01*
X50820774Y-119227898D01*
X50898795Y-119416256D01*
X51012063Y-119585774D01*
X51156226Y-119729937D01*
X51325744Y-119843205D01*
X51514102Y-119921226D01*
X51714061Y-119961000D01*
X51776199Y-119961000D01*
X52830122Y-121014924D01*
X52765506Y-121049463D01*
X52668815Y-121128815D01*
X52589463Y-121225506D01*
X52530498Y-121335820D01*
X52494188Y-121455518D01*
X52481928Y-121580000D01*
X52481928Y-122780000D01*
X52494188Y-122904482D01*
X52530498Y-123024180D01*
X52589463Y-123134494D01*
X52668815Y-123231185D01*
X52765506Y-123310537D01*
X52875820Y-123369502D01*
X52995518Y-123405812D01*
X53120000Y-123418072D01*
X55320000Y-123418072D01*
X55444482Y-123405812D01*
X55564180Y-123369502D01*
X55674494Y-123310537D01*
X55771185Y-123231185D01*
X55850537Y-123134494D01*
X55909502Y-123024180D01*
X55945812Y-122904482D01*
X55958072Y-122780000D01*
X55958072Y-121580000D01*
X55945812Y-121455518D01*
X55909502Y-121335820D01*
X55850537Y-121225506D01*
X55771185Y-121128815D01*
X55674494Y-121049463D01*
X55564180Y-120990498D01*
X55444482Y-120954188D01*
X55320000Y-120941928D01*
X54874326Y-120941928D01*
X54854974Y-120905724D01*
X54795531Y-120833292D01*
X54783799Y-120818996D01*
X54783795Y-120818992D01*
X54760001Y-120789999D01*
X54731009Y-120766206D01*
X52851000Y-118886199D01*
X52851000Y-118824061D01*
X52811226Y-118624102D01*
X52733205Y-118435744D01*
X52619937Y-118266226D01*
X52576000Y-118222289D01*
X52576000Y-114143360D01*
X55098645Y-114143360D01*
X55160532Y-114379168D01*
X55402390Y-114492066D01*
X55661627Y-114555611D01*
X55928280Y-114567361D01*
X56192101Y-114526863D01*
X56442953Y-114435675D01*
X56548668Y-114379168D01*
X56610555Y-114143360D01*
X55854600Y-113387405D01*
X55098645Y-114143360D01*
X52576000Y-114143360D01*
X52576000Y-113281480D01*
X54495039Y-113281480D01*
X54535537Y-113545301D01*
X54626725Y-113796153D01*
X54683232Y-113901868D01*
X54919040Y-113963755D01*
X55674995Y-113207800D01*
X54919040Y-112451845D01*
X54683232Y-112513732D01*
X54570334Y-112755590D01*
X54506789Y-113014827D01*
X54495039Y-113281480D01*
X52576000Y-113281480D01*
X52576000Y-112272240D01*
X55098645Y-112272240D01*
X55854600Y-113028195D01*
X56610555Y-112272240D01*
X56548668Y-112036432D01*
X56306810Y-111923534D01*
X56047573Y-111859989D01*
X55780920Y-111848239D01*
X55517099Y-111888737D01*
X55266247Y-111979925D01*
X55160532Y-112036432D01*
X55098645Y-112272240D01*
X52576000Y-112272240D01*
X52576000Y-107349307D01*
X52589463Y-107374494D01*
X52668815Y-107471185D01*
X52765506Y-107550537D01*
X52875820Y-107609502D01*
X52995518Y-107645812D01*
X53120000Y-107658072D01*
X53934250Y-107655000D01*
X54093000Y-107496250D01*
X54093000Y-106547000D01*
X54347000Y-106547000D01*
X54347000Y-107496250D01*
X54505750Y-107655000D01*
X55320000Y-107658072D01*
X55444482Y-107645812D01*
X55564180Y-107609502D01*
X55674494Y-107550537D01*
X55771185Y-107471185D01*
X55850537Y-107374494D01*
X55909502Y-107264180D01*
X55945812Y-107144482D01*
X55958072Y-107020000D01*
X55955000Y-106705750D01*
X55796250Y-106547000D01*
X54347000Y-106547000D01*
X54093000Y-106547000D01*
X54073000Y-106547000D01*
X54073000Y-106293000D01*
X54093000Y-106293000D01*
X54093000Y-105343750D01*
X54347000Y-105343750D01*
X54347000Y-106293000D01*
X55796250Y-106293000D01*
X55955000Y-106134250D01*
X55958072Y-105820000D01*
X55945812Y-105695518D01*
X55909502Y-105575820D01*
X55850537Y-105465506D01*
X55771185Y-105368815D01*
X55674494Y-105289463D01*
X55564180Y-105230498D01*
X55444482Y-105194188D01*
X55320000Y-105181928D01*
X54505750Y-105185000D01*
X54347000Y-105343750D01*
X54093000Y-105343750D01*
X53934250Y-105185000D01*
X53120000Y-105181928D01*
X52995518Y-105194188D01*
X52875820Y-105230498D01*
X52765506Y-105289463D01*
X52668815Y-105368815D01*
X52589463Y-105465506D01*
X52576000Y-105490693D01*
X52576000Y-103228801D01*
X52797280Y-103007521D01*
X52875820Y-103049502D01*
X52995518Y-103085812D01*
X53120000Y-103098072D01*
X55320000Y-103098072D01*
X55444482Y-103085812D01*
X55564180Y-103049502D01*
X55674494Y-102990537D01*
X55771185Y-102911185D01*
X55850537Y-102814494D01*
X55909502Y-102704180D01*
X55945812Y-102584482D01*
X55958072Y-102460000D01*
X55958072Y-101260000D01*
X55945812Y-101135518D01*
X55909502Y-101015820D01*
X55850537Y-100905506D01*
X55771185Y-100808815D01*
X55674494Y-100729463D01*
X55609877Y-100694924D01*
X56180002Y-100124800D01*
X57360689Y-100124800D01*
X57404626Y-100168737D01*
X57574144Y-100282005D01*
X57762502Y-100360026D01*
X57962461Y-100399800D01*
X58166339Y-100399800D01*
X58366298Y-100360026D01*
X58554656Y-100282005D01*
X58724174Y-100168737D01*
X58768111Y-100124800D01*
X60813482Y-100124800D01*
X60897285Y-100226915D01*
X61027125Y-100333471D01*
X61175258Y-100412650D01*
X61335992Y-100461408D01*
X61503150Y-100477872D01*
X61940650Y-100477872D01*
X62107808Y-100461408D01*
X62268542Y-100412650D01*
X62416675Y-100333471D01*
X62509400Y-100257374D01*
X62602125Y-100333471D01*
X62750258Y-100412650D01*
X62910992Y-100461408D01*
X63078150Y-100477872D01*
X63335171Y-100477872D01*
X63459227Y-100601928D01*
X57320000Y-100601928D01*
X57195518Y-100614188D01*
X57075820Y-100650498D01*
X56965506Y-100709463D01*
X56868815Y-100788815D01*
X56789463Y-100885506D01*
X56730498Y-100995820D01*
X56694188Y-101115518D01*
X56681928Y-101240000D01*
X56681928Y-107040000D01*
X56694188Y-107164482D01*
X56730498Y-107284180D01*
X56789463Y-107394494D01*
X56868815Y-107491185D01*
X56965506Y-107570537D01*
X57075820Y-107629502D01*
X57195518Y-107665812D01*
X57320000Y-107678072D01*
X59135000Y-107678072D01*
X59135000Y-108406971D01*
X59128300Y-108475000D01*
X59135000Y-108543029D01*
X59135000Y-108543036D01*
X59147842Y-108673420D01*
X59155040Y-108746507D01*
X59211491Y-108932600D01*
X59234236Y-109007580D01*
X59362843Y-109248187D01*
X59380746Y-109270002D01*
X59481372Y-109392614D01*
X59535919Y-109459080D01*
X59588765Y-109502450D01*
X65215950Y-115129636D01*
X65259319Y-115182481D01*
X65312164Y-115225850D01*
X65312166Y-115225852D01*
X65319993Y-115232275D01*
X65470212Y-115355557D01*
X65710819Y-115484164D01*
X65971892Y-115563360D01*
X65988554Y-115565001D01*
X66175363Y-115583400D01*
X66175371Y-115583400D01*
X66243400Y-115590100D01*
X66311429Y-115583400D01*
X66337899Y-115583400D01*
X66392215Y-115649585D01*
X66488906Y-115728937D01*
X66599220Y-115787902D01*
X66718918Y-115824212D01*
X66843400Y-115836472D01*
X68843400Y-115836472D01*
X68967882Y-115824212D01*
X69087580Y-115787902D01*
X69197894Y-115728937D01*
X69294585Y-115649585D01*
X69373556Y-115553358D01*
X69874798Y-116054600D01*
X62316203Y-116054600D01*
X60824402Y-114562800D01*
X61068056Y-114562800D01*
X61329839Y-114510728D01*
X61576433Y-114408585D01*
X61798362Y-114260297D01*
X61987097Y-114071562D01*
X62135385Y-113849633D01*
X62237528Y-113603039D01*
X62289600Y-113341256D01*
X62289600Y-113074344D01*
X62237528Y-112812561D01*
X62135385Y-112565967D01*
X61987097Y-112344038D01*
X61798362Y-112155303D01*
X61576433Y-112007015D01*
X61329839Y-111904872D01*
X61068056Y-111852800D01*
X60801144Y-111852800D01*
X60539361Y-111904872D01*
X60292767Y-112007015D01*
X60070838Y-112155303D01*
X59882103Y-112344038D01*
X59733815Y-112565967D01*
X59664600Y-112733066D01*
X59595385Y-112565967D01*
X59447097Y-112344038D01*
X59258362Y-112155303D01*
X59036433Y-112007015D01*
X58789839Y-111904872D01*
X58528056Y-111852800D01*
X58261144Y-111852800D01*
X57999361Y-111904872D01*
X57752767Y-112007015D01*
X57530838Y-112155303D01*
X57342103Y-112344038D01*
X57193815Y-112565967D01*
X57124162Y-112734124D01*
X57082475Y-112619447D01*
X57025968Y-112513732D01*
X56790160Y-112451845D01*
X56034205Y-113207800D01*
X56790160Y-113963755D01*
X57025968Y-113901868D01*
X57126364Y-113686793D01*
X57193815Y-113849633D01*
X57342103Y-114071562D01*
X57530838Y-114260297D01*
X57752767Y-114408585D01*
X57999361Y-114510728D01*
X58261144Y-114562800D01*
X58528056Y-114562800D01*
X58650452Y-114538454D01*
X61437605Y-117325608D01*
X61461399Y-117354601D01*
X61490392Y-117378395D01*
X61490396Y-117378399D01*
X61546542Y-117424476D01*
X61577124Y-117449574D01*
X61709153Y-117520146D01*
X61852414Y-117563603D01*
X61964067Y-117574600D01*
X61964076Y-117574600D01*
X62001399Y-117578276D01*
X62038722Y-117574600D01*
X72278399Y-117574600D01*
X74418797Y-119715000D01*
X69387932Y-119715000D01*
X69342000Y-119710476D01*
X69202782Y-119724188D01*
X69158708Y-119728529D01*
X68982460Y-119781993D01*
X68820028Y-119868814D01*
X68677656Y-119985656D01*
X68648370Y-120021341D01*
X67524311Y-121145400D01*
X67270265Y-121145400D01*
X66993026Y-121200547D01*
X66731873Y-121308720D01*
X66496841Y-121465763D01*
X66296963Y-121665641D01*
X66139920Y-121900673D01*
X66031747Y-122161826D01*
X65976600Y-122439065D01*
X65976600Y-122721735D01*
X66031747Y-122998974D01*
X66139920Y-123260127D01*
X66296963Y-123495159D01*
X66496841Y-123695037D01*
X66731873Y-123852080D01*
X66993026Y-123960253D01*
X67270265Y-124015400D01*
X67552935Y-124015400D01*
X67830174Y-123960253D01*
X68091327Y-123852080D01*
X68326359Y-123695037D01*
X68526237Y-123495159D01*
X68683280Y-123260127D01*
X68685250Y-123255371D01*
X68752668Y-123381501D01*
X68931992Y-123600008D01*
X69016600Y-123669444D01*
X69016601Y-129051109D01*
X68895782Y-129171928D01*
X67580000Y-129171928D01*
X67455518Y-129184188D01*
X67335820Y-129220498D01*
X67225506Y-129279463D01*
X67128815Y-129358815D01*
X67074499Y-129425000D01*
X63943686Y-129425000D01*
X62516757Y-127998072D01*
X63720000Y-127998072D01*
X63844482Y-127985812D01*
X63964180Y-127949502D01*
X64074494Y-127890537D01*
X64171185Y-127811185D01*
X64250537Y-127714494D01*
X64309502Y-127604180D01*
X64345812Y-127484482D01*
X64358072Y-127360000D01*
X64358072Y-121560000D01*
X64345812Y-121435518D01*
X64309502Y-121315820D01*
X64250537Y-121205506D01*
X64171185Y-121108815D01*
X64074494Y-121029463D01*
X63964180Y-120970498D01*
X63844482Y-120934188D01*
X63720000Y-120921928D01*
X57320000Y-120921928D01*
X57195518Y-120934188D01*
X57075820Y-120970498D01*
X56965506Y-121029463D01*
X56868815Y-121108815D01*
X56789463Y-121205506D01*
X56730498Y-121315820D01*
X56694188Y-121435518D01*
X56681928Y-121560000D01*
X56681928Y-127360000D01*
X56694188Y-127484482D01*
X56730498Y-127604180D01*
X56789463Y-127714494D01*
X56868815Y-127811185D01*
X56965506Y-127890537D01*
X57075820Y-127949502D01*
X57195518Y-127985812D01*
X57320000Y-127998072D01*
X59132050Y-127998072D01*
X59135000Y-128028029D01*
X59135000Y-128028036D01*
X59155040Y-128231506D01*
X59234236Y-128492580D01*
X59362843Y-128733187D01*
X59388953Y-128765002D01*
X59479766Y-128875657D01*
X59535919Y-128944080D01*
X59588765Y-128987450D01*
X62342550Y-131741236D01*
X62385919Y-131794081D01*
X62438764Y-131837450D01*
X62438766Y-131837452D01*
X62570317Y-131945413D01*
X62596812Y-131967157D01*
X62837419Y-132095764D01*
X63098493Y-132174960D01*
X63301963Y-132195000D01*
X63301971Y-132195000D01*
X63370000Y-132201700D01*
X63438029Y-132195000D01*
X67074499Y-132195000D01*
X67128815Y-132261185D01*
X67225506Y-132340537D01*
X67335820Y-132399502D01*
X67455518Y-132435812D01*
X67580000Y-132448072D01*
X69580000Y-132448072D01*
X69704482Y-132435812D01*
X69824180Y-132399502D01*
X69934494Y-132340537D01*
X70031185Y-132261185D01*
X70110537Y-132164494D01*
X70169502Y-132054180D01*
X70202496Y-131945413D01*
X72624192Y-131945413D01*
X72719956Y-132209814D01*
X73009571Y-132350704D01*
X73321108Y-132432384D01*
X73642595Y-132451718D01*
X73961675Y-132407961D01*
X74266088Y-132302795D01*
X74440044Y-132209814D01*
X74535808Y-131945413D01*
X85484192Y-131945413D01*
X85579956Y-132209814D01*
X85869571Y-132350704D01*
X86181108Y-132432384D01*
X86502595Y-132451718D01*
X86821675Y-132407961D01*
X87126088Y-132302795D01*
X87300044Y-132209814D01*
X87395808Y-131945413D01*
X86440000Y-130989605D01*
X85484192Y-131945413D01*
X74535808Y-131945413D01*
X73580000Y-130989605D01*
X72624192Y-131945413D01*
X70202496Y-131945413D01*
X70205812Y-131934482D01*
X70218072Y-131810000D01*
X70218072Y-130872595D01*
X71938282Y-130872595D01*
X71982039Y-131191675D01*
X72087205Y-131496088D01*
X72180186Y-131670044D01*
X72444587Y-131765808D01*
X73400395Y-130810000D01*
X73759605Y-130810000D01*
X74715413Y-131765808D01*
X74979814Y-131670044D01*
X75120704Y-131380429D01*
X75202384Y-131068892D01*
X75214189Y-130872595D01*
X84798282Y-130872595D01*
X84842039Y-131191675D01*
X84947205Y-131496088D01*
X85040186Y-131670044D01*
X85304587Y-131765808D01*
X86260395Y-130810000D01*
X86619605Y-130810000D01*
X87575413Y-131765808D01*
X87839814Y-131670044D01*
X87980704Y-131380429D01*
X88062384Y-131068892D01*
X88081718Y-130747405D01*
X88037961Y-130428325D01*
X87932795Y-130123912D01*
X87839814Y-129949956D01*
X87575413Y-129854192D01*
X86619605Y-130810000D01*
X86260395Y-130810000D01*
X85304587Y-129854192D01*
X85040186Y-129949956D01*
X84899296Y-130239571D01*
X84817616Y-130551108D01*
X84798282Y-130872595D01*
X75214189Y-130872595D01*
X75221718Y-130747405D01*
X75177961Y-130428325D01*
X75072795Y-130123912D01*
X74979814Y-129949956D01*
X74715413Y-129854192D01*
X73759605Y-130810000D01*
X73400395Y-130810000D01*
X72444587Y-129854192D01*
X72180186Y-129949956D01*
X72039296Y-130239571D01*
X71957616Y-130551108D01*
X71938282Y-130872595D01*
X70218072Y-130872595D01*
X70218072Y-130494218D01*
X70580264Y-130132026D01*
X70615944Y-130102744D01*
X70732786Y-129960372D01*
X70819607Y-129797940D01*
X70857026Y-129674587D01*
X72624192Y-129674587D01*
X73580000Y-130630395D01*
X74535808Y-129674587D01*
X85484192Y-129674587D01*
X86440000Y-130630395D01*
X87395808Y-129674587D01*
X87300044Y-129410186D01*
X87010429Y-129269296D01*
X86698892Y-129187616D01*
X86377405Y-129168282D01*
X86058325Y-129212039D01*
X85753912Y-129317205D01*
X85579956Y-129410186D01*
X85484192Y-129674587D01*
X74535808Y-129674587D01*
X74440044Y-129410186D01*
X74150429Y-129269296D01*
X73838892Y-129187616D01*
X73517405Y-129168282D01*
X73198325Y-129212039D01*
X72893912Y-129317205D01*
X72719956Y-129410186D01*
X72624192Y-129674587D01*
X70857026Y-129674587D01*
X70873071Y-129621693D01*
X70891124Y-129438401D01*
X70886600Y-129392469D01*
X70886600Y-123669444D01*
X70971208Y-123600008D01*
X71150532Y-123381501D01*
X71172501Y-123340400D01*
X71465599Y-123340400D01*
X71826200Y-123701002D01*
X71849999Y-123730001D01*
X71965724Y-123824974D01*
X72097753Y-123895546D01*
X72241014Y-123939003D01*
X72342474Y-123948996D01*
X72390000Y-123953677D01*
X72427333Y-123950000D01*
X75960130Y-123950000D01*
X75934188Y-124035518D01*
X75921928Y-124160000D01*
X75921928Y-124760000D01*
X75934188Y-124884482D01*
X75970498Y-125004180D01*
X76029463Y-125114494D01*
X76108815Y-125211185D01*
X76205506Y-125290537D01*
X76315820Y-125349502D01*
X76435518Y-125385812D01*
X76560000Y-125398072D01*
X78060000Y-125398072D01*
X78184482Y-125385812D01*
X78304180Y-125349502D01*
X78414494Y-125290537D01*
X78511185Y-125211185D01*
X78530871Y-125187197D01*
X78602247Y-125165546D01*
X78734276Y-125094974D01*
X78850001Y-125000001D01*
X78873804Y-124970997D01*
X80377666Y-123467136D01*
X80378597Y-123476585D01*
X80407085Y-123570498D01*
X80422054Y-123619846D01*
X80492626Y-123751876D01*
X80515159Y-123779332D01*
X80587599Y-123867601D01*
X80616602Y-123891403D01*
X81321928Y-124596730D01*
X81321928Y-124760000D01*
X81334188Y-124884482D01*
X81370498Y-125004180D01*
X81429463Y-125114494D01*
X81508815Y-125211185D01*
X81605506Y-125290537D01*
X81715820Y-125349502D01*
X81835518Y-125385812D01*
X81960000Y-125398072D01*
X83460000Y-125398072D01*
X83584482Y-125385812D01*
X83704180Y-125349502D01*
X83814494Y-125290537D01*
X83911185Y-125211185D01*
X83990537Y-125114494D01*
X84049502Y-125004180D01*
X84085812Y-124884482D01*
X84098072Y-124760000D01*
X84098072Y-124160000D01*
X84085812Y-124035518D01*
X84059870Y-123950000D01*
X88862678Y-123950000D01*
X88900000Y-123953676D01*
X88937322Y-123950000D01*
X88937333Y-123950000D01*
X89048986Y-123939003D01*
X89192247Y-123895546D01*
X89235000Y-123872694D01*
X89235001Y-129494058D01*
X89230476Y-129540000D01*
X89248529Y-129723291D01*
X89260448Y-129762581D01*
X89301994Y-129899540D01*
X89388815Y-130061972D01*
X89505657Y-130204344D01*
X89541336Y-130233625D01*
X89801928Y-130494217D01*
X89801928Y-131810000D01*
X89814188Y-131934482D01*
X89850498Y-132054180D01*
X89909463Y-132164494D01*
X89988815Y-132261185D01*
X90085506Y-132340537D01*
X90195820Y-132399502D01*
X90315518Y-132435812D01*
X90440000Y-132448072D01*
X92440000Y-132448072D01*
X92564482Y-132435812D01*
X92684180Y-132399502D01*
X92794494Y-132340537D01*
X92891185Y-132261185D01*
X92945501Y-132195000D01*
X97851971Y-132195000D01*
X97920000Y-132201700D01*
X97988029Y-132195000D01*
X97988037Y-132195000D01*
X98191507Y-132174960D01*
X98452581Y-132095764D01*
X98693188Y-131967157D01*
X98904081Y-131794081D01*
X98947454Y-131741231D01*
X100431241Y-130257445D01*
X100484080Y-130214081D01*
X100527445Y-130161241D01*
X100527452Y-130161234D01*
X100657156Y-130003189D01*
X100657157Y-130003188D01*
X100785764Y-129762581D01*
X100864960Y-129501507D01*
X100885000Y-129298037D01*
X100885000Y-129298028D01*
X100887950Y-129268072D01*
X102700000Y-129268072D01*
X102824482Y-129255812D01*
X102944180Y-129219502D01*
X103054494Y-129160537D01*
X103151185Y-129081185D01*
X103230537Y-128984494D01*
X103289502Y-128874180D01*
X103325812Y-128754482D01*
X103338072Y-128630000D01*
X103338072Y-124050000D01*
X104061928Y-124050000D01*
X104074188Y-124174482D01*
X104110498Y-124294180D01*
X104169463Y-124404494D01*
X104248815Y-124501185D01*
X104345506Y-124580537D01*
X104455820Y-124639502D01*
X104575518Y-124675812D01*
X104700000Y-124688072D01*
X105514250Y-124685000D01*
X105673000Y-124526250D01*
X105673000Y-123577000D01*
X105927000Y-123577000D01*
X105927000Y-124526250D01*
X106085750Y-124685000D01*
X106900000Y-124688072D01*
X107024482Y-124675812D01*
X107144180Y-124639502D01*
X107254494Y-124580537D01*
X107351185Y-124501185D01*
X107430537Y-124404494D01*
X107489502Y-124294180D01*
X107525812Y-124174482D01*
X107538072Y-124050000D01*
X107535000Y-123735750D01*
X107376250Y-123577000D01*
X105927000Y-123577000D01*
X105673000Y-123577000D01*
X104223750Y-123577000D01*
X104065000Y-123735750D01*
X104061928Y-124050000D01*
X103338072Y-124050000D01*
X103338072Y-122850000D01*
X104061928Y-122850000D01*
X104065000Y-123164250D01*
X104223750Y-123323000D01*
X105673000Y-123323000D01*
X105673000Y-122373750D01*
X105927000Y-122373750D01*
X105927000Y-123323000D01*
X107376250Y-123323000D01*
X107535000Y-123164250D01*
X107538072Y-122850000D01*
X107525812Y-122725518D01*
X107489502Y-122605820D01*
X107430537Y-122495506D01*
X107351185Y-122398815D01*
X107254494Y-122319463D01*
X107144180Y-122260498D01*
X107024482Y-122224188D01*
X106900000Y-122211928D01*
X106085750Y-122215000D01*
X105927000Y-122373750D01*
X105673000Y-122373750D01*
X105514250Y-122215000D01*
X104700000Y-122211928D01*
X104575518Y-122224188D01*
X104455820Y-122260498D01*
X104345506Y-122319463D01*
X104248815Y-122398815D01*
X104169463Y-122495506D01*
X104110498Y-122605820D01*
X104074188Y-122725518D01*
X104061928Y-122850000D01*
X103338072Y-122850000D01*
X103338072Y-122830000D01*
X103325812Y-122705518D01*
X103289502Y-122585820D01*
X103230537Y-122475506D01*
X103151185Y-122378815D01*
X103054494Y-122299463D01*
X102944180Y-122240498D01*
X102824482Y-122204188D01*
X102700000Y-122191928D01*
X100964861Y-122191928D01*
X103524159Y-119632630D01*
X103559844Y-119603344D01*
X103676686Y-119460972D01*
X103745264Y-119332671D01*
X103763507Y-119298541D01*
X103816972Y-119122292D01*
X103818561Y-119106157D01*
X103826671Y-119096275D01*
X103905850Y-118948142D01*
X103954608Y-118787408D01*
X103971072Y-118620250D01*
X103971072Y-118107750D01*
X103954608Y-117940592D01*
X103905850Y-117779858D01*
X103826671Y-117631725D01*
X103805000Y-117605319D01*
X103805000Y-116723725D01*
X103925134Y-116625134D01*
X103949607Y-116595313D01*
X103970498Y-116664180D01*
X104029463Y-116774494D01*
X104108815Y-116871185D01*
X104205506Y-116950537D01*
X104315820Y-117009502D01*
X104435518Y-117045812D01*
X104560000Y-117058072D01*
X106260000Y-117058072D01*
X106384482Y-117045812D01*
X106504180Y-117009502D01*
X106614494Y-116950537D01*
X106711185Y-116871185D01*
X106790537Y-116774494D01*
X106849502Y-116664180D01*
X106885812Y-116544482D01*
X106898072Y-116420000D01*
X106898072Y-114720000D01*
X106885812Y-114595518D01*
X106849502Y-114475820D01*
X106790537Y-114365506D01*
X106711185Y-114268815D01*
X106614494Y-114189463D01*
X106504180Y-114130498D01*
X106384482Y-114094188D01*
X106260000Y-114081928D01*
X104560000Y-114081928D01*
X104435518Y-114094188D01*
X104315820Y-114130498D01*
X104205506Y-114189463D01*
X104108815Y-114268815D01*
X104029463Y-114365506D01*
X103970498Y-114475820D01*
X103949607Y-114544687D01*
X103925134Y-114514866D01*
X103699014Y-114329294D01*
X103441034Y-114191401D01*
X103161111Y-114106487D01*
X102942950Y-114085000D01*
X102797050Y-114085000D01*
X102578889Y-114106487D01*
X102298966Y-114191401D01*
X102040986Y-114329294D01*
X101814866Y-114514866D01*
X101629294Y-114740986D01*
X101600000Y-114795791D01*
X101570706Y-114740986D01*
X101385134Y-114514866D01*
X101159014Y-114329294D01*
X100901034Y-114191401D01*
X100621111Y-114106487D01*
X100402950Y-114085000D01*
X100257050Y-114085000D01*
X100038889Y-114106487D01*
X99758966Y-114191401D01*
X99500986Y-114329294D01*
X99274866Y-114514866D01*
X99089294Y-114740986D01*
X99060000Y-114795791D01*
X99030706Y-114740986D01*
X98845134Y-114514866D01*
X98619014Y-114329294D01*
X98361034Y-114191401D01*
X98081111Y-114106487D01*
X97862950Y-114085000D01*
X97717050Y-114085000D01*
X97498889Y-114106487D01*
X97218966Y-114191401D01*
X96960986Y-114329294D01*
X96734866Y-114514866D01*
X96549294Y-114740986D01*
X96520000Y-114795791D01*
X96490706Y-114740986D01*
X96305134Y-114514866D01*
X96079014Y-114329294D01*
X95821034Y-114191401D01*
X95541111Y-114106487D01*
X95322950Y-114085000D01*
X95177050Y-114085000D01*
X94958889Y-114106487D01*
X94678966Y-114191401D01*
X94420986Y-114329294D01*
X94194866Y-114514866D01*
X94009294Y-114740986D01*
X93974799Y-114805523D01*
X93905178Y-114688645D01*
X93710269Y-114472412D01*
X93476920Y-114298359D01*
X93214099Y-114173175D01*
X93066890Y-114128524D01*
X92837000Y-114249845D01*
X92837000Y-115443000D01*
X92857000Y-115443000D01*
X92857000Y-115697000D01*
X92837000Y-115697000D01*
X92837000Y-116890155D01*
X93066890Y-117011476D01*
X93214099Y-116966825D01*
X93476920Y-116841641D01*
X93710269Y-116667588D01*
X93905178Y-116451355D01*
X93974799Y-116334477D01*
X94009294Y-116399014D01*
X94194866Y-116625134D01*
X94420986Y-116810706D01*
X94678966Y-116948599D01*
X94958889Y-117033513D01*
X95177050Y-117055000D01*
X95322950Y-117055000D01*
X95541111Y-117033513D01*
X95821034Y-116948599D01*
X96079014Y-116810706D01*
X96305134Y-116625134D01*
X96490706Y-116399014D01*
X96520000Y-116344209D01*
X96549294Y-116399014D01*
X96734866Y-116625134D01*
X96960986Y-116810706D01*
X97218966Y-116948599D01*
X97498889Y-117033513D01*
X97717050Y-117055000D01*
X97862950Y-117055000D01*
X98081111Y-117033513D01*
X98361034Y-116948599D01*
X98619014Y-116810706D01*
X98845134Y-116625134D01*
X99030706Y-116399014D01*
X99060000Y-116344209D01*
X99089294Y-116399014D01*
X99274866Y-116625134D01*
X99500986Y-116810706D01*
X99758966Y-116948599D01*
X100038889Y-117033513D01*
X100257050Y-117055000D01*
X100402950Y-117055000D01*
X100621111Y-117033513D01*
X100901034Y-116948599D01*
X101159014Y-116810706D01*
X101385134Y-116625134D01*
X101570706Y-116399014D01*
X101600000Y-116344209D01*
X101629294Y-116399014D01*
X101814866Y-116625134D01*
X101935000Y-116723726D01*
X101935001Y-117279119D01*
X101882482Y-117263188D01*
X101758000Y-117250928D01*
X101606250Y-117254000D01*
X101447500Y-117412750D01*
X101447500Y-118237000D01*
X101467500Y-118237000D01*
X101467500Y-118491000D01*
X101447500Y-118491000D01*
X101447500Y-118511000D01*
X101193500Y-118511000D01*
X101193500Y-118491000D01*
X100406750Y-118491000D01*
X100248000Y-118649750D01*
X100244928Y-118839000D01*
X100257188Y-118963482D01*
X100293498Y-119083180D01*
X100352463Y-119193494D01*
X100431815Y-119290185D01*
X100528506Y-119369537D01*
X100638820Y-119428502D01*
X100758518Y-119464812D01*
X100883000Y-119477072D01*
X101034750Y-119474000D01*
X101193498Y-119315252D01*
X101193498Y-119318713D01*
X99527211Y-120985000D01*
X93804396Y-120985000D01*
X93624759Y-120805363D01*
X93389727Y-120648320D01*
X93128574Y-120540147D01*
X92851335Y-120485000D01*
X92568665Y-120485000D01*
X92386114Y-120521312D01*
X91692000Y-119827199D01*
X91692000Y-117889000D01*
X100244928Y-117889000D01*
X100248000Y-118078250D01*
X100406750Y-118237000D01*
X101193500Y-118237000D01*
X101193500Y-117412750D01*
X101034750Y-117254000D01*
X100883000Y-117250928D01*
X100758518Y-117263188D01*
X100638820Y-117299498D01*
X100528506Y-117358463D01*
X100431815Y-117437815D01*
X100352463Y-117534506D01*
X100293498Y-117644820D01*
X100257188Y-117764518D01*
X100244928Y-117889000D01*
X91692000Y-117889000D01*
X91692000Y-116647917D01*
X91709731Y-116667588D01*
X91943080Y-116841641D01*
X92205901Y-116966825D01*
X92353110Y-117011476D01*
X92583000Y-116890155D01*
X92583000Y-115697000D01*
X92563000Y-115697000D01*
X92563000Y-115443000D01*
X92583000Y-115443000D01*
X92583000Y-114249845D01*
X92353110Y-114128524D01*
X92205901Y-114173175D01*
X91943080Y-114298359D01*
X91709731Y-114472412D01*
X91692000Y-114492083D01*
X91692000Y-113929001D01*
X92357403Y-113263599D01*
X92386401Y-113239801D01*
X92434023Y-113181774D01*
X92481374Y-113124077D01*
X92551946Y-112992047D01*
X92565830Y-112946276D01*
X92595403Y-112848786D01*
X92606400Y-112737133D01*
X92606400Y-112737123D01*
X92610076Y-112699800D01*
X92606400Y-112662477D01*
X92606400Y-108622322D01*
X92610076Y-108584999D01*
X92606400Y-108547676D01*
X92606400Y-108547667D01*
X92595403Y-108436014D01*
X92551946Y-108292753D01*
X92481374Y-108160724D01*
X92386401Y-108044999D01*
X92357404Y-108021202D01*
X91013204Y-106677003D01*
X90989401Y-106647999D01*
X90873676Y-106553026D01*
X90741647Y-106482454D01*
X90598386Y-106438997D01*
X90486733Y-106428000D01*
X90486722Y-106428000D01*
X90449400Y-106424324D01*
X90412078Y-106428000D01*
X89750522Y-106428000D01*
X89713199Y-106424324D01*
X89675876Y-106428000D01*
X89675867Y-106428000D01*
X89564214Y-106438997D01*
X89420953Y-106482454D01*
X89288924Y-106553026D01*
X89173199Y-106647999D01*
X89149400Y-106676998D01*
X88846871Y-106979528D01*
X87283600Y-106979528D01*
X87159118Y-106991788D01*
X87039420Y-107028098D01*
X86929106Y-107087063D01*
X86832415Y-107166415D01*
X86753063Y-107263106D01*
X86694098Y-107373420D01*
X86657788Y-107493118D01*
X86646682Y-107605880D01*
X86297403Y-107256602D01*
X86273601Y-107227599D01*
X86157876Y-107132626D01*
X86025847Y-107062054D01*
X85882586Y-107018597D01*
X85770933Y-107007600D01*
X85770922Y-107007600D01*
X85733600Y-107003924D01*
X85696278Y-107007600D01*
X85660207Y-107007600D01*
X85608082Y-106991788D01*
X85483600Y-106979528D01*
X84320331Y-106979528D01*
X82406372Y-105065571D01*
X82406372Y-104696550D01*
X82389908Y-104529392D01*
X82341150Y-104368658D01*
X82261971Y-104220525D01*
X82177891Y-104118072D01*
X83215800Y-104118072D01*
X83340282Y-104105812D01*
X83459980Y-104069502D01*
X83570294Y-104010537D01*
X83666985Y-103931185D01*
X83746337Y-103834494D01*
X83805302Y-103724180D01*
X83841612Y-103604482D01*
X83853872Y-103480000D01*
X83853872Y-97080000D01*
X83853794Y-97079200D01*
X86936728Y-97079200D01*
X86936728Y-103479200D01*
X86948988Y-103603682D01*
X86985298Y-103723380D01*
X87044263Y-103833694D01*
X87123615Y-103930385D01*
X87220306Y-104009737D01*
X87330620Y-104068702D01*
X87450318Y-104105012D01*
X87574800Y-104117272D01*
X89266785Y-104117272D01*
X89293032Y-104203797D01*
X89305080Y-104243513D01*
X89422080Y-104462405D01*
X89473286Y-104524799D01*
X89579535Y-104654265D01*
X89627616Y-104693724D01*
X97541081Y-112607190D01*
X97580535Y-112655265D01*
X97677061Y-112734482D01*
X97772395Y-112812720D01*
X97991286Y-112929720D01*
X98228797Y-113001768D01*
X98475800Y-113026096D01*
X98537693Y-113020000D01*
X102077083Y-113020000D01*
X102298966Y-113138599D01*
X102578889Y-113223513D01*
X102797050Y-113245000D01*
X102942950Y-113245000D01*
X103161111Y-113223513D01*
X103441034Y-113138599D01*
X103699014Y-113000706D01*
X103925134Y-112815134D01*
X103949607Y-112785313D01*
X103970498Y-112854180D01*
X104029463Y-112964494D01*
X104108815Y-113061185D01*
X104205506Y-113140537D01*
X104315820Y-113199502D01*
X104435518Y-113235812D01*
X104560000Y-113248072D01*
X106260000Y-113248072D01*
X106384482Y-113235812D01*
X106504180Y-113199502D01*
X106614494Y-113140537D01*
X106711185Y-113061185D01*
X106790537Y-112964494D01*
X106849502Y-112854180D01*
X106885812Y-112734482D01*
X106898072Y-112610000D01*
X106898072Y-110910000D01*
X106885812Y-110785518D01*
X106849502Y-110665820D01*
X106790537Y-110555506D01*
X106711185Y-110458815D01*
X106614494Y-110379463D01*
X106504180Y-110320498D01*
X106384482Y-110284188D01*
X106260000Y-110271928D01*
X104560000Y-110271928D01*
X104435518Y-110284188D01*
X104315820Y-110320498D01*
X104205506Y-110379463D01*
X104108815Y-110458815D01*
X104029463Y-110555506D01*
X103970498Y-110665820D01*
X103949607Y-110734687D01*
X103925134Y-110704866D01*
X103699014Y-110519294D01*
X103441034Y-110381401D01*
X103161111Y-110296487D01*
X102942950Y-110275000D01*
X102797050Y-110275000D01*
X102578889Y-110296487D01*
X102298966Y-110381401D01*
X102077083Y-110500000D01*
X98997709Y-110500000D01*
X92614980Y-104117272D01*
X93374800Y-104117272D01*
X93499282Y-104105012D01*
X93618980Y-104068702D01*
X93729294Y-104009737D01*
X93825985Y-103930385D01*
X93905337Y-103833694D01*
X93964302Y-103723380D01*
X94000612Y-103603682D01*
X94012872Y-103479200D01*
X94012872Y-97079200D01*
X97096728Y-97079200D01*
X97096728Y-103479200D01*
X97108988Y-103603682D01*
X97145298Y-103723380D01*
X97204263Y-103833694D01*
X97283615Y-103930385D01*
X97380306Y-104009737D01*
X97490620Y-104068702D01*
X97610318Y-104105012D01*
X97734800Y-104117272D01*
X99374800Y-104117272D01*
X99374800Y-105652917D01*
X99368705Y-105714800D01*
X99374800Y-105776683D01*
X99374800Y-105776692D01*
X99393032Y-105961802D01*
X99465080Y-106199313D01*
X99582080Y-106418205D01*
X99635585Y-106483401D01*
X99739535Y-106610065D01*
X99787616Y-106649524D01*
X101418368Y-108280277D01*
X101491401Y-108521034D01*
X101629294Y-108779014D01*
X101814866Y-109005134D01*
X102040986Y-109190706D01*
X102298966Y-109328599D01*
X102578889Y-109413513D01*
X102797050Y-109435000D01*
X102942950Y-109435000D01*
X103161111Y-109413513D01*
X103441034Y-109328599D01*
X103699014Y-109190706D01*
X103925134Y-109005134D01*
X103949607Y-108975313D01*
X103970498Y-109044180D01*
X104029463Y-109154494D01*
X104108815Y-109251185D01*
X104205506Y-109330537D01*
X104315820Y-109389502D01*
X104435518Y-109425812D01*
X104560000Y-109438072D01*
X106260000Y-109438072D01*
X106384482Y-109425812D01*
X106504180Y-109389502D01*
X106614494Y-109330537D01*
X106711185Y-109251185D01*
X106790537Y-109154494D01*
X106849502Y-109044180D01*
X106885812Y-108924482D01*
X106898072Y-108800000D01*
X106898072Y-107100000D01*
X106885812Y-106975518D01*
X106849502Y-106855820D01*
X106790537Y-106745506D01*
X106711185Y-106648815D01*
X106614494Y-106569463D01*
X106504180Y-106510498D01*
X106384482Y-106474188D01*
X106260000Y-106461928D01*
X104560000Y-106461928D01*
X104435518Y-106474188D01*
X104315820Y-106510498D01*
X104205506Y-106569463D01*
X104108815Y-106648815D01*
X104029463Y-106745506D01*
X103970498Y-106855820D01*
X103949607Y-106924687D01*
X103925134Y-106894866D01*
X103699014Y-106709294D01*
X103441034Y-106571401D01*
X103200277Y-106498368D01*
X101894800Y-105192892D01*
X101894800Y-104117272D01*
X103534800Y-104117272D01*
X103659282Y-104105012D01*
X103778980Y-104068702D01*
X103889294Y-104009737D01*
X103985985Y-103930385D01*
X104065337Y-103833694D01*
X104124302Y-103723380D01*
X104160612Y-103603682D01*
X104172872Y-103479200D01*
X104172872Y-97079200D01*
X104160612Y-96954718D01*
X104124302Y-96835020D01*
X104065337Y-96724706D01*
X103985985Y-96628015D01*
X103889294Y-96548663D01*
X103778980Y-96489698D01*
X103659282Y-96453388D01*
X103534800Y-96441128D01*
X97734800Y-96441128D01*
X97610318Y-96453388D01*
X97490620Y-96489698D01*
X97380306Y-96548663D01*
X97283615Y-96628015D01*
X97204263Y-96724706D01*
X97145298Y-96835020D01*
X97108988Y-96954718D01*
X97096728Y-97079200D01*
X94012872Y-97079200D01*
X94000612Y-96954718D01*
X93964302Y-96835020D01*
X93905337Y-96724706D01*
X93825985Y-96628015D01*
X93729294Y-96548663D01*
X93618980Y-96489698D01*
X93499282Y-96453388D01*
X93374800Y-96441128D01*
X87574800Y-96441128D01*
X87450318Y-96453388D01*
X87330620Y-96489698D01*
X87220306Y-96548663D01*
X87123615Y-96628015D01*
X87044263Y-96724706D01*
X86985298Y-96835020D01*
X86948988Y-96954718D01*
X86936728Y-97079200D01*
X83853794Y-97079200D01*
X83841612Y-96955518D01*
X83805302Y-96835820D01*
X83746337Y-96725506D01*
X83666985Y-96628815D01*
X83570294Y-96549463D01*
X83459980Y-96490498D01*
X83340282Y-96454188D01*
X83215800Y-96441928D01*
X77415800Y-96441928D01*
X77291318Y-96454188D01*
X77171620Y-96490498D01*
X77061306Y-96549463D01*
X76964615Y-96628815D01*
X76885263Y-96725506D01*
X76826298Y-96835820D01*
X76789988Y-96955518D01*
X76777728Y-97080000D01*
X76777728Y-103480000D01*
X76789988Y-103604482D01*
X76826298Y-103724180D01*
X76885263Y-103834494D01*
X76964615Y-103931185D01*
X77061306Y-104010537D01*
X77171620Y-104069502D01*
X77291318Y-104105812D01*
X77415800Y-104118072D01*
X78908709Y-104118072D01*
X78847382Y-104192800D01*
X71942802Y-104192800D01*
X71841874Y-104091872D01*
X73080200Y-104091872D01*
X73204682Y-104079612D01*
X73324380Y-104043302D01*
X73434694Y-103984337D01*
X73531385Y-103904985D01*
X73610737Y-103808294D01*
X73669702Y-103697980D01*
X73706012Y-103578282D01*
X73718272Y-103453800D01*
X73718272Y-97053800D01*
X73706012Y-96929318D01*
X73669702Y-96809620D01*
X73610737Y-96699306D01*
X73531385Y-96602615D01*
X73434694Y-96523263D01*
X73324380Y-96464298D01*
X73204682Y-96427988D01*
X73080200Y-96415728D01*
X70965600Y-96415728D01*
X70965600Y-96156911D01*
X71009537Y-96112974D01*
X71122805Y-95943456D01*
X71200826Y-95755098D01*
X71240600Y-95555139D01*
X71240600Y-95351261D01*
X71200826Y-95151302D01*
X71122805Y-94962944D01*
X71009537Y-94793426D01*
X70865374Y-94649263D01*
X70695856Y-94535995D01*
X70507498Y-94457974D01*
X70307539Y-94418200D01*
X70103661Y-94418200D01*
X69903702Y-94457974D01*
X69715344Y-94535995D01*
X69545826Y-94649263D01*
X69401663Y-94793426D01*
X69288395Y-94962944D01*
X69210374Y-95151302D01*
X69170600Y-95351261D01*
X69170600Y-95555139D01*
X69210374Y-95755098D01*
X69288395Y-95943456D01*
X69401663Y-96112974D01*
X69445600Y-96156911D01*
X69445600Y-96415728D01*
X67280200Y-96415728D01*
X67155718Y-96427988D01*
X67036020Y-96464298D01*
X66925706Y-96523263D01*
X66829015Y-96602615D01*
X66749663Y-96699306D01*
X66690698Y-96809620D01*
X66654388Y-96929318D01*
X66642128Y-97053800D01*
X66642128Y-101635226D01*
X64372472Y-99365571D01*
X64372472Y-99108550D01*
X64356008Y-98941392D01*
X64307250Y-98780658D01*
X64228071Y-98632525D01*
X64133000Y-98516680D01*
X64133000Y-97645195D01*
X64202014Y-97608306D01*
X64428134Y-97422734D01*
X64613706Y-97196614D01*
X64751599Y-96938634D01*
X64836513Y-96658711D01*
X64865185Y-96367600D01*
X64836513Y-96076489D01*
X64751599Y-95796566D01*
X64613706Y-95538586D01*
X64428134Y-95312466D01*
X64202014Y-95126894D01*
X64133100Y-95090059D01*
X64133100Y-95053800D01*
X66662128Y-95053800D01*
X66674388Y-95178282D01*
X66710698Y-95297980D01*
X66769663Y-95408294D01*
X66849015Y-95504985D01*
X66945706Y-95584337D01*
X67056020Y-95643302D01*
X67175718Y-95679612D01*
X67300200Y-95691872D01*
X67614450Y-95688800D01*
X67773200Y-95530050D01*
X67773200Y-94080800D01*
X68027200Y-94080800D01*
X68027200Y-95530050D01*
X68185950Y-95688800D01*
X68500200Y-95691872D01*
X68624682Y-95679612D01*
X68744380Y-95643302D01*
X68854694Y-95584337D01*
X68951385Y-95504985D01*
X69030737Y-95408294D01*
X69089702Y-95297980D01*
X69126012Y-95178282D01*
X69138272Y-95053800D01*
X69135200Y-94239550D01*
X68976450Y-94080800D01*
X68027200Y-94080800D01*
X67773200Y-94080800D01*
X66823950Y-94080800D01*
X66665200Y-94239550D01*
X66662128Y-95053800D01*
X64133100Y-95053800D01*
X64133100Y-94234743D01*
X64197715Y-94181715D01*
X64304271Y-94051875D01*
X64383450Y-93903742D01*
X64432208Y-93743008D01*
X64448672Y-93575850D01*
X64448672Y-93063350D01*
X64432208Y-92896192D01*
X64383450Y-92735458D01*
X64368773Y-92708000D01*
X66680855Y-92708000D01*
X66674388Y-92729318D01*
X66662128Y-92853800D01*
X66665200Y-93668050D01*
X66823950Y-93826800D01*
X67773200Y-93826800D01*
X67773200Y-93806800D01*
X68027200Y-93806800D01*
X68027200Y-93826800D01*
X68976450Y-93826800D01*
X69135200Y-93668050D01*
X69138272Y-92853800D01*
X69126012Y-92729318D01*
X69119545Y-92708000D01*
X69289599Y-92708000D01*
X71046401Y-94464803D01*
X71070199Y-94493801D01*
X71131122Y-94543799D01*
X71185924Y-94588774D01*
X71222128Y-94608126D01*
X71222128Y-95053800D01*
X71234388Y-95178282D01*
X71270698Y-95297980D01*
X71329663Y-95408294D01*
X71409015Y-95504985D01*
X71505706Y-95584337D01*
X71616020Y-95643302D01*
X71735718Y-95679612D01*
X71860200Y-95691872D01*
X73060200Y-95691872D01*
X73184682Y-95679612D01*
X73304380Y-95643302D01*
X73414694Y-95584337D01*
X73511385Y-95504985D01*
X73590737Y-95408294D01*
X73649702Y-95297980D01*
X73686012Y-95178282D01*
X73695691Y-95080000D01*
X76797728Y-95080000D01*
X76809988Y-95204482D01*
X76846298Y-95324180D01*
X76905263Y-95434494D01*
X76984615Y-95531185D01*
X77081306Y-95610537D01*
X77191620Y-95669502D01*
X77311318Y-95705812D01*
X77435800Y-95718072D01*
X77750050Y-95715000D01*
X77908800Y-95556250D01*
X77908800Y-94107000D01*
X78162800Y-94107000D01*
X78162800Y-95556250D01*
X78321550Y-95715000D01*
X78635800Y-95718072D01*
X78760282Y-95705812D01*
X78879980Y-95669502D01*
X78990294Y-95610537D01*
X79086985Y-95531185D01*
X79166337Y-95434494D01*
X79225302Y-95324180D01*
X79261612Y-95204482D01*
X79273872Y-95080000D01*
X79270800Y-94265750D01*
X79112050Y-94107000D01*
X78162800Y-94107000D01*
X77908800Y-94107000D01*
X76959550Y-94107000D01*
X76800800Y-94265750D01*
X76797728Y-95080000D01*
X73695691Y-95080000D01*
X73698272Y-95053800D01*
X73698272Y-92880000D01*
X76797728Y-92880000D01*
X76800800Y-93694250D01*
X76959550Y-93853000D01*
X77908800Y-93853000D01*
X77908800Y-92403750D01*
X78162800Y-92403750D01*
X78162800Y-93853000D01*
X79112050Y-93853000D01*
X79270800Y-93694250D01*
X79273872Y-92880000D01*
X81357728Y-92880000D01*
X81357728Y-95080000D01*
X81369988Y-95204482D01*
X81406298Y-95324180D01*
X81465263Y-95434494D01*
X81544615Y-95531185D01*
X81641306Y-95610537D01*
X81751620Y-95669502D01*
X81871318Y-95705812D01*
X81995800Y-95718072D01*
X83195800Y-95718072D01*
X83320282Y-95705812D01*
X83439980Y-95669502D01*
X83550294Y-95610537D01*
X83646985Y-95531185D01*
X83726337Y-95434494D01*
X83785302Y-95324180D01*
X83821612Y-95204482D01*
X83833872Y-95080000D01*
X83833872Y-95079200D01*
X86956728Y-95079200D01*
X86968988Y-95203682D01*
X87005298Y-95323380D01*
X87064263Y-95433694D01*
X87143615Y-95530385D01*
X87240306Y-95609737D01*
X87350620Y-95668702D01*
X87470318Y-95705012D01*
X87594800Y-95717272D01*
X87909050Y-95714200D01*
X88067800Y-95555450D01*
X88067800Y-94106200D01*
X88321800Y-94106200D01*
X88321800Y-95555450D01*
X88480550Y-95714200D01*
X88794800Y-95717272D01*
X88919282Y-95705012D01*
X89038980Y-95668702D01*
X89149294Y-95609737D01*
X89245985Y-95530385D01*
X89325337Y-95433694D01*
X89384302Y-95323380D01*
X89420612Y-95203682D01*
X89432872Y-95079200D01*
X89429800Y-94264950D01*
X89271050Y-94106200D01*
X88321800Y-94106200D01*
X88067800Y-94106200D01*
X87118550Y-94106200D01*
X86959800Y-94264950D01*
X86956728Y-95079200D01*
X83833872Y-95079200D01*
X83833872Y-92880000D01*
X83833794Y-92879200D01*
X86956728Y-92879200D01*
X86959800Y-93693450D01*
X87118550Y-93852200D01*
X88067800Y-93852200D01*
X88067800Y-92402950D01*
X88321800Y-92402950D01*
X88321800Y-93852200D01*
X89271050Y-93852200D01*
X89429800Y-93693450D01*
X89432872Y-92879200D01*
X91516728Y-92879200D01*
X91516728Y-95079200D01*
X91528988Y-95203682D01*
X91565298Y-95323380D01*
X91624263Y-95433694D01*
X91703615Y-95530385D01*
X91800306Y-95609737D01*
X91910620Y-95668702D01*
X92030318Y-95705012D01*
X92154800Y-95717272D01*
X93354800Y-95717272D01*
X93479282Y-95705012D01*
X93598980Y-95668702D01*
X93709294Y-95609737D01*
X93805985Y-95530385D01*
X93885337Y-95433694D01*
X93944302Y-95323380D01*
X93980612Y-95203682D01*
X93992872Y-95079200D01*
X97116728Y-95079200D01*
X97128988Y-95203682D01*
X97165298Y-95323380D01*
X97224263Y-95433694D01*
X97303615Y-95530385D01*
X97400306Y-95609737D01*
X97510620Y-95668702D01*
X97630318Y-95705012D01*
X97754800Y-95717272D01*
X98069050Y-95714200D01*
X98227800Y-95555450D01*
X98227800Y-94106200D01*
X98481800Y-94106200D01*
X98481800Y-95555450D01*
X98640550Y-95714200D01*
X98954800Y-95717272D01*
X99079282Y-95705012D01*
X99198980Y-95668702D01*
X99309294Y-95609737D01*
X99405985Y-95530385D01*
X99485337Y-95433694D01*
X99544302Y-95323380D01*
X99580612Y-95203682D01*
X99592872Y-95079200D01*
X99589800Y-94264950D01*
X99431050Y-94106200D01*
X98481800Y-94106200D01*
X98227800Y-94106200D01*
X97278550Y-94106200D01*
X97119800Y-94264950D01*
X97116728Y-95079200D01*
X93992872Y-95079200D01*
X93992872Y-92879200D01*
X97116728Y-92879200D01*
X97119800Y-93693450D01*
X97278550Y-93852200D01*
X98227800Y-93852200D01*
X98227800Y-92402950D01*
X98481800Y-92402950D01*
X98481800Y-93852200D01*
X99431050Y-93852200D01*
X99589800Y-93693450D01*
X99592872Y-92879200D01*
X101676728Y-92879200D01*
X101676728Y-95079200D01*
X101688988Y-95203682D01*
X101725298Y-95323380D01*
X101784263Y-95433694D01*
X101863615Y-95530385D01*
X101960306Y-95609737D01*
X102070620Y-95668702D01*
X102190318Y-95705012D01*
X102314800Y-95717272D01*
X103514800Y-95717272D01*
X103639282Y-95705012D01*
X103758980Y-95668702D01*
X103869294Y-95609737D01*
X103965985Y-95530385D01*
X104045337Y-95433694D01*
X104104302Y-95323380D01*
X104140612Y-95203682D01*
X104152872Y-95079200D01*
X104152872Y-92879200D01*
X104147940Y-92829117D01*
X105265000Y-92829117D01*
X105265000Y-93170883D01*
X105331675Y-93506081D01*
X105462463Y-93821831D01*
X105652337Y-94105998D01*
X105894002Y-94347663D01*
X106178169Y-94537537D01*
X106493919Y-94668325D01*
X106829117Y-94735000D01*
X107170883Y-94735000D01*
X107506081Y-94668325D01*
X107821831Y-94537537D01*
X108105998Y-94347663D01*
X108347663Y-94105998D01*
X108537537Y-93821831D01*
X108668325Y-93506081D01*
X108735000Y-93170883D01*
X108735000Y-92829117D01*
X108668325Y-92493919D01*
X108537537Y-92178169D01*
X108347663Y-91894002D01*
X108105998Y-91652337D01*
X107821831Y-91462463D01*
X107506081Y-91331675D01*
X107170883Y-91265000D01*
X106829117Y-91265000D01*
X106493919Y-91331675D01*
X106178169Y-91462463D01*
X105894002Y-91652337D01*
X105652337Y-91894002D01*
X105462463Y-92178169D01*
X105331675Y-92493919D01*
X105265000Y-92829117D01*
X104147940Y-92829117D01*
X104140612Y-92754718D01*
X104104302Y-92635020D01*
X104045337Y-92524706D01*
X103965985Y-92428015D01*
X103869294Y-92348663D01*
X103836727Y-92331255D01*
X103910026Y-92154298D01*
X103949800Y-91954339D01*
X103949800Y-91750461D01*
X103910026Y-91550502D01*
X103832005Y-91362144D01*
X103718737Y-91192626D01*
X103574574Y-91048463D01*
X103405056Y-90935195D01*
X103216698Y-90857174D01*
X103016739Y-90817400D01*
X102812861Y-90817400D01*
X102612902Y-90857174D01*
X102424544Y-90935195D01*
X102255026Y-91048463D01*
X102110863Y-91192626D01*
X101997595Y-91362144D01*
X101919574Y-91550502D01*
X101879800Y-91750461D01*
X101879800Y-91954339D01*
X101919574Y-92154298D01*
X101992873Y-92331255D01*
X101960306Y-92348663D01*
X101863615Y-92428015D01*
X101784263Y-92524706D01*
X101725298Y-92635020D01*
X101688988Y-92754718D01*
X101676728Y-92879200D01*
X99592872Y-92879200D01*
X99580612Y-92754718D01*
X99544302Y-92635020D01*
X99485337Y-92524706D01*
X99405985Y-92428015D01*
X99309294Y-92348663D01*
X99198980Y-92289698D01*
X99079282Y-92253388D01*
X98954800Y-92241128D01*
X98640550Y-92244200D01*
X98481800Y-92402950D01*
X98227800Y-92402950D01*
X98069050Y-92244200D01*
X97754800Y-92241128D01*
X97630318Y-92253388D01*
X97510620Y-92289698D01*
X97400306Y-92348663D01*
X97303615Y-92428015D01*
X97224263Y-92524706D01*
X97165298Y-92635020D01*
X97128988Y-92754718D01*
X97116728Y-92879200D01*
X93992872Y-92879200D01*
X93980612Y-92754718D01*
X93944302Y-92635020D01*
X93885337Y-92524706D01*
X93805985Y-92428015D01*
X93709294Y-92348663D01*
X93688219Y-92337398D01*
X93756026Y-92173698D01*
X93795800Y-91973739D01*
X93795800Y-91769861D01*
X93756026Y-91569902D01*
X93678005Y-91381544D01*
X93564737Y-91212026D01*
X93420574Y-91067863D01*
X93251056Y-90954595D01*
X93062698Y-90876574D01*
X92862739Y-90836800D01*
X92658861Y-90836800D01*
X92458902Y-90876574D01*
X92270544Y-90954595D01*
X92101026Y-91067863D01*
X91956863Y-91212026D01*
X91843595Y-91381544D01*
X91765574Y-91569902D01*
X91725800Y-91769861D01*
X91725800Y-91973739D01*
X91765574Y-92173698D01*
X91831206Y-92332146D01*
X91800306Y-92348663D01*
X91703615Y-92428015D01*
X91624263Y-92524706D01*
X91565298Y-92635020D01*
X91528988Y-92754718D01*
X91516728Y-92879200D01*
X89432872Y-92879200D01*
X89420612Y-92754718D01*
X89384302Y-92635020D01*
X89325337Y-92524706D01*
X89245985Y-92428015D01*
X89149294Y-92348663D01*
X89038980Y-92289698D01*
X88919282Y-92253388D01*
X88794800Y-92241128D01*
X88480550Y-92244200D01*
X88321800Y-92402950D01*
X88067800Y-92402950D01*
X87909050Y-92244200D01*
X87594800Y-92241128D01*
X87470318Y-92253388D01*
X87350620Y-92289698D01*
X87240306Y-92348663D01*
X87143615Y-92428015D01*
X87064263Y-92524706D01*
X87005298Y-92635020D01*
X86968988Y-92754718D01*
X86956728Y-92879200D01*
X83833794Y-92879200D01*
X83821612Y-92755518D01*
X83785302Y-92635820D01*
X83726337Y-92525506D01*
X83646985Y-92428815D01*
X83550294Y-92349463D01*
X83519515Y-92333011D01*
X83596026Y-92148298D01*
X83635800Y-91948339D01*
X83635800Y-91744461D01*
X83596026Y-91544502D01*
X83518005Y-91356144D01*
X83404737Y-91186626D01*
X83260574Y-91042463D01*
X83091056Y-90929195D01*
X82902698Y-90851174D01*
X82702739Y-90811400D01*
X82498861Y-90811400D01*
X82298902Y-90851174D01*
X82110544Y-90929195D01*
X81941026Y-91042463D01*
X81796863Y-91186626D01*
X81683595Y-91356144D01*
X81605574Y-91544502D01*
X81565800Y-91744461D01*
X81565800Y-91948339D01*
X81605574Y-92148298D01*
X81680272Y-92328635D01*
X81641306Y-92349463D01*
X81544615Y-92428815D01*
X81465263Y-92525506D01*
X81406298Y-92635820D01*
X81369988Y-92755518D01*
X81357728Y-92880000D01*
X79273872Y-92880000D01*
X79261612Y-92755518D01*
X79225302Y-92635820D01*
X79166337Y-92525506D01*
X79086985Y-92428815D01*
X78990294Y-92349463D01*
X78879980Y-92290498D01*
X78760282Y-92254188D01*
X78635800Y-92241928D01*
X78321550Y-92245000D01*
X78162800Y-92403750D01*
X77908800Y-92403750D01*
X77750050Y-92245000D01*
X77435800Y-92241928D01*
X77311318Y-92254188D01*
X77191620Y-92290498D01*
X77081306Y-92349463D01*
X76984615Y-92428815D01*
X76905263Y-92525506D01*
X76846298Y-92635820D01*
X76809988Y-92755518D01*
X76797728Y-92880000D01*
X73698272Y-92880000D01*
X73698272Y-92853800D01*
X73686012Y-92729318D01*
X73649702Y-92609620D01*
X73590737Y-92499306D01*
X73511385Y-92402615D01*
X73414694Y-92323263D01*
X73304380Y-92264298D01*
X73184682Y-92227988D01*
X73060200Y-92215728D01*
X71860200Y-92215728D01*
X71735718Y-92227988D01*
X71616020Y-92264298D01*
X71505706Y-92323263D01*
X71409015Y-92402615D01*
X71329663Y-92499306D01*
X71295124Y-92563923D01*
X70168204Y-91437003D01*
X70144401Y-91407999D01*
X70028676Y-91313026D01*
X69896647Y-91242454D01*
X69753386Y-91198997D01*
X69641733Y-91188000D01*
X69641722Y-91188000D01*
X69604400Y-91184324D01*
X69567078Y-91188000D01*
X63207022Y-91188000D01*
X63169699Y-91184324D01*
X63132376Y-91188000D01*
X63132367Y-91188000D01*
X63020714Y-91198997D01*
X62877453Y-91242454D01*
X62745424Y-91313026D01*
X62629699Y-91407999D01*
X62605901Y-91436997D01*
X61836371Y-92206528D01*
X61579350Y-92206528D01*
X61412192Y-92222992D01*
X61251458Y-92271750D01*
X61103325Y-92350929D01*
X60973485Y-92457485D01*
X60866929Y-92587325D01*
X60787750Y-92735458D01*
X60738992Y-92896192D01*
X60722528Y-93063350D01*
X60722528Y-93575850D01*
X60738992Y-93743008D01*
X60787750Y-93903742D01*
X60866929Y-94051875D01*
X60973485Y-94181715D01*
X61038100Y-94234743D01*
X61038101Y-94895616D01*
X60905950Y-94882600D01*
X60760050Y-94882600D01*
X60541889Y-94904087D01*
X60261966Y-94989001D01*
X60003986Y-95126894D01*
X59777866Y-95312466D01*
X59753393Y-95342287D01*
X59732502Y-95273420D01*
X59673537Y-95163106D01*
X59594185Y-95066415D01*
X59497494Y-94987063D01*
X59387180Y-94928098D01*
X59267482Y-94891788D01*
X59143000Y-94879528D01*
X58578750Y-94882600D01*
X58420000Y-95041350D01*
X58420000Y-96240600D01*
X58440000Y-96240600D01*
X58440000Y-96494600D01*
X58420000Y-96494600D01*
X58420000Y-97693850D01*
X58578750Y-97852600D01*
X59143000Y-97855672D01*
X59267482Y-97843412D01*
X59387180Y-97807102D01*
X59497494Y-97748137D01*
X59594185Y-97668785D01*
X59673537Y-97572094D01*
X59732502Y-97461780D01*
X59753393Y-97392913D01*
X59777866Y-97422734D01*
X60003986Y-97608306D01*
X60261966Y-97746199D01*
X60541889Y-97831113D01*
X60760050Y-97852600D01*
X60905950Y-97852600D01*
X61124111Y-97831113D01*
X61404034Y-97746199D01*
X61662014Y-97608306D01*
X61888134Y-97422734D01*
X62073706Y-97196614D01*
X62103000Y-97141809D01*
X62132294Y-97196614D01*
X62317866Y-97422734D01*
X62543986Y-97608306D01*
X62613000Y-97645195D01*
X62613001Y-98390316D01*
X62602125Y-98396129D01*
X62509400Y-98472226D01*
X62416675Y-98396129D01*
X62268542Y-98316950D01*
X62107808Y-98268192D01*
X61940650Y-98251728D01*
X61503150Y-98251728D01*
X61335992Y-98268192D01*
X61175258Y-98316950D01*
X61027125Y-98396129D01*
X60897285Y-98502685D01*
X60813482Y-98604800D01*
X58768111Y-98604800D01*
X58724174Y-98560863D01*
X58554656Y-98447595D01*
X58366298Y-98369574D01*
X58166339Y-98329800D01*
X57962461Y-98329800D01*
X57762502Y-98369574D01*
X57574144Y-98447595D01*
X57404626Y-98560863D01*
X57360689Y-98604800D01*
X55902522Y-98604800D01*
X55865199Y-98601124D01*
X55827876Y-98604800D01*
X55827867Y-98604800D01*
X55716214Y-98615797D01*
X55591177Y-98653726D01*
X55572953Y-98659254D01*
X55440923Y-98729826D01*
X55378985Y-98780658D01*
X55325199Y-98824799D01*
X55301401Y-98853797D01*
X53709003Y-100446196D01*
X53679999Y-100469999D01*
X53638434Y-100520647D01*
X53585026Y-100585724D01*
X53565674Y-100621928D01*
X53120000Y-100621928D01*
X52995518Y-100634188D01*
X52875820Y-100670498D01*
X52765506Y-100729463D01*
X52668815Y-100808815D01*
X52589463Y-100905506D01*
X52530498Y-101015820D01*
X52494188Y-101135518D01*
X52487576Y-101202655D01*
X52445723Y-101225026D01*
X52403108Y-101260000D01*
X52329999Y-101319999D01*
X52306201Y-101348997D01*
X51305002Y-102350196D01*
X51275999Y-102373999D01*
X51220871Y-102441174D01*
X51181026Y-102489724D01*
X51127812Y-102589280D01*
X51110454Y-102621754D01*
X51066997Y-102765015D01*
X51056000Y-102876668D01*
X51056000Y-102876678D01*
X51052324Y-102914000D01*
X51056000Y-102951322D01*
X51056001Y-118222288D01*
X51012063Y-118266226D01*
X50898795Y-118435744D01*
X50820774Y-118624102D01*
X50781000Y-118824061D01*
X50660000Y-118824061D01*
X50660000Y-97217600D01*
X56804928Y-97217600D01*
X56817188Y-97342082D01*
X56853498Y-97461780D01*
X56912463Y-97572094D01*
X56991815Y-97668785D01*
X57088506Y-97748137D01*
X57198820Y-97807102D01*
X57318518Y-97843412D01*
X57443000Y-97855672D01*
X58007250Y-97852600D01*
X58166000Y-97693850D01*
X58166000Y-96494600D01*
X56966750Y-96494600D01*
X56808000Y-96653350D01*
X56804928Y-97217600D01*
X50660000Y-97217600D01*
X50660000Y-95517600D01*
X56804928Y-95517600D01*
X56808000Y-96081850D01*
X56966750Y-96240600D01*
X58166000Y-96240600D01*
X58166000Y-95041350D01*
X58007250Y-94882600D01*
X57443000Y-94879528D01*
X57318518Y-94891788D01*
X57198820Y-94928098D01*
X57088506Y-94987063D01*
X56991815Y-95066415D01*
X56912463Y-95163106D01*
X56853498Y-95273420D01*
X56817188Y-95393118D01*
X56804928Y-95517600D01*
X50660000Y-95517600D01*
X50660000Y-92829117D01*
X51265000Y-92829117D01*
X51265000Y-93170883D01*
X51331675Y-93506081D01*
X51462463Y-93821831D01*
X51652337Y-94105998D01*
X51894002Y-94347663D01*
X52178169Y-94537537D01*
X52493919Y-94668325D01*
X52829117Y-94735000D01*
X53170883Y-94735000D01*
X53506081Y-94668325D01*
X53821831Y-94537537D01*
X54105998Y-94347663D01*
X54347663Y-94105998D01*
X54537537Y-93821831D01*
X54668325Y-93506081D01*
X54735000Y-93170883D01*
X54735000Y-92829117D01*
X54668325Y-92493919D01*
X54537537Y-92178169D01*
X54347663Y-91894002D01*
X54105998Y-91652337D01*
X53821831Y-91462463D01*
X53506081Y-91331675D01*
X53170883Y-91265000D01*
X52829117Y-91265000D01*
X52493919Y-91331675D01*
X52178169Y-91462463D01*
X51894002Y-91652337D01*
X51652337Y-91894002D01*
X51462463Y-92178169D01*
X51331675Y-92493919D01*
X51265000Y-92829117D01*
X50660000Y-92829117D01*
X50660000Y-90660000D01*
X109340001Y-90660000D01*
X109340000Y-127473056D01*
X109340000Y-127473056D01*
G37*
X109340000Y-127473056D02*
X109261937Y-127356226D01*
X109117774Y-127212063D01*
X108948256Y-127098795D01*
X108759898Y-127020774D01*
X108559939Y-126981000D01*
X108356061Y-126981000D01*
X108156102Y-127020774D01*
X107967744Y-127098795D01*
X107798226Y-127212063D01*
X107754289Y-127256000D01*
X107516858Y-127256000D01*
X107489502Y-127165820D01*
X107430537Y-127055506D01*
X107351185Y-126958815D01*
X107254494Y-126879463D01*
X107144180Y-126820498D01*
X107024482Y-126784188D01*
X106900000Y-126771928D01*
X104700000Y-126771928D01*
X104575518Y-126784188D01*
X104455820Y-126820498D01*
X104345506Y-126879463D01*
X104248815Y-126958815D01*
X104169463Y-127055506D01*
X104110498Y-127165820D01*
X104074188Y-127285518D01*
X104061928Y-127410000D01*
X104061928Y-128610000D01*
X104074188Y-128734482D01*
X104110498Y-128854180D01*
X104169463Y-128964494D01*
X104248815Y-129061185D01*
X104345506Y-129140537D01*
X104455820Y-129199502D01*
X104575518Y-129235812D01*
X104700000Y-129248072D01*
X106900000Y-129248072D01*
X107024482Y-129235812D01*
X107144180Y-129199502D01*
X107254494Y-129140537D01*
X107351185Y-129061185D01*
X107430537Y-128964494D01*
X107489502Y-128854180D01*
X107513218Y-128776000D01*
X107754289Y-128776000D01*
X107798226Y-128819937D01*
X107967744Y-128933205D01*
X108156102Y-129011226D01*
X108356061Y-129051000D01*
X108559939Y-129051000D01*
X108759898Y-129011226D01*
X108948256Y-128933205D01*
X109117774Y-128819937D01*
X109261937Y-128675774D01*
X109340000Y-128558944D01*
X109340000Y-139340000D01*
X50660000Y-139340000D01*
X50660000Y-136829117D01*
X64265000Y-136829117D01*
X64265000Y-137170883D01*
X64331675Y-137506081D01*
X64462463Y-137821831D01*
X64652337Y-138105998D01*
X64894002Y-138347663D01*
X65178169Y-138537537D01*
X65493919Y-138668325D01*
X65829117Y-138735000D01*
X66170883Y-138735000D01*
X66506081Y-138668325D01*
X66821831Y-138537537D01*
X67105998Y-138347663D01*
X67347663Y-138105998D01*
X67537537Y-137821831D01*
X67668325Y-137506081D01*
X67735000Y-137170883D01*
X67735000Y-136829117D01*
X92265000Y-136829117D01*
X92265000Y-137170883D01*
X92331675Y-137506081D01*
X92462463Y-137821831D01*
X92652337Y-138105998D01*
X92894002Y-138347663D01*
X93178169Y-138537537D01*
X93493919Y-138668325D01*
X93829117Y-138735000D01*
X94170883Y-138735000D01*
X94506081Y-138668325D01*
X94821831Y-138537537D01*
X95105998Y-138347663D01*
X95347663Y-138105998D01*
X95537537Y-137821831D01*
X95668325Y-137506081D01*
X95735000Y-137170883D01*
X95735000Y-136829117D01*
X95668325Y-136493919D01*
X95537537Y-136178169D01*
X95347663Y-135894002D01*
X95105998Y-135652337D01*
X94821831Y-135462463D01*
X94506081Y-135331675D01*
X94170883Y-135265000D01*
X93829117Y-135265000D01*
X93493919Y-135331675D01*
X93178169Y-135462463D01*
X92894002Y-135652337D01*
X92652337Y-135894002D01*
X92462463Y-136178169D01*
X92331675Y-136493919D01*
X92265000Y-136829117D01*
X67735000Y-136829117D01*
X67668325Y-136493919D01*
X67537537Y-136178169D01*
X67347663Y-135894002D01*
X67105998Y-135652337D01*
X66821831Y-135462463D01*
X66506081Y-135331675D01*
X66170883Y-135265000D01*
X65829117Y-135265000D01*
X65493919Y-135331675D01*
X65178169Y-135462463D01*
X64894002Y-135652337D01*
X64652337Y-135894002D01*
X64462463Y-136178169D01*
X64331675Y-136493919D01*
X64265000Y-136829117D01*
X50660000Y-136829117D01*
X50660000Y-134361760D01*
X55098645Y-134361760D01*
X55160532Y-134597568D01*
X55402390Y-134710466D01*
X55661627Y-134774011D01*
X55928280Y-134785761D01*
X56192101Y-134745263D01*
X56442953Y-134654075D01*
X56548668Y-134597568D01*
X56610555Y-134361760D01*
X55854600Y-133605805D01*
X55098645Y-134361760D01*
X50660000Y-134361760D01*
X50660000Y-133499880D01*
X54495039Y-133499880D01*
X54535537Y-133763701D01*
X54626725Y-134014553D01*
X54683232Y-134120268D01*
X54919040Y-134182155D01*
X55674995Y-133426200D01*
X56034205Y-133426200D01*
X56790160Y-134182155D01*
X57025968Y-134120268D01*
X57126364Y-133905193D01*
X57193815Y-134068033D01*
X57342103Y-134289962D01*
X57530838Y-134478697D01*
X57752767Y-134626985D01*
X57999361Y-134729128D01*
X58261144Y-134781200D01*
X58528056Y-134781200D01*
X58789839Y-134729128D01*
X59036433Y-134626985D01*
X59258362Y-134478697D01*
X59447097Y-134289962D01*
X59595385Y-134068033D01*
X59664600Y-133900934D01*
X59733815Y-134068033D01*
X59882103Y-134289962D01*
X60070838Y-134478697D01*
X60292767Y-134626985D01*
X60539361Y-134729128D01*
X60801144Y-134781200D01*
X61068056Y-134781200D01*
X61329839Y-134729128D01*
X61576433Y-134626985D01*
X61798362Y-134478697D01*
X61987097Y-134289962D01*
X62135385Y-134068033D01*
X62237528Y-133821439D01*
X62289600Y-133559656D01*
X62289600Y-133292744D01*
X62274443Y-133216544D01*
X97679600Y-133216544D01*
X97679600Y-133483456D01*
X97731672Y-133745239D01*
X97833815Y-133991833D01*
X97982103Y-134213762D01*
X98170838Y-134402497D01*
X98392767Y-134550785D01*
X98639361Y-134652928D01*
X98901144Y-134705000D01*
X99168056Y-134705000D01*
X99429839Y-134652928D01*
X99676433Y-134550785D01*
X99898362Y-134402497D01*
X100087097Y-134213762D01*
X100235385Y-133991833D01*
X100304600Y-133824734D01*
X100373815Y-133991833D01*
X100522103Y-134213762D01*
X100710838Y-134402497D01*
X100932767Y-134550785D01*
X101179361Y-134652928D01*
X101441144Y-134705000D01*
X101708056Y-134705000D01*
X101969839Y-134652928D01*
X102216433Y-134550785D01*
X102438362Y-134402497D01*
X102555299Y-134285560D01*
X103358645Y-134285560D01*
X103420532Y-134521368D01*
X103662390Y-134634266D01*
X103921627Y-134697811D01*
X104188280Y-134709561D01*
X104452101Y-134669063D01*
X104702953Y-134577875D01*
X104808668Y-134521368D01*
X104870555Y-134285560D01*
X104114600Y-133529605D01*
X103358645Y-134285560D01*
X102555299Y-134285560D01*
X102627097Y-134213762D01*
X102775385Y-133991833D01*
X102845038Y-133823676D01*
X102886725Y-133938353D01*
X102943232Y-134044068D01*
X103179040Y-134105955D01*
X103934995Y-133350000D01*
X104294205Y-133350000D01*
X105050160Y-134105955D01*
X105285968Y-134044068D01*
X105398866Y-133802210D01*
X105462411Y-133542973D01*
X105474161Y-133276320D01*
X105433663Y-133012499D01*
X105342475Y-132761647D01*
X105285968Y-132655932D01*
X105050160Y-132594045D01*
X104294205Y-133350000D01*
X103934995Y-133350000D01*
X103179040Y-132594045D01*
X102943232Y-132655932D01*
X102842836Y-132871007D01*
X102775385Y-132708167D01*
X102627097Y-132486238D01*
X102555299Y-132414440D01*
X103358645Y-132414440D01*
X104114600Y-133170395D01*
X104870555Y-132414440D01*
X104808668Y-132178632D01*
X104566810Y-132065734D01*
X104307573Y-132002189D01*
X104040920Y-131990439D01*
X103777099Y-132030937D01*
X103526247Y-132122125D01*
X103420532Y-132178632D01*
X103358645Y-132414440D01*
X102555299Y-132414440D01*
X102438362Y-132297503D01*
X102216433Y-132149215D01*
X101969839Y-132047072D01*
X101708056Y-131995000D01*
X101441144Y-131995000D01*
X101179361Y-132047072D01*
X100932767Y-132149215D01*
X100710838Y-132297503D01*
X100522103Y-132486238D01*
X100373815Y-132708167D01*
X100304600Y-132875266D01*
X100235385Y-132708167D01*
X100087097Y-132486238D01*
X99898362Y-132297503D01*
X99676433Y-132149215D01*
X99429839Y-132047072D01*
X99168056Y-131995000D01*
X98901144Y-131995000D01*
X98639361Y-132047072D01*
X98392767Y-132149215D01*
X98170838Y-132297503D01*
X97982103Y-132486238D01*
X97833815Y-132708167D01*
X97731672Y-132954761D01*
X97679600Y-133216544D01*
X62274443Y-133216544D01*
X62237528Y-133030961D01*
X62135385Y-132784367D01*
X61987097Y-132562438D01*
X61798362Y-132373703D01*
X61576433Y-132225415D01*
X61329839Y-132123272D01*
X61068056Y-132071200D01*
X60801144Y-132071200D01*
X60539361Y-132123272D01*
X60292767Y-132225415D01*
X60070838Y-132373703D01*
X59882103Y-132562438D01*
X59733815Y-132784367D01*
X59664600Y-132951466D01*
X59595385Y-132784367D01*
X59447097Y-132562438D01*
X59258362Y-132373703D01*
X59036433Y-132225415D01*
X58789839Y-132123272D01*
X58528056Y-132071200D01*
X58261144Y-132071200D01*
X57999361Y-132123272D01*
X57752767Y-132225415D01*
X57530838Y-132373703D01*
X57342103Y-132562438D01*
X57193815Y-132784367D01*
X57124162Y-132952524D01*
X57082475Y-132837847D01*
X57025968Y-132732132D01*
X56790160Y-132670245D01*
X56034205Y-133426200D01*
X55674995Y-133426200D01*
X54919040Y-132670245D01*
X54683232Y-132732132D01*
X54570334Y-132973990D01*
X54506789Y-133233227D01*
X54495039Y-133499880D01*
X50660000Y-133499880D01*
X50660000Y-132490640D01*
X55098645Y-132490640D01*
X55854600Y-133246595D01*
X56610555Y-132490640D01*
X56548668Y-132254832D01*
X56306810Y-132141934D01*
X56047573Y-132078389D01*
X55780920Y-132066639D01*
X55517099Y-132107137D01*
X55266247Y-132198325D01*
X55160532Y-132254832D01*
X55098645Y-132490640D01*
X50660000Y-132490640D01*
X50660000Y-127340000D01*
X52481928Y-127340000D01*
X52494188Y-127464482D01*
X52530498Y-127584180D01*
X52589463Y-127694494D01*
X52668815Y-127791185D01*
X52765506Y-127870537D01*
X52875820Y-127929502D01*
X52995518Y-127965812D01*
X53120000Y-127978072D01*
X53934250Y-127975000D01*
X54093000Y-127816250D01*
X54093000Y-126867000D01*
X54347000Y-126867000D01*
X54347000Y-127816250D01*
X54505750Y-127975000D01*
X55320000Y-127978072D01*
X55444482Y-127965812D01*
X55564180Y-127929502D01*
X55674494Y-127870537D01*
X55771185Y-127791185D01*
X55850537Y-127694494D01*
X55909502Y-127584180D01*
X55945812Y-127464482D01*
X55958072Y-127340000D01*
X55955000Y-127025750D01*
X55796250Y-126867000D01*
X54347000Y-126867000D01*
X54093000Y-126867000D01*
X52643750Y-126867000D01*
X52485000Y-127025750D01*
X52481928Y-127340000D01*
X50660000Y-127340000D01*
X50660000Y-126140000D01*
X52481928Y-126140000D01*
X52485000Y-126454250D01*
X52643750Y-126613000D01*
X54093000Y-126613000D01*
X54093000Y-125663750D01*
X54347000Y-125663750D01*
X54347000Y-126613000D01*
X55796250Y-126613000D01*
X55955000Y-126454250D01*
X55958072Y-126140000D01*
X55945812Y-126015518D01*
X55909502Y-125895820D01*
X55850537Y-125785506D01*
X55771185Y-125688815D01*
X55674494Y-125609463D01*
X55564180Y-125550498D01*
X55444482Y-125514188D01*
X55320000Y-125501928D01*
X54505750Y-125505000D01*
X54347000Y-125663750D01*
X54093000Y-125663750D01*
X53934250Y-125505000D01*
X53120000Y-125501928D01*
X52995518Y-125514188D01*
X52875820Y-125550498D01*
X52765506Y-125609463D01*
X52668815Y-125688815D01*
X52589463Y-125785506D01*
X52530498Y-125895820D01*
X52494188Y-126015518D01*
X52481928Y-126140000D01*
X50660000Y-126140000D01*
X50660000Y-118824061D01*
X50781000Y-118824061D01*
X50781000Y-119027939D01*
X50820774Y-119227898D01*
X50898795Y-119416256D01*
X51012063Y-119585774D01*
X51156226Y-119729937D01*
X51325744Y-119843205D01*
X51514102Y-119921226D01*
X51714061Y-119961000D01*
X51776199Y-119961000D01*
X52830122Y-121014924D01*
X52765506Y-121049463D01*
X52668815Y-121128815D01*
X52589463Y-121225506D01*
X52530498Y-121335820D01*
X52494188Y-121455518D01*
X52481928Y-121580000D01*
X52481928Y-122780000D01*
X52494188Y-122904482D01*
X52530498Y-123024180D01*
X52589463Y-123134494D01*
X52668815Y-123231185D01*
X52765506Y-123310537D01*
X52875820Y-123369502D01*
X52995518Y-123405812D01*
X53120000Y-123418072D01*
X55320000Y-123418072D01*
X55444482Y-123405812D01*
X55564180Y-123369502D01*
X55674494Y-123310537D01*
X55771185Y-123231185D01*
X55850537Y-123134494D01*
X55909502Y-123024180D01*
X55945812Y-122904482D01*
X55958072Y-122780000D01*
X55958072Y-121580000D01*
X55945812Y-121455518D01*
X55909502Y-121335820D01*
X55850537Y-121225506D01*
X55771185Y-121128815D01*
X55674494Y-121049463D01*
X55564180Y-120990498D01*
X55444482Y-120954188D01*
X55320000Y-120941928D01*
X54874326Y-120941928D01*
X54854974Y-120905724D01*
X54795531Y-120833292D01*
X54783799Y-120818996D01*
X54783795Y-120818992D01*
X54760001Y-120789999D01*
X54731009Y-120766206D01*
X52851000Y-118886199D01*
X52851000Y-118824061D01*
X52811226Y-118624102D01*
X52733205Y-118435744D01*
X52619937Y-118266226D01*
X52576000Y-118222289D01*
X52576000Y-114143360D01*
X55098645Y-114143360D01*
X55160532Y-114379168D01*
X55402390Y-114492066D01*
X55661627Y-114555611D01*
X55928280Y-114567361D01*
X56192101Y-114526863D01*
X56442953Y-114435675D01*
X56548668Y-114379168D01*
X56610555Y-114143360D01*
X55854600Y-113387405D01*
X55098645Y-114143360D01*
X52576000Y-114143360D01*
X52576000Y-113281480D01*
X54495039Y-113281480D01*
X54535537Y-113545301D01*
X54626725Y-113796153D01*
X54683232Y-113901868D01*
X54919040Y-113963755D01*
X55674995Y-113207800D01*
X54919040Y-112451845D01*
X54683232Y-112513732D01*
X54570334Y-112755590D01*
X54506789Y-113014827D01*
X54495039Y-113281480D01*
X52576000Y-113281480D01*
X52576000Y-112272240D01*
X55098645Y-112272240D01*
X55854600Y-113028195D01*
X56610555Y-112272240D01*
X56548668Y-112036432D01*
X56306810Y-111923534D01*
X56047573Y-111859989D01*
X55780920Y-111848239D01*
X55517099Y-111888737D01*
X55266247Y-111979925D01*
X55160532Y-112036432D01*
X55098645Y-112272240D01*
X52576000Y-112272240D01*
X52576000Y-107349307D01*
X52589463Y-107374494D01*
X52668815Y-107471185D01*
X52765506Y-107550537D01*
X52875820Y-107609502D01*
X52995518Y-107645812D01*
X53120000Y-107658072D01*
X53934250Y-107655000D01*
X54093000Y-107496250D01*
X54093000Y-106547000D01*
X54347000Y-106547000D01*
X54347000Y-107496250D01*
X54505750Y-107655000D01*
X55320000Y-107658072D01*
X55444482Y-107645812D01*
X55564180Y-107609502D01*
X55674494Y-107550537D01*
X55771185Y-107471185D01*
X55850537Y-107374494D01*
X55909502Y-107264180D01*
X55945812Y-107144482D01*
X55958072Y-107020000D01*
X55955000Y-106705750D01*
X55796250Y-106547000D01*
X54347000Y-106547000D01*
X54093000Y-106547000D01*
X54073000Y-106547000D01*
X54073000Y-106293000D01*
X54093000Y-106293000D01*
X54093000Y-105343750D01*
X54347000Y-105343750D01*
X54347000Y-106293000D01*
X55796250Y-106293000D01*
X55955000Y-106134250D01*
X55958072Y-105820000D01*
X55945812Y-105695518D01*
X55909502Y-105575820D01*
X55850537Y-105465506D01*
X55771185Y-105368815D01*
X55674494Y-105289463D01*
X55564180Y-105230498D01*
X55444482Y-105194188D01*
X55320000Y-105181928D01*
X54505750Y-105185000D01*
X54347000Y-105343750D01*
X54093000Y-105343750D01*
X53934250Y-105185000D01*
X53120000Y-105181928D01*
X52995518Y-105194188D01*
X52875820Y-105230498D01*
X52765506Y-105289463D01*
X52668815Y-105368815D01*
X52589463Y-105465506D01*
X52576000Y-105490693D01*
X52576000Y-103228801D01*
X52797280Y-103007521D01*
X52875820Y-103049502D01*
X52995518Y-103085812D01*
X53120000Y-103098072D01*
X55320000Y-103098072D01*
X55444482Y-103085812D01*
X55564180Y-103049502D01*
X55674494Y-102990537D01*
X55771185Y-102911185D01*
X55850537Y-102814494D01*
X55909502Y-102704180D01*
X55945812Y-102584482D01*
X55958072Y-102460000D01*
X55958072Y-101260000D01*
X55945812Y-101135518D01*
X55909502Y-101015820D01*
X55850537Y-100905506D01*
X55771185Y-100808815D01*
X55674494Y-100729463D01*
X55609877Y-100694924D01*
X56180002Y-100124800D01*
X57360689Y-100124800D01*
X57404626Y-100168737D01*
X57574144Y-100282005D01*
X57762502Y-100360026D01*
X57962461Y-100399800D01*
X58166339Y-100399800D01*
X58366298Y-100360026D01*
X58554656Y-100282005D01*
X58724174Y-100168737D01*
X58768111Y-100124800D01*
X60813482Y-100124800D01*
X60897285Y-100226915D01*
X61027125Y-100333471D01*
X61175258Y-100412650D01*
X61335992Y-100461408D01*
X61503150Y-100477872D01*
X61940650Y-100477872D01*
X62107808Y-100461408D01*
X62268542Y-100412650D01*
X62416675Y-100333471D01*
X62509400Y-100257374D01*
X62602125Y-100333471D01*
X62750258Y-100412650D01*
X62910992Y-100461408D01*
X63078150Y-100477872D01*
X63335171Y-100477872D01*
X63459227Y-100601928D01*
X57320000Y-100601928D01*
X57195518Y-100614188D01*
X57075820Y-100650498D01*
X56965506Y-100709463D01*
X56868815Y-100788815D01*
X56789463Y-100885506D01*
X56730498Y-100995820D01*
X56694188Y-101115518D01*
X56681928Y-101240000D01*
X56681928Y-107040000D01*
X56694188Y-107164482D01*
X56730498Y-107284180D01*
X56789463Y-107394494D01*
X56868815Y-107491185D01*
X56965506Y-107570537D01*
X57075820Y-107629502D01*
X57195518Y-107665812D01*
X57320000Y-107678072D01*
X59135000Y-107678072D01*
X59135000Y-108406971D01*
X59128300Y-108475000D01*
X59135000Y-108543029D01*
X59135000Y-108543036D01*
X59147842Y-108673420D01*
X59155040Y-108746507D01*
X59211491Y-108932600D01*
X59234236Y-109007580D01*
X59362843Y-109248187D01*
X59380746Y-109270002D01*
X59481372Y-109392614D01*
X59535919Y-109459080D01*
X59588765Y-109502450D01*
X65215950Y-115129636D01*
X65259319Y-115182481D01*
X65312164Y-115225850D01*
X65312166Y-115225852D01*
X65319993Y-115232275D01*
X65470212Y-115355557D01*
X65710819Y-115484164D01*
X65971892Y-115563360D01*
X65988554Y-115565001D01*
X66175363Y-115583400D01*
X66175371Y-115583400D01*
X66243400Y-115590100D01*
X66311429Y-115583400D01*
X66337899Y-115583400D01*
X66392215Y-115649585D01*
X66488906Y-115728937D01*
X66599220Y-115787902D01*
X66718918Y-115824212D01*
X66843400Y-115836472D01*
X68843400Y-115836472D01*
X68967882Y-115824212D01*
X69087580Y-115787902D01*
X69197894Y-115728937D01*
X69294585Y-115649585D01*
X69373556Y-115553358D01*
X69874798Y-116054600D01*
X62316203Y-116054600D01*
X60824402Y-114562800D01*
X61068056Y-114562800D01*
X61329839Y-114510728D01*
X61576433Y-114408585D01*
X61798362Y-114260297D01*
X61987097Y-114071562D01*
X62135385Y-113849633D01*
X62237528Y-113603039D01*
X62289600Y-113341256D01*
X62289600Y-113074344D01*
X62237528Y-112812561D01*
X62135385Y-112565967D01*
X61987097Y-112344038D01*
X61798362Y-112155303D01*
X61576433Y-112007015D01*
X61329839Y-111904872D01*
X61068056Y-111852800D01*
X60801144Y-111852800D01*
X60539361Y-111904872D01*
X60292767Y-112007015D01*
X60070838Y-112155303D01*
X59882103Y-112344038D01*
X59733815Y-112565967D01*
X59664600Y-112733066D01*
X59595385Y-112565967D01*
X59447097Y-112344038D01*
X59258362Y-112155303D01*
X59036433Y-112007015D01*
X58789839Y-111904872D01*
X58528056Y-111852800D01*
X58261144Y-111852800D01*
X57999361Y-111904872D01*
X57752767Y-112007015D01*
X57530838Y-112155303D01*
X57342103Y-112344038D01*
X57193815Y-112565967D01*
X57124162Y-112734124D01*
X57082475Y-112619447D01*
X57025968Y-112513732D01*
X56790160Y-112451845D01*
X56034205Y-113207800D01*
X56790160Y-113963755D01*
X57025968Y-113901868D01*
X57126364Y-113686793D01*
X57193815Y-113849633D01*
X57342103Y-114071562D01*
X57530838Y-114260297D01*
X57752767Y-114408585D01*
X57999361Y-114510728D01*
X58261144Y-114562800D01*
X58528056Y-114562800D01*
X58650452Y-114538454D01*
X61437605Y-117325608D01*
X61461399Y-117354601D01*
X61490392Y-117378395D01*
X61490396Y-117378399D01*
X61546542Y-117424476D01*
X61577124Y-117449574D01*
X61709153Y-117520146D01*
X61852414Y-117563603D01*
X61964067Y-117574600D01*
X61964076Y-117574600D01*
X62001399Y-117578276D01*
X62038722Y-117574600D01*
X72278399Y-117574600D01*
X74418797Y-119715000D01*
X69387932Y-119715000D01*
X69342000Y-119710476D01*
X69202782Y-119724188D01*
X69158708Y-119728529D01*
X68982460Y-119781993D01*
X68820028Y-119868814D01*
X68677656Y-119985656D01*
X68648370Y-120021341D01*
X67524311Y-121145400D01*
X67270265Y-121145400D01*
X66993026Y-121200547D01*
X66731873Y-121308720D01*
X66496841Y-121465763D01*
X66296963Y-121665641D01*
X66139920Y-121900673D01*
X66031747Y-122161826D01*
X65976600Y-122439065D01*
X65976600Y-122721735D01*
X66031747Y-122998974D01*
X66139920Y-123260127D01*
X66296963Y-123495159D01*
X66496841Y-123695037D01*
X66731873Y-123852080D01*
X66993026Y-123960253D01*
X67270265Y-124015400D01*
X67552935Y-124015400D01*
X67830174Y-123960253D01*
X68091327Y-123852080D01*
X68326359Y-123695037D01*
X68526237Y-123495159D01*
X68683280Y-123260127D01*
X68685250Y-123255371D01*
X68752668Y-123381501D01*
X68931992Y-123600008D01*
X69016600Y-123669444D01*
X69016601Y-129051109D01*
X68895782Y-129171928D01*
X67580000Y-129171928D01*
X67455518Y-129184188D01*
X67335820Y-129220498D01*
X67225506Y-129279463D01*
X67128815Y-129358815D01*
X67074499Y-129425000D01*
X63943686Y-129425000D01*
X62516757Y-127998072D01*
X63720000Y-127998072D01*
X63844482Y-127985812D01*
X63964180Y-127949502D01*
X64074494Y-127890537D01*
X64171185Y-127811185D01*
X64250537Y-127714494D01*
X64309502Y-127604180D01*
X64345812Y-127484482D01*
X64358072Y-127360000D01*
X64358072Y-121560000D01*
X64345812Y-121435518D01*
X64309502Y-121315820D01*
X64250537Y-121205506D01*
X64171185Y-121108815D01*
X64074494Y-121029463D01*
X63964180Y-120970498D01*
X63844482Y-120934188D01*
X63720000Y-120921928D01*
X57320000Y-120921928D01*
X57195518Y-120934188D01*
X57075820Y-120970498D01*
X56965506Y-121029463D01*
X56868815Y-121108815D01*
X56789463Y-121205506D01*
X56730498Y-121315820D01*
X56694188Y-121435518D01*
X56681928Y-121560000D01*
X56681928Y-127360000D01*
X56694188Y-127484482D01*
X56730498Y-127604180D01*
X56789463Y-127714494D01*
X56868815Y-127811185D01*
X56965506Y-127890537D01*
X57075820Y-127949502D01*
X57195518Y-127985812D01*
X57320000Y-127998072D01*
X59132050Y-127998072D01*
X59135000Y-128028029D01*
X59135000Y-128028036D01*
X59155040Y-128231506D01*
X59234236Y-128492580D01*
X59362843Y-128733187D01*
X59388953Y-128765002D01*
X59479766Y-128875657D01*
X59535919Y-128944080D01*
X59588765Y-128987450D01*
X62342550Y-131741236D01*
X62385919Y-131794081D01*
X62438764Y-131837450D01*
X62438766Y-131837452D01*
X62570317Y-131945413D01*
X62596812Y-131967157D01*
X62837419Y-132095764D01*
X63098493Y-132174960D01*
X63301963Y-132195000D01*
X63301971Y-132195000D01*
X63370000Y-132201700D01*
X63438029Y-132195000D01*
X67074499Y-132195000D01*
X67128815Y-132261185D01*
X67225506Y-132340537D01*
X67335820Y-132399502D01*
X67455518Y-132435812D01*
X67580000Y-132448072D01*
X69580000Y-132448072D01*
X69704482Y-132435812D01*
X69824180Y-132399502D01*
X69934494Y-132340537D01*
X70031185Y-132261185D01*
X70110537Y-132164494D01*
X70169502Y-132054180D01*
X70202496Y-131945413D01*
X72624192Y-131945413D01*
X72719956Y-132209814D01*
X73009571Y-132350704D01*
X73321108Y-132432384D01*
X73642595Y-132451718D01*
X73961675Y-132407961D01*
X74266088Y-132302795D01*
X74440044Y-132209814D01*
X74535808Y-131945413D01*
X85484192Y-131945413D01*
X85579956Y-132209814D01*
X85869571Y-132350704D01*
X86181108Y-132432384D01*
X86502595Y-132451718D01*
X86821675Y-132407961D01*
X87126088Y-132302795D01*
X87300044Y-132209814D01*
X87395808Y-131945413D01*
X86440000Y-130989605D01*
X85484192Y-131945413D01*
X74535808Y-131945413D01*
X73580000Y-130989605D01*
X72624192Y-131945413D01*
X70202496Y-131945413D01*
X70205812Y-131934482D01*
X70218072Y-131810000D01*
X70218072Y-130872595D01*
X71938282Y-130872595D01*
X71982039Y-131191675D01*
X72087205Y-131496088D01*
X72180186Y-131670044D01*
X72444587Y-131765808D01*
X73400395Y-130810000D01*
X73759605Y-130810000D01*
X74715413Y-131765808D01*
X74979814Y-131670044D01*
X75120704Y-131380429D01*
X75202384Y-131068892D01*
X75214189Y-130872595D01*
X84798282Y-130872595D01*
X84842039Y-131191675D01*
X84947205Y-131496088D01*
X85040186Y-131670044D01*
X85304587Y-131765808D01*
X86260395Y-130810000D01*
X86619605Y-130810000D01*
X87575413Y-131765808D01*
X87839814Y-131670044D01*
X87980704Y-131380429D01*
X88062384Y-131068892D01*
X88081718Y-130747405D01*
X88037961Y-130428325D01*
X87932795Y-130123912D01*
X87839814Y-129949956D01*
X87575413Y-129854192D01*
X86619605Y-130810000D01*
X86260395Y-130810000D01*
X85304587Y-129854192D01*
X85040186Y-129949956D01*
X84899296Y-130239571D01*
X84817616Y-130551108D01*
X84798282Y-130872595D01*
X75214189Y-130872595D01*
X75221718Y-130747405D01*
X75177961Y-130428325D01*
X75072795Y-130123912D01*
X74979814Y-129949956D01*
X74715413Y-129854192D01*
X73759605Y-130810000D01*
X73400395Y-130810000D01*
X72444587Y-129854192D01*
X72180186Y-129949956D01*
X72039296Y-130239571D01*
X71957616Y-130551108D01*
X71938282Y-130872595D01*
X70218072Y-130872595D01*
X70218072Y-130494218D01*
X70580264Y-130132026D01*
X70615944Y-130102744D01*
X70732786Y-129960372D01*
X70819607Y-129797940D01*
X70857026Y-129674587D01*
X72624192Y-129674587D01*
X73580000Y-130630395D01*
X74535808Y-129674587D01*
X85484192Y-129674587D01*
X86440000Y-130630395D01*
X87395808Y-129674587D01*
X87300044Y-129410186D01*
X87010429Y-129269296D01*
X86698892Y-129187616D01*
X86377405Y-129168282D01*
X86058325Y-129212039D01*
X85753912Y-129317205D01*
X85579956Y-129410186D01*
X85484192Y-129674587D01*
X74535808Y-129674587D01*
X74440044Y-129410186D01*
X74150429Y-129269296D01*
X73838892Y-129187616D01*
X73517405Y-129168282D01*
X73198325Y-129212039D01*
X72893912Y-129317205D01*
X72719956Y-129410186D01*
X72624192Y-129674587D01*
X70857026Y-129674587D01*
X70873071Y-129621693D01*
X70891124Y-129438401D01*
X70886600Y-129392469D01*
X70886600Y-123669444D01*
X70971208Y-123600008D01*
X71150532Y-123381501D01*
X71172501Y-123340400D01*
X71465599Y-123340400D01*
X71826200Y-123701002D01*
X71849999Y-123730001D01*
X71965724Y-123824974D01*
X72097753Y-123895546D01*
X72241014Y-123939003D01*
X72342474Y-123948996D01*
X72390000Y-123953677D01*
X72427333Y-123950000D01*
X75960130Y-123950000D01*
X75934188Y-124035518D01*
X75921928Y-124160000D01*
X75921928Y-124760000D01*
X75934188Y-124884482D01*
X75970498Y-125004180D01*
X76029463Y-125114494D01*
X76108815Y-125211185D01*
X76205506Y-125290537D01*
X76315820Y-125349502D01*
X76435518Y-125385812D01*
X76560000Y-125398072D01*
X78060000Y-125398072D01*
X78184482Y-125385812D01*
X78304180Y-125349502D01*
X78414494Y-125290537D01*
X78511185Y-125211185D01*
X78530871Y-125187197D01*
X78602247Y-125165546D01*
X78734276Y-125094974D01*
X78850001Y-125000001D01*
X78873804Y-124970997D01*
X80377666Y-123467136D01*
X80378597Y-123476585D01*
X80407085Y-123570498D01*
X80422054Y-123619846D01*
X80492626Y-123751876D01*
X80515159Y-123779332D01*
X80587599Y-123867601D01*
X80616602Y-123891403D01*
X81321928Y-124596730D01*
X81321928Y-124760000D01*
X81334188Y-124884482D01*
X81370498Y-125004180D01*
X81429463Y-125114494D01*
X81508815Y-125211185D01*
X81605506Y-125290537D01*
X81715820Y-125349502D01*
X81835518Y-125385812D01*
X81960000Y-125398072D01*
X83460000Y-125398072D01*
X83584482Y-125385812D01*
X83704180Y-125349502D01*
X83814494Y-125290537D01*
X83911185Y-125211185D01*
X83990537Y-125114494D01*
X84049502Y-125004180D01*
X84085812Y-124884482D01*
X84098072Y-124760000D01*
X84098072Y-124160000D01*
X84085812Y-124035518D01*
X84059870Y-123950000D01*
X88862678Y-123950000D01*
X88900000Y-123953676D01*
X88937322Y-123950000D01*
X88937333Y-123950000D01*
X89048986Y-123939003D01*
X89192247Y-123895546D01*
X89235000Y-123872694D01*
X89235001Y-129494058D01*
X89230476Y-129540000D01*
X89248529Y-129723291D01*
X89260448Y-129762581D01*
X89301994Y-129899540D01*
X89388815Y-130061972D01*
X89505657Y-130204344D01*
X89541336Y-130233625D01*
X89801928Y-130494217D01*
X89801928Y-131810000D01*
X89814188Y-131934482D01*
X89850498Y-132054180D01*
X89909463Y-132164494D01*
X89988815Y-132261185D01*
X90085506Y-132340537D01*
X90195820Y-132399502D01*
X90315518Y-132435812D01*
X90440000Y-132448072D01*
X92440000Y-132448072D01*
X92564482Y-132435812D01*
X92684180Y-132399502D01*
X92794494Y-132340537D01*
X92891185Y-132261185D01*
X92945501Y-132195000D01*
X97851971Y-132195000D01*
X97920000Y-132201700D01*
X97988029Y-132195000D01*
X97988037Y-132195000D01*
X98191507Y-132174960D01*
X98452581Y-132095764D01*
X98693188Y-131967157D01*
X98904081Y-131794081D01*
X98947454Y-131741231D01*
X100431241Y-130257445D01*
X100484080Y-130214081D01*
X100527445Y-130161241D01*
X100527452Y-130161234D01*
X100657156Y-130003189D01*
X100657157Y-130003188D01*
X100785764Y-129762581D01*
X100864960Y-129501507D01*
X100885000Y-129298037D01*
X100885000Y-129298028D01*
X100887950Y-129268072D01*
X102700000Y-129268072D01*
X102824482Y-129255812D01*
X102944180Y-129219502D01*
X103054494Y-129160537D01*
X103151185Y-129081185D01*
X103230537Y-128984494D01*
X103289502Y-128874180D01*
X103325812Y-128754482D01*
X103338072Y-128630000D01*
X103338072Y-124050000D01*
X104061928Y-124050000D01*
X104074188Y-124174482D01*
X104110498Y-124294180D01*
X104169463Y-124404494D01*
X104248815Y-124501185D01*
X104345506Y-124580537D01*
X104455820Y-124639502D01*
X104575518Y-124675812D01*
X104700000Y-124688072D01*
X105514250Y-124685000D01*
X105673000Y-124526250D01*
X105673000Y-123577000D01*
X105927000Y-123577000D01*
X105927000Y-124526250D01*
X106085750Y-124685000D01*
X106900000Y-124688072D01*
X107024482Y-124675812D01*
X107144180Y-124639502D01*
X107254494Y-124580537D01*
X107351185Y-124501185D01*
X107430537Y-124404494D01*
X107489502Y-124294180D01*
X107525812Y-124174482D01*
X107538072Y-124050000D01*
X107535000Y-123735750D01*
X107376250Y-123577000D01*
X105927000Y-123577000D01*
X105673000Y-123577000D01*
X104223750Y-123577000D01*
X104065000Y-123735750D01*
X104061928Y-124050000D01*
X103338072Y-124050000D01*
X103338072Y-122850000D01*
X104061928Y-122850000D01*
X104065000Y-123164250D01*
X104223750Y-123323000D01*
X105673000Y-123323000D01*
X105673000Y-122373750D01*
X105927000Y-122373750D01*
X105927000Y-123323000D01*
X107376250Y-123323000D01*
X107535000Y-123164250D01*
X107538072Y-122850000D01*
X107525812Y-122725518D01*
X107489502Y-122605820D01*
X107430537Y-122495506D01*
X107351185Y-122398815D01*
X107254494Y-122319463D01*
X107144180Y-122260498D01*
X107024482Y-122224188D01*
X106900000Y-122211928D01*
X106085750Y-122215000D01*
X105927000Y-122373750D01*
X105673000Y-122373750D01*
X105514250Y-122215000D01*
X104700000Y-122211928D01*
X104575518Y-122224188D01*
X104455820Y-122260498D01*
X104345506Y-122319463D01*
X104248815Y-122398815D01*
X104169463Y-122495506D01*
X104110498Y-122605820D01*
X104074188Y-122725518D01*
X104061928Y-122850000D01*
X103338072Y-122850000D01*
X103338072Y-122830000D01*
X103325812Y-122705518D01*
X103289502Y-122585820D01*
X103230537Y-122475506D01*
X103151185Y-122378815D01*
X103054494Y-122299463D01*
X102944180Y-122240498D01*
X102824482Y-122204188D01*
X102700000Y-122191928D01*
X100964861Y-122191928D01*
X103524159Y-119632630D01*
X103559844Y-119603344D01*
X103676686Y-119460972D01*
X103745264Y-119332671D01*
X103763507Y-119298541D01*
X103816972Y-119122292D01*
X103818561Y-119106157D01*
X103826671Y-119096275D01*
X103905850Y-118948142D01*
X103954608Y-118787408D01*
X103971072Y-118620250D01*
X103971072Y-118107750D01*
X103954608Y-117940592D01*
X103905850Y-117779858D01*
X103826671Y-117631725D01*
X103805000Y-117605319D01*
X103805000Y-116723725D01*
X103925134Y-116625134D01*
X103949607Y-116595313D01*
X103970498Y-116664180D01*
X104029463Y-116774494D01*
X104108815Y-116871185D01*
X104205506Y-116950537D01*
X104315820Y-117009502D01*
X104435518Y-117045812D01*
X104560000Y-117058072D01*
X106260000Y-117058072D01*
X106384482Y-117045812D01*
X106504180Y-117009502D01*
X106614494Y-116950537D01*
X106711185Y-116871185D01*
X106790537Y-116774494D01*
X106849502Y-116664180D01*
X106885812Y-116544482D01*
X106898072Y-116420000D01*
X106898072Y-114720000D01*
X106885812Y-114595518D01*
X106849502Y-114475820D01*
X106790537Y-114365506D01*
X106711185Y-114268815D01*
X106614494Y-114189463D01*
X106504180Y-114130498D01*
X106384482Y-114094188D01*
X106260000Y-114081928D01*
X104560000Y-114081928D01*
X104435518Y-114094188D01*
X104315820Y-114130498D01*
X104205506Y-114189463D01*
X104108815Y-114268815D01*
X104029463Y-114365506D01*
X103970498Y-114475820D01*
X103949607Y-114544687D01*
X103925134Y-114514866D01*
X103699014Y-114329294D01*
X103441034Y-114191401D01*
X103161111Y-114106487D01*
X102942950Y-114085000D01*
X102797050Y-114085000D01*
X102578889Y-114106487D01*
X102298966Y-114191401D01*
X102040986Y-114329294D01*
X101814866Y-114514866D01*
X101629294Y-114740986D01*
X101600000Y-114795791D01*
X101570706Y-114740986D01*
X101385134Y-114514866D01*
X101159014Y-114329294D01*
X100901034Y-114191401D01*
X100621111Y-114106487D01*
X100402950Y-114085000D01*
X100257050Y-114085000D01*
X100038889Y-114106487D01*
X99758966Y-114191401D01*
X99500986Y-114329294D01*
X99274866Y-114514866D01*
X99089294Y-114740986D01*
X99060000Y-114795791D01*
X99030706Y-114740986D01*
X98845134Y-114514866D01*
X98619014Y-114329294D01*
X98361034Y-114191401D01*
X98081111Y-114106487D01*
X97862950Y-114085000D01*
X97717050Y-114085000D01*
X97498889Y-114106487D01*
X97218966Y-114191401D01*
X96960986Y-114329294D01*
X96734866Y-114514866D01*
X96549294Y-114740986D01*
X96520000Y-114795791D01*
X96490706Y-114740986D01*
X96305134Y-114514866D01*
X96079014Y-114329294D01*
X95821034Y-114191401D01*
X95541111Y-114106487D01*
X95322950Y-114085000D01*
X95177050Y-114085000D01*
X94958889Y-114106487D01*
X94678966Y-114191401D01*
X94420986Y-114329294D01*
X94194866Y-114514866D01*
X94009294Y-114740986D01*
X93974799Y-114805523D01*
X93905178Y-114688645D01*
X93710269Y-114472412D01*
X93476920Y-114298359D01*
X93214099Y-114173175D01*
X93066890Y-114128524D01*
X92837000Y-114249845D01*
X92837000Y-115443000D01*
X92857000Y-115443000D01*
X92857000Y-115697000D01*
X92837000Y-115697000D01*
X92837000Y-116890155D01*
X93066890Y-117011476D01*
X93214099Y-116966825D01*
X93476920Y-116841641D01*
X93710269Y-116667588D01*
X93905178Y-116451355D01*
X93974799Y-116334477D01*
X94009294Y-116399014D01*
X94194866Y-116625134D01*
X94420986Y-116810706D01*
X94678966Y-116948599D01*
X94958889Y-117033513D01*
X95177050Y-117055000D01*
X95322950Y-117055000D01*
X95541111Y-117033513D01*
X95821034Y-116948599D01*
X96079014Y-116810706D01*
X96305134Y-116625134D01*
X96490706Y-116399014D01*
X96520000Y-116344209D01*
X96549294Y-116399014D01*
X96734866Y-116625134D01*
X96960986Y-116810706D01*
X97218966Y-116948599D01*
X97498889Y-117033513D01*
X97717050Y-117055000D01*
X97862950Y-117055000D01*
X98081111Y-117033513D01*
X98361034Y-116948599D01*
X98619014Y-116810706D01*
X98845134Y-116625134D01*
X99030706Y-116399014D01*
X99060000Y-116344209D01*
X99089294Y-116399014D01*
X99274866Y-116625134D01*
X99500986Y-116810706D01*
X99758966Y-116948599D01*
X100038889Y-117033513D01*
X100257050Y-117055000D01*
X100402950Y-117055000D01*
X100621111Y-117033513D01*
X100901034Y-116948599D01*
X101159014Y-116810706D01*
X101385134Y-116625134D01*
X101570706Y-116399014D01*
X101600000Y-116344209D01*
X101629294Y-116399014D01*
X101814866Y-116625134D01*
X101935000Y-116723726D01*
X101935001Y-117279119D01*
X101882482Y-117263188D01*
X101758000Y-117250928D01*
X101606250Y-117254000D01*
X101447500Y-117412750D01*
X101447500Y-118237000D01*
X101467500Y-118237000D01*
X101467500Y-118491000D01*
X101447500Y-118491000D01*
X101447500Y-118511000D01*
X101193500Y-118511000D01*
X101193500Y-118491000D01*
X100406750Y-118491000D01*
X100248000Y-118649750D01*
X100244928Y-118839000D01*
X100257188Y-118963482D01*
X100293498Y-119083180D01*
X100352463Y-119193494D01*
X100431815Y-119290185D01*
X100528506Y-119369537D01*
X100638820Y-119428502D01*
X100758518Y-119464812D01*
X100883000Y-119477072D01*
X101034750Y-119474000D01*
X101193498Y-119315252D01*
X101193498Y-119318713D01*
X99527211Y-120985000D01*
X93804396Y-120985000D01*
X93624759Y-120805363D01*
X93389727Y-120648320D01*
X93128574Y-120540147D01*
X92851335Y-120485000D01*
X92568665Y-120485000D01*
X92386114Y-120521312D01*
X91692000Y-119827199D01*
X91692000Y-117889000D01*
X100244928Y-117889000D01*
X100248000Y-118078250D01*
X100406750Y-118237000D01*
X101193500Y-118237000D01*
X101193500Y-117412750D01*
X101034750Y-117254000D01*
X100883000Y-117250928D01*
X100758518Y-117263188D01*
X100638820Y-117299498D01*
X100528506Y-117358463D01*
X100431815Y-117437815D01*
X100352463Y-117534506D01*
X100293498Y-117644820D01*
X100257188Y-117764518D01*
X100244928Y-117889000D01*
X91692000Y-117889000D01*
X91692000Y-116647917D01*
X91709731Y-116667588D01*
X91943080Y-116841641D01*
X92205901Y-116966825D01*
X92353110Y-117011476D01*
X92583000Y-116890155D01*
X92583000Y-115697000D01*
X92563000Y-115697000D01*
X92563000Y-115443000D01*
X92583000Y-115443000D01*
X92583000Y-114249845D01*
X92353110Y-114128524D01*
X92205901Y-114173175D01*
X91943080Y-114298359D01*
X91709731Y-114472412D01*
X91692000Y-114492083D01*
X91692000Y-113929001D01*
X92357403Y-113263599D01*
X92386401Y-113239801D01*
X92434023Y-113181774D01*
X92481374Y-113124077D01*
X92551946Y-112992047D01*
X92565830Y-112946276D01*
X92595403Y-112848786D01*
X92606400Y-112737133D01*
X92606400Y-112737123D01*
X92610076Y-112699800D01*
X92606400Y-112662477D01*
X92606400Y-108622322D01*
X92610076Y-108584999D01*
X92606400Y-108547676D01*
X92606400Y-108547667D01*
X92595403Y-108436014D01*
X92551946Y-108292753D01*
X92481374Y-108160724D01*
X92386401Y-108044999D01*
X92357404Y-108021202D01*
X91013204Y-106677003D01*
X90989401Y-106647999D01*
X90873676Y-106553026D01*
X90741647Y-106482454D01*
X90598386Y-106438997D01*
X90486733Y-106428000D01*
X90486722Y-106428000D01*
X90449400Y-106424324D01*
X90412078Y-106428000D01*
X89750522Y-106428000D01*
X89713199Y-106424324D01*
X89675876Y-106428000D01*
X89675867Y-106428000D01*
X89564214Y-106438997D01*
X89420953Y-106482454D01*
X89288924Y-106553026D01*
X89173199Y-106647999D01*
X89149400Y-106676998D01*
X88846871Y-106979528D01*
X87283600Y-106979528D01*
X87159118Y-106991788D01*
X87039420Y-107028098D01*
X86929106Y-107087063D01*
X86832415Y-107166415D01*
X86753063Y-107263106D01*
X86694098Y-107373420D01*
X86657788Y-107493118D01*
X86646682Y-107605880D01*
X86297403Y-107256602D01*
X86273601Y-107227599D01*
X86157876Y-107132626D01*
X86025847Y-107062054D01*
X85882586Y-107018597D01*
X85770933Y-107007600D01*
X85770922Y-107007600D01*
X85733600Y-107003924D01*
X85696278Y-107007600D01*
X85660207Y-107007600D01*
X85608082Y-106991788D01*
X85483600Y-106979528D01*
X84320331Y-106979528D01*
X82406372Y-105065571D01*
X82406372Y-104696550D01*
X82389908Y-104529392D01*
X82341150Y-104368658D01*
X82261971Y-104220525D01*
X82177891Y-104118072D01*
X83215800Y-104118072D01*
X83340282Y-104105812D01*
X83459980Y-104069502D01*
X83570294Y-104010537D01*
X83666985Y-103931185D01*
X83746337Y-103834494D01*
X83805302Y-103724180D01*
X83841612Y-103604482D01*
X83853872Y-103480000D01*
X83853872Y-97080000D01*
X83853794Y-97079200D01*
X86936728Y-97079200D01*
X86936728Y-103479200D01*
X86948988Y-103603682D01*
X86985298Y-103723380D01*
X87044263Y-103833694D01*
X87123615Y-103930385D01*
X87220306Y-104009737D01*
X87330620Y-104068702D01*
X87450318Y-104105012D01*
X87574800Y-104117272D01*
X89266785Y-104117272D01*
X89293032Y-104203797D01*
X89305080Y-104243513D01*
X89422080Y-104462405D01*
X89473286Y-104524799D01*
X89579535Y-104654265D01*
X89627616Y-104693724D01*
X97541081Y-112607190D01*
X97580535Y-112655265D01*
X97677061Y-112734482D01*
X97772395Y-112812720D01*
X97991286Y-112929720D01*
X98228797Y-113001768D01*
X98475800Y-113026096D01*
X98537693Y-113020000D01*
X102077083Y-113020000D01*
X102298966Y-113138599D01*
X102578889Y-113223513D01*
X102797050Y-113245000D01*
X102942950Y-113245000D01*
X103161111Y-113223513D01*
X103441034Y-113138599D01*
X103699014Y-113000706D01*
X103925134Y-112815134D01*
X103949607Y-112785313D01*
X103970498Y-112854180D01*
X104029463Y-112964494D01*
X104108815Y-113061185D01*
X104205506Y-113140537D01*
X104315820Y-113199502D01*
X104435518Y-113235812D01*
X104560000Y-113248072D01*
X106260000Y-113248072D01*
X106384482Y-113235812D01*
X106504180Y-113199502D01*
X106614494Y-113140537D01*
X106711185Y-113061185D01*
X106790537Y-112964494D01*
X106849502Y-112854180D01*
X106885812Y-112734482D01*
X106898072Y-112610000D01*
X106898072Y-110910000D01*
X106885812Y-110785518D01*
X106849502Y-110665820D01*
X106790537Y-110555506D01*
X106711185Y-110458815D01*
X106614494Y-110379463D01*
X106504180Y-110320498D01*
X106384482Y-110284188D01*
X106260000Y-110271928D01*
X104560000Y-110271928D01*
X104435518Y-110284188D01*
X104315820Y-110320498D01*
X104205506Y-110379463D01*
X104108815Y-110458815D01*
X104029463Y-110555506D01*
X103970498Y-110665820D01*
X103949607Y-110734687D01*
X103925134Y-110704866D01*
X103699014Y-110519294D01*
X103441034Y-110381401D01*
X103161111Y-110296487D01*
X102942950Y-110275000D01*
X102797050Y-110275000D01*
X102578889Y-110296487D01*
X102298966Y-110381401D01*
X102077083Y-110500000D01*
X98997709Y-110500000D01*
X92614980Y-104117272D01*
X93374800Y-104117272D01*
X93499282Y-104105012D01*
X93618980Y-104068702D01*
X93729294Y-104009737D01*
X93825985Y-103930385D01*
X93905337Y-103833694D01*
X93964302Y-103723380D01*
X94000612Y-103603682D01*
X94012872Y-103479200D01*
X94012872Y-97079200D01*
X97096728Y-97079200D01*
X97096728Y-103479200D01*
X97108988Y-103603682D01*
X97145298Y-103723380D01*
X97204263Y-103833694D01*
X97283615Y-103930385D01*
X97380306Y-104009737D01*
X97490620Y-104068702D01*
X97610318Y-104105012D01*
X97734800Y-104117272D01*
X99374800Y-104117272D01*
X99374800Y-105652917D01*
X99368705Y-105714800D01*
X99374800Y-105776683D01*
X99374800Y-105776692D01*
X99393032Y-105961802D01*
X99465080Y-106199313D01*
X99582080Y-106418205D01*
X99635585Y-106483401D01*
X99739535Y-106610065D01*
X99787616Y-106649524D01*
X101418368Y-108280277D01*
X101491401Y-108521034D01*
X101629294Y-108779014D01*
X101814866Y-109005134D01*
X102040986Y-109190706D01*
X102298966Y-109328599D01*
X102578889Y-109413513D01*
X102797050Y-109435000D01*
X102942950Y-109435000D01*
X103161111Y-109413513D01*
X103441034Y-109328599D01*
X103699014Y-109190706D01*
X103925134Y-109005134D01*
X103949607Y-108975313D01*
X103970498Y-109044180D01*
X104029463Y-109154494D01*
X104108815Y-109251185D01*
X104205506Y-109330537D01*
X104315820Y-109389502D01*
X104435518Y-109425812D01*
X104560000Y-109438072D01*
X106260000Y-109438072D01*
X106384482Y-109425812D01*
X106504180Y-109389502D01*
X106614494Y-109330537D01*
X106711185Y-109251185D01*
X106790537Y-109154494D01*
X106849502Y-109044180D01*
X106885812Y-108924482D01*
X106898072Y-108800000D01*
X106898072Y-107100000D01*
X106885812Y-106975518D01*
X106849502Y-106855820D01*
X106790537Y-106745506D01*
X106711185Y-106648815D01*
X106614494Y-106569463D01*
X106504180Y-106510498D01*
X106384482Y-106474188D01*
X106260000Y-106461928D01*
X104560000Y-106461928D01*
X104435518Y-106474188D01*
X104315820Y-106510498D01*
X104205506Y-106569463D01*
X104108815Y-106648815D01*
X104029463Y-106745506D01*
X103970498Y-106855820D01*
X103949607Y-106924687D01*
X103925134Y-106894866D01*
X103699014Y-106709294D01*
X103441034Y-106571401D01*
X103200277Y-106498368D01*
X101894800Y-105192892D01*
X101894800Y-104117272D01*
X103534800Y-104117272D01*
X103659282Y-104105012D01*
X103778980Y-104068702D01*
X103889294Y-104009737D01*
X103985985Y-103930385D01*
X104065337Y-103833694D01*
X104124302Y-103723380D01*
X104160612Y-103603682D01*
X104172872Y-103479200D01*
X104172872Y-97079200D01*
X104160612Y-96954718D01*
X104124302Y-96835020D01*
X104065337Y-96724706D01*
X103985985Y-96628015D01*
X103889294Y-96548663D01*
X103778980Y-96489698D01*
X103659282Y-96453388D01*
X103534800Y-96441128D01*
X97734800Y-96441128D01*
X97610318Y-96453388D01*
X97490620Y-96489698D01*
X97380306Y-96548663D01*
X97283615Y-96628015D01*
X97204263Y-96724706D01*
X97145298Y-96835020D01*
X97108988Y-96954718D01*
X97096728Y-97079200D01*
X94012872Y-97079200D01*
X94000612Y-96954718D01*
X93964302Y-96835020D01*
X93905337Y-96724706D01*
X93825985Y-96628015D01*
X93729294Y-96548663D01*
X93618980Y-96489698D01*
X93499282Y-96453388D01*
X93374800Y-96441128D01*
X87574800Y-96441128D01*
X87450318Y-96453388D01*
X87330620Y-96489698D01*
X87220306Y-96548663D01*
X87123615Y-96628015D01*
X87044263Y-96724706D01*
X86985298Y-96835020D01*
X86948988Y-96954718D01*
X86936728Y-97079200D01*
X83853794Y-97079200D01*
X83841612Y-96955518D01*
X83805302Y-96835820D01*
X83746337Y-96725506D01*
X83666985Y-96628815D01*
X83570294Y-96549463D01*
X83459980Y-96490498D01*
X83340282Y-96454188D01*
X83215800Y-96441928D01*
X77415800Y-96441928D01*
X77291318Y-96454188D01*
X77171620Y-96490498D01*
X77061306Y-96549463D01*
X76964615Y-96628815D01*
X76885263Y-96725506D01*
X76826298Y-96835820D01*
X76789988Y-96955518D01*
X76777728Y-97080000D01*
X76777728Y-103480000D01*
X76789988Y-103604482D01*
X76826298Y-103724180D01*
X76885263Y-103834494D01*
X76964615Y-103931185D01*
X77061306Y-104010537D01*
X77171620Y-104069502D01*
X77291318Y-104105812D01*
X77415800Y-104118072D01*
X78908709Y-104118072D01*
X78847382Y-104192800D01*
X71942802Y-104192800D01*
X71841874Y-104091872D01*
X73080200Y-104091872D01*
X73204682Y-104079612D01*
X73324380Y-104043302D01*
X73434694Y-103984337D01*
X73531385Y-103904985D01*
X73610737Y-103808294D01*
X73669702Y-103697980D01*
X73706012Y-103578282D01*
X73718272Y-103453800D01*
X73718272Y-97053800D01*
X73706012Y-96929318D01*
X73669702Y-96809620D01*
X73610737Y-96699306D01*
X73531385Y-96602615D01*
X73434694Y-96523263D01*
X73324380Y-96464298D01*
X73204682Y-96427988D01*
X73080200Y-96415728D01*
X70965600Y-96415728D01*
X70965600Y-96156911D01*
X71009537Y-96112974D01*
X71122805Y-95943456D01*
X71200826Y-95755098D01*
X71240600Y-95555139D01*
X71240600Y-95351261D01*
X71200826Y-95151302D01*
X71122805Y-94962944D01*
X71009537Y-94793426D01*
X70865374Y-94649263D01*
X70695856Y-94535995D01*
X70507498Y-94457974D01*
X70307539Y-94418200D01*
X70103661Y-94418200D01*
X69903702Y-94457974D01*
X69715344Y-94535995D01*
X69545826Y-94649263D01*
X69401663Y-94793426D01*
X69288395Y-94962944D01*
X69210374Y-95151302D01*
X69170600Y-95351261D01*
X69170600Y-95555139D01*
X69210374Y-95755098D01*
X69288395Y-95943456D01*
X69401663Y-96112974D01*
X69445600Y-96156911D01*
X69445600Y-96415728D01*
X67280200Y-96415728D01*
X67155718Y-96427988D01*
X67036020Y-96464298D01*
X66925706Y-96523263D01*
X66829015Y-96602615D01*
X66749663Y-96699306D01*
X66690698Y-96809620D01*
X66654388Y-96929318D01*
X66642128Y-97053800D01*
X66642128Y-101635226D01*
X64372472Y-99365571D01*
X64372472Y-99108550D01*
X64356008Y-98941392D01*
X64307250Y-98780658D01*
X64228071Y-98632525D01*
X64133000Y-98516680D01*
X64133000Y-97645195D01*
X64202014Y-97608306D01*
X64428134Y-97422734D01*
X64613706Y-97196614D01*
X64751599Y-96938634D01*
X64836513Y-96658711D01*
X64865185Y-96367600D01*
X64836513Y-96076489D01*
X64751599Y-95796566D01*
X64613706Y-95538586D01*
X64428134Y-95312466D01*
X64202014Y-95126894D01*
X64133100Y-95090059D01*
X64133100Y-95053800D01*
X66662128Y-95053800D01*
X66674388Y-95178282D01*
X66710698Y-95297980D01*
X66769663Y-95408294D01*
X66849015Y-95504985D01*
X66945706Y-95584337D01*
X67056020Y-95643302D01*
X67175718Y-95679612D01*
X67300200Y-95691872D01*
X67614450Y-95688800D01*
X67773200Y-95530050D01*
X67773200Y-94080800D01*
X68027200Y-94080800D01*
X68027200Y-95530050D01*
X68185950Y-95688800D01*
X68500200Y-95691872D01*
X68624682Y-95679612D01*
X68744380Y-95643302D01*
X68854694Y-95584337D01*
X68951385Y-95504985D01*
X69030737Y-95408294D01*
X69089702Y-95297980D01*
X69126012Y-95178282D01*
X69138272Y-95053800D01*
X69135200Y-94239550D01*
X68976450Y-94080800D01*
X68027200Y-94080800D01*
X67773200Y-94080800D01*
X66823950Y-94080800D01*
X66665200Y-94239550D01*
X66662128Y-95053800D01*
X64133100Y-95053800D01*
X64133100Y-94234743D01*
X64197715Y-94181715D01*
X64304271Y-94051875D01*
X64383450Y-93903742D01*
X64432208Y-93743008D01*
X64448672Y-93575850D01*
X64448672Y-93063350D01*
X64432208Y-92896192D01*
X64383450Y-92735458D01*
X64368773Y-92708000D01*
X66680855Y-92708000D01*
X66674388Y-92729318D01*
X66662128Y-92853800D01*
X66665200Y-93668050D01*
X66823950Y-93826800D01*
X67773200Y-93826800D01*
X67773200Y-93806800D01*
X68027200Y-93806800D01*
X68027200Y-93826800D01*
X68976450Y-93826800D01*
X69135200Y-93668050D01*
X69138272Y-92853800D01*
X69126012Y-92729318D01*
X69119545Y-92708000D01*
X69289599Y-92708000D01*
X71046401Y-94464803D01*
X71070199Y-94493801D01*
X71131122Y-94543799D01*
X71185924Y-94588774D01*
X71222128Y-94608126D01*
X71222128Y-95053800D01*
X71234388Y-95178282D01*
X71270698Y-95297980D01*
X71329663Y-95408294D01*
X71409015Y-95504985D01*
X71505706Y-95584337D01*
X71616020Y-95643302D01*
X71735718Y-95679612D01*
X71860200Y-95691872D01*
X73060200Y-95691872D01*
X73184682Y-95679612D01*
X73304380Y-95643302D01*
X73414694Y-95584337D01*
X73511385Y-95504985D01*
X73590737Y-95408294D01*
X73649702Y-95297980D01*
X73686012Y-95178282D01*
X73695691Y-95080000D01*
X76797728Y-95080000D01*
X76809988Y-95204482D01*
X76846298Y-95324180D01*
X76905263Y-95434494D01*
X76984615Y-95531185D01*
X77081306Y-95610537D01*
X77191620Y-95669502D01*
X77311318Y-95705812D01*
X77435800Y-95718072D01*
X77750050Y-95715000D01*
X77908800Y-95556250D01*
X77908800Y-94107000D01*
X78162800Y-94107000D01*
X78162800Y-95556250D01*
X78321550Y-95715000D01*
X78635800Y-95718072D01*
X78760282Y-95705812D01*
X78879980Y-95669502D01*
X78990294Y-95610537D01*
X79086985Y-95531185D01*
X79166337Y-95434494D01*
X79225302Y-95324180D01*
X79261612Y-95204482D01*
X79273872Y-95080000D01*
X79270800Y-94265750D01*
X79112050Y-94107000D01*
X78162800Y-94107000D01*
X77908800Y-94107000D01*
X76959550Y-94107000D01*
X76800800Y-94265750D01*
X76797728Y-95080000D01*
X73695691Y-95080000D01*
X73698272Y-95053800D01*
X73698272Y-92880000D01*
X76797728Y-92880000D01*
X76800800Y-93694250D01*
X76959550Y-93853000D01*
X77908800Y-93853000D01*
X77908800Y-92403750D01*
X78162800Y-92403750D01*
X78162800Y-93853000D01*
X79112050Y-93853000D01*
X79270800Y-93694250D01*
X79273872Y-92880000D01*
X81357728Y-92880000D01*
X81357728Y-95080000D01*
X81369988Y-95204482D01*
X81406298Y-95324180D01*
X81465263Y-95434494D01*
X81544615Y-95531185D01*
X81641306Y-95610537D01*
X81751620Y-95669502D01*
X81871318Y-95705812D01*
X81995800Y-95718072D01*
X83195800Y-95718072D01*
X83320282Y-95705812D01*
X83439980Y-95669502D01*
X83550294Y-95610537D01*
X83646985Y-95531185D01*
X83726337Y-95434494D01*
X83785302Y-95324180D01*
X83821612Y-95204482D01*
X83833872Y-95080000D01*
X83833872Y-95079200D01*
X86956728Y-95079200D01*
X86968988Y-95203682D01*
X87005298Y-95323380D01*
X87064263Y-95433694D01*
X87143615Y-95530385D01*
X87240306Y-95609737D01*
X87350620Y-95668702D01*
X87470318Y-95705012D01*
X87594800Y-95717272D01*
X87909050Y-95714200D01*
X88067800Y-95555450D01*
X88067800Y-94106200D01*
X88321800Y-94106200D01*
X88321800Y-95555450D01*
X88480550Y-95714200D01*
X88794800Y-95717272D01*
X88919282Y-95705012D01*
X89038980Y-95668702D01*
X89149294Y-95609737D01*
X89245985Y-95530385D01*
X89325337Y-95433694D01*
X89384302Y-95323380D01*
X89420612Y-95203682D01*
X89432872Y-95079200D01*
X89429800Y-94264950D01*
X89271050Y-94106200D01*
X88321800Y-94106200D01*
X88067800Y-94106200D01*
X87118550Y-94106200D01*
X86959800Y-94264950D01*
X86956728Y-95079200D01*
X83833872Y-95079200D01*
X83833872Y-92880000D01*
X83833794Y-92879200D01*
X86956728Y-92879200D01*
X86959800Y-93693450D01*
X87118550Y-93852200D01*
X88067800Y-93852200D01*
X88067800Y-92402950D01*
X88321800Y-92402950D01*
X88321800Y-93852200D01*
X89271050Y-93852200D01*
X89429800Y-93693450D01*
X89432872Y-92879200D01*
X91516728Y-92879200D01*
X91516728Y-95079200D01*
X91528988Y-95203682D01*
X91565298Y-95323380D01*
X91624263Y-95433694D01*
X91703615Y-95530385D01*
X91800306Y-95609737D01*
X91910620Y-95668702D01*
X92030318Y-95705012D01*
X92154800Y-95717272D01*
X93354800Y-95717272D01*
X93479282Y-95705012D01*
X93598980Y-95668702D01*
X93709294Y-95609737D01*
X93805985Y-95530385D01*
X93885337Y-95433694D01*
X93944302Y-95323380D01*
X93980612Y-95203682D01*
X93992872Y-95079200D01*
X97116728Y-95079200D01*
X97128988Y-95203682D01*
X97165298Y-95323380D01*
X97224263Y-95433694D01*
X97303615Y-95530385D01*
X97400306Y-95609737D01*
X97510620Y-95668702D01*
X97630318Y-95705012D01*
X97754800Y-95717272D01*
X98069050Y-95714200D01*
X98227800Y-95555450D01*
X98227800Y-94106200D01*
X98481800Y-94106200D01*
X98481800Y-95555450D01*
X98640550Y-95714200D01*
X98954800Y-95717272D01*
X99079282Y-95705012D01*
X99198980Y-95668702D01*
X99309294Y-95609737D01*
X99405985Y-95530385D01*
X99485337Y-95433694D01*
X99544302Y-95323380D01*
X99580612Y-95203682D01*
X99592872Y-95079200D01*
X99589800Y-94264950D01*
X99431050Y-94106200D01*
X98481800Y-94106200D01*
X98227800Y-94106200D01*
X97278550Y-94106200D01*
X97119800Y-94264950D01*
X97116728Y-95079200D01*
X93992872Y-95079200D01*
X93992872Y-92879200D01*
X97116728Y-92879200D01*
X97119800Y-93693450D01*
X97278550Y-93852200D01*
X98227800Y-93852200D01*
X98227800Y-92402950D01*
X98481800Y-92402950D01*
X98481800Y-93852200D01*
X99431050Y-93852200D01*
X99589800Y-93693450D01*
X99592872Y-92879200D01*
X101676728Y-92879200D01*
X101676728Y-95079200D01*
X101688988Y-95203682D01*
X101725298Y-95323380D01*
X101784263Y-95433694D01*
X101863615Y-95530385D01*
X101960306Y-95609737D01*
X102070620Y-95668702D01*
X102190318Y-95705012D01*
X102314800Y-95717272D01*
X103514800Y-95717272D01*
X103639282Y-95705012D01*
X103758980Y-95668702D01*
X103869294Y-95609737D01*
X103965985Y-95530385D01*
X104045337Y-95433694D01*
X104104302Y-95323380D01*
X104140612Y-95203682D01*
X104152872Y-95079200D01*
X104152872Y-92879200D01*
X104147940Y-92829117D01*
X105265000Y-92829117D01*
X105265000Y-93170883D01*
X105331675Y-93506081D01*
X105462463Y-93821831D01*
X105652337Y-94105998D01*
X105894002Y-94347663D01*
X106178169Y-94537537D01*
X106493919Y-94668325D01*
X106829117Y-94735000D01*
X107170883Y-94735000D01*
X107506081Y-94668325D01*
X107821831Y-94537537D01*
X108105998Y-94347663D01*
X108347663Y-94105998D01*
X108537537Y-93821831D01*
X108668325Y-93506081D01*
X108735000Y-93170883D01*
X108735000Y-92829117D01*
X108668325Y-92493919D01*
X108537537Y-92178169D01*
X108347663Y-91894002D01*
X108105998Y-91652337D01*
X107821831Y-91462463D01*
X107506081Y-91331675D01*
X107170883Y-91265000D01*
X106829117Y-91265000D01*
X106493919Y-91331675D01*
X106178169Y-91462463D01*
X105894002Y-91652337D01*
X105652337Y-91894002D01*
X105462463Y-92178169D01*
X105331675Y-92493919D01*
X105265000Y-92829117D01*
X104147940Y-92829117D01*
X104140612Y-92754718D01*
X104104302Y-92635020D01*
X104045337Y-92524706D01*
X103965985Y-92428015D01*
X103869294Y-92348663D01*
X103836727Y-92331255D01*
X103910026Y-92154298D01*
X103949800Y-91954339D01*
X103949800Y-91750461D01*
X103910026Y-91550502D01*
X103832005Y-91362144D01*
X103718737Y-91192626D01*
X103574574Y-91048463D01*
X103405056Y-90935195D01*
X103216698Y-90857174D01*
X103016739Y-90817400D01*
X102812861Y-90817400D01*
X102612902Y-90857174D01*
X102424544Y-90935195D01*
X102255026Y-91048463D01*
X102110863Y-91192626D01*
X101997595Y-91362144D01*
X101919574Y-91550502D01*
X101879800Y-91750461D01*
X101879800Y-91954339D01*
X101919574Y-92154298D01*
X101992873Y-92331255D01*
X101960306Y-92348663D01*
X101863615Y-92428015D01*
X101784263Y-92524706D01*
X101725298Y-92635020D01*
X101688988Y-92754718D01*
X101676728Y-92879200D01*
X99592872Y-92879200D01*
X99580612Y-92754718D01*
X99544302Y-92635020D01*
X99485337Y-92524706D01*
X99405985Y-92428015D01*
X99309294Y-92348663D01*
X99198980Y-92289698D01*
X99079282Y-92253388D01*
X98954800Y-92241128D01*
X98640550Y-92244200D01*
X98481800Y-92402950D01*
X98227800Y-92402950D01*
X98069050Y-92244200D01*
X97754800Y-92241128D01*
X97630318Y-92253388D01*
X97510620Y-92289698D01*
X97400306Y-92348663D01*
X97303615Y-92428015D01*
X97224263Y-92524706D01*
X97165298Y-92635020D01*
X97128988Y-92754718D01*
X97116728Y-92879200D01*
X93992872Y-92879200D01*
X93980612Y-92754718D01*
X93944302Y-92635020D01*
X93885337Y-92524706D01*
X93805985Y-92428015D01*
X93709294Y-92348663D01*
X93688219Y-92337398D01*
X93756026Y-92173698D01*
X93795800Y-91973739D01*
X93795800Y-91769861D01*
X93756026Y-91569902D01*
X93678005Y-91381544D01*
X93564737Y-91212026D01*
X93420574Y-91067863D01*
X93251056Y-90954595D01*
X93062698Y-90876574D01*
X92862739Y-90836800D01*
X92658861Y-90836800D01*
X92458902Y-90876574D01*
X92270544Y-90954595D01*
X92101026Y-91067863D01*
X91956863Y-91212026D01*
X91843595Y-91381544D01*
X91765574Y-91569902D01*
X91725800Y-91769861D01*
X91725800Y-91973739D01*
X91765574Y-92173698D01*
X91831206Y-92332146D01*
X91800306Y-92348663D01*
X91703615Y-92428015D01*
X91624263Y-92524706D01*
X91565298Y-92635020D01*
X91528988Y-92754718D01*
X91516728Y-92879200D01*
X89432872Y-92879200D01*
X89420612Y-92754718D01*
X89384302Y-92635020D01*
X89325337Y-92524706D01*
X89245985Y-92428015D01*
X89149294Y-92348663D01*
X89038980Y-92289698D01*
X88919282Y-92253388D01*
X88794800Y-92241128D01*
X88480550Y-92244200D01*
X88321800Y-92402950D01*
X88067800Y-92402950D01*
X87909050Y-92244200D01*
X87594800Y-92241128D01*
X87470318Y-92253388D01*
X87350620Y-92289698D01*
X87240306Y-92348663D01*
X87143615Y-92428015D01*
X87064263Y-92524706D01*
X87005298Y-92635020D01*
X86968988Y-92754718D01*
X86956728Y-92879200D01*
X83833794Y-92879200D01*
X83821612Y-92755518D01*
X83785302Y-92635820D01*
X83726337Y-92525506D01*
X83646985Y-92428815D01*
X83550294Y-92349463D01*
X83519515Y-92333011D01*
X83596026Y-92148298D01*
X83635800Y-91948339D01*
X83635800Y-91744461D01*
X83596026Y-91544502D01*
X83518005Y-91356144D01*
X83404737Y-91186626D01*
X83260574Y-91042463D01*
X83091056Y-90929195D01*
X82902698Y-90851174D01*
X82702739Y-90811400D01*
X82498861Y-90811400D01*
X82298902Y-90851174D01*
X82110544Y-90929195D01*
X81941026Y-91042463D01*
X81796863Y-91186626D01*
X81683595Y-91356144D01*
X81605574Y-91544502D01*
X81565800Y-91744461D01*
X81565800Y-91948339D01*
X81605574Y-92148298D01*
X81680272Y-92328635D01*
X81641306Y-92349463D01*
X81544615Y-92428815D01*
X81465263Y-92525506D01*
X81406298Y-92635820D01*
X81369988Y-92755518D01*
X81357728Y-92880000D01*
X79273872Y-92880000D01*
X79261612Y-92755518D01*
X79225302Y-92635820D01*
X79166337Y-92525506D01*
X79086985Y-92428815D01*
X78990294Y-92349463D01*
X78879980Y-92290498D01*
X78760282Y-92254188D01*
X78635800Y-92241928D01*
X78321550Y-92245000D01*
X78162800Y-92403750D01*
X77908800Y-92403750D01*
X77750050Y-92245000D01*
X77435800Y-92241928D01*
X77311318Y-92254188D01*
X77191620Y-92290498D01*
X77081306Y-92349463D01*
X76984615Y-92428815D01*
X76905263Y-92525506D01*
X76846298Y-92635820D01*
X76809988Y-92755518D01*
X76797728Y-92880000D01*
X73698272Y-92880000D01*
X73698272Y-92853800D01*
X73686012Y-92729318D01*
X73649702Y-92609620D01*
X73590737Y-92499306D01*
X73511385Y-92402615D01*
X73414694Y-92323263D01*
X73304380Y-92264298D01*
X73184682Y-92227988D01*
X73060200Y-92215728D01*
X71860200Y-92215728D01*
X71735718Y-92227988D01*
X71616020Y-92264298D01*
X71505706Y-92323263D01*
X71409015Y-92402615D01*
X71329663Y-92499306D01*
X71295124Y-92563923D01*
X70168204Y-91437003D01*
X70144401Y-91407999D01*
X70028676Y-91313026D01*
X69896647Y-91242454D01*
X69753386Y-91198997D01*
X69641733Y-91188000D01*
X69641722Y-91188000D01*
X69604400Y-91184324D01*
X69567078Y-91188000D01*
X63207022Y-91188000D01*
X63169699Y-91184324D01*
X63132376Y-91188000D01*
X63132367Y-91188000D01*
X63020714Y-91198997D01*
X62877453Y-91242454D01*
X62745424Y-91313026D01*
X62629699Y-91407999D01*
X62605901Y-91436997D01*
X61836371Y-92206528D01*
X61579350Y-92206528D01*
X61412192Y-92222992D01*
X61251458Y-92271750D01*
X61103325Y-92350929D01*
X60973485Y-92457485D01*
X60866929Y-92587325D01*
X60787750Y-92735458D01*
X60738992Y-92896192D01*
X60722528Y-93063350D01*
X60722528Y-93575850D01*
X60738992Y-93743008D01*
X60787750Y-93903742D01*
X60866929Y-94051875D01*
X60973485Y-94181715D01*
X61038100Y-94234743D01*
X61038101Y-94895616D01*
X60905950Y-94882600D01*
X60760050Y-94882600D01*
X60541889Y-94904087D01*
X60261966Y-94989001D01*
X60003986Y-95126894D01*
X59777866Y-95312466D01*
X59753393Y-95342287D01*
X59732502Y-95273420D01*
X59673537Y-95163106D01*
X59594185Y-95066415D01*
X59497494Y-94987063D01*
X59387180Y-94928098D01*
X59267482Y-94891788D01*
X59143000Y-94879528D01*
X58578750Y-94882600D01*
X58420000Y-95041350D01*
X58420000Y-96240600D01*
X58440000Y-96240600D01*
X58440000Y-96494600D01*
X58420000Y-96494600D01*
X58420000Y-97693850D01*
X58578750Y-97852600D01*
X59143000Y-97855672D01*
X59267482Y-97843412D01*
X59387180Y-97807102D01*
X59497494Y-97748137D01*
X59594185Y-97668785D01*
X59673537Y-97572094D01*
X59732502Y-97461780D01*
X59753393Y-97392913D01*
X59777866Y-97422734D01*
X60003986Y-97608306D01*
X60261966Y-97746199D01*
X60541889Y-97831113D01*
X60760050Y-97852600D01*
X60905950Y-97852600D01*
X61124111Y-97831113D01*
X61404034Y-97746199D01*
X61662014Y-97608306D01*
X61888134Y-97422734D01*
X62073706Y-97196614D01*
X62103000Y-97141809D01*
X62132294Y-97196614D01*
X62317866Y-97422734D01*
X62543986Y-97608306D01*
X62613000Y-97645195D01*
X62613001Y-98390316D01*
X62602125Y-98396129D01*
X62509400Y-98472226D01*
X62416675Y-98396129D01*
X62268542Y-98316950D01*
X62107808Y-98268192D01*
X61940650Y-98251728D01*
X61503150Y-98251728D01*
X61335992Y-98268192D01*
X61175258Y-98316950D01*
X61027125Y-98396129D01*
X60897285Y-98502685D01*
X60813482Y-98604800D01*
X58768111Y-98604800D01*
X58724174Y-98560863D01*
X58554656Y-98447595D01*
X58366298Y-98369574D01*
X58166339Y-98329800D01*
X57962461Y-98329800D01*
X57762502Y-98369574D01*
X57574144Y-98447595D01*
X57404626Y-98560863D01*
X57360689Y-98604800D01*
X55902522Y-98604800D01*
X55865199Y-98601124D01*
X55827876Y-98604800D01*
X55827867Y-98604800D01*
X55716214Y-98615797D01*
X55591177Y-98653726D01*
X55572953Y-98659254D01*
X55440923Y-98729826D01*
X55378985Y-98780658D01*
X55325199Y-98824799D01*
X55301401Y-98853797D01*
X53709003Y-100446196D01*
X53679999Y-100469999D01*
X53638434Y-100520647D01*
X53585026Y-100585724D01*
X53565674Y-100621928D01*
X53120000Y-100621928D01*
X52995518Y-100634188D01*
X52875820Y-100670498D01*
X52765506Y-100729463D01*
X52668815Y-100808815D01*
X52589463Y-100905506D01*
X52530498Y-101015820D01*
X52494188Y-101135518D01*
X52487576Y-101202655D01*
X52445723Y-101225026D01*
X52403108Y-101260000D01*
X52329999Y-101319999D01*
X52306201Y-101348997D01*
X51305002Y-102350196D01*
X51275999Y-102373999D01*
X51220871Y-102441174D01*
X51181026Y-102489724D01*
X51127812Y-102589280D01*
X51110454Y-102621754D01*
X51066997Y-102765015D01*
X51056000Y-102876668D01*
X51056000Y-102876678D01*
X51052324Y-102914000D01*
X51056000Y-102951322D01*
X51056001Y-118222288D01*
X51012063Y-118266226D01*
X50898795Y-118435744D01*
X50820774Y-118624102D01*
X50781000Y-118824061D01*
X50660000Y-118824061D01*
X50660000Y-97217600D01*
X56804928Y-97217600D01*
X56817188Y-97342082D01*
X56853498Y-97461780D01*
X56912463Y-97572094D01*
X56991815Y-97668785D01*
X57088506Y-97748137D01*
X57198820Y-97807102D01*
X57318518Y-97843412D01*
X57443000Y-97855672D01*
X58007250Y-97852600D01*
X58166000Y-97693850D01*
X58166000Y-96494600D01*
X56966750Y-96494600D01*
X56808000Y-96653350D01*
X56804928Y-97217600D01*
X50660000Y-97217600D01*
X50660000Y-95517600D01*
X56804928Y-95517600D01*
X56808000Y-96081850D01*
X56966750Y-96240600D01*
X58166000Y-96240600D01*
X58166000Y-95041350D01*
X58007250Y-94882600D01*
X57443000Y-94879528D01*
X57318518Y-94891788D01*
X57198820Y-94928098D01*
X57088506Y-94987063D01*
X56991815Y-95066415D01*
X56912463Y-95163106D01*
X56853498Y-95273420D01*
X56817188Y-95393118D01*
X56804928Y-95517600D01*
X50660000Y-95517600D01*
X50660000Y-92829117D01*
X51265000Y-92829117D01*
X51265000Y-93170883D01*
X51331675Y-93506081D01*
X51462463Y-93821831D01*
X51652337Y-94105998D01*
X51894002Y-94347663D01*
X52178169Y-94537537D01*
X52493919Y-94668325D01*
X52829117Y-94735000D01*
X53170883Y-94735000D01*
X53506081Y-94668325D01*
X53821831Y-94537537D01*
X54105998Y-94347663D01*
X54347663Y-94105998D01*
X54537537Y-93821831D01*
X54668325Y-93506081D01*
X54735000Y-93170883D01*
X54735000Y-92829117D01*
X54668325Y-92493919D01*
X54537537Y-92178169D01*
X54347663Y-91894002D01*
X54105998Y-91652337D01*
X53821831Y-91462463D01*
X53506081Y-91331675D01*
X53170883Y-91265000D01*
X52829117Y-91265000D01*
X52493919Y-91331675D01*
X52178169Y-91462463D01*
X51894002Y-91652337D01*
X51652337Y-91894002D01*
X51462463Y-92178169D01*
X51331675Y-92493919D01*
X51265000Y-92829117D01*
X50660000Y-92829117D01*
X50660000Y-90660000D01*
X109340001Y-90660000D01*
X109340000Y-127473056D01*
G36*
X91086400Y-108899802D02*
G01*
X91086401Y-112384997D01*
X90421002Y-113050397D01*
X90391999Y-113074199D01*
X90351066Y-113124077D01*
X90297026Y-113189924D01*
X90270366Y-113239801D01*
X90226454Y-113321954D01*
X90182997Y-113465215D01*
X90172000Y-113576868D01*
X90172000Y-113576878D01*
X90168324Y-113614200D01*
X90172000Y-113651523D01*
X90172001Y-120104668D01*
X90168324Y-120142000D01*
X90172001Y-120179333D01*
X90182998Y-120290986D01*
X90191214Y-120318072D01*
X90226454Y-120434246D01*
X90254310Y-120486361D01*
X90240492Y-120485000D01*
X90099508Y-120485000D01*
X89888691Y-120505764D01*
X89618192Y-120587818D01*
X89368899Y-120721068D01*
X89150392Y-120900392D01*
X88971068Y-121118899D01*
X88837818Y-121368192D01*
X88755764Y-121638691D01*
X88728057Y-121920000D01*
X88755764Y-122201309D01*
X88769292Y-122245906D01*
X88585199Y-122430000D01*
X86248013Y-122430000D01*
X86261205Y-122410256D01*
X86339226Y-122221898D01*
X86379000Y-122021939D01*
X86379000Y-121818061D01*
X86339226Y-121618102D01*
X86261205Y-121429744D01*
X86147937Y-121260226D01*
X86003774Y-121116063D01*
X85834256Y-121002795D01*
X85645898Y-120924774D01*
X85445939Y-120885000D01*
X85242061Y-120885000D01*
X85042102Y-120924774D01*
X84853744Y-121002795D01*
X84684226Y-121116063D01*
X84640289Y-121160000D01*
X84059870Y-121160000D01*
X84085812Y-121074482D01*
X84098072Y-120950000D01*
X84095000Y-120935750D01*
X83936250Y-120777000D01*
X82837000Y-120777000D01*
X82837000Y-120797000D01*
X82583000Y-120797000D01*
X82583000Y-120777000D01*
X82563000Y-120777000D01*
X82563000Y-120523000D01*
X82583000Y-120523000D01*
X82583000Y-120503000D01*
X82837000Y-120503000D01*
X82837000Y-120523000D01*
X83936250Y-120523000D01*
X84095000Y-120364250D01*
X84098072Y-120350000D01*
X84085812Y-120225518D01*
X84049502Y-120105820D01*
X84000957Y-120015000D01*
X84049502Y-119924180D01*
X84085812Y-119804482D01*
X84098072Y-119680000D01*
X84098072Y-119080000D01*
X84085812Y-118955518D01*
X84049502Y-118835820D01*
X84000957Y-118745000D01*
X84049502Y-118654180D01*
X84085812Y-118534482D01*
X84098072Y-118410000D01*
X84098072Y-118224583D01*
X84120174Y-118335698D01*
X84198195Y-118524056D01*
X84311463Y-118693574D01*
X84455626Y-118837737D01*
X84625144Y-118951005D01*
X84813502Y-119029026D01*
X85013461Y-119068800D01*
X85217339Y-119068800D01*
X85417298Y-119029026D01*
X85605656Y-118951005D01*
X85775174Y-118837737D01*
X85919337Y-118693574D01*
X86032605Y-118524056D01*
X86110626Y-118335698D01*
X86150400Y-118135739D01*
X86150400Y-118073601D01*
X89207808Y-115016195D01*
X89236801Y-114992401D01*
X89260595Y-114963408D01*
X89260599Y-114963404D01*
X89331773Y-114876677D01*
X89336425Y-114867974D01*
X89402346Y-114744647D01*
X89445803Y-114601386D01*
X89456800Y-114489733D01*
X89456800Y-114489724D01*
X89460476Y-114452401D01*
X89456800Y-114415078D01*
X89456800Y-112878343D01*
X89521415Y-112825315D01*
X89627971Y-112695475D01*
X89707150Y-112547342D01*
X89755908Y-112386608D01*
X89772372Y-112219450D01*
X89772372Y-111962430D01*
X90655608Y-111079195D01*
X90684601Y-111055401D01*
X90708395Y-111026408D01*
X90708399Y-111026404D01*
X90779573Y-110939677D01*
X90779574Y-110939676D01*
X90850146Y-110807647D01*
X90893603Y-110664386D01*
X90904600Y-110552732D01*
X90904600Y-110552724D01*
X90908276Y-110515401D01*
X90904600Y-110478078D01*
X90904600Y-110115923D01*
X90908276Y-110078600D01*
X90904600Y-110041277D01*
X90904600Y-110041267D01*
X90893603Y-109929614D01*
X90850146Y-109786353D01*
X90813396Y-109717600D01*
X90779574Y-109654323D01*
X90708399Y-109567597D01*
X90684601Y-109538599D01*
X90655604Y-109514802D01*
X90497838Y-109357036D01*
X90545956Y-109337105D01*
X90715474Y-109223837D01*
X90859637Y-109079674D01*
X90972905Y-108910156D01*
X91009180Y-108822582D01*
X91086400Y-108899802D01*
X91086400Y-108899802D01*
G37*
X91086400Y-108899802D02*
X91086401Y-112384997D01*
X90421002Y-113050397D01*
X90391999Y-113074199D01*
X90351066Y-113124077D01*
X90297026Y-113189924D01*
X90270366Y-113239801D01*
X90226454Y-113321954D01*
X90182997Y-113465215D01*
X90172000Y-113576868D01*
X90172000Y-113576878D01*
X90168324Y-113614200D01*
X90172000Y-113651523D01*
X90172001Y-120104668D01*
X90168324Y-120142000D01*
X90172001Y-120179333D01*
X90182998Y-120290986D01*
X90191214Y-120318072D01*
X90226454Y-120434246D01*
X90254310Y-120486361D01*
X90240492Y-120485000D01*
X90099508Y-120485000D01*
X89888691Y-120505764D01*
X89618192Y-120587818D01*
X89368899Y-120721068D01*
X89150392Y-120900392D01*
X88971068Y-121118899D01*
X88837818Y-121368192D01*
X88755764Y-121638691D01*
X88728057Y-121920000D01*
X88755764Y-122201309D01*
X88769292Y-122245906D01*
X88585199Y-122430000D01*
X86248013Y-122430000D01*
X86261205Y-122410256D01*
X86339226Y-122221898D01*
X86379000Y-122021939D01*
X86379000Y-121818061D01*
X86339226Y-121618102D01*
X86261205Y-121429744D01*
X86147937Y-121260226D01*
X86003774Y-121116063D01*
X85834256Y-121002795D01*
X85645898Y-120924774D01*
X85445939Y-120885000D01*
X85242061Y-120885000D01*
X85042102Y-120924774D01*
X84853744Y-121002795D01*
X84684226Y-121116063D01*
X84640289Y-121160000D01*
X84059870Y-121160000D01*
X84085812Y-121074482D01*
X84098072Y-120950000D01*
X84095000Y-120935750D01*
X83936250Y-120777000D01*
X82837000Y-120777000D01*
X82837000Y-120797000D01*
X82583000Y-120797000D01*
X82583000Y-120777000D01*
X82563000Y-120777000D01*
X82563000Y-120523000D01*
X82583000Y-120523000D01*
X82583000Y-120503000D01*
X82837000Y-120503000D01*
X82837000Y-120523000D01*
X83936250Y-120523000D01*
X84095000Y-120364250D01*
X84098072Y-120350000D01*
X84085812Y-120225518D01*
X84049502Y-120105820D01*
X84000957Y-120015000D01*
X84049502Y-119924180D01*
X84085812Y-119804482D01*
X84098072Y-119680000D01*
X84098072Y-119080000D01*
X84085812Y-118955518D01*
X84049502Y-118835820D01*
X84000957Y-118745000D01*
X84049502Y-118654180D01*
X84085812Y-118534482D01*
X84098072Y-118410000D01*
X84098072Y-118224583D01*
X84120174Y-118335698D01*
X84198195Y-118524056D01*
X84311463Y-118693574D01*
X84455626Y-118837737D01*
X84625144Y-118951005D01*
X84813502Y-119029026D01*
X85013461Y-119068800D01*
X85217339Y-119068800D01*
X85417298Y-119029026D01*
X85605656Y-118951005D01*
X85775174Y-118837737D01*
X85919337Y-118693574D01*
X86032605Y-118524056D01*
X86110626Y-118335698D01*
X86150400Y-118135739D01*
X86150400Y-118073601D01*
X89207808Y-115016195D01*
X89236801Y-114992401D01*
X89260595Y-114963408D01*
X89260599Y-114963404D01*
X89331773Y-114876677D01*
X89336425Y-114867974D01*
X89402346Y-114744647D01*
X89445803Y-114601386D01*
X89456800Y-114489733D01*
X89456800Y-114489724D01*
X89460476Y-114452401D01*
X89456800Y-114415078D01*
X89456800Y-112878343D01*
X89521415Y-112825315D01*
X89627971Y-112695475D01*
X89707150Y-112547342D01*
X89755908Y-112386608D01*
X89772372Y-112219450D01*
X89772372Y-111962430D01*
X90655608Y-111079195D01*
X90684601Y-111055401D01*
X90708395Y-111026408D01*
X90708399Y-111026404D01*
X90779573Y-110939677D01*
X90779574Y-110939676D01*
X90850146Y-110807647D01*
X90893603Y-110664386D01*
X90904600Y-110552732D01*
X90904600Y-110552724D01*
X90908276Y-110515401D01*
X90904600Y-110478078D01*
X90904600Y-110115923D01*
X90908276Y-110078600D01*
X90904600Y-110041277D01*
X90904600Y-110041267D01*
X90893603Y-109929614D01*
X90850146Y-109786353D01*
X90813396Y-109717600D01*
X90779574Y-109654323D01*
X90708399Y-109567597D01*
X90684601Y-109538599D01*
X90655604Y-109514802D01*
X90497838Y-109357036D01*
X90545956Y-109337105D01*
X90715474Y-109223837D01*
X90859637Y-109079674D01*
X90972905Y-108910156D01*
X91009180Y-108822582D01*
X91086400Y-108899802D01*
G36*
X71335753Y-105658346D02*
G01*
X71479014Y-105701803D01*
X71590667Y-105712800D01*
X71590677Y-105712800D01*
X71628000Y-105716476D01*
X71665323Y-105712800D01*
X78847382Y-105712800D01*
X78931185Y-105814915D01*
X79061025Y-105921471D01*
X79209158Y-106000650D01*
X79369892Y-106049408D01*
X79537050Y-106065872D01*
X79974550Y-106065872D01*
X80141708Y-106049408D01*
X80302442Y-106000650D01*
X80450575Y-105921471D01*
X80543300Y-105845374D01*
X80636025Y-105921471D01*
X80784158Y-106000650D01*
X80944892Y-106049408D01*
X81112050Y-106065872D01*
X81257071Y-106065872D01*
X82851888Y-107660691D01*
X82771614Y-107668597D01*
X82628353Y-107712054D01*
X82496324Y-107782626D01*
X82380599Y-107877599D01*
X82356801Y-107906598D01*
X81708802Y-108554597D01*
X81679799Y-108578399D01*
X81626517Y-108643324D01*
X81584826Y-108694124D01*
X81539451Y-108779014D01*
X81514254Y-108826154D01*
X81470797Y-108969415D01*
X81459800Y-109081068D01*
X81459800Y-109081078D01*
X81456124Y-109118400D01*
X81459800Y-109155723D01*
X81459801Y-110401968D01*
X81456124Y-110439300D01*
X81459801Y-110476633D01*
X81462103Y-110500000D01*
X81470798Y-110588285D01*
X81514254Y-110731546D01*
X81584826Y-110863576D01*
X81647281Y-110939677D01*
X81679800Y-110979301D01*
X81708798Y-111003099D01*
X82140597Y-111434899D01*
X82140602Y-111434903D01*
X82668128Y-111962430D01*
X82668128Y-111963970D01*
X80616598Y-114015501D01*
X80587600Y-114039299D01*
X80563802Y-114068297D01*
X80563801Y-114068298D01*
X80492626Y-114155024D01*
X80422054Y-114287054D01*
X80378598Y-114430315D01*
X80363924Y-114579300D01*
X80367601Y-114616632D01*
X80367601Y-117024392D01*
X80238939Y-116998800D01*
X80035061Y-116998800D01*
X79835102Y-117038574D01*
X79646744Y-117116595D01*
X79477226Y-117229863D01*
X79333063Y-117374026D01*
X79219795Y-117543544D01*
X79141774Y-117731902D01*
X79102000Y-117931861D01*
X79102000Y-118135739D01*
X79141774Y-118335698D01*
X79219795Y-118524056D01*
X79333063Y-118693574D01*
X79377001Y-118737512D01*
X79377001Y-119640592D01*
X79248339Y-119615000D01*
X79044461Y-119615000D01*
X78844502Y-119654774D01*
X78699105Y-119715000D01*
X78694625Y-119715000D01*
X78698072Y-119680000D01*
X78698072Y-119080000D01*
X78685812Y-118955518D01*
X78649502Y-118835820D01*
X78600957Y-118745000D01*
X78649502Y-118654180D01*
X78685812Y-118534482D01*
X78698072Y-118410000D01*
X78698072Y-117810000D01*
X78685812Y-117685518D01*
X78649502Y-117565820D01*
X78600957Y-117475000D01*
X78649502Y-117384180D01*
X78685812Y-117264482D01*
X78698072Y-117140000D01*
X78698072Y-116540000D01*
X78685812Y-116415518D01*
X78649502Y-116295820D01*
X78590537Y-116185506D01*
X78511185Y-116088815D01*
X78414494Y-116009463D01*
X78304180Y-115950498D01*
X78184482Y-115914188D01*
X78070000Y-115902913D01*
X78070000Y-115788584D01*
X78100406Y-115813537D01*
X78210720Y-115872502D01*
X78330418Y-115908812D01*
X78454900Y-115921072D01*
X78606650Y-115918000D01*
X78765400Y-115759250D01*
X78765400Y-114935000D01*
X79019400Y-114935000D01*
X79019400Y-115759250D01*
X79178150Y-115918000D01*
X79329900Y-115921072D01*
X79454382Y-115908812D01*
X79574080Y-115872502D01*
X79684394Y-115813537D01*
X79781085Y-115734185D01*
X79860437Y-115637494D01*
X79919402Y-115527180D01*
X79955712Y-115407482D01*
X79967972Y-115283000D01*
X79964900Y-115093750D01*
X79806150Y-114935000D01*
X79019400Y-114935000D01*
X78765400Y-114935000D01*
X78745400Y-114935000D01*
X78745400Y-114681000D01*
X78765400Y-114681000D01*
X78765400Y-114661000D01*
X79019400Y-114661000D01*
X79019400Y-114681000D01*
X79806150Y-114681000D01*
X79964900Y-114522250D01*
X79967972Y-114333000D01*
X79955712Y-114208518D01*
X79919402Y-114088820D01*
X79860437Y-113978506D01*
X79781085Y-113881815D01*
X79684394Y-113802463D01*
X79574080Y-113743498D01*
X79454382Y-113707188D01*
X79329900Y-113694928D01*
X79178150Y-113698000D01*
X79019402Y-113856748D01*
X79019402Y-113698000D01*
X78927202Y-113698000D01*
X79068202Y-113557000D01*
X79130339Y-113557000D01*
X79330298Y-113517226D01*
X79518656Y-113439205D01*
X79688174Y-113325937D01*
X79832337Y-113181774D01*
X79945605Y-113012256D01*
X80023626Y-112823898D01*
X80063400Y-112623939D01*
X80063400Y-112420061D01*
X80023626Y-112220102D01*
X79945605Y-112031744D01*
X79832337Y-111862226D01*
X79688174Y-111718063D01*
X79518656Y-111604795D01*
X79330298Y-111526774D01*
X79130339Y-111487000D01*
X78926461Y-111487000D01*
X78726502Y-111526774D01*
X78538144Y-111604795D01*
X78368626Y-111718063D01*
X78224463Y-111862226D01*
X78111195Y-112031744D01*
X78033174Y-112220102D01*
X77993400Y-112420061D01*
X77993400Y-112482198D01*
X76806398Y-113669201D01*
X76777400Y-113692999D01*
X76753602Y-113721997D01*
X76753601Y-113721998D01*
X76684414Y-113806302D01*
X76622625Y-113839329D01*
X76492785Y-113945885D01*
X76386229Y-114075725D01*
X76307050Y-114223858D01*
X76258292Y-114384592D01*
X76241828Y-114551750D01*
X76241828Y-115064250D01*
X76258292Y-115231408D01*
X76307050Y-115392142D01*
X76386229Y-115540275D01*
X76492785Y-115670115D01*
X76550001Y-115717070D01*
X76550000Y-115902913D01*
X76435518Y-115914188D01*
X76315820Y-115950498D01*
X76205506Y-116009463D01*
X76108815Y-116088815D01*
X76029463Y-116185506D01*
X75970498Y-116295820D01*
X75934188Y-116415518D01*
X75921928Y-116540000D01*
X75921928Y-117140000D01*
X75934188Y-117264482D01*
X75960130Y-117350000D01*
X75264802Y-117350000D01*
X73579346Y-115664545D01*
X73703444Y-115598214D01*
X73799208Y-115333813D01*
X72843400Y-114378005D01*
X71887592Y-115333813D01*
X71900264Y-115368800D01*
X71338602Y-115368800D01*
X70230797Y-114260995D01*
X71201682Y-114260995D01*
X71245439Y-114580075D01*
X71350605Y-114884488D01*
X71443586Y-115058444D01*
X71707987Y-115154208D01*
X72663795Y-114198400D01*
X73023005Y-114198400D01*
X73978813Y-115154208D01*
X74243214Y-115058444D01*
X74384104Y-114768829D01*
X74465784Y-114457292D01*
X74485118Y-114135805D01*
X74441361Y-113816725D01*
X74336195Y-113512312D01*
X74243214Y-113338356D01*
X73978813Y-113242592D01*
X73023005Y-114198400D01*
X72663795Y-114198400D01*
X71707987Y-113242592D01*
X71443586Y-113338356D01*
X71302696Y-113627971D01*
X71221016Y-113939508D01*
X71201682Y-114260995D01*
X70230797Y-114260995D01*
X69657204Y-113687403D01*
X69633401Y-113658399D01*
X69517676Y-113563426D01*
X69481472Y-113544074D01*
X69481472Y-113198400D01*
X69469212Y-113073918D01*
X69465897Y-113062987D01*
X71887592Y-113062987D01*
X72843400Y-114018795D01*
X73799208Y-113062987D01*
X73703444Y-112798586D01*
X73413829Y-112657696D01*
X73102292Y-112576016D01*
X72780805Y-112556682D01*
X72461725Y-112600439D01*
X72157312Y-112705605D01*
X71983356Y-112798586D01*
X71887592Y-113062987D01*
X69465897Y-113062987D01*
X69432902Y-112954220D01*
X69373937Y-112843906D01*
X69294585Y-112747215D01*
X69197894Y-112667863D01*
X69087580Y-112608898D01*
X69061348Y-112600941D01*
X70453259Y-111209030D01*
X70488944Y-111179744D01*
X70605786Y-111037372D01*
X70692607Y-110874940D01*
X70746071Y-110698692D01*
X70759600Y-110561332D01*
X70764124Y-110515400D01*
X70759600Y-110469468D01*
X70759600Y-107032444D01*
X70844208Y-106963008D01*
X71023532Y-106744501D01*
X71156782Y-106495208D01*
X71238836Y-106224709D01*
X71266543Y-105943400D01*
X71238836Y-105662091D01*
X71218725Y-105595792D01*
X71335753Y-105658346D01*
X71335753Y-105658346D01*
G37*
X71335753Y-105658346D02*
X71479014Y-105701803D01*
X71590667Y-105712800D01*
X71590677Y-105712800D01*
X71628000Y-105716476D01*
X71665323Y-105712800D01*
X78847382Y-105712800D01*
X78931185Y-105814915D01*
X79061025Y-105921471D01*
X79209158Y-106000650D01*
X79369892Y-106049408D01*
X79537050Y-106065872D01*
X79974550Y-106065872D01*
X80141708Y-106049408D01*
X80302442Y-106000650D01*
X80450575Y-105921471D01*
X80543300Y-105845374D01*
X80636025Y-105921471D01*
X80784158Y-106000650D01*
X80944892Y-106049408D01*
X81112050Y-106065872D01*
X81257071Y-106065872D01*
X82851888Y-107660691D01*
X82771614Y-107668597D01*
X82628353Y-107712054D01*
X82496324Y-107782626D01*
X82380599Y-107877599D01*
X82356801Y-107906598D01*
X81708802Y-108554597D01*
X81679799Y-108578399D01*
X81626517Y-108643324D01*
X81584826Y-108694124D01*
X81539451Y-108779014D01*
X81514254Y-108826154D01*
X81470797Y-108969415D01*
X81459800Y-109081068D01*
X81459800Y-109081078D01*
X81456124Y-109118400D01*
X81459800Y-109155723D01*
X81459801Y-110401968D01*
X81456124Y-110439300D01*
X81459801Y-110476633D01*
X81462103Y-110500000D01*
X81470798Y-110588285D01*
X81514254Y-110731546D01*
X81584826Y-110863576D01*
X81647281Y-110939677D01*
X81679800Y-110979301D01*
X81708798Y-111003099D01*
X82140597Y-111434899D01*
X82140602Y-111434903D01*
X82668128Y-111962430D01*
X82668128Y-111963970D01*
X80616598Y-114015501D01*
X80587600Y-114039299D01*
X80563802Y-114068297D01*
X80563801Y-114068298D01*
X80492626Y-114155024D01*
X80422054Y-114287054D01*
X80378598Y-114430315D01*
X80363924Y-114579300D01*
X80367601Y-114616632D01*
X80367601Y-117024392D01*
X80238939Y-116998800D01*
X80035061Y-116998800D01*
X79835102Y-117038574D01*
X79646744Y-117116595D01*
X79477226Y-117229863D01*
X79333063Y-117374026D01*
X79219795Y-117543544D01*
X79141774Y-117731902D01*
X79102000Y-117931861D01*
X79102000Y-118135739D01*
X79141774Y-118335698D01*
X79219795Y-118524056D01*
X79333063Y-118693574D01*
X79377001Y-118737512D01*
X79377001Y-119640592D01*
X79248339Y-119615000D01*
X79044461Y-119615000D01*
X78844502Y-119654774D01*
X78699105Y-119715000D01*
X78694625Y-119715000D01*
X78698072Y-119680000D01*
X78698072Y-119080000D01*
X78685812Y-118955518D01*
X78649502Y-118835820D01*
X78600957Y-118745000D01*
X78649502Y-118654180D01*
X78685812Y-118534482D01*
X78698072Y-118410000D01*
X78698072Y-117810000D01*
X78685812Y-117685518D01*
X78649502Y-117565820D01*
X78600957Y-117475000D01*
X78649502Y-117384180D01*
X78685812Y-117264482D01*
X78698072Y-117140000D01*
X78698072Y-116540000D01*
X78685812Y-116415518D01*
X78649502Y-116295820D01*
X78590537Y-116185506D01*
X78511185Y-116088815D01*
X78414494Y-116009463D01*
X78304180Y-115950498D01*
X78184482Y-115914188D01*
X78070000Y-115902913D01*
X78070000Y-115788584D01*
X78100406Y-115813537D01*
X78210720Y-115872502D01*
X78330418Y-115908812D01*
X78454900Y-115921072D01*
X78606650Y-115918000D01*
X78765400Y-115759250D01*
X78765400Y-114935000D01*
X79019400Y-114935000D01*
X79019400Y-115759250D01*
X79178150Y-115918000D01*
X79329900Y-115921072D01*
X79454382Y-115908812D01*
X79574080Y-115872502D01*
X79684394Y-115813537D01*
X79781085Y-115734185D01*
X79860437Y-115637494D01*
X79919402Y-115527180D01*
X79955712Y-115407482D01*
X79967972Y-115283000D01*
X79964900Y-115093750D01*
X79806150Y-114935000D01*
X79019400Y-114935000D01*
X78765400Y-114935000D01*
X78745400Y-114935000D01*
X78745400Y-114681000D01*
X78765400Y-114681000D01*
X78765400Y-114661000D01*
X79019400Y-114661000D01*
X79019400Y-114681000D01*
X79806150Y-114681000D01*
X79964900Y-114522250D01*
X79967972Y-114333000D01*
X79955712Y-114208518D01*
X79919402Y-114088820D01*
X79860437Y-113978506D01*
X79781085Y-113881815D01*
X79684394Y-113802463D01*
X79574080Y-113743498D01*
X79454382Y-113707188D01*
X79329900Y-113694928D01*
X79178150Y-113698000D01*
X79019402Y-113856748D01*
X79019402Y-113698000D01*
X78927202Y-113698000D01*
X79068202Y-113557000D01*
X79130339Y-113557000D01*
X79330298Y-113517226D01*
X79518656Y-113439205D01*
X79688174Y-113325937D01*
X79832337Y-113181774D01*
X79945605Y-113012256D01*
X80023626Y-112823898D01*
X80063400Y-112623939D01*
X80063400Y-112420061D01*
X80023626Y-112220102D01*
X79945605Y-112031744D01*
X79832337Y-111862226D01*
X79688174Y-111718063D01*
X79518656Y-111604795D01*
X79330298Y-111526774D01*
X79130339Y-111487000D01*
X78926461Y-111487000D01*
X78726502Y-111526774D01*
X78538144Y-111604795D01*
X78368626Y-111718063D01*
X78224463Y-111862226D01*
X78111195Y-112031744D01*
X78033174Y-112220102D01*
X77993400Y-112420061D01*
X77993400Y-112482198D01*
X76806398Y-113669201D01*
X76777400Y-113692999D01*
X76753602Y-113721997D01*
X76753601Y-113721998D01*
X76684414Y-113806302D01*
X76622625Y-113839329D01*
X76492785Y-113945885D01*
X76386229Y-114075725D01*
X76307050Y-114223858D01*
X76258292Y-114384592D01*
X76241828Y-114551750D01*
X76241828Y-115064250D01*
X76258292Y-115231408D01*
X76307050Y-115392142D01*
X76386229Y-115540275D01*
X76492785Y-115670115D01*
X76550001Y-115717070D01*
X76550000Y-115902913D01*
X76435518Y-115914188D01*
X76315820Y-115950498D01*
X76205506Y-116009463D01*
X76108815Y-116088815D01*
X76029463Y-116185506D01*
X75970498Y-116295820D01*
X75934188Y-116415518D01*
X75921928Y-116540000D01*
X75921928Y-117140000D01*
X75934188Y-117264482D01*
X75960130Y-117350000D01*
X75264802Y-117350000D01*
X73579346Y-115664545D01*
X73703444Y-115598214D01*
X73799208Y-115333813D01*
X72843400Y-114378005D01*
X71887592Y-115333813D01*
X71900264Y-115368800D01*
X71338602Y-115368800D01*
X70230797Y-114260995D01*
X71201682Y-114260995D01*
X71245439Y-114580075D01*
X71350605Y-114884488D01*
X71443586Y-115058444D01*
X71707987Y-115154208D01*
X72663795Y-114198400D01*
X73023005Y-114198400D01*
X73978813Y-115154208D01*
X74243214Y-115058444D01*
X74384104Y-114768829D01*
X74465784Y-114457292D01*
X74485118Y-114135805D01*
X74441361Y-113816725D01*
X74336195Y-113512312D01*
X74243214Y-113338356D01*
X73978813Y-113242592D01*
X73023005Y-114198400D01*
X72663795Y-114198400D01*
X71707987Y-113242592D01*
X71443586Y-113338356D01*
X71302696Y-113627971D01*
X71221016Y-113939508D01*
X71201682Y-114260995D01*
X70230797Y-114260995D01*
X69657204Y-113687403D01*
X69633401Y-113658399D01*
X69517676Y-113563426D01*
X69481472Y-113544074D01*
X69481472Y-113198400D01*
X69469212Y-113073918D01*
X69465897Y-113062987D01*
X71887592Y-113062987D01*
X72843400Y-114018795D01*
X73799208Y-113062987D01*
X73703444Y-112798586D01*
X73413829Y-112657696D01*
X73102292Y-112576016D01*
X72780805Y-112556682D01*
X72461725Y-112600439D01*
X72157312Y-112705605D01*
X71983356Y-112798586D01*
X71887592Y-113062987D01*
X69465897Y-113062987D01*
X69432902Y-112954220D01*
X69373937Y-112843906D01*
X69294585Y-112747215D01*
X69197894Y-112667863D01*
X69087580Y-112608898D01*
X69061348Y-112600941D01*
X70453259Y-111209030D01*
X70488944Y-111179744D01*
X70605786Y-111037372D01*
X70692607Y-110874940D01*
X70746071Y-110698692D01*
X70759600Y-110561332D01*
X70764124Y-110515400D01*
X70759600Y-110469468D01*
X70759600Y-107032444D01*
X70844208Y-106963008D01*
X71023532Y-106744501D01*
X71156782Y-106495208D01*
X71238836Y-106224709D01*
X71266543Y-105943400D01*
X71238836Y-105662091D01*
X71218725Y-105595792D01*
X71335753Y-105658346D01*
G36*
X86634799Y-110228602D02*
G01*
X86658597Y-110257601D01*
X86687595Y-110281399D01*
X86774322Y-110352574D01*
X86906351Y-110423146D01*
X87049612Y-110466603D01*
X87080899Y-110469685D01*
X87159118Y-110493412D01*
X87283600Y-110505672D01*
X88883600Y-110505672D01*
X89008082Y-110493412D01*
X89127780Y-110457102D01*
X89128458Y-110456740D01*
X88735070Y-110850128D01*
X88478050Y-110850128D01*
X88310892Y-110866592D01*
X88150158Y-110915350D01*
X88002025Y-110994529D01*
X87980370Y-111012300D01*
X87913794Y-110957663D01*
X87803480Y-110898698D01*
X87683782Y-110862388D01*
X87559300Y-110850128D01*
X87407550Y-110853200D01*
X87248800Y-111011950D01*
X87248800Y-111836200D01*
X87268800Y-111836200D01*
X87268800Y-112090200D01*
X87248800Y-112090200D01*
X87248800Y-112914450D01*
X87407550Y-113073200D01*
X87559300Y-113076272D01*
X87683782Y-113064012D01*
X87803480Y-113027702D01*
X87913794Y-112968737D01*
X87936800Y-112949856D01*
X87936801Y-114137596D01*
X85075599Y-116998800D01*
X85013461Y-116998800D01*
X84813502Y-117038574D01*
X84625144Y-117116595D01*
X84455626Y-117229863D01*
X84311463Y-117374026D01*
X84198195Y-117543544D01*
X84120174Y-117731902D01*
X84098072Y-117843017D01*
X84098072Y-117810000D01*
X84085812Y-117685518D01*
X84049502Y-117565820D01*
X84000957Y-117475000D01*
X84049502Y-117384180D01*
X84085812Y-117264482D01*
X84098072Y-117140000D01*
X84098072Y-116540000D01*
X84085812Y-116415518D01*
X84049502Y-116295820D01*
X83990537Y-116185506D01*
X83911185Y-116088815D01*
X83814494Y-116009463D01*
X83704180Y-115950498D01*
X83584482Y-115914188D01*
X83460000Y-115901928D01*
X81960000Y-115901928D01*
X81887600Y-115909059D01*
X81887600Y-114894101D01*
X83705430Y-113076272D01*
X83962450Y-113076272D01*
X84129608Y-113059808D01*
X84290342Y-113011050D01*
X84438475Y-112931871D01*
X84460130Y-112914100D01*
X84526706Y-112968737D01*
X84637020Y-113027702D01*
X84756718Y-113064012D01*
X84881200Y-113076272D01*
X85032950Y-113073200D01*
X85191700Y-112914450D01*
X85191700Y-112090200D01*
X85445700Y-112090200D01*
X85445700Y-112914450D01*
X85604450Y-113073200D01*
X85756200Y-113076272D01*
X85880682Y-113064012D01*
X86000380Y-113027702D01*
X86110694Y-112968737D01*
X86207385Y-112889385D01*
X86220250Y-112873709D01*
X86233115Y-112889385D01*
X86329806Y-112968737D01*
X86440120Y-113027702D01*
X86559818Y-113064012D01*
X86684300Y-113076272D01*
X86836050Y-113073200D01*
X86994800Y-112914450D01*
X86994800Y-112090200D01*
X85445700Y-112090200D01*
X85191700Y-112090200D01*
X85171700Y-112090200D01*
X85171700Y-111836200D01*
X85191700Y-111836200D01*
X85191700Y-111011950D01*
X85445700Y-111011950D01*
X85445700Y-111836200D01*
X86994800Y-111836200D01*
X86994800Y-111011950D01*
X86836050Y-110853200D01*
X86684300Y-110850128D01*
X86559818Y-110862388D01*
X86440120Y-110898698D01*
X86329806Y-110957663D01*
X86233115Y-111037015D01*
X86220250Y-111052691D01*
X86207385Y-111037015D01*
X86110694Y-110957663D01*
X86000380Y-110898698D01*
X85880682Y-110862388D01*
X85756200Y-110850128D01*
X85604450Y-110853200D01*
X85445700Y-111011950D01*
X85191700Y-111011950D01*
X85032950Y-110853200D01*
X84881200Y-110850128D01*
X84756718Y-110862388D01*
X84637020Y-110898698D01*
X84526706Y-110957663D01*
X84460130Y-111012300D01*
X84438475Y-110994529D01*
X84290342Y-110915350D01*
X84129608Y-110866592D01*
X83962450Y-110850128D01*
X83705429Y-110850128D01*
X83403636Y-110548335D01*
X83461498Y-110536826D01*
X83646892Y-110460033D01*
X83647819Y-110460511D01*
X83768020Y-110495117D01*
X83892663Y-110505608D01*
X84397850Y-110502600D01*
X84556600Y-110343850D01*
X84556600Y-109855672D01*
X84810600Y-109855672D01*
X84810600Y-110343850D01*
X84969350Y-110502600D01*
X85474537Y-110505608D01*
X85599180Y-110495117D01*
X85719381Y-110460511D01*
X85830522Y-110403119D01*
X85928331Y-110325148D01*
X86009049Y-110229594D01*
X86069574Y-110120128D01*
X86107580Y-110000958D01*
X86118600Y-109899350D01*
X85959850Y-109740600D01*
X85847278Y-109740600D01*
X85903329Y-109694600D01*
X85959850Y-109694600D01*
X86030323Y-109624127D01*
X86634799Y-110228602D01*
X86634799Y-110228602D01*
G37*
X86634799Y-110228602D02*
X86658597Y-110257601D01*
X86687595Y-110281399D01*
X86774322Y-110352574D01*
X86906351Y-110423146D01*
X87049612Y-110466603D01*
X87080899Y-110469685D01*
X87159118Y-110493412D01*
X87283600Y-110505672D01*
X88883600Y-110505672D01*
X89008082Y-110493412D01*
X89127780Y-110457102D01*
X89128458Y-110456740D01*
X88735070Y-110850128D01*
X88478050Y-110850128D01*
X88310892Y-110866592D01*
X88150158Y-110915350D01*
X88002025Y-110994529D01*
X87980370Y-111012300D01*
X87913794Y-110957663D01*
X87803480Y-110898698D01*
X87683782Y-110862388D01*
X87559300Y-110850128D01*
X87407550Y-110853200D01*
X87248800Y-111011950D01*
X87248800Y-111836200D01*
X87268800Y-111836200D01*
X87268800Y-112090200D01*
X87248800Y-112090200D01*
X87248800Y-112914450D01*
X87407550Y-113073200D01*
X87559300Y-113076272D01*
X87683782Y-113064012D01*
X87803480Y-113027702D01*
X87913794Y-112968737D01*
X87936800Y-112949856D01*
X87936801Y-114137596D01*
X85075599Y-116998800D01*
X85013461Y-116998800D01*
X84813502Y-117038574D01*
X84625144Y-117116595D01*
X84455626Y-117229863D01*
X84311463Y-117374026D01*
X84198195Y-117543544D01*
X84120174Y-117731902D01*
X84098072Y-117843017D01*
X84098072Y-117810000D01*
X84085812Y-117685518D01*
X84049502Y-117565820D01*
X84000957Y-117475000D01*
X84049502Y-117384180D01*
X84085812Y-117264482D01*
X84098072Y-117140000D01*
X84098072Y-116540000D01*
X84085812Y-116415518D01*
X84049502Y-116295820D01*
X83990537Y-116185506D01*
X83911185Y-116088815D01*
X83814494Y-116009463D01*
X83704180Y-115950498D01*
X83584482Y-115914188D01*
X83460000Y-115901928D01*
X81960000Y-115901928D01*
X81887600Y-115909059D01*
X81887600Y-114894101D01*
X83705430Y-113076272D01*
X83962450Y-113076272D01*
X84129608Y-113059808D01*
X84290342Y-113011050D01*
X84438475Y-112931871D01*
X84460130Y-112914100D01*
X84526706Y-112968737D01*
X84637020Y-113027702D01*
X84756718Y-113064012D01*
X84881200Y-113076272D01*
X85032950Y-113073200D01*
X85191700Y-112914450D01*
X85191700Y-112090200D01*
X85445700Y-112090200D01*
X85445700Y-112914450D01*
X85604450Y-113073200D01*
X85756200Y-113076272D01*
X85880682Y-113064012D01*
X86000380Y-113027702D01*
X86110694Y-112968737D01*
X86207385Y-112889385D01*
X86220250Y-112873709D01*
X86233115Y-112889385D01*
X86329806Y-112968737D01*
X86440120Y-113027702D01*
X86559818Y-113064012D01*
X86684300Y-113076272D01*
X86836050Y-113073200D01*
X86994800Y-112914450D01*
X86994800Y-112090200D01*
X85445700Y-112090200D01*
X85191700Y-112090200D01*
X85171700Y-112090200D01*
X85171700Y-111836200D01*
X85191700Y-111836200D01*
X85191700Y-111011950D01*
X85445700Y-111011950D01*
X85445700Y-111836200D01*
X86994800Y-111836200D01*
X86994800Y-111011950D01*
X86836050Y-110853200D01*
X86684300Y-110850128D01*
X86559818Y-110862388D01*
X86440120Y-110898698D01*
X86329806Y-110957663D01*
X86233115Y-111037015D01*
X86220250Y-111052691D01*
X86207385Y-111037015D01*
X86110694Y-110957663D01*
X86000380Y-110898698D01*
X85880682Y-110862388D01*
X85756200Y-110850128D01*
X85604450Y-110853200D01*
X85445700Y-111011950D01*
X85191700Y-111011950D01*
X85032950Y-110853200D01*
X84881200Y-110850128D01*
X84756718Y-110862388D01*
X84637020Y-110898698D01*
X84526706Y-110957663D01*
X84460130Y-111012300D01*
X84438475Y-110994529D01*
X84290342Y-110915350D01*
X84129608Y-110866592D01*
X83962450Y-110850128D01*
X83705429Y-110850128D01*
X83403636Y-110548335D01*
X83461498Y-110536826D01*
X83646892Y-110460033D01*
X83647819Y-110460511D01*
X83768020Y-110495117D01*
X83892663Y-110505608D01*
X84397850Y-110502600D01*
X84556600Y-110343850D01*
X84556600Y-109855672D01*
X84810600Y-109855672D01*
X84810600Y-110343850D01*
X84969350Y-110502600D01*
X85474537Y-110505608D01*
X85599180Y-110495117D01*
X85719381Y-110460511D01*
X85830522Y-110403119D01*
X85928331Y-110325148D01*
X86009049Y-110229594D01*
X86069574Y-110120128D01*
X86107580Y-110000958D01*
X86118600Y-109899350D01*
X85959850Y-109740600D01*
X85847278Y-109740600D01*
X85903329Y-109694600D01*
X85959850Y-109694600D01*
X86030323Y-109624127D01*
X86634799Y-110228602D01*
M02*
