G04 #@! TF.GenerationSoftware,KiCad,Pcbnew,(5.1.0)-1*
G04 #@! TF.CreationDate,2019-06-01T09:59:27+02:00*
G04 #@! TF.ProjectId,Main_board,4d61696e-5f62-46f6-9172-642e6b696361,V0-2*
G04 #@! TF.SameCoordinates,Original*
G04 #@! TF.FileFunction,Copper,L2,Bot*
G04 #@! TF.FilePolarity,Positive*
%FSLAX46Y46*%
G04 Gerber Fmt 4.6, Leading zero omitted, Abs format (unit mm)*
G04 Created by KiCad (PCBNEW (5.1.0)-1) date 2019-06-01 09:59:27*
%MOMM*%
%LPD*%
G04 APERTURE LIST*
%ADD10C,2.286000*%
%ADD11O,1.700000X1.700000*%
%ADD12R,1.700000X1.700000*%
%ADD13C,1.450000*%
%ADD14O,1.200000X1.900000*%
%ADD15C,1.440000*%
%ADD16R,1.600000X1.600000*%
%ADD17O,1.600000X1.600000*%
%ADD18C,1.500000*%
%ADD19C,0.762000*%
%ADD20C,0.381000*%
%ADD21C,0.254000*%
G04 APERTURE END LIST*
D10*
X145745200Y-97358200D03*
X143205200Y-97358200D03*
X140665200Y-97358200D03*
X138125200Y-97358200D03*
X135585200Y-97358200D03*
X133045200Y-97358200D03*
X130505200Y-97358200D03*
X127965200Y-97358200D03*
D11*
X166573200Y-106400600D03*
X169113200Y-106400600D03*
X171653200Y-106400600D03*
X174193200Y-106400600D03*
X176733200Y-106400600D03*
D12*
X179273200Y-106400600D03*
D11*
X127025400Y-71704200D03*
D12*
X129565400Y-71704200D03*
X129565400Y-74244200D03*
D11*
X127025400Y-74244200D03*
D10*
X149021800Y-132461000D03*
X146481800Y-132461000D03*
X143941800Y-132461000D03*
X141401800Y-132461000D03*
X138861800Y-132461000D03*
X136321800Y-132461000D03*
X133781800Y-132461000D03*
X131241800Y-132461000D03*
X128701800Y-132461000D03*
D12*
X160502600Y-69189600D03*
D11*
X163042600Y-69189600D03*
X160502600Y-71729600D03*
X163042600Y-71729600D03*
X160502600Y-74269600D03*
X163042600Y-74269600D03*
D13*
X157008200Y-57317100D03*
X152008200Y-57317100D03*
D14*
X158008200Y-54617100D03*
X151008200Y-54617100D03*
D11*
X127025400Y-64084200D03*
D12*
X129565400Y-64084200D03*
X129565400Y-66624200D03*
D11*
X127025400Y-66624200D03*
D12*
X129565400Y-69164200D03*
D11*
X127025400Y-69164200D03*
D12*
X144907000Y-78308200D03*
D11*
X142367000Y-78308200D03*
D15*
X165049200Y-119100600D03*
X162509200Y-119100600D03*
X159969200Y-119100600D03*
X165506400Y-133883400D03*
X165506400Y-136423400D03*
X165506400Y-138963400D03*
X159791400Y-138963400D03*
X159791400Y-136423400D03*
X159791400Y-133883400D03*
D12*
X134645400Y-76784200D03*
D11*
X132105400Y-76784200D03*
X129565400Y-76784200D03*
X127025400Y-76784200D03*
X142367000Y-80848200D03*
D12*
X144907000Y-80848200D03*
X144907000Y-142392400D03*
D11*
X147447000Y-142392400D03*
X149987000Y-142392400D03*
D12*
X179324000Y-99796600D03*
D11*
X176784000Y-99796600D03*
X174244000Y-99796600D03*
X171704000Y-99796600D03*
X169164000Y-99796600D03*
X166624000Y-99796600D03*
D16*
X170535600Y-113995200D03*
D17*
X178155600Y-131775200D03*
X170535600Y-116535200D03*
X178155600Y-129235200D03*
X170535600Y-119075200D03*
X178155600Y-126695200D03*
X170535600Y-121615200D03*
X178155600Y-124155200D03*
X170535600Y-124155200D03*
X178155600Y-121615200D03*
X170535600Y-126695200D03*
X178155600Y-119075200D03*
X170535600Y-129235200D03*
X178155600Y-116535200D03*
X170535600Y-131775200D03*
X178155600Y-113995200D03*
D18*
X136906000Y-58597800D03*
X132026000Y-58597800D03*
D19*
X140893800Y-126974600D03*
X137388600Y-113233200D03*
X154584400Y-100863400D03*
X145034000Y-65659000D03*
X132054600Y-71882000D03*
X131826000Y-74549000D03*
X171190800Y-61447800D03*
X165938200Y-74676000D03*
X164211000Y-83185000D03*
X177749200Y-95300800D03*
X165481000Y-92760800D03*
X143941800Y-74980800D03*
X163677600Y-101879400D03*
X159029400Y-96342200D03*
X149555200Y-96342200D03*
X175666400Y-62763400D03*
X146481800Y-129387600D03*
X148666200Y-115290800D03*
X131343400Y-79764281D03*
X135712200Y-79756000D03*
X146964400Y-104165400D03*
X157109200Y-92415400D03*
X178308000Y-62763400D03*
X161899600Y-92735400D03*
X153771600Y-117576600D03*
X157911800Y-103327200D03*
X149225000Y-68529200D03*
X156870400Y-68529200D03*
X158953200Y-67716400D03*
X169265600Y-67106800D03*
X169265600Y-62966600D03*
X168021100Y-54305100D03*
X176657000Y-76073000D03*
X177444400Y-71805800D03*
X141274800Y-70078600D03*
X157835600Y-69824600D03*
X159131000Y-88239600D03*
X139623800Y-73990200D03*
X156133800Y-71297800D03*
X158572200Y-86969600D03*
X141554200Y-67640200D03*
X159893000Y-89509600D03*
X145313400Y-69189600D03*
X144373600Y-68376800D03*
X133045200Y-89204800D03*
X154533600Y-59842400D03*
X178257200Y-64465200D03*
X153314400Y-60883800D03*
X178164200Y-65997800D03*
X137337800Y-75819000D03*
X133096000Y-107289600D03*
X138125200Y-117266000D03*
X140055600Y-121920000D03*
X133451600Y-119557800D03*
X131800600Y-117398800D03*
X175361000Y-60147800D03*
X144221200Y-118999000D03*
X148590000Y-71882000D03*
X165557200Y-68402200D03*
X155219400Y-70180200D03*
X153619200Y-95300800D03*
X161264600Y-95300800D03*
X167690800Y-69265800D03*
X148971100Y-64744700D03*
X155752700Y-64744700D03*
X148996400Y-74904600D03*
X155270200Y-85699600D03*
X144399000Y-122605800D03*
X147294600Y-122605800D03*
X175353000Y-57547800D03*
X139065000Y-123596400D03*
X171653200Y-86969600D03*
X164363400Y-86969600D03*
D20*
X144322799Y-75361799D02*
X147599399Y-75361799D01*
X143941800Y-74980800D02*
X144322799Y-75361799D01*
X147599399Y-75361799D02*
X154355800Y-82118200D01*
X154355800Y-86918800D02*
X163677600Y-96240600D01*
X154355800Y-82118200D02*
X154355800Y-86918800D01*
X163677600Y-96240600D02*
X163677600Y-101879400D01*
X163677600Y-101879400D02*
X163677600Y-101879400D01*
X150094015Y-96342200D02*
X159029400Y-96342200D01*
X149555200Y-96342200D02*
X150094015Y-96342200D01*
X175666400Y-62763400D02*
X175666400Y-62763400D01*
X148666200Y-127203200D02*
X146481800Y-129387600D01*
X148666200Y-115290800D02*
X148666200Y-127203200D01*
X131351681Y-79756000D02*
X131343400Y-79764281D01*
X135712200Y-79756000D02*
X131351681Y-79756000D01*
X127965200Y-98974646D02*
X129879354Y-100888800D01*
X127965200Y-97358200D02*
X127965200Y-98974646D01*
X129879354Y-100888800D02*
X143510000Y-100888800D01*
X143510000Y-100888800D02*
X143687800Y-100888800D01*
X143687800Y-100888800D02*
X146964400Y-104165400D01*
X146964400Y-104165400D02*
X146964400Y-104165400D01*
X162636200Y-74676000D02*
X163042600Y-74269600D01*
X156570385Y-92415400D02*
X155107385Y-93878400D01*
X157109200Y-92415400D02*
X156570385Y-92415400D01*
X155107385Y-93878400D02*
X150139400Y-93878400D01*
X148831299Y-95186501D02*
X148831299Y-99479101D01*
X150139400Y-93878400D02*
X148831299Y-95186501D01*
X146964400Y-101346000D02*
X146964400Y-104165400D01*
X148831299Y-99479101D02*
X146964400Y-101346000D01*
X175666400Y-62763400D02*
X176205215Y-62763400D01*
X176205215Y-62763400D02*
X178308000Y-62763400D01*
X178308000Y-62763400D02*
X178308000Y-62763400D01*
X161899600Y-75412600D02*
X163042600Y-74269600D01*
X161899600Y-92735400D02*
X161899600Y-75412600D01*
X179324000Y-106349800D02*
X179273200Y-106400600D01*
X179324000Y-99796600D02*
X179324000Y-106349800D01*
X149987000Y-142392400D02*
X150836999Y-141542401D01*
X150836999Y-141542401D02*
X153416000Y-138963400D01*
X153416000Y-138963400D02*
X153771600Y-138607800D01*
X153771600Y-138607800D02*
X153771600Y-117576600D01*
X153771600Y-117576600D02*
X153771600Y-117576600D01*
X159029400Y-103327200D02*
X159029400Y-103327200D01*
X173253400Y-103327200D02*
X176784000Y-99796600D01*
X157911800Y-103327200D02*
X173253400Y-103327200D01*
X162509200Y-119100600D02*
X159969200Y-119100600D01*
X149225000Y-68529200D02*
X156870400Y-68529200D01*
X156870400Y-68529200D02*
X156870400Y-68529200D01*
X159492015Y-67716400D02*
X160101615Y-67106800D01*
X158953200Y-67716400D02*
X159492015Y-67716400D01*
X160101615Y-67106800D02*
X169265600Y-67106800D01*
X169265600Y-67106800D02*
X169265600Y-67106800D01*
X168021100Y-61722100D02*
X169265600Y-62966600D01*
X168021100Y-54305100D02*
X168021100Y-61722100D01*
X177444400Y-75285600D02*
X176657000Y-76073000D01*
X177444400Y-71805800D02*
X177444400Y-75285600D01*
X141274800Y-70078600D02*
X149504400Y-70078600D01*
X149504400Y-70078600D02*
X150266400Y-69316600D01*
X150266400Y-69316600D02*
X155778200Y-69316600D01*
X155778200Y-69316600D02*
X156286200Y-69824600D01*
X156286200Y-69824600D02*
X157835600Y-69824600D01*
X159511999Y-87858601D02*
X159511999Y-77876399D01*
X159131000Y-88239600D02*
X159511999Y-87858601D01*
X157835600Y-76200000D02*
X157835600Y-69824600D01*
X159511999Y-77876399D02*
X157835600Y-76200000D01*
X152704800Y-73990200D02*
X140284200Y-73990200D01*
X140284200Y-73990200D02*
X140284200Y-73990200D01*
X140284200Y-73990200D02*
X139623800Y-73990200D01*
X139623800Y-73990200D02*
X139623800Y-73990200D01*
X155397200Y-71297800D02*
X152704800Y-73990200D01*
X156133800Y-71297800D02*
X155397200Y-71297800D01*
X156133800Y-84531200D02*
X156133800Y-71297800D01*
X158572200Y-86969600D02*
X156133800Y-84531200D01*
X158699200Y-72466200D02*
X160502600Y-74269600D01*
X158699200Y-68554600D02*
X158699200Y-72466200D01*
X141554200Y-67640200D02*
X157784800Y-67640200D01*
X157784800Y-67640200D02*
X158699200Y-68554600D01*
X159893000Y-89509600D02*
X161036000Y-88366600D01*
X161036000Y-88366600D02*
X161036000Y-76454000D01*
X160502600Y-75920600D02*
X160502600Y-74269600D01*
X161036000Y-76454000D02*
X160502600Y-75920600D01*
X134645400Y-75553200D02*
X141009000Y-69189600D01*
X134645400Y-76784200D02*
X134645400Y-75553200D01*
X141009000Y-69189600D02*
X145313400Y-69189600D01*
X145313400Y-69189600D02*
X145313400Y-69189600D01*
X132105400Y-75582119D02*
X139310719Y-68376800D01*
X132105400Y-76784200D02*
X132105400Y-75582119D01*
X139310719Y-68376800D02*
X144373600Y-68376800D01*
X144373600Y-68376800D02*
X144373600Y-68376800D01*
X133045200Y-89204800D02*
X133045200Y-97358200D01*
X159156400Y-64465200D02*
X154533600Y-59842400D01*
X178257200Y-64465200D02*
X159156400Y-64465200D01*
X158428400Y-65997800D02*
X178164200Y-65997800D01*
X153314400Y-60883800D02*
X158428400Y-65997800D01*
X137337800Y-75819000D02*
X137337800Y-82016600D01*
X137337800Y-82016600D02*
X125526800Y-93827600D01*
X125526800Y-104444800D02*
X128371600Y-107289600D01*
X125526800Y-93827600D02*
X125526800Y-104444800D01*
X128371600Y-107289600D02*
X133096000Y-107289600D01*
X133096000Y-107289600D02*
X133096000Y-107289600D01*
X138125200Y-117266000D02*
X138125200Y-117804815D01*
X138125200Y-117804815D02*
X138125200Y-119989600D01*
X138125200Y-119989600D02*
X140055600Y-121920000D01*
X140055600Y-121920000D02*
X140055600Y-121920000D01*
X132912785Y-119557800D02*
X131800600Y-118445615D01*
X133451600Y-119557800D02*
X132912785Y-119557800D01*
X131800600Y-118445615D02*
X131800600Y-117398800D01*
X131800600Y-117398800D02*
X131800600Y-117398800D01*
X144221200Y-116586000D02*
X144221200Y-118999000D01*
X144221200Y-118999000D02*
X144221200Y-118999000D01*
X180390800Y-109474000D02*
X151333200Y-109474000D01*
X151333200Y-109474000D02*
X144221200Y-116586000D01*
X175361000Y-60147800D02*
X177800600Y-60147800D01*
X177800600Y-60147800D02*
X181102000Y-63449200D01*
X181102000Y-63449200D02*
X181102000Y-108762800D01*
X181102000Y-108762800D02*
X180390800Y-109474000D01*
X170510200Y-119100600D02*
X170535600Y-119075200D01*
X165049200Y-119100600D02*
X170510200Y-119100600D01*
X168427400Y-133883400D02*
X170535600Y-131775200D01*
X165506400Y-133883400D02*
X168427400Y-133883400D01*
X159791400Y-133883400D02*
X162001200Y-133883400D01*
X166649400Y-129235200D02*
X170535600Y-129235200D01*
X162001200Y-133883400D02*
X166649400Y-129235200D01*
X172466000Y-118465600D02*
X172466000Y-135839200D01*
X170535600Y-116535200D02*
X172466000Y-118465600D01*
X172466000Y-135839200D02*
X163880800Y-144424400D01*
X163880800Y-144424400D02*
X149402800Y-144424400D01*
X149402800Y-144348200D02*
X147447000Y-142392400D01*
X149402800Y-144424400D02*
X149402800Y-144348200D01*
X152984200Y-70154800D02*
X152984200Y-70154800D01*
X174244000Y-98594519D02*
X174244000Y-99796600D01*
X174244000Y-74747626D02*
X174244000Y-98594519D01*
X167898574Y-68402200D02*
X174244000Y-74747626D01*
X165557200Y-68402200D02*
X167898574Y-68402200D01*
X149128815Y-71882000D02*
X148590000Y-71882000D01*
X150856015Y-70154800D02*
X149128815Y-71882000D01*
X154655185Y-70154800D02*
X150856015Y-70154800D01*
X154680585Y-70180200D02*
X154655185Y-70154800D01*
X155219400Y-70180200D02*
X154680585Y-70180200D01*
X153619200Y-95300800D02*
X161264600Y-95300800D01*
X161264600Y-95300800D02*
X161264600Y-95300800D01*
X167690800Y-69265800D02*
X167690800Y-79629000D01*
X167690800Y-79629000D02*
X172618400Y-84556600D01*
X172618400Y-84556600D02*
X172618400Y-92278200D01*
X169164000Y-95732600D02*
X169164000Y-99796600D01*
X172618400Y-92278200D02*
X169164000Y-95732600D01*
X148971100Y-64744700D02*
X155752700Y-64744700D01*
X155752700Y-64744700D02*
X155752700Y-64744700D01*
X149535215Y-74904600D02*
X155270200Y-80639585D01*
X148996400Y-74904600D02*
X149535215Y-74904600D01*
X155270200Y-80639585D02*
X155270200Y-85699600D01*
X155270200Y-85699600D02*
X155270200Y-85699600D01*
X144399000Y-122605800D02*
X144937815Y-122605800D01*
X144937815Y-122605800D02*
X147294600Y-122605800D01*
X147294600Y-122605800D02*
X147294600Y-122605800D01*
X175353000Y-57547800D02*
X177232600Y-57547800D01*
X177232600Y-57547800D02*
X182092600Y-62407800D01*
X182092600Y-62407800D02*
X182092600Y-108458000D01*
X182092600Y-108458000D02*
X182092600Y-109880400D01*
X182092600Y-109880400D02*
X181000400Y-110972600D01*
X181000400Y-110972600D02*
X151485600Y-110972600D01*
X151485600Y-110972600D02*
X145719800Y-116738400D01*
X145719800Y-116738400D02*
X145719800Y-119176800D01*
X145719800Y-119176800D02*
X141300200Y-123596400D01*
X141300200Y-123596400D02*
X139065000Y-123596400D01*
X139065000Y-123596400D02*
X139065000Y-123596400D01*
X171653200Y-86969600D02*
X164363400Y-86969600D01*
X164363400Y-86969600D02*
X164363400Y-86969600D01*
D21*
G36*
X182702600Y-61849844D02*
G01*
X182679141Y-61821259D01*
X182647646Y-61795412D01*
X177844998Y-56992766D01*
X177819141Y-56961259D01*
X177693442Y-56858101D01*
X177550034Y-56781447D01*
X177394426Y-56734244D01*
X177273153Y-56722300D01*
X177273150Y-56722300D01*
X177232600Y-56718306D01*
X177192050Y-56722300D01*
X175946304Y-56722300D01*
X175834256Y-56647432D01*
X175649356Y-56570844D01*
X175453067Y-56531800D01*
X175252933Y-56531800D01*
X175056644Y-56570844D01*
X174871744Y-56647432D01*
X174705338Y-56758621D01*
X174563821Y-56900138D01*
X174452632Y-57066544D01*
X174376044Y-57251444D01*
X174337000Y-57447733D01*
X174337000Y-57647867D01*
X174376044Y-57844156D01*
X174452632Y-58029056D01*
X174563821Y-58195462D01*
X174705338Y-58336979D01*
X174871744Y-58448168D01*
X175056644Y-58524756D01*
X175252933Y-58563800D01*
X175453067Y-58563800D01*
X175649356Y-58524756D01*
X175834256Y-58448168D01*
X175946304Y-58373300D01*
X176890668Y-58373300D01*
X177839505Y-59322138D01*
X177800600Y-59318306D01*
X177760050Y-59322300D01*
X175954304Y-59322300D01*
X175842256Y-59247432D01*
X175657356Y-59170844D01*
X175461067Y-59131800D01*
X175260933Y-59131800D01*
X175064644Y-59170844D01*
X174879744Y-59247432D01*
X174713338Y-59358621D01*
X174571821Y-59500138D01*
X174460632Y-59666544D01*
X174384044Y-59851444D01*
X174345000Y-60047733D01*
X174345000Y-60247867D01*
X174384044Y-60444156D01*
X174460632Y-60629056D01*
X174571821Y-60795462D01*
X174713338Y-60936979D01*
X174879744Y-61048168D01*
X175064644Y-61124756D01*
X175260933Y-61163800D01*
X175461067Y-61163800D01*
X175657356Y-61124756D01*
X175842256Y-61048168D01*
X175954304Y-60973300D01*
X177458668Y-60973300D01*
X178232767Y-61747400D01*
X178207933Y-61747400D01*
X178011644Y-61786444D01*
X177826744Y-61863032D01*
X177714696Y-61937900D01*
X176259704Y-61937900D01*
X176147656Y-61863032D01*
X175962756Y-61786444D01*
X175766467Y-61747400D01*
X175566333Y-61747400D01*
X175370044Y-61786444D01*
X175185144Y-61863032D01*
X175018738Y-61974221D01*
X174877221Y-62115738D01*
X174766032Y-62282144D01*
X174689444Y-62467044D01*
X174650400Y-62663333D01*
X174650400Y-62863467D01*
X174689444Y-63059756D01*
X174766032Y-63244656D01*
X174877221Y-63411062D01*
X175018738Y-63552579D01*
X175149124Y-63639700D01*
X170029341Y-63639700D01*
X170054779Y-63614262D01*
X170165968Y-63447856D01*
X170242556Y-63262956D01*
X170281600Y-63066667D01*
X170281600Y-62866533D01*
X170242556Y-62670244D01*
X170165968Y-62485344D01*
X170054779Y-62318938D01*
X169913262Y-62177421D01*
X169746856Y-62066232D01*
X169561956Y-61989644D01*
X169429788Y-61963354D01*
X168846600Y-61380168D01*
X168846600Y-54898404D01*
X168921468Y-54786356D01*
X168998056Y-54601456D01*
X169025294Y-54464517D01*
X179087600Y-54464517D01*
X179087600Y-54806283D01*
X179154275Y-55141481D01*
X179285063Y-55457231D01*
X179474937Y-55741398D01*
X179716602Y-55983063D01*
X180000769Y-56172937D01*
X180316519Y-56303725D01*
X180651717Y-56370400D01*
X180993483Y-56370400D01*
X181328681Y-56303725D01*
X181644431Y-56172937D01*
X181928598Y-55983063D01*
X182170263Y-55741398D01*
X182360137Y-55457231D01*
X182490925Y-55141481D01*
X182557600Y-54806283D01*
X182557600Y-54464517D01*
X182490925Y-54129319D01*
X182360137Y-53813569D01*
X182170263Y-53529402D01*
X181928598Y-53287737D01*
X181644431Y-53097863D01*
X181328681Y-52967075D01*
X180993483Y-52900400D01*
X180651717Y-52900400D01*
X180316519Y-52967075D01*
X180000769Y-53097863D01*
X179716602Y-53287737D01*
X179474937Y-53529402D01*
X179285063Y-53813569D01*
X179154275Y-54129319D01*
X179087600Y-54464517D01*
X169025294Y-54464517D01*
X169037100Y-54405167D01*
X169037100Y-54205033D01*
X168998056Y-54008744D01*
X168921468Y-53823844D01*
X168810279Y-53657438D01*
X168668762Y-53515921D01*
X168502356Y-53404732D01*
X168317456Y-53328144D01*
X168121167Y-53289100D01*
X167921033Y-53289100D01*
X167724744Y-53328144D01*
X167539844Y-53404732D01*
X167373438Y-53515921D01*
X167231921Y-53657438D01*
X167120732Y-53823844D01*
X167044144Y-54008744D01*
X167005100Y-54205033D01*
X167005100Y-54405167D01*
X167044144Y-54601456D01*
X167120732Y-54786356D01*
X167195600Y-54898404D01*
X167195601Y-61681540D01*
X167191606Y-61722100D01*
X167207545Y-61883926D01*
X167254747Y-62039533D01*
X167331401Y-62182942D01*
X167392963Y-62257954D01*
X167434560Y-62308641D01*
X167466061Y-62334493D01*
X168262354Y-63130788D01*
X168288644Y-63262956D01*
X168365232Y-63447856D01*
X168476421Y-63614262D01*
X168501859Y-63639700D01*
X159498333Y-63639700D01*
X155536846Y-59678214D01*
X155510556Y-59546044D01*
X155433968Y-59361144D01*
X155322779Y-59194738D01*
X155181262Y-59053221D01*
X155014856Y-58942032D01*
X154829956Y-58865444D01*
X154633667Y-58826400D01*
X154433533Y-58826400D01*
X154237244Y-58865444D01*
X154052344Y-58942032D01*
X153885938Y-59053221D01*
X153744421Y-59194738D01*
X153633232Y-59361144D01*
X153556644Y-59546044D01*
X153517600Y-59742333D01*
X153517600Y-59888314D01*
X153414467Y-59867800D01*
X153214333Y-59867800D01*
X153018044Y-59906844D01*
X152833144Y-59983432D01*
X152666738Y-60094621D01*
X152525221Y-60236138D01*
X152414032Y-60402544D01*
X152337444Y-60587444D01*
X152298400Y-60783733D01*
X152298400Y-60983867D01*
X152337444Y-61180156D01*
X152414032Y-61365056D01*
X152525221Y-61531462D01*
X152666738Y-61672979D01*
X152833144Y-61784168D01*
X153018044Y-61860756D01*
X153150214Y-61887046D01*
X155173166Y-63909999D01*
X155159396Y-63919200D01*
X149564404Y-63919200D01*
X149452356Y-63844332D01*
X149267456Y-63767744D01*
X149071167Y-63728700D01*
X148871033Y-63728700D01*
X148674744Y-63767744D01*
X148489844Y-63844332D01*
X148323438Y-63955521D01*
X148181921Y-64097038D01*
X148070732Y-64263444D01*
X147994144Y-64448344D01*
X147955100Y-64644633D01*
X147955100Y-64844767D01*
X147994144Y-65041056D01*
X148070732Y-65225956D01*
X148181921Y-65392362D01*
X148323438Y-65533879D01*
X148489844Y-65645068D01*
X148674744Y-65721656D01*
X148871033Y-65760700D01*
X149071167Y-65760700D01*
X149267456Y-65721656D01*
X149452356Y-65645068D01*
X149564404Y-65570200D01*
X155159396Y-65570200D01*
X155271444Y-65645068D01*
X155456344Y-65721656D01*
X155652633Y-65760700D01*
X155852767Y-65760700D01*
X156049056Y-65721656D01*
X156233956Y-65645068D01*
X156400362Y-65533879D01*
X156541879Y-65392362D01*
X156587401Y-65324234D01*
X157816007Y-66552840D01*
X157841859Y-66584341D01*
X157890428Y-66624200D01*
X157967557Y-66687499D01*
X158064739Y-66739444D01*
X158110966Y-66764153D01*
X158266574Y-66811356D01*
X158387847Y-66823300D01*
X158387849Y-66823300D01*
X158428399Y-66827294D01*
X158459704Y-66824211D01*
X158305538Y-66927221D01*
X158265753Y-66967006D01*
X158245642Y-66950501D01*
X158102234Y-66873847D01*
X157946626Y-66826644D01*
X157825353Y-66814700D01*
X157825350Y-66814700D01*
X157784800Y-66810706D01*
X157744250Y-66814700D01*
X142147504Y-66814700D01*
X142035456Y-66739832D01*
X141850556Y-66663244D01*
X141654267Y-66624200D01*
X141454133Y-66624200D01*
X141257844Y-66663244D01*
X141072944Y-66739832D01*
X140906538Y-66851021D01*
X140765021Y-66992538D01*
X140653832Y-67158944D01*
X140577244Y-67343844D01*
X140538200Y-67540133D01*
X140538200Y-67551300D01*
X139351269Y-67551300D01*
X139310719Y-67547306D01*
X139270168Y-67551300D01*
X139270166Y-67551300D01*
X139148893Y-67563244D01*
X138993285Y-67610447D01*
X138849876Y-67687101D01*
X138755677Y-67764408D01*
X138755674Y-67764411D01*
X138724178Y-67790259D01*
X138698330Y-67821755D01*
X131550361Y-74969726D01*
X131518860Y-74995578D01*
X131493009Y-75027078D01*
X131415701Y-75121277D01*
X131339047Y-75264686D01*
X131291845Y-75420293D01*
X131279895Y-75541618D01*
X131276386Y-75543494D01*
X131050266Y-75729066D01*
X130864694Y-75955186D01*
X130835400Y-76009991D01*
X130806106Y-75955186D01*
X130620534Y-75729066D01*
X130590713Y-75704593D01*
X130659580Y-75683702D01*
X130769894Y-75624737D01*
X130866585Y-75545385D01*
X130945937Y-75448694D01*
X131004902Y-75338380D01*
X131041212Y-75218682D01*
X131053472Y-75094200D01*
X131053472Y-73394200D01*
X131041212Y-73269718D01*
X131004902Y-73150020D01*
X130945937Y-73039706D01*
X130892178Y-72974200D01*
X130945937Y-72908694D01*
X131004902Y-72798380D01*
X131041212Y-72678682D01*
X131053472Y-72554200D01*
X131053472Y-70854200D01*
X131041212Y-70729718D01*
X131004902Y-70610020D01*
X130945937Y-70499706D01*
X130892178Y-70434200D01*
X130945937Y-70368694D01*
X131004902Y-70258380D01*
X131041212Y-70138682D01*
X131053472Y-70014200D01*
X131053472Y-68314200D01*
X131041212Y-68189718D01*
X131004902Y-68070020D01*
X130945937Y-67959706D01*
X130892178Y-67894200D01*
X130945937Y-67828694D01*
X131004902Y-67718380D01*
X131041212Y-67598682D01*
X131053472Y-67474200D01*
X131053472Y-65774200D01*
X131041212Y-65649718D01*
X131004902Y-65530020D01*
X130945937Y-65419706D01*
X130892178Y-65354200D01*
X130945937Y-65288694D01*
X131004902Y-65178380D01*
X131041212Y-65058682D01*
X131053472Y-64934200D01*
X131053472Y-63234200D01*
X131041212Y-63109718D01*
X131004902Y-62990020D01*
X130945937Y-62879706D01*
X130866585Y-62783015D01*
X130769894Y-62703663D01*
X130659580Y-62644698D01*
X130539882Y-62608388D01*
X130415400Y-62596128D01*
X128715400Y-62596128D01*
X128590918Y-62608388D01*
X128471220Y-62644698D01*
X128360906Y-62703663D01*
X128264215Y-62783015D01*
X128184863Y-62879706D01*
X128125898Y-62990020D01*
X128101434Y-63070666D01*
X128025669Y-62986612D01*
X127792320Y-62812559D01*
X127529499Y-62687375D01*
X127382290Y-62642724D01*
X127152400Y-62764045D01*
X127152400Y-63957200D01*
X127172400Y-63957200D01*
X127172400Y-64211200D01*
X127152400Y-64211200D01*
X127152400Y-66497200D01*
X127172400Y-66497200D01*
X127172400Y-66751200D01*
X127152400Y-66751200D01*
X127152400Y-69037200D01*
X127172400Y-69037200D01*
X127172400Y-69291200D01*
X127152400Y-69291200D01*
X127152400Y-71577200D01*
X127172400Y-71577200D01*
X127172400Y-71831200D01*
X127152400Y-71831200D01*
X127152400Y-74117200D01*
X127172400Y-74117200D01*
X127172400Y-74371200D01*
X127152400Y-74371200D01*
X127152400Y-76657200D01*
X127172400Y-76657200D01*
X127172400Y-76911200D01*
X127152400Y-76911200D01*
X127152400Y-78104355D01*
X127382290Y-78225676D01*
X127529499Y-78181025D01*
X127792320Y-78055841D01*
X128025669Y-77881788D01*
X128220578Y-77665555D01*
X128290199Y-77548677D01*
X128324694Y-77613214D01*
X128510266Y-77839334D01*
X128736386Y-78024906D01*
X128994366Y-78162799D01*
X129274289Y-78247713D01*
X129492450Y-78269200D01*
X129638350Y-78269200D01*
X129856511Y-78247713D01*
X130136434Y-78162799D01*
X130394414Y-78024906D01*
X130620534Y-77839334D01*
X130806106Y-77613214D01*
X130835400Y-77558409D01*
X130864694Y-77613214D01*
X131050266Y-77839334D01*
X131276386Y-78024906D01*
X131534366Y-78162799D01*
X131814289Y-78247713D01*
X132032450Y-78269200D01*
X132178350Y-78269200D01*
X132396511Y-78247713D01*
X132676434Y-78162799D01*
X132934414Y-78024906D01*
X133160534Y-77839334D01*
X133185007Y-77809513D01*
X133205898Y-77878380D01*
X133264863Y-77988694D01*
X133344215Y-78085385D01*
X133440906Y-78164737D01*
X133551220Y-78223702D01*
X133670918Y-78260012D01*
X133795400Y-78272272D01*
X135495400Y-78272272D01*
X135619882Y-78260012D01*
X135739580Y-78223702D01*
X135849894Y-78164737D01*
X135946585Y-78085385D01*
X136025937Y-77988694D01*
X136084902Y-77878380D01*
X136121212Y-77758682D01*
X136133472Y-77634200D01*
X136133472Y-75934200D01*
X136121212Y-75809718D01*
X136084902Y-75690020D01*
X136025937Y-75579706D01*
X135946585Y-75483015D01*
X135911671Y-75454362D01*
X140562696Y-70803337D01*
X140627138Y-70867779D01*
X140793544Y-70978968D01*
X140978444Y-71055556D01*
X141174733Y-71094600D01*
X141374867Y-71094600D01*
X141571156Y-71055556D01*
X141756056Y-70978968D01*
X141868104Y-70904100D01*
X148298390Y-70904100D01*
X148293644Y-70905044D01*
X148108744Y-70981632D01*
X147942338Y-71092821D01*
X147800821Y-71234338D01*
X147689632Y-71400744D01*
X147613044Y-71585644D01*
X147574000Y-71781933D01*
X147574000Y-71982067D01*
X147613044Y-72178356D01*
X147689632Y-72363256D01*
X147800821Y-72529662D01*
X147942338Y-72671179D01*
X148108744Y-72782368D01*
X148293644Y-72858956D01*
X148489933Y-72898000D01*
X148690067Y-72898000D01*
X148886356Y-72858956D01*
X149071256Y-72782368D01*
X149185713Y-72705890D01*
X149290641Y-72695556D01*
X149446249Y-72648353D01*
X149589657Y-72571699D01*
X149715356Y-72468541D01*
X149741213Y-72437034D01*
X151197949Y-70980300D01*
X154474400Y-70980300D01*
X154518759Y-70993756D01*
X154532461Y-70995105D01*
X152362868Y-73164700D01*
X140217104Y-73164700D01*
X140105056Y-73089832D01*
X139920156Y-73013244D01*
X139723867Y-72974200D01*
X139523733Y-72974200D01*
X139327444Y-73013244D01*
X139142544Y-73089832D01*
X138976138Y-73201021D01*
X138834621Y-73342538D01*
X138723432Y-73508944D01*
X138646844Y-73693844D01*
X138607800Y-73890133D01*
X138607800Y-74090267D01*
X138646844Y-74286556D01*
X138723432Y-74471456D01*
X138834621Y-74637862D01*
X138976138Y-74779379D01*
X139142544Y-74890568D01*
X139327444Y-74967156D01*
X139523733Y-75006200D01*
X139723867Y-75006200D01*
X139920156Y-74967156D01*
X140105056Y-74890568D01*
X140217104Y-74815700D01*
X142938736Y-74815700D01*
X142925800Y-74880733D01*
X142925800Y-75080867D01*
X142964844Y-75277156D01*
X143041432Y-75462056D01*
X143152621Y-75628462D01*
X143294138Y-75769979D01*
X143460544Y-75881168D01*
X143645444Y-75957756D01*
X143780455Y-75984611D01*
X143861957Y-76051498D01*
X144005365Y-76128152D01*
X144160973Y-76175355D01*
X144282246Y-76187299D01*
X144282248Y-76187299D01*
X144322799Y-76191293D01*
X144363349Y-76187299D01*
X147257467Y-76187299D01*
X153530300Y-82460134D01*
X153530301Y-86878240D01*
X153526306Y-86918800D01*
X153542245Y-87080626D01*
X153589447Y-87236233D01*
X153666101Y-87379642D01*
X153727663Y-87454654D01*
X153769260Y-87505341D01*
X153800761Y-87531193D01*
X160715399Y-94445832D01*
X160671296Y-94475300D01*
X155681303Y-94475300D01*
X155693926Y-94464941D01*
X155719783Y-94433434D01*
X156776087Y-93377131D01*
X156812844Y-93392356D01*
X157009133Y-93431400D01*
X157209267Y-93431400D01*
X157405556Y-93392356D01*
X157590456Y-93315768D01*
X157756862Y-93204579D01*
X157898379Y-93063062D01*
X158009568Y-92896656D01*
X158086156Y-92711756D01*
X158125200Y-92515467D01*
X158125200Y-92315333D01*
X158086156Y-92119044D01*
X158009568Y-91934144D01*
X157898379Y-91767738D01*
X157756862Y-91626221D01*
X157590456Y-91515032D01*
X157405556Y-91438444D01*
X157209267Y-91399400D01*
X157009133Y-91399400D01*
X156812844Y-91438444D01*
X156627944Y-91515032D01*
X156513487Y-91591510D01*
X156408559Y-91601844D01*
X156252951Y-91649047D01*
X156173229Y-91691660D01*
X156109541Y-91725702D01*
X156053418Y-91771761D01*
X155983844Y-91828859D01*
X155957991Y-91860361D01*
X154765453Y-93052900D01*
X150179950Y-93052900D01*
X150139399Y-93048906D01*
X150098849Y-93052900D01*
X150098847Y-93052900D01*
X149977574Y-93064844D01*
X149844871Y-93105099D01*
X149821966Y-93112047D01*
X149678557Y-93188701D01*
X149629507Y-93228956D01*
X149552859Y-93291859D01*
X149527008Y-93323359D01*
X148276265Y-94574103D01*
X148244758Y-94599960D01*
X148201117Y-94653138D01*
X148141600Y-94725659D01*
X148091417Y-94819544D01*
X148064946Y-94869068D01*
X148017743Y-95024676D01*
X148006486Y-95138974D01*
X148001805Y-95186501D01*
X148005799Y-95227052D01*
X148005800Y-99137166D01*
X146409366Y-100733602D01*
X146377859Y-100759459D01*
X146308614Y-100843835D01*
X146274701Y-100885158D01*
X146224524Y-100979032D01*
X146198047Y-101028567D01*
X146150844Y-101184175D01*
X146143365Y-101260113D01*
X146134906Y-101346000D01*
X146138900Y-101386551D01*
X146138900Y-102172468D01*
X144300198Y-100333766D01*
X144274341Y-100302259D01*
X144148642Y-100199101D01*
X144005234Y-100122447D01*
X143849626Y-100075244D01*
X143728353Y-100063300D01*
X143728350Y-100063300D01*
X143687800Y-100059306D01*
X143647250Y-100063300D01*
X130221288Y-100063300D01*
X128977903Y-98819916D01*
X129098609Y-98739263D01*
X129242312Y-98595560D01*
X129447445Y-98595560D01*
X129560464Y-98874584D01*
X129874449Y-99029756D01*
X130212673Y-99120691D01*
X130562138Y-99143894D01*
X130909416Y-99098475D01*
X131241160Y-98986177D01*
X131449936Y-98874584D01*
X131562955Y-98595560D01*
X130505200Y-97537805D01*
X129447445Y-98595560D01*
X129242312Y-98595560D01*
X129346263Y-98491609D01*
X129540843Y-98200399D01*
X129581464Y-98102331D01*
X130325595Y-97358200D01*
X130684805Y-97358200D01*
X131428936Y-98102331D01*
X131469557Y-98200399D01*
X131664137Y-98491609D01*
X131911791Y-98739263D01*
X132203001Y-98933843D01*
X132526577Y-99067872D01*
X132870082Y-99136200D01*
X133220318Y-99136200D01*
X133563823Y-99067872D01*
X133887399Y-98933843D01*
X134178609Y-98739263D01*
X134315200Y-98602672D01*
X134451791Y-98739263D01*
X134743001Y-98933843D01*
X135066577Y-99067872D01*
X135410082Y-99136200D01*
X135760318Y-99136200D01*
X136103823Y-99067872D01*
X136427399Y-98933843D01*
X136718609Y-98739263D01*
X136855200Y-98602672D01*
X136991791Y-98739263D01*
X137283001Y-98933843D01*
X137606577Y-99067872D01*
X137950082Y-99136200D01*
X138300318Y-99136200D01*
X138643823Y-99067872D01*
X138967399Y-98933843D01*
X139258609Y-98739263D01*
X139395200Y-98602672D01*
X139531791Y-98739263D01*
X139823001Y-98933843D01*
X140146577Y-99067872D01*
X140490082Y-99136200D01*
X140840318Y-99136200D01*
X141183823Y-99067872D01*
X141507399Y-98933843D01*
X141798609Y-98739263D01*
X141935200Y-98602672D01*
X142071791Y-98739263D01*
X142363001Y-98933843D01*
X142686577Y-99067872D01*
X143030082Y-99136200D01*
X143380318Y-99136200D01*
X143723823Y-99067872D01*
X144047399Y-98933843D01*
X144338609Y-98739263D01*
X144475200Y-98602672D01*
X144611791Y-98739263D01*
X144903001Y-98933843D01*
X145226577Y-99067872D01*
X145570082Y-99136200D01*
X145920318Y-99136200D01*
X146263823Y-99067872D01*
X146587399Y-98933843D01*
X146878609Y-98739263D01*
X147126263Y-98491609D01*
X147320843Y-98200399D01*
X147454872Y-97876823D01*
X147523200Y-97533318D01*
X147523200Y-97183082D01*
X147454872Y-96839577D01*
X147320843Y-96516001D01*
X147126263Y-96224791D01*
X146878609Y-95977137D01*
X146587399Y-95782557D01*
X146263823Y-95648528D01*
X145920318Y-95580200D01*
X145570082Y-95580200D01*
X145226577Y-95648528D01*
X144903001Y-95782557D01*
X144611791Y-95977137D01*
X144475200Y-96113728D01*
X144338609Y-95977137D01*
X144047399Y-95782557D01*
X143723823Y-95648528D01*
X143380318Y-95580200D01*
X143030082Y-95580200D01*
X142686577Y-95648528D01*
X142363001Y-95782557D01*
X142071791Y-95977137D01*
X141935200Y-96113728D01*
X141798609Y-95977137D01*
X141507399Y-95782557D01*
X141183823Y-95648528D01*
X140840318Y-95580200D01*
X140490082Y-95580200D01*
X140146577Y-95648528D01*
X139823001Y-95782557D01*
X139531791Y-95977137D01*
X139395200Y-96113728D01*
X139258609Y-95977137D01*
X138967399Y-95782557D01*
X138643823Y-95648528D01*
X138300318Y-95580200D01*
X137950082Y-95580200D01*
X137606577Y-95648528D01*
X137283001Y-95782557D01*
X136991791Y-95977137D01*
X136855200Y-96113728D01*
X136718609Y-95977137D01*
X136427399Y-95782557D01*
X136103823Y-95648528D01*
X135760318Y-95580200D01*
X135410082Y-95580200D01*
X135066577Y-95648528D01*
X134743001Y-95782557D01*
X134451791Y-95977137D01*
X134315200Y-96113728D01*
X134178609Y-95977137D01*
X133887399Y-95782557D01*
X133870700Y-95775640D01*
X133870700Y-89798104D01*
X133945568Y-89686056D01*
X134022156Y-89501156D01*
X134061200Y-89304867D01*
X134061200Y-89104733D01*
X134022156Y-88908444D01*
X133945568Y-88723544D01*
X133834379Y-88557138D01*
X133692862Y-88415621D01*
X133526456Y-88304432D01*
X133341556Y-88227844D01*
X133145267Y-88188800D01*
X132945133Y-88188800D01*
X132748844Y-88227844D01*
X132563944Y-88304432D01*
X132397538Y-88415621D01*
X132256021Y-88557138D01*
X132144832Y-88723544D01*
X132068244Y-88908444D01*
X132029200Y-89104733D01*
X132029200Y-89304867D01*
X132068244Y-89501156D01*
X132144832Y-89686056D01*
X132219700Y-89798104D01*
X132219701Y-95775640D01*
X132203001Y-95782557D01*
X131911791Y-95977137D01*
X131664137Y-96224791D01*
X131469557Y-96516001D01*
X131428936Y-96614069D01*
X130684805Y-97358200D01*
X130325595Y-97358200D01*
X129581464Y-96614069D01*
X129540843Y-96516001D01*
X129346263Y-96224791D01*
X129242312Y-96120840D01*
X129447445Y-96120840D01*
X130505200Y-97178595D01*
X131562955Y-96120840D01*
X131449936Y-95841816D01*
X131135951Y-95686644D01*
X130797727Y-95595709D01*
X130448262Y-95572506D01*
X130100984Y-95617925D01*
X129769240Y-95730223D01*
X129560464Y-95841816D01*
X129447445Y-96120840D01*
X129242312Y-96120840D01*
X129098609Y-95977137D01*
X128807399Y-95782557D01*
X128483823Y-95648528D01*
X128140318Y-95580200D01*
X127790082Y-95580200D01*
X127446577Y-95648528D01*
X127123001Y-95782557D01*
X126831791Y-95977137D01*
X126584137Y-96224791D01*
X126389557Y-96516001D01*
X126352300Y-96605948D01*
X126352300Y-94169532D01*
X135311911Y-85209921D01*
X142721201Y-85209921D01*
X142721201Y-85630479D01*
X142803248Y-86042956D01*
X142964189Y-86431501D01*
X143197838Y-86781182D01*
X143495218Y-87078562D01*
X143844899Y-87312211D01*
X144233444Y-87473152D01*
X144645921Y-87555199D01*
X145066479Y-87555199D01*
X145478956Y-87473152D01*
X145867501Y-87312211D01*
X146217182Y-87078562D01*
X146514562Y-86781182D01*
X146748211Y-86431501D01*
X146909152Y-86042956D01*
X146991199Y-85630479D01*
X146991199Y-85209921D01*
X146909152Y-84797444D01*
X146748211Y-84408899D01*
X146514562Y-84059218D01*
X146217182Y-83761838D01*
X145867501Y-83528189D01*
X145478956Y-83367248D01*
X145066479Y-83285201D01*
X144645921Y-83285201D01*
X144233444Y-83367248D01*
X143844899Y-83528189D01*
X143495218Y-83761838D01*
X143197838Y-84059218D01*
X142964189Y-84408899D01*
X142803248Y-84797444D01*
X142721201Y-85209921D01*
X135311911Y-85209921D01*
X137892840Y-82628993D01*
X137924341Y-82603141D01*
X138027499Y-82477442D01*
X138104153Y-82334034D01*
X138151356Y-82178426D01*
X138163300Y-82057153D01*
X138163300Y-82057144D01*
X138167293Y-82016601D01*
X138163300Y-81976058D01*
X138163300Y-81205091D01*
X140925519Y-81205091D01*
X141022843Y-81479452D01*
X141171822Y-81729555D01*
X141366731Y-81945788D01*
X141600080Y-82119841D01*
X141862901Y-82245025D01*
X142010110Y-82289676D01*
X142240000Y-82168355D01*
X142240000Y-80975200D01*
X141046186Y-80975200D01*
X140925519Y-81205091D01*
X138163300Y-81205091D01*
X138163300Y-78665091D01*
X140925519Y-78665091D01*
X141022843Y-78939452D01*
X141171822Y-79189555D01*
X141366731Y-79405788D01*
X141597880Y-79578200D01*
X141366731Y-79750612D01*
X141171822Y-79966845D01*
X141022843Y-80216948D01*
X140925519Y-80491309D01*
X141046186Y-80721200D01*
X142240000Y-80721200D01*
X142240000Y-78435200D01*
X141046186Y-78435200D01*
X140925519Y-78665091D01*
X138163300Y-78665091D01*
X138163300Y-77951309D01*
X140925519Y-77951309D01*
X141046186Y-78181200D01*
X142240000Y-78181200D01*
X142240000Y-76988045D01*
X142494000Y-76988045D01*
X142494000Y-78181200D01*
X142514000Y-78181200D01*
X142514000Y-78435200D01*
X142494000Y-78435200D01*
X142494000Y-80721200D01*
X142514000Y-80721200D01*
X142514000Y-80975200D01*
X142494000Y-80975200D01*
X142494000Y-82168355D01*
X142723890Y-82289676D01*
X142871099Y-82245025D01*
X143133920Y-82119841D01*
X143367269Y-81945788D01*
X143443034Y-81861734D01*
X143467498Y-81942380D01*
X143526463Y-82052694D01*
X143605815Y-82149385D01*
X143702506Y-82228737D01*
X143812820Y-82287702D01*
X143932518Y-82324012D01*
X144057000Y-82336272D01*
X145757000Y-82336272D01*
X145881482Y-82324012D01*
X146001180Y-82287702D01*
X146111494Y-82228737D01*
X146208185Y-82149385D01*
X146287537Y-82052694D01*
X146346502Y-81942380D01*
X146382812Y-81822682D01*
X146395072Y-81698200D01*
X146395072Y-79998200D01*
X146382812Y-79873718D01*
X146346502Y-79754020D01*
X146287537Y-79643706D01*
X146233778Y-79578200D01*
X146287537Y-79512694D01*
X146346502Y-79402380D01*
X146382812Y-79282682D01*
X146395072Y-79158200D01*
X146395072Y-77458200D01*
X146382812Y-77333718D01*
X146346502Y-77214020D01*
X146287537Y-77103706D01*
X146208185Y-77007015D01*
X146111494Y-76927663D01*
X146001180Y-76868698D01*
X145881482Y-76832388D01*
X145757000Y-76820128D01*
X144057000Y-76820128D01*
X143932518Y-76832388D01*
X143812820Y-76868698D01*
X143702506Y-76927663D01*
X143605815Y-77007015D01*
X143526463Y-77103706D01*
X143467498Y-77214020D01*
X143443034Y-77294666D01*
X143367269Y-77210612D01*
X143133920Y-77036559D01*
X142871099Y-76911375D01*
X142723890Y-76866724D01*
X142494000Y-76988045D01*
X142240000Y-76988045D01*
X142010110Y-76866724D01*
X141862901Y-76911375D01*
X141600080Y-77036559D01*
X141366731Y-77210612D01*
X141171822Y-77426845D01*
X141022843Y-77676948D01*
X140925519Y-77951309D01*
X138163300Y-77951309D01*
X138163300Y-76412304D01*
X138238168Y-76300256D01*
X138314756Y-76115356D01*
X138353800Y-75919067D01*
X138353800Y-75718933D01*
X138314756Y-75522644D01*
X138238168Y-75337744D01*
X138126979Y-75171338D01*
X137985462Y-75029821D01*
X137819056Y-74918632D01*
X137634156Y-74842044D01*
X137437867Y-74803000D01*
X137237733Y-74803000D01*
X137041444Y-74842044D01*
X136856544Y-74918632D01*
X136690138Y-75029821D01*
X136548621Y-75171338D01*
X136437432Y-75337744D01*
X136360844Y-75522644D01*
X136321800Y-75718933D01*
X136321800Y-75919067D01*
X136360844Y-76115356D01*
X136437432Y-76300256D01*
X136512300Y-76412304D01*
X136512301Y-79124683D01*
X136501379Y-79108338D01*
X136359862Y-78966821D01*
X136193456Y-78855632D01*
X136008556Y-78779044D01*
X135812267Y-78740000D01*
X135612133Y-78740000D01*
X135415844Y-78779044D01*
X135230944Y-78855632D01*
X135118896Y-78930500D01*
X131924310Y-78930500D01*
X131824656Y-78863913D01*
X131639756Y-78787325D01*
X131443467Y-78748281D01*
X131243333Y-78748281D01*
X131047044Y-78787325D01*
X130862144Y-78863913D01*
X130695738Y-78975102D01*
X130554221Y-79116619D01*
X130443032Y-79283025D01*
X130366444Y-79467925D01*
X130327400Y-79664214D01*
X130327400Y-79864348D01*
X130366444Y-80060637D01*
X130443032Y-80245537D01*
X130554221Y-80411943D01*
X130695738Y-80553460D01*
X130862144Y-80664649D01*
X131047044Y-80741237D01*
X131243333Y-80780281D01*
X131443467Y-80780281D01*
X131639756Y-80741237D01*
X131824656Y-80664649D01*
X131949097Y-80581500D01*
X135118896Y-80581500D01*
X135230944Y-80656368D01*
X135415844Y-80732956D01*
X135612133Y-80772000D01*
X135812267Y-80772000D01*
X136008556Y-80732956D01*
X136193456Y-80656368D01*
X136359862Y-80545179D01*
X136501379Y-80403662D01*
X136512301Y-80387316D01*
X136512301Y-81674666D01*
X124971766Y-93215202D01*
X124940259Y-93241059D01*
X124878948Y-93315768D01*
X124837101Y-93366758D01*
X124823419Y-93392356D01*
X124760447Y-93510167D01*
X124713244Y-93665775D01*
X124708241Y-93716574D01*
X124697306Y-93827600D01*
X124701300Y-93868150D01*
X124701301Y-104404240D01*
X124697306Y-104444800D01*
X124713245Y-104606626D01*
X124760447Y-104762233D01*
X124837101Y-104905642D01*
X124862908Y-104937087D01*
X124940260Y-105031341D01*
X124971761Y-105057193D01*
X127759211Y-107844645D01*
X127785059Y-107876141D01*
X127816555Y-107901989D01*
X127816558Y-107901992D01*
X127910757Y-107979299D01*
X127942839Y-107996447D01*
X128054166Y-108055953D01*
X128209774Y-108103156D01*
X128331047Y-108115100D01*
X128331049Y-108115100D01*
X128371600Y-108119094D01*
X128412150Y-108115100D01*
X132502696Y-108115100D01*
X132614744Y-108189968D01*
X132799644Y-108266556D01*
X132995933Y-108305600D01*
X133196067Y-108305600D01*
X133392356Y-108266556D01*
X133577256Y-108189968D01*
X133743662Y-108078779D01*
X133885179Y-107937262D01*
X133996368Y-107770856D01*
X134072956Y-107585956D01*
X134112000Y-107389667D01*
X134112000Y-107189533D01*
X134072956Y-106993244D01*
X133996368Y-106808344D01*
X133962390Y-106757491D01*
X165131719Y-106757491D01*
X165229043Y-107031852D01*
X165378022Y-107281955D01*
X165572931Y-107498188D01*
X165806280Y-107672241D01*
X166069101Y-107797425D01*
X166216310Y-107842076D01*
X166446200Y-107720755D01*
X166446200Y-106527600D01*
X165252386Y-106527600D01*
X165131719Y-106757491D01*
X133962390Y-106757491D01*
X133885179Y-106641938D01*
X133743662Y-106500421D01*
X133577256Y-106389232D01*
X133392356Y-106312644D01*
X133196067Y-106273600D01*
X132995933Y-106273600D01*
X132799644Y-106312644D01*
X132614744Y-106389232D01*
X132502696Y-106464100D01*
X128713534Y-106464100D01*
X128293143Y-106043709D01*
X165131719Y-106043709D01*
X165252386Y-106273600D01*
X166446200Y-106273600D01*
X166446200Y-105080445D01*
X166216310Y-104959124D01*
X166069101Y-105003775D01*
X165806280Y-105128959D01*
X165572931Y-105303012D01*
X165378022Y-105519245D01*
X165229043Y-105769348D01*
X165131719Y-106043709D01*
X128293143Y-106043709D01*
X126352300Y-104102868D01*
X126352300Y-98110452D01*
X126389557Y-98200399D01*
X126584137Y-98491609D01*
X126831791Y-98739263D01*
X127123001Y-98933843D01*
X127139069Y-98940499D01*
X127135706Y-98974646D01*
X127151645Y-99136472D01*
X127198847Y-99292079D01*
X127275501Y-99435488D01*
X127311294Y-99479101D01*
X127378660Y-99561187D01*
X127410161Y-99587039D01*
X129083141Y-101260021D01*
X128876918Y-101219000D01*
X128526682Y-101219000D01*
X128183177Y-101287328D01*
X127859601Y-101421357D01*
X127568391Y-101615937D01*
X127320737Y-101863591D01*
X127126157Y-102154801D01*
X126992128Y-102478377D01*
X126923800Y-102821882D01*
X126923800Y-103172118D01*
X126992128Y-103515623D01*
X127126157Y-103839199D01*
X127320737Y-104130409D01*
X127568391Y-104378063D01*
X127859601Y-104572643D01*
X128183177Y-104706672D01*
X128526682Y-104775000D01*
X128876918Y-104775000D01*
X129220423Y-104706672D01*
X129543999Y-104572643D01*
X129835209Y-104378063D01*
X130082863Y-104130409D01*
X130277443Y-103839199D01*
X130411472Y-103515623D01*
X130479800Y-103172118D01*
X130479800Y-102821882D01*
X130411472Y-102478377D01*
X130277443Y-102154801D01*
X130082863Y-101863591D01*
X129933572Y-101714300D01*
X143345868Y-101714300D01*
X145961154Y-104329587D01*
X145987444Y-104461756D01*
X146064032Y-104646656D01*
X146175221Y-104813062D01*
X146316738Y-104954579D01*
X146483144Y-105065768D01*
X146668044Y-105142356D01*
X146864333Y-105181400D01*
X147064467Y-105181400D01*
X147260756Y-105142356D01*
X147445656Y-105065768D01*
X147612062Y-104954579D01*
X147753579Y-104813062D01*
X147864768Y-104646656D01*
X147941356Y-104461756D01*
X147949837Y-104419120D01*
X148179601Y-104572643D01*
X148503177Y-104706672D01*
X148846682Y-104775000D01*
X149196918Y-104775000D01*
X149540423Y-104706672D01*
X149863999Y-104572643D01*
X150155209Y-104378063D01*
X150402863Y-104130409D01*
X150597443Y-103839199D01*
X150731472Y-103515623D01*
X150799800Y-103172118D01*
X150799800Y-102821882D01*
X150731472Y-102478377D01*
X150597443Y-102154801D01*
X150402863Y-101863591D01*
X150155209Y-101615937D01*
X149863999Y-101421357D01*
X149540423Y-101287328D01*
X149196918Y-101219000D01*
X148846682Y-101219000D01*
X148503177Y-101287328D01*
X148179601Y-101421357D01*
X147888391Y-101615937D01*
X147789900Y-101714428D01*
X147789900Y-101687932D01*
X149386344Y-100091490D01*
X149417840Y-100065642D01*
X149443688Y-100034146D01*
X149443691Y-100034143D01*
X149520998Y-99939944D01*
X149597652Y-99796535D01*
X149600180Y-99788202D01*
X149644855Y-99640927D01*
X149656799Y-99519654D01*
X149656799Y-99519652D01*
X149660793Y-99479101D01*
X149656799Y-99438551D01*
X149656799Y-97357895D01*
X149851556Y-97319156D01*
X150036456Y-97242568D01*
X150148504Y-97167700D01*
X158436096Y-97167700D01*
X158548144Y-97242568D01*
X158733044Y-97319156D01*
X158929333Y-97358200D01*
X159129467Y-97358200D01*
X159325756Y-97319156D01*
X159510656Y-97242568D01*
X159677062Y-97131379D01*
X159818579Y-96989862D01*
X159929768Y-96823456D01*
X160006356Y-96638556D01*
X160045400Y-96442267D01*
X160045400Y-96242133D01*
X160022360Y-96126300D01*
X160671296Y-96126300D01*
X160783344Y-96201168D01*
X160968244Y-96277756D01*
X161164533Y-96316800D01*
X161364667Y-96316800D01*
X161560956Y-96277756D01*
X161745856Y-96201168D01*
X161912262Y-96089979D01*
X162053779Y-95948462D01*
X162119568Y-95850001D01*
X162852100Y-96582533D01*
X162852101Y-101286095D01*
X162777232Y-101398144D01*
X162700644Y-101583044D01*
X162661600Y-101779333D01*
X162661600Y-101979467D01*
X162700644Y-102175756D01*
X162777232Y-102360656D01*
X162871475Y-102501700D01*
X158505104Y-102501700D01*
X158393056Y-102426832D01*
X158208156Y-102350244D01*
X158011867Y-102311200D01*
X157811733Y-102311200D01*
X157615444Y-102350244D01*
X157430544Y-102426832D01*
X157264138Y-102538021D01*
X157122621Y-102679538D01*
X157011432Y-102845944D01*
X156934844Y-103030844D01*
X156895800Y-103227133D01*
X156895800Y-103427267D01*
X156934844Y-103623556D01*
X157011432Y-103808456D01*
X157122621Y-103974862D01*
X157264138Y-104116379D01*
X157430544Y-104227568D01*
X157615444Y-104304156D01*
X157811733Y-104343200D01*
X158011867Y-104343200D01*
X158208156Y-104304156D01*
X158393056Y-104227568D01*
X158505104Y-104152700D01*
X173212850Y-104152700D01*
X173253400Y-104156694D01*
X173293950Y-104152700D01*
X173293953Y-104152700D01*
X173415226Y-104140756D01*
X173570834Y-104093553D01*
X173714242Y-104016899D01*
X173839941Y-103913741D01*
X173865798Y-103882234D01*
X176489076Y-101258956D01*
X176492889Y-101260113D01*
X176711050Y-101281600D01*
X176856950Y-101281600D01*
X177075111Y-101260113D01*
X177355034Y-101175199D01*
X177613014Y-101037306D01*
X177839134Y-100851734D01*
X177863607Y-100821913D01*
X177884498Y-100890780D01*
X177943463Y-101001094D01*
X178022815Y-101097785D01*
X178119506Y-101177137D01*
X178229820Y-101236102D01*
X178349518Y-101272412D01*
X178474000Y-101284672D01*
X178498500Y-101284672D01*
X178498501Y-104912528D01*
X178423200Y-104912528D01*
X178298718Y-104924788D01*
X178179020Y-104961098D01*
X178068706Y-105020063D01*
X177972015Y-105099415D01*
X177892663Y-105196106D01*
X177833698Y-105306420D01*
X177812807Y-105375287D01*
X177788334Y-105345466D01*
X177562214Y-105159894D01*
X177304234Y-105022001D01*
X177024311Y-104937087D01*
X176806150Y-104915600D01*
X176660250Y-104915600D01*
X176442089Y-104937087D01*
X176162166Y-105022001D01*
X175904186Y-105159894D01*
X175678066Y-105345466D01*
X175492494Y-105571586D01*
X175463200Y-105626391D01*
X175433906Y-105571586D01*
X175248334Y-105345466D01*
X175022214Y-105159894D01*
X174764234Y-105022001D01*
X174484311Y-104937087D01*
X174266150Y-104915600D01*
X174120250Y-104915600D01*
X173902089Y-104937087D01*
X173622166Y-105022001D01*
X173364186Y-105159894D01*
X173138066Y-105345466D01*
X172952494Y-105571586D01*
X172923200Y-105626391D01*
X172893906Y-105571586D01*
X172708334Y-105345466D01*
X172482214Y-105159894D01*
X172224234Y-105022001D01*
X171944311Y-104937087D01*
X171726150Y-104915600D01*
X171580250Y-104915600D01*
X171362089Y-104937087D01*
X171082166Y-105022001D01*
X170824186Y-105159894D01*
X170598066Y-105345466D01*
X170412494Y-105571586D01*
X170383200Y-105626391D01*
X170353906Y-105571586D01*
X170168334Y-105345466D01*
X169942214Y-105159894D01*
X169684234Y-105022001D01*
X169404311Y-104937087D01*
X169186150Y-104915600D01*
X169040250Y-104915600D01*
X168822089Y-104937087D01*
X168542166Y-105022001D01*
X168284186Y-105159894D01*
X168058066Y-105345466D01*
X167872494Y-105571586D01*
X167837999Y-105636123D01*
X167768378Y-105519245D01*
X167573469Y-105303012D01*
X167340120Y-105128959D01*
X167077299Y-105003775D01*
X166930090Y-104959124D01*
X166700200Y-105080445D01*
X166700200Y-106273600D01*
X166720200Y-106273600D01*
X166720200Y-106527600D01*
X166700200Y-106527600D01*
X166700200Y-107720755D01*
X166930090Y-107842076D01*
X167077299Y-107797425D01*
X167340120Y-107672241D01*
X167573469Y-107498188D01*
X167768378Y-107281955D01*
X167837999Y-107165077D01*
X167872494Y-107229614D01*
X168058066Y-107455734D01*
X168284186Y-107641306D01*
X168542166Y-107779199D01*
X168822089Y-107864113D01*
X169040250Y-107885600D01*
X169186150Y-107885600D01*
X169404311Y-107864113D01*
X169684234Y-107779199D01*
X169942214Y-107641306D01*
X170168334Y-107455734D01*
X170353906Y-107229614D01*
X170383200Y-107174809D01*
X170412494Y-107229614D01*
X170598066Y-107455734D01*
X170824186Y-107641306D01*
X171082166Y-107779199D01*
X171362089Y-107864113D01*
X171580250Y-107885600D01*
X171726150Y-107885600D01*
X171944311Y-107864113D01*
X172224234Y-107779199D01*
X172482214Y-107641306D01*
X172708334Y-107455734D01*
X172893906Y-107229614D01*
X172923200Y-107174809D01*
X172952494Y-107229614D01*
X173138066Y-107455734D01*
X173364186Y-107641306D01*
X173622166Y-107779199D01*
X173902089Y-107864113D01*
X174120250Y-107885600D01*
X174266150Y-107885600D01*
X174484311Y-107864113D01*
X174764234Y-107779199D01*
X175022214Y-107641306D01*
X175248334Y-107455734D01*
X175433906Y-107229614D01*
X175463200Y-107174809D01*
X175492494Y-107229614D01*
X175678066Y-107455734D01*
X175904186Y-107641306D01*
X176162166Y-107779199D01*
X176442089Y-107864113D01*
X176660250Y-107885600D01*
X176806150Y-107885600D01*
X177024311Y-107864113D01*
X177304234Y-107779199D01*
X177562214Y-107641306D01*
X177788334Y-107455734D01*
X177812807Y-107425913D01*
X177833698Y-107494780D01*
X177892663Y-107605094D01*
X177972015Y-107701785D01*
X178068706Y-107781137D01*
X178179020Y-107840102D01*
X178298718Y-107876412D01*
X178423200Y-107888672D01*
X180123200Y-107888672D01*
X180247682Y-107876412D01*
X180276501Y-107867670D01*
X180276501Y-108420866D01*
X180048867Y-108648500D01*
X151373750Y-108648500D01*
X151333200Y-108644506D01*
X151292649Y-108648500D01*
X151292647Y-108648500D01*
X151171374Y-108660444D01*
X151015766Y-108707647D01*
X150872357Y-108784301D01*
X150778158Y-108861608D01*
X150778155Y-108861611D01*
X150746659Y-108887459D01*
X150720811Y-108918955D01*
X143666166Y-115973602D01*
X143634659Y-115999459D01*
X143594248Y-116048701D01*
X143531501Y-116125158D01*
X143517229Y-116151859D01*
X143454847Y-116268567D01*
X143407644Y-116424175D01*
X143395700Y-116545447D01*
X143391706Y-116586000D01*
X143395700Y-116626551D01*
X143395701Y-118405695D01*
X143320832Y-118517744D01*
X143244244Y-118702644D01*
X143205200Y-118898933D01*
X143205200Y-119099067D01*
X143244244Y-119295356D01*
X143320832Y-119480256D01*
X143432021Y-119646662D01*
X143573538Y-119788179D01*
X143739944Y-119899368D01*
X143803481Y-119925686D01*
X140958268Y-122770900D01*
X140610890Y-122770900D01*
X140703262Y-122709179D01*
X140844779Y-122567662D01*
X140955968Y-122401256D01*
X141032556Y-122216356D01*
X141071600Y-122020067D01*
X141071600Y-121819933D01*
X141032556Y-121623644D01*
X140955968Y-121438744D01*
X140844779Y-121272338D01*
X140703262Y-121130821D01*
X140536856Y-121019632D01*
X140351956Y-120943044D01*
X140219788Y-120916754D01*
X138950700Y-119647668D01*
X138950700Y-117859304D01*
X139025568Y-117747256D01*
X139102156Y-117562356D01*
X139141200Y-117366067D01*
X139141200Y-117165933D01*
X139102156Y-116969644D01*
X139025568Y-116784744D01*
X138914379Y-116618338D01*
X138772862Y-116476821D01*
X138606456Y-116365632D01*
X138421556Y-116289044D01*
X138225267Y-116250000D01*
X138025133Y-116250000D01*
X137828844Y-116289044D01*
X137643944Y-116365632D01*
X137477538Y-116476821D01*
X137336021Y-116618338D01*
X137224832Y-116784744D01*
X137148244Y-116969644D01*
X137109200Y-117165933D01*
X137109200Y-117366067D01*
X137148244Y-117562356D01*
X137224832Y-117747256D01*
X137299700Y-117859304D01*
X137299701Y-119949040D01*
X137295706Y-119989600D01*
X137311645Y-120151426D01*
X137358847Y-120307033D01*
X137435501Y-120450442D01*
X137467503Y-120489436D01*
X137538660Y-120576141D01*
X137570161Y-120601993D01*
X139052354Y-122084188D01*
X139078644Y-122216356D01*
X139155232Y-122401256D01*
X139266421Y-122567662D01*
X139307488Y-122608729D01*
X139165067Y-122580400D01*
X138964933Y-122580400D01*
X138768644Y-122619444D01*
X138583744Y-122696032D01*
X138417338Y-122807221D01*
X138275821Y-122948738D01*
X138164632Y-123115144D01*
X138088044Y-123300044D01*
X138049000Y-123496333D01*
X138049000Y-123696467D01*
X138088044Y-123892756D01*
X138164632Y-124077656D01*
X138275821Y-124244062D01*
X138417338Y-124385579D01*
X138583744Y-124496768D01*
X138768644Y-124573356D01*
X138964933Y-124612400D01*
X139165067Y-124612400D01*
X139361356Y-124573356D01*
X139546256Y-124496768D01*
X139658304Y-124421900D01*
X141259650Y-124421900D01*
X141300200Y-124425894D01*
X141340750Y-124421900D01*
X141340753Y-124421900D01*
X141462026Y-124409956D01*
X141617634Y-124362753D01*
X141761042Y-124286099D01*
X141886741Y-124182941D01*
X141912598Y-124151434D01*
X143383000Y-122681032D01*
X143383000Y-122705867D01*
X143422044Y-122902156D01*
X143498632Y-123087056D01*
X143609821Y-123253462D01*
X143751338Y-123394979D01*
X143917744Y-123506168D01*
X144102644Y-123582756D01*
X144298933Y-123621800D01*
X144499067Y-123621800D01*
X144695356Y-123582756D01*
X144880256Y-123506168D01*
X144992304Y-123431300D01*
X146701296Y-123431300D01*
X146813344Y-123506168D01*
X146998244Y-123582756D01*
X147194533Y-123621800D01*
X147394667Y-123621800D01*
X147590956Y-123582756D01*
X147775856Y-123506168D01*
X147840701Y-123462840D01*
X147840701Y-126861266D01*
X146317614Y-128384354D01*
X146185444Y-128410644D01*
X146000544Y-128487232D01*
X145834138Y-128598421D01*
X145692621Y-128739938D01*
X145581432Y-128906344D01*
X145504844Y-129091244D01*
X145465800Y-129287533D01*
X145465800Y-129487667D01*
X145504844Y-129683956D01*
X145581432Y-129868856D01*
X145692621Y-130035262D01*
X145834138Y-130176779D01*
X146000544Y-130287968D01*
X146185444Y-130364556D01*
X146381733Y-130403600D01*
X146581867Y-130403600D01*
X146778156Y-130364556D01*
X146963056Y-130287968D01*
X147129462Y-130176779D01*
X147270979Y-130035262D01*
X147382168Y-129868856D01*
X147458756Y-129683956D01*
X147485046Y-129551786D01*
X149221239Y-127815594D01*
X149252741Y-127789741D01*
X149314237Y-127714808D01*
X149355899Y-127664043D01*
X149432553Y-127520634D01*
X149439934Y-127496301D01*
X149479756Y-127365026D01*
X149491700Y-127243753D01*
X149491700Y-127243751D01*
X149495694Y-127203201D01*
X149491700Y-127162650D01*
X149491700Y-115884104D01*
X149566568Y-115772056D01*
X149643156Y-115587156D01*
X149682200Y-115390867D01*
X149682200Y-115190733D01*
X149643156Y-114994444D01*
X149566568Y-114809544D01*
X149455379Y-114643138D01*
X149313862Y-114501621D01*
X149200055Y-114425578D01*
X151827534Y-111798100D01*
X180959850Y-111798100D01*
X181000400Y-111802094D01*
X181040950Y-111798100D01*
X181040953Y-111798100D01*
X181162226Y-111786156D01*
X181317834Y-111738953D01*
X181461242Y-111662299D01*
X181586941Y-111559141D01*
X181612798Y-111527634D01*
X182647639Y-110492794D01*
X182679141Y-110466941D01*
X182702601Y-110438355D01*
X182702601Y-145542400D01*
X124078600Y-145542400D01*
X124078600Y-143491517D01*
X124223600Y-143491517D01*
X124223600Y-143833283D01*
X124290275Y-144168481D01*
X124421063Y-144484231D01*
X124610937Y-144768398D01*
X124852602Y-145010063D01*
X125136769Y-145199937D01*
X125452519Y-145330725D01*
X125787717Y-145397400D01*
X126129483Y-145397400D01*
X126464681Y-145330725D01*
X126780431Y-145199937D01*
X127064598Y-145010063D01*
X127306263Y-144768398D01*
X127496137Y-144484231D01*
X127626925Y-144168481D01*
X127693600Y-143833283D01*
X127693600Y-143491517D01*
X127644048Y-143242400D01*
X143418928Y-143242400D01*
X143431188Y-143366882D01*
X143467498Y-143486580D01*
X143526463Y-143596894D01*
X143605815Y-143693585D01*
X143702506Y-143772937D01*
X143812820Y-143831902D01*
X143932518Y-143868212D01*
X144057000Y-143880472D01*
X144621250Y-143877400D01*
X144780000Y-143718650D01*
X144780000Y-142519400D01*
X143580750Y-142519400D01*
X143422000Y-142678150D01*
X143418928Y-143242400D01*
X127644048Y-143242400D01*
X127626925Y-143156319D01*
X127496137Y-142840569D01*
X127306263Y-142556402D01*
X127064598Y-142314737D01*
X126780431Y-142124863D01*
X126464681Y-141994075D01*
X126129483Y-141927400D01*
X125787717Y-141927400D01*
X125452519Y-141994075D01*
X125136769Y-142124863D01*
X124852602Y-142314737D01*
X124610937Y-142556402D01*
X124421063Y-142840569D01*
X124290275Y-143156319D01*
X124223600Y-143491517D01*
X124078600Y-143491517D01*
X124078600Y-141542400D01*
X143418928Y-141542400D01*
X143422000Y-142106650D01*
X143580750Y-142265400D01*
X144780000Y-142265400D01*
X144780000Y-141066150D01*
X145034000Y-141066150D01*
X145034000Y-142265400D01*
X145054000Y-142265400D01*
X145054000Y-142519400D01*
X145034000Y-142519400D01*
X145034000Y-143718650D01*
X145192750Y-143877400D01*
X145757000Y-143880472D01*
X145881482Y-143868212D01*
X146001180Y-143831902D01*
X146111494Y-143772937D01*
X146208185Y-143693585D01*
X146287537Y-143596894D01*
X146346502Y-143486580D01*
X146367393Y-143417713D01*
X146391866Y-143447534D01*
X146617986Y-143633106D01*
X146875966Y-143770999D01*
X147155889Y-143855913D01*
X147374050Y-143877400D01*
X147519950Y-143877400D01*
X147738111Y-143855913D01*
X147741924Y-143854756D01*
X148644998Y-144757832D01*
X148713101Y-144885242D01*
X148753723Y-144934740D01*
X148816259Y-145010941D01*
X148941958Y-145114099D01*
X149085366Y-145190753D01*
X149240974Y-145237956D01*
X149402800Y-145253894D01*
X149443353Y-145249900D01*
X163840250Y-145249900D01*
X163880800Y-145253894D01*
X163921350Y-145249900D01*
X163921353Y-145249900D01*
X164042626Y-145237956D01*
X164198234Y-145190753D01*
X164341642Y-145114099D01*
X164467341Y-145010941D01*
X164493198Y-144979434D01*
X165981115Y-143491517D01*
X179087600Y-143491517D01*
X179087600Y-143833283D01*
X179154275Y-144168481D01*
X179285063Y-144484231D01*
X179474937Y-144768398D01*
X179716602Y-145010063D01*
X180000769Y-145199937D01*
X180316519Y-145330725D01*
X180651717Y-145397400D01*
X180993483Y-145397400D01*
X181328681Y-145330725D01*
X181644431Y-145199937D01*
X181928598Y-145010063D01*
X182170263Y-144768398D01*
X182360137Y-144484231D01*
X182490925Y-144168481D01*
X182557600Y-143833283D01*
X182557600Y-143491517D01*
X182490925Y-143156319D01*
X182360137Y-142840569D01*
X182170263Y-142556402D01*
X181928598Y-142314737D01*
X181644431Y-142124863D01*
X181328681Y-141994075D01*
X180993483Y-141927400D01*
X180651717Y-141927400D01*
X180316519Y-141994075D01*
X180000769Y-142124863D01*
X179716602Y-142314737D01*
X179474937Y-142556402D01*
X179285063Y-142840569D01*
X179154275Y-143156319D01*
X179087600Y-143491517D01*
X165981115Y-143491517D01*
X173021040Y-136451593D01*
X173052541Y-136425741D01*
X173105177Y-136361604D01*
X173155699Y-136300043D01*
X173182399Y-136250089D01*
X173232353Y-136156634D01*
X173279556Y-136001026D01*
X173291500Y-135879753D01*
X173291500Y-135879751D01*
X173295494Y-135839201D01*
X173291500Y-135798650D01*
X173291500Y-126695200D01*
X176713657Y-126695200D01*
X176741364Y-126976509D01*
X176823418Y-127247008D01*
X176956668Y-127496301D01*
X177135992Y-127714808D01*
X177354499Y-127894132D01*
X177487458Y-127965200D01*
X177354499Y-128036268D01*
X177135992Y-128215592D01*
X176956668Y-128434099D01*
X176823418Y-128683392D01*
X176741364Y-128953891D01*
X176713657Y-129235200D01*
X176741364Y-129516509D01*
X176823418Y-129787008D01*
X176956668Y-130036301D01*
X177135992Y-130254808D01*
X177354499Y-130434132D01*
X177487458Y-130505200D01*
X177354499Y-130576268D01*
X177135992Y-130755592D01*
X176956668Y-130974099D01*
X176823418Y-131223392D01*
X176741364Y-131493891D01*
X176713657Y-131775200D01*
X176741364Y-132056509D01*
X176823418Y-132327008D01*
X176956668Y-132576301D01*
X177135992Y-132794808D01*
X177354499Y-132974132D01*
X177603792Y-133107382D01*
X177874291Y-133189436D01*
X178085108Y-133210200D01*
X178226092Y-133210200D01*
X178436909Y-133189436D01*
X178707408Y-133107382D01*
X178956701Y-132974132D01*
X179175208Y-132794808D01*
X179354532Y-132576301D01*
X179487782Y-132327008D01*
X179569836Y-132056509D01*
X179597543Y-131775200D01*
X179569836Y-131493891D01*
X179487782Y-131223392D01*
X179354532Y-130974099D01*
X179175208Y-130755592D01*
X178956701Y-130576268D01*
X178823742Y-130505200D01*
X178956701Y-130434132D01*
X179175208Y-130254808D01*
X179354532Y-130036301D01*
X179487782Y-129787008D01*
X179569836Y-129516509D01*
X179597543Y-129235200D01*
X179569836Y-128953891D01*
X179487782Y-128683392D01*
X179354532Y-128434099D01*
X179175208Y-128215592D01*
X178956701Y-128036268D01*
X178823742Y-127965200D01*
X178956701Y-127894132D01*
X179175208Y-127714808D01*
X179354532Y-127496301D01*
X179487782Y-127247008D01*
X179569836Y-126976509D01*
X179597543Y-126695200D01*
X179569836Y-126413891D01*
X179487782Y-126143392D01*
X179354532Y-125894099D01*
X179175208Y-125675592D01*
X178956701Y-125496268D01*
X178818918Y-125422621D01*
X179010731Y-125307585D01*
X179219119Y-125118614D01*
X179386637Y-124892620D01*
X179506846Y-124638287D01*
X179547504Y-124504239D01*
X179425515Y-124282200D01*
X178282600Y-124282200D01*
X178282600Y-124302200D01*
X178028600Y-124302200D01*
X178028600Y-124282200D01*
X176885685Y-124282200D01*
X176763696Y-124504239D01*
X176804354Y-124638287D01*
X176924563Y-124892620D01*
X177092081Y-125118614D01*
X177300469Y-125307585D01*
X177492282Y-125422621D01*
X177354499Y-125496268D01*
X177135992Y-125675592D01*
X176956668Y-125894099D01*
X176823418Y-126143392D01*
X176741364Y-126413891D01*
X176713657Y-126695200D01*
X173291500Y-126695200D01*
X173291500Y-118506150D01*
X173295494Y-118465600D01*
X173290260Y-118412459D01*
X173279556Y-118303774D01*
X173232353Y-118148166D01*
X173178868Y-118048103D01*
X173155699Y-118004757D01*
X173078392Y-117910558D01*
X173078389Y-117910555D01*
X173052541Y-117879059D01*
X173021046Y-117853212D01*
X171952930Y-116785097D01*
X171977543Y-116535200D01*
X171949836Y-116253891D01*
X171867782Y-115983392D01*
X171734532Y-115734099D01*
X171555208Y-115515592D01*
X171442118Y-115422781D01*
X171460082Y-115421012D01*
X171579780Y-115384702D01*
X171690094Y-115325737D01*
X171786785Y-115246385D01*
X171866137Y-115149694D01*
X171925102Y-115039380D01*
X171961412Y-114919682D01*
X171973672Y-114795200D01*
X171970600Y-114280950D01*
X171811852Y-114122202D01*
X171970600Y-114122202D01*
X171970600Y-113995200D01*
X176713657Y-113995200D01*
X176741364Y-114276509D01*
X176823418Y-114547008D01*
X176956668Y-114796301D01*
X177135992Y-115014808D01*
X177354499Y-115194132D01*
X177487458Y-115265200D01*
X177354499Y-115336268D01*
X177135992Y-115515592D01*
X176956668Y-115734099D01*
X176823418Y-115983392D01*
X176741364Y-116253891D01*
X176713657Y-116535200D01*
X176741364Y-116816509D01*
X176823418Y-117087008D01*
X176956668Y-117336301D01*
X177135992Y-117554808D01*
X177354499Y-117734132D01*
X177487458Y-117805200D01*
X177354499Y-117876268D01*
X177135992Y-118055592D01*
X176956668Y-118274099D01*
X176823418Y-118523392D01*
X176741364Y-118793891D01*
X176713657Y-119075200D01*
X176741364Y-119356509D01*
X176823418Y-119627008D01*
X176956668Y-119876301D01*
X177135992Y-120094808D01*
X177354499Y-120274132D01*
X177487458Y-120345200D01*
X177354499Y-120416268D01*
X177135992Y-120595592D01*
X176956668Y-120814099D01*
X176823418Y-121063392D01*
X176741364Y-121333891D01*
X176713657Y-121615200D01*
X176741364Y-121896509D01*
X176823418Y-122167008D01*
X176956668Y-122416301D01*
X177135992Y-122634808D01*
X177354499Y-122814132D01*
X177492282Y-122887779D01*
X177300469Y-123002815D01*
X177092081Y-123191786D01*
X176924563Y-123417780D01*
X176804354Y-123672113D01*
X176763696Y-123806161D01*
X176885685Y-124028200D01*
X178028600Y-124028200D01*
X178028600Y-124008200D01*
X178282600Y-124008200D01*
X178282600Y-124028200D01*
X179425515Y-124028200D01*
X179547504Y-123806161D01*
X179506846Y-123672113D01*
X179386637Y-123417780D01*
X179219119Y-123191786D01*
X179010731Y-123002815D01*
X178818918Y-122887779D01*
X178956701Y-122814132D01*
X179175208Y-122634808D01*
X179354532Y-122416301D01*
X179487782Y-122167008D01*
X179569836Y-121896509D01*
X179597543Y-121615200D01*
X179569836Y-121333891D01*
X179487782Y-121063392D01*
X179354532Y-120814099D01*
X179175208Y-120595592D01*
X178956701Y-120416268D01*
X178823742Y-120345200D01*
X178956701Y-120274132D01*
X179175208Y-120094808D01*
X179354532Y-119876301D01*
X179487782Y-119627008D01*
X179569836Y-119356509D01*
X179597543Y-119075200D01*
X179569836Y-118793891D01*
X179487782Y-118523392D01*
X179354532Y-118274099D01*
X179175208Y-118055592D01*
X178956701Y-117876268D01*
X178823742Y-117805200D01*
X178956701Y-117734132D01*
X179175208Y-117554808D01*
X179354532Y-117336301D01*
X179487782Y-117087008D01*
X179569836Y-116816509D01*
X179597543Y-116535200D01*
X179569836Y-116253891D01*
X179487782Y-115983392D01*
X179354532Y-115734099D01*
X179175208Y-115515592D01*
X178956701Y-115336268D01*
X178823742Y-115265200D01*
X178956701Y-115194132D01*
X179175208Y-115014808D01*
X179354532Y-114796301D01*
X179487782Y-114547008D01*
X179569836Y-114276509D01*
X179597543Y-113995200D01*
X179569836Y-113713891D01*
X179487782Y-113443392D01*
X179354532Y-113194099D01*
X179175208Y-112975592D01*
X178956701Y-112796268D01*
X178707408Y-112663018D01*
X178436909Y-112580964D01*
X178226092Y-112560200D01*
X178085108Y-112560200D01*
X177874291Y-112580964D01*
X177603792Y-112663018D01*
X177354499Y-112796268D01*
X177135992Y-112975592D01*
X176956668Y-113194099D01*
X176823418Y-113443392D01*
X176741364Y-113713891D01*
X176713657Y-113995200D01*
X171970600Y-113995200D01*
X171970600Y-113868198D01*
X171811852Y-113868198D01*
X171970600Y-113709450D01*
X171973672Y-113195200D01*
X171961412Y-113070718D01*
X171925102Y-112951020D01*
X171866137Y-112840706D01*
X171786785Y-112744015D01*
X171690094Y-112664663D01*
X171579780Y-112605698D01*
X171460082Y-112569388D01*
X171335600Y-112557128D01*
X170821350Y-112560200D01*
X170662600Y-112718950D01*
X170662600Y-113868200D01*
X170682600Y-113868200D01*
X170682600Y-114122200D01*
X170662600Y-114122200D01*
X170662600Y-114142200D01*
X170408600Y-114142200D01*
X170408600Y-114122200D01*
X170388600Y-114122200D01*
X170388600Y-113868200D01*
X170408600Y-113868200D01*
X170408600Y-112718950D01*
X170249850Y-112560200D01*
X169735600Y-112557128D01*
X169611118Y-112569388D01*
X169491420Y-112605698D01*
X169381106Y-112664663D01*
X169284415Y-112744015D01*
X169205063Y-112840706D01*
X169146098Y-112951020D01*
X169109788Y-113070718D01*
X169097528Y-113195200D01*
X169100600Y-113709450D01*
X169259348Y-113868198D01*
X169100600Y-113868198D01*
X169100600Y-114122202D01*
X169259348Y-114122202D01*
X169100600Y-114280950D01*
X169097528Y-114795200D01*
X169109788Y-114919682D01*
X169146098Y-115039380D01*
X169205063Y-115149694D01*
X169284415Y-115246385D01*
X169381106Y-115325737D01*
X169491420Y-115384702D01*
X169611118Y-115421012D01*
X169629082Y-115422781D01*
X169515992Y-115515592D01*
X169336668Y-115734099D01*
X169203418Y-115983392D01*
X169121364Y-116253891D01*
X169093657Y-116535200D01*
X169121364Y-116816509D01*
X169203418Y-117087008D01*
X169336668Y-117336301D01*
X169515992Y-117554808D01*
X169734499Y-117734132D01*
X169867458Y-117805200D01*
X169734499Y-117876268D01*
X169515992Y-118055592D01*
X169336668Y-118274099D01*
X169336133Y-118275100D01*
X166127263Y-118275100D01*
X166101697Y-118236838D01*
X165912962Y-118048103D01*
X165691033Y-117899815D01*
X165444439Y-117797672D01*
X165182656Y-117745600D01*
X164915744Y-117745600D01*
X164653961Y-117797672D01*
X164407367Y-117899815D01*
X164185438Y-118048103D01*
X163996703Y-118236838D01*
X163848415Y-118458767D01*
X163779200Y-118625866D01*
X163709985Y-118458767D01*
X163561697Y-118236838D01*
X163372962Y-118048103D01*
X163151033Y-117899815D01*
X162904439Y-117797672D01*
X162642656Y-117745600D01*
X162375744Y-117745600D01*
X162113961Y-117797672D01*
X161867367Y-117899815D01*
X161645438Y-118048103D01*
X161456703Y-118236838D01*
X161431137Y-118275100D01*
X161047263Y-118275100D01*
X161021697Y-118236838D01*
X160832962Y-118048103D01*
X160611033Y-117899815D01*
X160364439Y-117797672D01*
X160102656Y-117745600D01*
X159835744Y-117745600D01*
X159573961Y-117797672D01*
X159327367Y-117899815D01*
X159105438Y-118048103D01*
X158916703Y-118236838D01*
X158768415Y-118458767D01*
X158666272Y-118705361D01*
X158614200Y-118967144D01*
X158614200Y-119234056D01*
X158666272Y-119495839D01*
X158768415Y-119742433D01*
X158916703Y-119964362D01*
X159105438Y-120153097D01*
X159327367Y-120301385D01*
X159573961Y-120403528D01*
X159835744Y-120455600D01*
X160102656Y-120455600D01*
X160364439Y-120403528D01*
X160611033Y-120301385D01*
X160832962Y-120153097D01*
X161021697Y-119964362D01*
X161047263Y-119926100D01*
X161431137Y-119926100D01*
X161456703Y-119964362D01*
X161645438Y-120153097D01*
X161867367Y-120301385D01*
X162113961Y-120403528D01*
X162375744Y-120455600D01*
X162642656Y-120455600D01*
X162904439Y-120403528D01*
X163151033Y-120301385D01*
X163372962Y-120153097D01*
X163561697Y-119964362D01*
X163709985Y-119742433D01*
X163779200Y-119575334D01*
X163848415Y-119742433D01*
X163996703Y-119964362D01*
X164185438Y-120153097D01*
X164407367Y-120301385D01*
X164653961Y-120403528D01*
X164915744Y-120455600D01*
X165182656Y-120455600D01*
X165444439Y-120403528D01*
X165691033Y-120301385D01*
X165912962Y-120153097D01*
X166101697Y-119964362D01*
X166127263Y-119926100D01*
X169377537Y-119926100D01*
X169515992Y-120094808D01*
X169734499Y-120274132D01*
X169867458Y-120345200D01*
X169734499Y-120416268D01*
X169515992Y-120595592D01*
X169336668Y-120814099D01*
X169203418Y-121063392D01*
X169121364Y-121333891D01*
X169093657Y-121615200D01*
X169121364Y-121896509D01*
X169203418Y-122167008D01*
X169336668Y-122416301D01*
X169515992Y-122634808D01*
X169734499Y-122814132D01*
X169867458Y-122885200D01*
X169734499Y-122956268D01*
X169515992Y-123135592D01*
X169336668Y-123354099D01*
X169203418Y-123603392D01*
X169121364Y-123873891D01*
X169093657Y-124155200D01*
X169121364Y-124436509D01*
X169203418Y-124707008D01*
X169336668Y-124956301D01*
X169515992Y-125174808D01*
X169734499Y-125354132D01*
X169867458Y-125425200D01*
X169734499Y-125496268D01*
X169515992Y-125675592D01*
X169336668Y-125894099D01*
X169203418Y-126143392D01*
X169121364Y-126413891D01*
X169093657Y-126695200D01*
X169121364Y-126976509D01*
X169203418Y-127247008D01*
X169336668Y-127496301D01*
X169515992Y-127714808D01*
X169734499Y-127894132D01*
X169867458Y-127965200D01*
X169734499Y-128036268D01*
X169515992Y-128215592D01*
X169356692Y-128409700D01*
X166689942Y-128409700D01*
X166649399Y-128405707D01*
X166608856Y-128409700D01*
X166608847Y-128409700D01*
X166487574Y-128421644D01*
X166331966Y-128468847D01*
X166207078Y-128535602D01*
X166188556Y-128545502D01*
X166132433Y-128591561D01*
X166062859Y-128648659D01*
X166037007Y-128680160D01*
X161659268Y-133057900D01*
X160869463Y-133057900D01*
X160843897Y-133019638D01*
X160655162Y-132830903D01*
X160433233Y-132682615D01*
X160186639Y-132580472D01*
X159924856Y-132528400D01*
X159657944Y-132528400D01*
X159396161Y-132580472D01*
X159149567Y-132682615D01*
X158927638Y-132830903D01*
X158738903Y-133019638D01*
X158590615Y-133241567D01*
X158488472Y-133488161D01*
X158436400Y-133749944D01*
X158436400Y-134016856D01*
X158488472Y-134278639D01*
X158590615Y-134525233D01*
X158738903Y-134747162D01*
X158927638Y-134935897D01*
X159149567Y-135084185D01*
X159316666Y-135153400D01*
X159149567Y-135222615D01*
X158927638Y-135370903D01*
X158738903Y-135559638D01*
X158590615Y-135781567D01*
X158488472Y-136028161D01*
X158436400Y-136289944D01*
X158436400Y-136556856D01*
X158488472Y-136818639D01*
X158590615Y-137065233D01*
X158738903Y-137287162D01*
X158927638Y-137475897D01*
X159149567Y-137624185D01*
X159316666Y-137693400D01*
X159149567Y-137762615D01*
X158927638Y-137910903D01*
X158738903Y-138099638D01*
X158590615Y-138321567D01*
X158488472Y-138568161D01*
X158436400Y-138829944D01*
X158436400Y-139096856D01*
X158488472Y-139358639D01*
X158590615Y-139605233D01*
X158738903Y-139827162D01*
X158927638Y-140015897D01*
X159149567Y-140164185D01*
X159396161Y-140266328D01*
X159657944Y-140318400D01*
X159924856Y-140318400D01*
X160186639Y-140266328D01*
X160433233Y-140164185D01*
X160655162Y-140015897D01*
X160843897Y-139827162D01*
X160992185Y-139605233D01*
X161094328Y-139358639D01*
X161146400Y-139096856D01*
X161146400Y-138829944D01*
X161094328Y-138568161D01*
X160992185Y-138321567D01*
X160843897Y-138099638D01*
X160655162Y-137910903D01*
X160433233Y-137762615D01*
X160266134Y-137693400D01*
X160433233Y-137624185D01*
X160655162Y-137475897D01*
X160843897Y-137287162D01*
X160992185Y-137065233D01*
X161094328Y-136818639D01*
X161146400Y-136556856D01*
X161146400Y-136289944D01*
X161094328Y-136028161D01*
X160992185Y-135781567D01*
X160843897Y-135559638D01*
X160655162Y-135370903D01*
X160433233Y-135222615D01*
X160266134Y-135153400D01*
X160433233Y-135084185D01*
X160655162Y-134935897D01*
X160843897Y-134747162D01*
X160869463Y-134708900D01*
X161960650Y-134708900D01*
X162001200Y-134712894D01*
X162041750Y-134708900D01*
X162041753Y-134708900D01*
X162163026Y-134696956D01*
X162318634Y-134649753D01*
X162462042Y-134573099D01*
X162587741Y-134469941D01*
X162613598Y-134438434D01*
X166991333Y-130060700D01*
X169356692Y-130060700D01*
X169515992Y-130254808D01*
X169734499Y-130434132D01*
X169867458Y-130505200D01*
X169734499Y-130576268D01*
X169515992Y-130755592D01*
X169336668Y-130974099D01*
X169203418Y-131223392D01*
X169121364Y-131493891D01*
X169093657Y-131775200D01*
X169118270Y-132025097D01*
X168085468Y-133057900D01*
X166584463Y-133057900D01*
X166558897Y-133019638D01*
X166370162Y-132830903D01*
X166148233Y-132682615D01*
X165901639Y-132580472D01*
X165639856Y-132528400D01*
X165372944Y-132528400D01*
X165111161Y-132580472D01*
X164864567Y-132682615D01*
X164642638Y-132830903D01*
X164453903Y-133019638D01*
X164305615Y-133241567D01*
X164203472Y-133488161D01*
X164151400Y-133749944D01*
X164151400Y-134016856D01*
X164203472Y-134278639D01*
X164305615Y-134525233D01*
X164453903Y-134747162D01*
X164642638Y-134935897D01*
X164864567Y-135084185D01*
X165031666Y-135153400D01*
X164864567Y-135222615D01*
X164642638Y-135370903D01*
X164453903Y-135559638D01*
X164305615Y-135781567D01*
X164203472Y-136028161D01*
X164151400Y-136289944D01*
X164151400Y-136556856D01*
X164203472Y-136818639D01*
X164305615Y-137065233D01*
X164453903Y-137287162D01*
X164642638Y-137475897D01*
X164864567Y-137624185D01*
X165031666Y-137693400D01*
X164864567Y-137762615D01*
X164642638Y-137910903D01*
X164453903Y-138099638D01*
X164305615Y-138321567D01*
X164203472Y-138568161D01*
X164151400Y-138829944D01*
X164151400Y-139096856D01*
X164203472Y-139358639D01*
X164305615Y-139605233D01*
X164453903Y-139827162D01*
X164642638Y-140015897D01*
X164864567Y-140164185D01*
X165111161Y-140266328D01*
X165372944Y-140318400D01*
X165639856Y-140318400D01*
X165901639Y-140266328D01*
X166148233Y-140164185D01*
X166370162Y-140015897D01*
X166558897Y-139827162D01*
X166707185Y-139605233D01*
X166809328Y-139358639D01*
X166861400Y-139096856D01*
X166861400Y-138829944D01*
X166809328Y-138568161D01*
X166707185Y-138321567D01*
X166558897Y-138099638D01*
X166370162Y-137910903D01*
X166148233Y-137762615D01*
X165981134Y-137693400D01*
X166148233Y-137624185D01*
X166370162Y-137475897D01*
X166558897Y-137287162D01*
X166707185Y-137065233D01*
X166809328Y-136818639D01*
X166861400Y-136556856D01*
X166861400Y-136289944D01*
X166809328Y-136028161D01*
X166707185Y-135781567D01*
X166558897Y-135559638D01*
X166370162Y-135370903D01*
X166148233Y-135222615D01*
X165981134Y-135153400D01*
X166148233Y-135084185D01*
X166370162Y-134935897D01*
X166558897Y-134747162D01*
X166584463Y-134708900D01*
X168386850Y-134708900D01*
X168427400Y-134712894D01*
X168467950Y-134708900D01*
X168467953Y-134708900D01*
X168589226Y-134696956D01*
X168744834Y-134649753D01*
X168888242Y-134573099D01*
X169013941Y-134469941D01*
X169039798Y-134438434D01*
X170285703Y-133192530D01*
X170465108Y-133210200D01*
X170606092Y-133210200D01*
X170816909Y-133189436D01*
X171087408Y-133107382D01*
X171336701Y-132974132D01*
X171555208Y-132794808D01*
X171640501Y-132690878D01*
X171640501Y-135497266D01*
X163538868Y-143598900D01*
X150857694Y-143598900D01*
X151042134Y-143447534D01*
X151227706Y-143221414D01*
X151365599Y-142963434D01*
X151450513Y-142683511D01*
X151479185Y-142392400D01*
X151450513Y-142101289D01*
X151449356Y-142097477D01*
X151449390Y-142097443D01*
X151449394Y-142097438D01*
X154028391Y-139518442D01*
X154028396Y-139518436D01*
X154326635Y-139220197D01*
X154358141Y-139194341D01*
X154461299Y-139068642D01*
X154537953Y-138925234D01*
X154585156Y-138769626D01*
X154597100Y-138648353D01*
X154597100Y-138648344D01*
X154601093Y-138607801D01*
X154597100Y-138567258D01*
X154597100Y-118169904D01*
X154671968Y-118057856D01*
X154748556Y-117872956D01*
X154787600Y-117676667D01*
X154787600Y-117476533D01*
X154748556Y-117280244D01*
X154671968Y-117095344D01*
X154560779Y-116928938D01*
X154419262Y-116787421D01*
X154252856Y-116676232D01*
X154067956Y-116599644D01*
X153871667Y-116560600D01*
X153671533Y-116560600D01*
X153475244Y-116599644D01*
X153290344Y-116676232D01*
X153123938Y-116787421D01*
X152982421Y-116928938D01*
X152871232Y-117095344D01*
X152794644Y-117280244D01*
X152755600Y-117476533D01*
X152755600Y-117676667D01*
X152794644Y-117872956D01*
X152871232Y-118057856D01*
X152946101Y-118169905D01*
X152946100Y-138265868D01*
X152860964Y-138351004D01*
X152860958Y-138351009D01*
X150281962Y-140930006D01*
X150281957Y-140930010D01*
X150281923Y-140930044D01*
X150278111Y-140928887D01*
X150059950Y-140907400D01*
X149914050Y-140907400D01*
X149695889Y-140928887D01*
X149415966Y-141013801D01*
X149157986Y-141151694D01*
X148931866Y-141337266D01*
X148746294Y-141563386D01*
X148717000Y-141618191D01*
X148687706Y-141563386D01*
X148502134Y-141337266D01*
X148276014Y-141151694D01*
X148018034Y-141013801D01*
X147738111Y-140928887D01*
X147519950Y-140907400D01*
X147374050Y-140907400D01*
X147155889Y-140928887D01*
X146875966Y-141013801D01*
X146617986Y-141151694D01*
X146391866Y-141337266D01*
X146367393Y-141367087D01*
X146346502Y-141298220D01*
X146287537Y-141187906D01*
X146208185Y-141091215D01*
X146111494Y-141011863D01*
X146001180Y-140952898D01*
X145881482Y-140916588D01*
X145757000Y-140904328D01*
X145192750Y-140907400D01*
X145034000Y-141066150D01*
X144780000Y-141066150D01*
X144621250Y-140907400D01*
X144057000Y-140904328D01*
X143932518Y-140916588D01*
X143812820Y-140952898D01*
X143702506Y-141011863D01*
X143605815Y-141091215D01*
X143526463Y-141187906D01*
X143467498Y-141298220D01*
X143431188Y-141417918D01*
X143418928Y-141542400D01*
X124078600Y-141542400D01*
X124078600Y-132285882D01*
X126923800Y-132285882D01*
X126923800Y-132636118D01*
X126992128Y-132979623D01*
X127126157Y-133303199D01*
X127320737Y-133594409D01*
X127568391Y-133842063D01*
X127859601Y-134036643D01*
X128183177Y-134170672D01*
X128526682Y-134239000D01*
X128876918Y-134239000D01*
X129220423Y-134170672D01*
X129543999Y-134036643D01*
X129835209Y-133842063D01*
X129971800Y-133705472D01*
X130108391Y-133842063D01*
X130399601Y-134036643D01*
X130723177Y-134170672D01*
X131066682Y-134239000D01*
X131416918Y-134239000D01*
X131760423Y-134170672D01*
X132083999Y-134036643D01*
X132375209Y-133842063D01*
X132511800Y-133705472D01*
X132648391Y-133842063D01*
X132939601Y-134036643D01*
X133263177Y-134170672D01*
X133606682Y-134239000D01*
X133956918Y-134239000D01*
X134300423Y-134170672D01*
X134623999Y-134036643D01*
X134915209Y-133842063D01*
X135051800Y-133705472D01*
X135188391Y-133842063D01*
X135479601Y-134036643D01*
X135803177Y-134170672D01*
X136146682Y-134239000D01*
X136496918Y-134239000D01*
X136840423Y-134170672D01*
X137163999Y-134036643D01*
X137455209Y-133842063D01*
X137591800Y-133705472D01*
X137728391Y-133842063D01*
X138019601Y-134036643D01*
X138343177Y-134170672D01*
X138686682Y-134239000D01*
X139036918Y-134239000D01*
X139380423Y-134170672D01*
X139703999Y-134036643D01*
X139995209Y-133842063D01*
X140131800Y-133705472D01*
X140268391Y-133842063D01*
X140559601Y-134036643D01*
X140883177Y-134170672D01*
X141226682Y-134239000D01*
X141576918Y-134239000D01*
X141920423Y-134170672D01*
X142243999Y-134036643D01*
X142535209Y-133842063D01*
X142678912Y-133698360D01*
X142884045Y-133698360D01*
X142997064Y-133977384D01*
X143311049Y-134132556D01*
X143649273Y-134223491D01*
X143998738Y-134246694D01*
X144346016Y-134201275D01*
X144677760Y-134088977D01*
X144886536Y-133977384D01*
X144999555Y-133698360D01*
X143941800Y-132640605D01*
X142884045Y-133698360D01*
X142678912Y-133698360D01*
X142782863Y-133594409D01*
X142977443Y-133303199D01*
X143018064Y-133205131D01*
X143762195Y-132461000D01*
X144121405Y-132461000D01*
X144865536Y-133205131D01*
X144906157Y-133303199D01*
X145100737Y-133594409D01*
X145348391Y-133842063D01*
X145639601Y-134036643D01*
X145963177Y-134170672D01*
X146306682Y-134239000D01*
X146656918Y-134239000D01*
X147000423Y-134170672D01*
X147323999Y-134036643D01*
X147615209Y-133842063D01*
X147751800Y-133705472D01*
X147888391Y-133842063D01*
X148179601Y-134036643D01*
X148503177Y-134170672D01*
X148846682Y-134239000D01*
X149196918Y-134239000D01*
X149540423Y-134170672D01*
X149863999Y-134036643D01*
X150155209Y-133842063D01*
X150402863Y-133594409D01*
X150597443Y-133303199D01*
X150731472Y-132979623D01*
X150799800Y-132636118D01*
X150799800Y-132285882D01*
X150731472Y-131942377D01*
X150597443Y-131618801D01*
X150402863Y-131327591D01*
X150155209Y-131079937D01*
X149863999Y-130885357D01*
X149540423Y-130751328D01*
X149196918Y-130683000D01*
X148846682Y-130683000D01*
X148503177Y-130751328D01*
X148179601Y-130885357D01*
X147888391Y-131079937D01*
X147751800Y-131216528D01*
X147615209Y-131079937D01*
X147323999Y-130885357D01*
X147000423Y-130751328D01*
X146656918Y-130683000D01*
X146306682Y-130683000D01*
X145963177Y-130751328D01*
X145639601Y-130885357D01*
X145348391Y-131079937D01*
X145100737Y-131327591D01*
X144906157Y-131618801D01*
X144865536Y-131716869D01*
X144121405Y-132461000D01*
X143762195Y-132461000D01*
X143018064Y-131716869D01*
X142977443Y-131618801D01*
X142782863Y-131327591D01*
X142678912Y-131223640D01*
X142884045Y-131223640D01*
X143941800Y-132281395D01*
X144999555Y-131223640D01*
X144886536Y-130944616D01*
X144572551Y-130789444D01*
X144234327Y-130698509D01*
X143884862Y-130675306D01*
X143537584Y-130720725D01*
X143205840Y-130833023D01*
X142997064Y-130944616D01*
X142884045Y-131223640D01*
X142678912Y-131223640D01*
X142535209Y-131079937D01*
X142243999Y-130885357D01*
X141920423Y-130751328D01*
X141576918Y-130683000D01*
X141226682Y-130683000D01*
X140883177Y-130751328D01*
X140559601Y-130885357D01*
X140268391Y-131079937D01*
X140131800Y-131216528D01*
X139995209Y-131079937D01*
X139703999Y-130885357D01*
X139380423Y-130751328D01*
X139036918Y-130683000D01*
X138686682Y-130683000D01*
X138343177Y-130751328D01*
X138019601Y-130885357D01*
X137728391Y-131079937D01*
X137591800Y-131216528D01*
X137455209Y-131079937D01*
X137163999Y-130885357D01*
X136840423Y-130751328D01*
X136496918Y-130683000D01*
X136146682Y-130683000D01*
X135803177Y-130751328D01*
X135479601Y-130885357D01*
X135188391Y-131079937D01*
X135051800Y-131216528D01*
X134915209Y-131079937D01*
X134623999Y-130885357D01*
X134300423Y-130751328D01*
X133956918Y-130683000D01*
X133606682Y-130683000D01*
X133263177Y-130751328D01*
X132939601Y-130885357D01*
X132648391Y-131079937D01*
X132511800Y-131216528D01*
X132375209Y-131079937D01*
X132083999Y-130885357D01*
X131760423Y-130751328D01*
X131416918Y-130683000D01*
X131066682Y-130683000D01*
X130723177Y-130751328D01*
X130399601Y-130885357D01*
X130108391Y-131079937D01*
X129971800Y-131216528D01*
X129835209Y-131079937D01*
X129543999Y-130885357D01*
X129220423Y-130751328D01*
X128876918Y-130683000D01*
X128526682Y-130683000D01*
X128183177Y-130751328D01*
X127859601Y-130885357D01*
X127568391Y-131079937D01*
X127320737Y-131327591D01*
X127126157Y-131618801D01*
X126992128Y-131942377D01*
X126923800Y-132285882D01*
X124078600Y-132285882D01*
X124078600Y-117298733D01*
X130784600Y-117298733D01*
X130784600Y-117498867D01*
X130823644Y-117695156D01*
X130900232Y-117880056D01*
X130975100Y-117992104D01*
X130975100Y-118405064D01*
X130971106Y-118445615D01*
X130975100Y-118486165D01*
X130975100Y-118486167D01*
X130987044Y-118607440D01*
X131024920Y-118732300D01*
X131034247Y-118763048D01*
X131110901Y-118906457D01*
X131137423Y-118938774D01*
X131214059Y-119032156D01*
X131245566Y-119058013D01*
X132300391Y-120112839D01*
X132326244Y-120144341D01*
X132369939Y-120180200D01*
X132451942Y-120247499D01*
X132563322Y-120307033D01*
X132595351Y-120324153D01*
X132750959Y-120371356D01*
X132855887Y-120381690D01*
X132970344Y-120458168D01*
X133155244Y-120534756D01*
X133351533Y-120573800D01*
X133551667Y-120573800D01*
X133747956Y-120534756D01*
X133932856Y-120458168D01*
X134099262Y-120346979D01*
X134240779Y-120205462D01*
X134351968Y-120039056D01*
X134428556Y-119854156D01*
X134467600Y-119657867D01*
X134467600Y-119457733D01*
X134428556Y-119261444D01*
X134351968Y-119076544D01*
X134240779Y-118910138D01*
X134099262Y-118768621D01*
X133932856Y-118657432D01*
X133747956Y-118580844D01*
X133551667Y-118541800D01*
X133351533Y-118541800D01*
X133155244Y-118580844D01*
X133118487Y-118596069D01*
X132626100Y-118103683D01*
X132626100Y-117992104D01*
X132700968Y-117880056D01*
X132777556Y-117695156D01*
X132816600Y-117498867D01*
X132816600Y-117298733D01*
X132777556Y-117102444D01*
X132700968Y-116917544D01*
X132589779Y-116751138D01*
X132448262Y-116609621D01*
X132281856Y-116498432D01*
X132096956Y-116421844D01*
X131900667Y-116382800D01*
X131700533Y-116382800D01*
X131504244Y-116421844D01*
X131319344Y-116498432D01*
X131152938Y-116609621D01*
X131011421Y-116751138D01*
X130900232Y-116917544D01*
X130823644Y-117102444D01*
X130784600Y-117298733D01*
X124078600Y-117298733D01*
X124078600Y-85209921D01*
X126719201Y-85209921D01*
X126719201Y-85630479D01*
X126801248Y-86042956D01*
X126962189Y-86431501D01*
X127195838Y-86781182D01*
X127493218Y-87078562D01*
X127842899Y-87312211D01*
X128231444Y-87473152D01*
X128643921Y-87555199D01*
X129064479Y-87555199D01*
X129476956Y-87473152D01*
X129865501Y-87312211D01*
X130215182Y-87078562D01*
X130512562Y-86781182D01*
X130746211Y-86431501D01*
X130907152Y-86042956D01*
X130989199Y-85630479D01*
X130989199Y-85209921D01*
X130907152Y-84797444D01*
X130746211Y-84408899D01*
X130512562Y-84059218D01*
X130215182Y-83761838D01*
X129865501Y-83528189D01*
X129476956Y-83367248D01*
X129064479Y-83285201D01*
X128643921Y-83285201D01*
X128231444Y-83367248D01*
X127842899Y-83528189D01*
X127493218Y-83761838D01*
X127195838Y-84059218D01*
X126962189Y-84408899D01*
X126801248Y-84797444D01*
X126719201Y-85209921D01*
X124078600Y-85209921D01*
X124078600Y-77141091D01*
X125583919Y-77141091D01*
X125681243Y-77415452D01*
X125830222Y-77665555D01*
X126025131Y-77881788D01*
X126258480Y-78055841D01*
X126521301Y-78181025D01*
X126668510Y-78225676D01*
X126898400Y-78104355D01*
X126898400Y-76911200D01*
X125704586Y-76911200D01*
X125583919Y-77141091D01*
X124078600Y-77141091D01*
X124078600Y-74601091D01*
X125583919Y-74601091D01*
X125681243Y-74875452D01*
X125830222Y-75125555D01*
X126025131Y-75341788D01*
X126256280Y-75514200D01*
X126025131Y-75686612D01*
X125830222Y-75902845D01*
X125681243Y-76152948D01*
X125583919Y-76427309D01*
X125704586Y-76657200D01*
X126898400Y-76657200D01*
X126898400Y-74371200D01*
X125704586Y-74371200D01*
X125583919Y-74601091D01*
X124078600Y-74601091D01*
X124078600Y-72061091D01*
X125583919Y-72061091D01*
X125681243Y-72335452D01*
X125830222Y-72585555D01*
X126025131Y-72801788D01*
X126256280Y-72974200D01*
X126025131Y-73146612D01*
X125830222Y-73362845D01*
X125681243Y-73612948D01*
X125583919Y-73887309D01*
X125704586Y-74117200D01*
X126898400Y-74117200D01*
X126898400Y-71831200D01*
X125704586Y-71831200D01*
X125583919Y-72061091D01*
X124078600Y-72061091D01*
X124078600Y-69521091D01*
X125583919Y-69521091D01*
X125681243Y-69795452D01*
X125830222Y-70045555D01*
X126025131Y-70261788D01*
X126256280Y-70434200D01*
X126025131Y-70606612D01*
X125830222Y-70822845D01*
X125681243Y-71072948D01*
X125583919Y-71347309D01*
X125704586Y-71577200D01*
X126898400Y-71577200D01*
X126898400Y-69291200D01*
X125704586Y-69291200D01*
X125583919Y-69521091D01*
X124078600Y-69521091D01*
X124078600Y-66981091D01*
X125583919Y-66981091D01*
X125681243Y-67255452D01*
X125830222Y-67505555D01*
X126025131Y-67721788D01*
X126256280Y-67894200D01*
X126025131Y-68066612D01*
X125830222Y-68282845D01*
X125681243Y-68532948D01*
X125583919Y-68807309D01*
X125704586Y-69037200D01*
X126898400Y-69037200D01*
X126898400Y-66751200D01*
X125704586Y-66751200D01*
X125583919Y-66981091D01*
X124078600Y-66981091D01*
X124078600Y-64441091D01*
X125583919Y-64441091D01*
X125681243Y-64715452D01*
X125830222Y-64965555D01*
X126025131Y-65181788D01*
X126256280Y-65354200D01*
X126025131Y-65526612D01*
X125830222Y-65742845D01*
X125681243Y-65992948D01*
X125583919Y-66267309D01*
X125704586Y-66497200D01*
X126898400Y-66497200D01*
X126898400Y-64211200D01*
X125704586Y-64211200D01*
X125583919Y-64441091D01*
X124078600Y-64441091D01*
X124078600Y-63727309D01*
X125583919Y-63727309D01*
X125704586Y-63957200D01*
X126898400Y-63957200D01*
X126898400Y-62764045D01*
X126668510Y-62642724D01*
X126521301Y-62687375D01*
X126258480Y-62812559D01*
X126025131Y-62986612D01*
X125830222Y-63202845D01*
X125681243Y-63452948D01*
X125583919Y-63727309D01*
X124078600Y-63727309D01*
X124078600Y-58461389D01*
X130641000Y-58461389D01*
X130641000Y-58734211D01*
X130694225Y-59001789D01*
X130798629Y-59253843D01*
X130950201Y-59480686D01*
X131143114Y-59673599D01*
X131369957Y-59825171D01*
X131622011Y-59929575D01*
X131889589Y-59982800D01*
X132162411Y-59982800D01*
X132429989Y-59929575D01*
X132682043Y-59825171D01*
X132908886Y-59673599D01*
X133101799Y-59480686D01*
X133253371Y-59253843D01*
X133357775Y-59001789D01*
X133411000Y-58734211D01*
X133411000Y-58461389D01*
X135521000Y-58461389D01*
X135521000Y-58734211D01*
X135574225Y-59001789D01*
X135678629Y-59253843D01*
X135830201Y-59480686D01*
X136023114Y-59673599D01*
X136249957Y-59825171D01*
X136502011Y-59929575D01*
X136769589Y-59982800D01*
X137042411Y-59982800D01*
X137309989Y-59929575D01*
X137562043Y-59825171D01*
X137788886Y-59673599D01*
X137981799Y-59480686D01*
X138133371Y-59253843D01*
X138237775Y-59001789D01*
X138291000Y-58734211D01*
X138291000Y-58461389D01*
X138250192Y-58256233D01*
X151248672Y-58256233D01*
X151311165Y-58492550D01*
X151553878Y-58605950D01*
X151814049Y-58669819D01*
X152081682Y-58681704D01*
X152346491Y-58641148D01*
X152598300Y-58549709D01*
X152705235Y-58492550D01*
X152767728Y-58256233D01*
X156248672Y-58256233D01*
X156311165Y-58492550D01*
X156553878Y-58605950D01*
X156814049Y-58669819D01*
X157081682Y-58681704D01*
X157346491Y-58641148D01*
X157598300Y-58549709D01*
X157705235Y-58492550D01*
X157767728Y-58256233D01*
X157008200Y-57496705D01*
X156248672Y-58256233D01*
X152767728Y-58256233D01*
X152008200Y-57496705D01*
X151248672Y-58256233D01*
X138250192Y-58256233D01*
X138237775Y-58193811D01*
X138133371Y-57941757D01*
X137981799Y-57714914D01*
X137788886Y-57522001D01*
X137592205Y-57390582D01*
X150643596Y-57390582D01*
X150684152Y-57655391D01*
X150775591Y-57907200D01*
X150832750Y-58014135D01*
X151069067Y-58076628D01*
X151828595Y-57317100D01*
X152187805Y-57317100D01*
X152947333Y-58076628D01*
X153183650Y-58014135D01*
X153297050Y-57771422D01*
X153360919Y-57511251D01*
X153366277Y-57390582D01*
X155643596Y-57390582D01*
X155684152Y-57655391D01*
X155775591Y-57907200D01*
X155832750Y-58014135D01*
X156069067Y-58076628D01*
X156828595Y-57317100D01*
X157187805Y-57317100D01*
X157947333Y-58076628D01*
X158183650Y-58014135D01*
X158297050Y-57771422D01*
X158360919Y-57511251D01*
X158372804Y-57243618D01*
X158332248Y-56978809D01*
X158240809Y-56727000D01*
X158183650Y-56620065D01*
X157947333Y-56557572D01*
X157187805Y-57317100D01*
X156828595Y-57317100D01*
X156069067Y-56557572D01*
X155832750Y-56620065D01*
X155719350Y-56862778D01*
X155655481Y-57122949D01*
X155643596Y-57390582D01*
X153366277Y-57390582D01*
X153372804Y-57243618D01*
X153332248Y-56978809D01*
X153240809Y-56727000D01*
X153183650Y-56620065D01*
X152947333Y-56557572D01*
X152187805Y-57317100D01*
X151828595Y-57317100D01*
X151069067Y-56557572D01*
X150832750Y-56620065D01*
X150719350Y-56862778D01*
X150655481Y-57122949D01*
X150643596Y-57390582D01*
X137592205Y-57390582D01*
X137562043Y-57370429D01*
X137309989Y-57266025D01*
X137042411Y-57212800D01*
X136769589Y-57212800D01*
X136502011Y-57266025D01*
X136249957Y-57370429D01*
X136023114Y-57522001D01*
X135830201Y-57714914D01*
X135678629Y-57941757D01*
X135574225Y-58193811D01*
X135521000Y-58461389D01*
X133411000Y-58461389D01*
X133357775Y-58193811D01*
X133253371Y-57941757D01*
X133101799Y-57714914D01*
X132908886Y-57522001D01*
X132682043Y-57370429D01*
X132429989Y-57266025D01*
X132162411Y-57212800D01*
X131889589Y-57212800D01*
X131622011Y-57266025D01*
X131369957Y-57370429D01*
X131143114Y-57522001D01*
X130950201Y-57714914D01*
X130798629Y-57941757D01*
X130694225Y-58193811D01*
X130641000Y-58461389D01*
X124078600Y-58461389D01*
X124078600Y-54464517D01*
X124223600Y-54464517D01*
X124223600Y-54806283D01*
X124290275Y-55141481D01*
X124421063Y-55457231D01*
X124610937Y-55741398D01*
X124852602Y-55983063D01*
X125136769Y-56172937D01*
X125452519Y-56303725D01*
X125787717Y-56370400D01*
X126129483Y-56370400D01*
X126464681Y-56303725D01*
X126780431Y-56172937D01*
X127064598Y-55983063D01*
X127306263Y-55741398D01*
X127496137Y-55457231D01*
X127626925Y-55141481D01*
X127693600Y-54806283D01*
X127693600Y-54744100D01*
X149773200Y-54744100D01*
X149773200Y-55094100D01*
X149821707Y-55332596D01*
X149915810Y-55557046D01*
X150051893Y-55758825D01*
X150224726Y-55930178D01*
X150427667Y-56064521D01*
X150652918Y-56156691D01*
X150690591Y-56160562D01*
X150881200Y-56035831D01*
X150881200Y-54744100D01*
X151135200Y-54744100D01*
X151135200Y-56035831D01*
X151309062Y-56149603D01*
X151248672Y-56377967D01*
X152008200Y-57137495D01*
X152767728Y-56377967D01*
X156248672Y-56377967D01*
X157008200Y-57137495D01*
X157767728Y-56377967D01*
X157707338Y-56149603D01*
X157881200Y-56035831D01*
X157881200Y-54744100D01*
X158135200Y-54744100D01*
X158135200Y-56035831D01*
X158325809Y-56160562D01*
X158363482Y-56156691D01*
X158588733Y-56064521D01*
X158791674Y-55930178D01*
X158964507Y-55758825D01*
X159100590Y-55557046D01*
X159194693Y-55332596D01*
X159243200Y-55094100D01*
X159243200Y-54744100D01*
X158135200Y-54744100D01*
X157881200Y-54744100D01*
X156773200Y-54744100D01*
X156773200Y-55094100D01*
X156821707Y-55332596D01*
X156915810Y-55557046D01*
X157051893Y-55758825D01*
X157224726Y-55930178D01*
X157320036Y-55993271D01*
X157202351Y-55964381D01*
X156934718Y-55952496D01*
X156669909Y-55993052D01*
X156418100Y-56084491D01*
X156311165Y-56141650D01*
X156248672Y-56377967D01*
X152767728Y-56377967D01*
X152705235Y-56141650D01*
X152462522Y-56028250D01*
X152202351Y-55964381D01*
X151934718Y-55952496D01*
X151704758Y-55987715D01*
X151791674Y-55930178D01*
X151964507Y-55758825D01*
X152100590Y-55557046D01*
X152194693Y-55332596D01*
X152243200Y-55094100D01*
X152243200Y-54744100D01*
X151135200Y-54744100D01*
X150881200Y-54744100D01*
X149773200Y-54744100D01*
X127693600Y-54744100D01*
X127693600Y-54464517D01*
X127629070Y-54140100D01*
X149773200Y-54140100D01*
X149773200Y-54490100D01*
X150881200Y-54490100D01*
X150881200Y-53198369D01*
X151135200Y-53198369D01*
X151135200Y-54490100D01*
X152243200Y-54490100D01*
X152243200Y-54140100D01*
X156773200Y-54140100D01*
X156773200Y-54490100D01*
X157881200Y-54490100D01*
X157881200Y-53198369D01*
X158135200Y-53198369D01*
X158135200Y-54490100D01*
X159243200Y-54490100D01*
X159243200Y-54140100D01*
X159194693Y-53901604D01*
X159100590Y-53677154D01*
X158964507Y-53475375D01*
X158791674Y-53304022D01*
X158588733Y-53169679D01*
X158363482Y-53077509D01*
X158325809Y-53073638D01*
X158135200Y-53198369D01*
X157881200Y-53198369D01*
X157690591Y-53073638D01*
X157652918Y-53077509D01*
X157427667Y-53169679D01*
X157224726Y-53304022D01*
X157051893Y-53475375D01*
X156915810Y-53677154D01*
X156821707Y-53901604D01*
X156773200Y-54140100D01*
X152243200Y-54140100D01*
X152194693Y-53901604D01*
X152100590Y-53677154D01*
X151964507Y-53475375D01*
X151791674Y-53304022D01*
X151588733Y-53169679D01*
X151363482Y-53077509D01*
X151325809Y-53073638D01*
X151135200Y-53198369D01*
X150881200Y-53198369D01*
X150690591Y-53073638D01*
X150652918Y-53077509D01*
X150427667Y-53169679D01*
X150224726Y-53304022D01*
X150051893Y-53475375D01*
X149915810Y-53677154D01*
X149821707Y-53901604D01*
X149773200Y-54140100D01*
X127629070Y-54140100D01*
X127626925Y-54129319D01*
X127496137Y-53813569D01*
X127306263Y-53529402D01*
X127064598Y-53287737D01*
X126780431Y-53097863D01*
X126464681Y-52967075D01*
X126129483Y-52900400D01*
X125787717Y-52900400D01*
X125452519Y-52967075D01*
X125136769Y-53097863D01*
X124852602Y-53287737D01*
X124610937Y-53529402D01*
X124421063Y-53813569D01*
X124290275Y-54129319D01*
X124223600Y-54464517D01*
X124078600Y-54464517D01*
X124078600Y-52755400D01*
X182702600Y-52755400D01*
X182702600Y-61849844D01*
X182702600Y-61849844D01*
G37*
X182702600Y-61849844D02*
X182679141Y-61821259D01*
X182647646Y-61795412D01*
X177844998Y-56992766D01*
X177819141Y-56961259D01*
X177693442Y-56858101D01*
X177550034Y-56781447D01*
X177394426Y-56734244D01*
X177273153Y-56722300D01*
X177273150Y-56722300D01*
X177232600Y-56718306D01*
X177192050Y-56722300D01*
X175946304Y-56722300D01*
X175834256Y-56647432D01*
X175649356Y-56570844D01*
X175453067Y-56531800D01*
X175252933Y-56531800D01*
X175056644Y-56570844D01*
X174871744Y-56647432D01*
X174705338Y-56758621D01*
X174563821Y-56900138D01*
X174452632Y-57066544D01*
X174376044Y-57251444D01*
X174337000Y-57447733D01*
X174337000Y-57647867D01*
X174376044Y-57844156D01*
X174452632Y-58029056D01*
X174563821Y-58195462D01*
X174705338Y-58336979D01*
X174871744Y-58448168D01*
X175056644Y-58524756D01*
X175252933Y-58563800D01*
X175453067Y-58563800D01*
X175649356Y-58524756D01*
X175834256Y-58448168D01*
X175946304Y-58373300D01*
X176890668Y-58373300D01*
X177839505Y-59322138D01*
X177800600Y-59318306D01*
X177760050Y-59322300D01*
X175954304Y-59322300D01*
X175842256Y-59247432D01*
X175657356Y-59170844D01*
X175461067Y-59131800D01*
X175260933Y-59131800D01*
X175064644Y-59170844D01*
X174879744Y-59247432D01*
X174713338Y-59358621D01*
X174571821Y-59500138D01*
X174460632Y-59666544D01*
X174384044Y-59851444D01*
X174345000Y-60047733D01*
X174345000Y-60247867D01*
X174384044Y-60444156D01*
X174460632Y-60629056D01*
X174571821Y-60795462D01*
X174713338Y-60936979D01*
X174879744Y-61048168D01*
X175064644Y-61124756D01*
X175260933Y-61163800D01*
X175461067Y-61163800D01*
X175657356Y-61124756D01*
X175842256Y-61048168D01*
X175954304Y-60973300D01*
X177458668Y-60973300D01*
X178232767Y-61747400D01*
X178207933Y-61747400D01*
X178011644Y-61786444D01*
X177826744Y-61863032D01*
X177714696Y-61937900D01*
X176259704Y-61937900D01*
X176147656Y-61863032D01*
X175962756Y-61786444D01*
X175766467Y-61747400D01*
X175566333Y-61747400D01*
X175370044Y-61786444D01*
X175185144Y-61863032D01*
X175018738Y-61974221D01*
X174877221Y-62115738D01*
X174766032Y-62282144D01*
X174689444Y-62467044D01*
X174650400Y-62663333D01*
X174650400Y-62863467D01*
X174689444Y-63059756D01*
X174766032Y-63244656D01*
X174877221Y-63411062D01*
X175018738Y-63552579D01*
X175149124Y-63639700D01*
X170029341Y-63639700D01*
X170054779Y-63614262D01*
X170165968Y-63447856D01*
X170242556Y-63262956D01*
X170281600Y-63066667D01*
X170281600Y-62866533D01*
X170242556Y-62670244D01*
X170165968Y-62485344D01*
X170054779Y-62318938D01*
X169913262Y-62177421D01*
X169746856Y-62066232D01*
X169561956Y-61989644D01*
X169429788Y-61963354D01*
X168846600Y-61380168D01*
X168846600Y-54898404D01*
X168921468Y-54786356D01*
X168998056Y-54601456D01*
X169025294Y-54464517D01*
X179087600Y-54464517D01*
X179087600Y-54806283D01*
X179154275Y-55141481D01*
X179285063Y-55457231D01*
X179474937Y-55741398D01*
X179716602Y-55983063D01*
X180000769Y-56172937D01*
X180316519Y-56303725D01*
X180651717Y-56370400D01*
X180993483Y-56370400D01*
X181328681Y-56303725D01*
X181644431Y-56172937D01*
X181928598Y-55983063D01*
X182170263Y-55741398D01*
X182360137Y-55457231D01*
X182490925Y-55141481D01*
X182557600Y-54806283D01*
X182557600Y-54464517D01*
X182490925Y-54129319D01*
X182360137Y-53813569D01*
X182170263Y-53529402D01*
X181928598Y-53287737D01*
X181644431Y-53097863D01*
X181328681Y-52967075D01*
X180993483Y-52900400D01*
X180651717Y-52900400D01*
X180316519Y-52967075D01*
X180000769Y-53097863D01*
X179716602Y-53287737D01*
X179474937Y-53529402D01*
X179285063Y-53813569D01*
X179154275Y-54129319D01*
X179087600Y-54464517D01*
X169025294Y-54464517D01*
X169037100Y-54405167D01*
X169037100Y-54205033D01*
X168998056Y-54008744D01*
X168921468Y-53823844D01*
X168810279Y-53657438D01*
X168668762Y-53515921D01*
X168502356Y-53404732D01*
X168317456Y-53328144D01*
X168121167Y-53289100D01*
X167921033Y-53289100D01*
X167724744Y-53328144D01*
X167539844Y-53404732D01*
X167373438Y-53515921D01*
X167231921Y-53657438D01*
X167120732Y-53823844D01*
X167044144Y-54008744D01*
X167005100Y-54205033D01*
X167005100Y-54405167D01*
X167044144Y-54601456D01*
X167120732Y-54786356D01*
X167195600Y-54898404D01*
X167195601Y-61681540D01*
X167191606Y-61722100D01*
X167207545Y-61883926D01*
X167254747Y-62039533D01*
X167331401Y-62182942D01*
X167392963Y-62257954D01*
X167434560Y-62308641D01*
X167466061Y-62334493D01*
X168262354Y-63130788D01*
X168288644Y-63262956D01*
X168365232Y-63447856D01*
X168476421Y-63614262D01*
X168501859Y-63639700D01*
X159498333Y-63639700D01*
X155536846Y-59678214D01*
X155510556Y-59546044D01*
X155433968Y-59361144D01*
X155322779Y-59194738D01*
X155181262Y-59053221D01*
X155014856Y-58942032D01*
X154829956Y-58865444D01*
X154633667Y-58826400D01*
X154433533Y-58826400D01*
X154237244Y-58865444D01*
X154052344Y-58942032D01*
X153885938Y-59053221D01*
X153744421Y-59194738D01*
X153633232Y-59361144D01*
X153556644Y-59546044D01*
X153517600Y-59742333D01*
X153517600Y-59888314D01*
X153414467Y-59867800D01*
X153214333Y-59867800D01*
X153018044Y-59906844D01*
X152833144Y-59983432D01*
X152666738Y-60094621D01*
X152525221Y-60236138D01*
X152414032Y-60402544D01*
X152337444Y-60587444D01*
X152298400Y-60783733D01*
X152298400Y-60983867D01*
X152337444Y-61180156D01*
X152414032Y-61365056D01*
X152525221Y-61531462D01*
X152666738Y-61672979D01*
X152833144Y-61784168D01*
X153018044Y-61860756D01*
X153150214Y-61887046D01*
X155173166Y-63909999D01*
X155159396Y-63919200D01*
X149564404Y-63919200D01*
X149452356Y-63844332D01*
X149267456Y-63767744D01*
X149071167Y-63728700D01*
X148871033Y-63728700D01*
X148674744Y-63767744D01*
X148489844Y-63844332D01*
X148323438Y-63955521D01*
X148181921Y-64097038D01*
X148070732Y-64263444D01*
X147994144Y-64448344D01*
X147955100Y-64644633D01*
X147955100Y-64844767D01*
X147994144Y-65041056D01*
X148070732Y-65225956D01*
X148181921Y-65392362D01*
X148323438Y-65533879D01*
X148489844Y-65645068D01*
X148674744Y-65721656D01*
X148871033Y-65760700D01*
X149071167Y-65760700D01*
X149267456Y-65721656D01*
X149452356Y-65645068D01*
X149564404Y-65570200D01*
X155159396Y-65570200D01*
X155271444Y-65645068D01*
X155456344Y-65721656D01*
X155652633Y-65760700D01*
X155852767Y-65760700D01*
X156049056Y-65721656D01*
X156233956Y-65645068D01*
X156400362Y-65533879D01*
X156541879Y-65392362D01*
X156587401Y-65324234D01*
X157816007Y-66552840D01*
X157841859Y-66584341D01*
X157890428Y-66624200D01*
X157967557Y-66687499D01*
X158064739Y-66739444D01*
X158110966Y-66764153D01*
X158266574Y-66811356D01*
X158387847Y-66823300D01*
X158387849Y-66823300D01*
X158428399Y-66827294D01*
X158459704Y-66824211D01*
X158305538Y-66927221D01*
X158265753Y-66967006D01*
X158245642Y-66950501D01*
X158102234Y-66873847D01*
X157946626Y-66826644D01*
X157825353Y-66814700D01*
X157825350Y-66814700D01*
X157784800Y-66810706D01*
X157744250Y-66814700D01*
X142147504Y-66814700D01*
X142035456Y-66739832D01*
X141850556Y-66663244D01*
X141654267Y-66624200D01*
X141454133Y-66624200D01*
X141257844Y-66663244D01*
X141072944Y-66739832D01*
X140906538Y-66851021D01*
X140765021Y-66992538D01*
X140653832Y-67158944D01*
X140577244Y-67343844D01*
X140538200Y-67540133D01*
X140538200Y-67551300D01*
X139351269Y-67551300D01*
X139310719Y-67547306D01*
X139270168Y-67551300D01*
X139270166Y-67551300D01*
X139148893Y-67563244D01*
X138993285Y-67610447D01*
X138849876Y-67687101D01*
X138755677Y-67764408D01*
X138755674Y-67764411D01*
X138724178Y-67790259D01*
X138698330Y-67821755D01*
X131550361Y-74969726D01*
X131518860Y-74995578D01*
X131493009Y-75027078D01*
X131415701Y-75121277D01*
X131339047Y-75264686D01*
X131291845Y-75420293D01*
X131279895Y-75541618D01*
X131276386Y-75543494D01*
X131050266Y-75729066D01*
X130864694Y-75955186D01*
X130835400Y-76009991D01*
X130806106Y-75955186D01*
X130620534Y-75729066D01*
X130590713Y-75704593D01*
X130659580Y-75683702D01*
X130769894Y-75624737D01*
X130866585Y-75545385D01*
X130945937Y-75448694D01*
X131004902Y-75338380D01*
X131041212Y-75218682D01*
X131053472Y-75094200D01*
X131053472Y-73394200D01*
X131041212Y-73269718D01*
X131004902Y-73150020D01*
X130945937Y-73039706D01*
X130892178Y-72974200D01*
X130945937Y-72908694D01*
X131004902Y-72798380D01*
X131041212Y-72678682D01*
X131053472Y-72554200D01*
X131053472Y-70854200D01*
X131041212Y-70729718D01*
X131004902Y-70610020D01*
X130945937Y-70499706D01*
X130892178Y-70434200D01*
X130945937Y-70368694D01*
X131004902Y-70258380D01*
X131041212Y-70138682D01*
X131053472Y-70014200D01*
X131053472Y-68314200D01*
X131041212Y-68189718D01*
X131004902Y-68070020D01*
X130945937Y-67959706D01*
X130892178Y-67894200D01*
X130945937Y-67828694D01*
X131004902Y-67718380D01*
X131041212Y-67598682D01*
X131053472Y-67474200D01*
X131053472Y-65774200D01*
X131041212Y-65649718D01*
X131004902Y-65530020D01*
X130945937Y-65419706D01*
X130892178Y-65354200D01*
X130945937Y-65288694D01*
X131004902Y-65178380D01*
X131041212Y-65058682D01*
X131053472Y-64934200D01*
X131053472Y-63234200D01*
X131041212Y-63109718D01*
X131004902Y-62990020D01*
X130945937Y-62879706D01*
X130866585Y-62783015D01*
X130769894Y-62703663D01*
X130659580Y-62644698D01*
X130539882Y-62608388D01*
X130415400Y-62596128D01*
X128715400Y-62596128D01*
X128590918Y-62608388D01*
X128471220Y-62644698D01*
X128360906Y-62703663D01*
X128264215Y-62783015D01*
X128184863Y-62879706D01*
X128125898Y-62990020D01*
X128101434Y-63070666D01*
X128025669Y-62986612D01*
X127792320Y-62812559D01*
X127529499Y-62687375D01*
X127382290Y-62642724D01*
X127152400Y-62764045D01*
X127152400Y-63957200D01*
X127172400Y-63957200D01*
X127172400Y-64211200D01*
X127152400Y-64211200D01*
X127152400Y-66497200D01*
X127172400Y-66497200D01*
X127172400Y-66751200D01*
X127152400Y-66751200D01*
X127152400Y-69037200D01*
X127172400Y-69037200D01*
X127172400Y-69291200D01*
X127152400Y-69291200D01*
X127152400Y-71577200D01*
X127172400Y-71577200D01*
X127172400Y-71831200D01*
X127152400Y-71831200D01*
X127152400Y-74117200D01*
X127172400Y-74117200D01*
X127172400Y-74371200D01*
X127152400Y-74371200D01*
X127152400Y-76657200D01*
X127172400Y-76657200D01*
X127172400Y-76911200D01*
X127152400Y-76911200D01*
X127152400Y-78104355D01*
X127382290Y-78225676D01*
X127529499Y-78181025D01*
X127792320Y-78055841D01*
X128025669Y-77881788D01*
X128220578Y-77665555D01*
X128290199Y-77548677D01*
X128324694Y-77613214D01*
X128510266Y-77839334D01*
X128736386Y-78024906D01*
X128994366Y-78162799D01*
X129274289Y-78247713D01*
X129492450Y-78269200D01*
X129638350Y-78269200D01*
X129856511Y-78247713D01*
X130136434Y-78162799D01*
X130394414Y-78024906D01*
X130620534Y-77839334D01*
X130806106Y-77613214D01*
X130835400Y-77558409D01*
X130864694Y-77613214D01*
X131050266Y-77839334D01*
X131276386Y-78024906D01*
X131534366Y-78162799D01*
X131814289Y-78247713D01*
X132032450Y-78269200D01*
X132178350Y-78269200D01*
X132396511Y-78247713D01*
X132676434Y-78162799D01*
X132934414Y-78024906D01*
X133160534Y-77839334D01*
X133185007Y-77809513D01*
X133205898Y-77878380D01*
X133264863Y-77988694D01*
X133344215Y-78085385D01*
X133440906Y-78164737D01*
X133551220Y-78223702D01*
X133670918Y-78260012D01*
X133795400Y-78272272D01*
X135495400Y-78272272D01*
X135619882Y-78260012D01*
X135739580Y-78223702D01*
X135849894Y-78164737D01*
X135946585Y-78085385D01*
X136025937Y-77988694D01*
X136084902Y-77878380D01*
X136121212Y-77758682D01*
X136133472Y-77634200D01*
X136133472Y-75934200D01*
X136121212Y-75809718D01*
X136084902Y-75690020D01*
X136025937Y-75579706D01*
X135946585Y-75483015D01*
X135911671Y-75454362D01*
X140562696Y-70803337D01*
X140627138Y-70867779D01*
X140793544Y-70978968D01*
X140978444Y-71055556D01*
X141174733Y-71094600D01*
X141374867Y-71094600D01*
X141571156Y-71055556D01*
X141756056Y-70978968D01*
X141868104Y-70904100D01*
X148298390Y-70904100D01*
X148293644Y-70905044D01*
X148108744Y-70981632D01*
X147942338Y-71092821D01*
X147800821Y-71234338D01*
X147689632Y-71400744D01*
X147613044Y-71585644D01*
X147574000Y-71781933D01*
X147574000Y-71982067D01*
X147613044Y-72178356D01*
X147689632Y-72363256D01*
X147800821Y-72529662D01*
X147942338Y-72671179D01*
X148108744Y-72782368D01*
X148293644Y-72858956D01*
X148489933Y-72898000D01*
X148690067Y-72898000D01*
X148886356Y-72858956D01*
X149071256Y-72782368D01*
X149185713Y-72705890D01*
X149290641Y-72695556D01*
X149446249Y-72648353D01*
X149589657Y-72571699D01*
X149715356Y-72468541D01*
X149741213Y-72437034D01*
X151197949Y-70980300D01*
X154474400Y-70980300D01*
X154518759Y-70993756D01*
X154532461Y-70995105D01*
X152362868Y-73164700D01*
X140217104Y-73164700D01*
X140105056Y-73089832D01*
X139920156Y-73013244D01*
X139723867Y-72974200D01*
X139523733Y-72974200D01*
X139327444Y-73013244D01*
X139142544Y-73089832D01*
X138976138Y-73201021D01*
X138834621Y-73342538D01*
X138723432Y-73508944D01*
X138646844Y-73693844D01*
X138607800Y-73890133D01*
X138607800Y-74090267D01*
X138646844Y-74286556D01*
X138723432Y-74471456D01*
X138834621Y-74637862D01*
X138976138Y-74779379D01*
X139142544Y-74890568D01*
X139327444Y-74967156D01*
X139523733Y-75006200D01*
X139723867Y-75006200D01*
X139920156Y-74967156D01*
X140105056Y-74890568D01*
X140217104Y-74815700D01*
X142938736Y-74815700D01*
X142925800Y-74880733D01*
X142925800Y-75080867D01*
X142964844Y-75277156D01*
X143041432Y-75462056D01*
X143152621Y-75628462D01*
X143294138Y-75769979D01*
X143460544Y-75881168D01*
X143645444Y-75957756D01*
X143780455Y-75984611D01*
X143861957Y-76051498D01*
X144005365Y-76128152D01*
X144160973Y-76175355D01*
X144282246Y-76187299D01*
X144282248Y-76187299D01*
X144322799Y-76191293D01*
X144363349Y-76187299D01*
X147257467Y-76187299D01*
X153530300Y-82460134D01*
X153530301Y-86878240D01*
X153526306Y-86918800D01*
X153542245Y-87080626D01*
X153589447Y-87236233D01*
X153666101Y-87379642D01*
X153727663Y-87454654D01*
X153769260Y-87505341D01*
X153800761Y-87531193D01*
X160715399Y-94445832D01*
X160671296Y-94475300D01*
X155681303Y-94475300D01*
X155693926Y-94464941D01*
X155719783Y-94433434D01*
X156776087Y-93377131D01*
X156812844Y-93392356D01*
X157009133Y-93431400D01*
X157209267Y-93431400D01*
X157405556Y-93392356D01*
X157590456Y-93315768D01*
X157756862Y-93204579D01*
X157898379Y-93063062D01*
X158009568Y-92896656D01*
X158086156Y-92711756D01*
X158125200Y-92515467D01*
X158125200Y-92315333D01*
X158086156Y-92119044D01*
X158009568Y-91934144D01*
X157898379Y-91767738D01*
X157756862Y-91626221D01*
X157590456Y-91515032D01*
X157405556Y-91438444D01*
X157209267Y-91399400D01*
X157009133Y-91399400D01*
X156812844Y-91438444D01*
X156627944Y-91515032D01*
X156513487Y-91591510D01*
X156408559Y-91601844D01*
X156252951Y-91649047D01*
X156173229Y-91691660D01*
X156109541Y-91725702D01*
X156053418Y-91771761D01*
X155983844Y-91828859D01*
X155957991Y-91860361D01*
X154765453Y-93052900D01*
X150179950Y-93052900D01*
X150139399Y-93048906D01*
X150098849Y-93052900D01*
X150098847Y-93052900D01*
X149977574Y-93064844D01*
X149844871Y-93105099D01*
X149821966Y-93112047D01*
X149678557Y-93188701D01*
X149629507Y-93228956D01*
X149552859Y-93291859D01*
X149527008Y-93323359D01*
X148276265Y-94574103D01*
X148244758Y-94599960D01*
X148201117Y-94653138D01*
X148141600Y-94725659D01*
X148091417Y-94819544D01*
X148064946Y-94869068D01*
X148017743Y-95024676D01*
X148006486Y-95138974D01*
X148001805Y-95186501D01*
X148005799Y-95227052D01*
X148005800Y-99137166D01*
X146409366Y-100733602D01*
X146377859Y-100759459D01*
X146308614Y-100843835D01*
X146274701Y-100885158D01*
X146224524Y-100979032D01*
X146198047Y-101028567D01*
X146150844Y-101184175D01*
X146143365Y-101260113D01*
X146134906Y-101346000D01*
X146138900Y-101386551D01*
X146138900Y-102172468D01*
X144300198Y-100333766D01*
X144274341Y-100302259D01*
X144148642Y-100199101D01*
X144005234Y-100122447D01*
X143849626Y-100075244D01*
X143728353Y-100063300D01*
X143728350Y-100063300D01*
X143687800Y-100059306D01*
X143647250Y-100063300D01*
X130221288Y-100063300D01*
X128977903Y-98819916D01*
X129098609Y-98739263D01*
X129242312Y-98595560D01*
X129447445Y-98595560D01*
X129560464Y-98874584D01*
X129874449Y-99029756D01*
X130212673Y-99120691D01*
X130562138Y-99143894D01*
X130909416Y-99098475D01*
X131241160Y-98986177D01*
X131449936Y-98874584D01*
X131562955Y-98595560D01*
X130505200Y-97537805D01*
X129447445Y-98595560D01*
X129242312Y-98595560D01*
X129346263Y-98491609D01*
X129540843Y-98200399D01*
X129581464Y-98102331D01*
X130325595Y-97358200D01*
X130684805Y-97358200D01*
X131428936Y-98102331D01*
X131469557Y-98200399D01*
X131664137Y-98491609D01*
X131911791Y-98739263D01*
X132203001Y-98933843D01*
X132526577Y-99067872D01*
X132870082Y-99136200D01*
X133220318Y-99136200D01*
X133563823Y-99067872D01*
X133887399Y-98933843D01*
X134178609Y-98739263D01*
X134315200Y-98602672D01*
X134451791Y-98739263D01*
X134743001Y-98933843D01*
X135066577Y-99067872D01*
X135410082Y-99136200D01*
X135760318Y-99136200D01*
X136103823Y-99067872D01*
X136427399Y-98933843D01*
X136718609Y-98739263D01*
X136855200Y-98602672D01*
X136991791Y-98739263D01*
X137283001Y-98933843D01*
X137606577Y-99067872D01*
X137950082Y-99136200D01*
X138300318Y-99136200D01*
X138643823Y-99067872D01*
X138967399Y-98933843D01*
X139258609Y-98739263D01*
X139395200Y-98602672D01*
X139531791Y-98739263D01*
X139823001Y-98933843D01*
X140146577Y-99067872D01*
X140490082Y-99136200D01*
X140840318Y-99136200D01*
X141183823Y-99067872D01*
X141507399Y-98933843D01*
X141798609Y-98739263D01*
X141935200Y-98602672D01*
X142071791Y-98739263D01*
X142363001Y-98933843D01*
X142686577Y-99067872D01*
X143030082Y-99136200D01*
X143380318Y-99136200D01*
X143723823Y-99067872D01*
X144047399Y-98933843D01*
X144338609Y-98739263D01*
X144475200Y-98602672D01*
X144611791Y-98739263D01*
X144903001Y-98933843D01*
X145226577Y-99067872D01*
X145570082Y-99136200D01*
X145920318Y-99136200D01*
X146263823Y-99067872D01*
X146587399Y-98933843D01*
X146878609Y-98739263D01*
X147126263Y-98491609D01*
X147320843Y-98200399D01*
X147454872Y-97876823D01*
X147523200Y-97533318D01*
X147523200Y-97183082D01*
X147454872Y-96839577D01*
X147320843Y-96516001D01*
X147126263Y-96224791D01*
X146878609Y-95977137D01*
X146587399Y-95782557D01*
X146263823Y-95648528D01*
X145920318Y-95580200D01*
X145570082Y-95580200D01*
X145226577Y-95648528D01*
X144903001Y-95782557D01*
X144611791Y-95977137D01*
X144475200Y-96113728D01*
X144338609Y-95977137D01*
X144047399Y-95782557D01*
X143723823Y-95648528D01*
X143380318Y-95580200D01*
X143030082Y-95580200D01*
X142686577Y-95648528D01*
X142363001Y-95782557D01*
X142071791Y-95977137D01*
X141935200Y-96113728D01*
X141798609Y-95977137D01*
X141507399Y-95782557D01*
X141183823Y-95648528D01*
X140840318Y-95580200D01*
X140490082Y-95580200D01*
X140146577Y-95648528D01*
X139823001Y-95782557D01*
X139531791Y-95977137D01*
X139395200Y-96113728D01*
X139258609Y-95977137D01*
X138967399Y-95782557D01*
X138643823Y-95648528D01*
X138300318Y-95580200D01*
X137950082Y-95580200D01*
X137606577Y-95648528D01*
X137283001Y-95782557D01*
X136991791Y-95977137D01*
X136855200Y-96113728D01*
X136718609Y-95977137D01*
X136427399Y-95782557D01*
X136103823Y-95648528D01*
X135760318Y-95580200D01*
X135410082Y-95580200D01*
X135066577Y-95648528D01*
X134743001Y-95782557D01*
X134451791Y-95977137D01*
X134315200Y-96113728D01*
X134178609Y-95977137D01*
X133887399Y-95782557D01*
X133870700Y-95775640D01*
X133870700Y-89798104D01*
X133945568Y-89686056D01*
X134022156Y-89501156D01*
X134061200Y-89304867D01*
X134061200Y-89104733D01*
X134022156Y-88908444D01*
X133945568Y-88723544D01*
X133834379Y-88557138D01*
X133692862Y-88415621D01*
X133526456Y-88304432D01*
X133341556Y-88227844D01*
X133145267Y-88188800D01*
X132945133Y-88188800D01*
X132748844Y-88227844D01*
X132563944Y-88304432D01*
X132397538Y-88415621D01*
X132256021Y-88557138D01*
X132144832Y-88723544D01*
X132068244Y-88908444D01*
X132029200Y-89104733D01*
X132029200Y-89304867D01*
X132068244Y-89501156D01*
X132144832Y-89686056D01*
X132219700Y-89798104D01*
X132219701Y-95775640D01*
X132203001Y-95782557D01*
X131911791Y-95977137D01*
X131664137Y-96224791D01*
X131469557Y-96516001D01*
X131428936Y-96614069D01*
X130684805Y-97358200D01*
X130325595Y-97358200D01*
X129581464Y-96614069D01*
X129540843Y-96516001D01*
X129346263Y-96224791D01*
X129242312Y-96120840D01*
X129447445Y-96120840D01*
X130505200Y-97178595D01*
X131562955Y-96120840D01*
X131449936Y-95841816D01*
X131135951Y-95686644D01*
X130797727Y-95595709D01*
X130448262Y-95572506D01*
X130100984Y-95617925D01*
X129769240Y-95730223D01*
X129560464Y-95841816D01*
X129447445Y-96120840D01*
X129242312Y-96120840D01*
X129098609Y-95977137D01*
X128807399Y-95782557D01*
X128483823Y-95648528D01*
X128140318Y-95580200D01*
X127790082Y-95580200D01*
X127446577Y-95648528D01*
X127123001Y-95782557D01*
X126831791Y-95977137D01*
X126584137Y-96224791D01*
X126389557Y-96516001D01*
X126352300Y-96605948D01*
X126352300Y-94169532D01*
X135311911Y-85209921D01*
X142721201Y-85209921D01*
X142721201Y-85630479D01*
X142803248Y-86042956D01*
X142964189Y-86431501D01*
X143197838Y-86781182D01*
X143495218Y-87078562D01*
X143844899Y-87312211D01*
X144233444Y-87473152D01*
X144645921Y-87555199D01*
X145066479Y-87555199D01*
X145478956Y-87473152D01*
X145867501Y-87312211D01*
X146217182Y-87078562D01*
X146514562Y-86781182D01*
X146748211Y-86431501D01*
X146909152Y-86042956D01*
X146991199Y-85630479D01*
X146991199Y-85209921D01*
X146909152Y-84797444D01*
X146748211Y-84408899D01*
X146514562Y-84059218D01*
X146217182Y-83761838D01*
X145867501Y-83528189D01*
X145478956Y-83367248D01*
X145066479Y-83285201D01*
X144645921Y-83285201D01*
X144233444Y-83367248D01*
X143844899Y-83528189D01*
X143495218Y-83761838D01*
X143197838Y-84059218D01*
X142964189Y-84408899D01*
X142803248Y-84797444D01*
X142721201Y-85209921D01*
X135311911Y-85209921D01*
X137892840Y-82628993D01*
X137924341Y-82603141D01*
X138027499Y-82477442D01*
X138104153Y-82334034D01*
X138151356Y-82178426D01*
X138163300Y-82057153D01*
X138163300Y-82057144D01*
X138167293Y-82016601D01*
X138163300Y-81976058D01*
X138163300Y-81205091D01*
X140925519Y-81205091D01*
X141022843Y-81479452D01*
X141171822Y-81729555D01*
X141366731Y-81945788D01*
X141600080Y-82119841D01*
X141862901Y-82245025D01*
X142010110Y-82289676D01*
X142240000Y-82168355D01*
X142240000Y-80975200D01*
X141046186Y-80975200D01*
X140925519Y-81205091D01*
X138163300Y-81205091D01*
X138163300Y-78665091D01*
X140925519Y-78665091D01*
X141022843Y-78939452D01*
X141171822Y-79189555D01*
X141366731Y-79405788D01*
X141597880Y-79578200D01*
X141366731Y-79750612D01*
X141171822Y-79966845D01*
X141022843Y-80216948D01*
X140925519Y-80491309D01*
X141046186Y-80721200D01*
X142240000Y-80721200D01*
X142240000Y-78435200D01*
X141046186Y-78435200D01*
X140925519Y-78665091D01*
X138163300Y-78665091D01*
X138163300Y-77951309D01*
X140925519Y-77951309D01*
X141046186Y-78181200D01*
X142240000Y-78181200D01*
X142240000Y-76988045D01*
X142494000Y-76988045D01*
X142494000Y-78181200D01*
X142514000Y-78181200D01*
X142514000Y-78435200D01*
X142494000Y-78435200D01*
X142494000Y-80721200D01*
X142514000Y-80721200D01*
X142514000Y-80975200D01*
X142494000Y-80975200D01*
X142494000Y-82168355D01*
X142723890Y-82289676D01*
X142871099Y-82245025D01*
X143133920Y-82119841D01*
X143367269Y-81945788D01*
X143443034Y-81861734D01*
X143467498Y-81942380D01*
X143526463Y-82052694D01*
X143605815Y-82149385D01*
X143702506Y-82228737D01*
X143812820Y-82287702D01*
X143932518Y-82324012D01*
X144057000Y-82336272D01*
X145757000Y-82336272D01*
X145881482Y-82324012D01*
X146001180Y-82287702D01*
X146111494Y-82228737D01*
X146208185Y-82149385D01*
X146287537Y-82052694D01*
X146346502Y-81942380D01*
X146382812Y-81822682D01*
X146395072Y-81698200D01*
X146395072Y-79998200D01*
X146382812Y-79873718D01*
X146346502Y-79754020D01*
X146287537Y-79643706D01*
X146233778Y-79578200D01*
X146287537Y-79512694D01*
X146346502Y-79402380D01*
X146382812Y-79282682D01*
X146395072Y-79158200D01*
X146395072Y-77458200D01*
X146382812Y-77333718D01*
X146346502Y-77214020D01*
X146287537Y-77103706D01*
X146208185Y-77007015D01*
X146111494Y-76927663D01*
X146001180Y-76868698D01*
X145881482Y-76832388D01*
X145757000Y-76820128D01*
X144057000Y-76820128D01*
X143932518Y-76832388D01*
X143812820Y-76868698D01*
X143702506Y-76927663D01*
X143605815Y-77007015D01*
X143526463Y-77103706D01*
X143467498Y-77214020D01*
X143443034Y-77294666D01*
X143367269Y-77210612D01*
X143133920Y-77036559D01*
X142871099Y-76911375D01*
X142723890Y-76866724D01*
X142494000Y-76988045D01*
X142240000Y-76988045D01*
X142010110Y-76866724D01*
X141862901Y-76911375D01*
X141600080Y-77036559D01*
X141366731Y-77210612D01*
X141171822Y-77426845D01*
X141022843Y-77676948D01*
X140925519Y-77951309D01*
X138163300Y-77951309D01*
X138163300Y-76412304D01*
X138238168Y-76300256D01*
X138314756Y-76115356D01*
X138353800Y-75919067D01*
X138353800Y-75718933D01*
X138314756Y-75522644D01*
X138238168Y-75337744D01*
X138126979Y-75171338D01*
X137985462Y-75029821D01*
X137819056Y-74918632D01*
X137634156Y-74842044D01*
X137437867Y-74803000D01*
X137237733Y-74803000D01*
X137041444Y-74842044D01*
X136856544Y-74918632D01*
X136690138Y-75029821D01*
X136548621Y-75171338D01*
X136437432Y-75337744D01*
X136360844Y-75522644D01*
X136321800Y-75718933D01*
X136321800Y-75919067D01*
X136360844Y-76115356D01*
X136437432Y-76300256D01*
X136512300Y-76412304D01*
X136512301Y-79124683D01*
X136501379Y-79108338D01*
X136359862Y-78966821D01*
X136193456Y-78855632D01*
X136008556Y-78779044D01*
X135812267Y-78740000D01*
X135612133Y-78740000D01*
X135415844Y-78779044D01*
X135230944Y-78855632D01*
X135118896Y-78930500D01*
X131924310Y-78930500D01*
X131824656Y-78863913D01*
X131639756Y-78787325D01*
X131443467Y-78748281D01*
X131243333Y-78748281D01*
X131047044Y-78787325D01*
X130862144Y-78863913D01*
X130695738Y-78975102D01*
X130554221Y-79116619D01*
X130443032Y-79283025D01*
X130366444Y-79467925D01*
X130327400Y-79664214D01*
X130327400Y-79864348D01*
X130366444Y-80060637D01*
X130443032Y-80245537D01*
X130554221Y-80411943D01*
X130695738Y-80553460D01*
X130862144Y-80664649D01*
X131047044Y-80741237D01*
X131243333Y-80780281D01*
X131443467Y-80780281D01*
X131639756Y-80741237D01*
X131824656Y-80664649D01*
X131949097Y-80581500D01*
X135118896Y-80581500D01*
X135230944Y-80656368D01*
X135415844Y-80732956D01*
X135612133Y-80772000D01*
X135812267Y-80772000D01*
X136008556Y-80732956D01*
X136193456Y-80656368D01*
X136359862Y-80545179D01*
X136501379Y-80403662D01*
X136512301Y-80387316D01*
X136512301Y-81674666D01*
X124971766Y-93215202D01*
X124940259Y-93241059D01*
X124878948Y-93315768D01*
X124837101Y-93366758D01*
X124823419Y-93392356D01*
X124760447Y-93510167D01*
X124713244Y-93665775D01*
X124708241Y-93716574D01*
X124697306Y-93827600D01*
X124701300Y-93868150D01*
X124701301Y-104404240D01*
X124697306Y-104444800D01*
X124713245Y-104606626D01*
X124760447Y-104762233D01*
X124837101Y-104905642D01*
X124862908Y-104937087D01*
X124940260Y-105031341D01*
X124971761Y-105057193D01*
X127759211Y-107844645D01*
X127785059Y-107876141D01*
X127816555Y-107901989D01*
X127816558Y-107901992D01*
X127910757Y-107979299D01*
X127942839Y-107996447D01*
X128054166Y-108055953D01*
X128209774Y-108103156D01*
X128331047Y-108115100D01*
X128331049Y-108115100D01*
X128371600Y-108119094D01*
X128412150Y-108115100D01*
X132502696Y-108115100D01*
X132614744Y-108189968D01*
X132799644Y-108266556D01*
X132995933Y-108305600D01*
X133196067Y-108305600D01*
X133392356Y-108266556D01*
X133577256Y-108189968D01*
X133743662Y-108078779D01*
X133885179Y-107937262D01*
X133996368Y-107770856D01*
X134072956Y-107585956D01*
X134112000Y-107389667D01*
X134112000Y-107189533D01*
X134072956Y-106993244D01*
X133996368Y-106808344D01*
X133962390Y-106757491D01*
X165131719Y-106757491D01*
X165229043Y-107031852D01*
X165378022Y-107281955D01*
X165572931Y-107498188D01*
X165806280Y-107672241D01*
X166069101Y-107797425D01*
X166216310Y-107842076D01*
X166446200Y-107720755D01*
X166446200Y-106527600D01*
X165252386Y-106527600D01*
X165131719Y-106757491D01*
X133962390Y-106757491D01*
X133885179Y-106641938D01*
X133743662Y-106500421D01*
X133577256Y-106389232D01*
X133392356Y-106312644D01*
X133196067Y-106273600D01*
X132995933Y-106273600D01*
X132799644Y-106312644D01*
X132614744Y-106389232D01*
X132502696Y-106464100D01*
X128713534Y-106464100D01*
X128293143Y-106043709D01*
X165131719Y-106043709D01*
X165252386Y-106273600D01*
X166446200Y-106273600D01*
X166446200Y-105080445D01*
X166216310Y-104959124D01*
X166069101Y-105003775D01*
X165806280Y-105128959D01*
X165572931Y-105303012D01*
X165378022Y-105519245D01*
X165229043Y-105769348D01*
X165131719Y-106043709D01*
X128293143Y-106043709D01*
X126352300Y-104102868D01*
X126352300Y-98110452D01*
X126389557Y-98200399D01*
X126584137Y-98491609D01*
X126831791Y-98739263D01*
X127123001Y-98933843D01*
X127139069Y-98940499D01*
X127135706Y-98974646D01*
X127151645Y-99136472D01*
X127198847Y-99292079D01*
X127275501Y-99435488D01*
X127311294Y-99479101D01*
X127378660Y-99561187D01*
X127410161Y-99587039D01*
X129083141Y-101260021D01*
X128876918Y-101219000D01*
X128526682Y-101219000D01*
X128183177Y-101287328D01*
X127859601Y-101421357D01*
X127568391Y-101615937D01*
X127320737Y-101863591D01*
X127126157Y-102154801D01*
X126992128Y-102478377D01*
X126923800Y-102821882D01*
X126923800Y-103172118D01*
X126992128Y-103515623D01*
X127126157Y-103839199D01*
X127320737Y-104130409D01*
X127568391Y-104378063D01*
X127859601Y-104572643D01*
X128183177Y-104706672D01*
X128526682Y-104775000D01*
X128876918Y-104775000D01*
X129220423Y-104706672D01*
X129543999Y-104572643D01*
X129835209Y-104378063D01*
X130082863Y-104130409D01*
X130277443Y-103839199D01*
X130411472Y-103515623D01*
X130479800Y-103172118D01*
X130479800Y-102821882D01*
X130411472Y-102478377D01*
X130277443Y-102154801D01*
X130082863Y-101863591D01*
X129933572Y-101714300D01*
X143345868Y-101714300D01*
X145961154Y-104329587D01*
X145987444Y-104461756D01*
X146064032Y-104646656D01*
X146175221Y-104813062D01*
X146316738Y-104954579D01*
X146483144Y-105065768D01*
X146668044Y-105142356D01*
X146864333Y-105181400D01*
X147064467Y-105181400D01*
X147260756Y-105142356D01*
X147445656Y-105065768D01*
X147612062Y-104954579D01*
X147753579Y-104813062D01*
X147864768Y-104646656D01*
X147941356Y-104461756D01*
X147949837Y-104419120D01*
X148179601Y-104572643D01*
X148503177Y-104706672D01*
X148846682Y-104775000D01*
X149196918Y-104775000D01*
X149540423Y-104706672D01*
X149863999Y-104572643D01*
X150155209Y-104378063D01*
X150402863Y-104130409D01*
X150597443Y-103839199D01*
X150731472Y-103515623D01*
X150799800Y-103172118D01*
X150799800Y-102821882D01*
X150731472Y-102478377D01*
X150597443Y-102154801D01*
X150402863Y-101863591D01*
X150155209Y-101615937D01*
X149863999Y-101421357D01*
X149540423Y-101287328D01*
X149196918Y-101219000D01*
X148846682Y-101219000D01*
X148503177Y-101287328D01*
X148179601Y-101421357D01*
X147888391Y-101615937D01*
X147789900Y-101714428D01*
X147789900Y-101687932D01*
X149386344Y-100091490D01*
X149417840Y-100065642D01*
X149443688Y-100034146D01*
X149443691Y-100034143D01*
X149520998Y-99939944D01*
X149597652Y-99796535D01*
X149600180Y-99788202D01*
X149644855Y-99640927D01*
X149656799Y-99519654D01*
X149656799Y-99519652D01*
X149660793Y-99479101D01*
X149656799Y-99438551D01*
X149656799Y-97357895D01*
X149851556Y-97319156D01*
X150036456Y-97242568D01*
X150148504Y-97167700D01*
X158436096Y-97167700D01*
X158548144Y-97242568D01*
X158733044Y-97319156D01*
X158929333Y-97358200D01*
X159129467Y-97358200D01*
X159325756Y-97319156D01*
X159510656Y-97242568D01*
X159677062Y-97131379D01*
X159818579Y-96989862D01*
X159929768Y-96823456D01*
X160006356Y-96638556D01*
X160045400Y-96442267D01*
X160045400Y-96242133D01*
X160022360Y-96126300D01*
X160671296Y-96126300D01*
X160783344Y-96201168D01*
X160968244Y-96277756D01*
X161164533Y-96316800D01*
X161364667Y-96316800D01*
X161560956Y-96277756D01*
X161745856Y-96201168D01*
X161912262Y-96089979D01*
X162053779Y-95948462D01*
X162119568Y-95850001D01*
X162852100Y-96582533D01*
X162852101Y-101286095D01*
X162777232Y-101398144D01*
X162700644Y-101583044D01*
X162661600Y-101779333D01*
X162661600Y-101979467D01*
X162700644Y-102175756D01*
X162777232Y-102360656D01*
X162871475Y-102501700D01*
X158505104Y-102501700D01*
X158393056Y-102426832D01*
X158208156Y-102350244D01*
X158011867Y-102311200D01*
X157811733Y-102311200D01*
X157615444Y-102350244D01*
X157430544Y-102426832D01*
X157264138Y-102538021D01*
X157122621Y-102679538D01*
X157011432Y-102845944D01*
X156934844Y-103030844D01*
X156895800Y-103227133D01*
X156895800Y-103427267D01*
X156934844Y-103623556D01*
X157011432Y-103808456D01*
X157122621Y-103974862D01*
X157264138Y-104116379D01*
X157430544Y-104227568D01*
X157615444Y-104304156D01*
X157811733Y-104343200D01*
X158011867Y-104343200D01*
X158208156Y-104304156D01*
X158393056Y-104227568D01*
X158505104Y-104152700D01*
X173212850Y-104152700D01*
X173253400Y-104156694D01*
X173293950Y-104152700D01*
X173293953Y-104152700D01*
X173415226Y-104140756D01*
X173570834Y-104093553D01*
X173714242Y-104016899D01*
X173839941Y-103913741D01*
X173865798Y-103882234D01*
X176489076Y-101258956D01*
X176492889Y-101260113D01*
X176711050Y-101281600D01*
X176856950Y-101281600D01*
X177075111Y-101260113D01*
X177355034Y-101175199D01*
X177613014Y-101037306D01*
X177839134Y-100851734D01*
X177863607Y-100821913D01*
X177884498Y-100890780D01*
X177943463Y-101001094D01*
X178022815Y-101097785D01*
X178119506Y-101177137D01*
X178229820Y-101236102D01*
X178349518Y-101272412D01*
X178474000Y-101284672D01*
X178498500Y-101284672D01*
X178498501Y-104912528D01*
X178423200Y-104912528D01*
X178298718Y-104924788D01*
X178179020Y-104961098D01*
X178068706Y-105020063D01*
X177972015Y-105099415D01*
X177892663Y-105196106D01*
X177833698Y-105306420D01*
X177812807Y-105375287D01*
X177788334Y-105345466D01*
X177562214Y-105159894D01*
X177304234Y-105022001D01*
X177024311Y-104937087D01*
X176806150Y-104915600D01*
X176660250Y-104915600D01*
X176442089Y-104937087D01*
X176162166Y-105022001D01*
X175904186Y-105159894D01*
X175678066Y-105345466D01*
X175492494Y-105571586D01*
X175463200Y-105626391D01*
X175433906Y-105571586D01*
X175248334Y-105345466D01*
X175022214Y-105159894D01*
X174764234Y-105022001D01*
X174484311Y-104937087D01*
X174266150Y-104915600D01*
X174120250Y-104915600D01*
X173902089Y-104937087D01*
X173622166Y-105022001D01*
X173364186Y-105159894D01*
X173138066Y-105345466D01*
X172952494Y-105571586D01*
X172923200Y-105626391D01*
X172893906Y-105571586D01*
X172708334Y-105345466D01*
X172482214Y-105159894D01*
X172224234Y-105022001D01*
X171944311Y-104937087D01*
X171726150Y-104915600D01*
X171580250Y-104915600D01*
X171362089Y-104937087D01*
X171082166Y-105022001D01*
X170824186Y-105159894D01*
X170598066Y-105345466D01*
X170412494Y-105571586D01*
X170383200Y-105626391D01*
X170353906Y-105571586D01*
X170168334Y-105345466D01*
X169942214Y-105159894D01*
X169684234Y-105022001D01*
X169404311Y-104937087D01*
X169186150Y-104915600D01*
X169040250Y-104915600D01*
X168822089Y-104937087D01*
X168542166Y-105022001D01*
X168284186Y-105159894D01*
X168058066Y-105345466D01*
X167872494Y-105571586D01*
X167837999Y-105636123D01*
X167768378Y-105519245D01*
X167573469Y-105303012D01*
X167340120Y-105128959D01*
X167077299Y-105003775D01*
X166930090Y-104959124D01*
X166700200Y-105080445D01*
X166700200Y-106273600D01*
X166720200Y-106273600D01*
X166720200Y-106527600D01*
X166700200Y-106527600D01*
X166700200Y-107720755D01*
X166930090Y-107842076D01*
X167077299Y-107797425D01*
X167340120Y-107672241D01*
X167573469Y-107498188D01*
X167768378Y-107281955D01*
X167837999Y-107165077D01*
X167872494Y-107229614D01*
X168058066Y-107455734D01*
X168284186Y-107641306D01*
X168542166Y-107779199D01*
X168822089Y-107864113D01*
X169040250Y-107885600D01*
X169186150Y-107885600D01*
X169404311Y-107864113D01*
X169684234Y-107779199D01*
X169942214Y-107641306D01*
X170168334Y-107455734D01*
X170353906Y-107229614D01*
X170383200Y-107174809D01*
X170412494Y-107229614D01*
X170598066Y-107455734D01*
X170824186Y-107641306D01*
X171082166Y-107779199D01*
X171362089Y-107864113D01*
X171580250Y-107885600D01*
X171726150Y-107885600D01*
X171944311Y-107864113D01*
X172224234Y-107779199D01*
X172482214Y-107641306D01*
X172708334Y-107455734D01*
X172893906Y-107229614D01*
X172923200Y-107174809D01*
X172952494Y-107229614D01*
X173138066Y-107455734D01*
X173364186Y-107641306D01*
X173622166Y-107779199D01*
X173902089Y-107864113D01*
X174120250Y-107885600D01*
X174266150Y-107885600D01*
X174484311Y-107864113D01*
X174764234Y-107779199D01*
X175022214Y-107641306D01*
X175248334Y-107455734D01*
X175433906Y-107229614D01*
X175463200Y-107174809D01*
X175492494Y-107229614D01*
X175678066Y-107455734D01*
X175904186Y-107641306D01*
X176162166Y-107779199D01*
X176442089Y-107864113D01*
X176660250Y-107885600D01*
X176806150Y-107885600D01*
X177024311Y-107864113D01*
X177304234Y-107779199D01*
X177562214Y-107641306D01*
X177788334Y-107455734D01*
X177812807Y-107425913D01*
X177833698Y-107494780D01*
X177892663Y-107605094D01*
X177972015Y-107701785D01*
X178068706Y-107781137D01*
X178179020Y-107840102D01*
X178298718Y-107876412D01*
X178423200Y-107888672D01*
X180123200Y-107888672D01*
X180247682Y-107876412D01*
X180276501Y-107867670D01*
X180276501Y-108420866D01*
X180048867Y-108648500D01*
X151373750Y-108648500D01*
X151333200Y-108644506D01*
X151292649Y-108648500D01*
X151292647Y-108648500D01*
X151171374Y-108660444D01*
X151015766Y-108707647D01*
X150872357Y-108784301D01*
X150778158Y-108861608D01*
X150778155Y-108861611D01*
X150746659Y-108887459D01*
X150720811Y-108918955D01*
X143666166Y-115973602D01*
X143634659Y-115999459D01*
X143594248Y-116048701D01*
X143531501Y-116125158D01*
X143517229Y-116151859D01*
X143454847Y-116268567D01*
X143407644Y-116424175D01*
X143395700Y-116545447D01*
X143391706Y-116586000D01*
X143395700Y-116626551D01*
X143395701Y-118405695D01*
X143320832Y-118517744D01*
X143244244Y-118702644D01*
X143205200Y-118898933D01*
X143205200Y-119099067D01*
X143244244Y-119295356D01*
X143320832Y-119480256D01*
X143432021Y-119646662D01*
X143573538Y-119788179D01*
X143739944Y-119899368D01*
X143803481Y-119925686D01*
X140958268Y-122770900D01*
X140610890Y-122770900D01*
X140703262Y-122709179D01*
X140844779Y-122567662D01*
X140955968Y-122401256D01*
X141032556Y-122216356D01*
X141071600Y-122020067D01*
X141071600Y-121819933D01*
X141032556Y-121623644D01*
X140955968Y-121438744D01*
X140844779Y-121272338D01*
X140703262Y-121130821D01*
X140536856Y-121019632D01*
X140351956Y-120943044D01*
X140219788Y-120916754D01*
X138950700Y-119647668D01*
X138950700Y-117859304D01*
X139025568Y-117747256D01*
X139102156Y-117562356D01*
X139141200Y-117366067D01*
X139141200Y-117165933D01*
X139102156Y-116969644D01*
X139025568Y-116784744D01*
X138914379Y-116618338D01*
X138772862Y-116476821D01*
X138606456Y-116365632D01*
X138421556Y-116289044D01*
X138225267Y-116250000D01*
X138025133Y-116250000D01*
X137828844Y-116289044D01*
X137643944Y-116365632D01*
X137477538Y-116476821D01*
X137336021Y-116618338D01*
X137224832Y-116784744D01*
X137148244Y-116969644D01*
X137109200Y-117165933D01*
X137109200Y-117366067D01*
X137148244Y-117562356D01*
X137224832Y-117747256D01*
X137299700Y-117859304D01*
X137299701Y-119949040D01*
X137295706Y-119989600D01*
X137311645Y-120151426D01*
X137358847Y-120307033D01*
X137435501Y-120450442D01*
X137467503Y-120489436D01*
X137538660Y-120576141D01*
X137570161Y-120601993D01*
X139052354Y-122084188D01*
X139078644Y-122216356D01*
X139155232Y-122401256D01*
X139266421Y-122567662D01*
X139307488Y-122608729D01*
X139165067Y-122580400D01*
X138964933Y-122580400D01*
X138768644Y-122619444D01*
X138583744Y-122696032D01*
X138417338Y-122807221D01*
X138275821Y-122948738D01*
X138164632Y-123115144D01*
X138088044Y-123300044D01*
X138049000Y-123496333D01*
X138049000Y-123696467D01*
X138088044Y-123892756D01*
X138164632Y-124077656D01*
X138275821Y-124244062D01*
X138417338Y-124385579D01*
X138583744Y-124496768D01*
X138768644Y-124573356D01*
X138964933Y-124612400D01*
X139165067Y-124612400D01*
X139361356Y-124573356D01*
X139546256Y-124496768D01*
X139658304Y-124421900D01*
X141259650Y-124421900D01*
X141300200Y-124425894D01*
X141340750Y-124421900D01*
X141340753Y-124421900D01*
X141462026Y-124409956D01*
X141617634Y-124362753D01*
X141761042Y-124286099D01*
X141886741Y-124182941D01*
X141912598Y-124151434D01*
X143383000Y-122681032D01*
X143383000Y-122705867D01*
X143422044Y-122902156D01*
X143498632Y-123087056D01*
X143609821Y-123253462D01*
X143751338Y-123394979D01*
X143917744Y-123506168D01*
X144102644Y-123582756D01*
X144298933Y-123621800D01*
X144499067Y-123621800D01*
X144695356Y-123582756D01*
X144880256Y-123506168D01*
X144992304Y-123431300D01*
X146701296Y-123431300D01*
X146813344Y-123506168D01*
X146998244Y-123582756D01*
X147194533Y-123621800D01*
X147394667Y-123621800D01*
X147590956Y-123582756D01*
X147775856Y-123506168D01*
X147840701Y-123462840D01*
X147840701Y-126861266D01*
X146317614Y-128384354D01*
X146185444Y-128410644D01*
X146000544Y-128487232D01*
X145834138Y-128598421D01*
X145692621Y-128739938D01*
X145581432Y-128906344D01*
X145504844Y-129091244D01*
X145465800Y-129287533D01*
X145465800Y-129487667D01*
X145504844Y-129683956D01*
X145581432Y-129868856D01*
X145692621Y-130035262D01*
X145834138Y-130176779D01*
X146000544Y-130287968D01*
X146185444Y-130364556D01*
X146381733Y-130403600D01*
X146581867Y-130403600D01*
X146778156Y-130364556D01*
X146963056Y-130287968D01*
X147129462Y-130176779D01*
X147270979Y-130035262D01*
X147382168Y-129868856D01*
X147458756Y-129683956D01*
X147485046Y-129551786D01*
X149221239Y-127815594D01*
X149252741Y-127789741D01*
X149314237Y-127714808D01*
X149355899Y-127664043D01*
X149432553Y-127520634D01*
X149439934Y-127496301D01*
X149479756Y-127365026D01*
X149491700Y-127243753D01*
X149491700Y-127243751D01*
X149495694Y-127203201D01*
X149491700Y-127162650D01*
X149491700Y-115884104D01*
X149566568Y-115772056D01*
X149643156Y-115587156D01*
X149682200Y-115390867D01*
X149682200Y-115190733D01*
X149643156Y-114994444D01*
X149566568Y-114809544D01*
X149455379Y-114643138D01*
X149313862Y-114501621D01*
X149200055Y-114425578D01*
X151827534Y-111798100D01*
X180959850Y-111798100D01*
X181000400Y-111802094D01*
X181040950Y-111798100D01*
X181040953Y-111798100D01*
X181162226Y-111786156D01*
X181317834Y-111738953D01*
X181461242Y-111662299D01*
X181586941Y-111559141D01*
X181612798Y-111527634D01*
X182647639Y-110492794D01*
X182679141Y-110466941D01*
X182702601Y-110438355D01*
X182702601Y-145542400D01*
X124078600Y-145542400D01*
X124078600Y-143491517D01*
X124223600Y-143491517D01*
X124223600Y-143833283D01*
X124290275Y-144168481D01*
X124421063Y-144484231D01*
X124610937Y-144768398D01*
X124852602Y-145010063D01*
X125136769Y-145199937D01*
X125452519Y-145330725D01*
X125787717Y-145397400D01*
X126129483Y-145397400D01*
X126464681Y-145330725D01*
X126780431Y-145199937D01*
X127064598Y-145010063D01*
X127306263Y-144768398D01*
X127496137Y-144484231D01*
X127626925Y-144168481D01*
X127693600Y-143833283D01*
X127693600Y-143491517D01*
X127644048Y-143242400D01*
X143418928Y-143242400D01*
X143431188Y-143366882D01*
X143467498Y-143486580D01*
X143526463Y-143596894D01*
X143605815Y-143693585D01*
X143702506Y-143772937D01*
X143812820Y-143831902D01*
X143932518Y-143868212D01*
X144057000Y-143880472D01*
X144621250Y-143877400D01*
X144780000Y-143718650D01*
X144780000Y-142519400D01*
X143580750Y-142519400D01*
X143422000Y-142678150D01*
X143418928Y-143242400D01*
X127644048Y-143242400D01*
X127626925Y-143156319D01*
X127496137Y-142840569D01*
X127306263Y-142556402D01*
X127064598Y-142314737D01*
X126780431Y-142124863D01*
X126464681Y-141994075D01*
X126129483Y-141927400D01*
X125787717Y-141927400D01*
X125452519Y-141994075D01*
X125136769Y-142124863D01*
X124852602Y-142314737D01*
X124610937Y-142556402D01*
X124421063Y-142840569D01*
X124290275Y-143156319D01*
X124223600Y-143491517D01*
X124078600Y-143491517D01*
X124078600Y-141542400D01*
X143418928Y-141542400D01*
X143422000Y-142106650D01*
X143580750Y-142265400D01*
X144780000Y-142265400D01*
X144780000Y-141066150D01*
X145034000Y-141066150D01*
X145034000Y-142265400D01*
X145054000Y-142265400D01*
X145054000Y-142519400D01*
X145034000Y-142519400D01*
X145034000Y-143718650D01*
X145192750Y-143877400D01*
X145757000Y-143880472D01*
X145881482Y-143868212D01*
X146001180Y-143831902D01*
X146111494Y-143772937D01*
X146208185Y-143693585D01*
X146287537Y-143596894D01*
X146346502Y-143486580D01*
X146367393Y-143417713D01*
X146391866Y-143447534D01*
X146617986Y-143633106D01*
X146875966Y-143770999D01*
X147155889Y-143855913D01*
X147374050Y-143877400D01*
X147519950Y-143877400D01*
X147738111Y-143855913D01*
X147741924Y-143854756D01*
X148644998Y-144757832D01*
X148713101Y-144885242D01*
X148753723Y-144934740D01*
X148816259Y-145010941D01*
X148941958Y-145114099D01*
X149085366Y-145190753D01*
X149240974Y-145237956D01*
X149402800Y-145253894D01*
X149443353Y-145249900D01*
X163840250Y-145249900D01*
X163880800Y-145253894D01*
X163921350Y-145249900D01*
X163921353Y-145249900D01*
X164042626Y-145237956D01*
X164198234Y-145190753D01*
X164341642Y-145114099D01*
X164467341Y-145010941D01*
X164493198Y-144979434D01*
X165981115Y-143491517D01*
X179087600Y-143491517D01*
X179087600Y-143833283D01*
X179154275Y-144168481D01*
X179285063Y-144484231D01*
X179474937Y-144768398D01*
X179716602Y-145010063D01*
X180000769Y-145199937D01*
X180316519Y-145330725D01*
X180651717Y-145397400D01*
X180993483Y-145397400D01*
X181328681Y-145330725D01*
X181644431Y-145199937D01*
X181928598Y-145010063D01*
X182170263Y-144768398D01*
X182360137Y-144484231D01*
X182490925Y-144168481D01*
X182557600Y-143833283D01*
X182557600Y-143491517D01*
X182490925Y-143156319D01*
X182360137Y-142840569D01*
X182170263Y-142556402D01*
X181928598Y-142314737D01*
X181644431Y-142124863D01*
X181328681Y-141994075D01*
X180993483Y-141927400D01*
X180651717Y-141927400D01*
X180316519Y-141994075D01*
X180000769Y-142124863D01*
X179716602Y-142314737D01*
X179474937Y-142556402D01*
X179285063Y-142840569D01*
X179154275Y-143156319D01*
X179087600Y-143491517D01*
X165981115Y-143491517D01*
X173021040Y-136451593D01*
X173052541Y-136425741D01*
X173105177Y-136361604D01*
X173155699Y-136300043D01*
X173182399Y-136250089D01*
X173232353Y-136156634D01*
X173279556Y-136001026D01*
X173291500Y-135879753D01*
X173291500Y-135879751D01*
X173295494Y-135839201D01*
X173291500Y-135798650D01*
X173291500Y-126695200D01*
X176713657Y-126695200D01*
X176741364Y-126976509D01*
X176823418Y-127247008D01*
X176956668Y-127496301D01*
X177135992Y-127714808D01*
X177354499Y-127894132D01*
X177487458Y-127965200D01*
X177354499Y-128036268D01*
X177135992Y-128215592D01*
X176956668Y-128434099D01*
X176823418Y-128683392D01*
X176741364Y-128953891D01*
X176713657Y-129235200D01*
X176741364Y-129516509D01*
X176823418Y-129787008D01*
X176956668Y-130036301D01*
X177135992Y-130254808D01*
X177354499Y-130434132D01*
X177487458Y-130505200D01*
X177354499Y-130576268D01*
X177135992Y-130755592D01*
X176956668Y-130974099D01*
X176823418Y-131223392D01*
X176741364Y-131493891D01*
X176713657Y-131775200D01*
X176741364Y-132056509D01*
X176823418Y-132327008D01*
X176956668Y-132576301D01*
X177135992Y-132794808D01*
X177354499Y-132974132D01*
X177603792Y-133107382D01*
X177874291Y-133189436D01*
X178085108Y-133210200D01*
X178226092Y-133210200D01*
X178436909Y-133189436D01*
X178707408Y-133107382D01*
X178956701Y-132974132D01*
X179175208Y-132794808D01*
X179354532Y-132576301D01*
X179487782Y-132327008D01*
X179569836Y-132056509D01*
X179597543Y-131775200D01*
X179569836Y-131493891D01*
X179487782Y-131223392D01*
X179354532Y-130974099D01*
X179175208Y-130755592D01*
X178956701Y-130576268D01*
X178823742Y-130505200D01*
X178956701Y-130434132D01*
X179175208Y-130254808D01*
X179354532Y-130036301D01*
X179487782Y-129787008D01*
X179569836Y-129516509D01*
X179597543Y-129235200D01*
X179569836Y-128953891D01*
X179487782Y-128683392D01*
X179354532Y-128434099D01*
X179175208Y-128215592D01*
X178956701Y-128036268D01*
X178823742Y-127965200D01*
X178956701Y-127894132D01*
X179175208Y-127714808D01*
X179354532Y-127496301D01*
X179487782Y-127247008D01*
X179569836Y-126976509D01*
X179597543Y-126695200D01*
X179569836Y-126413891D01*
X179487782Y-126143392D01*
X179354532Y-125894099D01*
X179175208Y-125675592D01*
X178956701Y-125496268D01*
X178818918Y-125422621D01*
X179010731Y-125307585D01*
X179219119Y-125118614D01*
X179386637Y-124892620D01*
X179506846Y-124638287D01*
X179547504Y-124504239D01*
X179425515Y-124282200D01*
X178282600Y-124282200D01*
X178282600Y-124302200D01*
X178028600Y-124302200D01*
X178028600Y-124282200D01*
X176885685Y-124282200D01*
X176763696Y-124504239D01*
X176804354Y-124638287D01*
X176924563Y-124892620D01*
X177092081Y-125118614D01*
X177300469Y-125307585D01*
X177492282Y-125422621D01*
X177354499Y-125496268D01*
X177135992Y-125675592D01*
X176956668Y-125894099D01*
X176823418Y-126143392D01*
X176741364Y-126413891D01*
X176713657Y-126695200D01*
X173291500Y-126695200D01*
X173291500Y-118506150D01*
X173295494Y-118465600D01*
X173290260Y-118412459D01*
X173279556Y-118303774D01*
X173232353Y-118148166D01*
X173178868Y-118048103D01*
X173155699Y-118004757D01*
X173078392Y-117910558D01*
X173078389Y-117910555D01*
X173052541Y-117879059D01*
X173021046Y-117853212D01*
X171952930Y-116785097D01*
X171977543Y-116535200D01*
X171949836Y-116253891D01*
X171867782Y-115983392D01*
X171734532Y-115734099D01*
X171555208Y-115515592D01*
X171442118Y-115422781D01*
X171460082Y-115421012D01*
X171579780Y-115384702D01*
X171690094Y-115325737D01*
X171786785Y-115246385D01*
X171866137Y-115149694D01*
X171925102Y-115039380D01*
X171961412Y-114919682D01*
X171973672Y-114795200D01*
X171970600Y-114280950D01*
X171811852Y-114122202D01*
X171970600Y-114122202D01*
X171970600Y-113995200D01*
X176713657Y-113995200D01*
X176741364Y-114276509D01*
X176823418Y-114547008D01*
X176956668Y-114796301D01*
X177135992Y-115014808D01*
X177354499Y-115194132D01*
X177487458Y-115265200D01*
X177354499Y-115336268D01*
X177135992Y-115515592D01*
X176956668Y-115734099D01*
X176823418Y-115983392D01*
X176741364Y-116253891D01*
X176713657Y-116535200D01*
X176741364Y-116816509D01*
X176823418Y-117087008D01*
X176956668Y-117336301D01*
X177135992Y-117554808D01*
X177354499Y-117734132D01*
X177487458Y-117805200D01*
X177354499Y-117876268D01*
X177135992Y-118055592D01*
X176956668Y-118274099D01*
X176823418Y-118523392D01*
X176741364Y-118793891D01*
X176713657Y-119075200D01*
X176741364Y-119356509D01*
X176823418Y-119627008D01*
X176956668Y-119876301D01*
X177135992Y-120094808D01*
X177354499Y-120274132D01*
X177487458Y-120345200D01*
X177354499Y-120416268D01*
X177135992Y-120595592D01*
X176956668Y-120814099D01*
X176823418Y-121063392D01*
X176741364Y-121333891D01*
X176713657Y-121615200D01*
X176741364Y-121896509D01*
X176823418Y-122167008D01*
X176956668Y-122416301D01*
X177135992Y-122634808D01*
X177354499Y-122814132D01*
X177492282Y-122887779D01*
X177300469Y-123002815D01*
X177092081Y-123191786D01*
X176924563Y-123417780D01*
X176804354Y-123672113D01*
X176763696Y-123806161D01*
X176885685Y-124028200D01*
X178028600Y-124028200D01*
X178028600Y-124008200D01*
X178282600Y-124008200D01*
X178282600Y-124028200D01*
X179425515Y-124028200D01*
X179547504Y-123806161D01*
X179506846Y-123672113D01*
X179386637Y-123417780D01*
X179219119Y-123191786D01*
X179010731Y-123002815D01*
X178818918Y-122887779D01*
X178956701Y-122814132D01*
X179175208Y-122634808D01*
X179354532Y-122416301D01*
X179487782Y-122167008D01*
X179569836Y-121896509D01*
X179597543Y-121615200D01*
X179569836Y-121333891D01*
X179487782Y-121063392D01*
X179354532Y-120814099D01*
X179175208Y-120595592D01*
X178956701Y-120416268D01*
X178823742Y-120345200D01*
X178956701Y-120274132D01*
X179175208Y-120094808D01*
X179354532Y-119876301D01*
X179487782Y-119627008D01*
X179569836Y-119356509D01*
X179597543Y-119075200D01*
X179569836Y-118793891D01*
X179487782Y-118523392D01*
X179354532Y-118274099D01*
X179175208Y-118055592D01*
X178956701Y-117876268D01*
X178823742Y-117805200D01*
X178956701Y-117734132D01*
X179175208Y-117554808D01*
X179354532Y-117336301D01*
X179487782Y-117087008D01*
X179569836Y-116816509D01*
X179597543Y-116535200D01*
X179569836Y-116253891D01*
X179487782Y-115983392D01*
X179354532Y-115734099D01*
X179175208Y-115515592D01*
X178956701Y-115336268D01*
X178823742Y-115265200D01*
X178956701Y-115194132D01*
X179175208Y-115014808D01*
X179354532Y-114796301D01*
X179487782Y-114547008D01*
X179569836Y-114276509D01*
X179597543Y-113995200D01*
X179569836Y-113713891D01*
X179487782Y-113443392D01*
X179354532Y-113194099D01*
X179175208Y-112975592D01*
X178956701Y-112796268D01*
X178707408Y-112663018D01*
X178436909Y-112580964D01*
X178226092Y-112560200D01*
X178085108Y-112560200D01*
X177874291Y-112580964D01*
X177603792Y-112663018D01*
X177354499Y-112796268D01*
X177135992Y-112975592D01*
X176956668Y-113194099D01*
X176823418Y-113443392D01*
X176741364Y-113713891D01*
X176713657Y-113995200D01*
X171970600Y-113995200D01*
X171970600Y-113868198D01*
X171811852Y-113868198D01*
X171970600Y-113709450D01*
X171973672Y-113195200D01*
X171961412Y-113070718D01*
X171925102Y-112951020D01*
X171866137Y-112840706D01*
X171786785Y-112744015D01*
X171690094Y-112664663D01*
X171579780Y-112605698D01*
X171460082Y-112569388D01*
X171335600Y-112557128D01*
X170821350Y-112560200D01*
X170662600Y-112718950D01*
X170662600Y-113868200D01*
X170682600Y-113868200D01*
X170682600Y-114122200D01*
X170662600Y-114122200D01*
X170662600Y-114142200D01*
X170408600Y-114142200D01*
X170408600Y-114122200D01*
X170388600Y-114122200D01*
X170388600Y-113868200D01*
X170408600Y-113868200D01*
X170408600Y-112718950D01*
X170249850Y-112560200D01*
X169735600Y-112557128D01*
X169611118Y-112569388D01*
X169491420Y-112605698D01*
X169381106Y-112664663D01*
X169284415Y-112744015D01*
X169205063Y-112840706D01*
X169146098Y-112951020D01*
X169109788Y-113070718D01*
X169097528Y-113195200D01*
X169100600Y-113709450D01*
X169259348Y-113868198D01*
X169100600Y-113868198D01*
X169100600Y-114122202D01*
X169259348Y-114122202D01*
X169100600Y-114280950D01*
X169097528Y-114795200D01*
X169109788Y-114919682D01*
X169146098Y-115039380D01*
X169205063Y-115149694D01*
X169284415Y-115246385D01*
X169381106Y-115325737D01*
X169491420Y-115384702D01*
X169611118Y-115421012D01*
X169629082Y-115422781D01*
X169515992Y-115515592D01*
X169336668Y-115734099D01*
X169203418Y-115983392D01*
X169121364Y-116253891D01*
X169093657Y-116535200D01*
X169121364Y-116816509D01*
X169203418Y-117087008D01*
X169336668Y-117336301D01*
X169515992Y-117554808D01*
X169734499Y-117734132D01*
X169867458Y-117805200D01*
X169734499Y-117876268D01*
X169515992Y-118055592D01*
X169336668Y-118274099D01*
X169336133Y-118275100D01*
X166127263Y-118275100D01*
X166101697Y-118236838D01*
X165912962Y-118048103D01*
X165691033Y-117899815D01*
X165444439Y-117797672D01*
X165182656Y-117745600D01*
X164915744Y-117745600D01*
X164653961Y-117797672D01*
X164407367Y-117899815D01*
X164185438Y-118048103D01*
X163996703Y-118236838D01*
X163848415Y-118458767D01*
X163779200Y-118625866D01*
X163709985Y-118458767D01*
X163561697Y-118236838D01*
X163372962Y-118048103D01*
X163151033Y-117899815D01*
X162904439Y-117797672D01*
X162642656Y-117745600D01*
X162375744Y-117745600D01*
X162113961Y-117797672D01*
X161867367Y-117899815D01*
X161645438Y-118048103D01*
X161456703Y-118236838D01*
X161431137Y-118275100D01*
X161047263Y-118275100D01*
X161021697Y-118236838D01*
X160832962Y-118048103D01*
X160611033Y-117899815D01*
X160364439Y-117797672D01*
X160102656Y-117745600D01*
X159835744Y-117745600D01*
X159573961Y-117797672D01*
X159327367Y-117899815D01*
X159105438Y-118048103D01*
X158916703Y-118236838D01*
X158768415Y-118458767D01*
X158666272Y-118705361D01*
X158614200Y-118967144D01*
X158614200Y-119234056D01*
X158666272Y-119495839D01*
X158768415Y-119742433D01*
X158916703Y-119964362D01*
X159105438Y-120153097D01*
X159327367Y-120301385D01*
X159573961Y-120403528D01*
X159835744Y-120455600D01*
X160102656Y-120455600D01*
X160364439Y-120403528D01*
X160611033Y-120301385D01*
X160832962Y-120153097D01*
X161021697Y-119964362D01*
X161047263Y-119926100D01*
X161431137Y-119926100D01*
X161456703Y-119964362D01*
X161645438Y-120153097D01*
X161867367Y-120301385D01*
X162113961Y-120403528D01*
X162375744Y-120455600D01*
X162642656Y-120455600D01*
X162904439Y-120403528D01*
X163151033Y-120301385D01*
X163372962Y-120153097D01*
X163561697Y-119964362D01*
X163709985Y-119742433D01*
X163779200Y-119575334D01*
X163848415Y-119742433D01*
X163996703Y-119964362D01*
X164185438Y-120153097D01*
X164407367Y-120301385D01*
X164653961Y-120403528D01*
X164915744Y-120455600D01*
X165182656Y-120455600D01*
X165444439Y-120403528D01*
X165691033Y-120301385D01*
X165912962Y-120153097D01*
X166101697Y-119964362D01*
X166127263Y-119926100D01*
X169377537Y-119926100D01*
X169515992Y-120094808D01*
X169734499Y-120274132D01*
X169867458Y-120345200D01*
X169734499Y-120416268D01*
X169515992Y-120595592D01*
X169336668Y-120814099D01*
X169203418Y-121063392D01*
X169121364Y-121333891D01*
X169093657Y-121615200D01*
X169121364Y-121896509D01*
X169203418Y-122167008D01*
X169336668Y-122416301D01*
X169515992Y-122634808D01*
X169734499Y-122814132D01*
X169867458Y-122885200D01*
X169734499Y-122956268D01*
X169515992Y-123135592D01*
X169336668Y-123354099D01*
X169203418Y-123603392D01*
X169121364Y-123873891D01*
X169093657Y-124155200D01*
X169121364Y-124436509D01*
X169203418Y-124707008D01*
X169336668Y-124956301D01*
X169515992Y-125174808D01*
X169734499Y-125354132D01*
X169867458Y-125425200D01*
X169734499Y-125496268D01*
X169515992Y-125675592D01*
X169336668Y-125894099D01*
X169203418Y-126143392D01*
X169121364Y-126413891D01*
X169093657Y-126695200D01*
X169121364Y-126976509D01*
X169203418Y-127247008D01*
X169336668Y-127496301D01*
X169515992Y-127714808D01*
X169734499Y-127894132D01*
X169867458Y-127965200D01*
X169734499Y-128036268D01*
X169515992Y-128215592D01*
X169356692Y-128409700D01*
X166689942Y-128409700D01*
X166649399Y-128405707D01*
X166608856Y-128409700D01*
X166608847Y-128409700D01*
X166487574Y-128421644D01*
X166331966Y-128468847D01*
X166207078Y-128535602D01*
X166188556Y-128545502D01*
X166132433Y-128591561D01*
X166062859Y-128648659D01*
X166037007Y-128680160D01*
X161659268Y-133057900D01*
X160869463Y-133057900D01*
X160843897Y-133019638D01*
X160655162Y-132830903D01*
X160433233Y-132682615D01*
X160186639Y-132580472D01*
X159924856Y-132528400D01*
X159657944Y-132528400D01*
X159396161Y-132580472D01*
X159149567Y-132682615D01*
X158927638Y-132830903D01*
X158738903Y-133019638D01*
X158590615Y-133241567D01*
X158488472Y-133488161D01*
X158436400Y-133749944D01*
X158436400Y-134016856D01*
X158488472Y-134278639D01*
X158590615Y-134525233D01*
X158738903Y-134747162D01*
X158927638Y-134935897D01*
X159149567Y-135084185D01*
X159316666Y-135153400D01*
X159149567Y-135222615D01*
X158927638Y-135370903D01*
X158738903Y-135559638D01*
X158590615Y-135781567D01*
X158488472Y-136028161D01*
X158436400Y-136289944D01*
X158436400Y-136556856D01*
X158488472Y-136818639D01*
X158590615Y-137065233D01*
X158738903Y-137287162D01*
X158927638Y-137475897D01*
X159149567Y-137624185D01*
X159316666Y-137693400D01*
X159149567Y-137762615D01*
X158927638Y-137910903D01*
X158738903Y-138099638D01*
X158590615Y-138321567D01*
X158488472Y-138568161D01*
X158436400Y-138829944D01*
X158436400Y-139096856D01*
X158488472Y-139358639D01*
X158590615Y-139605233D01*
X158738903Y-139827162D01*
X158927638Y-140015897D01*
X159149567Y-140164185D01*
X159396161Y-140266328D01*
X159657944Y-140318400D01*
X159924856Y-140318400D01*
X160186639Y-140266328D01*
X160433233Y-140164185D01*
X160655162Y-140015897D01*
X160843897Y-139827162D01*
X160992185Y-139605233D01*
X161094328Y-139358639D01*
X161146400Y-139096856D01*
X161146400Y-138829944D01*
X161094328Y-138568161D01*
X160992185Y-138321567D01*
X160843897Y-138099638D01*
X160655162Y-137910903D01*
X160433233Y-137762615D01*
X160266134Y-137693400D01*
X160433233Y-137624185D01*
X160655162Y-137475897D01*
X160843897Y-137287162D01*
X160992185Y-137065233D01*
X161094328Y-136818639D01*
X161146400Y-136556856D01*
X161146400Y-136289944D01*
X161094328Y-136028161D01*
X160992185Y-135781567D01*
X160843897Y-135559638D01*
X160655162Y-135370903D01*
X160433233Y-135222615D01*
X160266134Y-135153400D01*
X160433233Y-135084185D01*
X160655162Y-134935897D01*
X160843897Y-134747162D01*
X160869463Y-134708900D01*
X161960650Y-134708900D01*
X162001200Y-134712894D01*
X162041750Y-134708900D01*
X162041753Y-134708900D01*
X162163026Y-134696956D01*
X162318634Y-134649753D01*
X162462042Y-134573099D01*
X162587741Y-134469941D01*
X162613598Y-134438434D01*
X166991333Y-130060700D01*
X169356692Y-130060700D01*
X169515992Y-130254808D01*
X169734499Y-130434132D01*
X169867458Y-130505200D01*
X169734499Y-130576268D01*
X169515992Y-130755592D01*
X169336668Y-130974099D01*
X169203418Y-131223392D01*
X169121364Y-131493891D01*
X169093657Y-131775200D01*
X169118270Y-132025097D01*
X168085468Y-133057900D01*
X166584463Y-133057900D01*
X166558897Y-133019638D01*
X166370162Y-132830903D01*
X166148233Y-132682615D01*
X165901639Y-132580472D01*
X165639856Y-132528400D01*
X165372944Y-132528400D01*
X165111161Y-132580472D01*
X164864567Y-132682615D01*
X164642638Y-132830903D01*
X164453903Y-133019638D01*
X164305615Y-133241567D01*
X164203472Y-133488161D01*
X164151400Y-133749944D01*
X164151400Y-134016856D01*
X164203472Y-134278639D01*
X164305615Y-134525233D01*
X164453903Y-134747162D01*
X164642638Y-134935897D01*
X164864567Y-135084185D01*
X165031666Y-135153400D01*
X164864567Y-135222615D01*
X164642638Y-135370903D01*
X164453903Y-135559638D01*
X164305615Y-135781567D01*
X164203472Y-136028161D01*
X164151400Y-136289944D01*
X164151400Y-136556856D01*
X164203472Y-136818639D01*
X164305615Y-137065233D01*
X164453903Y-137287162D01*
X164642638Y-137475897D01*
X164864567Y-137624185D01*
X165031666Y-137693400D01*
X164864567Y-137762615D01*
X164642638Y-137910903D01*
X164453903Y-138099638D01*
X164305615Y-138321567D01*
X164203472Y-138568161D01*
X164151400Y-138829944D01*
X164151400Y-139096856D01*
X164203472Y-139358639D01*
X164305615Y-139605233D01*
X164453903Y-139827162D01*
X164642638Y-140015897D01*
X164864567Y-140164185D01*
X165111161Y-140266328D01*
X165372944Y-140318400D01*
X165639856Y-140318400D01*
X165901639Y-140266328D01*
X166148233Y-140164185D01*
X166370162Y-140015897D01*
X166558897Y-139827162D01*
X166707185Y-139605233D01*
X166809328Y-139358639D01*
X166861400Y-139096856D01*
X166861400Y-138829944D01*
X166809328Y-138568161D01*
X166707185Y-138321567D01*
X166558897Y-138099638D01*
X166370162Y-137910903D01*
X166148233Y-137762615D01*
X165981134Y-137693400D01*
X166148233Y-137624185D01*
X166370162Y-137475897D01*
X166558897Y-137287162D01*
X166707185Y-137065233D01*
X166809328Y-136818639D01*
X166861400Y-136556856D01*
X166861400Y-136289944D01*
X166809328Y-136028161D01*
X166707185Y-135781567D01*
X166558897Y-135559638D01*
X166370162Y-135370903D01*
X166148233Y-135222615D01*
X165981134Y-135153400D01*
X166148233Y-135084185D01*
X166370162Y-134935897D01*
X166558897Y-134747162D01*
X166584463Y-134708900D01*
X168386850Y-134708900D01*
X168427400Y-134712894D01*
X168467950Y-134708900D01*
X168467953Y-134708900D01*
X168589226Y-134696956D01*
X168744834Y-134649753D01*
X168888242Y-134573099D01*
X169013941Y-134469941D01*
X169039798Y-134438434D01*
X170285703Y-133192530D01*
X170465108Y-133210200D01*
X170606092Y-133210200D01*
X170816909Y-133189436D01*
X171087408Y-133107382D01*
X171336701Y-132974132D01*
X171555208Y-132794808D01*
X171640501Y-132690878D01*
X171640501Y-135497266D01*
X163538868Y-143598900D01*
X150857694Y-143598900D01*
X151042134Y-143447534D01*
X151227706Y-143221414D01*
X151365599Y-142963434D01*
X151450513Y-142683511D01*
X151479185Y-142392400D01*
X151450513Y-142101289D01*
X151449356Y-142097477D01*
X151449390Y-142097443D01*
X151449394Y-142097438D01*
X154028391Y-139518442D01*
X154028396Y-139518436D01*
X154326635Y-139220197D01*
X154358141Y-139194341D01*
X154461299Y-139068642D01*
X154537953Y-138925234D01*
X154585156Y-138769626D01*
X154597100Y-138648353D01*
X154597100Y-138648344D01*
X154601093Y-138607801D01*
X154597100Y-138567258D01*
X154597100Y-118169904D01*
X154671968Y-118057856D01*
X154748556Y-117872956D01*
X154787600Y-117676667D01*
X154787600Y-117476533D01*
X154748556Y-117280244D01*
X154671968Y-117095344D01*
X154560779Y-116928938D01*
X154419262Y-116787421D01*
X154252856Y-116676232D01*
X154067956Y-116599644D01*
X153871667Y-116560600D01*
X153671533Y-116560600D01*
X153475244Y-116599644D01*
X153290344Y-116676232D01*
X153123938Y-116787421D01*
X152982421Y-116928938D01*
X152871232Y-117095344D01*
X152794644Y-117280244D01*
X152755600Y-117476533D01*
X152755600Y-117676667D01*
X152794644Y-117872956D01*
X152871232Y-118057856D01*
X152946101Y-118169905D01*
X152946100Y-138265868D01*
X152860964Y-138351004D01*
X152860958Y-138351009D01*
X150281962Y-140930006D01*
X150281957Y-140930010D01*
X150281923Y-140930044D01*
X150278111Y-140928887D01*
X150059950Y-140907400D01*
X149914050Y-140907400D01*
X149695889Y-140928887D01*
X149415966Y-141013801D01*
X149157986Y-141151694D01*
X148931866Y-141337266D01*
X148746294Y-141563386D01*
X148717000Y-141618191D01*
X148687706Y-141563386D01*
X148502134Y-141337266D01*
X148276014Y-141151694D01*
X148018034Y-141013801D01*
X147738111Y-140928887D01*
X147519950Y-140907400D01*
X147374050Y-140907400D01*
X147155889Y-140928887D01*
X146875966Y-141013801D01*
X146617986Y-141151694D01*
X146391866Y-141337266D01*
X146367393Y-141367087D01*
X146346502Y-141298220D01*
X146287537Y-141187906D01*
X146208185Y-141091215D01*
X146111494Y-141011863D01*
X146001180Y-140952898D01*
X145881482Y-140916588D01*
X145757000Y-140904328D01*
X145192750Y-140907400D01*
X145034000Y-141066150D01*
X144780000Y-141066150D01*
X144621250Y-140907400D01*
X144057000Y-140904328D01*
X143932518Y-140916588D01*
X143812820Y-140952898D01*
X143702506Y-141011863D01*
X143605815Y-141091215D01*
X143526463Y-141187906D01*
X143467498Y-141298220D01*
X143431188Y-141417918D01*
X143418928Y-141542400D01*
X124078600Y-141542400D01*
X124078600Y-132285882D01*
X126923800Y-132285882D01*
X126923800Y-132636118D01*
X126992128Y-132979623D01*
X127126157Y-133303199D01*
X127320737Y-133594409D01*
X127568391Y-133842063D01*
X127859601Y-134036643D01*
X128183177Y-134170672D01*
X128526682Y-134239000D01*
X128876918Y-134239000D01*
X129220423Y-134170672D01*
X129543999Y-134036643D01*
X129835209Y-133842063D01*
X129971800Y-133705472D01*
X130108391Y-133842063D01*
X130399601Y-134036643D01*
X130723177Y-134170672D01*
X131066682Y-134239000D01*
X131416918Y-134239000D01*
X131760423Y-134170672D01*
X132083999Y-134036643D01*
X132375209Y-133842063D01*
X132511800Y-133705472D01*
X132648391Y-133842063D01*
X132939601Y-134036643D01*
X133263177Y-134170672D01*
X133606682Y-134239000D01*
X133956918Y-134239000D01*
X134300423Y-134170672D01*
X134623999Y-134036643D01*
X134915209Y-133842063D01*
X135051800Y-133705472D01*
X135188391Y-133842063D01*
X135479601Y-134036643D01*
X135803177Y-134170672D01*
X136146682Y-134239000D01*
X136496918Y-134239000D01*
X136840423Y-134170672D01*
X137163999Y-134036643D01*
X137455209Y-133842063D01*
X137591800Y-133705472D01*
X137728391Y-133842063D01*
X138019601Y-134036643D01*
X138343177Y-134170672D01*
X138686682Y-134239000D01*
X139036918Y-134239000D01*
X139380423Y-134170672D01*
X139703999Y-134036643D01*
X139995209Y-133842063D01*
X140131800Y-133705472D01*
X140268391Y-133842063D01*
X140559601Y-134036643D01*
X140883177Y-134170672D01*
X141226682Y-134239000D01*
X141576918Y-134239000D01*
X141920423Y-134170672D01*
X142243999Y-134036643D01*
X142535209Y-133842063D01*
X142678912Y-133698360D01*
X142884045Y-133698360D01*
X142997064Y-133977384D01*
X143311049Y-134132556D01*
X143649273Y-134223491D01*
X143998738Y-134246694D01*
X144346016Y-134201275D01*
X144677760Y-134088977D01*
X144886536Y-133977384D01*
X144999555Y-133698360D01*
X143941800Y-132640605D01*
X142884045Y-133698360D01*
X142678912Y-133698360D01*
X142782863Y-133594409D01*
X142977443Y-133303199D01*
X143018064Y-133205131D01*
X143762195Y-132461000D01*
X144121405Y-132461000D01*
X144865536Y-133205131D01*
X144906157Y-133303199D01*
X145100737Y-133594409D01*
X145348391Y-133842063D01*
X145639601Y-134036643D01*
X145963177Y-134170672D01*
X146306682Y-134239000D01*
X146656918Y-134239000D01*
X147000423Y-134170672D01*
X147323999Y-134036643D01*
X147615209Y-133842063D01*
X147751800Y-133705472D01*
X147888391Y-133842063D01*
X148179601Y-134036643D01*
X148503177Y-134170672D01*
X148846682Y-134239000D01*
X149196918Y-134239000D01*
X149540423Y-134170672D01*
X149863999Y-134036643D01*
X150155209Y-133842063D01*
X150402863Y-133594409D01*
X150597443Y-133303199D01*
X150731472Y-132979623D01*
X150799800Y-132636118D01*
X150799800Y-132285882D01*
X150731472Y-131942377D01*
X150597443Y-131618801D01*
X150402863Y-131327591D01*
X150155209Y-131079937D01*
X149863999Y-130885357D01*
X149540423Y-130751328D01*
X149196918Y-130683000D01*
X148846682Y-130683000D01*
X148503177Y-130751328D01*
X148179601Y-130885357D01*
X147888391Y-131079937D01*
X147751800Y-131216528D01*
X147615209Y-131079937D01*
X147323999Y-130885357D01*
X147000423Y-130751328D01*
X146656918Y-130683000D01*
X146306682Y-130683000D01*
X145963177Y-130751328D01*
X145639601Y-130885357D01*
X145348391Y-131079937D01*
X145100737Y-131327591D01*
X144906157Y-131618801D01*
X144865536Y-131716869D01*
X144121405Y-132461000D01*
X143762195Y-132461000D01*
X143018064Y-131716869D01*
X142977443Y-131618801D01*
X142782863Y-131327591D01*
X142678912Y-131223640D01*
X142884045Y-131223640D01*
X143941800Y-132281395D01*
X144999555Y-131223640D01*
X144886536Y-130944616D01*
X144572551Y-130789444D01*
X144234327Y-130698509D01*
X143884862Y-130675306D01*
X143537584Y-130720725D01*
X143205840Y-130833023D01*
X142997064Y-130944616D01*
X142884045Y-131223640D01*
X142678912Y-131223640D01*
X142535209Y-131079937D01*
X142243999Y-130885357D01*
X141920423Y-130751328D01*
X141576918Y-130683000D01*
X141226682Y-130683000D01*
X140883177Y-130751328D01*
X140559601Y-130885357D01*
X140268391Y-131079937D01*
X140131800Y-131216528D01*
X139995209Y-131079937D01*
X139703999Y-130885357D01*
X139380423Y-130751328D01*
X139036918Y-130683000D01*
X138686682Y-130683000D01*
X138343177Y-130751328D01*
X138019601Y-130885357D01*
X137728391Y-131079937D01*
X137591800Y-131216528D01*
X137455209Y-131079937D01*
X137163999Y-130885357D01*
X136840423Y-130751328D01*
X136496918Y-130683000D01*
X136146682Y-130683000D01*
X135803177Y-130751328D01*
X135479601Y-130885357D01*
X135188391Y-131079937D01*
X135051800Y-131216528D01*
X134915209Y-131079937D01*
X134623999Y-130885357D01*
X134300423Y-130751328D01*
X133956918Y-130683000D01*
X133606682Y-130683000D01*
X133263177Y-130751328D01*
X132939601Y-130885357D01*
X132648391Y-131079937D01*
X132511800Y-131216528D01*
X132375209Y-131079937D01*
X132083999Y-130885357D01*
X131760423Y-130751328D01*
X131416918Y-130683000D01*
X131066682Y-130683000D01*
X130723177Y-130751328D01*
X130399601Y-130885357D01*
X130108391Y-131079937D01*
X129971800Y-131216528D01*
X129835209Y-131079937D01*
X129543999Y-130885357D01*
X129220423Y-130751328D01*
X128876918Y-130683000D01*
X128526682Y-130683000D01*
X128183177Y-130751328D01*
X127859601Y-130885357D01*
X127568391Y-131079937D01*
X127320737Y-131327591D01*
X127126157Y-131618801D01*
X126992128Y-131942377D01*
X126923800Y-132285882D01*
X124078600Y-132285882D01*
X124078600Y-117298733D01*
X130784600Y-117298733D01*
X130784600Y-117498867D01*
X130823644Y-117695156D01*
X130900232Y-117880056D01*
X130975100Y-117992104D01*
X130975100Y-118405064D01*
X130971106Y-118445615D01*
X130975100Y-118486165D01*
X130975100Y-118486167D01*
X130987044Y-118607440D01*
X131024920Y-118732300D01*
X131034247Y-118763048D01*
X131110901Y-118906457D01*
X131137423Y-118938774D01*
X131214059Y-119032156D01*
X131245566Y-119058013D01*
X132300391Y-120112839D01*
X132326244Y-120144341D01*
X132369939Y-120180200D01*
X132451942Y-120247499D01*
X132563322Y-120307033D01*
X132595351Y-120324153D01*
X132750959Y-120371356D01*
X132855887Y-120381690D01*
X132970344Y-120458168D01*
X133155244Y-120534756D01*
X133351533Y-120573800D01*
X133551667Y-120573800D01*
X133747956Y-120534756D01*
X133932856Y-120458168D01*
X134099262Y-120346979D01*
X134240779Y-120205462D01*
X134351968Y-120039056D01*
X134428556Y-119854156D01*
X134467600Y-119657867D01*
X134467600Y-119457733D01*
X134428556Y-119261444D01*
X134351968Y-119076544D01*
X134240779Y-118910138D01*
X134099262Y-118768621D01*
X133932856Y-118657432D01*
X133747956Y-118580844D01*
X133551667Y-118541800D01*
X133351533Y-118541800D01*
X133155244Y-118580844D01*
X133118487Y-118596069D01*
X132626100Y-118103683D01*
X132626100Y-117992104D01*
X132700968Y-117880056D01*
X132777556Y-117695156D01*
X132816600Y-117498867D01*
X132816600Y-117298733D01*
X132777556Y-117102444D01*
X132700968Y-116917544D01*
X132589779Y-116751138D01*
X132448262Y-116609621D01*
X132281856Y-116498432D01*
X132096956Y-116421844D01*
X131900667Y-116382800D01*
X131700533Y-116382800D01*
X131504244Y-116421844D01*
X131319344Y-116498432D01*
X131152938Y-116609621D01*
X131011421Y-116751138D01*
X130900232Y-116917544D01*
X130823644Y-117102444D01*
X130784600Y-117298733D01*
X124078600Y-117298733D01*
X124078600Y-85209921D01*
X126719201Y-85209921D01*
X126719201Y-85630479D01*
X126801248Y-86042956D01*
X126962189Y-86431501D01*
X127195838Y-86781182D01*
X127493218Y-87078562D01*
X127842899Y-87312211D01*
X128231444Y-87473152D01*
X128643921Y-87555199D01*
X129064479Y-87555199D01*
X129476956Y-87473152D01*
X129865501Y-87312211D01*
X130215182Y-87078562D01*
X130512562Y-86781182D01*
X130746211Y-86431501D01*
X130907152Y-86042956D01*
X130989199Y-85630479D01*
X130989199Y-85209921D01*
X130907152Y-84797444D01*
X130746211Y-84408899D01*
X130512562Y-84059218D01*
X130215182Y-83761838D01*
X129865501Y-83528189D01*
X129476956Y-83367248D01*
X129064479Y-83285201D01*
X128643921Y-83285201D01*
X128231444Y-83367248D01*
X127842899Y-83528189D01*
X127493218Y-83761838D01*
X127195838Y-84059218D01*
X126962189Y-84408899D01*
X126801248Y-84797444D01*
X126719201Y-85209921D01*
X124078600Y-85209921D01*
X124078600Y-77141091D01*
X125583919Y-77141091D01*
X125681243Y-77415452D01*
X125830222Y-77665555D01*
X126025131Y-77881788D01*
X126258480Y-78055841D01*
X126521301Y-78181025D01*
X126668510Y-78225676D01*
X126898400Y-78104355D01*
X126898400Y-76911200D01*
X125704586Y-76911200D01*
X125583919Y-77141091D01*
X124078600Y-77141091D01*
X124078600Y-74601091D01*
X125583919Y-74601091D01*
X125681243Y-74875452D01*
X125830222Y-75125555D01*
X126025131Y-75341788D01*
X126256280Y-75514200D01*
X126025131Y-75686612D01*
X125830222Y-75902845D01*
X125681243Y-76152948D01*
X125583919Y-76427309D01*
X125704586Y-76657200D01*
X126898400Y-76657200D01*
X126898400Y-74371200D01*
X125704586Y-74371200D01*
X125583919Y-74601091D01*
X124078600Y-74601091D01*
X124078600Y-72061091D01*
X125583919Y-72061091D01*
X125681243Y-72335452D01*
X125830222Y-72585555D01*
X126025131Y-72801788D01*
X126256280Y-72974200D01*
X126025131Y-73146612D01*
X125830222Y-73362845D01*
X125681243Y-73612948D01*
X125583919Y-73887309D01*
X125704586Y-74117200D01*
X126898400Y-74117200D01*
X126898400Y-71831200D01*
X125704586Y-71831200D01*
X125583919Y-72061091D01*
X124078600Y-72061091D01*
X124078600Y-69521091D01*
X125583919Y-69521091D01*
X125681243Y-69795452D01*
X125830222Y-70045555D01*
X126025131Y-70261788D01*
X126256280Y-70434200D01*
X126025131Y-70606612D01*
X125830222Y-70822845D01*
X125681243Y-71072948D01*
X125583919Y-71347309D01*
X125704586Y-71577200D01*
X126898400Y-71577200D01*
X126898400Y-69291200D01*
X125704586Y-69291200D01*
X125583919Y-69521091D01*
X124078600Y-69521091D01*
X124078600Y-66981091D01*
X125583919Y-66981091D01*
X125681243Y-67255452D01*
X125830222Y-67505555D01*
X126025131Y-67721788D01*
X126256280Y-67894200D01*
X126025131Y-68066612D01*
X125830222Y-68282845D01*
X125681243Y-68532948D01*
X125583919Y-68807309D01*
X125704586Y-69037200D01*
X126898400Y-69037200D01*
X126898400Y-66751200D01*
X125704586Y-66751200D01*
X125583919Y-66981091D01*
X124078600Y-66981091D01*
X124078600Y-64441091D01*
X125583919Y-64441091D01*
X125681243Y-64715452D01*
X125830222Y-64965555D01*
X126025131Y-65181788D01*
X126256280Y-65354200D01*
X126025131Y-65526612D01*
X125830222Y-65742845D01*
X125681243Y-65992948D01*
X125583919Y-66267309D01*
X125704586Y-66497200D01*
X126898400Y-66497200D01*
X126898400Y-64211200D01*
X125704586Y-64211200D01*
X125583919Y-64441091D01*
X124078600Y-64441091D01*
X124078600Y-63727309D01*
X125583919Y-63727309D01*
X125704586Y-63957200D01*
X126898400Y-63957200D01*
X126898400Y-62764045D01*
X126668510Y-62642724D01*
X126521301Y-62687375D01*
X126258480Y-62812559D01*
X126025131Y-62986612D01*
X125830222Y-63202845D01*
X125681243Y-63452948D01*
X125583919Y-63727309D01*
X124078600Y-63727309D01*
X124078600Y-58461389D01*
X130641000Y-58461389D01*
X130641000Y-58734211D01*
X130694225Y-59001789D01*
X130798629Y-59253843D01*
X130950201Y-59480686D01*
X131143114Y-59673599D01*
X131369957Y-59825171D01*
X131622011Y-59929575D01*
X131889589Y-59982800D01*
X132162411Y-59982800D01*
X132429989Y-59929575D01*
X132682043Y-59825171D01*
X132908886Y-59673599D01*
X133101799Y-59480686D01*
X133253371Y-59253843D01*
X133357775Y-59001789D01*
X133411000Y-58734211D01*
X133411000Y-58461389D01*
X135521000Y-58461389D01*
X135521000Y-58734211D01*
X135574225Y-59001789D01*
X135678629Y-59253843D01*
X135830201Y-59480686D01*
X136023114Y-59673599D01*
X136249957Y-59825171D01*
X136502011Y-59929575D01*
X136769589Y-59982800D01*
X137042411Y-59982800D01*
X137309989Y-59929575D01*
X137562043Y-59825171D01*
X137788886Y-59673599D01*
X137981799Y-59480686D01*
X138133371Y-59253843D01*
X138237775Y-59001789D01*
X138291000Y-58734211D01*
X138291000Y-58461389D01*
X138250192Y-58256233D01*
X151248672Y-58256233D01*
X151311165Y-58492550D01*
X151553878Y-58605950D01*
X151814049Y-58669819D01*
X152081682Y-58681704D01*
X152346491Y-58641148D01*
X152598300Y-58549709D01*
X152705235Y-58492550D01*
X152767728Y-58256233D01*
X156248672Y-58256233D01*
X156311165Y-58492550D01*
X156553878Y-58605950D01*
X156814049Y-58669819D01*
X157081682Y-58681704D01*
X157346491Y-58641148D01*
X157598300Y-58549709D01*
X157705235Y-58492550D01*
X157767728Y-58256233D01*
X157008200Y-57496705D01*
X156248672Y-58256233D01*
X152767728Y-58256233D01*
X152008200Y-57496705D01*
X151248672Y-58256233D01*
X138250192Y-58256233D01*
X138237775Y-58193811D01*
X138133371Y-57941757D01*
X137981799Y-57714914D01*
X137788886Y-57522001D01*
X137592205Y-57390582D01*
X150643596Y-57390582D01*
X150684152Y-57655391D01*
X150775591Y-57907200D01*
X150832750Y-58014135D01*
X151069067Y-58076628D01*
X151828595Y-57317100D01*
X152187805Y-57317100D01*
X152947333Y-58076628D01*
X153183650Y-58014135D01*
X153297050Y-57771422D01*
X153360919Y-57511251D01*
X153366277Y-57390582D01*
X155643596Y-57390582D01*
X155684152Y-57655391D01*
X155775591Y-57907200D01*
X155832750Y-58014135D01*
X156069067Y-58076628D01*
X156828595Y-57317100D01*
X157187805Y-57317100D01*
X157947333Y-58076628D01*
X158183650Y-58014135D01*
X158297050Y-57771422D01*
X158360919Y-57511251D01*
X158372804Y-57243618D01*
X158332248Y-56978809D01*
X158240809Y-56727000D01*
X158183650Y-56620065D01*
X157947333Y-56557572D01*
X157187805Y-57317100D01*
X156828595Y-57317100D01*
X156069067Y-56557572D01*
X155832750Y-56620065D01*
X155719350Y-56862778D01*
X155655481Y-57122949D01*
X155643596Y-57390582D01*
X153366277Y-57390582D01*
X153372804Y-57243618D01*
X153332248Y-56978809D01*
X153240809Y-56727000D01*
X153183650Y-56620065D01*
X152947333Y-56557572D01*
X152187805Y-57317100D01*
X151828595Y-57317100D01*
X151069067Y-56557572D01*
X150832750Y-56620065D01*
X150719350Y-56862778D01*
X150655481Y-57122949D01*
X150643596Y-57390582D01*
X137592205Y-57390582D01*
X137562043Y-57370429D01*
X137309989Y-57266025D01*
X137042411Y-57212800D01*
X136769589Y-57212800D01*
X136502011Y-57266025D01*
X136249957Y-57370429D01*
X136023114Y-57522001D01*
X135830201Y-57714914D01*
X135678629Y-57941757D01*
X135574225Y-58193811D01*
X135521000Y-58461389D01*
X133411000Y-58461389D01*
X133357775Y-58193811D01*
X133253371Y-57941757D01*
X133101799Y-57714914D01*
X132908886Y-57522001D01*
X132682043Y-57370429D01*
X132429989Y-57266025D01*
X132162411Y-57212800D01*
X131889589Y-57212800D01*
X131622011Y-57266025D01*
X131369957Y-57370429D01*
X131143114Y-57522001D01*
X130950201Y-57714914D01*
X130798629Y-57941757D01*
X130694225Y-58193811D01*
X130641000Y-58461389D01*
X124078600Y-58461389D01*
X124078600Y-54464517D01*
X124223600Y-54464517D01*
X124223600Y-54806283D01*
X124290275Y-55141481D01*
X124421063Y-55457231D01*
X124610937Y-55741398D01*
X124852602Y-55983063D01*
X125136769Y-56172937D01*
X125452519Y-56303725D01*
X125787717Y-56370400D01*
X126129483Y-56370400D01*
X126464681Y-56303725D01*
X126780431Y-56172937D01*
X127064598Y-55983063D01*
X127306263Y-55741398D01*
X127496137Y-55457231D01*
X127626925Y-55141481D01*
X127693600Y-54806283D01*
X127693600Y-54744100D01*
X149773200Y-54744100D01*
X149773200Y-55094100D01*
X149821707Y-55332596D01*
X149915810Y-55557046D01*
X150051893Y-55758825D01*
X150224726Y-55930178D01*
X150427667Y-56064521D01*
X150652918Y-56156691D01*
X150690591Y-56160562D01*
X150881200Y-56035831D01*
X150881200Y-54744100D01*
X151135200Y-54744100D01*
X151135200Y-56035831D01*
X151309062Y-56149603D01*
X151248672Y-56377967D01*
X152008200Y-57137495D01*
X152767728Y-56377967D01*
X156248672Y-56377967D01*
X157008200Y-57137495D01*
X157767728Y-56377967D01*
X157707338Y-56149603D01*
X157881200Y-56035831D01*
X157881200Y-54744100D01*
X158135200Y-54744100D01*
X158135200Y-56035831D01*
X158325809Y-56160562D01*
X158363482Y-56156691D01*
X158588733Y-56064521D01*
X158791674Y-55930178D01*
X158964507Y-55758825D01*
X159100590Y-55557046D01*
X159194693Y-55332596D01*
X159243200Y-55094100D01*
X159243200Y-54744100D01*
X158135200Y-54744100D01*
X157881200Y-54744100D01*
X156773200Y-54744100D01*
X156773200Y-55094100D01*
X156821707Y-55332596D01*
X156915810Y-55557046D01*
X157051893Y-55758825D01*
X157224726Y-55930178D01*
X157320036Y-55993271D01*
X157202351Y-55964381D01*
X156934718Y-55952496D01*
X156669909Y-55993052D01*
X156418100Y-56084491D01*
X156311165Y-56141650D01*
X156248672Y-56377967D01*
X152767728Y-56377967D01*
X152705235Y-56141650D01*
X152462522Y-56028250D01*
X152202351Y-55964381D01*
X151934718Y-55952496D01*
X151704758Y-55987715D01*
X151791674Y-55930178D01*
X151964507Y-55758825D01*
X152100590Y-55557046D01*
X152194693Y-55332596D01*
X152243200Y-55094100D01*
X152243200Y-54744100D01*
X151135200Y-54744100D01*
X150881200Y-54744100D01*
X149773200Y-54744100D01*
X127693600Y-54744100D01*
X127693600Y-54464517D01*
X127629070Y-54140100D01*
X149773200Y-54140100D01*
X149773200Y-54490100D01*
X150881200Y-54490100D01*
X150881200Y-53198369D01*
X151135200Y-53198369D01*
X151135200Y-54490100D01*
X152243200Y-54490100D01*
X152243200Y-54140100D01*
X156773200Y-54140100D01*
X156773200Y-54490100D01*
X157881200Y-54490100D01*
X157881200Y-53198369D01*
X158135200Y-53198369D01*
X158135200Y-54490100D01*
X159243200Y-54490100D01*
X159243200Y-54140100D01*
X159194693Y-53901604D01*
X159100590Y-53677154D01*
X158964507Y-53475375D01*
X158791674Y-53304022D01*
X158588733Y-53169679D01*
X158363482Y-53077509D01*
X158325809Y-53073638D01*
X158135200Y-53198369D01*
X157881200Y-53198369D01*
X157690591Y-53073638D01*
X157652918Y-53077509D01*
X157427667Y-53169679D01*
X157224726Y-53304022D01*
X157051893Y-53475375D01*
X156915810Y-53677154D01*
X156821707Y-53901604D01*
X156773200Y-54140100D01*
X152243200Y-54140100D01*
X152194693Y-53901604D01*
X152100590Y-53677154D01*
X151964507Y-53475375D01*
X151791674Y-53304022D01*
X151588733Y-53169679D01*
X151363482Y-53077509D01*
X151325809Y-53073638D01*
X151135200Y-53198369D01*
X150881200Y-53198369D01*
X150690591Y-53073638D01*
X150652918Y-53077509D01*
X150427667Y-53169679D01*
X150224726Y-53304022D01*
X150051893Y-53475375D01*
X149915810Y-53677154D01*
X149821707Y-53901604D01*
X149773200Y-54140100D01*
X127629070Y-54140100D01*
X127626925Y-54129319D01*
X127496137Y-53813569D01*
X127306263Y-53529402D01*
X127064598Y-53287737D01*
X126780431Y-53097863D01*
X126464681Y-52967075D01*
X126129483Y-52900400D01*
X125787717Y-52900400D01*
X125452519Y-52967075D01*
X125136769Y-53097863D01*
X124852602Y-53287737D01*
X124610937Y-53529402D01*
X124421063Y-53813569D01*
X124290275Y-54129319D01*
X124223600Y-54464517D01*
X124078600Y-54464517D01*
X124078600Y-52755400D01*
X182702600Y-52755400D01*
X182702600Y-61849844D01*
G36*
X164580244Y-68105844D02*
G01*
X164541200Y-68302133D01*
X164541200Y-68502267D01*
X164580244Y-68698556D01*
X164656832Y-68883456D01*
X164768021Y-69049862D01*
X164909538Y-69191379D01*
X165075944Y-69302568D01*
X165260844Y-69379156D01*
X165457133Y-69418200D01*
X165657267Y-69418200D01*
X165853556Y-69379156D01*
X166038456Y-69302568D01*
X166150504Y-69227700D01*
X166674800Y-69227700D01*
X166674800Y-69365867D01*
X166713844Y-69562156D01*
X166790432Y-69747056D01*
X166865300Y-69859104D01*
X166865301Y-79588440D01*
X166861306Y-79629000D01*
X166877245Y-79790826D01*
X166924447Y-79946433D01*
X167001101Y-80089842D01*
X167062663Y-80164854D01*
X167104260Y-80215541D01*
X167135761Y-80241393D01*
X171792900Y-84898534D01*
X171792900Y-85961483D01*
X171753267Y-85953600D01*
X171553133Y-85953600D01*
X171356844Y-85992644D01*
X171171944Y-86069232D01*
X171059896Y-86144100D01*
X164956704Y-86144100D01*
X164844656Y-86069232D01*
X164659756Y-85992644D01*
X164463467Y-85953600D01*
X164263333Y-85953600D01*
X164067044Y-85992644D01*
X163882144Y-86069232D01*
X163715738Y-86180421D01*
X163574221Y-86321938D01*
X163463032Y-86488344D01*
X163386444Y-86673244D01*
X163347400Y-86869533D01*
X163347400Y-87069667D01*
X163386444Y-87265956D01*
X163463032Y-87450856D01*
X163574221Y-87617262D01*
X163715738Y-87758779D01*
X163882144Y-87869968D01*
X164067044Y-87946556D01*
X164263333Y-87985600D01*
X164463467Y-87985600D01*
X164659756Y-87946556D01*
X164844656Y-87869968D01*
X164956704Y-87795100D01*
X171059896Y-87795100D01*
X171171944Y-87869968D01*
X171356844Y-87946556D01*
X171553133Y-87985600D01*
X171753267Y-87985600D01*
X171792900Y-87977716D01*
X171792901Y-91936266D01*
X168608966Y-95120202D01*
X168577459Y-95146059D01*
X168544270Y-95186501D01*
X168474301Y-95271758D01*
X168458778Y-95300800D01*
X168397647Y-95415167D01*
X168350444Y-95570775D01*
X168339139Y-95685558D01*
X168334506Y-95732600D01*
X168338500Y-95773151D01*
X168338501Y-98554015D01*
X168334986Y-98555894D01*
X168108866Y-98741466D01*
X167923294Y-98967586D01*
X167888799Y-99032123D01*
X167819178Y-98915245D01*
X167624269Y-98699012D01*
X167390920Y-98524959D01*
X167128099Y-98399775D01*
X166980890Y-98355124D01*
X166751000Y-98476445D01*
X166751000Y-99669600D01*
X166771000Y-99669600D01*
X166771000Y-99923600D01*
X166751000Y-99923600D01*
X166751000Y-101116755D01*
X166980890Y-101238076D01*
X167128099Y-101193425D01*
X167390920Y-101068241D01*
X167624269Y-100894188D01*
X167819178Y-100677955D01*
X167888799Y-100561077D01*
X167923294Y-100625614D01*
X168108866Y-100851734D01*
X168334986Y-101037306D01*
X168592966Y-101175199D01*
X168872889Y-101260113D01*
X169091050Y-101281600D01*
X169236950Y-101281600D01*
X169455111Y-101260113D01*
X169735034Y-101175199D01*
X169993014Y-101037306D01*
X170219134Y-100851734D01*
X170404706Y-100625614D01*
X170434000Y-100570809D01*
X170463294Y-100625614D01*
X170648866Y-100851734D01*
X170874986Y-101037306D01*
X171132966Y-101175199D01*
X171412889Y-101260113D01*
X171631050Y-101281600D01*
X171776950Y-101281600D01*
X171995111Y-101260113D01*
X172275034Y-101175199D01*
X172533014Y-101037306D01*
X172759134Y-100851734D01*
X172944706Y-100625614D01*
X172974000Y-100570809D01*
X173003294Y-100625614D01*
X173188866Y-100851734D01*
X173414986Y-101037306D01*
X173672966Y-101175199D01*
X173952889Y-101260113D01*
X174135108Y-101278060D01*
X172911468Y-102501700D01*
X164483725Y-102501700D01*
X164577968Y-102360656D01*
X164654556Y-102175756D01*
X164693600Y-101979467D01*
X164693600Y-101779333D01*
X164654556Y-101583044D01*
X164577968Y-101398144D01*
X164503100Y-101286096D01*
X164503100Y-100153491D01*
X165182519Y-100153491D01*
X165279843Y-100427852D01*
X165428822Y-100677955D01*
X165623731Y-100894188D01*
X165857080Y-101068241D01*
X166119901Y-101193425D01*
X166267110Y-101238076D01*
X166497000Y-101116755D01*
X166497000Y-99923600D01*
X165303186Y-99923600D01*
X165182519Y-100153491D01*
X164503100Y-100153491D01*
X164503100Y-99439709D01*
X165182519Y-99439709D01*
X165303186Y-99669600D01*
X166497000Y-99669600D01*
X166497000Y-98476445D01*
X166267110Y-98355124D01*
X166119901Y-98399775D01*
X165857080Y-98524959D01*
X165623731Y-98699012D01*
X165428822Y-98915245D01*
X165279843Y-99165348D01*
X165182519Y-99439709D01*
X164503100Y-99439709D01*
X164503100Y-96281150D01*
X164507094Y-96240600D01*
X164501162Y-96180374D01*
X164491156Y-96078774D01*
X164443953Y-95923166D01*
X164418849Y-95876200D01*
X164367299Y-95779757D01*
X164297361Y-95694538D01*
X164264141Y-95654059D01*
X164232641Y-95628208D01*
X162281398Y-93676965D01*
X162380856Y-93635768D01*
X162547262Y-93524579D01*
X162688779Y-93383062D01*
X162799968Y-93216656D01*
X162876556Y-93031756D01*
X162915600Y-92835467D01*
X162915600Y-92635333D01*
X162876556Y-92439044D01*
X162799968Y-92254144D01*
X162725100Y-92142096D01*
X162725100Y-75754532D01*
X162747676Y-75731956D01*
X162751489Y-75733113D01*
X162969650Y-75754600D01*
X163115550Y-75754600D01*
X163333711Y-75733113D01*
X163613634Y-75648199D01*
X163871614Y-75510306D01*
X164097734Y-75324734D01*
X164283306Y-75098614D01*
X164421199Y-74840634D01*
X164506113Y-74560711D01*
X164534785Y-74269600D01*
X164506113Y-73978489D01*
X164421199Y-73698566D01*
X164283306Y-73440586D01*
X164097734Y-73214466D01*
X163871614Y-73028894D01*
X163807077Y-72994399D01*
X163923955Y-72924778D01*
X164140188Y-72729869D01*
X164314241Y-72496520D01*
X164439425Y-72233699D01*
X164484076Y-72086490D01*
X164362755Y-71856600D01*
X163169600Y-71856600D01*
X163169600Y-71876600D01*
X162915600Y-71876600D01*
X162915600Y-71856600D01*
X162895600Y-71856600D01*
X162895600Y-71602600D01*
X162915600Y-71602600D01*
X162915600Y-71582600D01*
X163169600Y-71582600D01*
X163169600Y-71602600D01*
X164362755Y-71602600D01*
X164484076Y-71372710D01*
X164439425Y-71225501D01*
X164314241Y-70962680D01*
X164140188Y-70729331D01*
X163923955Y-70534422D01*
X163807077Y-70464801D01*
X163871614Y-70430306D01*
X164097734Y-70244734D01*
X164283306Y-70018614D01*
X164421199Y-69760634D01*
X164506113Y-69480711D01*
X164534785Y-69189600D01*
X164506113Y-68898489D01*
X164421199Y-68618566D01*
X164283306Y-68360586D01*
X164097734Y-68134466D01*
X163871614Y-67948894D01*
X163840569Y-67932300D01*
X164652128Y-67932300D01*
X164580244Y-68105844D01*
X164580244Y-68105844D01*
G37*
X164580244Y-68105844D02*
X164541200Y-68302133D01*
X164541200Y-68502267D01*
X164580244Y-68698556D01*
X164656832Y-68883456D01*
X164768021Y-69049862D01*
X164909538Y-69191379D01*
X165075944Y-69302568D01*
X165260844Y-69379156D01*
X165457133Y-69418200D01*
X165657267Y-69418200D01*
X165853556Y-69379156D01*
X166038456Y-69302568D01*
X166150504Y-69227700D01*
X166674800Y-69227700D01*
X166674800Y-69365867D01*
X166713844Y-69562156D01*
X166790432Y-69747056D01*
X166865300Y-69859104D01*
X166865301Y-79588440D01*
X166861306Y-79629000D01*
X166877245Y-79790826D01*
X166924447Y-79946433D01*
X167001101Y-80089842D01*
X167062663Y-80164854D01*
X167104260Y-80215541D01*
X167135761Y-80241393D01*
X171792900Y-84898534D01*
X171792900Y-85961483D01*
X171753267Y-85953600D01*
X171553133Y-85953600D01*
X171356844Y-85992644D01*
X171171944Y-86069232D01*
X171059896Y-86144100D01*
X164956704Y-86144100D01*
X164844656Y-86069232D01*
X164659756Y-85992644D01*
X164463467Y-85953600D01*
X164263333Y-85953600D01*
X164067044Y-85992644D01*
X163882144Y-86069232D01*
X163715738Y-86180421D01*
X163574221Y-86321938D01*
X163463032Y-86488344D01*
X163386444Y-86673244D01*
X163347400Y-86869533D01*
X163347400Y-87069667D01*
X163386444Y-87265956D01*
X163463032Y-87450856D01*
X163574221Y-87617262D01*
X163715738Y-87758779D01*
X163882144Y-87869968D01*
X164067044Y-87946556D01*
X164263333Y-87985600D01*
X164463467Y-87985600D01*
X164659756Y-87946556D01*
X164844656Y-87869968D01*
X164956704Y-87795100D01*
X171059896Y-87795100D01*
X171171944Y-87869968D01*
X171356844Y-87946556D01*
X171553133Y-87985600D01*
X171753267Y-87985600D01*
X171792900Y-87977716D01*
X171792901Y-91936266D01*
X168608966Y-95120202D01*
X168577459Y-95146059D01*
X168544270Y-95186501D01*
X168474301Y-95271758D01*
X168458778Y-95300800D01*
X168397647Y-95415167D01*
X168350444Y-95570775D01*
X168339139Y-95685558D01*
X168334506Y-95732600D01*
X168338500Y-95773151D01*
X168338501Y-98554015D01*
X168334986Y-98555894D01*
X168108866Y-98741466D01*
X167923294Y-98967586D01*
X167888799Y-99032123D01*
X167819178Y-98915245D01*
X167624269Y-98699012D01*
X167390920Y-98524959D01*
X167128099Y-98399775D01*
X166980890Y-98355124D01*
X166751000Y-98476445D01*
X166751000Y-99669600D01*
X166771000Y-99669600D01*
X166771000Y-99923600D01*
X166751000Y-99923600D01*
X166751000Y-101116755D01*
X166980890Y-101238076D01*
X167128099Y-101193425D01*
X167390920Y-101068241D01*
X167624269Y-100894188D01*
X167819178Y-100677955D01*
X167888799Y-100561077D01*
X167923294Y-100625614D01*
X168108866Y-100851734D01*
X168334986Y-101037306D01*
X168592966Y-101175199D01*
X168872889Y-101260113D01*
X169091050Y-101281600D01*
X169236950Y-101281600D01*
X169455111Y-101260113D01*
X169735034Y-101175199D01*
X169993014Y-101037306D01*
X170219134Y-100851734D01*
X170404706Y-100625614D01*
X170434000Y-100570809D01*
X170463294Y-100625614D01*
X170648866Y-100851734D01*
X170874986Y-101037306D01*
X171132966Y-101175199D01*
X171412889Y-101260113D01*
X171631050Y-101281600D01*
X171776950Y-101281600D01*
X171995111Y-101260113D01*
X172275034Y-101175199D01*
X172533014Y-101037306D01*
X172759134Y-100851734D01*
X172944706Y-100625614D01*
X172974000Y-100570809D01*
X173003294Y-100625614D01*
X173188866Y-100851734D01*
X173414986Y-101037306D01*
X173672966Y-101175199D01*
X173952889Y-101260113D01*
X174135108Y-101278060D01*
X172911468Y-102501700D01*
X164483725Y-102501700D01*
X164577968Y-102360656D01*
X164654556Y-102175756D01*
X164693600Y-101979467D01*
X164693600Y-101779333D01*
X164654556Y-101583044D01*
X164577968Y-101398144D01*
X164503100Y-101286096D01*
X164503100Y-100153491D01*
X165182519Y-100153491D01*
X165279843Y-100427852D01*
X165428822Y-100677955D01*
X165623731Y-100894188D01*
X165857080Y-101068241D01*
X166119901Y-101193425D01*
X166267110Y-101238076D01*
X166497000Y-101116755D01*
X166497000Y-99923600D01*
X165303186Y-99923600D01*
X165182519Y-100153491D01*
X164503100Y-100153491D01*
X164503100Y-99439709D01*
X165182519Y-99439709D01*
X165303186Y-99669600D01*
X166497000Y-99669600D01*
X166497000Y-98476445D01*
X166267110Y-98355124D01*
X166119901Y-98399775D01*
X165857080Y-98524959D01*
X165623731Y-98699012D01*
X165428822Y-98915245D01*
X165279843Y-99165348D01*
X165182519Y-99439709D01*
X164503100Y-99439709D01*
X164503100Y-96281150D01*
X164507094Y-96240600D01*
X164501162Y-96180374D01*
X164491156Y-96078774D01*
X164443953Y-95923166D01*
X164418849Y-95876200D01*
X164367299Y-95779757D01*
X164297361Y-95694538D01*
X164264141Y-95654059D01*
X164232641Y-95628208D01*
X162281398Y-93676965D01*
X162380856Y-93635768D01*
X162547262Y-93524579D01*
X162688779Y-93383062D01*
X162799968Y-93216656D01*
X162876556Y-93031756D01*
X162915600Y-92835467D01*
X162915600Y-92635333D01*
X162876556Y-92439044D01*
X162799968Y-92254144D01*
X162725100Y-92142096D01*
X162725100Y-75754532D01*
X162747676Y-75731956D01*
X162751489Y-75733113D01*
X162969650Y-75754600D01*
X163115550Y-75754600D01*
X163333711Y-75733113D01*
X163613634Y-75648199D01*
X163871614Y-75510306D01*
X164097734Y-75324734D01*
X164283306Y-75098614D01*
X164421199Y-74840634D01*
X164506113Y-74560711D01*
X164534785Y-74269600D01*
X164506113Y-73978489D01*
X164421199Y-73698566D01*
X164283306Y-73440586D01*
X164097734Y-73214466D01*
X163871614Y-73028894D01*
X163807077Y-72994399D01*
X163923955Y-72924778D01*
X164140188Y-72729869D01*
X164314241Y-72496520D01*
X164439425Y-72233699D01*
X164484076Y-72086490D01*
X164362755Y-71856600D01*
X163169600Y-71856600D01*
X163169600Y-71876600D01*
X162915600Y-71876600D01*
X162915600Y-71856600D01*
X162895600Y-71856600D01*
X162895600Y-71602600D01*
X162915600Y-71602600D01*
X162915600Y-71582600D01*
X163169600Y-71582600D01*
X163169600Y-71602600D01*
X164362755Y-71602600D01*
X164484076Y-71372710D01*
X164439425Y-71225501D01*
X164314241Y-70962680D01*
X164140188Y-70729331D01*
X163923955Y-70534422D01*
X163807077Y-70464801D01*
X163871614Y-70430306D01*
X164097734Y-70244734D01*
X164283306Y-70018614D01*
X164421199Y-69760634D01*
X164506113Y-69480711D01*
X164534785Y-69189600D01*
X164506113Y-68898489D01*
X164421199Y-68618566D01*
X164283306Y-68360586D01*
X164097734Y-68134466D01*
X163871614Y-67948894D01*
X163840569Y-67932300D01*
X164652128Y-67932300D01*
X164580244Y-68105844D01*
G36*
X180276500Y-63791134D02*
G01*
X180276501Y-98318623D01*
X180174000Y-98308528D01*
X178474000Y-98308528D01*
X178349518Y-98320788D01*
X178229820Y-98357098D01*
X178119506Y-98416063D01*
X178022815Y-98495415D01*
X177943463Y-98592106D01*
X177884498Y-98702420D01*
X177863607Y-98771287D01*
X177839134Y-98741466D01*
X177613014Y-98555894D01*
X177355034Y-98418001D01*
X177075111Y-98333087D01*
X176856950Y-98311600D01*
X176711050Y-98311600D01*
X176492889Y-98333087D01*
X176212966Y-98418001D01*
X175954986Y-98555894D01*
X175728866Y-98741466D01*
X175543294Y-98967586D01*
X175514000Y-99022391D01*
X175484706Y-98967586D01*
X175299134Y-98741466D01*
X175073014Y-98555894D01*
X175069500Y-98554016D01*
X175069500Y-75972933D01*
X175641000Y-75972933D01*
X175641000Y-76173067D01*
X175680044Y-76369356D01*
X175756632Y-76554256D01*
X175867821Y-76720662D01*
X176009338Y-76862179D01*
X176175744Y-76973368D01*
X176360644Y-77049956D01*
X176556933Y-77089000D01*
X176757067Y-77089000D01*
X176953356Y-77049956D01*
X177138256Y-76973368D01*
X177304662Y-76862179D01*
X177446179Y-76720662D01*
X177557368Y-76554256D01*
X177633956Y-76369356D01*
X177660246Y-76237187D01*
X177999444Y-75897989D01*
X178030941Y-75872141D01*
X178056789Y-75840645D01*
X178056792Y-75840642D01*
X178134099Y-75746443D01*
X178210753Y-75603034D01*
X178226154Y-75552262D01*
X178257956Y-75447426D01*
X178269900Y-75326153D01*
X178269900Y-75326151D01*
X178273894Y-75285600D01*
X178269900Y-75245050D01*
X178269900Y-72399104D01*
X178344768Y-72287056D01*
X178421356Y-72102156D01*
X178460400Y-71905867D01*
X178460400Y-71705733D01*
X178421356Y-71509444D01*
X178344768Y-71324544D01*
X178233579Y-71158138D01*
X178092062Y-71016621D01*
X177925656Y-70905432D01*
X177740756Y-70828844D01*
X177544467Y-70789800D01*
X177344333Y-70789800D01*
X177148044Y-70828844D01*
X176963144Y-70905432D01*
X176796738Y-71016621D01*
X176655221Y-71158138D01*
X176544032Y-71324544D01*
X176467444Y-71509444D01*
X176428400Y-71705733D01*
X176428400Y-71905867D01*
X176467444Y-72102156D01*
X176544032Y-72287056D01*
X176618900Y-72399104D01*
X176618901Y-74943666D01*
X176492813Y-75069754D01*
X176360644Y-75096044D01*
X176175744Y-75172632D01*
X176009338Y-75283821D01*
X175867821Y-75425338D01*
X175756632Y-75591744D01*
X175680044Y-75776644D01*
X175641000Y-75972933D01*
X175069500Y-75972933D01*
X175069500Y-74788176D01*
X175073494Y-74747626D01*
X175069500Y-74707073D01*
X175057556Y-74585800D01*
X175010353Y-74430192D01*
X174944844Y-74307634D01*
X174933699Y-74286783D01*
X174856392Y-74192585D01*
X174830541Y-74161085D01*
X174799041Y-74135234D01*
X168596106Y-67932300D01*
X168672296Y-67932300D01*
X168784344Y-68007168D01*
X168969244Y-68083756D01*
X169165533Y-68122800D01*
X169365667Y-68122800D01*
X169561956Y-68083756D01*
X169746856Y-68007168D01*
X169913262Y-67895979D01*
X170054779Y-67754462D01*
X170165968Y-67588056D01*
X170242556Y-67403156D01*
X170281600Y-67206867D01*
X170281600Y-67006733D01*
X170245113Y-66823300D01*
X177570896Y-66823300D01*
X177682944Y-66898168D01*
X177867844Y-66974756D01*
X178064133Y-67013800D01*
X178264267Y-67013800D01*
X178460556Y-66974756D01*
X178645456Y-66898168D01*
X178811862Y-66786979D01*
X178953379Y-66645462D01*
X179064568Y-66479056D01*
X179141156Y-66294156D01*
X179180200Y-66097867D01*
X179180200Y-65897733D01*
X179141156Y-65701444D01*
X179064568Y-65516544D01*
X178953379Y-65350138D01*
X178876542Y-65273301D01*
X178904862Y-65254379D01*
X179046379Y-65112862D01*
X179157568Y-64946456D01*
X179234156Y-64761556D01*
X179273200Y-64565267D01*
X179273200Y-64365133D01*
X179234156Y-64168844D01*
X179157568Y-63983944D01*
X179046379Y-63817538D01*
X178904862Y-63676021D01*
X178837890Y-63631272D01*
X178955662Y-63552579D01*
X179097179Y-63411062D01*
X179208368Y-63244656D01*
X179284956Y-63059756D01*
X179324000Y-62863467D01*
X179324000Y-62838633D01*
X180276500Y-63791134D01*
X180276500Y-63791134D01*
G37*
X180276500Y-63791134D02*
X180276501Y-98318623D01*
X180174000Y-98308528D01*
X178474000Y-98308528D01*
X178349518Y-98320788D01*
X178229820Y-98357098D01*
X178119506Y-98416063D01*
X178022815Y-98495415D01*
X177943463Y-98592106D01*
X177884498Y-98702420D01*
X177863607Y-98771287D01*
X177839134Y-98741466D01*
X177613014Y-98555894D01*
X177355034Y-98418001D01*
X177075111Y-98333087D01*
X176856950Y-98311600D01*
X176711050Y-98311600D01*
X176492889Y-98333087D01*
X176212966Y-98418001D01*
X175954986Y-98555894D01*
X175728866Y-98741466D01*
X175543294Y-98967586D01*
X175514000Y-99022391D01*
X175484706Y-98967586D01*
X175299134Y-98741466D01*
X175073014Y-98555894D01*
X175069500Y-98554016D01*
X175069500Y-75972933D01*
X175641000Y-75972933D01*
X175641000Y-76173067D01*
X175680044Y-76369356D01*
X175756632Y-76554256D01*
X175867821Y-76720662D01*
X176009338Y-76862179D01*
X176175744Y-76973368D01*
X176360644Y-77049956D01*
X176556933Y-77089000D01*
X176757067Y-77089000D01*
X176953356Y-77049956D01*
X177138256Y-76973368D01*
X177304662Y-76862179D01*
X177446179Y-76720662D01*
X177557368Y-76554256D01*
X177633956Y-76369356D01*
X177660246Y-76237187D01*
X177999444Y-75897989D01*
X178030941Y-75872141D01*
X178056789Y-75840645D01*
X178056792Y-75840642D01*
X178134099Y-75746443D01*
X178210753Y-75603034D01*
X178226154Y-75552262D01*
X178257956Y-75447426D01*
X178269900Y-75326153D01*
X178269900Y-75326151D01*
X178273894Y-75285600D01*
X178269900Y-75245050D01*
X178269900Y-72399104D01*
X178344768Y-72287056D01*
X178421356Y-72102156D01*
X178460400Y-71905867D01*
X178460400Y-71705733D01*
X178421356Y-71509444D01*
X178344768Y-71324544D01*
X178233579Y-71158138D01*
X178092062Y-71016621D01*
X177925656Y-70905432D01*
X177740756Y-70828844D01*
X177544467Y-70789800D01*
X177344333Y-70789800D01*
X177148044Y-70828844D01*
X176963144Y-70905432D01*
X176796738Y-71016621D01*
X176655221Y-71158138D01*
X176544032Y-71324544D01*
X176467444Y-71509444D01*
X176428400Y-71705733D01*
X176428400Y-71905867D01*
X176467444Y-72102156D01*
X176544032Y-72287056D01*
X176618900Y-72399104D01*
X176618901Y-74943666D01*
X176492813Y-75069754D01*
X176360644Y-75096044D01*
X176175744Y-75172632D01*
X176009338Y-75283821D01*
X175867821Y-75425338D01*
X175756632Y-75591744D01*
X175680044Y-75776644D01*
X175641000Y-75972933D01*
X175069500Y-75972933D01*
X175069500Y-74788176D01*
X175073494Y-74747626D01*
X175069500Y-74707073D01*
X175057556Y-74585800D01*
X175010353Y-74430192D01*
X174944844Y-74307634D01*
X174933699Y-74286783D01*
X174856392Y-74192585D01*
X174830541Y-74161085D01*
X174799041Y-74135234D01*
X168596106Y-67932300D01*
X168672296Y-67932300D01*
X168784344Y-68007168D01*
X168969244Y-68083756D01*
X169165533Y-68122800D01*
X169365667Y-68122800D01*
X169561956Y-68083756D01*
X169746856Y-68007168D01*
X169913262Y-67895979D01*
X170054779Y-67754462D01*
X170165968Y-67588056D01*
X170242556Y-67403156D01*
X170281600Y-67206867D01*
X170281600Y-67006733D01*
X170245113Y-66823300D01*
X177570896Y-66823300D01*
X177682944Y-66898168D01*
X177867844Y-66974756D01*
X178064133Y-67013800D01*
X178264267Y-67013800D01*
X178460556Y-66974756D01*
X178645456Y-66898168D01*
X178811862Y-66786979D01*
X178953379Y-66645462D01*
X179064568Y-66479056D01*
X179141156Y-66294156D01*
X179180200Y-66097867D01*
X179180200Y-65897733D01*
X179141156Y-65701444D01*
X179064568Y-65516544D01*
X178953379Y-65350138D01*
X178876542Y-65273301D01*
X178904862Y-65254379D01*
X179046379Y-65112862D01*
X179157568Y-64946456D01*
X179234156Y-64761556D01*
X179273200Y-64565267D01*
X179273200Y-64365133D01*
X179234156Y-64168844D01*
X179157568Y-63983944D01*
X179046379Y-63817538D01*
X178904862Y-63676021D01*
X178837890Y-63631272D01*
X178955662Y-63552579D01*
X179097179Y-63411062D01*
X179208368Y-63244656D01*
X179284956Y-63059756D01*
X179324000Y-62863467D01*
X179324000Y-62838633D01*
X180276500Y-63791134D01*
M02*
