G04 #@! TF.GenerationSoftware,KiCad,Pcbnew,(5.1.0)-1*
G04 #@! TF.CreationDate,2019-06-01T09:59:28+02:00*
G04 #@! TF.ProjectId,Main_board,4d61696e-5f62-46f6-9172-642e6b696361,V0-2*
G04 #@! TF.SameCoordinates,Original*
G04 #@! TF.FileFunction,Soldermask,Top*
G04 #@! TF.FilePolarity,Negative*
%FSLAX46Y46*%
G04 Gerber Fmt 4.6, Leading zero omitted, Abs format (unit mm)*
G04 Created by KiCad (PCBNEW (5.1.0)-1) date 2019-06-01 09:59:28*
%MOMM*%
%LPD*%
G04 APERTURE LIST*
%ADD10C,0.100000*%
G04 APERTURE END LIST*
D10*
G36*
X181047149Y-142533516D02*
G01*
X181158334Y-142555632D01*
X181367803Y-142642397D01*
X181556320Y-142768360D01*
X181716640Y-142928680D01*
X181842603Y-143117197D01*
X181929368Y-143326666D01*
X181973600Y-143549036D01*
X181973600Y-143775764D01*
X181929368Y-143998134D01*
X181842603Y-144207603D01*
X181716640Y-144396120D01*
X181556320Y-144556440D01*
X181367803Y-144682403D01*
X181158334Y-144769168D01*
X181047149Y-144791284D01*
X180935965Y-144813400D01*
X180709235Y-144813400D01*
X180598051Y-144791284D01*
X180486866Y-144769168D01*
X180277397Y-144682403D01*
X180088880Y-144556440D01*
X179928560Y-144396120D01*
X179802597Y-144207603D01*
X179715832Y-143998134D01*
X179671600Y-143775764D01*
X179671600Y-143549036D01*
X179715832Y-143326666D01*
X179802597Y-143117197D01*
X179928560Y-142928680D01*
X180088880Y-142768360D01*
X180277397Y-142642397D01*
X180486866Y-142555632D01*
X180598051Y-142533516D01*
X180709235Y-142511400D01*
X180935965Y-142511400D01*
X181047149Y-142533516D01*
X181047149Y-142533516D01*
G37*
G36*
X126183149Y-142533516D02*
G01*
X126294334Y-142555632D01*
X126503803Y-142642397D01*
X126692320Y-142768360D01*
X126852640Y-142928680D01*
X126978603Y-143117197D01*
X127065368Y-143326666D01*
X127109600Y-143549036D01*
X127109600Y-143775764D01*
X127065368Y-143998134D01*
X126978603Y-144207603D01*
X126852640Y-144396120D01*
X126692320Y-144556440D01*
X126503803Y-144682403D01*
X126294334Y-144769168D01*
X126183149Y-144791284D01*
X126071965Y-144813400D01*
X125845235Y-144813400D01*
X125734051Y-144791284D01*
X125622866Y-144769168D01*
X125413397Y-144682403D01*
X125224880Y-144556440D01*
X125064560Y-144396120D01*
X124938597Y-144207603D01*
X124851832Y-143998134D01*
X124807600Y-143775764D01*
X124807600Y-143549036D01*
X124851832Y-143326666D01*
X124938597Y-143117197D01*
X125064560Y-142928680D01*
X125224880Y-142768360D01*
X125413397Y-142642397D01*
X125622866Y-142555632D01*
X125734051Y-142533516D01*
X125845235Y-142511400D01*
X126071965Y-142511400D01*
X126183149Y-142533516D01*
X126183149Y-142533516D01*
G37*
G36*
X161059991Y-143635285D02*
G01*
X161093969Y-143645593D01*
X161125290Y-143662334D01*
X161152739Y-143684861D01*
X161175266Y-143712310D01*
X161192007Y-143743631D01*
X161202315Y-143777609D01*
X161206400Y-143819090D01*
X161206400Y-144420310D01*
X161202315Y-144461791D01*
X161192007Y-144495769D01*
X161175266Y-144527090D01*
X161152739Y-144554539D01*
X161125290Y-144577066D01*
X161093969Y-144593807D01*
X161059991Y-144604115D01*
X161018510Y-144608200D01*
X160342290Y-144608200D01*
X160300809Y-144604115D01*
X160266831Y-144593807D01*
X160235510Y-144577066D01*
X160208061Y-144554539D01*
X160185534Y-144527090D01*
X160168793Y-144495769D01*
X160158485Y-144461791D01*
X160154400Y-144420310D01*
X160154400Y-143819090D01*
X160158485Y-143777609D01*
X160168793Y-143743631D01*
X160185534Y-143712310D01*
X160208061Y-143684861D01*
X160235510Y-143662334D01*
X160266831Y-143645593D01*
X160300809Y-143635285D01*
X160342290Y-143631200D01*
X161018510Y-143631200D01*
X161059991Y-143635285D01*
X161059991Y-143635285D01*
G37*
G36*
X165073191Y-143635285D02*
G01*
X165107169Y-143645593D01*
X165138490Y-143662334D01*
X165165939Y-143684861D01*
X165188466Y-143712310D01*
X165205207Y-143743631D01*
X165215515Y-143777609D01*
X165219600Y-143819090D01*
X165219600Y-144420310D01*
X165215515Y-144461791D01*
X165205207Y-144495769D01*
X165188466Y-144527090D01*
X165165939Y-144554539D01*
X165138490Y-144577066D01*
X165107169Y-144593807D01*
X165073191Y-144604115D01*
X165031710Y-144608200D01*
X164355490Y-144608200D01*
X164314009Y-144604115D01*
X164280031Y-144593807D01*
X164248710Y-144577066D01*
X164221261Y-144554539D01*
X164198734Y-144527090D01*
X164181993Y-144495769D01*
X164171685Y-144461791D01*
X164167600Y-144420310D01*
X164167600Y-143819090D01*
X164171685Y-143777609D01*
X164181993Y-143743631D01*
X164198734Y-143712310D01*
X164221261Y-143684861D01*
X164248710Y-143662334D01*
X164280031Y-143645593D01*
X164314009Y-143635285D01*
X164355490Y-143631200D01*
X165031710Y-143631200D01*
X165073191Y-143635285D01*
X165073191Y-143635285D01*
G37*
G36*
X150097443Y-141497919D02*
G01*
X150163627Y-141504437D01*
X150333466Y-141555957D01*
X150489991Y-141639622D01*
X150525729Y-141668952D01*
X150627186Y-141752214D01*
X150710448Y-141853671D01*
X150739778Y-141889409D01*
X150823443Y-142045934D01*
X150874963Y-142215773D01*
X150892359Y-142392400D01*
X150874963Y-142569027D01*
X150823443Y-142738866D01*
X150739778Y-142895391D01*
X150715767Y-142924648D01*
X150627186Y-143032586D01*
X150525729Y-143115848D01*
X150489991Y-143145178D01*
X150333466Y-143228843D01*
X150163627Y-143280363D01*
X150097442Y-143286882D01*
X150031260Y-143293400D01*
X149942740Y-143293400D01*
X149876558Y-143286882D01*
X149810373Y-143280363D01*
X149640534Y-143228843D01*
X149484009Y-143145178D01*
X149448271Y-143115848D01*
X149346814Y-143032586D01*
X149258233Y-142924648D01*
X149234222Y-142895391D01*
X149150557Y-142738866D01*
X149099037Y-142569027D01*
X149081641Y-142392400D01*
X149099037Y-142215773D01*
X149150557Y-142045934D01*
X149234222Y-141889409D01*
X149263552Y-141853671D01*
X149346814Y-141752214D01*
X149448271Y-141668952D01*
X149484009Y-141639622D01*
X149640534Y-141555957D01*
X149810373Y-141504437D01*
X149876557Y-141497919D01*
X149942740Y-141491400D01*
X150031260Y-141491400D01*
X150097443Y-141497919D01*
X150097443Y-141497919D01*
G37*
G36*
X145808000Y-143293400D02*
G01*
X144006000Y-143293400D01*
X144006000Y-141491400D01*
X145808000Y-141491400D01*
X145808000Y-143293400D01*
X145808000Y-143293400D01*
G37*
G36*
X147557443Y-141497919D02*
G01*
X147623627Y-141504437D01*
X147793466Y-141555957D01*
X147949991Y-141639622D01*
X147985729Y-141668952D01*
X148087186Y-141752214D01*
X148170448Y-141853671D01*
X148199778Y-141889409D01*
X148283443Y-142045934D01*
X148334963Y-142215773D01*
X148352359Y-142392400D01*
X148334963Y-142569027D01*
X148283443Y-142738866D01*
X148199778Y-142895391D01*
X148175767Y-142924648D01*
X148087186Y-143032586D01*
X147985729Y-143115848D01*
X147949991Y-143145178D01*
X147793466Y-143228843D01*
X147623627Y-143280363D01*
X147557442Y-143286882D01*
X147491260Y-143293400D01*
X147402740Y-143293400D01*
X147336558Y-143286882D01*
X147270373Y-143280363D01*
X147100534Y-143228843D01*
X146944009Y-143145178D01*
X146908271Y-143115848D01*
X146806814Y-143032586D01*
X146718233Y-142924648D01*
X146694222Y-142895391D01*
X146610557Y-142738866D01*
X146559037Y-142569027D01*
X146541641Y-142392400D01*
X146559037Y-142215773D01*
X146610557Y-142045934D01*
X146694222Y-141889409D01*
X146723552Y-141853671D01*
X146806814Y-141752214D01*
X146908271Y-141668952D01*
X146944009Y-141639622D01*
X147100534Y-141555957D01*
X147270373Y-141504437D01*
X147336557Y-141497919D01*
X147402740Y-141491400D01*
X147491260Y-141491400D01*
X147557443Y-141497919D01*
X147557443Y-141497919D01*
G37*
G36*
X161059991Y-142060285D02*
G01*
X161093969Y-142070593D01*
X161125290Y-142087334D01*
X161152739Y-142109861D01*
X161175266Y-142137310D01*
X161192007Y-142168631D01*
X161202315Y-142202609D01*
X161206400Y-142244090D01*
X161206400Y-142845310D01*
X161202315Y-142886791D01*
X161192007Y-142920769D01*
X161175266Y-142952090D01*
X161152739Y-142979539D01*
X161125290Y-143002066D01*
X161093969Y-143018807D01*
X161059991Y-143029115D01*
X161018510Y-143033200D01*
X160342290Y-143033200D01*
X160300809Y-143029115D01*
X160266831Y-143018807D01*
X160235510Y-143002066D01*
X160208061Y-142979539D01*
X160185534Y-142952090D01*
X160168793Y-142920769D01*
X160158485Y-142886791D01*
X160154400Y-142845310D01*
X160154400Y-142244090D01*
X160158485Y-142202609D01*
X160168793Y-142168631D01*
X160185534Y-142137310D01*
X160208061Y-142109861D01*
X160235510Y-142087334D01*
X160266831Y-142070593D01*
X160300809Y-142060285D01*
X160342290Y-142056200D01*
X161018510Y-142056200D01*
X161059991Y-142060285D01*
X161059991Y-142060285D01*
G37*
G36*
X165073191Y-142060285D02*
G01*
X165107169Y-142070593D01*
X165138490Y-142087334D01*
X165165939Y-142109861D01*
X165188466Y-142137310D01*
X165205207Y-142168631D01*
X165215515Y-142202609D01*
X165219600Y-142244090D01*
X165219600Y-142845310D01*
X165215515Y-142886791D01*
X165205207Y-142920769D01*
X165188466Y-142952090D01*
X165165939Y-142979539D01*
X165138490Y-143002066D01*
X165107169Y-143018807D01*
X165073191Y-143029115D01*
X165031710Y-143033200D01*
X164355490Y-143033200D01*
X164314009Y-143029115D01*
X164280031Y-143018807D01*
X164248710Y-143002066D01*
X164221261Y-142979539D01*
X164198734Y-142952090D01*
X164181993Y-142920769D01*
X164171685Y-142886791D01*
X164167600Y-142845310D01*
X164167600Y-142244090D01*
X164171685Y-142202609D01*
X164181993Y-142168631D01*
X164198734Y-142137310D01*
X164221261Y-142109861D01*
X164248710Y-142087334D01*
X164280031Y-142070593D01*
X164314009Y-142060285D01*
X164355490Y-142056200D01*
X165031710Y-142056200D01*
X165073191Y-142060285D01*
X165073191Y-142060285D01*
G37*
G36*
X175051597Y-138959251D02*
G01*
X175085252Y-138969461D01*
X175116265Y-138986038D01*
X175143451Y-139008349D01*
X175165762Y-139035535D01*
X175182339Y-139066548D01*
X175192549Y-139100203D01*
X175196600Y-139141338D01*
X175196600Y-141471062D01*
X175192549Y-141512197D01*
X175182339Y-141545852D01*
X175165762Y-141576865D01*
X175143451Y-141604051D01*
X175116265Y-141626362D01*
X175085252Y-141642939D01*
X175051597Y-141653149D01*
X175010462Y-141657200D01*
X173680738Y-141657200D01*
X173639603Y-141653149D01*
X173605948Y-141642939D01*
X173574935Y-141626362D01*
X173547749Y-141604051D01*
X173525438Y-141576865D01*
X173508861Y-141545852D01*
X173498651Y-141512197D01*
X173494600Y-141471062D01*
X173494600Y-139141338D01*
X173498651Y-139100203D01*
X173508861Y-139066548D01*
X173525438Y-139035535D01*
X173547749Y-139008349D01*
X173574935Y-138986038D01*
X173605948Y-138969461D01*
X173639603Y-138959251D01*
X173680738Y-138955200D01*
X175010462Y-138955200D01*
X175051597Y-138959251D01*
X175051597Y-138959251D01*
G37*
G36*
X159916989Y-138202276D02*
G01*
X160016293Y-138222029D01*
X160156606Y-138280148D01*
X160282884Y-138364525D01*
X160390275Y-138471916D01*
X160474652Y-138598194D01*
X160532771Y-138738507D01*
X160532771Y-138738509D01*
X160562400Y-138887462D01*
X160562400Y-139039338D01*
X160552524Y-139088989D01*
X160532771Y-139188293D01*
X160474652Y-139328606D01*
X160390275Y-139454884D01*
X160282884Y-139562275D01*
X160156606Y-139646652D01*
X160016293Y-139704771D01*
X159916989Y-139724524D01*
X159867338Y-139734400D01*
X159715462Y-139734400D01*
X159665811Y-139724524D01*
X159566507Y-139704771D01*
X159426194Y-139646652D01*
X159299916Y-139562275D01*
X159192525Y-139454884D01*
X159108148Y-139328606D01*
X159050029Y-139188293D01*
X159030276Y-139088989D01*
X159020400Y-139039338D01*
X159020400Y-138887462D01*
X159050029Y-138738509D01*
X159050029Y-138738507D01*
X159108148Y-138598194D01*
X159192525Y-138471916D01*
X159299916Y-138364525D01*
X159426194Y-138280148D01*
X159566507Y-138222029D01*
X159665811Y-138202276D01*
X159715462Y-138192400D01*
X159867338Y-138192400D01*
X159916989Y-138202276D01*
X159916989Y-138202276D01*
G37*
G36*
X165631989Y-138202276D02*
G01*
X165731293Y-138222029D01*
X165871606Y-138280148D01*
X165997884Y-138364525D01*
X166105275Y-138471916D01*
X166189652Y-138598194D01*
X166247771Y-138738507D01*
X166247771Y-138738509D01*
X166277400Y-138887462D01*
X166277400Y-139039338D01*
X166267524Y-139088989D01*
X166247771Y-139188293D01*
X166189652Y-139328606D01*
X166105275Y-139454884D01*
X165997884Y-139562275D01*
X165871606Y-139646652D01*
X165731293Y-139704771D01*
X165631989Y-139724524D01*
X165582338Y-139734400D01*
X165430462Y-139734400D01*
X165380811Y-139724524D01*
X165281507Y-139704771D01*
X165141194Y-139646652D01*
X165014916Y-139562275D01*
X164907525Y-139454884D01*
X164823148Y-139328606D01*
X164765029Y-139188293D01*
X164745276Y-139088989D01*
X164735400Y-139039338D01*
X164735400Y-138887462D01*
X164765029Y-138738509D01*
X164765029Y-138738507D01*
X164823148Y-138598194D01*
X164907525Y-138471916D01*
X165014916Y-138364525D01*
X165141194Y-138280148D01*
X165281507Y-138222029D01*
X165380811Y-138202276D01*
X165430462Y-138192400D01*
X165582338Y-138192400D01*
X165631989Y-138202276D01*
X165631989Y-138202276D01*
G37*
G36*
X175051597Y-135359251D02*
G01*
X175085252Y-135369461D01*
X175116265Y-135386038D01*
X175143451Y-135408349D01*
X175165762Y-135435535D01*
X175182339Y-135466548D01*
X175192549Y-135500203D01*
X175196600Y-135541338D01*
X175196600Y-137871062D01*
X175192549Y-137912197D01*
X175182339Y-137945852D01*
X175165762Y-137976865D01*
X175143451Y-138004051D01*
X175116265Y-138026362D01*
X175085252Y-138042939D01*
X175051597Y-138053149D01*
X175010462Y-138057200D01*
X173680738Y-138057200D01*
X173639603Y-138053149D01*
X173605948Y-138042939D01*
X173574935Y-138026362D01*
X173547749Y-138004051D01*
X173525438Y-137976865D01*
X173508861Y-137945852D01*
X173498651Y-137912197D01*
X173494600Y-137871062D01*
X173494600Y-135541338D01*
X173498651Y-135500203D01*
X173508861Y-135466548D01*
X173525438Y-135435535D01*
X173547749Y-135408349D01*
X173574935Y-135386038D01*
X173605948Y-135369461D01*
X173639603Y-135359251D01*
X173680738Y-135355200D01*
X175010462Y-135355200D01*
X175051597Y-135359251D01*
X175051597Y-135359251D01*
G37*
G36*
X159916989Y-135662276D02*
G01*
X160016293Y-135682029D01*
X160156606Y-135740148D01*
X160282884Y-135824525D01*
X160390275Y-135931916D01*
X160474652Y-136058194D01*
X160532771Y-136198507D01*
X160562400Y-136347463D01*
X160562400Y-136499337D01*
X160532771Y-136648293D01*
X160474652Y-136788606D01*
X160390275Y-136914884D01*
X160282884Y-137022275D01*
X160156606Y-137106652D01*
X160016293Y-137164771D01*
X159916989Y-137184524D01*
X159867338Y-137194400D01*
X159715462Y-137194400D01*
X159665811Y-137184524D01*
X159566507Y-137164771D01*
X159426194Y-137106652D01*
X159299916Y-137022275D01*
X159192525Y-136914884D01*
X159108148Y-136788606D01*
X159050029Y-136648293D01*
X159020400Y-136499337D01*
X159020400Y-136347463D01*
X159050029Y-136198507D01*
X159108148Y-136058194D01*
X159192525Y-135931916D01*
X159299916Y-135824525D01*
X159426194Y-135740148D01*
X159566507Y-135682029D01*
X159665811Y-135662276D01*
X159715462Y-135652400D01*
X159867338Y-135652400D01*
X159916989Y-135662276D01*
X159916989Y-135662276D01*
G37*
G36*
X165631989Y-135662276D02*
G01*
X165731293Y-135682029D01*
X165871606Y-135740148D01*
X165997884Y-135824525D01*
X166105275Y-135931916D01*
X166189652Y-136058194D01*
X166247771Y-136198507D01*
X166277400Y-136347463D01*
X166277400Y-136499337D01*
X166247771Y-136648293D01*
X166189652Y-136788606D01*
X166105275Y-136914884D01*
X165997884Y-137022275D01*
X165871606Y-137106652D01*
X165731293Y-137164771D01*
X165631989Y-137184524D01*
X165582338Y-137194400D01*
X165430462Y-137194400D01*
X165380811Y-137184524D01*
X165281507Y-137164771D01*
X165141194Y-137106652D01*
X165014916Y-137022275D01*
X164907525Y-136914884D01*
X164823148Y-136788606D01*
X164765029Y-136648293D01*
X164735400Y-136499337D01*
X164735400Y-136347463D01*
X164765029Y-136198507D01*
X164823148Y-136058194D01*
X164907525Y-135931916D01*
X165014916Y-135824525D01*
X165141194Y-135740148D01*
X165281507Y-135682029D01*
X165380811Y-135662276D01*
X165430462Y-135652400D01*
X165582338Y-135652400D01*
X165631989Y-135662276D01*
X165631989Y-135662276D01*
G37*
G36*
X159916989Y-133122276D02*
G01*
X160016293Y-133142029D01*
X160156606Y-133200148D01*
X160282884Y-133284525D01*
X160390275Y-133391916D01*
X160474652Y-133518194D01*
X160532771Y-133658507D01*
X160562400Y-133807463D01*
X160562400Y-133959337D01*
X160532771Y-134108293D01*
X160474652Y-134248606D01*
X160390275Y-134374884D01*
X160282884Y-134482275D01*
X160156606Y-134566652D01*
X160016293Y-134624771D01*
X159916989Y-134644524D01*
X159867338Y-134654400D01*
X159715462Y-134654400D01*
X159665811Y-134644524D01*
X159566507Y-134624771D01*
X159426194Y-134566652D01*
X159299916Y-134482275D01*
X159192525Y-134374884D01*
X159108148Y-134248606D01*
X159050029Y-134108293D01*
X159020400Y-133959337D01*
X159020400Y-133807463D01*
X159050029Y-133658507D01*
X159108148Y-133518194D01*
X159192525Y-133391916D01*
X159299916Y-133284525D01*
X159426194Y-133200148D01*
X159566507Y-133142029D01*
X159665811Y-133122276D01*
X159715462Y-133112400D01*
X159867338Y-133112400D01*
X159916989Y-133122276D01*
X159916989Y-133122276D01*
G37*
G36*
X165631989Y-133122276D02*
G01*
X165731293Y-133142029D01*
X165871606Y-133200148D01*
X165997884Y-133284525D01*
X166105275Y-133391916D01*
X166189652Y-133518194D01*
X166247771Y-133658507D01*
X166277400Y-133807463D01*
X166277400Y-133959337D01*
X166247771Y-134108293D01*
X166189652Y-134248606D01*
X166105275Y-134374884D01*
X165997884Y-134482275D01*
X165871606Y-134566652D01*
X165731293Y-134624771D01*
X165631989Y-134644524D01*
X165582338Y-134654400D01*
X165430462Y-134654400D01*
X165380811Y-134644524D01*
X165281507Y-134624771D01*
X165141194Y-134566652D01*
X165014916Y-134482275D01*
X164907525Y-134374884D01*
X164823148Y-134248606D01*
X164765029Y-134108293D01*
X164735400Y-133959337D01*
X164735400Y-133807463D01*
X164765029Y-133658507D01*
X164823148Y-133518194D01*
X164907525Y-133391916D01*
X165014916Y-133284525D01*
X165141194Y-133200148D01*
X165281507Y-133142029D01*
X165380811Y-133122276D01*
X165430462Y-133112400D01*
X165582338Y-133112400D01*
X165631989Y-133122276D01*
X165631989Y-133122276D01*
G37*
G36*
X129050076Y-131312884D02*
G01*
X129267369Y-131402890D01*
X129267371Y-131402891D01*
X129462930Y-131533560D01*
X129629240Y-131699870D01*
X129759910Y-131895431D01*
X129851313Y-132116097D01*
X129856316Y-132132589D01*
X129867867Y-132154199D01*
X129883413Y-132173141D01*
X129902355Y-132188686D01*
X129923965Y-132200237D01*
X129947414Y-132207350D01*
X129971800Y-132209752D01*
X129996187Y-132207350D01*
X130019636Y-132200237D01*
X130041246Y-132188686D01*
X130060188Y-132173140D01*
X130075733Y-132154198D01*
X130087284Y-132132588D01*
X130092286Y-132116098D01*
X130183690Y-131895431D01*
X130314360Y-131699870D01*
X130480670Y-131533560D01*
X130676229Y-131402891D01*
X130676231Y-131402890D01*
X130893524Y-131312884D01*
X131124200Y-131267000D01*
X131359400Y-131267000D01*
X131590076Y-131312884D01*
X131807369Y-131402890D01*
X131807371Y-131402891D01*
X132002930Y-131533560D01*
X132169240Y-131699870D01*
X132299910Y-131895431D01*
X132391313Y-132116097D01*
X132396316Y-132132589D01*
X132407867Y-132154199D01*
X132423413Y-132173141D01*
X132442355Y-132188686D01*
X132463965Y-132200237D01*
X132487414Y-132207350D01*
X132511800Y-132209752D01*
X132536187Y-132207350D01*
X132559636Y-132200237D01*
X132581246Y-132188686D01*
X132600188Y-132173140D01*
X132615733Y-132154198D01*
X132627284Y-132132588D01*
X132632286Y-132116098D01*
X132723690Y-131895431D01*
X132854360Y-131699870D01*
X133020670Y-131533560D01*
X133216229Y-131402891D01*
X133216231Y-131402890D01*
X133433524Y-131312884D01*
X133664200Y-131267000D01*
X133899400Y-131267000D01*
X134130076Y-131312884D01*
X134347369Y-131402890D01*
X134347371Y-131402891D01*
X134542930Y-131533560D01*
X134709240Y-131699870D01*
X134839910Y-131895431D01*
X134931313Y-132116097D01*
X134936316Y-132132589D01*
X134947867Y-132154199D01*
X134963413Y-132173141D01*
X134982355Y-132188686D01*
X135003965Y-132200237D01*
X135027414Y-132207350D01*
X135051800Y-132209752D01*
X135076187Y-132207350D01*
X135099636Y-132200237D01*
X135121246Y-132188686D01*
X135140188Y-132173140D01*
X135155733Y-132154198D01*
X135167284Y-132132588D01*
X135172286Y-132116098D01*
X135263690Y-131895431D01*
X135394360Y-131699870D01*
X135560670Y-131533560D01*
X135756229Y-131402891D01*
X135756231Y-131402890D01*
X135973524Y-131312884D01*
X136204200Y-131267000D01*
X136439400Y-131267000D01*
X136670076Y-131312884D01*
X136887369Y-131402890D01*
X136887371Y-131402891D01*
X137082930Y-131533560D01*
X137249240Y-131699870D01*
X137379910Y-131895431D01*
X137471313Y-132116097D01*
X137476316Y-132132589D01*
X137487867Y-132154199D01*
X137503413Y-132173141D01*
X137522355Y-132188686D01*
X137543965Y-132200237D01*
X137567414Y-132207350D01*
X137591800Y-132209752D01*
X137616187Y-132207350D01*
X137639636Y-132200237D01*
X137661246Y-132188686D01*
X137680188Y-132173140D01*
X137695733Y-132154198D01*
X137707284Y-132132588D01*
X137712286Y-132116098D01*
X137803690Y-131895431D01*
X137934360Y-131699870D01*
X138100670Y-131533560D01*
X138296229Y-131402891D01*
X138296231Y-131402890D01*
X138513524Y-131312884D01*
X138744200Y-131267000D01*
X138979400Y-131267000D01*
X139210076Y-131312884D01*
X139427369Y-131402890D01*
X139427371Y-131402891D01*
X139622930Y-131533560D01*
X139789240Y-131699870D01*
X139919910Y-131895431D01*
X140011313Y-132116097D01*
X140016316Y-132132589D01*
X140027867Y-132154199D01*
X140043413Y-132173141D01*
X140062355Y-132188686D01*
X140083965Y-132200237D01*
X140107414Y-132207350D01*
X140131800Y-132209752D01*
X140156187Y-132207350D01*
X140179636Y-132200237D01*
X140201246Y-132188686D01*
X140220188Y-132173140D01*
X140235733Y-132154198D01*
X140247284Y-132132588D01*
X140252286Y-132116098D01*
X140343690Y-131895431D01*
X140474360Y-131699870D01*
X140640670Y-131533560D01*
X140836229Y-131402891D01*
X140836231Y-131402890D01*
X141053524Y-131312884D01*
X141284200Y-131267000D01*
X141519400Y-131267000D01*
X141750076Y-131312884D01*
X141967369Y-131402890D01*
X141967371Y-131402891D01*
X142162930Y-131533560D01*
X142329240Y-131699870D01*
X142459910Y-131895431D01*
X142551313Y-132116097D01*
X142556316Y-132132589D01*
X142567867Y-132154199D01*
X142583413Y-132173141D01*
X142602355Y-132188686D01*
X142623965Y-132200237D01*
X142647414Y-132207350D01*
X142671800Y-132209752D01*
X142696187Y-132207350D01*
X142719636Y-132200237D01*
X142741246Y-132188686D01*
X142760188Y-132173140D01*
X142775733Y-132154198D01*
X142787284Y-132132588D01*
X142792286Y-132116098D01*
X142883690Y-131895431D01*
X143014360Y-131699870D01*
X143180670Y-131533560D01*
X143376229Y-131402891D01*
X143376231Y-131402890D01*
X143593524Y-131312884D01*
X143824200Y-131267000D01*
X144059400Y-131267000D01*
X144290076Y-131312884D01*
X144507369Y-131402890D01*
X144507371Y-131402891D01*
X144702930Y-131533560D01*
X144869240Y-131699870D01*
X144999910Y-131895431D01*
X145091313Y-132116097D01*
X145096316Y-132132589D01*
X145107867Y-132154199D01*
X145123413Y-132173141D01*
X145142355Y-132188686D01*
X145163965Y-132200237D01*
X145187414Y-132207350D01*
X145211800Y-132209752D01*
X145236187Y-132207350D01*
X145259636Y-132200237D01*
X145281246Y-132188686D01*
X145300188Y-132173140D01*
X145315733Y-132154198D01*
X145327284Y-132132588D01*
X145332286Y-132116098D01*
X145423690Y-131895431D01*
X145554360Y-131699870D01*
X145720670Y-131533560D01*
X145916229Y-131402891D01*
X145916231Y-131402890D01*
X146133524Y-131312884D01*
X146364200Y-131267000D01*
X146599400Y-131267000D01*
X146830076Y-131312884D01*
X147047369Y-131402890D01*
X147047371Y-131402891D01*
X147242930Y-131533560D01*
X147409240Y-131699870D01*
X147539910Y-131895431D01*
X147631313Y-132116097D01*
X147636316Y-132132589D01*
X147647867Y-132154199D01*
X147663413Y-132173141D01*
X147682355Y-132188686D01*
X147703965Y-132200237D01*
X147727414Y-132207350D01*
X147751800Y-132209752D01*
X147776187Y-132207350D01*
X147799636Y-132200237D01*
X147821246Y-132188686D01*
X147840188Y-132173140D01*
X147855733Y-132154198D01*
X147867284Y-132132588D01*
X147872286Y-132116098D01*
X147963690Y-131895431D01*
X148094360Y-131699870D01*
X148260670Y-131533560D01*
X148456229Y-131402891D01*
X148456231Y-131402890D01*
X148673524Y-131312884D01*
X148904200Y-131267000D01*
X149139400Y-131267000D01*
X149370076Y-131312884D01*
X149587369Y-131402890D01*
X149587371Y-131402891D01*
X149782930Y-131533560D01*
X149949240Y-131699870D01*
X150079910Y-131895431D01*
X150169916Y-132112724D01*
X150215800Y-132343400D01*
X150215800Y-132578600D01*
X150169916Y-132809276D01*
X150079910Y-133026569D01*
X150079909Y-133026571D01*
X149949240Y-133222130D01*
X149782930Y-133388440D01*
X149587371Y-133519109D01*
X149587370Y-133519110D01*
X149587369Y-133519110D01*
X149370076Y-133609116D01*
X149139400Y-133655000D01*
X148904200Y-133655000D01*
X148673524Y-133609116D01*
X148456231Y-133519110D01*
X148456230Y-133519110D01*
X148456229Y-133519109D01*
X148260670Y-133388440D01*
X148094360Y-133222130D01*
X147963691Y-133026571D01*
X147873685Y-132809277D01*
X147872287Y-132805903D01*
X147867284Y-132789411D01*
X147855733Y-132767801D01*
X147840187Y-132748859D01*
X147821245Y-132733314D01*
X147799635Y-132721763D01*
X147776186Y-132714650D01*
X147751800Y-132712248D01*
X147727413Y-132714650D01*
X147703964Y-132721763D01*
X147682354Y-132733314D01*
X147663412Y-132748860D01*
X147647867Y-132767802D01*
X147636316Y-132789412D01*
X147631314Y-132805902D01*
X147539910Y-133026569D01*
X147539909Y-133026571D01*
X147409240Y-133222130D01*
X147242930Y-133388440D01*
X147047371Y-133519109D01*
X147047370Y-133519110D01*
X147047369Y-133519110D01*
X146830076Y-133609116D01*
X146599400Y-133655000D01*
X146364200Y-133655000D01*
X146133524Y-133609116D01*
X145916231Y-133519110D01*
X145916230Y-133519110D01*
X145916229Y-133519109D01*
X145720670Y-133388440D01*
X145554360Y-133222130D01*
X145423691Y-133026571D01*
X145333685Y-132809277D01*
X145332287Y-132805903D01*
X145327284Y-132789411D01*
X145315733Y-132767801D01*
X145300187Y-132748859D01*
X145281245Y-132733314D01*
X145259635Y-132721763D01*
X145236186Y-132714650D01*
X145211800Y-132712248D01*
X145187413Y-132714650D01*
X145163964Y-132721763D01*
X145142354Y-132733314D01*
X145123412Y-132748860D01*
X145107867Y-132767802D01*
X145096316Y-132789412D01*
X145091314Y-132805902D01*
X144999910Y-133026569D01*
X144999909Y-133026571D01*
X144869240Y-133222130D01*
X144702930Y-133388440D01*
X144507371Y-133519109D01*
X144507370Y-133519110D01*
X144507369Y-133519110D01*
X144290076Y-133609116D01*
X144059400Y-133655000D01*
X143824200Y-133655000D01*
X143593524Y-133609116D01*
X143376231Y-133519110D01*
X143376230Y-133519110D01*
X143376229Y-133519109D01*
X143180670Y-133388440D01*
X143014360Y-133222130D01*
X142883691Y-133026571D01*
X142793685Y-132809277D01*
X142792287Y-132805903D01*
X142787284Y-132789411D01*
X142775733Y-132767801D01*
X142760187Y-132748859D01*
X142741245Y-132733314D01*
X142719635Y-132721763D01*
X142696186Y-132714650D01*
X142671800Y-132712248D01*
X142647413Y-132714650D01*
X142623964Y-132721763D01*
X142602354Y-132733314D01*
X142583412Y-132748860D01*
X142567867Y-132767802D01*
X142556316Y-132789412D01*
X142551314Y-132805902D01*
X142459910Y-133026569D01*
X142459909Y-133026571D01*
X142329240Y-133222130D01*
X142162930Y-133388440D01*
X141967371Y-133519109D01*
X141967370Y-133519110D01*
X141967369Y-133519110D01*
X141750076Y-133609116D01*
X141519400Y-133655000D01*
X141284200Y-133655000D01*
X141053524Y-133609116D01*
X140836231Y-133519110D01*
X140836230Y-133519110D01*
X140836229Y-133519109D01*
X140640670Y-133388440D01*
X140474360Y-133222130D01*
X140343691Y-133026571D01*
X140253685Y-132809277D01*
X140252287Y-132805903D01*
X140247284Y-132789411D01*
X140235733Y-132767801D01*
X140220187Y-132748859D01*
X140201245Y-132733314D01*
X140179635Y-132721763D01*
X140156186Y-132714650D01*
X140131800Y-132712248D01*
X140107413Y-132714650D01*
X140083964Y-132721763D01*
X140062354Y-132733314D01*
X140043412Y-132748860D01*
X140027867Y-132767802D01*
X140016316Y-132789412D01*
X140011314Y-132805902D01*
X139919910Y-133026569D01*
X139919909Y-133026571D01*
X139789240Y-133222130D01*
X139622930Y-133388440D01*
X139427371Y-133519109D01*
X139427370Y-133519110D01*
X139427369Y-133519110D01*
X139210076Y-133609116D01*
X138979400Y-133655000D01*
X138744200Y-133655000D01*
X138513524Y-133609116D01*
X138296231Y-133519110D01*
X138296230Y-133519110D01*
X138296229Y-133519109D01*
X138100670Y-133388440D01*
X137934360Y-133222130D01*
X137803691Y-133026571D01*
X137713685Y-132809277D01*
X137712287Y-132805903D01*
X137707284Y-132789411D01*
X137695733Y-132767801D01*
X137680187Y-132748859D01*
X137661245Y-132733314D01*
X137639635Y-132721763D01*
X137616186Y-132714650D01*
X137591800Y-132712248D01*
X137567413Y-132714650D01*
X137543964Y-132721763D01*
X137522354Y-132733314D01*
X137503412Y-132748860D01*
X137487867Y-132767802D01*
X137476316Y-132789412D01*
X137471314Y-132805902D01*
X137379910Y-133026569D01*
X137379909Y-133026571D01*
X137249240Y-133222130D01*
X137082930Y-133388440D01*
X136887371Y-133519109D01*
X136887370Y-133519110D01*
X136887369Y-133519110D01*
X136670076Y-133609116D01*
X136439400Y-133655000D01*
X136204200Y-133655000D01*
X135973524Y-133609116D01*
X135756231Y-133519110D01*
X135756230Y-133519110D01*
X135756229Y-133519109D01*
X135560670Y-133388440D01*
X135394360Y-133222130D01*
X135263691Y-133026571D01*
X135173685Y-132809277D01*
X135172287Y-132805903D01*
X135167284Y-132789411D01*
X135155733Y-132767801D01*
X135140187Y-132748859D01*
X135121245Y-132733314D01*
X135099635Y-132721763D01*
X135076186Y-132714650D01*
X135051800Y-132712248D01*
X135027413Y-132714650D01*
X135003964Y-132721763D01*
X134982354Y-132733314D01*
X134963412Y-132748860D01*
X134947867Y-132767802D01*
X134936316Y-132789412D01*
X134931314Y-132805902D01*
X134839910Y-133026569D01*
X134839909Y-133026571D01*
X134709240Y-133222130D01*
X134542930Y-133388440D01*
X134347371Y-133519109D01*
X134347370Y-133519110D01*
X134347369Y-133519110D01*
X134130076Y-133609116D01*
X133899400Y-133655000D01*
X133664200Y-133655000D01*
X133433524Y-133609116D01*
X133216231Y-133519110D01*
X133216230Y-133519110D01*
X133216229Y-133519109D01*
X133020670Y-133388440D01*
X132854360Y-133222130D01*
X132723691Y-133026571D01*
X132633685Y-132809277D01*
X132632287Y-132805903D01*
X132627284Y-132789411D01*
X132615733Y-132767801D01*
X132600187Y-132748859D01*
X132581245Y-132733314D01*
X132559635Y-132721763D01*
X132536186Y-132714650D01*
X132511800Y-132712248D01*
X132487413Y-132714650D01*
X132463964Y-132721763D01*
X132442354Y-132733314D01*
X132423412Y-132748860D01*
X132407867Y-132767802D01*
X132396316Y-132789412D01*
X132391314Y-132805902D01*
X132299910Y-133026569D01*
X132299909Y-133026571D01*
X132169240Y-133222130D01*
X132002930Y-133388440D01*
X131807371Y-133519109D01*
X131807370Y-133519110D01*
X131807369Y-133519110D01*
X131590076Y-133609116D01*
X131359400Y-133655000D01*
X131124200Y-133655000D01*
X130893524Y-133609116D01*
X130676231Y-133519110D01*
X130676230Y-133519110D01*
X130676229Y-133519109D01*
X130480670Y-133388440D01*
X130314360Y-133222130D01*
X130183691Y-133026571D01*
X130093685Y-132809277D01*
X130092287Y-132805903D01*
X130087284Y-132789411D01*
X130075733Y-132767801D01*
X130060187Y-132748859D01*
X130041245Y-132733314D01*
X130019635Y-132721763D01*
X129996186Y-132714650D01*
X129971800Y-132712248D01*
X129947413Y-132714650D01*
X129923964Y-132721763D01*
X129902354Y-132733314D01*
X129883412Y-132748860D01*
X129867867Y-132767802D01*
X129856316Y-132789412D01*
X129851314Y-132805902D01*
X129759910Y-133026569D01*
X129759909Y-133026571D01*
X129629240Y-133222130D01*
X129462930Y-133388440D01*
X129267371Y-133519109D01*
X129267370Y-133519110D01*
X129267369Y-133519110D01*
X129050076Y-133609116D01*
X128819400Y-133655000D01*
X128584200Y-133655000D01*
X128353524Y-133609116D01*
X128136231Y-133519110D01*
X128136230Y-133519110D01*
X128136229Y-133519109D01*
X127940670Y-133388440D01*
X127774360Y-133222130D01*
X127643691Y-133026571D01*
X127643690Y-133026569D01*
X127553684Y-132809276D01*
X127507800Y-132578600D01*
X127507800Y-132343400D01*
X127553684Y-132112724D01*
X127643690Y-131895431D01*
X127774360Y-131699870D01*
X127940670Y-131533560D01*
X128136229Y-131402891D01*
X128136231Y-131402890D01*
X128353524Y-131312884D01*
X128584200Y-131267000D01*
X128819400Y-131267000D01*
X129050076Y-131312884D01*
X129050076Y-131312884D01*
G37*
G36*
X170702423Y-130936513D02*
G01*
X170862842Y-130985176D01*
X170995506Y-131056086D01*
X171010678Y-131064196D01*
X171140259Y-131170541D01*
X171246604Y-131300122D01*
X171246605Y-131300124D01*
X171325624Y-131447958D01*
X171374287Y-131608377D01*
X171390717Y-131775200D01*
X171374287Y-131942023D01*
X171325624Y-132102442D01*
X171254714Y-132235106D01*
X171246604Y-132250278D01*
X171140259Y-132379859D01*
X171010678Y-132486204D01*
X171010676Y-132486205D01*
X170862842Y-132565224D01*
X170702423Y-132613887D01*
X170577404Y-132626200D01*
X170493796Y-132626200D01*
X170368777Y-132613887D01*
X170208358Y-132565224D01*
X170060524Y-132486205D01*
X170060522Y-132486204D01*
X169930941Y-132379859D01*
X169824596Y-132250278D01*
X169816486Y-132235106D01*
X169745576Y-132102442D01*
X169696913Y-131942023D01*
X169680483Y-131775200D01*
X169696913Y-131608377D01*
X169745576Y-131447958D01*
X169824595Y-131300124D01*
X169824596Y-131300122D01*
X169930941Y-131170541D01*
X170060522Y-131064196D01*
X170075694Y-131056086D01*
X170208358Y-130985176D01*
X170368777Y-130936513D01*
X170493796Y-130924200D01*
X170577404Y-130924200D01*
X170702423Y-130936513D01*
X170702423Y-130936513D01*
G37*
G36*
X178322423Y-130936513D02*
G01*
X178482842Y-130985176D01*
X178615506Y-131056086D01*
X178630678Y-131064196D01*
X178760259Y-131170541D01*
X178866604Y-131300122D01*
X178866605Y-131300124D01*
X178945624Y-131447958D01*
X178994287Y-131608377D01*
X179010717Y-131775200D01*
X178994287Y-131942023D01*
X178945624Y-132102442D01*
X178874714Y-132235106D01*
X178866604Y-132250278D01*
X178760259Y-132379859D01*
X178630678Y-132486204D01*
X178630676Y-132486205D01*
X178482842Y-132565224D01*
X178322423Y-132613887D01*
X178197404Y-132626200D01*
X178113796Y-132626200D01*
X177988777Y-132613887D01*
X177828358Y-132565224D01*
X177680524Y-132486205D01*
X177680522Y-132486204D01*
X177550941Y-132379859D01*
X177444596Y-132250278D01*
X177436486Y-132235106D01*
X177365576Y-132102442D01*
X177316913Y-131942023D01*
X177300483Y-131775200D01*
X177316913Y-131608377D01*
X177365576Y-131447958D01*
X177444595Y-131300124D01*
X177444596Y-131300122D01*
X177550941Y-131170541D01*
X177680522Y-131064196D01*
X177695694Y-131056086D01*
X177828358Y-130985176D01*
X177988777Y-130936513D01*
X178113796Y-130924200D01*
X178197404Y-130924200D01*
X178322423Y-130936513D01*
X178322423Y-130936513D01*
G37*
G36*
X170702423Y-128396513D02*
G01*
X170862842Y-128445176D01*
X170995506Y-128516086D01*
X171010678Y-128524196D01*
X171140259Y-128630541D01*
X171246604Y-128760122D01*
X171246605Y-128760124D01*
X171325624Y-128907958D01*
X171374287Y-129068377D01*
X171390717Y-129235200D01*
X171374287Y-129402023D01*
X171325624Y-129562442D01*
X171299048Y-129612162D01*
X171246604Y-129710278D01*
X171140259Y-129839859D01*
X171010678Y-129946204D01*
X171010676Y-129946205D01*
X170862842Y-130025224D01*
X170702423Y-130073887D01*
X170577404Y-130086200D01*
X170493796Y-130086200D01*
X170368777Y-130073887D01*
X170208358Y-130025224D01*
X170060524Y-129946205D01*
X170060522Y-129946204D01*
X169930941Y-129839859D01*
X169824596Y-129710278D01*
X169772152Y-129612162D01*
X169745576Y-129562442D01*
X169696913Y-129402023D01*
X169680483Y-129235200D01*
X169696913Y-129068377D01*
X169745576Y-128907958D01*
X169824595Y-128760124D01*
X169824596Y-128760122D01*
X169930941Y-128630541D01*
X170060522Y-128524196D01*
X170075694Y-128516086D01*
X170208358Y-128445176D01*
X170368777Y-128396513D01*
X170493796Y-128384200D01*
X170577404Y-128384200D01*
X170702423Y-128396513D01*
X170702423Y-128396513D01*
G37*
G36*
X178322423Y-128396513D02*
G01*
X178482842Y-128445176D01*
X178615506Y-128516086D01*
X178630678Y-128524196D01*
X178760259Y-128630541D01*
X178866604Y-128760122D01*
X178866605Y-128760124D01*
X178945624Y-128907958D01*
X178994287Y-129068377D01*
X179010717Y-129235200D01*
X178994287Y-129402023D01*
X178945624Y-129562442D01*
X178919048Y-129612162D01*
X178866604Y-129710278D01*
X178760259Y-129839859D01*
X178630678Y-129946204D01*
X178630676Y-129946205D01*
X178482842Y-130025224D01*
X178322423Y-130073887D01*
X178197404Y-130086200D01*
X178113796Y-130086200D01*
X177988777Y-130073887D01*
X177828358Y-130025224D01*
X177680524Y-129946205D01*
X177680522Y-129946204D01*
X177550941Y-129839859D01*
X177444596Y-129710278D01*
X177392152Y-129612162D01*
X177365576Y-129562442D01*
X177316913Y-129402023D01*
X177300483Y-129235200D01*
X177316913Y-129068377D01*
X177365576Y-128907958D01*
X177444595Y-128760124D01*
X177444596Y-128760122D01*
X177550941Y-128630541D01*
X177680522Y-128524196D01*
X177695694Y-128516086D01*
X177828358Y-128445176D01*
X177988777Y-128396513D01*
X178113796Y-128384200D01*
X178197404Y-128384200D01*
X178322423Y-128396513D01*
X178322423Y-128396513D01*
G37*
G36*
X160675197Y-126945051D02*
G01*
X160708852Y-126955261D01*
X160739865Y-126971838D01*
X160767051Y-126994149D01*
X160789362Y-127021335D01*
X160805939Y-127052348D01*
X160816149Y-127086003D01*
X160820200Y-127127138D01*
X160820200Y-129456862D01*
X160816149Y-129497997D01*
X160805939Y-129531652D01*
X160789362Y-129562665D01*
X160767051Y-129589851D01*
X160739865Y-129612162D01*
X160708852Y-129628739D01*
X160675197Y-129638949D01*
X160634062Y-129643000D01*
X159304338Y-129643000D01*
X159263203Y-129638949D01*
X159229548Y-129628739D01*
X159198535Y-129612162D01*
X159171349Y-129589851D01*
X159149038Y-129562665D01*
X159132461Y-129531652D01*
X159122251Y-129497997D01*
X159118200Y-129456862D01*
X159118200Y-127127138D01*
X159122251Y-127086003D01*
X159132461Y-127052348D01*
X159149038Y-127021335D01*
X159171349Y-126994149D01*
X159198535Y-126971838D01*
X159229548Y-126955261D01*
X159263203Y-126945051D01*
X159304338Y-126941000D01*
X160634062Y-126941000D01*
X160675197Y-126945051D01*
X160675197Y-126945051D01*
G37*
G36*
X170702423Y-125856513D02*
G01*
X170862842Y-125905176D01*
X170995506Y-125976086D01*
X171010678Y-125984196D01*
X171140259Y-126090541D01*
X171246604Y-126220122D01*
X171246605Y-126220124D01*
X171325624Y-126367958D01*
X171374287Y-126528377D01*
X171390717Y-126695200D01*
X171374287Y-126862023D01*
X171325624Y-127022442D01*
X171269663Y-127127138D01*
X171246604Y-127170278D01*
X171140259Y-127299859D01*
X171010678Y-127406204D01*
X171010676Y-127406205D01*
X170862842Y-127485224D01*
X170702423Y-127533887D01*
X170577404Y-127546200D01*
X170493796Y-127546200D01*
X170368777Y-127533887D01*
X170208358Y-127485224D01*
X170060524Y-127406205D01*
X170060522Y-127406204D01*
X169930941Y-127299859D01*
X169824596Y-127170278D01*
X169801537Y-127127138D01*
X169745576Y-127022442D01*
X169696913Y-126862023D01*
X169680483Y-126695200D01*
X169696913Y-126528377D01*
X169745576Y-126367958D01*
X169824595Y-126220124D01*
X169824596Y-126220122D01*
X169930941Y-126090541D01*
X170060522Y-125984196D01*
X170075694Y-125976086D01*
X170208358Y-125905176D01*
X170368777Y-125856513D01*
X170493796Y-125844200D01*
X170577404Y-125844200D01*
X170702423Y-125856513D01*
X170702423Y-125856513D01*
G37*
G36*
X178322423Y-125856513D02*
G01*
X178482842Y-125905176D01*
X178615506Y-125976086D01*
X178630678Y-125984196D01*
X178760259Y-126090541D01*
X178866604Y-126220122D01*
X178866605Y-126220124D01*
X178945624Y-126367958D01*
X178994287Y-126528377D01*
X179010717Y-126695200D01*
X178994287Y-126862023D01*
X178945624Y-127022442D01*
X178889663Y-127127138D01*
X178866604Y-127170278D01*
X178760259Y-127299859D01*
X178630678Y-127406204D01*
X178630676Y-127406205D01*
X178482842Y-127485224D01*
X178322423Y-127533887D01*
X178197404Y-127546200D01*
X178113796Y-127546200D01*
X177988777Y-127533887D01*
X177828358Y-127485224D01*
X177680524Y-127406205D01*
X177680522Y-127406204D01*
X177550941Y-127299859D01*
X177444596Y-127170278D01*
X177421537Y-127127138D01*
X177365576Y-127022442D01*
X177316913Y-126862023D01*
X177300483Y-126695200D01*
X177316913Y-126528377D01*
X177365576Y-126367958D01*
X177444595Y-126220124D01*
X177444596Y-126220122D01*
X177550941Y-126090541D01*
X177680522Y-125984196D01*
X177695694Y-125976086D01*
X177828358Y-125905176D01*
X177988777Y-125856513D01*
X178113796Y-125844200D01*
X178197404Y-125844200D01*
X178322423Y-125856513D01*
X178322423Y-125856513D01*
G37*
G36*
X167181391Y-125220285D02*
G01*
X167215369Y-125230593D01*
X167246690Y-125247334D01*
X167274139Y-125269861D01*
X167296666Y-125297310D01*
X167313407Y-125328631D01*
X167323715Y-125362609D01*
X167327800Y-125404090D01*
X167327800Y-126005310D01*
X167323715Y-126046791D01*
X167313407Y-126080769D01*
X167296666Y-126112090D01*
X167274139Y-126139539D01*
X167246690Y-126162066D01*
X167215369Y-126178807D01*
X167181391Y-126189115D01*
X167139910Y-126193200D01*
X166463690Y-126193200D01*
X166422209Y-126189115D01*
X166388231Y-126178807D01*
X166356910Y-126162066D01*
X166329461Y-126139539D01*
X166306934Y-126112090D01*
X166290193Y-126080769D01*
X166279885Y-126046791D01*
X166275800Y-126005310D01*
X166275800Y-125404090D01*
X166279885Y-125362609D01*
X166290193Y-125328631D01*
X166306934Y-125297310D01*
X166329461Y-125269861D01*
X166356910Y-125247334D01*
X166388231Y-125230593D01*
X166422209Y-125220285D01*
X166463690Y-125216200D01*
X167139910Y-125216200D01*
X167181391Y-125220285D01*
X167181391Y-125220285D01*
G37*
G36*
X160675197Y-123345051D02*
G01*
X160708852Y-123355261D01*
X160739865Y-123371838D01*
X160767051Y-123394149D01*
X160789362Y-123421335D01*
X160805939Y-123452348D01*
X160816149Y-123486003D01*
X160820200Y-123527138D01*
X160820200Y-125856862D01*
X160816149Y-125897997D01*
X160805939Y-125931652D01*
X160789362Y-125962665D01*
X160767051Y-125989851D01*
X160739865Y-126012162D01*
X160708852Y-126028739D01*
X160675197Y-126038949D01*
X160634062Y-126043000D01*
X159304338Y-126043000D01*
X159263203Y-126038949D01*
X159229548Y-126028739D01*
X159198535Y-126012162D01*
X159171349Y-125989851D01*
X159149038Y-125962665D01*
X159132461Y-125931652D01*
X159122251Y-125897997D01*
X159118200Y-125856862D01*
X159118200Y-123527138D01*
X159122251Y-123486003D01*
X159132461Y-123452348D01*
X159149038Y-123421335D01*
X159171349Y-123394149D01*
X159198535Y-123371838D01*
X159229548Y-123355261D01*
X159263203Y-123345051D01*
X159304338Y-123341000D01*
X160634062Y-123341000D01*
X160675197Y-123345051D01*
X160675197Y-123345051D01*
G37*
G36*
X170702423Y-123316513D02*
G01*
X170862842Y-123365176D01*
X170967908Y-123421335D01*
X171010678Y-123444196D01*
X171140259Y-123550541D01*
X171246604Y-123680122D01*
X171246605Y-123680124D01*
X171325624Y-123827958D01*
X171374287Y-123988377D01*
X171390717Y-124155200D01*
X171374287Y-124322023D01*
X171325624Y-124482442D01*
X171313155Y-124505769D01*
X171246604Y-124630278D01*
X171140259Y-124759859D01*
X171010678Y-124866204D01*
X171010676Y-124866205D01*
X170862842Y-124945224D01*
X170702423Y-124993887D01*
X170577404Y-125006200D01*
X170493796Y-125006200D01*
X170368777Y-124993887D01*
X170208358Y-124945224D01*
X170060524Y-124866205D01*
X170060522Y-124866204D01*
X169930941Y-124759859D01*
X169824596Y-124630278D01*
X169758045Y-124505769D01*
X169745576Y-124482442D01*
X169696913Y-124322023D01*
X169680483Y-124155200D01*
X169696913Y-123988377D01*
X169745576Y-123827958D01*
X169824595Y-123680124D01*
X169824596Y-123680122D01*
X169930941Y-123550541D01*
X170060522Y-123444196D01*
X170103292Y-123421335D01*
X170208358Y-123365176D01*
X170368777Y-123316513D01*
X170493796Y-123304200D01*
X170577404Y-123304200D01*
X170702423Y-123316513D01*
X170702423Y-123316513D01*
G37*
G36*
X178322423Y-123316513D02*
G01*
X178482842Y-123365176D01*
X178587908Y-123421335D01*
X178630678Y-123444196D01*
X178760259Y-123550541D01*
X178866604Y-123680122D01*
X178866605Y-123680124D01*
X178945624Y-123827958D01*
X178994287Y-123988377D01*
X179010717Y-124155200D01*
X178994287Y-124322023D01*
X178945624Y-124482442D01*
X178933155Y-124505769D01*
X178866604Y-124630278D01*
X178760259Y-124759859D01*
X178630678Y-124866204D01*
X178630676Y-124866205D01*
X178482842Y-124945224D01*
X178322423Y-124993887D01*
X178197404Y-125006200D01*
X178113796Y-125006200D01*
X177988777Y-124993887D01*
X177828358Y-124945224D01*
X177680524Y-124866205D01*
X177680522Y-124866204D01*
X177550941Y-124759859D01*
X177444596Y-124630278D01*
X177378045Y-124505769D01*
X177365576Y-124482442D01*
X177316913Y-124322023D01*
X177300483Y-124155200D01*
X177316913Y-123988377D01*
X177365576Y-123827958D01*
X177444595Y-123680124D01*
X177444596Y-123680122D01*
X177550941Y-123550541D01*
X177680522Y-123444196D01*
X177723292Y-123421335D01*
X177828358Y-123365176D01*
X177988777Y-123316513D01*
X178113796Y-123304200D01*
X178197404Y-123304200D01*
X178322423Y-123316513D01*
X178322423Y-123316513D01*
G37*
G36*
X146138191Y-123938085D02*
G01*
X146172169Y-123948393D01*
X146203490Y-123965134D01*
X146230939Y-123987661D01*
X146253466Y-124015110D01*
X146270207Y-124046431D01*
X146280515Y-124080409D01*
X146284600Y-124121890D01*
X146284600Y-124798110D01*
X146280515Y-124839591D01*
X146270207Y-124873569D01*
X146253466Y-124904890D01*
X146230939Y-124932339D01*
X146203490Y-124954866D01*
X146172169Y-124971607D01*
X146138191Y-124981915D01*
X146096710Y-124986000D01*
X145495490Y-124986000D01*
X145454009Y-124981915D01*
X145420031Y-124971607D01*
X145388710Y-124954866D01*
X145361261Y-124932339D01*
X145338734Y-124904890D01*
X145321993Y-124873569D01*
X145311685Y-124839591D01*
X145307600Y-124798110D01*
X145307600Y-124121890D01*
X145311685Y-124080409D01*
X145321993Y-124046431D01*
X145338734Y-124015110D01*
X145361261Y-123987661D01*
X145388710Y-123965134D01*
X145420031Y-123948393D01*
X145454009Y-123938085D01*
X145495490Y-123934000D01*
X146096710Y-123934000D01*
X146138191Y-123938085D01*
X146138191Y-123938085D01*
G37*
G36*
X144563191Y-123938085D02*
G01*
X144597169Y-123948393D01*
X144628490Y-123965134D01*
X144655939Y-123987661D01*
X144678466Y-124015110D01*
X144695207Y-124046431D01*
X144705515Y-124080409D01*
X144709600Y-124121890D01*
X144709600Y-124798110D01*
X144705515Y-124839591D01*
X144695207Y-124873569D01*
X144678466Y-124904890D01*
X144655939Y-124932339D01*
X144628490Y-124954866D01*
X144597169Y-124971607D01*
X144563191Y-124981915D01*
X144521710Y-124986000D01*
X143920490Y-124986000D01*
X143879009Y-124981915D01*
X143845031Y-124971607D01*
X143813710Y-124954866D01*
X143786261Y-124932339D01*
X143763734Y-124904890D01*
X143746993Y-124873569D01*
X143736685Y-124839591D01*
X143732600Y-124798110D01*
X143732600Y-124121890D01*
X143736685Y-124080409D01*
X143746993Y-124046431D01*
X143763734Y-124015110D01*
X143786261Y-123987661D01*
X143813710Y-123965134D01*
X143845031Y-123948393D01*
X143879009Y-123938085D01*
X143920490Y-123934000D01*
X144521710Y-123934000D01*
X144563191Y-123938085D01*
X144563191Y-123938085D01*
G37*
G36*
X137369200Y-124811000D02*
G01*
X135767200Y-124811000D01*
X135767200Y-124109000D01*
X137369200Y-124109000D01*
X137369200Y-124811000D01*
X137369200Y-124811000D01*
G37*
G36*
X142769200Y-124811000D02*
G01*
X141167200Y-124811000D01*
X141167200Y-124109000D01*
X142769200Y-124109000D01*
X142769200Y-124811000D01*
X142769200Y-124811000D01*
G37*
G36*
X167181391Y-123645285D02*
G01*
X167215369Y-123655593D01*
X167246690Y-123672334D01*
X167274139Y-123694861D01*
X167296666Y-123722310D01*
X167313407Y-123753631D01*
X167323715Y-123787609D01*
X167327800Y-123829090D01*
X167327800Y-124430310D01*
X167323715Y-124471791D01*
X167313407Y-124505769D01*
X167296666Y-124537090D01*
X167274139Y-124564539D01*
X167246690Y-124587066D01*
X167215369Y-124603807D01*
X167181391Y-124614115D01*
X167139910Y-124618200D01*
X166463690Y-124618200D01*
X166422209Y-124614115D01*
X166388231Y-124603807D01*
X166356910Y-124587066D01*
X166329461Y-124564539D01*
X166306934Y-124537090D01*
X166290193Y-124505769D01*
X166279885Y-124471791D01*
X166275800Y-124430310D01*
X166275800Y-123829090D01*
X166279885Y-123787609D01*
X166290193Y-123753631D01*
X166306934Y-123722310D01*
X166329461Y-123694861D01*
X166356910Y-123672334D01*
X166388231Y-123655593D01*
X166422209Y-123645285D01*
X166463690Y-123641200D01*
X167139910Y-123641200D01*
X167181391Y-123645285D01*
X167181391Y-123645285D01*
G37*
G36*
X133831191Y-122705685D02*
G01*
X133865169Y-122715993D01*
X133896490Y-122732734D01*
X133923939Y-122755261D01*
X133946466Y-122782710D01*
X133963207Y-122814031D01*
X133973515Y-122848009D01*
X133977600Y-122889490D01*
X133977600Y-123490710D01*
X133973515Y-123532191D01*
X133963207Y-123566169D01*
X133946466Y-123597490D01*
X133923939Y-123624939D01*
X133896490Y-123647466D01*
X133865169Y-123664207D01*
X133831191Y-123674515D01*
X133789710Y-123678600D01*
X133113490Y-123678600D01*
X133072009Y-123674515D01*
X133038031Y-123664207D01*
X133006710Y-123647466D01*
X132979261Y-123624939D01*
X132956734Y-123597490D01*
X132939993Y-123566169D01*
X132929685Y-123532191D01*
X132925600Y-123490710D01*
X132925600Y-122889490D01*
X132929685Y-122848009D01*
X132939993Y-122814031D01*
X132956734Y-122782710D01*
X132979261Y-122755261D01*
X133006710Y-122732734D01*
X133038031Y-122715993D01*
X133072009Y-122705685D01*
X133113490Y-122701600D01*
X133789710Y-122701600D01*
X133831191Y-122705685D01*
X133831191Y-122705685D01*
G37*
G36*
X137369200Y-123541000D02*
G01*
X135767200Y-123541000D01*
X135767200Y-122839000D01*
X137369200Y-122839000D01*
X137369200Y-123541000D01*
X137369200Y-123541000D01*
G37*
G36*
X142769200Y-123541000D02*
G01*
X141167200Y-123541000D01*
X141167200Y-122839000D01*
X142769200Y-122839000D01*
X142769200Y-123541000D01*
X142769200Y-123541000D01*
G37*
G36*
X155852991Y-122477085D02*
G01*
X155886969Y-122487393D01*
X155918290Y-122504134D01*
X155945739Y-122526661D01*
X155968266Y-122554110D01*
X155985007Y-122585431D01*
X155995315Y-122619409D01*
X155999400Y-122660890D01*
X155999400Y-123262110D01*
X155995315Y-123303591D01*
X155985007Y-123337569D01*
X155968266Y-123368890D01*
X155945739Y-123396339D01*
X155918290Y-123418866D01*
X155886969Y-123435607D01*
X155852991Y-123445915D01*
X155811510Y-123450000D01*
X155135290Y-123450000D01*
X155093809Y-123445915D01*
X155059831Y-123435607D01*
X155028510Y-123418866D01*
X155001061Y-123396339D01*
X154978534Y-123368890D01*
X154961793Y-123337569D01*
X154951485Y-123303591D01*
X154947400Y-123262110D01*
X154947400Y-122660890D01*
X154951485Y-122619409D01*
X154961793Y-122585431D01*
X154978534Y-122554110D01*
X155001061Y-122526661D01*
X155028510Y-122504134D01*
X155059831Y-122487393D01*
X155093809Y-122477085D01*
X155135290Y-122473000D01*
X155811510Y-122473000D01*
X155852991Y-122477085D01*
X155852991Y-122477085D01*
G37*
G36*
X178322423Y-120776513D02*
G01*
X178482842Y-120825176D01*
X178615506Y-120896086D01*
X178630678Y-120904196D01*
X178760259Y-121010541D01*
X178866604Y-121140122D01*
X178867741Y-121142250D01*
X178945624Y-121287958D01*
X178994287Y-121448377D01*
X179010717Y-121615200D01*
X178994287Y-121782023D01*
X178945624Y-121942442D01*
X178881486Y-122062436D01*
X178866604Y-122090278D01*
X178760259Y-122219859D01*
X178630678Y-122326204D01*
X178630676Y-122326205D01*
X178482842Y-122405224D01*
X178322423Y-122453887D01*
X178197404Y-122466200D01*
X178113796Y-122466200D01*
X177988777Y-122453887D01*
X177828358Y-122405224D01*
X177680524Y-122326205D01*
X177680522Y-122326204D01*
X177550941Y-122219859D01*
X177444596Y-122090278D01*
X177429714Y-122062436D01*
X177365576Y-121942442D01*
X177316913Y-121782023D01*
X177300483Y-121615200D01*
X177316913Y-121448377D01*
X177365576Y-121287958D01*
X177443459Y-121142250D01*
X177444596Y-121140122D01*
X177550941Y-121010541D01*
X177680522Y-120904196D01*
X177695694Y-120896086D01*
X177828358Y-120825176D01*
X177988777Y-120776513D01*
X178113796Y-120764200D01*
X178197404Y-120764200D01*
X178322423Y-120776513D01*
X178322423Y-120776513D01*
G37*
G36*
X170702423Y-120776513D02*
G01*
X170862842Y-120825176D01*
X170995506Y-120896086D01*
X171010678Y-120904196D01*
X171140259Y-121010541D01*
X171246604Y-121140122D01*
X171247741Y-121142250D01*
X171325624Y-121287958D01*
X171374287Y-121448377D01*
X171390717Y-121615200D01*
X171374287Y-121782023D01*
X171325624Y-121942442D01*
X171261486Y-122062436D01*
X171246604Y-122090278D01*
X171140259Y-122219859D01*
X171010678Y-122326204D01*
X171010676Y-122326205D01*
X170862842Y-122405224D01*
X170702423Y-122453887D01*
X170577404Y-122466200D01*
X170493796Y-122466200D01*
X170368777Y-122453887D01*
X170208358Y-122405224D01*
X170060524Y-122326205D01*
X170060522Y-122326204D01*
X169930941Y-122219859D01*
X169824596Y-122090278D01*
X169809714Y-122062436D01*
X169745576Y-121942442D01*
X169696913Y-121782023D01*
X169680483Y-121615200D01*
X169696913Y-121448377D01*
X169745576Y-121287958D01*
X169823459Y-121142250D01*
X169824596Y-121140122D01*
X169930941Y-121010541D01*
X170060522Y-120904196D01*
X170075694Y-120896086D01*
X170208358Y-120825176D01*
X170368777Y-120776513D01*
X170493796Y-120764200D01*
X170577404Y-120764200D01*
X170702423Y-120776513D01*
X170702423Y-120776513D01*
G37*
G36*
X137369200Y-122271000D02*
G01*
X135767200Y-122271000D01*
X135767200Y-121569000D01*
X137369200Y-121569000D01*
X137369200Y-122271000D01*
X137369200Y-122271000D01*
G37*
G36*
X142769200Y-122271000D02*
G01*
X141167200Y-122271000D01*
X141167200Y-121569000D01*
X142769200Y-121569000D01*
X142769200Y-122271000D01*
X142769200Y-122271000D01*
G37*
G36*
X133831191Y-121130685D02*
G01*
X133865169Y-121140993D01*
X133896490Y-121157734D01*
X133923939Y-121180261D01*
X133946466Y-121207710D01*
X133963207Y-121239031D01*
X133973515Y-121273009D01*
X133977600Y-121314490D01*
X133977600Y-121915710D01*
X133973515Y-121957191D01*
X133963207Y-121991169D01*
X133946466Y-122022490D01*
X133923939Y-122049939D01*
X133896490Y-122072466D01*
X133865169Y-122089207D01*
X133831191Y-122099515D01*
X133789710Y-122103600D01*
X133113490Y-122103600D01*
X133072009Y-122099515D01*
X133038031Y-122089207D01*
X133006710Y-122072466D01*
X132979261Y-122049939D01*
X132956734Y-122022490D01*
X132939993Y-121991169D01*
X132929685Y-121957191D01*
X132925600Y-121915710D01*
X132925600Y-121314490D01*
X132929685Y-121273009D01*
X132939993Y-121239031D01*
X132956734Y-121207710D01*
X132979261Y-121180261D01*
X133006710Y-121157734D01*
X133038031Y-121140993D01*
X133072009Y-121130685D01*
X133113490Y-121126600D01*
X133789710Y-121126600D01*
X133831191Y-121130685D01*
X133831191Y-121130685D01*
G37*
G36*
X155852991Y-120902085D02*
G01*
X155886969Y-120912393D01*
X155918290Y-120929134D01*
X155945739Y-120951661D01*
X155968266Y-120979110D01*
X155985007Y-121010431D01*
X155995315Y-121044409D01*
X155999400Y-121085890D01*
X155999400Y-121687110D01*
X155995315Y-121728591D01*
X155985007Y-121762569D01*
X155968266Y-121793890D01*
X155945739Y-121821339D01*
X155918290Y-121843866D01*
X155886969Y-121860607D01*
X155852991Y-121870915D01*
X155811510Y-121875000D01*
X155135290Y-121875000D01*
X155093809Y-121870915D01*
X155059831Y-121860607D01*
X155028510Y-121843866D01*
X155001061Y-121821339D01*
X154978534Y-121793890D01*
X154961793Y-121762569D01*
X154951485Y-121728591D01*
X154947400Y-121687110D01*
X154947400Y-121085890D01*
X154951485Y-121044409D01*
X154961793Y-121010431D01*
X154978534Y-120979110D01*
X155001061Y-120951661D01*
X155028510Y-120929134D01*
X155059831Y-120912393D01*
X155093809Y-120902085D01*
X155135290Y-120898000D01*
X155811510Y-120898000D01*
X155852991Y-120902085D01*
X155852991Y-120902085D01*
G37*
G36*
X146138191Y-120128085D02*
G01*
X146172169Y-120138393D01*
X146203490Y-120155134D01*
X146230939Y-120177661D01*
X146253466Y-120205110D01*
X146270207Y-120236431D01*
X146280515Y-120270409D01*
X146284600Y-120311890D01*
X146284600Y-120988110D01*
X146280515Y-121029591D01*
X146270207Y-121063569D01*
X146253466Y-121094890D01*
X146230939Y-121122339D01*
X146203490Y-121144866D01*
X146172169Y-121161607D01*
X146138191Y-121171915D01*
X146096710Y-121176000D01*
X145495490Y-121176000D01*
X145454009Y-121171915D01*
X145420031Y-121161607D01*
X145388710Y-121144866D01*
X145361261Y-121122339D01*
X145338734Y-121094890D01*
X145321993Y-121063569D01*
X145311685Y-121029591D01*
X145307600Y-120988110D01*
X145307600Y-120311890D01*
X145311685Y-120270409D01*
X145321993Y-120236431D01*
X145338734Y-120205110D01*
X145361261Y-120177661D01*
X145388710Y-120155134D01*
X145420031Y-120138393D01*
X145454009Y-120128085D01*
X145495490Y-120124000D01*
X146096710Y-120124000D01*
X146138191Y-120128085D01*
X146138191Y-120128085D01*
G37*
G36*
X144563191Y-120128085D02*
G01*
X144597169Y-120138393D01*
X144628490Y-120155134D01*
X144655939Y-120177661D01*
X144678466Y-120205110D01*
X144695207Y-120236431D01*
X144705515Y-120270409D01*
X144709600Y-120311890D01*
X144709600Y-120988110D01*
X144705515Y-121029591D01*
X144695207Y-121063569D01*
X144678466Y-121094890D01*
X144655939Y-121122339D01*
X144628490Y-121144866D01*
X144597169Y-121161607D01*
X144563191Y-121171915D01*
X144521710Y-121176000D01*
X143920490Y-121176000D01*
X143879009Y-121171915D01*
X143845031Y-121161607D01*
X143813710Y-121144866D01*
X143786261Y-121122339D01*
X143763734Y-121094890D01*
X143746993Y-121063569D01*
X143736685Y-121029591D01*
X143732600Y-120988110D01*
X143732600Y-120311890D01*
X143736685Y-120270409D01*
X143746993Y-120236431D01*
X143763734Y-120205110D01*
X143786261Y-120177661D01*
X143813710Y-120155134D01*
X143845031Y-120138393D01*
X143879009Y-120128085D01*
X143920490Y-120124000D01*
X144521710Y-120124000D01*
X144563191Y-120128085D01*
X144563191Y-120128085D01*
G37*
G36*
X181786391Y-120191085D02*
G01*
X181820369Y-120201393D01*
X181851690Y-120218134D01*
X181879139Y-120240661D01*
X181901666Y-120268110D01*
X181918407Y-120299431D01*
X181928715Y-120333409D01*
X181932800Y-120374890D01*
X181932800Y-120976110D01*
X181928715Y-121017591D01*
X181918407Y-121051569D01*
X181901666Y-121082890D01*
X181879139Y-121110339D01*
X181851690Y-121132866D01*
X181820369Y-121149607D01*
X181786391Y-121159915D01*
X181744910Y-121164000D01*
X181068690Y-121164000D01*
X181027209Y-121159915D01*
X180993231Y-121149607D01*
X180961910Y-121132866D01*
X180934461Y-121110339D01*
X180911934Y-121082890D01*
X180895193Y-121051569D01*
X180884885Y-121017591D01*
X180880800Y-120976110D01*
X180880800Y-120374890D01*
X180884885Y-120333409D01*
X180895193Y-120299431D01*
X180911934Y-120268110D01*
X180934461Y-120240661D01*
X180961910Y-120218134D01*
X180993231Y-120201393D01*
X181027209Y-120191085D01*
X181068690Y-120187000D01*
X181744910Y-120187000D01*
X181786391Y-120191085D01*
X181786391Y-120191085D01*
G37*
G36*
X142769200Y-121001000D02*
G01*
X141167200Y-121001000D01*
X141167200Y-120299000D01*
X142769200Y-120299000D01*
X142769200Y-121001000D01*
X142769200Y-121001000D01*
G37*
G36*
X137369200Y-121001000D02*
G01*
X135767200Y-121001000D01*
X135767200Y-120299000D01*
X137369200Y-120299000D01*
X137369200Y-121001000D01*
X137369200Y-121001000D01*
G37*
G36*
X170702423Y-118236513D02*
G01*
X170862842Y-118285176D01*
X170945953Y-118329600D01*
X171010678Y-118364196D01*
X171140259Y-118470541D01*
X171246604Y-118600122D01*
X171246605Y-118600124D01*
X171325624Y-118747958D01*
X171374287Y-118908377D01*
X171390717Y-119075200D01*
X171374287Y-119242023D01*
X171325624Y-119402442D01*
X171291756Y-119465804D01*
X171246604Y-119550278D01*
X171140259Y-119679859D01*
X171010678Y-119786204D01*
X171010676Y-119786205D01*
X170862842Y-119865224D01*
X170702423Y-119913887D01*
X170577404Y-119926200D01*
X170493796Y-119926200D01*
X170368777Y-119913887D01*
X170208358Y-119865224D01*
X170060524Y-119786205D01*
X170060522Y-119786204D01*
X169930941Y-119679859D01*
X169824596Y-119550278D01*
X169779444Y-119465804D01*
X169745576Y-119402442D01*
X169696913Y-119242023D01*
X169680483Y-119075200D01*
X169696913Y-118908377D01*
X169745576Y-118747958D01*
X169824595Y-118600124D01*
X169824596Y-118600122D01*
X169930941Y-118470541D01*
X170060522Y-118364196D01*
X170125247Y-118329600D01*
X170208358Y-118285176D01*
X170368777Y-118236513D01*
X170493796Y-118224200D01*
X170577404Y-118224200D01*
X170702423Y-118236513D01*
X170702423Y-118236513D01*
G37*
G36*
X178322423Y-118236513D02*
G01*
X178482842Y-118285176D01*
X178565953Y-118329600D01*
X178630678Y-118364196D01*
X178760259Y-118470541D01*
X178866604Y-118600122D01*
X178866605Y-118600124D01*
X178945624Y-118747958D01*
X178994287Y-118908377D01*
X179010717Y-119075200D01*
X178994287Y-119242023D01*
X178945624Y-119402442D01*
X178911756Y-119465804D01*
X178866604Y-119550278D01*
X178760259Y-119679859D01*
X178630678Y-119786204D01*
X178630676Y-119786205D01*
X178482842Y-119865224D01*
X178322423Y-119913887D01*
X178197404Y-119926200D01*
X178113796Y-119926200D01*
X177988777Y-119913887D01*
X177828358Y-119865224D01*
X177680524Y-119786205D01*
X177680522Y-119786204D01*
X177550941Y-119679859D01*
X177444596Y-119550278D01*
X177399444Y-119465804D01*
X177365576Y-119402442D01*
X177316913Y-119242023D01*
X177300483Y-119075200D01*
X177316913Y-118908377D01*
X177365576Y-118747958D01*
X177444595Y-118600124D01*
X177444596Y-118600122D01*
X177550941Y-118470541D01*
X177680522Y-118364196D01*
X177745247Y-118329600D01*
X177828358Y-118285176D01*
X177988777Y-118236513D01*
X178113796Y-118224200D01*
X178197404Y-118224200D01*
X178322423Y-118236513D01*
X178322423Y-118236513D01*
G37*
G36*
X162634789Y-118339476D02*
G01*
X162734093Y-118359229D01*
X162874406Y-118417348D01*
X163000684Y-118501725D01*
X163108075Y-118609116D01*
X163192452Y-118735394D01*
X163250571Y-118875707D01*
X163280200Y-119024663D01*
X163280200Y-119176537D01*
X163250571Y-119325493D01*
X163192452Y-119465806D01*
X163108075Y-119592084D01*
X163000684Y-119699475D01*
X162874406Y-119783852D01*
X162734093Y-119841971D01*
X162634789Y-119861724D01*
X162585138Y-119871600D01*
X162433262Y-119871600D01*
X162383611Y-119861724D01*
X162284307Y-119841971D01*
X162143994Y-119783852D01*
X162017716Y-119699475D01*
X161910325Y-119592084D01*
X161825948Y-119465806D01*
X161767829Y-119325493D01*
X161738200Y-119176537D01*
X161738200Y-119024663D01*
X161767829Y-118875707D01*
X161825948Y-118735394D01*
X161910325Y-118609116D01*
X162017716Y-118501725D01*
X162143994Y-118417348D01*
X162284307Y-118359229D01*
X162383611Y-118339476D01*
X162433262Y-118329600D01*
X162585138Y-118329600D01*
X162634789Y-118339476D01*
X162634789Y-118339476D01*
G37*
G36*
X165174789Y-118339476D02*
G01*
X165274093Y-118359229D01*
X165414406Y-118417348D01*
X165540684Y-118501725D01*
X165648075Y-118609116D01*
X165732452Y-118735394D01*
X165790571Y-118875707D01*
X165820200Y-119024663D01*
X165820200Y-119176537D01*
X165790571Y-119325493D01*
X165732452Y-119465806D01*
X165648075Y-119592084D01*
X165540684Y-119699475D01*
X165414406Y-119783852D01*
X165274093Y-119841971D01*
X165174789Y-119861724D01*
X165125138Y-119871600D01*
X164973262Y-119871600D01*
X164923611Y-119861724D01*
X164824307Y-119841971D01*
X164683994Y-119783852D01*
X164557716Y-119699475D01*
X164450325Y-119592084D01*
X164365948Y-119465806D01*
X164307829Y-119325493D01*
X164278200Y-119176537D01*
X164278200Y-119024663D01*
X164307829Y-118875707D01*
X164365948Y-118735394D01*
X164450325Y-118609116D01*
X164557716Y-118501725D01*
X164683994Y-118417348D01*
X164824307Y-118359229D01*
X164923611Y-118339476D01*
X164973262Y-118329600D01*
X165125138Y-118329600D01*
X165174789Y-118339476D01*
X165174789Y-118339476D01*
G37*
G36*
X160094789Y-118339476D02*
G01*
X160194093Y-118359229D01*
X160334406Y-118417348D01*
X160460684Y-118501725D01*
X160568075Y-118609116D01*
X160652452Y-118735394D01*
X160710571Y-118875707D01*
X160740200Y-119024663D01*
X160740200Y-119176537D01*
X160710571Y-119325493D01*
X160652452Y-119465806D01*
X160568075Y-119592084D01*
X160460684Y-119699475D01*
X160334406Y-119783852D01*
X160194093Y-119841971D01*
X160094789Y-119861724D01*
X160045138Y-119871600D01*
X159893262Y-119871600D01*
X159843611Y-119861724D01*
X159744307Y-119841971D01*
X159603994Y-119783852D01*
X159477716Y-119699475D01*
X159370325Y-119592084D01*
X159285948Y-119465806D01*
X159227829Y-119325493D01*
X159198200Y-119176537D01*
X159198200Y-119024663D01*
X159227829Y-118875707D01*
X159285948Y-118735394D01*
X159370325Y-118609116D01*
X159477716Y-118501725D01*
X159603994Y-118417348D01*
X159744307Y-118359229D01*
X159843611Y-118339476D01*
X159893262Y-118329600D01*
X160045138Y-118329600D01*
X160094789Y-118339476D01*
X160094789Y-118339476D01*
G37*
G36*
X142769200Y-119731000D02*
G01*
X141167200Y-119731000D01*
X141167200Y-119029000D01*
X142769200Y-119029000D01*
X142769200Y-119731000D01*
X142769200Y-119731000D01*
G37*
G36*
X137369200Y-119731000D02*
G01*
X135767200Y-119731000D01*
X135767200Y-119029000D01*
X137369200Y-119029000D01*
X137369200Y-119731000D01*
X137369200Y-119731000D01*
G37*
G36*
X155878391Y-118641685D02*
G01*
X155912369Y-118651993D01*
X155943690Y-118668734D01*
X155971139Y-118691261D01*
X155993666Y-118718710D01*
X156010407Y-118750031D01*
X156020715Y-118784009D01*
X156024800Y-118825490D01*
X156024800Y-119426710D01*
X156020715Y-119468191D01*
X156010407Y-119502169D01*
X155993666Y-119533490D01*
X155971139Y-119560939D01*
X155943690Y-119583466D01*
X155912369Y-119600207D01*
X155878391Y-119610515D01*
X155836910Y-119614600D01*
X155160690Y-119614600D01*
X155119209Y-119610515D01*
X155085231Y-119600207D01*
X155053910Y-119583466D01*
X155026461Y-119560939D01*
X155003934Y-119533490D01*
X154987193Y-119502169D01*
X154976885Y-119468191D01*
X154972800Y-119426710D01*
X154972800Y-118825490D01*
X154976885Y-118784009D01*
X154987193Y-118750031D01*
X155003934Y-118718710D01*
X155026461Y-118691261D01*
X155053910Y-118668734D01*
X155085231Y-118651993D01*
X155119209Y-118641685D01*
X155160690Y-118637600D01*
X155836910Y-118637600D01*
X155878391Y-118641685D01*
X155878391Y-118641685D01*
G37*
G36*
X181786391Y-118616085D02*
G01*
X181820369Y-118626393D01*
X181851690Y-118643134D01*
X181879139Y-118665661D01*
X181901666Y-118693110D01*
X181918407Y-118724431D01*
X181928715Y-118758409D01*
X181932800Y-118799890D01*
X181932800Y-119401110D01*
X181928715Y-119442591D01*
X181918407Y-119476569D01*
X181901666Y-119507890D01*
X181879139Y-119535339D01*
X181851690Y-119557866D01*
X181820369Y-119574607D01*
X181786391Y-119584915D01*
X181744910Y-119589000D01*
X181068690Y-119589000D01*
X181027209Y-119584915D01*
X180993231Y-119574607D01*
X180961910Y-119557866D01*
X180934461Y-119535339D01*
X180911934Y-119507890D01*
X180895193Y-119476569D01*
X180884885Y-119442591D01*
X180880800Y-119401110D01*
X180880800Y-118799890D01*
X180884885Y-118758409D01*
X180895193Y-118724431D01*
X180911934Y-118693110D01*
X180934461Y-118665661D01*
X180961910Y-118643134D01*
X180993231Y-118626393D01*
X181027209Y-118616085D01*
X181068690Y-118612000D01*
X181744910Y-118612000D01*
X181786391Y-118616085D01*
X181786391Y-118616085D01*
G37*
G36*
X137369200Y-118461000D02*
G01*
X135767200Y-118461000D01*
X135767200Y-117759000D01*
X137369200Y-117759000D01*
X137369200Y-118461000D01*
X137369200Y-118461000D01*
G37*
G36*
X142769200Y-118461000D02*
G01*
X141167200Y-118461000D01*
X141167200Y-117759000D01*
X142769200Y-117759000D01*
X142769200Y-118461000D01*
X142769200Y-118461000D01*
G37*
G36*
X155878391Y-117066685D02*
G01*
X155912369Y-117076993D01*
X155943690Y-117093734D01*
X155971139Y-117116261D01*
X155993666Y-117143710D01*
X156010407Y-117175031D01*
X156020715Y-117209009D01*
X156024800Y-117250490D01*
X156024800Y-117851710D01*
X156020715Y-117893191D01*
X156010407Y-117927169D01*
X155993666Y-117958490D01*
X155971139Y-117985939D01*
X155943690Y-118008466D01*
X155912369Y-118025207D01*
X155878391Y-118035515D01*
X155836910Y-118039600D01*
X155160690Y-118039600D01*
X155119209Y-118035515D01*
X155085231Y-118025207D01*
X155053910Y-118008466D01*
X155026461Y-117985939D01*
X155003934Y-117958490D01*
X154987193Y-117927169D01*
X154976885Y-117893191D01*
X154972800Y-117851710D01*
X154972800Y-117250490D01*
X154976885Y-117209009D01*
X154987193Y-117175031D01*
X155003934Y-117143710D01*
X155026461Y-117116261D01*
X155053910Y-117093734D01*
X155085231Y-117076993D01*
X155119209Y-117066685D01*
X155160690Y-117062600D01*
X155836910Y-117062600D01*
X155878391Y-117066685D01*
X155878391Y-117066685D01*
G37*
G36*
X170702423Y-115696513D02*
G01*
X170862842Y-115745176D01*
X170995506Y-115816086D01*
X171010678Y-115824196D01*
X171140259Y-115930541D01*
X171246604Y-116060122D01*
X171246605Y-116060124D01*
X171325624Y-116207958D01*
X171374287Y-116368377D01*
X171390717Y-116535200D01*
X171374287Y-116702023D01*
X171325624Y-116862442D01*
X171254714Y-116995106D01*
X171246604Y-117010278D01*
X171140259Y-117139859D01*
X171010678Y-117246204D01*
X171010676Y-117246205D01*
X170862842Y-117325224D01*
X170702423Y-117373887D01*
X170577404Y-117386200D01*
X170493796Y-117386200D01*
X170368777Y-117373887D01*
X170208358Y-117325224D01*
X170060524Y-117246205D01*
X170060522Y-117246204D01*
X169930941Y-117139859D01*
X169824596Y-117010278D01*
X169816486Y-116995106D01*
X169745576Y-116862442D01*
X169696913Y-116702023D01*
X169680483Y-116535200D01*
X169696913Y-116368377D01*
X169745576Y-116207958D01*
X169824595Y-116060124D01*
X169824596Y-116060122D01*
X169930941Y-115930541D01*
X170060522Y-115824196D01*
X170075694Y-115816086D01*
X170208358Y-115745176D01*
X170368777Y-115696513D01*
X170493796Y-115684200D01*
X170577404Y-115684200D01*
X170702423Y-115696513D01*
X170702423Y-115696513D01*
G37*
G36*
X178322423Y-115696513D02*
G01*
X178482842Y-115745176D01*
X178615506Y-115816086D01*
X178630678Y-115824196D01*
X178760259Y-115930541D01*
X178866604Y-116060122D01*
X178866605Y-116060124D01*
X178945624Y-116207958D01*
X178994287Y-116368377D01*
X179010717Y-116535200D01*
X178994287Y-116702023D01*
X178945624Y-116862442D01*
X178874714Y-116995106D01*
X178866604Y-117010278D01*
X178760259Y-117139859D01*
X178630678Y-117246204D01*
X178630676Y-117246205D01*
X178482842Y-117325224D01*
X178322423Y-117373887D01*
X178197404Y-117386200D01*
X178113796Y-117386200D01*
X177988777Y-117373887D01*
X177828358Y-117325224D01*
X177680524Y-117246205D01*
X177680522Y-117246204D01*
X177550941Y-117139859D01*
X177444596Y-117010278D01*
X177436486Y-116995106D01*
X177365576Y-116862442D01*
X177316913Y-116702023D01*
X177300483Y-116535200D01*
X177316913Y-116368377D01*
X177365576Y-116207958D01*
X177444595Y-116060124D01*
X177444596Y-116060122D01*
X177550941Y-115930541D01*
X177680522Y-115824196D01*
X177695694Y-115816086D01*
X177828358Y-115745176D01*
X177988777Y-115696513D01*
X178113796Y-115684200D01*
X178197404Y-115684200D01*
X178322423Y-115696513D01*
X178322423Y-115696513D01*
G37*
G36*
X137369200Y-117191000D02*
G01*
X135767200Y-117191000D01*
X135767200Y-116489000D01*
X137369200Y-116489000D01*
X137369200Y-117191000D01*
X137369200Y-117191000D01*
G37*
G36*
X142769200Y-117191000D02*
G01*
X141167200Y-117191000D01*
X141167200Y-116489000D01*
X142769200Y-116489000D01*
X142769200Y-117191000D01*
X142769200Y-117191000D01*
G37*
G36*
X158507791Y-113854285D02*
G01*
X158541769Y-113864593D01*
X158573090Y-113881334D01*
X158600539Y-113903861D01*
X158623066Y-113931310D01*
X158639807Y-113962631D01*
X158650115Y-113996609D01*
X158654200Y-114038090D01*
X158654200Y-114714310D01*
X158650115Y-114755791D01*
X158639807Y-114789769D01*
X158623066Y-114821090D01*
X158600539Y-114848539D01*
X158573090Y-114871066D01*
X158541769Y-114887807D01*
X158507791Y-114898115D01*
X158466310Y-114902200D01*
X157865090Y-114902200D01*
X157823609Y-114898115D01*
X157789631Y-114887807D01*
X157758310Y-114871066D01*
X157730861Y-114848539D01*
X157708334Y-114821090D01*
X157691593Y-114789769D01*
X157681285Y-114755791D01*
X157677200Y-114714310D01*
X157677200Y-114038090D01*
X157681285Y-113996609D01*
X157691593Y-113962631D01*
X157708334Y-113931310D01*
X157730861Y-113903861D01*
X157758310Y-113881334D01*
X157789631Y-113864593D01*
X157823609Y-113854285D01*
X157865090Y-113850200D01*
X158466310Y-113850200D01*
X158507791Y-113854285D01*
X158507791Y-113854285D01*
G37*
G36*
X160082791Y-113854285D02*
G01*
X160116769Y-113864593D01*
X160148090Y-113881334D01*
X160175539Y-113903861D01*
X160198066Y-113931310D01*
X160214807Y-113962631D01*
X160225115Y-113996609D01*
X160229200Y-114038090D01*
X160229200Y-114714310D01*
X160225115Y-114755791D01*
X160214807Y-114789769D01*
X160198066Y-114821090D01*
X160175539Y-114848539D01*
X160148090Y-114871066D01*
X160116769Y-114887807D01*
X160082791Y-114898115D01*
X160041310Y-114902200D01*
X159440090Y-114902200D01*
X159398609Y-114898115D01*
X159364631Y-114887807D01*
X159333310Y-114871066D01*
X159305861Y-114848539D01*
X159283334Y-114821090D01*
X159266593Y-114789769D01*
X159256285Y-114755791D01*
X159252200Y-114714310D01*
X159252200Y-114038090D01*
X159256285Y-113996609D01*
X159266593Y-113962631D01*
X159283334Y-113931310D01*
X159305861Y-113903861D01*
X159333310Y-113881334D01*
X159364631Y-113864593D01*
X159398609Y-113854285D01*
X159440090Y-113850200D01*
X160041310Y-113850200D01*
X160082791Y-113854285D01*
X160082791Y-113854285D01*
G37*
G36*
X178322423Y-113156513D02*
G01*
X178482842Y-113205176D01*
X178615506Y-113276086D01*
X178630678Y-113284196D01*
X178760259Y-113390541D01*
X178866604Y-113520122D01*
X178866605Y-113520124D01*
X178945624Y-113667958D01*
X178994287Y-113828377D01*
X179010717Y-113995200D01*
X178994287Y-114162023D01*
X178945624Y-114322442D01*
X178874714Y-114455106D01*
X178866604Y-114470278D01*
X178760259Y-114599859D01*
X178630678Y-114706204D01*
X178630676Y-114706205D01*
X178482842Y-114785224D01*
X178322423Y-114833887D01*
X178197404Y-114846200D01*
X178113796Y-114846200D01*
X177988777Y-114833887D01*
X177828358Y-114785224D01*
X177680524Y-114706205D01*
X177680522Y-114706204D01*
X177550941Y-114599859D01*
X177444596Y-114470278D01*
X177436486Y-114455106D01*
X177365576Y-114322442D01*
X177316913Y-114162023D01*
X177300483Y-113995200D01*
X177316913Y-113828377D01*
X177365576Y-113667958D01*
X177444595Y-113520124D01*
X177444596Y-113520122D01*
X177550941Y-113390541D01*
X177680522Y-113284196D01*
X177695694Y-113276086D01*
X177828358Y-113205176D01*
X177988777Y-113156513D01*
X178113796Y-113144200D01*
X178197404Y-113144200D01*
X178322423Y-113156513D01*
X178322423Y-113156513D01*
G37*
G36*
X171386600Y-114846200D02*
G01*
X169684600Y-114846200D01*
X169684600Y-113144200D01*
X171386600Y-113144200D01*
X171386600Y-114846200D01*
X171386600Y-114846200D01*
G37*
G36*
X158138800Y-112045000D02*
G01*
X151636800Y-112045000D01*
X151636800Y-106143000D01*
X158138800Y-106143000D01*
X158138800Y-112045000D01*
X158138800Y-112045000D01*
G37*
G36*
X162338800Y-112025000D02*
G01*
X160036800Y-112025000D01*
X160036800Y-110723000D01*
X162338800Y-110723000D01*
X162338800Y-112025000D01*
X162338800Y-112025000D01*
G37*
G36*
X145571401Y-110433801D02*
G01*
X139069401Y-110433801D01*
X139069401Y-104531801D01*
X145571401Y-104531801D01*
X145571401Y-110433801D01*
X145571401Y-110433801D01*
G37*
G36*
X137171401Y-110413801D02*
G01*
X134869401Y-110413801D01*
X134869401Y-109111801D01*
X137171401Y-109111801D01*
X137171401Y-110413801D01*
X137171401Y-110413801D01*
G37*
G36*
X147343991Y-107008585D02*
G01*
X147377969Y-107018893D01*
X147409290Y-107035634D01*
X147436739Y-107058161D01*
X147459266Y-107085610D01*
X147476007Y-107116931D01*
X147486315Y-107150909D01*
X147490400Y-107192390D01*
X147490400Y-107793610D01*
X147486315Y-107835091D01*
X147476007Y-107869069D01*
X147459266Y-107900390D01*
X147436739Y-107927839D01*
X147409290Y-107950366D01*
X147377969Y-107967107D01*
X147343991Y-107977415D01*
X147302510Y-107981500D01*
X146626290Y-107981500D01*
X146584809Y-107977415D01*
X146550831Y-107967107D01*
X146519510Y-107950366D01*
X146492061Y-107927839D01*
X146469534Y-107900390D01*
X146452793Y-107869069D01*
X146442485Y-107835091D01*
X146438400Y-107793610D01*
X146438400Y-107192390D01*
X146442485Y-107150909D01*
X146452793Y-107116931D01*
X146469534Y-107085610D01*
X146492061Y-107058161D01*
X146519510Y-107035634D01*
X146550831Y-107018893D01*
X146584809Y-107008585D01*
X146626290Y-107004500D01*
X147302510Y-107004500D01*
X147343991Y-107008585D01*
X147343991Y-107008585D01*
G37*
G36*
X162338800Y-107465000D02*
G01*
X160036800Y-107465000D01*
X160036800Y-106163000D01*
X162338800Y-106163000D01*
X162338800Y-107465000D01*
X162338800Y-107465000D01*
G37*
G36*
X166683642Y-105506118D02*
G01*
X166749827Y-105512637D01*
X166919666Y-105564157D01*
X167076191Y-105647822D01*
X167107784Y-105673750D01*
X167213386Y-105760414D01*
X167296648Y-105861871D01*
X167325978Y-105897609D01*
X167409643Y-106054134D01*
X167461163Y-106223973D01*
X167478559Y-106400600D01*
X167461163Y-106577227D01*
X167409643Y-106747066D01*
X167325978Y-106903591D01*
X167296648Y-106939329D01*
X167213386Y-107040786D01*
X167111929Y-107124048D01*
X167076191Y-107153378D01*
X166919666Y-107237043D01*
X166749827Y-107288563D01*
X166683643Y-107295081D01*
X166617460Y-107301600D01*
X166528940Y-107301600D01*
X166462757Y-107295081D01*
X166396573Y-107288563D01*
X166226734Y-107237043D01*
X166070209Y-107153378D01*
X166034471Y-107124048D01*
X165933014Y-107040786D01*
X165849752Y-106939329D01*
X165820422Y-106903591D01*
X165736757Y-106747066D01*
X165685237Y-106577227D01*
X165667841Y-106400600D01*
X165685237Y-106223973D01*
X165736757Y-106054134D01*
X165820422Y-105897609D01*
X165849752Y-105861871D01*
X165933014Y-105760414D01*
X166038616Y-105673750D01*
X166070209Y-105647822D01*
X166226734Y-105564157D01*
X166396573Y-105512637D01*
X166462757Y-105506119D01*
X166528940Y-105499600D01*
X166617460Y-105499600D01*
X166683642Y-105506118D01*
X166683642Y-105506118D01*
G37*
G36*
X171763642Y-105506118D02*
G01*
X171829827Y-105512637D01*
X171999666Y-105564157D01*
X172156191Y-105647822D01*
X172187784Y-105673750D01*
X172293386Y-105760414D01*
X172376648Y-105861871D01*
X172405978Y-105897609D01*
X172489643Y-106054134D01*
X172541163Y-106223973D01*
X172558559Y-106400600D01*
X172541163Y-106577227D01*
X172489643Y-106747066D01*
X172405978Y-106903591D01*
X172376648Y-106939329D01*
X172293386Y-107040786D01*
X172191929Y-107124048D01*
X172156191Y-107153378D01*
X171999666Y-107237043D01*
X171829827Y-107288563D01*
X171763643Y-107295081D01*
X171697460Y-107301600D01*
X171608940Y-107301600D01*
X171542757Y-107295081D01*
X171476573Y-107288563D01*
X171306734Y-107237043D01*
X171150209Y-107153378D01*
X171114471Y-107124048D01*
X171013014Y-107040786D01*
X170929752Y-106939329D01*
X170900422Y-106903591D01*
X170816757Y-106747066D01*
X170765237Y-106577227D01*
X170747841Y-106400600D01*
X170765237Y-106223973D01*
X170816757Y-106054134D01*
X170900422Y-105897609D01*
X170929752Y-105861871D01*
X171013014Y-105760414D01*
X171118616Y-105673750D01*
X171150209Y-105647822D01*
X171306734Y-105564157D01*
X171476573Y-105512637D01*
X171542757Y-105506119D01*
X171608940Y-105499600D01*
X171697460Y-105499600D01*
X171763642Y-105506118D01*
X171763642Y-105506118D01*
G37*
G36*
X176843642Y-105506118D02*
G01*
X176909827Y-105512637D01*
X177079666Y-105564157D01*
X177236191Y-105647822D01*
X177267784Y-105673750D01*
X177373386Y-105760414D01*
X177456648Y-105861871D01*
X177485978Y-105897609D01*
X177569643Y-106054134D01*
X177621163Y-106223973D01*
X177638559Y-106400600D01*
X177621163Y-106577227D01*
X177569643Y-106747066D01*
X177485978Y-106903591D01*
X177456648Y-106939329D01*
X177373386Y-107040786D01*
X177271929Y-107124048D01*
X177236191Y-107153378D01*
X177079666Y-107237043D01*
X176909827Y-107288563D01*
X176843643Y-107295081D01*
X176777460Y-107301600D01*
X176688940Y-107301600D01*
X176622757Y-107295081D01*
X176556573Y-107288563D01*
X176386734Y-107237043D01*
X176230209Y-107153378D01*
X176194471Y-107124048D01*
X176093014Y-107040786D01*
X176009752Y-106939329D01*
X175980422Y-106903591D01*
X175896757Y-106747066D01*
X175845237Y-106577227D01*
X175827841Y-106400600D01*
X175845237Y-106223973D01*
X175896757Y-106054134D01*
X175980422Y-105897609D01*
X176009752Y-105861871D01*
X176093014Y-105760414D01*
X176198616Y-105673750D01*
X176230209Y-105647822D01*
X176386734Y-105564157D01*
X176556573Y-105512637D01*
X176622757Y-105506119D01*
X176688940Y-105499600D01*
X176777460Y-105499600D01*
X176843642Y-105506118D01*
X176843642Y-105506118D01*
G37*
G36*
X180174200Y-107301600D02*
G01*
X178372200Y-107301600D01*
X178372200Y-105499600D01*
X180174200Y-105499600D01*
X180174200Y-107301600D01*
X180174200Y-107301600D01*
G37*
G36*
X169223642Y-105506118D02*
G01*
X169289827Y-105512637D01*
X169459666Y-105564157D01*
X169616191Y-105647822D01*
X169647784Y-105673750D01*
X169753386Y-105760414D01*
X169836648Y-105861871D01*
X169865978Y-105897609D01*
X169949643Y-106054134D01*
X170001163Y-106223973D01*
X170018559Y-106400600D01*
X170001163Y-106577227D01*
X169949643Y-106747066D01*
X169865978Y-106903591D01*
X169836648Y-106939329D01*
X169753386Y-107040786D01*
X169651929Y-107124048D01*
X169616191Y-107153378D01*
X169459666Y-107237043D01*
X169289827Y-107288563D01*
X169223643Y-107295081D01*
X169157460Y-107301600D01*
X169068940Y-107301600D01*
X169002757Y-107295081D01*
X168936573Y-107288563D01*
X168766734Y-107237043D01*
X168610209Y-107153378D01*
X168574471Y-107124048D01*
X168473014Y-107040786D01*
X168389752Y-106939329D01*
X168360422Y-106903591D01*
X168276757Y-106747066D01*
X168225237Y-106577227D01*
X168207841Y-106400600D01*
X168225237Y-106223973D01*
X168276757Y-106054134D01*
X168360422Y-105897609D01*
X168389752Y-105861871D01*
X168473014Y-105760414D01*
X168578616Y-105673750D01*
X168610209Y-105647822D01*
X168766734Y-105564157D01*
X168936573Y-105512637D01*
X169002757Y-105506119D01*
X169068940Y-105499600D01*
X169157460Y-105499600D01*
X169223642Y-105506118D01*
X169223642Y-105506118D01*
G37*
G36*
X174303642Y-105506118D02*
G01*
X174369827Y-105512637D01*
X174539666Y-105564157D01*
X174696191Y-105647822D01*
X174727784Y-105673750D01*
X174833386Y-105760414D01*
X174916648Y-105861871D01*
X174945978Y-105897609D01*
X175029643Y-106054134D01*
X175081163Y-106223973D01*
X175098559Y-106400600D01*
X175081163Y-106577227D01*
X175029643Y-106747066D01*
X174945978Y-106903591D01*
X174916648Y-106939329D01*
X174833386Y-107040786D01*
X174731929Y-107124048D01*
X174696191Y-107153378D01*
X174539666Y-107237043D01*
X174369827Y-107288563D01*
X174303643Y-107295081D01*
X174237460Y-107301600D01*
X174148940Y-107301600D01*
X174082757Y-107295081D01*
X174016573Y-107288563D01*
X173846734Y-107237043D01*
X173690209Y-107153378D01*
X173654471Y-107124048D01*
X173553014Y-107040786D01*
X173469752Y-106939329D01*
X173440422Y-106903591D01*
X173356757Y-106747066D01*
X173305237Y-106577227D01*
X173287841Y-106400600D01*
X173305237Y-106223973D01*
X173356757Y-106054134D01*
X173440422Y-105897609D01*
X173469752Y-105861871D01*
X173553014Y-105760414D01*
X173658616Y-105673750D01*
X173690209Y-105647822D01*
X173846734Y-105564157D01*
X174016573Y-105512637D01*
X174082757Y-105506119D01*
X174148940Y-105499600D01*
X174237460Y-105499600D01*
X174303642Y-105506118D01*
X174303642Y-105506118D01*
G37*
G36*
X147343991Y-105433585D02*
G01*
X147377969Y-105443893D01*
X147409290Y-105460634D01*
X147436739Y-105483161D01*
X147459266Y-105510610D01*
X147476007Y-105541931D01*
X147486315Y-105575909D01*
X147490400Y-105617390D01*
X147490400Y-106218610D01*
X147486315Y-106260091D01*
X147476007Y-106294069D01*
X147459266Y-106325390D01*
X147436739Y-106352839D01*
X147409290Y-106375366D01*
X147377969Y-106392107D01*
X147343991Y-106402415D01*
X147302510Y-106406500D01*
X146626290Y-106406500D01*
X146584809Y-106402415D01*
X146550831Y-106392107D01*
X146519510Y-106375366D01*
X146492061Y-106352839D01*
X146469534Y-106325390D01*
X146452793Y-106294069D01*
X146442485Y-106260091D01*
X146438400Y-106218610D01*
X146438400Y-105617390D01*
X146442485Y-105575909D01*
X146452793Y-105541931D01*
X146469534Y-105510610D01*
X146492061Y-105483161D01*
X146519510Y-105460634D01*
X146550831Y-105443893D01*
X146584809Y-105433585D01*
X146626290Y-105429500D01*
X147302510Y-105429500D01*
X147343991Y-105433585D01*
X147343991Y-105433585D01*
G37*
G36*
X137171401Y-105853801D02*
G01*
X134869401Y-105853801D01*
X134869401Y-104551801D01*
X137171401Y-104551801D01*
X137171401Y-105853801D01*
X137171401Y-105853801D01*
G37*
G36*
X129050076Y-101848884D02*
G01*
X129267369Y-101938890D01*
X129267371Y-101938891D01*
X129462930Y-102069560D01*
X129629240Y-102235870D01*
X129759910Y-102431431D01*
X129849916Y-102648724D01*
X129895800Y-102879400D01*
X129895800Y-103114600D01*
X129849916Y-103345276D01*
X129759910Y-103562569D01*
X129759909Y-103562571D01*
X129629240Y-103758130D01*
X129462930Y-103924440D01*
X129267371Y-104055109D01*
X129267370Y-104055110D01*
X129267369Y-104055110D01*
X129050076Y-104145116D01*
X128819400Y-104191000D01*
X128584200Y-104191000D01*
X128353524Y-104145116D01*
X128136231Y-104055110D01*
X128136230Y-104055110D01*
X128136229Y-104055109D01*
X127940670Y-103924440D01*
X127774360Y-103758130D01*
X127643691Y-103562571D01*
X127643690Y-103562569D01*
X127553684Y-103345276D01*
X127507800Y-103114600D01*
X127507800Y-102879400D01*
X127553684Y-102648724D01*
X127643690Y-102431431D01*
X127774360Y-102235870D01*
X127940670Y-102069560D01*
X128136229Y-101938891D01*
X128136231Y-101938890D01*
X128353524Y-101848884D01*
X128584200Y-101803000D01*
X128819400Y-101803000D01*
X129050076Y-101848884D01*
X129050076Y-101848884D01*
G37*
G36*
X149370076Y-101848884D02*
G01*
X149587369Y-101938890D01*
X149587371Y-101938891D01*
X149782930Y-102069560D01*
X149949240Y-102235870D01*
X150079910Y-102431431D01*
X150169916Y-102648724D01*
X150215800Y-102879400D01*
X150215800Y-103114600D01*
X150169916Y-103345276D01*
X150079910Y-103562569D01*
X150079909Y-103562571D01*
X149949240Y-103758130D01*
X149782930Y-103924440D01*
X149587371Y-104055109D01*
X149587370Y-104055110D01*
X149587369Y-104055110D01*
X149370076Y-104145116D01*
X149139400Y-104191000D01*
X148904200Y-104191000D01*
X148673524Y-104145116D01*
X148456231Y-104055110D01*
X148456230Y-104055110D01*
X148456229Y-104055109D01*
X148260670Y-103924440D01*
X148094360Y-103758130D01*
X147963691Y-103562571D01*
X147963690Y-103562569D01*
X147873684Y-103345276D01*
X147827800Y-103114600D01*
X147827800Y-102879400D01*
X147873684Y-102648724D01*
X147963690Y-102431431D01*
X148094360Y-102235870D01*
X148260670Y-102069560D01*
X148456229Y-101938891D01*
X148456231Y-101938890D01*
X148673524Y-101848884D01*
X148904200Y-101803000D01*
X149139400Y-101803000D01*
X149370076Y-101848884D01*
X149370076Y-101848884D01*
G37*
G36*
X166734442Y-98902118D02*
G01*
X166800627Y-98908637D01*
X166970466Y-98960157D01*
X167126991Y-99043822D01*
X167162729Y-99073152D01*
X167264186Y-99156414D01*
X167347448Y-99257871D01*
X167376778Y-99293609D01*
X167460443Y-99450134D01*
X167511963Y-99619973D01*
X167529359Y-99796600D01*
X167511963Y-99973227D01*
X167460443Y-100143066D01*
X167376778Y-100299591D01*
X167347448Y-100335329D01*
X167264186Y-100436786D01*
X167162729Y-100520048D01*
X167126991Y-100549378D01*
X166970466Y-100633043D01*
X166800627Y-100684563D01*
X166734442Y-100691082D01*
X166668260Y-100697600D01*
X166579740Y-100697600D01*
X166513557Y-100691081D01*
X166447373Y-100684563D01*
X166277534Y-100633043D01*
X166121009Y-100549378D01*
X166085271Y-100520048D01*
X165983814Y-100436786D01*
X165900552Y-100335329D01*
X165871222Y-100299591D01*
X165787557Y-100143066D01*
X165736037Y-99973227D01*
X165718641Y-99796600D01*
X165736037Y-99619973D01*
X165787557Y-99450134D01*
X165871222Y-99293609D01*
X165900552Y-99257871D01*
X165983814Y-99156414D01*
X166085271Y-99073152D01*
X166121009Y-99043822D01*
X166277534Y-98960157D01*
X166447373Y-98908637D01*
X166513557Y-98902119D01*
X166579740Y-98895600D01*
X166668260Y-98895600D01*
X166734442Y-98902118D01*
X166734442Y-98902118D01*
G37*
G36*
X180225000Y-100697600D02*
G01*
X178423000Y-100697600D01*
X178423000Y-98895600D01*
X180225000Y-98895600D01*
X180225000Y-100697600D01*
X180225000Y-100697600D01*
G37*
G36*
X176894442Y-98902118D02*
G01*
X176960627Y-98908637D01*
X177130466Y-98960157D01*
X177286991Y-99043822D01*
X177322729Y-99073152D01*
X177424186Y-99156414D01*
X177507448Y-99257871D01*
X177536778Y-99293609D01*
X177620443Y-99450134D01*
X177671963Y-99619973D01*
X177689359Y-99796600D01*
X177671963Y-99973227D01*
X177620443Y-100143066D01*
X177536778Y-100299591D01*
X177507448Y-100335329D01*
X177424186Y-100436786D01*
X177322729Y-100520048D01*
X177286991Y-100549378D01*
X177130466Y-100633043D01*
X176960627Y-100684563D01*
X176894442Y-100691082D01*
X176828260Y-100697600D01*
X176739740Y-100697600D01*
X176673557Y-100691081D01*
X176607373Y-100684563D01*
X176437534Y-100633043D01*
X176281009Y-100549378D01*
X176245271Y-100520048D01*
X176143814Y-100436786D01*
X176060552Y-100335329D01*
X176031222Y-100299591D01*
X175947557Y-100143066D01*
X175896037Y-99973227D01*
X175878641Y-99796600D01*
X175896037Y-99619973D01*
X175947557Y-99450134D01*
X176031222Y-99293609D01*
X176060552Y-99257871D01*
X176143814Y-99156414D01*
X176245271Y-99073152D01*
X176281009Y-99043822D01*
X176437534Y-98960157D01*
X176607373Y-98908637D01*
X176673557Y-98902119D01*
X176739740Y-98895600D01*
X176828260Y-98895600D01*
X176894442Y-98902118D01*
X176894442Y-98902118D01*
G37*
G36*
X171814442Y-98902118D02*
G01*
X171880627Y-98908637D01*
X172050466Y-98960157D01*
X172206991Y-99043822D01*
X172242729Y-99073152D01*
X172344186Y-99156414D01*
X172427448Y-99257871D01*
X172456778Y-99293609D01*
X172540443Y-99450134D01*
X172591963Y-99619973D01*
X172609359Y-99796600D01*
X172591963Y-99973227D01*
X172540443Y-100143066D01*
X172456778Y-100299591D01*
X172427448Y-100335329D01*
X172344186Y-100436786D01*
X172242729Y-100520048D01*
X172206991Y-100549378D01*
X172050466Y-100633043D01*
X171880627Y-100684563D01*
X171814442Y-100691082D01*
X171748260Y-100697600D01*
X171659740Y-100697600D01*
X171593557Y-100691081D01*
X171527373Y-100684563D01*
X171357534Y-100633043D01*
X171201009Y-100549378D01*
X171165271Y-100520048D01*
X171063814Y-100436786D01*
X170980552Y-100335329D01*
X170951222Y-100299591D01*
X170867557Y-100143066D01*
X170816037Y-99973227D01*
X170798641Y-99796600D01*
X170816037Y-99619973D01*
X170867557Y-99450134D01*
X170951222Y-99293609D01*
X170980552Y-99257871D01*
X171063814Y-99156414D01*
X171165271Y-99073152D01*
X171201009Y-99043822D01*
X171357534Y-98960157D01*
X171527373Y-98908637D01*
X171593557Y-98902119D01*
X171659740Y-98895600D01*
X171748260Y-98895600D01*
X171814442Y-98902118D01*
X171814442Y-98902118D01*
G37*
G36*
X169274442Y-98902118D02*
G01*
X169340627Y-98908637D01*
X169510466Y-98960157D01*
X169666991Y-99043822D01*
X169702729Y-99073152D01*
X169804186Y-99156414D01*
X169887448Y-99257871D01*
X169916778Y-99293609D01*
X170000443Y-99450134D01*
X170051963Y-99619973D01*
X170069359Y-99796600D01*
X170051963Y-99973227D01*
X170000443Y-100143066D01*
X169916778Y-100299591D01*
X169887448Y-100335329D01*
X169804186Y-100436786D01*
X169702729Y-100520048D01*
X169666991Y-100549378D01*
X169510466Y-100633043D01*
X169340627Y-100684563D01*
X169274442Y-100691082D01*
X169208260Y-100697600D01*
X169119740Y-100697600D01*
X169053557Y-100691081D01*
X168987373Y-100684563D01*
X168817534Y-100633043D01*
X168661009Y-100549378D01*
X168625271Y-100520048D01*
X168523814Y-100436786D01*
X168440552Y-100335329D01*
X168411222Y-100299591D01*
X168327557Y-100143066D01*
X168276037Y-99973227D01*
X168258641Y-99796600D01*
X168276037Y-99619973D01*
X168327557Y-99450134D01*
X168411222Y-99293609D01*
X168440552Y-99257871D01*
X168523814Y-99156414D01*
X168625271Y-99073152D01*
X168661009Y-99043822D01*
X168817534Y-98960157D01*
X168987373Y-98908637D01*
X169053557Y-98902119D01*
X169119740Y-98895600D01*
X169208260Y-98895600D01*
X169274442Y-98902118D01*
X169274442Y-98902118D01*
G37*
G36*
X174354442Y-98902118D02*
G01*
X174420627Y-98908637D01*
X174590466Y-98960157D01*
X174746991Y-99043822D01*
X174782729Y-99073152D01*
X174884186Y-99156414D01*
X174967448Y-99257871D01*
X174996778Y-99293609D01*
X175080443Y-99450134D01*
X175131963Y-99619973D01*
X175149359Y-99796600D01*
X175131963Y-99973227D01*
X175080443Y-100143066D01*
X174996778Y-100299591D01*
X174967448Y-100335329D01*
X174884186Y-100436786D01*
X174782729Y-100520048D01*
X174746991Y-100549378D01*
X174590466Y-100633043D01*
X174420627Y-100684563D01*
X174354442Y-100691082D01*
X174288260Y-100697600D01*
X174199740Y-100697600D01*
X174133557Y-100691081D01*
X174067373Y-100684563D01*
X173897534Y-100633043D01*
X173741009Y-100549378D01*
X173705271Y-100520048D01*
X173603814Y-100436786D01*
X173520552Y-100335329D01*
X173491222Y-100299591D01*
X173407557Y-100143066D01*
X173356037Y-99973227D01*
X173338641Y-99796600D01*
X173356037Y-99619973D01*
X173407557Y-99450134D01*
X173491222Y-99293609D01*
X173520552Y-99257871D01*
X173603814Y-99156414D01*
X173705271Y-99073152D01*
X173741009Y-99043822D01*
X173897534Y-98960157D01*
X174067373Y-98908637D01*
X174133557Y-98902119D01*
X174199740Y-98895600D01*
X174288260Y-98895600D01*
X174354442Y-98902118D01*
X174354442Y-98902118D01*
G37*
G36*
X128313476Y-96210084D02*
G01*
X128530769Y-96300090D01*
X128530771Y-96300091D01*
X128726330Y-96430760D01*
X128892640Y-96597070D01*
X129023310Y-96792631D01*
X129114713Y-97013297D01*
X129119716Y-97029789D01*
X129131267Y-97051399D01*
X129146813Y-97070341D01*
X129165755Y-97085886D01*
X129187365Y-97097437D01*
X129210814Y-97104550D01*
X129235200Y-97106952D01*
X129259587Y-97104550D01*
X129283036Y-97097437D01*
X129304646Y-97085886D01*
X129323588Y-97070340D01*
X129339133Y-97051398D01*
X129350684Y-97029788D01*
X129355686Y-97013298D01*
X129447090Y-96792631D01*
X129577760Y-96597070D01*
X129744070Y-96430760D01*
X129939629Y-96300091D01*
X129939631Y-96300090D01*
X130156924Y-96210084D01*
X130387600Y-96164200D01*
X130622800Y-96164200D01*
X130853476Y-96210084D01*
X131070769Y-96300090D01*
X131070771Y-96300091D01*
X131266330Y-96430760D01*
X131432640Y-96597070D01*
X131563310Y-96792631D01*
X131654713Y-97013297D01*
X131659716Y-97029789D01*
X131671267Y-97051399D01*
X131686813Y-97070341D01*
X131705755Y-97085886D01*
X131727365Y-97097437D01*
X131750814Y-97104550D01*
X131775200Y-97106952D01*
X131799587Y-97104550D01*
X131823036Y-97097437D01*
X131844646Y-97085886D01*
X131863588Y-97070340D01*
X131879133Y-97051398D01*
X131890684Y-97029788D01*
X131895686Y-97013298D01*
X131987090Y-96792631D01*
X132117760Y-96597070D01*
X132284070Y-96430760D01*
X132479629Y-96300091D01*
X132479631Y-96300090D01*
X132696924Y-96210084D01*
X132927600Y-96164200D01*
X133162800Y-96164200D01*
X133393476Y-96210084D01*
X133610769Y-96300090D01*
X133610771Y-96300091D01*
X133806330Y-96430760D01*
X133972640Y-96597070D01*
X134103310Y-96792631D01*
X134194713Y-97013297D01*
X134199716Y-97029789D01*
X134211267Y-97051399D01*
X134226813Y-97070341D01*
X134245755Y-97085886D01*
X134267365Y-97097437D01*
X134290814Y-97104550D01*
X134315200Y-97106952D01*
X134339587Y-97104550D01*
X134363036Y-97097437D01*
X134384646Y-97085886D01*
X134403588Y-97070340D01*
X134419133Y-97051398D01*
X134430684Y-97029788D01*
X134435686Y-97013298D01*
X134527090Y-96792631D01*
X134657760Y-96597070D01*
X134824070Y-96430760D01*
X135019629Y-96300091D01*
X135019631Y-96300090D01*
X135236924Y-96210084D01*
X135467600Y-96164200D01*
X135702800Y-96164200D01*
X135933476Y-96210084D01*
X136150769Y-96300090D01*
X136150771Y-96300091D01*
X136346330Y-96430760D01*
X136512640Y-96597070D01*
X136643310Y-96792631D01*
X136734713Y-97013297D01*
X136739716Y-97029789D01*
X136751267Y-97051399D01*
X136766813Y-97070341D01*
X136785755Y-97085886D01*
X136807365Y-97097437D01*
X136830814Y-97104550D01*
X136855200Y-97106952D01*
X136879587Y-97104550D01*
X136903036Y-97097437D01*
X136924646Y-97085886D01*
X136943588Y-97070340D01*
X136959133Y-97051398D01*
X136970684Y-97029788D01*
X136975686Y-97013298D01*
X137067090Y-96792631D01*
X137197760Y-96597070D01*
X137364070Y-96430760D01*
X137559629Y-96300091D01*
X137559631Y-96300090D01*
X137776924Y-96210084D01*
X138007600Y-96164200D01*
X138242800Y-96164200D01*
X138473476Y-96210084D01*
X138690769Y-96300090D01*
X138690771Y-96300091D01*
X138886330Y-96430760D01*
X139052640Y-96597070D01*
X139183310Y-96792631D01*
X139274713Y-97013297D01*
X139279716Y-97029789D01*
X139291267Y-97051399D01*
X139306813Y-97070341D01*
X139325755Y-97085886D01*
X139347365Y-97097437D01*
X139370814Y-97104550D01*
X139395200Y-97106952D01*
X139419587Y-97104550D01*
X139443036Y-97097437D01*
X139464646Y-97085886D01*
X139483588Y-97070340D01*
X139499133Y-97051398D01*
X139510684Y-97029788D01*
X139515686Y-97013298D01*
X139607090Y-96792631D01*
X139737760Y-96597070D01*
X139904070Y-96430760D01*
X140099629Y-96300091D01*
X140099631Y-96300090D01*
X140316924Y-96210084D01*
X140547600Y-96164200D01*
X140782800Y-96164200D01*
X141013476Y-96210084D01*
X141230769Y-96300090D01*
X141230771Y-96300091D01*
X141426330Y-96430760D01*
X141592640Y-96597070D01*
X141723310Y-96792631D01*
X141814713Y-97013297D01*
X141819716Y-97029789D01*
X141831267Y-97051399D01*
X141846813Y-97070341D01*
X141865755Y-97085886D01*
X141887365Y-97097437D01*
X141910814Y-97104550D01*
X141935200Y-97106952D01*
X141959587Y-97104550D01*
X141983036Y-97097437D01*
X142004646Y-97085886D01*
X142023588Y-97070340D01*
X142039133Y-97051398D01*
X142050684Y-97029788D01*
X142055686Y-97013298D01*
X142147090Y-96792631D01*
X142277760Y-96597070D01*
X142444070Y-96430760D01*
X142639629Y-96300091D01*
X142639631Y-96300090D01*
X142856924Y-96210084D01*
X143087600Y-96164200D01*
X143322800Y-96164200D01*
X143553476Y-96210084D01*
X143770769Y-96300090D01*
X143770771Y-96300091D01*
X143966330Y-96430760D01*
X144132640Y-96597070D01*
X144263310Y-96792631D01*
X144354713Y-97013297D01*
X144359716Y-97029789D01*
X144371267Y-97051399D01*
X144386813Y-97070341D01*
X144405755Y-97085886D01*
X144427365Y-97097437D01*
X144450814Y-97104550D01*
X144475200Y-97106952D01*
X144499587Y-97104550D01*
X144523036Y-97097437D01*
X144544646Y-97085886D01*
X144563588Y-97070340D01*
X144579133Y-97051398D01*
X144590684Y-97029788D01*
X144595686Y-97013298D01*
X144687090Y-96792631D01*
X144817760Y-96597070D01*
X144984070Y-96430760D01*
X145179629Y-96300091D01*
X145179631Y-96300090D01*
X145396924Y-96210084D01*
X145627600Y-96164200D01*
X145862800Y-96164200D01*
X146093476Y-96210084D01*
X146310769Y-96300090D01*
X146310771Y-96300091D01*
X146506330Y-96430760D01*
X146672640Y-96597070D01*
X146803310Y-96792631D01*
X146893316Y-97009924D01*
X146939200Y-97240600D01*
X146939200Y-97475800D01*
X146893316Y-97706476D01*
X146803310Y-97923769D01*
X146803309Y-97923771D01*
X146672640Y-98119330D01*
X146506330Y-98285640D01*
X146310771Y-98416309D01*
X146310770Y-98416310D01*
X146310769Y-98416310D01*
X146093476Y-98506316D01*
X145862800Y-98552200D01*
X145627600Y-98552200D01*
X145396924Y-98506316D01*
X145179631Y-98416310D01*
X145179630Y-98416310D01*
X145179629Y-98416309D01*
X144984070Y-98285640D01*
X144817760Y-98119330D01*
X144687091Y-97923771D01*
X144597085Y-97706477D01*
X144595687Y-97703103D01*
X144590684Y-97686611D01*
X144579133Y-97665001D01*
X144563587Y-97646059D01*
X144544645Y-97630514D01*
X144523035Y-97618963D01*
X144499586Y-97611850D01*
X144475200Y-97609448D01*
X144450813Y-97611850D01*
X144427364Y-97618963D01*
X144405754Y-97630514D01*
X144386812Y-97646060D01*
X144371267Y-97665002D01*
X144359716Y-97686612D01*
X144354714Y-97703102D01*
X144263310Y-97923769D01*
X144263309Y-97923771D01*
X144132640Y-98119330D01*
X143966330Y-98285640D01*
X143770771Y-98416309D01*
X143770770Y-98416310D01*
X143770769Y-98416310D01*
X143553476Y-98506316D01*
X143322800Y-98552200D01*
X143087600Y-98552200D01*
X142856924Y-98506316D01*
X142639631Y-98416310D01*
X142639630Y-98416310D01*
X142639629Y-98416309D01*
X142444070Y-98285640D01*
X142277760Y-98119330D01*
X142147091Y-97923771D01*
X142057085Y-97706477D01*
X142055687Y-97703103D01*
X142050684Y-97686611D01*
X142039133Y-97665001D01*
X142023587Y-97646059D01*
X142004645Y-97630514D01*
X141983035Y-97618963D01*
X141959586Y-97611850D01*
X141935200Y-97609448D01*
X141910813Y-97611850D01*
X141887364Y-97618963D01*
X141865754Y-97630514D01*
X141846812Y-97646060D01*
X141831267Y-97665002D01*
X141819716Y-97686612D01*
X141814714Y-97703102D01*
X141723310Y-97923769D01*
X141723309Y-97923771D01*
X141592640Y-98119330D01*
X141426330Y-98285640D01*
X141230771Y-98416309D01*
X141230770Y-98416310D01*
X141230769Y-98416310D01*
X141013476Y-98506316D01*
X140782800Y-98552200D01*
X140547600Y-98552200D01*
X140316924Y-98506316D01*
X140099631Y-98416310D01*
X140099630Y-98416310D01*
X140099629Y-98416309D01*
X139904070Y-98285640D01*
X139737760Y-98119330D01*
X139607091Y-97923771D01*
X139517085Y-97706477D01*
X139515687Y-97703103D01*
X139510684Y-97686611D01*
X139499133Y-97665001D01*
X139483587Y-97646059D01*
X139464645Y-97630514D01*
X139443035Y-97618963D01*
X139419586Y-97611850D01*
X139395200Y-97609448D01*
X139370813Y-97611850D01*
X139347364Y-97618963D01*
X139325754Y-97630514D01*
X139306812Y-97646060D01*
X139291267Y-97665002D01*
X139279716Y-97686612D01*
X139274714Y-97703102D01*
X139183310Y-97923769D01*
X139183309Y-97923771D01*
X139052640Y-98119330D01*
X138886330Y-98285640D01*
X138690771Y-98416309D01*
X138690770Y-98416310D01*
X138690769Y-98416310D01*
X138473476Y-98506316D01*
X138242800Y-98552200D01*
X138007600Y-98552200D01*
X137776924Y-98506316D01*
X137559631Y-98416310D01*
X137559630Y-98416310D01*
X137559629Y-98416309D01*
X137364070Y-98285640D01*
X137197760Y-98119330D01*
X137067091Y-97923771D01*
X136977085Y-97706477D01*
X136975687Y-97703103D01*
X136970684Y-97686611D01*
X136959133Y-97665001D01*
X136943587Y-97646059D01*
X136924645Y-97630514D01*
X136903035Y-97618963D01*
X136879586Y-97611850D01*
X136855200Y-97609448D01*
X136830813Y-97611850D01*
X136807364Y-97618963D01*
X136785754Y-97630514D01*
X136766812Y-97646060D01*
X136751267Y-97665002D01*
X136739716Y-97686612D01*
X136734714Y-97703102D01*
X136643310Y-97923769D01*
X136643309Y-97923771D01*
X136512640Y-98119330D01*
X136346330Y-98285640D01*
X136150771Y-98416309D01*
X136150770Y-98416310D01*
X136150769Y-98416310D01*
X135933476Y-98506316D01*
X135702800Y-98552200D01*
X135467600Y-98552200D01*
X135236924Y-98506316D01*
X135019631Y-98416310D01*
X135019630Y-98416310D01*
X135019629Y-98416309D01*
X134824070Y-98285640D01*
X134657760Y-98119330D01*
X134527091Y-97923771D01*
X134437085Y-97706477D01*
X134435687Y-97703103D01*
X134430684Y-97686611D01*
X134419133Y-97665001D01*
X134403587Y-97646059D01*
X134384645Y-97630514D01*
X134363035Y-97618963D01*
X134339586Y-97611850D01*
X134315200Y-97609448D01*
X134290813Y-97611850D01*
X134267364Y-97618963D01*
X134245754Y-97630514D01*
X134226812Y-97646060D01*
X134211267Y-97665002D01*
X134199716Y-97686612D01*
X134194714Y-97703102D01*
X134103310Y-97923769D01*
X134103309Y-97923771D01*
X133972640Y-98119330D01*
X133806330Y-98285640D01*
X133610771Y-98416309D01*
X133610770Y-98416310D01*
X133610769Y-98416310D01*
X133393476Y-98506316D01*
X133162800Y-98552200D01*
X132927600Y-98552200D01*
X132696924Y-98506316D01*
X132479631Y-98416310D01*
X132479630Y-98416310D01*
X132479629Y-98416309D01*
X132284070Y-98285640D01*
X132117760Y-98119330D01*
X131987091Y-97923771D01*
X131897085Y-97706477D01*
X131895687Y-97703103D01*
X131890684Y-97686611D01*
X131879133Y-97665001D01*
X131863587Y-97646059D01*
X131844645Y-97630514D01*
X131823035Y-97618963D01*
X131799586Y-97611850D01*
X131775200Y-97609448D01*
X131750813Y-97611850D01*
X131727364Y-97618963D01*
X131705754Y-97630514D01*
X131686812Y-97646060D01*
X131671267Y-97665002D01*
X131659716Y-97686612D01*
X131654714Y-97703102D01*
X131563310Y-97923769D01*
X131563309Y-97923771D01*
X131432640Y-98119330D01*
X131266330Y-98285640D01*
X131070771Y-98416309D01*
X131070770Y-98416310D01*
X131070769Y-98416310D01*
X130853476Y-98506316D01*
X130622800Y-98552200D01*
X130387600Y-98552200D01*
X130156924Y-98506316D01*
X129939631Y-98416310D01*
X129939630Y-98416310D01*
X129939629Y-98416309D01*
X129744070Y-98285640D01*
X129577760Y-98119330D01*
X129447091Y-97923771D01*
X129357085Y-97706477D01*
X129355687Y-97703103D01*
X129350684Y-97686611D01*
X129339133Y-97665001D01*
X129323587Y-97646059D01*
X129304645Y-97630514D01*
X129283035Y-97618963D01*
X129259586Y-97611850D01*
X129235200Y-97609448D01*
X129210813Y-97611850D01*
X129187364Y-97618963D01*
X129165754Y-97630514D01*
X129146812Y-97646060D01*
X129131267Y-97665002D01*
X129119716Y-97686612D01*
X129114714Y-97703102D01*
X129023310Y-97923769D01*
X129023309Y-97923771D01*
X128892640Y-98119330D01*
X128726330Y-98285640D01*
X128530771Y-98416309D01*
X128530770Y-98416310D01*
X128530769Y-98416310D01*
X128313476Y-98506316D01*
X128082800Y-98552200D01*
X127847600Y-98552200D01*
X127616924Y-98506316D01*
X127399631Y-98416310D01*
X127399630Y-98416310D01*
X127399629Y-98416309D01*
X127204070Y-98285640D01*
X127037760Y-98119330D01*
X126907091Y-97923771D01*
X126907090Y-97923769D01*
X126817084Y-97706476D01*
X126771200Y-97475800D01*
X126771200Y-97240600D01*
X126817084Y-97009924D01*
X126907090Y-96792631D01*
X127037760Y-96597070D01*
X127204070Y-96430760D01*
X127399629Y-96300091D01*
X127399631Y-96300090D01*
X127616924Y-96210084D01*
X127847600Y-96164200D01*
X128082800Y-96164200D01*
X128313476Y-96210084D01*
X128313476Y-96210084D01*
G37*
G36*
X133412791Y-94321685D02*
G01*
X133446769Y-94331993D01*
X133478090Y-94348734D01*
X133505539Y-94371261D01*
X133528066Y-94398710D01*
X133544807Y-94430031D01*
X133555115Y-94464009D01*
X133559200Y-94505490D01*
X133559200Y-95181710D01*
X133555115Y-95223191D01*
X133544807Y-95257169D01*
X133528066Y-95288490D01*
X133505539Y-95315939D01*
X133478090Y-95338466D01*
X133446769Y-95355207D01*
X133412791Y-95365515D01*
X133371310Y-95369600D01*
X132770090Y-95369600D01*
X132728609Y-95365515D01*
X132694631Y-95355207D01*
X132663310Y-95338466D01*
X132635861Y-95315939D01*
X132613334Y-95288490D01*
X132596593Y-95257169D01*
X132586285Y-95223191D01*
X132582200Y-95181710D01*
X132582200Y-94505490D01*
X132586285Y-94464009D01*
X132596593Y-94430031D01*
X132613334Y-94398710D01*
X132635861Y-94371261D01*
X132663310Y-94348734D01*
X132694631Y-94331993D01*
X132728609Y-94321685D01*
X132770090Y-94317600D01*
X133371310Y-94317600D01*
X133412791Y-94321685D01*
X133412791Y-94321685D01*
G37*
G36*
X131837791Y-94321685D02*
G01*
X131871769Y-94331993D01*
X131903090Y-94348734D01*
X131930539Y-94371261D01*
X131953066Y-94398710D01*
X131969807Y-94430031D01*
X131980115Y-94464009D01*
X131984200Y-94505490D01*
X131984200Y-95181710D01*
X131980115Y-95223191D01*
X131969807Y-95257169D01*
X131953066Y-95288490D01*
X131930539Y-95315939D01*
X131903090Y-95338466D01*
X131871769Y-95355207D01*
X131837791Y-95365515D01*
X131796310Y-95369600D01*
X131195090Y-95369600D01*
X131153609Y-95365515D01*
X131119631Y-95355207D01*
X131088310Y-95338466D01*
X131060861Y-95315939D01*
X131038334Y-95288490D01*
X131021593Y-95257169D01*
X131011285Y-95223191D01*
X131007200Y-95181710D01*
X131007200Y-94505490D01*
X131011285Y-94464009D01*
X131021593Y-94430031D01*
X131038334Y-94398710D01*
X131060861Y-94371261D01*
X131088310Y-94348734D01*
X131119631Y-94331993D01*
X131153609Y-94321685D01*
X131195090Y-94317600D01*
X131796310Y-94317600D01*
X131837791Y-94321685D01*
X131837791Y-94321685D01*
G37*
G36*
X135927391Y-92543685D02*
G01*
X135961369Y-92553993D01*
X135992690Y-92570734D01*
X136020139Y-92593261D01*
X136042666Y-92620710D01*
X136059407Y-92652031D01*
X136069715Y-92686009D01*
X136073800Y-92727490D01*
X136073800Y-93403710D01*
X136069715Y-93445191D01*
X136059407Y-93479169D01*
X136042666Y-93510490D01*
X136020139Y-93537939D01*
X135992690Y-93560466D01*
X135961369Y-93577207D01*
X135927391Y-93587515D01*
X135885910Y-93591600D01*
X135284690Y-93591600D01*
X135243209Y-93587515D01*
X135209231Y-93577207D01*
X135177910Y-93560466D01*
X135150461Y-93537939D01*
X135127934Y-93510490D01*
X135111193Y-93479169D01*
X135100885Y-93445191D01*
X135096800Y-93403710D01*
X135096800Y-92727490D01*
X135100885Y-92686009D01*
X135111193Y-92652031D01*
X135127934Y-92620710D01*
X135150461Y-92593261D01*
X135177910Y-92570734D01*
X135209231Y-92553993D01*
X135243209Y-92543685D01*
X135284690Y-92539600D01*
X135885910Y-92539600D01*
X135927391Y-92543685D01*
X135927391Y-92543685D01*
G37*
G36*
X134352391Y-92543685D02*
G01*
X134386369Y-92553993D01*
X134417690Y-92570734D01*
X134445139Y-92593261D01*
X134467666Y-92620710D01*
X134484407Y-92652031D01*
X134494715Y-92686009D01*
X134498800Y-92727490D01*
X134498800Y-93403710D01*
X134494715Y-93445191D01*
X134484407Y-93479169D01*
X134467666Y-93510490D01*
X134445139Y-93537939D01*
X134417690Y-93560466D01*
X134386369Y-93577207D01*
X134352391Y-93587515D01*
X134310910Y-93591600D01*
X133709690Y-93591600D01*
X133668209Y-93587515D01*
X133634231Y-93577207D01*
X133602910Y-93560466D01*
X133575461Y-93537939D01*
X133552934Y-93510490D01*
X133536193Y-93479169D01*
X133525885Y-93445191D01*
X133521800Y-93403710D01*
X133521800Y-92727490D01*
X133525885Y-92686009D01*
X133536193Y-92652031D01*
X133552934Y-92620710D01*
X133575461Y-92593261D01*
X133602910Y-92570734D01*
X133634231Y-92553993D01*
X133668209Y-92543685D01*
X133709690Y-92539600D01*
X134310910Y-92539600D01*
X134352391Y-92543685D01*
X134352391Y-92543685D01*
G37*
G36*
X163310200Y-91130600D02*
G01*
X161708200Y-91130600D01*
X161708200Y-90428600D01*
X163310200Y-90428600D01*
X163310200Y-91130600D01*
X163310200Y-91130600D01*
G37*
G36*
X157910200Y-91130600D02*
G01*
X156308200Y-91130600D01*
X156308200Y-90428600D01*
X157910200Y-90428600D01*
X157910200Y-91130600D01*
X157910200Y-91130600D01*
G37*
G36*
X179822000Y-90851200D02*
G01*
X178220000Y-90851200D01*
X178220000Y-90149200D01*
X179822000Y-90149200D01*
X179822000Y-90851200D01*
X179822000Y-90851200D01*
G37*
G36*
X170522000Y-90851200D02*
G01*
X168920000Y-90851200D01*
X168920000Y-90149200D01*
X170522000Y-90149200D01*
X170522000Y-90851200D01*
X170522000Y-90851200D01*
G37*
G36*
X157910200Y-89860600D02*
G01*
X156308200Y-89860600D01*
X156308200Y-89158600D01*
X157910200Y-89158600D01*
X157910200Y-89860600D01*
X157910200Y-89860600D01*
G37*
G36*
X163310200Y-89860600D02*
G01*
X161708200Y-89860600D01*
X161708200Y-89158600D01*
X163310200Y-89158600D01*
X163310200Y-89860600D01*
X163310200Y-89860600D01*
G37*
G36*
X179822000Y-89581200D02*
G01*
X178220000Y-89581200D01*
X178220000Y-88879200D01*
X179822000Y-88879200D01*
X179822000Y-89581200D01*
X179822000Y-89581200D01*
G37*
G36*
X170522000Y-89581200D02*
G01*
X168920000Y-89581200D01*
X168920000Y-88879200D01*
X170522000Y-88879200D01*
X170522000Y-89581200D01*
X170522000Y-89581200D01*
G37*
G36*
X163310200Y-88590600D02*
G01*
X161708200Y-88590600D01*
X161708200Y-87888600D01*
X163310200Y-87888600D01*
X163310200Y-88590600D01*
X163310200Y-88590600D01*
G37*
G36*
X157910200Y-88590600D02*
G01*
X156308200Y-88590600D01*
X156308200Y-87888600D01*
X157910200Y-87888600D01*
X157910200Y-88590600D01*
X157910200Y-88590600D01*
G37*
G36*
X179822000Y-88311200D02*
G01*
X178220000Y-88311200D01*
X178220000Y-87609200D01*
X179822000Y-87609200D01*
X179822000Y-88311200D01*
X179822000Y-88311200D01*
G37*
G36*
X170522000Y-88311200D02*
G01*
X168920000Y-88311200D01*
X168920000Y-87609200D01*
X170522000Y-87609200D01*
X170522000Y-88311200D01*
X170522000Y-88311200D01*
G37*
G36*
X157910200Y-87320600D02*
G01*
X156308200Y-87320600D01*
X156308200Y-86618600D01*
X157910200Y-86618600D01*
X157910200Y-87320600D01*
X157910200Y-87320600D01*
G37*
G36*
X163310200Y-87320600D02*
G01*
X161708200Y-87320600D01*
X161708200Y-86618600D01*
X163310200Y-86618600D01*
X163310200Y-87320600D01*
X163310200Y-87320600D01*
G37*
G36*
X170522000Y-87041200D02*
G01*
X168920000Y-87041200D01*
X168920000Y-86339200D01*
X170522000Y-86339200D01*
X170522000Y-87041200D01*
X170522000Y-87041200D01*
G37*
G36*
X179822000Y-87041200D02*
G01*
X178220000Y-87041200D01*
X178220000Y-86339200D01*
X179822000Y-86339200D01*
X179822000Y-87041200D01*
X179822000Y-87041200D01*
G37*
G36*
X129063513Y-83880450D02*
G01*
X129306610Y-83928805D01*
X129588874Y-84045722D01*
X129842904Y-84215460D01*
X130058940Y-84431496D01*
X130228678Y-84685526D01*
X130345595Y-84967790D01*
X130405199Y-85267440D01*
X130405199Y-85572960D01*
X130345595Y-85872610D01*
X130228678Y-86154874D01*
X130058940Y-86408904D01*
X129842904Y-86624940D01*
X129588874Y-86794678D01*
X129306610Y-86911595D01*
X129106843Y-86951331D01*
X129006961Y-86971199D01*
X128701439Y-86971199D01*
X128601557Y-86951331D01*
X128401790Y-86911595D01*
X128119526Y-86794678D01*
X127865496Y-86624940D01*
X127649460Y-86408904D01*
X127479722Y-86154874D01*
X127362805Y-85872610D01*
X127303201Y-85572960D01*
X127303201Y-85267440D01*
X127362805Y-84967790D01*
X127479722Y-84685526D01*
X127649460Y-84431496D01*
X127865496Y-84215460D01*
X128119526Y-84045722D01*
X128401790Y-83928805D01*
X128644887Y-83880450D01*
X128701439Y-83869201D01*
X129006961Y-83869201D01*
X129063513Y-83880450D01*
X129063513Y-83880450D01*
G37*
G36*
X145065513Y-83880450D02*
G01*
X145308610Y-83928805D01*
X145590874Y-84045722D01*
X145844904Y-84215460D01*
X146060940Y-84431496D01*
X146230678Y-84685526D01*
X146347595Y-84967790D01*
X146407199Y-85267440D01*
X146407199Y-85572960D01*
X146347595Y-85872610D01*
X146230678Y-86154874D01*
X146060940Y-86408904D01*
X145844904Y-86624940D01*
X145590874Y-86794678D01*
X145308610Y-86911595D01*
X145108843Y-86951331D01*
X145008961Y-86971199D01*
X144703439Y-86971199D01*
X144603557Y-86951331D01*
X144403790Y-86911595D01*
X144121526Y-86794678D01*
X143867496Y-86624940D01*
X143651460Y-86408904D01*
X143481722Y-86154874D01*
X143364805Y-85872610D01*
X143305201Y-85572960D01*
X143305201Y-85267440D01*
X143364805Y-84967790D01*
X143481722Y-84685526D01*
X143651460Y-84431496D01*
X143867496Y-84215460D01*
X144121526Y-84045722D01*
X144403790Y-83928805D01*
X144646887Y-83880450D01*
X144703439Y-83869201D01*
X145008961Y-83869201D01*
X145065513Y-83880450D01*
X145065513Y-83880450D01*
G37*
G36*
X165860591Y-85215285D02*
G01*
X165894569Y-85225593D01*
X165925890Y-85242334D01*
X165953339Y-85264861D01*
X165975866Y-85292310D01*
X165992607Y-85323631D01*
X166002915Y-85357609D01*
X166007000Y-85399090D01*
X166007000Y-86000310D01*
X166002915Y-86041791D01*
X165992607Y-86075769D01*
X165975866Y-86107090D01*
X165953339Y-86134539D01*
X165925890Y-86157066D01*
X165894569Y-86173807D01*
X165860591Y-86184115D01*
X165819110Y-86188200D01*
X165142890Y-86188200D01*
X165101409Y-86184115D01*
X165067431Y-86173807D01*
X165036110Y-86157066D01*
X165008661Y-86134539D01*
X164986134Y-86107090D01*
X164969393Y-86075769D01*
X164959085Y-86041791D01*
X164955000Y-86000310D01*
X164955000Y-85399090D01*
X164959085Y-85357609D01*
X164969393Y-85323631D01*
X164986134Y-85292310D01*
X165008661Y-85264861D01*
X165036110Y-85242334D01*
X165067431Y-85225593D01*
X165101409Y-85215285D01*
X165142890Y-85211200D01*
X165819110Y-85211200D01*
X165860591Y-85215285D01*
X165860591Y-85215285D01*
G37*
G36*
X157910200Y-86050600D02*
G01*
X156308200Y-86050600D01*
X156308200Y-85348600D01*
X157910200Y-85348600D01*
X157910200Y-86050600D01*
X157910200Y-86050600D01*
G37*
G36*
X163310200Y-86050600D02*
G01*
X161708200Y-86050600D01*
X161708200Y-85348600D01*
X163310200Y-85348600D01*
X163310200Y-86050600D01*
X163310200Y-86050600D01*
G37*
G36*
X179822000Y-85771200D02*
G01*
X178220000Y-85771200D01*
X178220000Y-85069200D01*
X179822000Y-85069200D01*
X179822000Y-85771200D01*
X179822000Y-85771200D01*
G37*
G36*
X170522000Y-85771200D02*
G01*
X168920000Y-85771200D01*
X168920000Y-85069200D01*
X170522000Y-85069200D01*
X170522000Y-85771200D01*
X170522000Y-85771200D01*
G37*
G36*
X163310200Y-84780600D02*
G01*
X161708200Y-84780600D01*
X161708200Y-84078600D01*
X163310200Y-84078600D01*
X163310200Y-84780600D01*
X163310200Y-84780600D01*
G37*
G36*
X157910200Y-84780600D02*
G01*
X156308200Y-84780600D01*
X156308200Y-84078600D01*
X157910200Y-84078600D01*
X157910200Y-84780600D01*
X157910200Y-84780600D01*
G37*
G36*
X165860591Y-83640285D02*
G01*
X165894569Y-83650593D01*
X165925890Y-83667334D01*
X165953339Y-83689861D01*
X165975866Y-83717310D01*
X165992607Y-83748631D01*
X166002915Y-83782609D01*
X166007000Y-83824090D01*
X166007000Y-84425310D01*
X166002915Y-84466791D01*
X165992607Y-84500769D01*
X165975866Y-84532090D01*
X165953339Y-84559539D01*
X165925890Y-84582066D01*
X165894569Y-84598807D01*
X165860591Y-84609115D01*
X165819110Y-84613200D01*
X165142890Y-84613200D01*
X165101409Y-84609115D01*
X165067431Y-84598807D01*
X165036110Y-84582066D01*
X165008661Y-84559539D01*
X164986134Y-84532090D01*
X164969393Y-84500769D01*
X164959085Y-84466791D01*
X164955000Y-84425310D01*
X164955000Y-83824090D01*
X164959085Y-83782609D01*
X164969393Y-83748631D01*
X164986134Y-83717310D01*
X165008661Y-83689861D01*
X165036110Y-83667334D01*
X165067431Y-83650593D01*
X165101409Y-83640285D01*
X165142890Y-83636200D01*
X165819110Y-83636200D01*
X165860591Y-83640285D01*
X165860591Y-83640285D01*
G37*
G36*
X179822000Y-84501200D02*
G01*
X178220000Y-84501200D01*
X178220000Y-83799200D01*
X179822000Y-83799200D01*
X179822000Y-84501200D01*
X179822000Y-84501200D01*
G37*
G36*
X170522000Y-84501200D02*
G01*
X168920000Y-84501200D01*
X168920000Y-83799200D01*
X170522000Y-83799200D01*
X170522000Y-84501200D01*
X170522000Y-84501200D01*
G37*
G36*
X157910200Y-83510600D02*
G01*
X156308200Y-83510600D01*
X156308200Y-82808600D01*
X157910200Y-82808600D01*
X157910200Y-83510600D01*
X157910200Y-83510600D01*
G37*
G36*
X163310200Y-83510600D02*
G01*
X161708200Y-83510600D01*
X161708200Y-82808600D01*
X163310200Y-82808600D01*
X163310200Y-83510600D01*
X163310200Y-83510600D01*
G37*
G36*
X170522000Y-83231200D02*
G01*
X168920000Y-83231200D01*
X168920000Y-82529200D01*
X170522000Y-82529200D01*
X170522000Y-83231200D01*
X170522000Y-83231200D01*
G37*
G36*
X179822000Y-83231200D02*
G01*
X178220000Y-83231200D01*
X178220000Y-82529200D01*
X179822000Y-82529200D01*
X179822000Y-83231200D01*
X179822000Y-83231200D01*
G37*
G36*
X170522000Y-81961200D02*
G01*
X168920000Y-81961200D01*
X168920000Y-81259200D01*
X170522000Y-81259200D01*
X170522000Y-81961200D01*
X170522000Y-81961200D01*
G37*
G36*
X179822000Y-81961200D02*
G01*
X178220000Y-81961200D01*
X178220000Y-81259200D01*
X179822000Y-81259200D01*
X179822000Y-81961200D01*
X179822000Y-81961200D01*
G37*
G36*
X142477443Y-79953719D02*
G01*
X142543627Y-79960237D01*
X142713466Y-80011757D01*
X142869991Y-80095422D01*
X142905729Y-80124752D01*
X143007186Y-80208014D01*
X143090448Y-80309471D01*
X143119778Y-80345209D01*
X143203443Y-80501734D01*
X143254963Y-80671573D01*
X143272359Y-80848200D01*
X143254963Y-81024827D01*
X143203443Y-81194666D01*
X143119778Y-81351191D01*
X143090448Y-81386929D01*
X143007186Y-81488386D01*
X142905729Y-81571648D01*
X142869991Y-81600978D01*
X142713466Y-81684643D01*
X142543627Y-81736163D01*
X142477443Y-81742681D01*
X142411260Y-81749200D01*
X142322740Y-81749200D01*
X142256557Y-81742681D01*
X142190373Y-81736163D01*
X142020534Y-81684643D01*
X141864009Y-81600978D01*
X141828271Y-81571648D01*
X141726814Y-81488386D01*
X141643552Y-81386929D01*
X141614222Y-81351191D01*
X141530557Y-81194666D01*
X141479037Y-81024827D01*
X141461641Y-80848200D01*
X141479037Y-80671573D01*
X141530557Y-80501734D01*
X141614222Y-80345209D01*
X141643552Y-80309471D01*
X141726814Y-80208014D01*
X141828271Y-80124752D01*
X141864009Y-80095422D01*
X142020534Y-80011757D01*
X142190373Y-79960237D01*
X142256557Y-79953719D01*
X142322740Y-79947200D01*
X142411260Y-79947200D01*
X142477443Y-79953719D01*
X142477443Y-79953719D01*
G37*
G36*
X145808000Y-81749200D02*
G01*
X144006000Y-81749200D01*
X144006000Y-79947200D01*
X145808000Y-79947200D01*
X145808000Y-81749200D01*
X145808000Y-81749200D01*
G37*
G36*
X157466391Y-80504085D02*
G01*
X157500369Y-80514393D01*
X157531690Y-80531134D01*
X157559139Y-80553661D01*
X157581666Y-80581110D01*
X157598407Y-80612431D01*
X157608715Y-80646409D01*
X157612800Y-80687890D01*
X157612800Y-81364110D01*
X157608715Y-81405591D01*
X157598407Y-81439569D01*
X157581666Y-81470890D01*
X157559139Y-81498339D01*
X157531690Y-81520866D01*
X157500369Y-81537607D01*
X157466391Y-81547915D01*
X157424910Y-81552000D01*
X156823690Y-81552000D01*
X156782209Y-81547915D01*
X156748231Y-81537607D01*
X156716910Y-81520866D01*
X156689461Y-81498339D01*
X156666934Y-81470890D01*
X156650193Y-81439569D01*
X156639885Y-81405591D01*
X156635800Y-81364110D01*
X156635800Y-80687890D01*
X156639885Y-80646409D01*
X156650193Y-80612431D01*
X156666934Y-80581110D01*
X156689461Y-80553661D01*
X156716910Y-80531134D01*
X156748231Y-80514393D01*
X156782209Y-80504085D01*
X156823690Y-80500000D01*
X157424910Y-80500000D01*
X157466391Y-80504085D01*
X157466391Y-80504085D01*
G37*
G36*
X159041391Y-80504085D02*
G01*
X159075369Y-80514393D01*
X159106690Y-80531134D01*
X159134139Y-80553661D01*
X159156666Y-80581110D01*
X159173407Y-80612431D01*
X159183715Y-80646409D01*
X159187800Y-80687890D01*
X159187800Y-81364110D01*
X159183715Y-81405591D01*
X159173407Y-81439569D01*
X159156666Y-81470890D01*
X159134139Y-81498339D01*
X159106690Y-81520866D01*
X159075369Y-81537607D01*
X159041391Y-81547915D01*
X158999910Y-81552000D01*
X158398690Y-81552000D01*
X158357209Y-81547915D01*
X158323231Y-81537607D01*
X158291910Y-81520866D01*
X158264461Y-81498339D01*
X158241934Y-81470890D01*
X158225193Y-81439569D01*
X158214885Y-81405591D01*
X158210800Y-81364110D01*
X158210800Y-80687890D01*
X158214885Y-80646409D01*
X158225193Y-80612431D01*
X158241934Y-80581110D01*
X158264461Y-80553661D01*
X158291910Y-80531134D01*
X158323231Y-80514393D01*
X158357209Y-80504085D01*
X158398690Y-80500000D01*
X158999910Y-80500000D01*
X159041391Y-80504085D01*
X159041391Y-80504085D01*
G37*
G36*
X145808000Y-79209200D02*
G01*
X144006000Y-79209200D01*
X144006000Y-77407200D01*
X145808000Y-77407200D01*
X145808000Y-79209200D01*
X145808000Y-79209200D01*
G37*
G36*
X142477442Y-77413718D02*
G01*
X142543627Y-77420237D01*
X142713466Y-77471757D01*
X142869991Y-77555422D01*
X142905729Y-77584752D01*
X143007186Y-77668014D01*
X143090448Y-77769471D01*
X143119778Y-77805209D01*
X143203443Y-77961734D01*
X143254963Y-78131573D01*
X143272359Y-78308200D01*
X143254963Y-78484827D01*
X143203443Y-78654666D01*
X143119778Y-78811191D01*
X143090448Y-78846929D01*
X143007186Y-78948386D01*
X142905729Y-79031648D01*
X142869991Y-79060978D01*
X142713466Y-79144643D01*
X142543627Y-79196163D01*
X142477443Y-79202681D01*
X142411260Y-79209200D01*
X142322740Y-79209200D01*
X142256557Y-79202681D01*
X142190373Y-79196163D01*
X142020534Y-79144643D01*
X141864009Y-79060978D01*
X141828271Y-79031648D01*
X141726814Y-78948386D01*
X141643552Y-78846929D01*
X141614222Y-78811191D01*
X141530557Y-78654666D01*
X141479037Y-78484827D01*
X141461641Y-78308200D01*
X141479037Y-78131573D01*
X141530557Y-77961734D01*
X141614222Y-77805209D01*
X141643552Y-77769471D01*
X141726814Y-77668014D01*
X141828271Y-77584752D01*
X141864009Y-77555422D01*
X142020534Y-77471757D01*
X142190373Y-77420237D01*
X142256558Y-77413718D01*
X142322740Y-77407200D01*
X142411260Y-77407200D01*
X142477442Y-77413718D01*
X142477442Y-77413718D01*
G37*
G36*
X127135843Y-75889719D02*
G01*
X127202027Y-75896237D01*
X127371866Y-75947757D01*
X127528391Y-76031422D01*
X127564129Y-76060752D01*
X127665586Y-76144014D01*
X127748848Y-76245471D01*
X127778178Y-76281209D01*
X127861843Y-76437734D01*
X127913363Y-76607573D01*
X127930759Y-76784200D01*
X127913363Y-76960827D01*
X127861843Y-77130666D01*
X127778178Y-77287191D01*
X127748848Y-77322929D01*
X127665586Y-77424386D01*
X127564129Y-77507648D01*
X127528391Y-77536978D01*
X127371866Y-77620643D01*
X127202027Y-77672163D01*
X127135843Y-77678681D01*
X127069660Y-77685200D01*
X126981140Y-77685200D01*
X126914957Y-77678681D01*
X126848773Y-77672163D01*
X126678934Y-77620643D01*
X126522409Y-77536978D01*
X126486671Y-77507648D01*
X126385214Y-77424386D01*
X126301952Y-77322929D01*
X126272622Y-77287191D01*
X126188957Y-77130666D01*
X126137437Y-76960827D01*
X126120041Y-76784200D01*
X126137437Y-76607573D01*
X126188957Y-76437734D01*
X126272622Y-76281209D01*
X126301952Y-76245471D01*
X126385214Y-76144014D01*
X126486671Y-76060752D01*
X126522409Y-76031422D01*
X126678934Y-75947757D01*
X126848773Y-75896237D01*
X126914957Y-75889719D01*
X126981140Y-75883200D01*
X127069660Y-75883200D01*
X127135843Y-75889719D01*
X127135843Y-75889719D01*
G37*
G36*
X129675843Y-75889719D02*
G01*
X129742027Y-75896237D01*
X129911866Y-75947757D01*
X130068391Y-76031422D01*
X130104129Y-76060752D01*
X130205586Y-76144014D01*
X130288848Y-76245471D01*
X130318178Y-76281209D01*
X130401843Y-76437734D01*
X130453363Y-76607573D01*
X130470759Y-76784200D01*
X130453363Y-76960827D01*
X130401843Y-77130666D01*
X130318178Y-77287191D01*
X130288848Y-77322929D01*
X130205586Y-77424386D01*
X130104129Y-77507648D01*
X130068391Y-77536978D01*
X129911866Y-77620643D01*
X129742027Y-77672163D01*
X129675843Y-77678681D01*
X129609660Y-77685200D01*
X129521140Y-77685200D01*
X129454957Y-77678681D01*
X129388773Y-77672163D01*
X129218934Y-77620643D01*
X129062409Y-77536978D01*
X129026671Y-77507648D01*
X128925214Y-77424386D01*
X128841952Y-77322929D01*
X128812622Y-77287191D01*
X128728957Y-77130666D01*
X128677437Y-76960827D01*
X128660041Y-76784200D01*
X128677437Y-76607573D01*
X128728957Y-76437734D01*
X128812622Y-76281209D01*
X128841952Y-76245471D01*
X128925214Y-76144014D01*
X129026671Y-76060752D01*
X129062409Y-76031422D01*
X129218934Y-75947757D01*
X129388773Y-75896237D01*
X129454957Y-75889719D01*
X129521140Y-75883200D01*
X129609660Y-75883200D01*
X129675843Y-75889719D01*
X129675843Y-75889719D01*
G37*
G36*
X132215843Y-75889719D02*
G01*
X132282027Y-75896237D01*
X132451866Y-75947757D01*
X132608391Y-76031422D01*
X132644129Y-76060752D01*
X132745586Y-76144014D01*
X132828848Y-76245471D01*
X132858178Y-76281209D01*
X132941843Y-76437734D01*
X132993363Y-76607573D01*
X133010759Y-76784200D01*
X132993363Y-76960827D01*
X132941843Y-77130666D01*
X132858178Y-77287191D01*
X132828848Y-77322929D01*
X132745586Y-77424386D01*
X132644129Y-77507648D01*
X132608391Y-77536978D01*
X132451866Y-77620643D01*
X132282027Y-77672163D01*
X132215843Y-77678681D01*
X132149660Y-77685200D01*
X132061140Y-77685200D01*
X131994957Y-77678681D01*
X131928773Y-77672163D01*
X131758934Y-77620643D01*
X131602409Y-77536978D01*
X131566671Y-77507648D01*
X131465214Y-77424386D01*
X131381952Y-77322929D01*
X131352622Y-77287191D01*
X131268957Y-77130666D01*
X131217437Y-76960827D01*
X131200041Y-76784200D01*
X131217437Y-76607573D01*
X131268957Y-76437734D01*
X131352622Y-76281209D01*
X131381952Y-76245471D01*
X131465214Y-76144014D01*
X131566671Y-76060752D01*
X131602409Y-76031422D01*
X131758934Y-75947757D01*
X131928773Y-75896237D01*
X131994957Y-75889719D01*
X132061140Y-75883200D01*
X132149660Y-75883200D01*
X132215843Y-75889719D01*
X132215843Y-75889719D01*
G37*
G36*
X135546400Y-77685200D02*
G01*
X133744400Y-77685200D01*
X133744400Y-75883200D01*
X135546400Y-75883200D01*
X135546400Y-77685200D01*
X135546400Y-77685200D01*
G37*
G36*
X160613043Y-73375119D02*
G01*
X160679227Y-73381637D01*
X160849066Y-73433157D01*
X161005591Y-73516822D01*
X161041329Y-73546152D01*
X161142786Y-73629414D01*
X161219002Y-73722285D01*
X161255378Y-73766609D01*
X161255379Y-73766611D01*
X161307761Y-73864609D01*
X161339043Y-73923134D01*
X161390563Y-74092973D01*
X161407959Y-74269600D01*
X161390563Y-74446227D01*
X161339043Y-74616066D01*
X161255378Y-74772591D01*
X161226048Y-74808329D01*
X161142786Y-74909786D01*
X161052842Y-74983600D01*
X161005591Y-75022378D01*
X160849066Y-75106043D01*
X160679227Y-75157563D01*
X160613043Y-75164081D01*
X160546860Y-75170600D01*
X160458340Y-75170600D01*
X160392157Y-75164081D01*
X160325973Y-75157563D01*
X160156134Y-75106043D01*
X159999609Y-75022378D01*
X159952358Y-74983600D01*
X159862414Y-74909786D01*
X159779152Y-74808329D01*
X159749822Y-74772591D01*
X159666157Y-74616066D01*
X159614637Y-74446227D01*
X159597241Y-74269600D01*
X159614637Y-74092973D01*
X159666157Y-73923134D01*
X159697440Y-73864609D01*
X159749821Y-73766611D01*
X159749822Y-73766609D01*
X159786198Y-73722285D01*
X159862414Y-73629414D01*
X159963871Y-73546152D01*
X159999609Y-73516822D01*
X160156134Y-73433157D01*
X160325973Y-73381637D01*
X160392157Y-73375119D01*
X160458340Y-73368600D01*
X160546860Y-73368600D01*
X160613043Y-73375119D01*
X160613043Y-73375119D01*
G37*
G36*
X163153043Y-73375119D02*
G01*
X163219227Y-73381637D01*
X163389066Y-73433157D01*
X163545591Y-73516822D01*
X163581329Y-73546152D01*
X163682786Y-73629414D01*
X163759002Y-73722285D01*
X163795378Y-73766609D01*
X163795379Y-73766611D01*
X163847761Y-73864609D01*
X163879043Y-73923134D01*
X163930563Y-74092973D01*
X163947959Y-74269600D01*
X163930563Y-74446227D01*
X163879043Y-74616066D01*
X163795378Y-74772591D01*
X163766048Y-74808329D01*
X163682786Y-74909786D01*
X163592842Y-74983600D01*
X163545591Y-75022378D01*
X163389066Y-75106043D01*
X163219227Y-75157563D01*
X163153043Y-75164081D01*
X163086860Y-75170600D01*
X162998340Y-75170600D01*
X162932157Y-75164081D01*
X162865973Y-75157563D01*
X162696134Y-75106043D01*
X162539609Y-75022378D01*
X162492358Y-74983600D01*
X162402414Y-74909786D01*
X162319152Y-74808329D01*
X162289822Y-74772591D01*
X162206157Y-74616066D01*
X162154637Y-74446227D01*
X162137241Y-74269600D01*
X162154637Y-74092973D01*
X162206157Y-73923134D01*
X162237440Y-73864609D01*
X162289821Y-73766611D01*
X162289822Y-73766609D01*
X162326198Y-73722285D01*
X162402414Y-73629414D01*
X162503871Y-73546152D01*
X162539609Y-73516822D01*
X162696134Y-73433157D01*
X162865973Y-73381637D01*
X162932157Y-73375119D01*
X162998340Y-73368600D01*
X163086860Y-73368600D01*
X163153043Y-73375119D01*
X163153043Y-73375119D01*
G37*
G36*
X130466400Y-75145200D02*
G01*
X128664400Y-75145200D01*
X128664400Y-73343200D01*
X130466400Y-73343200D01*
X130466400Y-75145200D01*
X130466400Y-75145200D01*
G37*
G36*
X127135842Y-73349718D02*
G01*
X127202027Y-73356237D01*
X127371866Y-73407757D01*
X127528391Y-73491422D01*
X127559341Y-73516822D01*
X127665586Y-73604014D01*
X127748848Y-73705471D01*
X127778178Y-73741209D01*
X127861843Y-73897734D01*
X127913363Y-74067573D01*
X127930759Y-74244200D01*
X127913363Y-74420827D01*
X127861843Y-74590666D01*
X127778178Y-74747191D01*
X127748848Y-74782929D01*
X127665586Y-74884386D01*
X127599984Y-74938223D01*
X127528391Y-74996978D01*
X127371866Y-75080643D01*
X127202027Y-75132163D01*
X127135842Y-75138682D01*
X127069660Y-75145200D01*
X126981140Y-75145200D01*
X126914958Y-75138682D01*
X126848773Y-75132163D01*
X126678934Y-75080643D01*
X126522409Y-74996978D01*
X126450816Y-74938223D01*
X126385214Y-74884386D01*
X126301952Y-74782929D01*
X126272622Y-74747191D01*
X126188957Y-74590666D01*
X126137437Y-74420827D01*
X126120041Y-74244200D01*
X126137437Y-74067573D01*
X126188957Y-73897734D01*
X126272622Y-73741209D01*
X126301952Y-73705471D01*
X126385214Y-73604014D01*
X126491459Y-73516822D01*
X126522409Y-73491422D01*
X126678934Y-73407757D01*
X126848773Y-73356237D01*
X126914958Y-73349718D01*
X126981140Y-73343200D01*
X127069660Y-73343200D01*
X127135842Y-73349718D01*
X127135842Y-73349718D01*
G37*
G36*
X170180268Y-73911165D02*
G01*
X170218938Y-73922896D01*
X170254577Y-73941946D01*
X170285817Y-73967583D01*
X170311454Y-73998823D01*
X170330504Y-74034462D01*
X170342235Y-74073132D01*
X170346800Y-74119488D01*
X170346800Y-74770712D01*
X170342235Y-74817068D01*
X170330504Y-74855738D01*
X170311454Y-74891377D01*
X170285817Y-74922617D01*
X170254577Y-74948254D01*
X170218938Y-74967304D01*
X170180268Y-74979035D01*
X170133912Y-74983600D01*
X169057688Y-74983600D01*
X169011332Y-74979035D01*
X168972662Y-74967304D01*
X168937023Y-74948254D01*
X168905783Y-74922617D01*
X168880146Y-74891377D01*
X168861096Y-74855738D01*
X168849365Y-74817068D01*
X168844800Y-74770712D01*
X168844800Y-74119488D01*
X168849365Y-74073132D01*
X168861096Y-74034462D01*
X168880146Y-73998823D01*
X168905783Y-73967583D01*
X168937023Y-73941946D01*
X168972662Y-73922896D01*
X169011332Y-73911165D01*
X169057688Y-73906600D01*
X170133912Y-73906600D01*
X170180268Y-73911165D01*
X170180268Y-73911165D01*
G37*
G36*
X176276268Y-73911165D02*
G01*
X176314938Y-73922896D01*
X176350577Y-73941946D01*
X176381817Y-73967583D01*
X176407454Y-73998823D01*
X176426504Y-74034462D01*
X176438235Y-74073132D01*
X176442800Y-74119488D01*
X176442800Y-74770712D01*
X176438235Y-74817068D01*
X176426504Y-74855738D01*
X176407454Y-74891377D01*
X176381817Y-74922617D01*
X176350577Y-74948254D01*
X176314938Y-74967304D01*
X176276268Y-74979035D01*
X176229912Y-74983600D01*
X175153688Y-74983600D01*
X175107332Y-74979035D01*
X175068662Y-74967304D01*
X175033023Y-74948254D01*
X175001783Y-74922617D01*
X174976146Y-74891377D01*
X174957096Y-74855738D01*
X174945365Y-74817068D01*
X174940800Y-74770712D01*
X174940800Y-74119488D01*
X174945365Y-74073132D01*
X174957096Y-74034462D01*
X174976146Y-73998823D01*
X175001783Y-73967583D01*
X175033023Y-73941946D01*
X175068662Y-73922896D01*
X175107332Y-73911165D01*
X175153688Y-73906600D01*
X176229912Y-73906600D01*
X176276268Y-73911165D01*
X176276268Y-73911165D01*
G37*
G36*
X173228268Y-73911165D02*
G01*
X173266938Y-73922896D01*
X173302577Y-73941946D01*
X173333817Y-73967583D01*
X173359454Y-73998823D01*
X173378504Y-74034462D01*
X173390235Y-74073132D01*
X173394800Y-74119488D01*
X173394800Y-74770712D01*
X173390235Y-74817068D01*
X173378504Y-74855738D01*
X173359454Y-74891377D01*
X173333817Y-74922617D01*
X173302577Y-74948254D01*
X173266938Y-74967304D01*
X173228268Y-74979035D01*
X173181912Y-74983600D01*
X172105688Y-74983600D01*
X172059332Y-74979035D01*
X172020662Y-74967304D01*
X171985023Y-74948254D01*
X171953783Y-74922617D01*
X171928146Y-74891377D01*
X171909096Y-74855738D01*
X171897365Y-74817068D01*
X171892800Y-74770712D01*
X171892800Y-74119488D01*
X171897365Y-74073132D01*
X171909096Y-74034462D01*
X171928146Y-73998823D01*
X171953783Y-73967583D01*
X171985023Y-73941946D01*
X172020662Y-73922896D01*
X172059332Y-73911165D01*
X172105688Y-73906600D01*
X173181912Y-73906600D01*
X173228268Y-73911165D01*
X173228268Y-73911165D01*
G37*
G36*
X133768191Y-73722285D02*
G01*
X133802169Y-73732593D01*
X133833490Y-73749334D01*
X133860939Y-73771861D01*
X133883466Y-73799310D01*
X133900207Y-73830631D01*
X133910515Y-73864609D01*
X133914600Y-73906090D01*
X133914600Y-74582310D01*
X133910515Y-74623791D01*
X133900207Y-74657769D01*
X133883466Y-74689090D01*
X133860939Y-74716539D01*
X133833490Y-74739066D01*
X133802169Y-74755807D01*
X133768191Y-74766115D01*
X133726710Y-74770200D01*
X133125490Y-74770200D01*
X133084009Y-74766115D01*
X133050031Y-74755807D01*
X133018710Y-74739066D01*
X132991261Y-74716539D01*
X132968734Y-74689090D01*
X132951993Y-74657769D01*
X132941685Y-74623791D01*
X132937600Y-74582310D01*
X132937600Y-73906090D01*
X132941685Y-73864609D01*
X132951993Y-73830631D01*
X132968734Y-73799310D01*
X132991261Y-73771861D01*
X133018710Y-73749334D01*
X133050031Y-73732593D01*
X133084009Y-73722285D01*
X133125490Y-73718200D01*
X133726710Y-73718200D01*
X133768191Y-73722285D01*
X133768191Y-73722285D01*
G37*
G36*
X135343191Y-73722285D02*
G01*
X135377169Y-73732593D01*
X135408490Y-73749334D01*
X135435939Y-73771861D01*
X135458466Y-73799310D01*
X135475207Y-73830631D01*
X135485515Y-73864609D01*
X135489600Y-73906090D01*
X135489600Y-74582310D01*
X135485515Y-74623791D01*
X135475207Y-74657769D01*
X135458466Y-74689090D01*
X135435939Y-74716539D01*
X135408490Y-74739066D01*
X135377169Y-74755807D01*
X135343191Y-74766115D01*
X135301710Y-74770200D01*
X134700490Y-74770200D01*
X134659009Y-74766115D01*
X134625031Y-74755807D01*
X134593710Y-74739066D01*
X134566261Y-74716539D01*
X134543734Y-74689090D01*
X134526993Y-74657769D01*
X134516685Y-74623791D01*
X134512600Y-74582310D01*
X134512600Y-73906090D01*
X134516685Y-73864609D01*
X134526993Y-73830631D01*
X134543734Y-73799310D01*
X134566261Y-73771861D01*
X134593710Y-73749334D01*
X134625031Y-73732593D01*
X134659009Y-73722285D01*
X134700490Y-73718200D01*
X135301710Y-73718200D01*
X135343191Y-73722285D01*
X135343191Y-73722285D01*
G37*
G36*
X170180268Y-72036165D02*
G01*
X170218938Y-72047896D01*
X170254577Y-72066946D01*
X170285817Y-72092583D01*
X170311454Y-72123823D01*
X170330504Y-72159462D01*
X170342235Y-72198132D01*
X170346800Y-72244488D01*
X170346800Y-72895712D01*
X170342235Y-72942068D01*
X170330504Y-72980738D01*
X170311454Y-73016377D01*
X170285817Y-73047617D01*
X170254577Y-73073254D01*
X170218938Y-73092304D01*
X170180268Y-73104035D01*
X170133912Y-73108600D01*
X169057688Y-73108600D01*
X169011332Y-73104035D01*
X168972662Y-73092304D01*
X168937023Y-73073254D01*
X168905783Y-73047617D01*
X168880146Y-73016377D01*
X168861096Y-72980738D01*
X168849365Y-72942068D01*
X168844800Y-72895712D01*
X168844800Y-72244488D01*
X168849365Y-72198132D01*
X168861096Y-72159462D01*
X168880146Y-72123823D01*
X168905783Y-72092583D01*
X168937023Y-72066946D01*
X168972662Y-72047896D01*
X169011332Y-72036165D01*
X169057688Y-72031600D01*
X170133912Y-72031600D01*
X170180268Y-72036165D01*
X170180268Y-72036165D01*
G37*
G36*
X173228268Y-72036165D02*
G01*
X173266938Y-72047896D01*
X173302577Y-72066946D01*
X173333817Y-72092583D01*
X173359454Y-72123823D01*
X173378504Y-72159462D01*
X173390235Y-72198132D01*
X173394800Y-72244488D01*
X173394800Y-72895712D01*
X173390235Y-72942068D01*
X173378504Y-72980738D01*
X173359454Y-73016377D01*
X173333817Y-73047617D01*
X173302577Y-73073254D01*
X173266938Y-73092304D01*
X173228268Y-73104035D01*
X173181912Y-73108600D01*
X172105688Y-73108600D01*
X172059332Y-73104035D01*
X172020662Y-73092304D01*
X171985023Y-73073254D01*
X171953783Y-73047617D01*
X171928146Y-73016377D01*
X171909096Y-72980738D01*
X171897365Y-72942068D01*
X171892800Y-72895712D01*
X171892800Y-72244488D01*
X171897365Y-72198132D01*
X171909096Y-72159462D01*
X171928146Y-72123823D01*
X171953783Y-72092583D01*
X171985023Y-72066946D01*
X172020662Y-72047896D01*
X172059332Y-72036165D01*
X172105688Y-72031600D01*
X173181912Y-72031600D01*
X173228268Y-72036165D01*
X173228268Y-72036165D01*
G37*
G36*
X176276268Y-72036165D02*
G01*
X176314938Y-72047896D01*
X176350577Y-72066946D01*
X176381817Y-72092583D01*
X176407454Y-72123823D01*
X176426504Y-72159462D01*
X176438235Y-72198132D01*
X176442800Y-72244488D01*
X176442800Y-72895712D01*
X176438235Y-72942068D01*
X176426504Y-72980738D01*
X176407454Y-73016377D01*
X176381817Y-73047617D01*
X176350577Y-73073254D01*
X176314938Y-73092304D01*
X176276268Y-73104035D01*
X176229912Y-73108600D01*
X175153688Y-73108600D01*
X175107332Y-73104035D01*
X175068662Y-73092304D01*
X175033023Y-73073254D01*
X175001783Y-73047617D01*
X174976146Y-73016377D01*
X174957096Y-72980738D01*
X174945365Y-72942068D01*
X174940800Y-72895712D01*
X174940800Y-72244488D01*
X174945365Y-72198132D01*
X174957096Y-72159462D01*
X174976146Y-72123823D01*
X175001783Y-72092583D01*
X175033023Y-72066946D01*
X175068662Y-72047896D01*
X175107332Y-72036165D01*
X175153688Y-72031600D01*
X176229912Y-72031600D01*
X176276268Y-72036165D01*
X176276268Y-72036165D01*
G37*
G36*
X146221400Y-73090400D02*
G01*
X139969400Y-73090400D01*
X139969400Y-71388400D01*
X146221400Y-71388400D01*
X146221400Y-73090400D01*
X146221400Y-73090400D01*
G37*
G36*
X180948191Y-71880285D02*
G01*
X180982169Y-71890593D01*
X181013490Y-71907334D01*
X181040939Y-71929861D01*
X181063466Y-71957310D01*
X181080207Y-71988631D01*
X181090515Y-72022609D01*
X181094600Y-72064090D01*
X181094600Y-72665310D01*
X181090515Y-72706791D01*
X181080207Y-72740769D01*
X181063466Y-72772090D01*
X181040939Y-72799539D01*
X181013490Y-72822066D01*
X180982169Y-72838807D01*
X180948191Y-72849115D01*
X180906710Y-72853200D01*
X180230490Y-72853200D01*
X180189009Y-72849115D01*
X180155031Y-72838807D01*
X180123710Y-72822066D01*
X180096261Y-72799539D01*
X180073734Y-72772090D01*
X180056993Y-72740769D01*
X180046685Y-72706791D01*
X180042600Y-72665310D01*
X180042600Y-72064090D01*
X180046685Y-72022609D01*
X180056993Y-71988631D01*
X180073734Y-71957310D01*
X180096261Y-71929861D01*
X180123710Y-71907334D01*
X180155031Y-71890593D01*
X180189009Y-71880285D01*
X180230490Y-71876200D01*
X180906710Y-71876200D01*
X180948191Y-71880285D01*
X180948191Y-71880285D01*
G37*
G36*
X160613043Y-70835119D02*
G01*
X160679227Y-70841637D01*
X160849066Y-70893157D01*
X161005591Y-70976822D01*
X161026632Y-70994090D01*
X161142786Y-71089414D01*
X161219002Y-71182285D01*
X161255378Y-71226609D01*
X161255379Y-71226611D01*
X161307761Y-71324609D01*
X161339043Y-71383134D01*
X161390563Y-71552973D01*
X161407959Y-71729600D01*
X161390563Y-71906227D01*
X161339043Y-72076066D01*
X161255378Y-72232591D01*
X161226048Y-72268329D01*
X161142786Y-72369786D01*
X161041329Y-72453048D01*
X161005591Y-72482378D01*
X160849066Y-72566043D01*
X160679227Y-72617563D01*
X160613042Y-72624082D01*
X160546860Y-72630600D01*
X160458340Y-72630600D01*
X160392158Y-72624082D01*
X160325973Y-72617563D01*
X160156134Y-72566043D01*
X159999609Y-72482378D01*
X159963871Y-72453048D01*
X159862414Y-72369786D01*
X159779152Y-72268329D01*
X159749822Y-72232591D01*
X159666157Y-72076066D01*
X159614637Y-71906227D01*
X159597241Y-71729600D01*
X159614637Y-71552973D01*
X159666157Y-71383134D01*
X159697440Y-71324609D01*
X159749821Y-71226611D01*
X159749822Y-71226609D01*
X159786198Y-71182285D01*
X159862414Y-71089414D01*
X159978568Y-70994090D01*
X159999609Y-70976822D01*
X160156134Y-70893157D01*
X160325973Y-70841637D01*
X160392157Y-70835119D01*
X160458340Y-70828600D01*
X160546860Y-70828600D01*
X160613043Y-70835119D01*
X160613043Y-70835119D01*
G37*
G36*
X163153043Y-70835119D02*
G01*
X163219227Y-70841637D01*
X163389066Y-70893157D01*
X163545591Y-70976822D01*
X163566632Y-70994090D01*
X163682786Y-71089414D01*
X163759002Y-71182285D01*
X163795378Y-71226609D01*
X163795379Y-71226611D01*
X163847761Y-71324609D01*
X163879043Y-71383134D01*
X163930563Y-71552973D01*
X163947959Y-71729600D01*
X163930563Y-71906227D01*
X163879043Y-72076066D01*
X163795378Y-72232591D01*
X163766048Y-72268329D01*
X163682786Y-72369786D01*
X163581329Y-72453048D01*
X163545591Y-72482378D01*
X163389066Y-72566043D01*
X163219227Y-72617563D01*
X163153042Y-72624082D01*
X163086860Y-72630600D01*
X162998340Y-72630600D01*
X162932158Y-72624082D01*
X162865973Y-72617563D01*
X162696134Y-72566043D01*
X162539609Y-72482378D01*
X162503871Y-72453048D01*
X162402414Y-72369786D01*
X162319152Y-72268329D01*
X162289822Y-72232591D01*
X162206157Y-72076066D01*
X162154637Y-71906227D01*
X162137241Y-71729600D01*
X162154637Y-71552973D01*
X162206157Y-71383134D01*
X162237440Y-71324609D01*
X162289821Y-71226611D01*
X162289822Y-71226609D01*
X162326198Y-71182285D01*
X162402414Y-71089414D01*
X162518568Y-70994090D01*
X162539609Y-70976822D01*
X162696134Y-70893157D01*
X162865973Y-70841637D01*
X162932157Y-70835119D01*
X162998340Y-70828600D01*
X163086860Y-70828600D01*
X163153043Y-70835119D01*
X163153043Y-70835119D01*
G37*
G36*
X130466400Y-72605200D02*
G01*
X128664400Y-72605200D01*
X128664400Y-70803200D01*
X130466400Y-70803200D01*
X130466400Y-72605200D01*
X130466400Y-72605200D01*
G37*
G36*
X127135843Y-70809719D02*
G01*
X127202027Y-70816237D01*
X127371866Y-70867757D01*
X127528391Y-70951422D01*
X127559341Y-70976822D01*
X127665586Y-71064014D01*
X127717621Y-71127420D01*
X127778178Y-71201209D01*
X127861843Y-71357734D01*
X127913363Y-71527573D01*
X127930759Y-71704200D01*
X127913363Y-71880827D01*
X127861843Y-72050666D01*
X127778178Y-72207191D01*
X127748848Y-72242929D01*
X127665586Y-72344386D01*
X127564129Y-72427648D01*
X127528391Y-72456978D01*
X127371866Y-72540643D01*
X127202027Y-72592163D01*
X127135842Y-72598682D01*
X127069660Y-72605200D01*
X126981140Y-72605200D01*
X126914958Y-72598682D01*
X126848773Y-72592163D01*
X126678934Y-72540643D01*
X126522409Y-72456978D01*
X126486671Y-72427648D01*
X126385214Y-72344386D01*
X126301952Y-72242929D01*
X126272622Y-72207191D01*
X126188957Y-72050666D01*
X126137437Y-71880827D01*
X126120041Y-71704200D01*
X126137437Y-71527573D01*
X126188957Y-71357734D01*
X126272622Y-71201209D01*
X126333179Y-71127420D01*
X126385214Y-71064014D01*
X126491459Y-70976822D01*
X126522409Y-70951422D01*
X126678934Y-70867757D01*
X126848773Y-70816237D01*
X126914957Y-70809719D01*
X126981140Y-70803200D01*
X127069660Y-70803200D01*
X127135843Y-70809719D01*
X127135843Y-70809719D01*
G37*
G36*
X135343191Y-71182285D02*
G01*
X135377169Y-71192593D01*
X135408490Y-71209334D01*
X135435939Y-71231861D01*
X135458466Y-71259310D01*
X135475207Y-71290631D01*
X135485515Y-71324609D01*
X135489600Y-71366090D01*
X135489600Y-72042310D01*
X135485515Y-72083791D01*
X135475207Y-72117769D01*
X135458466Y-72149090D01*
X135435939Y-72176539D01*
X135408490Y-72199066D01*
X135377169Y-72215807D01*
X135343191Y-72226115D01*
X135301710Y-72230200D01*
X134700490Y-72230200D01*
X134659009Y-72226115D01*
X134625031Y-72215807D01*
X134593710Y-72199066D01*
X134566261Y-72176539D01*
X134543734Y-72149090D01*
X134526993Y-72117769D01*
X134516685Y-72083791D01*
X134512600Y-72042310D01*
X134512600Y-71366090D01*
X134516685Y-71324609D01*
X134526993Y-71290631D01*
X134543734Y-71259310D01*
X134566261Y-71231861D01*
X134593710Y-71209334D01*
X134625031Y-71192593D01*
X134659009Y-71182285D01*
X134700490Y-71178200D01*
X135301710Y-71178200D01*
X135343191Y-71182285D01*
X135343191Y-71182285D01*
G37*
G36*
X133768191Y-71182285D02*
G01*
X133802169Y-71192593D01*
X133833490Y-71209334D01*
X133860939Y-71231861D01*
X133883466Y-71259310D01*
X133900207Y-71290631D01*
X133910515Y-71324609D01*
X133914600Y-71366090D01*
X133914600Y-72042310D01*
X133910515Y-72083791D01*
X133900207Y-72117769D01*
X133883466Y-72149090D01*
X133860939Y-72176539D01*
X133833490Y-72199066D01*
X133802169Y-72215807D01*
X133768191Y-72226115D01*
X133726710Y-72230200D01*
X133125490Y-72230200D01*
X133084009Y-72226115D01*
X133050031Y-72215807D01*
X133018710Y-72199066D01*
X132991261Y-72176539D01*
X132968734Y-72149090D01*
X132951993Y-72117769D01*
X132941685Y-72083791D01*
X132937600Y-72042310D01*
X132937600Y-71366090D01*
X132941685Y-71324609D01*
X132951993Y-71290631D01*
X132968734Y-71259310D01*
X132991261Y-71231861D01*
X133018710Y-71209334D01*
X133050031Y-71192593D01*
X133084009Y-71182285D01*
X133125490Y-71178200D01*
X133726710Y-71178200D01*
X133768191Y-71182285D01*
X133768191Y-71182285D01*
G37*
G36*
X180948191Y-70305285D02*
G01*
X180982169Y-70315593D01*
X181013490Y-70332334D01*
X181040939Y-70354861D01*
X181063466Y-70382310D01*
X181080207Y-70413631D01*
X181090515Y-70447609D01*
X181094600Y-70489090D01*
X181094600Y-71090310D01*
X181090515Y-71131791D01*
X181080207Y-71165769D01*
X181063466Y-71197090D01*
X181040939Y-71224539D01*
X181013490Y-71247066D01*
X180982169Y-71263807D01*
X180948191Y-71274115D01*
X180906710Y-71278200D01*
X180230490Y-71278200D01*
X180189009Y-71274115D01*
X180155031Y-71263807D01*
X180123710Y-71247066D01*
X180096261Y-71224539D01*
X180073734Y-71197090D01*
X180056993Y-71165769D01*
X180046685Y-71131791D01*
X180042600Y-71090310D01*
X180042600Y-70489090D01*
X180046685Y-70447609D01*
X180056993Y-70413631D01*
X180073734Y-70382310D01*
X180096261Y-70354861D01*
X180123710Y-70332334D01*
X180155031Y-70315593D01*
X180189009Y-70305285D01*
X180230490Y-70301200D01*
X180906710Y-70301200D01*
X180948191Y-70305285D01*
X180948191Y-70305285D01*
G37*
G36*
X148196400Y-71115400D02*
G01*
X146494400Y-71115400D01*
X146494400Y-64863400D01*
X148196400Y-64863400D01*
X148196400Y-71115400D01*
X148196400Y-71115400D01*
G37*
G36*
X139696400Y-71115400D02*
G01*
X137994400Y-71115400D01*
X137994400Y-64863400D01*
X139696400Y-64863400D01*
X139696400Y-71115400D01*
X139696400Y-71115400D01*
G37*
G36*
X169975391Y-70102285D02*
G01*
X170009369Y-70112593D01*
X170040690Y-70129334D01*
X170068139Y-70151861D01*
X170090666Y-70179310D01*
X170107407Y-70210631D01*
X170117715Y-70244609D01*
X170121800Y-70286090D01*
X170121800Y-70887310D01*
X170117715Y-70928791D01*
X170107407Y-70962769D01*
X170090666Y-70994090D01*
X170068139Y-71021539D01*
X170040690Y-71044066D01*
X170009369Y-71060807D01*
X169975391Y-71071115D01*
X169933910Y-71075200D01*
X169257690Y-71075200D01*
X169216209Y-71071115D01*
X169182231Y-71060807D01*
X169150910Y-71044066D01*
X169123461Y-71021539D01*
X169100934Y-70994090D01*
X169084193Y-70962769D01*
X169073885Y-70928791D01*
X169069800Y-70887310D01*
X169069800Y-70286090D01*
X169073885Y-70244609D01*
X169084193Y-70210631D01*
X169100934Y-70179310D01*
X169123461Y-70151861D01*
X169150910Y-70129334D01*
X169182231Y-70112593D01*
X169216209Y-70102285D01*
X169257690Y-70098200D01*
X169933910Y-70098200D01*
X169975391Y-70102285D01*
X169975391Y-70102285D01*
G37*
G36*
X173023391Y-70102285D02*
G01*
X173057369Y-70112593D01*
X173088690Y-70129334D01*
X173116139Y-70151861D01*
X173138666Y-70179310D01*
X173155407Y-70210631D01*
X173165715Y-70244609D01*
X173169800Y-70286090D01*
X173169800Y-70887310D01*
X173165715Y-70928791D01*
X173155407Y-70962769D01*
X173138666Y-70994090D01*
X173116139Y-71021539D01*
X173088690Y-71044066D01*
X173057369Y-71060807D01*
X173023391Y-71071115D01*
X172981910Y-71075200D01*
X172305690Y-71075200D01*
X172264209Y-71071115D01*
X172230231Y-71060807D01*
X172198910Y-71044066D01*
X172171461Y-71021539D01*
X172148934Y-70994090D01*
X172132193Y-70962769D01*
X172121885Y-70928791D01*
X172117800Y-70887310D01*
X172117800Y-70286090D01*
X172121885Y-70244609D01*
X172132193Y-70210631D01*
X172148934Y-70179310D01*
X172171461Y-70151861D01*
X172198910Y-70129334D01*
X172230231Y-70112593D01*
X172264209Y-70102285D01*
X172305690Y-70098200D01*
X172981910Y-70098200D01*
X173023391Y-70102285D01*
X173023391Y-70102285D01*
G37*
G36*
X176071391Y-70102285D02*
G01*
X176105369Y-70112593D01*
X176136690Y-70129334D01*
X176164139Y-70151861D01*
X176186666Y-70179310D01*
X176203407Y-70210631D01*
X176213715Y-70244609D01*
X176217800Y-70286090D01*
X176217800Y-70887310D01*
X176213715Y-70928791D01*
X176203407Y-70962769D01*
X176186666Y-70994090D01*
X176164139Y-71021539D01*
X176136690Y-71044066D01*
X176105369Y-71060807D01*
X176071391Y-71071115D01*
X176029910Y-71075200D01*
X175353690Y-71075200D01*
X175312209Y-71071115D01*
X175278231Y-71060807D01*
X175246910Y-71044066D01*
X175219461Y-71021539D01*
X175196934Y-70994090D01*
X175180193Y-70962769D01*
X175169885Y-70928791D01*
X175165800Y-70887310D01*
X175165800Y-70286090D01*
X175169885Y-70244609D01*
X175180193Y-70210631D01*
X175196934Y-70179310D01*
X175219461Y-70151861D01*
X175246910Y-70129334D01*
X175278231Y-70112593D01*
X175312209Y-70102285D01*
X175353690Y-70098200D01*
X176029910Y-70098200D01*
X176071391Y-70102285D01*
X176071391Y-70102285D01*
G37*
G36*
X161403600Y-70090600D02*
G01*
X159601600Y-70090600D01*
X159601600Y-68288600D01*
X161403600Y-68288600D01*
X161403600Y-70090600D01*
X161403600Y-70090600D01*
G37*
G36*
X163153043Y-68295119D02*
G01*
X163219227Y-68301637D01*
X163389066Y-68353157D01*
X163545591Y-68436822D01*
X163581329Y-68466152D01*
X163682786Y-68549414D01*
X163759002Y-68642285D01*
X163795378Y-68686609D01*
X163795379Y-68686611D01*
X163847761Y-68784609D01*
X163879043Y-68843134D01*
X163930563Y-69012973D01*
X163947959Y-69189600D01*
X163930563Y-69366227D01*
X163879043Y-69536066D01*
X163795378Y-69692591D01*
X163766048Y-69728329D01*
X163682786Y-69829786D01*
X163581329Y-69913048D01*
X163545591Y-69942378D01*
X163389066Y-70026043D01*
X163219227Y-70077563D01*
X163153043Y-70084081D01*
X163086860Y-70090600D01*
X162998340Y-70090600D01*
X162932157Y-70084081D01*
X162865973Y-70077563D01*
X162696134Y-70026043D01*
X162539609Y-69942378D01*
X162503871Y-69913048D01*
X162402414Y-69829786D01*
X162319152Y-69728329D01*
X162289822Y-69692591D01*
X162206157Y-69536066D01*
X162154637Y-69366227D01*
X162137241Y-69189600D01*
X162154637Y-69012973D01*
X162206157Y-68843134D01*
X162237440Y-68784609D01*
X162289821Y-68686611D01*
X162289822Y-68686609D01*
X162326198Y-68642285D01*
X162402414Y-68549414D01*
X162503871Y-68466152D01*
X162539609Y-68436822D01*
X162696134Y-68353157D01*
X162865973Y-68301637D01*
X162932157Y-68295119D01*
X162998340Y-68288600D01*
X163086860Y-68288600D01*
X163153043Y-68295119D01*
X163153043Y-68295119D01*
G37*
G36*
X130466400Y-70065200D02*
G01*
X128664400Y-70065200D01*
X128664400Y-68263200D01*
X130466400Y-68263200D01*
X130466400Y-70065200D01*
X130466400Y-70065200D01*
G37*
G36*
X127135842Y-68269718D02*
G01*
X127202027Y-68276237D01*
X127371866Y-68327757D01*
X127528391Y-68411422D01*
X127559341Y-68436822D01*
X127665586Y-68524014D01*
X127731482Y-68604310D01*
X127778178Y-68661209D01*
X127861843Y-68817734D01*
X127913363Y-68987573D01*
X127930759Y-69164200D01*
X127913363Y-69340827D01*
X127861843Y-69510666D01*
X127778178Y-69667191D01*
X127748848Y-69702929D01*
X127665586Y-69804386D01*
X127564129Y-69887648D01*
X127528391Y-69916978D01*
X127371866Y-70000643D01*
X127202027Y-70052163D01*
X127135843Y-70058681D01*
X127069660Y-70065200D01*
X126981140Y-70065200D01*
X126914957Y-70058681D01*
X126848773Y-70052163D01*
X126678934Y-70000643D01*
X126522409Y-69916978D01*
X126486671Y-69887648D01*
X126385214Y-69804386D01*
X126301952Y-69702929D01*
X126272622Y-69667191D01*
X126188957Y-69510666D01*
X126137437Y-69340827D01*
X126120041Y-69164200D01*
X126137437Y-68987573D01*
X126188957Y-68817734D01*
X126272622Y-68661209D01*
X126319318Y-68604310D01*
X126385214Y-68524014D01*
X126491459Y-68436822D01*
X126522409Y-68411422D01*
X126678934Y-68327757D01*
X126848773Y-68276237D01*
X126914958Y-68269718D01*
X126981140Y-68263200D01*
X127069660Y-68263200D01*
X127135842Y-68269718D01*
X127135842Y-68269718D01*
G37*
G36*
X133768191Y-68642285D02*
G01*
X133802169Y-68652593D01*
X133833490Y-68669334D01*
X133860939Y-68691861D01*
X133883466Y-68719310D01*
X133900207Y-68750631D01*
X133910515Y-68784609D01*
X133914600Y-68826090D01*
X133914600Y-69502310D01*
X133910515Y-69543791D01*
X133900207Y-69577769D01*
X133883466Y-69609090D01*
X133860939Y-69636539D01*
X133833490Y-69659066D01*
X133802169Y-69675807D01*
X133768191Y-69686115D01*
X133726710Y-69690200D01*
X133125490Y-69690200D01*
X133084009Y-69686115D01*
X133050031Y-69675807D01*
X133018710Y-69659066D01*
X132991261Y-69636539D01*
X132968734Y-69609090D01*
X132951993Y-69577769D01*
X132941685Y-69543791D01*
X132937600Y-69502310D01*
X132937600Y-68826090D01*
X132941685Y-68784609D01*
X132951993Y-68750631D01*
X132968734Y-68719310D01*
X132991261Y-68691861D01*
X133018710Y-68669334D01*
X133050031Y-68652593D01*
X133084009Y-68642285D01*
X133125490Y-68638200D01*
X133726710Y-68638200D01*
X133768191Y-68642285D01*
X133768191Y-68642285D01*
G37*
G36*
X135343191Y-68642285D02*
G01*
X135377169Y-68652593D01*
X135408490Y-68669334D01*
X135435939Y-68691861D01*
X135458466Y-68719310D01*
X135475207Y-68750631D01*
X135485515Y-68784609D01*
X135489600Y-68826090D01*
X135489600Y-69502310D01*
X135485515Y-69543791D01*
X135475207Y-69577769D01*
X135458466Y-69609090D01*
X135435939Y-69636539D01*
X135408490Y-69659066D01*
X135377169Y-69675807D01*
X135343191Y-69686115D01*
X135301710Y-69690200D01*
X134700490Y-69690200D01*
X134659009Y-69686115D01*
X134625031Y-69675807D01*
X134593710Y-69659066D01*
X134566261Y-69636539D01*
X134543734Y-69609090D01*
X134526993Y-69577769D01*
X134516685Y-69543791D01*
X134512600Y-69502310D01*
X134512600Y-68826090D01*
X134516685Y-68784609D01*
X134526993Y-68750631D01*
X134543734Y-68719310D01*
X134566261Y-68691861D01*
X134593710Y-68669334D01*
X134625031Y-68652593D01*
X134659009Y-68642285D01*
X134700490Y-68638200D01*
X135301710Y-68638200D01*
X135343191Y-68642285D01*
X135343191Y-68642285D01*
G37*
G36*
X176071391Y-68527285D02*
G01*
X176105369Y-68537593D01*
X176136690Y-68554334D01*
X176164139Y-68576861D01*
X176186666Y-68604310D01*
X176203407Y-68635631D01*
X176213715Y-68669609D01*
X176217800Y-68711090D01*
X176217800Y-69312310D01*
X176213715Y-69353791D01*
X176203407Y-69387769D01*
X176186666Y-69419090D01*
X176164139Y-69446539D01*
X176136690Y-69469066D01*
X176105369Y-69485807D01*
X176071391Y-69496115D01*
X176029910Y-69500200D01*
X175353690Y-69500200D01*
X175312209Y-69496115D01*
X175278231Y-69485807D01*
X175246910Y-69469066D01*
X175219461Y-69446539D01*
X175196934Y-69419090D01*
X175180193Y-69387769D01*
X175169885Y-69353791D01*
X175165800Y-69312310D01*
X175165800Y-68711090D01*
X175169885Y-68669609D01*
X175180193Y-68635631D01*
X175196934Y-68604310D01*
X175219461Y-68576861D01*
X175246910Y-68554334D01*
X175278231Y-68537593D01*
X175312209Y-68527285D01*
X175353690Y-68523200D01*
X176029910Y-68523200D01*
X176071391Y-68527285D01*
X176071391Y-68527285D01*
G37*
G36*
X169975391Y-68527285D02*
G01*
X170009369Y-68537593D01*
X170040690Y-68554334D01*
X170068139Y-68576861D01*
X170090666Y-68604310D01*
X170107407Y-68635631D01*
X170117715Y-68669609D01*
X170121800Y-68711090D01*
X170121800Y-69312310D01*
X170117715Y-69353791D01*
X170107407Y-69387769D01*
X170090666Y-69419090D01*
X170068139Y-69446539D01*
X170040690Y-69469066D01*
X170009369Y-69485807D01*
X169975391Y-69496115D01*
X169933910Y-69500200D01*
X169257690Y-69500200D01*
X169216209Y-69496115D01*
X169182231Y-69485807D01*
X169150910Y-69469066D01*
X169123461Y-69446539D01*
X169100934Y-69419090D01*
X169084193Y-69387769D01*
X169073885Y-69353791D01*
X169069800Y-69312310D01*
X169069800Y-68711090D01*
X169073885Y-68669609D01*
X169084193Y-68635631D01*
X169100934Y-68604310D01*
X169123461Y-68576861D01*
X169150910Y-68554334D01*
X169182231Y-68537593D01*
X169216209Y-68527285D01*
X169257690Y-68523200D01*
X169933910Y-68523200D01*
X169975391Y-68527285D01*
X169975391Y-68527285D01*
G37*
G36*
X173023391Y-68527285D02*
G01*
X173057369Y-68537593D01*
X173088690Y-68554334D01*
X173116139Y-68576861D01*
X173138666Y-68604310D01*
X173155407Y-68635631D01*
X173165715Y-68669609D01*
X173169800Y-68711090D01*
X173169800Y-69312310D01*
X173165715Y-69353791D01*
X173155407Y-69387769D01*
X173138666Y-69419090D01*
X173116139Y-69446539D01*
X173088690Y-69469066D01*
X173057369Y-69485807D01*
X173023391Y-69496115D01*
X172981910Y-69500200D01*
X172305690Y-69500200D01*
X172264209Y-69496115D01*
X172230231Y-69485807D01*
X172198910Y-69469066D01*
X172171461Y-69446539D01*
X172148934Y-69419090D01*
X172132193Y-69387769D01*
X172121885Y-69353791D01*
X172117800Y-69312310D01*
X172117800Y-68711090D01*
X172121885Y-68669609D01*
X172132193Y-68635631D01*
X172148934Y-68604310D01*
X172171461Y-68576861D01*
X172198910Y-68554334D01*
X172230231Y-68537593D01*
X172264209Y-68527285D01*
X172305690Y-68523200D01*
X172981910Y-68523200D01*
X173023391Y-68527285D01*
X173023391Y-68527285D01*
G37*
G36*
X130466400Y-67525200D02*
G01*
X128664400Y-67525200D01*
X128664400Y-65723200D01*
X130466400Y-65723200D01*
X130466400Y-67525200D01*
X130466400Y-67525200D01*
G37*
G36*
X127135843Y-65729719D02*
G01*
X127202027Y-65736237D01*
X127371866Y-65787757D01*
X127528391Y-65871422D01*
X127564129Y-65900752D01*
X127665586Y-65984014D01*
X127748848Y-66085471D01*
X127778178Y-66121209D01*
X127861843Y-66277734D01*
X127913363Y-66447573D01*
X127930759Y-66624200D01*
X127913363Y-66800827D01*
X127861843Y-66970666D01*
X127778178Y-67127191D01*
X127763146Y-67145507D01*
X127665586Y-67264386D01*
X127564129Y-67347648D01*
X127528391Y-67376978D01*
X127371866Y-67460643D01*
X127202027Y-67512163D01*
X127135843Y-67518681D01*
X127069660Y-67525200D01*
X126981140Y-67525200D01*
X126914957Y-67518681D01*
X126848773Y-67512163D01*
X126678934Y-67460643D01*
X126522409Y-67376978D01*
X126486671Y-67347648D01*
X126385214Y-67264386D01*
X126287654Y-67145507D01*
X126272622Y-67127191D01*
X126188957Y-66970666D01*
X126137437Y-66800827D01*
X126120041Y-66624200D01*
X126137437Y-66447573D01*
X126188957Y-66277734D01*
X126272622Y-66121209D01*
X126301952Y-66085471D01*
X126385214Y-65984014D01*
X126486671Y-65900752D01*
X126522409Y-65871422D01*
X126678934Y-65787757D01*
X126848773Y-65736237D01*
X126914957Y-65729719D01*
X126981140Y-65723200D01*
X127069660Y-65723200D01*
X127135843Y-65729719D01*
X127135843Y-65729719D01*
G37*
G36*
X135343191Y-66102285D02*
G01*
X135377169Y-66112593D01*
X135408490Y-66129334D01*
X135435939Y-66151861D01*
X135458466Y-66179310D01*
X135475207Y-66210631D01*
X135485515Y-66244609D01*
X135489600Y-66286090D01*
X135489600Y-66962310D01*
X135485515Y-67003791D01*
X135475207Y-67037769D01*
X135458466Y-67069090D01*
X135435939Y-67096539D01*
X135408490Y-67119066D01*
X135377169Y-67135807D01*
X135343191Y-67146115D01*
X135301710Y-67150200D01*
X134700490Y-67150200D01*
X134659009Y-67146115D01*
X134625031Y-67135807D01*
X134593710Y-67119066D01*
X134566261Y-67096539D01*
X134543734Y-67069090D01*
X134526993Y-67037769D01*
X134516685Y-67003791D01*
X134512600Y-66962310D01*
X134512600Y-66286090D01*
X134516685Y-66244609D01*
X134526993Y-66210631D01*
X134543734Y-66179310D01*
X134566261Y-66151861D01*
X134593710Y-66129334D01*
X134625031Y-66112593D01*
X134659009Y-66102285D01*
X134700490Y-66098200D01*
X135301710Y-66098200D01*
X135343191Y-66102285D01*
X135343191Y-66102285D01*
G37*
G36*
X133768191Y-66102285D02*
G01*
X133802169Y-66112593D01*
X133833490Y-66129334D01*
X133860939Y-66151861D01*
X133883466Y-66179310D01*
X133900207Y-66210631D01*
X133910515Y-66244609D01*
X133914600Y-66286090D01*
X133914600Y-66962310D01*
X133910515Y-67003791D01*
X133900207Y-67037769D01*
X133883466Y-67069090D01*
X133860939Y-67096539D01*
X133833490Y-67119066D01*
X133802169Y-67135807D01*
X133768191Y-67146115D01*
X133726710Y-67150200D01*
X133125490Y-67150200D01*
X133084009Y-67146115D01*
X133050031Y-67135807D01*
X133018710Y-67119066D01*
X132991261Y-67096539D01*
X132968734Y-67069090D01*
X132951993Y-67037769D01*
X132941685Y-67003791D01*
X132937600Y-66962310D01*
X132937600Y-66286090D01*
X132941685Y-66244609D01*
X132951993Y-66210631D01*
X132968734Y-66179310D01*
X132991261Y-66151861D01*
X133018710Y-66129334D01*
X133050031Y-66112593D01*
X133084009Y-66102285D01*
X133125490Y-66098200D01*
X133726710Y-66098200D01*
X133768191Y-66102285D01*
X133768191Y-66102285D01*
G37*
G36*
X173906800Y-66273800D02*
G01*
X172054800Y-66273800D01*
X172054800Y-57271800D01*
X173906800Y-57271800D01*
X173906800Y-66273800D01*
X173906800Y-66273800D01*
G37*
G36*
X181106800Y-66273800D02*
G01*
X179254800Y-66273800D01*
X179254800Y-57271800D01*
X181106800Y-57271800D01*
X181106800Y-66273800D01*
X181106800Y-66273800D01*
G37*
G36*
X130466400Y-64985200D02*
G01*
X128664400Y-64985200D01*
X128664400Y-63183200D01*
X130466400Y-63183200D01*
X130466400Y-64985200D01*
X130466400Y-64985200D01*
G37*
G36*
X127135843Y-63189719D02*
G01*
X127202027Y-63196237D01*
X127371866Y-63247757D01*
X127528391Y-63331422D01*
X127564129Y-63360752D01*
X127665586Y-63444014D01*
X127748848Y-63545471D01*
X127778178Y-63581209D01*
X127861843Y-63737734D01*
X127913363Y-63907573D01*
X127930759Y-64084200D01*
X127913363Y-64260827D01*
X127861843Y-64430666D01*
X127778178Y-64587191D01*
X127763146Y-64605507D01*
X127665586Y-64724386D01*
X127564129Y-64807648D01*
X127528391Y-64836978D01*
X127371866Y-64920643D01*
X127202027Y-64972163D01*
X127135842Y-64978682D01*
X127069660Y-64985200D01*
X126981140Y-64985200D01*
X126914958Y-64978682D01*
X126848773Y-64972163D01*
X126678934Y-64920643D01*
X126522409Y-64836978D01*
X126486671Y-64807648D01*
X126385214Y-64724386D01*
X126287654Y-64605507D01*
X126272622Y-64587191D01*
X126188957Y-64430666D01*
X126137437Y-64260827D01*
X126120041Y-64084200D01*
X126137437Y-63907573D01*
X126188957Y-63737734D01*
X126272622Y-63581209D01*
X126301952Y-63545471D01*
X126385214Y-63444014D01*
X126486671Y-63360752D01*
X126522409Y-63331422D01*
X126678934Y-63247757D01*
X126848773Y-63196237D01*
X126914957Y-63189719D01*
X126981140Y-63183200D01*
X127069660Y-63183200D01*
X127135843Y-63189719D01*
X127135843Y-63189719D01*
G37*
G36*
X135343191Y-63562285D02*
G01*
X135377169Y-63572593D01*
X135408490Y-63589334D01*
X135435939Y-63611861D01*
X135458466Y-63639310D01*
X135475207Y-63670631D01*
X135485515Y-63704609D01*
X135489600Y-63746090D01*
X135489600Y-64422310D01*
X135485515Y-64463791D01*
X135475207Y-64497769D01*
X135458466Y-64529090D01*
X135435939Y-64556539D01*
X135408490Y-64579066D01*
X135377169Y-64595807D01*
X135343191Y-64606115D01*
X135301710Y-64610200D01*
X134700490Y-64610200D01*
X134659009Y-64606115D01*
X134625031Y-64595807D01*
X134593710Y-64579066D01*
X134566261Y-64556539D01*
X134543734Y-64529090D01*
X134526993Y-64497769D01*
X134516685Y-64463791D01*
X134512600Y-64422310D01*
X134512600Y-63746090D01*
X134516685Y-63704609D01*
X134526993Y-63670631D01*
X134543734Y-63639310D01*
X134566261Y-63611861D01*
X134593710Y-63589334D01*
X134625031Y-63572593D01*
X134659009Y-63562285D01*
X134700490Y-63558200D01*
X135301710Y-63558200D01*
X135343191Y-63562285D01*
X135343191Y-63562285D01*
G37*
G36*
X133768191Y-63562285D02*
G01*
X133802169Y-63572593D01*
X133833490Y-63589334D01*
X133860939Y-63611861D01*
X133883466Y-63639310D01*
X133900207Y-63670631D01*
X133910515Y-63704609D01*
X133914600Y-63746090D01*
X133914600Y-64422310D01*
X133910515Y-64463791D01*
X133900207Y-64497769D01*
X133883466Y-64529090D01*
X133860939Y-64556539D01*
X133833490Y-64579066D01*
X133802169Y-64595807D01*
X133768191Y-64606115D01*
X133726710Y-64610200D01*
X133125490Y-64610200D01*
X133084009Y-64606115D01*
X133050031Y-64595807D01*
X133018710Y-64579066D01*
X132991261Y-64556539D01*
X132968734Y-64529090D01*
X132951993Y-64497769D01*
X132941685Y-64463791D01*
X132937600Y-64422310D01*
X132937600Y-63746090D01*
X132941685Y-63704609D01*
X132951993Y-63670631D01*
X132968734Y-63639310D01*
X132991261Y-63611861D01*
X133018710Y-63589334D01*
X133050031Y-63572593D01*
X133084009Y-63562285D01*
X133125490Y-63558200D01*
X133726710Y-63558200D01*
X133768191Y-63562285D01*
X133768191Y-63562285D01*
G37*
G36*
X146221400Y-64590400D02*
G01*
X139969400Y-64590400D01*
X139969400Y-62888400D01*
X146221400Y-62888400D01*
X146221400Y-64590400D01*
X146221400Y-64590400D01*
G37*
G36*
X160778507Y-59975498D02*
G01*
X160816518Y-59987029D01*
X160851542Y-60005749D01*
X160882249Y-60030951D01*
X160907451Y-60061658D01*
X160926171Y-60096682D01*
X160937702Y-60134693D01*
X160942200Y-60180363D01*
X160942200Y-63263637D01*
X160937702Y-63309307D01*
X160926171Y-63347318D01*
X160907451Y-63382342D01*
X160882249Y-63413049D01*
X160851542Y-63438251D01*
X160816518Y-63456971D01*
X160778507Y-63468502D01*
X160732837Y-63473000D01*
X159924563Y-63473000D01*
X159878893Y-63468502D01*
X159840882Y-63456971D01*
X159805858Y-63438251D01*
X159775151Y-63413049D01*
X159749949Y-63382342D01*
X159731229Y-63347318D01*
X159719698Y-63309307D01*
X159715200Y-63263637D01*
X159715200Y-60180363D01*
X159719698Y-60134693D01*
X159731229Y-60096682D01*
X159749949Y-60061658D01*
X159775151Y-60030951D01*
X159805858Y-60005749D01*
X159840882Y-59987029D01*
X159878893Y-59975498D01*
X159924563Y-59971000D01*
X160732837Y-59971000D01*
X160778507Y-59975498D01*
X160778507Y-59975498D01*
G37*
G36*
X156503507Y-59975498D02*
G01*
X156541518Y-59987029D01*
X156576542Y-60005749D01*
X156607249Y-60030951D01*
X156632451Y-60061658D01*
X156651171Y-60096682D01*
X156662702Y-60134693D01*
X156667200Y-60180363D01*
X156667200Y-63263637D01*
X156662702Y-63309307D01*
X156651171Y-63347318D01*
X156632451Y-63382342D01*
X156607249Y-63413049D01*
X156576542Y-63438251D01*
X156541518Y-63456971D01*
X156503507Y-63468502D01*
X156457837Y-63473000D01*
X155649563Y-63473000D01*
X155603893Y-63468502D01*
X155565882Y-63456971D01*
X155530858Y-63438251D01*
X155500151Y-63413049D01*
X155474949Y-63382342D01*
X155456229Y-63347318D01*
X155444698Y-63309307D01*
X155440200Y-63263637D01*
X155440200Y-60180363D01*
X155444698Y-60134693D01*
X155456229Y-60096682D01*
X155474949Y-60061658D01*
X155500151Y-60030951D01*
X155530858Y-60005749D01*
X155565882Y-59987029D01*
X155603893Y-59975498D01*
X155649563Y-59971000D01*
X156457837Y-59971000D01*
X156503507Y-59975498D01*
X156503507Y-59975498D01*
G37*
G36*
X163650791Y-62151985D02*
G01*
X163684769Y-62162293D01*
X163716090Y-62179034D01*
X163743539Y-62201561D01*
X163766066Y-62229010D01*
X163782807Y-62260331D01*
X163793115Y-62294309D01*
X163797200Y-62335790D01*
X163797200Y-62937010D01*
X163793115Y-62978491D01*
X163782807Y-63012469D01*
X163766066Y-63043790D01*
X163743539Y-63071239D01*
X163716090Y-63093766D01*
X163684769Y-63110507D01*
X163650791Y-63120815D01*
X163609310Y-63124900D01*
X162933090Y-63124900D01*
X162891609Y-63120815D01*
X162857631Y-63110507D01*
X162826310Y-63093766D01*
X162798861Y-63071239D01*
X162776334Y-63043790D01*
X162759593Y-63012469D01*
X162749285Y-62978491D01*
X162745200Y-62937010D01*
X162745200Y-62335790D01*
X162749285Y-62294309D01*
X162759593Y-62260331D01*
X162776334Y-62229010D01*
X162798861Y-62201561D01*
X162826310Y-62179034D01*
X162857631Y-62162293D01*
X162891609Y-62151985D01*
X162933090Y-62147900D01*
X163609310Y-62147900D01*
X163650791Y-62151985D01*
X163650791Y-62151985D01*
G37*
G36*
X167301200Y-62710000D02*
G01*
X166099200Y-62710000D01*
X166099200Y-61508000D01*
X167301200Y-61508000D01*
X167301200Y-62710000D01*
X167301200Y-62710000D01*
G37*
G36*
X163650791Y-60576985D02*
G01*
X163684769Y-60587293D01*
X163716090Y-60604034D01*
X163743539Y-60626561D01*
X163766066Y-60654010D01*
X163782807Y-60685331D01*
X163793115Y-60719309D01*
X163797200Y-60760790D01*
X163797200Y-61362010D01*
X163793115Y-61403491D01*
X163782807Y-61437469D01*
X163766066Y-61468790D01*
X163743539Y-61496239D01*
X163716090Y-61518766D01*
X163684769Y-61535507D01*
X163650791Y-61545815D01*
X163609310Y-61549900D01*
X162933090Y-61549900D01*
X162891609Y-61545815D01*
X162857631Y-61535507D01*
X162826310Y-61518766D01*
X162798861Y-61496239D01*
X162776334Y-61468790D01*
X162759593Y-61437469D01*
X162749285Y-61403491D01*
X162745200Y-61362010D01*
X162745200Y-60760790D01*
X162749285Y-60719309D01*
X162759593Y-60685331D01*
X162776334Y-60654010D01*
X162798861Y-60626561D01*
X162826310Y-60604034D01*
X162857631Y-60587293D01*
X162891609Y-60576985D01*
X162933090Y-60572900D01*
X163609310Y-60572900D01*
X163650791Y-60576985D01*
X163650791Y-60576985D01*
G37*
G36*
X144614191Y-60158685D02*
G01*
X144648169Y-60168993D01*
X144679490Y-60185734D01*
X144706939Y-60208261D01*
X144729466Y-60235710D01*
X144746207Y-60267031D01*
X144756515Y-60301009D01*
X144760600Y-60342490D01*
X144760600Y-61018710D01*
X144756515Y-61060191D01*
X144746207Y-61094169D01*
X144729466Y-61125490D01*
X144706939Y-61152939D01*
X144679490Y-61175466D01*
X144648169Y-61192207D01*
X144614191Y-61202515D01*
X144572710Y-61206600D01*
X143971490Y-61206600D01*
X143930009Y-61202515D01*
X143896031Y-61192207D01*
X143864710Y-61175466D01*
X143837261Y-61152939D01*
X143814734Y-61125490D01*
X143797993Y-61094169D01*
X143787685Y-61060191D01*
X143783600Y-61018710D01*
X143783600Y-60342490D01*
X143787685Y-60301009D01*
X143797993Y-60267031D01*
X143814734Y-60235710D01*
X143837261Y-60208261D01*
X143864710Y-60185734D01*
X143896031Y-60168993D01*
X143930009Y-60158685D01*
X143971490Y-60154600D01*
X144572710Y-60154600D01*
X144614191Y-60158685D01*
X144614191Y-60158685D01*
G37*
G36*
X143039191Y-60158685D02*
G01*
X143073169Y-60168993D01*
X143104490Y-60185734D01*
X143131939Y-60208261D01*
X143154466Y-60235710D01*
X143171207Y-60267031D01*
X143181515Y-60301009D01*
X143185600Y-60342490D01*
X143185600Y-61018710D01*
X143181515Y-61060191D01*
X143171207Y-61094169D01*
X143154466Y-61125490D01*
X143131939Y-61152939D01*
X143104490Y-61175466D01*
X143073169Y-61192207D01*
X143039191Y-61202515D01*
X142997710Y-61206600D01*
X142396490Y-61206600D01*
X142355009Y-61202515D01*
X142321031Y-61192207D01*
X142289710Y-61175466D01*
X142262261Y-61152939D01*
X142239734Y-61125490D01*
X142222993Y-61094169D01*
X142212685Y-61060191D01*
X142208600Y-61018710D01*
X142208600Y-60342490D01*
X142212685Y-60301009D01*
X142222993Y-60267031D01*
X142239734Y-60235710D01*
X142262261Y-60208261D01*
X142289710Y-60185734D01*
X142321031Y-60168993D01*
X142355009Y-60158685D01*
X142396490Y-60154600D01*
X142997710Y-60154600D01*
X143039191Y-60158685D01*
X143039191Y-60158685D01*
G37*
G36*
X147721197Y-57476051D02*
G01*
X147754852Y-57486261D01*
X147785865Y-57502838D01*
X147813051Y-57525149D01*
X147835362Y-57552335D01*
X147851939Y-57583348D01*
X147862149Y-57617003D01*
X147866200Y-57658138D01*
X147866200Y-59987862D01*
X147862149Y-60028997D01*
X147851939Y-60062652D01*
X147835362Y-60093665D01*
X147813051Y-60120851D01*
X147785865Y-60143162D01*
X147754852Y-60159739D01*
X147721197Y-60169949D01*
X147680062Y-60174000D01*
X146350338Y-60174000D01*
X146309203Y-60169949D01*
X146275548Y-60159739D01*
X146244535Y-60143162D01*
X146217349Y-60120851D01*
X146195038Y-60093665D01*
X146178461Y-60062652D01*
X146168251Y-60028997D01*
X146164200Y-59987862D01*
X146164200Y-57658138D01*
X146168251Y-57617003D01*
X146178461Y-57583348D01*
X146195038Y-57552335D01*
X146217349Y-57525149D01*
X146244535Y-57502838D01*
X146275548Y-57486261D01*
X146309203Y-57476051D01*
X146350338Y-57472000D01*
X147680062Y-57472000D01*
X147721197Y-57476051D01*
X147721197Y-57476051D01*
G37*
G36*
X167301200Y-59910000D02*
G01*
X166099200Y-59910000D01*
X166099200Y-58708000D01*
X167301200Y-58708000D01*
X167301200Y-59910000D01*
X167301200Y-59910000D01*
G37*
G36*
X137139642Y-57827581D02*
G01*
X137285414Y-57887962D01*
X137285416Y-57887963D01*
X137416608Y-57975622D01*
X137528178Y-58087192D01*
X137615837Y-58218384D01*
X137615838Y-58218386D01*
X137676219Y-58364158D01*
X137707000Y-58518907D01*
X137707000Y-58676693D01*
X137676219Y-58831442D01*
X137619097Y-58969345D01*
X137615837Y-58977216D01*
X137528178Y-59108408D01*
X137416608Y-59219978D01*
X137285416Y-59307637D01*
X137285415Y-59307638D01*
X137285414Y-59307638D01*
X137139642Y-59368019D01*
X136984893Y-59398800D01*
X136827107Y-59398800D01*
X136672358Y-59368019D01*
X136526586Y-59307638D01*
X136526585Y-59307638D01*
X136526584Y-59307637D01*
X136395392Y-59219978D01*
X136283822Y-59108408D01*
X136196163Y-58977216D01*
X136192903Y-58969345D01*
X136135781Y-58831442D01*
X136105000Y-58676693D01*
X136105000Y-58518907D01*
X136135781Y-58364158D01*
X136196162Y-58218386D01*
X136196163Y-58218384D01*
X136283822Y-58087192D01*
X136395392Y-57975622D01*
X136526584Y-57887963D01*
X136526586Y-57887962D01*
X136672358Y-57827581D01*
X136827107Y-57796800D01*
X136984893Y-57796800D01*
X137139642Y-57827581D01*
X137139642Y-57827581D01*
G37*
G36*
X132259642Y-57827581D02*
G01*
X132405414Y-57887962D01*
X132405416Y-57887963D01*
X132536608Y-57975622D01*
X132648178Y-58087192D01*
X132735837Y-58218384D01*
X132735838Y-58218386D01*
X132796219Y-58364158D01*
X132827000Y-58518907D01*
X132827000Y-58676693D01*
X132796219Y-58831442D01*
X132739097Y-58969345D01*
X132735837Y-58977216D01*
X132648178Y-59108408D01*
X132536608Y-59219978D01*
X132405416Y-59307637D01*
X132405415Y-59307638D01*
X132405414Y-59307638D01*
X132259642Y-59368019D01*
X132104893Y-59398800D01*
X131947107Y-59398800D01*
X131792358Y-59368019D01*
X131646586Y-59307638D01*
X131646585Y-59307638D01*
X131646584Y-59307637D01*
X131515392Y-59219978D01*
X131403822Y-59108408D01*
X131316163Y-58977216D01*
X131312903Y-58969345D01*
X131255781Y-58831442D01*
X131225000Y-58676693D01*
X131225000Y-58518907D01*
X131255781Y-58364158D01*
X131316162Y-58218386D01*
X131316163Y-58218384D01*
X131403822Y-58087192D01*
X131515392Y-57975622D01*
X131646584Y-57887963D01*
X131646586Y-57887962D01*
X131792358Y-57827581D01*
X131947107Y-57796800D01*
X132104893Y-57796800D01*
X132259642Y-57827581D01*
X132259642Y-57827581D01*
G37*
G36*
X163723197Y-56485451D02*
G01*
X163756852Y-56495661D01*
X163787865Y-56512238D01*
X163815051Y-56534549D01*
X163837362Y-56561735D01*
X163853939Y-56592748D01*
X163864149Y-56626403D01*
X163868200Y-56667538D01*
X163868200Y-58997262D01*
X163864149Y-59038397D01*
X163853939Y-59072052D01*
X163837362Y-59103065D01*
X163815051Y-59130251D01*
X163787865Y-59152562D01*
X163756852Y-59169139D01*
X163723197Y-59179349D01*
X163682062Y-59183400D01*
X162352338Y-59183400D01*
X162311203Y-59179349D01*
X162277548Y-59169139D01*
X162246535Y-59152562D01*
X162219349Y-59130251D01*
X162197038Y-59103065D01*
X162180461Y-59072052D01*
X162170251Y-59038397D01*
X162166200Y-58997262D01*
X162166200Y-56667538D01*
X162170251Y-56626403D01*
X162180461Y-56592748D01*
X162197038Y-56561735D01*
X162219349Y-56534549D01*
X162246535Y-56512238D01*
X162277548Y-56495661D01*
X162311203Y-56485451D01*
X162352338Y-56481400D01*
X163682062Y-56481400D01*
X163723197Y-56485451D01*
X163723197Y-56485451D01*
G37*
G36*
X152234548Y-56570920D02*
G01*
X152234550Y-56570921D01*
X152234551Y-56570921D01*
X152375774Y-56629417D01*
X152375777Y-56629419D01*
X152502869Y-56714339D01*
X152610961Y-56822431D01*
X152667575Y-56907160D01*
X152695883Y-56949526D01*
X152716717Y-56999825D01*
X152728268Y-57021436D01*
X152743814Y-57040378D01*
X152762756Y-57055923D01*
X152784366Y-57067474D01*
X152807815Y-57074587D01*
X152832201Y-57076989D01*
X152856587Y-57074587D01*
X152880036Y-57067474D01*
X152901647Y-57055923D01*
X152920589Y-57040377D01*
X152936134Y-57021435D01*
X152947685Y-56999825D01*
X152954798Y-56976376D01*
X152957200Y-56951990D01*
X152957200Y-56591100D01*
X156059200Y-56591100D01*
X156059200Y-56951990D01*
X156061602Y-56976376D01*
X156068715Y-56999825D01*
X156080266Y-57021436D01*
X156095811Y-57040378D01*
X156114753Y-57055923D01*
X156136364Y-57067474D01*
X156159813Y-57074587D01*
X156184199Y-57076989D01*
X156208585Y-57074587D01*
X156232034Y-57067474D01*
X156253645Y-57055923D01*
X156272587Y-57040378D01*
X156288132Y-57021436D01*
X156299683Y-56999825D01*
X156320517Y-56949526D01*
X156348825Y-56907160D01*
X156405439Y-56822431D01*
X156513531Y-56714339D01*
X156640623Y-56629419D01*
X156640626Y-56629417D01*
X156781849Y-56570921D01*
X156781850Y-56570921D01*
X156781852Y-56570920D01*
X156931769Y-56541100D01*
X157084631Y-56541100D01*
X157234548Y-56570920D01*
X157234550Y-56570921D01*
X157234551Y-56570921D01*
X157375774Y-56629417D01*
X157375777Y-56629419D01*
X157502869Y-56714339D01*
X157610961Y-56822431D01*
X157695881Y-56949523D01*
X157695883Y-56949526D01*
X157748679Y-57076989D01*
X157754380Y-57090752D01*
X157784200Y-57240669D01*
X157784200Y-57393531D01*
X157758020Y-57525149D01*
X157754379Y-57543451D01*
X157695883Y-57684674D01*
X157695882Y-57684675D01*
X157695881Y-57684677D01*
X157610961Y-57811769D01*
X157502869Y-57919861D01*
X157375777Y-58004781D01*
X157375774Y-58004783D01*
X157234551Y-58063279D01*
X157234550Y-58063279D01*
X157234548Y-58063280D01*
X157084631Y-58093100D01*
X156931769Y-58093100D01*
X156781852Y-58063280D01*
X156781850Y-58063279D01*
X156781849Y-58063279D01*
X156640626Y-58004783D01*
X156640623Y-58004781D01*
X156513531Y-57919861D01*
X156405439Y-57811769D01*
X156320518Y-57684675D01*
X156320517Y-57684674D01*
X156299681Y-57634372D01*
X156288132Y-57612764D01*
X156272586Y-57593822D01*
X156253644Y-57578277D01*
X156232034Y-57566726D01*
X156208585Y-57559613D01*
X156184199Y-57557211D01*
X156159813Y-57559613D01*
X156136364Y-57566726D01*
X156114753Y-57578277D01*
X156095811Y-57593823D01*
X156080266Y-57612765D01*
X156068715Y-57634375D01*
X156061602Y-57657824D01*
X156059200Y-57682210D01*
X156059200Y-58043100D01*
X152957200Y-58043100D01*
X152957200Y-57682210D01*
X152954798Y-57657824D01*
X152947685Y-57634375D01*
X152936134Y-57612764D01*
X152920589Y-57593822D01*
X152901647Y-57578277D01*
X152880036Y-57566726D01*
X152856587Y-57559613D01*
X152832201Y-57557211D01*
X152807815Y-57559613D01*
X152784366Y-57566726D01*
X152762755Y-57578277D01*
X152743813Y-57593822D01*
X152728268Y-57612764D01*
X152716719Y-57634372D01*
X152695883Y-57684674D01*
X152695882Y-57684675D01*
X152610961Y-57811769D01*
X152502869Y-57919861D01*
X152375777Y-58004781D01*
X152375774Y-58004783D01*
X152234551Y-58063279D01*
X152234550Y-58063279D01*
X152234548Y-58063280D01*
X152084631Y-58093100D01*
X151931769Y-58093100D01*
X151781852Y-58063280D01*
X151781850Y-58063279D01*
X151781849Y-58063279D01*
X151640626Y-58004783D01*
X151640623Y-58004781D01*
X151513531Y-57919861D01*
X151405439Y-57811769D01*
X151320519Y-57684677D01*
X151320518Y-57684675D01*
X151320517Y-57684674D01*
X151262021Y-57543451D01*
X151258381Y-57525149D01*
X151232200Y-57393531D01*
X151232200Y-57240669D01*
X151262020Y-57090752D01*
X151267721Y-57076989D01*
X151320517Y-56949526D01*
X151320519Y-56949523D01*
X151405439Y-56822431D01*
X151513531Y-56714339D01*
X151640623Y-56629419D01*
X151640626Y-56629417D01*
X151781849Y-56570921D01*
X151781850Y-56570921D01*
X151781852Y-56570920D01*
X151931769Y-56541100D01*
X152084631Y-56541100D01*
X152234548Y-56570920D01*
X152234548Y-56570920D01*
G37*
G36*
X147721197Y-53876051D02*
G01*
X147754852Y-53886261D01*
X147785865Y-53902838D01*
X147813051Y-53925149D01*
X147835362Y-53952335D01*
X147851939Y-53983348D01*
X147862149Y-54017003D01*
X147866200Y-54058138D01*
X147866200Y-56387862D01*
X147862149Y-56428997D01*
X147851939Y-56462652D01*
X147835362Y-56493665D01*
X147813051Y-56520851D01*
X147785865Y-56543162D01*
X147754852Y-56559739D01*
X147721197Y-56569949D01*
X147680062Y-56574000D01*
X146350338Y-56574000D01*
X146309203Y-56569949D01*
X146275548Y-56559739D01*
X146244535Y-56543162D01*
X146217349Y-56520851D01*
X146195038Y-56493665D01*
X146178461Y-56462652D01*
X146168251Y-56428997D01*
X146164200Y-56387862D01*
X146164200Y-54058138D01*
X146168251Y-54017003D01*
X146178461Y-53983348D01*
X146195038Y-53952335D01*
X146217349Y-53925149D01*
X146244535Y-53902838D01*
X146275548Y-53886261D01*
X146309203Y-53876051D01*
X146350338Y-53872000D01*
X147680062Y-53872000D01*
X147721197Y-53876051D01*
X147721197Y-53876051D01*
G37*
G36*
X169645191Y-55395685D02*
G01*
X169679169Y-55405993D01*
X169710490Y-55422734D01*
X169737939Y-55445261D01*
X169760466Y-55472710D01*
X169777207Y-55504031D01*
X169787515Y-55538009D01*
X169791600Y-55579490D01*
X169791600Y-56180710D01*
X169787515Y-56222191D01*
X169777207Y-56256169D01*
X169760466Y-56287490D01*
X169737939Y-56314939D01*
X169710490Y-56337466D01*
X169679169Y-56354207D01*
X169645191Y-56364515D01*
X169603710Y-56368600D01*
X168927490Y-56368600D01*
X168886009Y-56364515D01*
X168852031Y-56354207D01*
X168820710Y-56337466D01*
X168793261Y-56314939D01*
X168770734Y-56287490D01*
X168753993Y-56256169D01*
X168743685Y-56222191D01*
X168739600Y-56180710D01*
X168739600Y-55579490D01*
X168743685Y-55538009D01*
X168753993Y-55504031D01*
X168770734Y-55472710D01*
X168793261Y-55445261D01*
X168820710Y-55422734D01*
X168852031Y-55405993D01*
X168886009Y-55395685D01*
X168927490Y-55391600D01*
X169603710Y-55391600D01*
X169645191Y-55395685D01*
X169645191Y-55395685D01*
G37*
G36*
X181047149Y-53506516D02*
G01*
X181158334Y-53528632D01*
X181367803Y-53615397D01*
X181556320Y-53741360D01*
X181716640Y-53901680D01*
X181842603Y-54090197D01*
X181902635Y-54235126D01*
X181929368Y-54299667D01*
X181973600Y-54522035D01*
X181973600Y-54748765D01*
X181958136Y-54826507D01*
X181929368Y-54971134D01*
X181842603Y-55180603D01*
X181716640Y-55369120D01*
X181556320Y-55529440D01*
X181367803Y-55655403D01*
X181158334Y-55742168D01*
X181047149Y-55764284D01*
X180935965Y-55786400D01*
X180709235Y-55786400D01*
X180598051Y-55764284D01*
X180486866Y-55742168D01*
X180277397Y-55655403D01*
X180088880Y-55529440D01*
X179928560Y-55369120D01*
X179802597Y-55180603D01*
X179715832Y-54971134D01*
X179687064Y-54826507D01*
X179671600Y-54748765D01*
X179671600Y-54522035D01*
X179715832Y-54299667D01*
X179742566Y-54235126D01*
X179802597Y-54090197D01*
X179928560Y-53901680D01*
X180088880Y-53741360D01*
X180277397Y-53615397D01*
X180486866Y-53528632D01*
X180598051Y-53506516D01*
X180709235Y-53484400D01*
X180935965Y-53484400D01*
X181047149Y-53506516D01*
X181047149Y-53506516D01*
G37*
G36*
X126183149Y-53506516D02*
G01*
X126294334Y-53528632D01*
X126503803Y-53615397D01*
X126692320Y-53741360D01*
X126852640Y-53901680D01*
X126978603Y-54090197D01*
X127038635Y-54235126D01*
X127065368Y-54299667D01*
X127109600Y-54522035D01*
X127109600Y-54748765D01*
X127094136Y-54826507D01*
X127065368Y-54971134D01*
X126978603Y-55180603D01*
X126852640Y-55369120D01*
X126692320Y-55529440D01*
X126503803Y-55655403D01*
X126294334Y-55742168D01*
X126183149Y-55764284D01*
X126071965Y-55786400D01*
X125845235Y-55786400D01*
X125734051Y-55764284D01*
X125622866Y-55742168D01*
X125413397Y-55655403D01*
X125224880Y-55529440D01*
X125064560Y-55369120D01*
X124938597Y-55180603D01*
X124851832Y-54971134D01*
X124823064Y-54826507D01*
X124807600Y-54748765D01*
X124807600Y-54522035D01*
X124851832Y-54299667D01*
X124878566Y-54235126D01*
X124938597Y-54090197D01*
X125064560Y-53901680D01*
X125224880Y-53741360D01*
X125413397Y-53615397D01*
X125622866Y-53528632D01*
X125734051Y-53506516D01*
X125845235Y-53484400D01*
X126071965Y-53484400D01*
X126183149Y-53506516D01*
X126183149Y-53506516D01*
G37*
G36*
X151034062Y-53615498D02*
G01*
X151046314Y-53616100D01*
X152259200Y-53616100D01*
X152259200Y-55618100D01*
X151046314Y-55618100D01*
X151034062Y-55618702D01*
X151008200Y-55621249D01*
X150982338Y-55618702D01*
X150970086Y-55618100D01*
X150896794Y-55618100D01*
X150880036Y-55609143D01*
X150868499Y-55605015D01*
X150780400Y-55578290D01*
X150757864Y-55571454D01*
X150644775Y-55511006D01*
X150545647Y-55429654D01*
X150464294Y-55330524D01*
X150403846Y-55217435D01*
X150392673Y-55180601D01*
X150366620Y-55094717D01*
X150357200Y-54999072D01*
X150357200Y-54235127D01*
X150366620Y-54139482D01*
X150403845Y-54016768D01*
X150452571Y-53925609D01*
X150464295Y-53903675D01*
X150545647Y-53804546D01*
X150644776Y-53723194D01*
X150757866Y-53662746D01*
X150757869Y-53662745D01*
X150868490Y-53629188D01*
X150891125Y-53619812D01*
X150896681Y-53616100D01*
X150970086Y-53616100D01*
X150982338Y-53615498D01*
X151008200Y-53612951D01*
X151034062Y-53615498D01*
X151034062Y-53615498D01*
G37*
G36*
X158034062Y-53615498D02*
G01*
X158046314Y-53616100D01*
X158119606Y-53616100D01*
X158136364Y-53625057D01*
X158147907Y-53629187D01*
X158258531Y-53662745D01*
X158258534Y-53662746D01*
X158371624Y-53723194D01*
X158470754Y-53804547D01*
X158552106Y-53903675D01*
X158612554Y-54016764D01*
X158612626Y-54017003D01*
X158649780Y-54139482D01*
X158659200Y-54235127D01*
X158659200Y-54999073D01*
X158649780Y-55094718D01*
X158623728Y-55180601D01*
X158612554Y-55217436D01*
X158552106Y-55330525D01*
X158470754Y-55429654D01*
X158371625Y-55511006D01*
X158258536Y-55571454D01*
X158236000Y-55578290D01*
X158147908Y-55605013D01*
X158125275Y-55614387D01*
X158119718Y-55618100D01*
X158046314Y-55618100D01*
X158034062Y-55618702D01*
X158008200Y-55621249D01*
X157982338Y-55618702D01*
X157970086Y-55618100D01*
X156757200Y-55618100D01*
X156757200Y-53616100D01*
X157970086Y-53616100D01*
X157982338Y-53615498D01*
X158008200Y-53612951D01*
X158034062Y-53615498D01*
X158034062Y-53615498D01*
G37*
G36*
X156309200Y-55618100D02*
G01*
X154707200Y-55618100D01*
X154707200Y-53616100D01*
X156309200Y-53616100D01*
X156309200Y-55618100D01*
X156309200Y-55618100D01*
G37*
G36*
X154309200Y-55618100D02*
G01*
X152707200Y-55618100D01*
X152707200Y-53616100D01*
X154309200Y-53616100D01*
X154309200Y-55618100D01*
X154309200Y-55618100D01*
G37*
G36*
X163723197Y-52885451D02*
G01*
X163756852Y-52895661D01*
X163787865Y-52912238D01*
X163815051Y-52934549D01*
X163837362Y-52961735D01*
X163853939Y-52992748D01*
X163864149Y-53026403D01*
X163868200Y-53067538D01*
X163868200Y-55397262D01*
X163864149Y-55438397D01*
X163853939Y-55472052D01*
X163837362Y-55503065D01*
X163815051Y-55530251D01*
X163787865Y-55552562D01*
X163756852Y-55569139D01*
X163723197Y-55579349D01*
X163682062Y-55583400D01*
X162352338Y-55583400D01*
X162311203Y-55579349D01*
X162277548Y-55569139D01*
X162246535Y-55552562D01*
X162219349Y-55530251D01*
X162197038Y-55503065D01*
X162180461Y-55472052D01*
X162170251Y-55438397D01*
X162166200Y-55397262D01*
X162166200Y-53067538D01*
X162170251Y-53026403D01*
X162180461Y-52992748D01*
X162197038Y-52961735D01*
X162219349Y-52934549D01*
X162246535Y-52912238D01*
X162277548Y-52895661D01*
X162311203Y-52885451D01*
X162352338Y-52881400D01*
X163682062Y-52881400D01*
X163723197Y-52885451D01*
X163723197Y-52885451D01*
G37*
G36*
X130796391Y-53783285D02*
G01*
X130830369Y-53793593D01*
X130861690Y-53810334D01*
X130889139Y-53832861D01*
X130911666Y-53860310D01*
X130928407Y-53891631D01*
X130938715Y-53925609D01*
X130942800Y-53967090D01*
X130942800Y-54643310D01*
X130938715Y-54684791D01*
X130928407Y-54718769D01*
X130911666Y-54750090D01*
X130889139Y-54777539D01*
X130861690Y-54800066D01*
X130830369Y-54816807D01*
X130796391Y-54827115D01*
X130754910Y-54831200D01*
X130153690Y-54831200D01*
X130112209Y-54827115D01*
X130078231Y-54816807D01*
X130046910Y-54800066D01*
X130019461Y-54777539D01*
X129996934Y-54750090D01*
X129980193Y-54718769D01*
X129969885Y-54684791D01*
X129965800Y-54643310D01*
X129965800Y-53967090D01*
X129969885Y-53925609D01*
X129980193Y-53891631D01*
X129996934Y-53860310D01*
X130019461Y-53832861D01*
X130046910Y-53810334D01*
X130078231Y-53793593D01*
X130112209Y-53783285D01*
X130153690Y-53779200D01*
X130754910Y-53779200D01*
X130796391Y-53783285D01*
X130796391Y-53783285D01*
G37*
G36*
X138848391Y-53783285D02*
G01*
X138882369Y-53793593D01*
X138913690Y-53810334D01*
X138941139Y-53832861D01*
X138963666Y-53860310D01*
X138980407Y-53891631D01*
X138990715Y-53925609D01*
X138994800Y-53967090D01*
X138994800Y-54643310D01*
X138990715Y-54684791D01*
X138980407Y-54718769D01*
X138963666Y-54750090D01*
X138941139Y-54777539D01*
X138913690Y-54800066D01*
X138882369Y-54816807D01*
X138848391Y-54827115D01*
X138806910Y-54831200D01*
X138205690Y-54831200D01*
X138164209Y-54827115D01*
X138130231Y-54816807D01*
X138098910Y-54800066D01*
X138071461Y-54777539D01*
X138048934Y-54750090D01*
X138032193Y-54718769D01*
X138021885Y-54684791D01*
X138017800Y-54643310D01*
X138017800Y-53967090D01*
X138021885Y-53925609D01*
X138032193Y-53891631D01*
X138048934Y-53860310D01*
X138071461Y-53832861D01*
X138098910Y-53810334D01*
X138130231Y-53793593D01*
X138164209Y-53783285D01*
X138205690Y-53779200D01*
X138806910Y-53779200D01*
X138848391Y-53783285D01*
X138848391Y-53783285D01*
G37*
G36*
X137273391Y-53783285D02*
G01*
X137307369Y-53793593D01*
X137338690Y-53810334D01*
X137366139Y-53832861D01*
X137388666Y-53860310D01*
X137405407Y-53891631D01*
X137415715Y-53925609D01*
X137419800Y-53967090D01*
X137419800Y-54643310D01*
X137415715Y-54684791D01*
X137405407Y-54718769D01*
X137388666Y-54750090D01*
X137366139Y-54777539D01*
X137338690Y-54800066D01*
X137307369Y-54816807D01*
X137273391Y-54827115D01*
X137231910Y-54831200D01*
X136630690Y-54831200D01*
X136589209Y-54827115D01*
X136555231Y-54816807D01*
X136523910Y-54800066D01*
X136496461Y-54777539D01*
X136473934Y-54750090D01*
X136457193Y-54718769D01*
X136446885Y-54684791D01*
X136442800Y-54643310D01*
X136442800Y-53967090D01*
X136446885Y-53925609D01*
X136457193Y-53891631D01*
X136473934Y-53860310D01*
X136496461Y-53832861D01*
X136523910Y-53810334D01*
X136555231Y-53793593D01*
X136589209Y-53783285D01*
X136630690Y-53779200D01*
X137231910Y-53779200D01*
X137273391Y-53783285D01*
X137273391Y-53783285D01*
G37*
G36*
X132371391Y-53783285D02*
G01*
X132405369Y-53793593D01*
X132436690Y-53810334D01*
X132464139Y-53832861D01*
X132486666Y-53860310D01*
X132503407Y-53891631D01*
X132513715Y-53925609D01*
X132517800Y-53967090D01*
X132517800Y-54643310D01*
X132513715Y-54684791D01*
X132503407Y-54718769D01*
X132486666Y-54750090D01*
X132464139Y-54777539D01*
X132436690Y-54800066D01*
X132405369Y-54816807D01*
X132371391Y-54827115D01*
X132329910Y-54831200D01*
X131728690Y-54831200D01*
X131687209Y-54827115D01*
X131653231Y-54816807D01*
X131621910Y-54800066D01*
X131594461Y-54777539D01*
X131571934Y-54750090D01*
X131555193Y-54718769D01*
X131544885Y-54684791D01*
X131540800Y-54643310D01*
X131540800Y-53967090D01*
X131544885Y-53925609D01*
X131555193Y-53891631D01*
X131571934Y-53860310D01*
X131594461Y-53832861D01*
X131621910Y-53810334D01*
X131653231Y-53793593D01*
X131687209Y-53783285D01*
X131728690Y-53779200D01*
X132329910Y-53779200D01*
X132371391Y-53783285D01*
X132371391Y-53783285D01*
G37*
G36*
X169645191Y-53820685D02*
G01*
X169679169Y-53830993D01*
X169710490Y-53847734D01*
X169737939Y-53870261D01*
X169760466Y-53897710D01*
X169777207Y-53929031D01*
X169787515Y-53963009D01*
X169791600Y-54004490D01*
X169791600Y-54605710D01*
X169787515Y-54647191D01*
X169777207Y-54681169D01*
X169760466Y-54712490D01*
X169737939Y-54739939D01*
X169710490Y-54762466D01*
X169679169Y-54779207D01*
X169645191Y-54789515D01*
X169603710Y-54793600D01*
X168927490Y-54793600D01*
X168886009Y-54789515D01*
X168852031Y-54779207D01*
X168820710Y-54762466D01*
X168793261Y-54739939D01*
X168770734Y-54712490D01*
X168753993Y-54681169D01*
X168743685Y-54647191D01*
X168739600Y-54605710D01*
X168739600Y-54004490D01*
X168743685Y-53963009D01*
X168753993Y-53929031D01*
X168770734Y-53897710D01*
X168793261Y-53870261D01*
X168820710Y-53847734D01*
X168852031Y-53830993D01*
X168886009Y-53820685D01*
X168927490Y-53816600D01*
X169603710Y-53816600D01*
X169645191Y-53820685D01*
X169645191Y-53820685D01*
G37*
M02*
