M48
; DRILL file {KiCad (5.1.0)-1} date 01/06/2019 10:12:07
; FORMAT={-:-/ absolute / inch / decimal}
; #@! TF.CreationDate,2019-06-01T10:12:07+02:00
; #@! TF.GenerationSoftware,Kicad,Pcbnew,(5.1.0)-1
FMAT,2
INCH
T1C0.0150
T2C0.0236
T3C0.0315
T4C0.0335
T5C0.0394
T6C0.0400
T7C0.0866
T8C0.0900
T9C0.1181
%
G90
G05
T1
X5.171Y-3.1403
X5.189Y-4.622
X5.19Y-2.935
X5.199Y-2.83
X5.238Y-3.512
X5.24Y-4.224
X5.254Y-4.707
X5.343Y-3.14
X5.407Y-2.985
X5.409Y-4.458
X5.438Y-4.6168
X5.475Y-4.866
X5.497Y-2.913
X5.514Y-4.8
X5.547Y-4.999
X5.562Y-2.759
X5.573Y-2.663
X5.667Y-2.952
X5.678Y-4.685
X5.684Y-2.692
X5.685Y-4.827
X5.71Y-2.585
X5.721Y-2.724
X5.767Y-5.094
X5.786Y-4.101
X5.799Y-4.827
X5.85Y-2.83
X5.853Y-4.539
X5.865Y-2.549
X5.866Y-2.949
X5.875Y-2.698
X5.888Y-3.793
X6.036Y-2.397
X6.048Y-3.752
X6.054Y-4.629
X6.084Y-2.356
X6.086Y-3.971
X6.111Y-2.763
X6.113Y-3.374
X6.132Y-2.549
X6.147Y-2.807
X6.176Y-2.698
X6.1854Y-3.6384
X6.214Y-2.749
X6.217Y-4.068
X6.243Y-3.424
X6.258Y-2.666
X6.261Y-3.793
X6.265Y-3.474
X6.295Y-3.524
X6.349Y-3.752
X6.374Y-3.651
X6.444Y-4.011
X6.465Y-3.275
X6.471Y-3.424
X6.515Y-3.652
X6.518Y-2.693
X6.533Y-2.94
X6.602Y-2.727
X6.615Y-2.138
X6.664Y-2.479
X6.664Y-2.642
X6.7398Y-2.4192
X6.758Y-3.424
X6.9037Y-2.2657
X6.904Y-2.368
X6.916Y-2.471
X6.955Y-2.995
X6.986Y-2.827
X6.998Y-3.752
X7.0143Y-2.5983
X7.018Y-2.538
X7.02Y-2.471
T3
X6.291Y-5.271
X6.291Y-5.371
X6.291Y-5.471
X5.1979Y-2.307
X5.39Y-2.307
X6.298Y-4.689
X6.398Y-4.689
X6.498Y-4.689
X6.714Y-4.488
X6.714Y-4.588
X6.714Y-4.688
X6.714Y-4.788
X6.714Y-4.888
X6.714Y-4.988
X6.714Y-5.088
X6.714Y-5.188
X7.014Y-4.488
X7.014Y-4.588
X7.014Y-4.688
X7.014Y-4.788
X7.014Y-4.888
X7.014Y-4.988
X7.014Y-5.088
X7.014Y-5.188
X6.516Y-5.271
X6.516Y-5.371
X6.516Y-5.471
T4
X5.9846Y-2.2566
X6.1814Y-2.2566
T5
X5.001Y-2.923
X5.101Y-2.923
X5.705Y-5.606
X5.805Y-5.606
X5.905Y-5.606
X5.001Y-2.623
X5.101Y-2.623
X6.558Y-4.189
X6.658Y-4.189
X6.758Y-4.189
X6.858Y-4.189
X6.958Y-4.189
X7.058Y-4.189
X5.605Y-3.183
X5.705Y-3.183
X6.56Y-3.929
X6.66Y-3.929
X6.76Y-3.929
X6.86Y-3.929
X6.96Y-3.929
X7.06Y-3.929
X5.605Y-3.083
X5.705Y-3.083
X5.001Y-2.823
X5.101Y-2.823
X5.001Y-3.023
X5.101Y-3.023
X5.201Y-3.023
X5.301Y-3.023
X5.001Y-2.523
X5.101Y-2.523
X5.001Y-2.723
X5.101Y-2.723
X6.319Y-2.724
X6.319Y-2.824
X6.319Y-2.924
X6.419Y-2.724
X6.419Y-2.824
X6.419Y-2.924
T6
X5.067Y-5.215
X5.167Y-5.215
X5.267Y-5.215
X5.367Y-5.215
X5.467Y-5.215
X5.567Y-5.215
X5.667Y-5.215
X5.767Y-5.215
X5.867Y-5.215
X5.038Y-3.833
X5.138Y-3.833
X5.238Y-3.833
X5.338Y-3.833
X5.438Y-3.833
X5.538Y-3.833
X5.638Y-3.833
X5.738Y-3.833
T7
X4.959Y-5.656
X4.959Y-2.151
X7.119Y-2.151
X7.119Y-5.656
T8
X5.067Y-4.055
X5.867Y-4.055
T9
X5.073Y-3.363
X5.703Y-3.363
T2
G00X5.9452Y-2.1641
M15
G01X5.9452Y-2.1365
M16
G05
G00X6.2208Y-2.1365
M15
G01X6.2208Y-2.1641
M16
G05
T0
M30
