G04 #@! TF.GenerationSoftware,KiCad,Pcbnew,(5.1.0)-1*
G04 #@! TF.CreationDate,2019-06-01T09:59:27+02:00*
G04 #@! TF.ProjectId,Main_board,4d61696e-5f62-46f6-9172-642e6b696361,V0-2*
G04 #@! TF.SameCoordinates,Original*
G04 #@! TF.FileFunction,Legend,Top*
G04 #@! TF.FilePolarity,Positive*
%FSLAX46Y46*%
G04 Gerber Fmt 4.6, Leading zero omitted, Abs format (unit mm)*
G04 Created by KiCad (PCBNEW (5.1.0)-1) date 2019-06-01 09:59:27*
%MOMM*%
%LPD*%
G04 APERTURE LIST*
%ADD10C,0.050800*%
G04 APERTURE END LIST*
D10*
X128244554Y-140973628D02*
X128435054Y-139449628D01*
X128806983Y-140538200D01*
X129451054Y-139449628D01*
X129260554Y-140973628D01*
X130639411Y-140973628D02*
X130739197Y-140175342D01*
X130684768Y-140030200D01*
X130548697Y-139957628D01*
X130258411Y-139957628D01*
X130104197Y-140030200D01*
X130648483Y-140901057D02*
X130494268Y-140973628D01*
X130131411Y-140973628D01*
X129995340Y-140901057D01*
X129940911Y-140755914D01*
X129959054Y-140610771D01*
X130049768Y-140465628D01*
X130203983Y-140393057D01*
X130566840Y-140393057D01*
X130721054Y-140320485D01*
X131365126Y-140973628D02*
X131492126Y-139957628D01*
X131555626Y-139449628D02*
X131473983Y-139522200D01*
X131537483Y-139594771D01*
X131619126Y-139522200D01*
X131555626Y-139449628D01*
X131537483Y-139594771D01*
X132217840Y-139957628D02*
X132090840Y-140973628D01*
X132199697Y-140102771D02*
X132281340Y-140030200D01*
X132435554Y-139957628D01*
X132653268Y-139957628D01*
X132789340Y-140030200D01*
X132843768Y-140175342D01*
X132743983Y-140973628D01*
X134630840Y-140973628D02*
X134821340Y-139449628D01*
X134748768Y-140030200D02*
X134902983Y-139957628D01*
X135193268Y-139957628D01*
X135329340Y-140030200D01*
X135392840Y-140102771D01*
X135447268Y-140247914D01*
X135392840Y-140683342D01*
X135302126Y-140828485D01*
X135220483Y-140901057D01*
X135066268Y-140973628D01*
X134775983Y-140973628D01*
X134639911Y-140901057D01*
X136227411Y-140973628D02*
X136091340Y-140901057D01*
X136027840Y-140828485D01*
X135973411Y-140683342D01*
X136027840Y-140247914D01*
X136118554Y-140102771D01*
X136200197Y-140030200D01*
X136354411Y-139957628D01*
X136572126Y-139957628D01*
X136708197Y-140030200D01*
X136771697Y-140102771D01*
X136826126Y-140247914D01*
X136771697Y-140683342D01*
X136680983Y-140828485D01*
X136599340Y-140901057D01*
X136445126Y-140973628D01*
X136227411Y-140973628D01*
X138041697Y-140973628D02*
X138141483Y-140175342D01*
X138087054Y-140030200D01*
X137950983Y-139957628D01*
X137660697Y-139957628D01*
X137506483Y-140030200D01*
X138050768Y-140901057D02*
X137896554Y-140973628D01*
X137533697Y-140973628D01*
X137397626Y-140901057D01*
X137343197Y-140755914D01*
X137361340Y-140610771D01*
X137452054Y-140465628D01*
X137606268Y-140393057D01*
X137969126Y-140393057D01*
X138123340Y-140320485D01*
X138767411Y-140973628D02*
X138894411Y-139957628D01*
X138858126Y-140247914D02*
X138948840Y-140102771D01*
X139030483Y-140030200D01*
X139184697Y-139957628D01*
X139329840Y-139957628D01*
X140363983Y-140973628D02*
X140554483Y-139449628D01*
X140373054Y-140901057D02*
X140218840Y-140973628D01*
X139928554Y-140973628D01*
X139792483Y-140901057D01*
X139728983Y-140828485D01*
X139674554Y-140683342D01*
X139728983Y-140247914D01*
X139819697Y-140102771D01*
X139901340Y-140030200D01*
X140055554Y-139957628D01*
X140345840Y-139957628D01*
X140481911Y-140030200D01*
X128465897Y-138099800D02*
X129191611Y-138099800D01*
X128266326Y-138535228D02*
X128964826Y-137011228D01*
X129282326Y-138535228D01*
X129890111Y-137736942D02*
X130398111Y-137736942D01*
X130516040Y-138535228D02*
X129790326Y-138535228D01*
X129980826Y-137011228D01*
X130706540Y-137011228D01*
X132040040Y-138535228D02*
X131622754Y-137809514D01*
X131169183Y-138535228D02*
X131359683Y-137011228D01*
X131940254Y-137011228D01*
X132076326Y-137083800D01*
X132139826Y-137156371D01*
X132194254Y-137301514D01*
X132167040Y-137519228D01*
X132076326Y-137664371D01*
X131994683Y-137736942D01*
X131840468Y-137809514D01*
X131259897Y-137809514D01*
X132693183Y-138535228D02*
X132883683Y-137011228D01*
X133355397Y-138462657D02*
X133564040Y-138535228D01*
X133926897Y-138535228D01*
X134081111Y-138462657D01*
X134162754Y-138390085D01*
X134253468Y-138244942D01*
X134271611Y-138099800D01*
X134217183Y-137954657D01*
X134153683Y-137882085D01*
X134017611Y-137809514D01*
X133736397Y-137736942D01*
X133600326Y-137664371D01*
X133536826Y-137591800D01*
X133482397Y-137446657D01*
X133500540Y-137301514D01*
X133591254Y-137156371D01*
X133672897Y-137083800D01*
X133827111Y-137011228D01*
X134189968Y-137011228D01*
X134398611Y-137083800D01*
X136031468Y-138535228D02*
X136221968Y-137011228D01*
X136757183Y-138535228D02*
X136947683Y-137011228D01*
X137482897Y-138535228D02*
X137673397Y-137011228D01*
X147523200Y-99136200D02*
X146761200Y-99136200D01*
X147523200Y-98374200D02*
X147523200Y-99136200D01*
X147523200Y-82880200D02*
X146761200Y-82880200D01*
X147523200Y-83642200D02*
X147523200Y-82880200D01*
X126187200Y-82880200D02*
X126187200Y-83642200D01*
X126949200Y-82880200D02*
X126187200Y-82880200D01*
X126187200Y-99136200D02*
X126949200Y-99136200D01*
X126187200Y-98374200D02*
X126187200Y-99136200D01*
X134376379Y-73734200D02*
X134050821Y-73734200D01*
X134376379Y-74754200D02*
X134050821Y-74754200D01*
X134376379Y-71194200D02*
X134050821Y-71194200D01*
X134376379Y-72214200D02*
X134050821Y-72214200D01*
X166291800Y-124754421D02*
X166291800Y-125079979D01*
X167311800Y-124754421D02*
X167311800Y-125079979D01*
X161779200Y-123742000D02*
X161279200Y-123742000D01*
X161529200Y-123492000D02*
X161529200Y-123992000D01*
X158773637Y-124232000D02*
X157709200Y-125296437D01*
X161164763Y-124232000D02*
X162229200Y-125296437D01*
X161164763Y-124232000D02*
X161029200Y-124232000D01*
X158773637Y-124232000D02*
X158909200Y-124232000D01*
X157709200Y-125296437D02*
X157709200Y-128752000D01*
X162229200Y-125296437D02*
X162229200Y-128752000D01*
X162229200Y-128752000D02*
X161029200Y-128752000D01*
X157709200Y-128752000D02*
X158909200Y-128752000D01*
X180603200Y-105070600D02*
X180603200Y-106400600D01*
X179273200Y-105070600D02*
X180603200Y-105070600D01*
X178003200Y-105070600D02*
X178003200Y-107730600D01*
X178003200Y-107730600D02*
X165243200Y-107730600D01*
X178003200Y-105070600D02*
X165243200Y-105070600D01*
X165243200Y-105070600D02*
X165243200Y-107730600D01*
X130895400Y-70374200D02*
X130895400Y-71704200D01*
X129565400Y-70374200D02*
X130895400Y-70374200D01*
X128295400Y-70374200D02*
X128295400Y-73034200D01*
X128295400Y-73034200D02*
X125695400Y-73034200D01*
X128295400Y-70374200D02*
X125695400Y-70374200D01*
X125695400Y-70374200D02*
X125695400Y-73034200D01*
X125695400Y-72914200D02*
X125695400Y-75574200D01*
X128295400Y-72914200D02*
X125695400Y-72914200D01*
X128295400Y-75574200D02*
X125695400Y-75574200D01*
X128295400Y-72914200D02*
X128295400Y-75574200D01*
X129565400Y-72914200D02*
X130895400Y-72914200D01*
X130895400Y-72914200D02*
X130895400Y-74244200D01*
X162761200Y-61686121D02*
X162761200Y-62011679D01*
X163781200Y-61686121D02*
X163781200Y-62011679D01*
X165277200Y-53772400D02*
X164077200Y-53772400D01*
X160757200Y-53772400D02*
X161957200Y-53772400D01*
X160757200Y-57227963D02*
X160757200Y-53772400D01*
X165277200Y-57227963D02*
X165277200Y-53772400D01*
X164212763Y-58292400D02*
X164077200Y-58292400D01*
X161821637Y-58292400D02*
X161957200Y-58292400D01*
X161821637Y-58292400D02*
X160757200Y-57227963D01*
X164212763Y-58292400D02*
X165277200Y-57227963D01*
X161457200Y-59032400D02*
X161457200Y-58532400D01*
X161207200Y-58782400D02*
X161707200Y-58782400D01*
X145205200Y-59773000D02*
X145705200Y-59773000D01*
X145455200Y-60023000D02*
X145455200Y-59523000D01*
X148210763Y-59283000D02*
X149275200Y-58218563D01*
X145819637Y-59283000D02*
X144755200Y-58218563D01*
X145819637Y-59283000D02*
X145955200Y-59283000D01*
X148210763Y-59283000D02*
X148075200Y-59283000D01*
X149275200Y-58218563D02*
X149275200Y-54763000D01*
X144755200Y-58218563D02*
X144755200Y-54763000D01*
X144755200Y-54763000D02*
X145955200Y-54763000D01*
X149275200Y-54763000D02*
X148075200Y-54763000D01*
X143647379Y-61190600D02*
X143321821Y-61190600D01*
X143647379Y-60170600D02*
X143321821Y-60170600D01*
X158790421Y-113866200D02*
X159115979Y-113866200D01*
X158790421Y-114886200D02*
X159115979Y-114886200D01*
X168755600Y-55255379D02*
X168755600Y-54929821D01*
X169775600Y-55255379D02*
X169775600Y-54929821D01*
X180058600Y-71414421D02*
X180058600Y-71739979D01*
X181078600Y-71414421D02*
X181078600Y-71739979D01*
X176155600Y-135756200D02*
X175655600Y-135756200D01*
X175905600Y-135506200D02*
X175905600Y-136006200D01*
X173150037Y-136246200D02*
X172085600Y-137310637D01*
X175541163Y-136246200D02*
X176605600Y-137310637D01*
X175541163Y-136246200D02*
X175405600Y-136246200D01*
X173150037Y-136246200D02*
X173285600Y-136246200D01*
X172085600Y-137310637D02*
X172085600Y-140766200D01*
X176605600Y-137310637D02*
X176605600Y-140766200D01*
X176605600Y-140766200D02*
X175405600Y-140766200D01*
X172085600Y-140766200D02*
X173285600Y-140766200D01*
X131079021Y-53795200D02*
X131404579Y-53795200D01*
X131079021Y-54815200D02*
X131404579Y-54815200D01*
X137881579Y-53795200D02*
X137556021Y-53795200D01*
X137881579Y-54815200D02*
X137556021Y-54815200D01*
X165700200Y-62909000D02*
X167700200Y-62909000D01*
X167700200Y-62909000D02*
X167700200Y-59059000D01*
X165700200Y-62909000D02*
X165700200Y-59059000D01*
X168635800Y-72507600D02*
X168635800Y-75192600D01*
X168635800Y-75192600D02*
X170555800Y-75192600D01*
X170555800Y-75192600D02*
X170555800Y-72507600D01*
X171683800Y-72507600D02*
X171683800Y-75192600D01*
X171683800Y-75192600D02*
X173603800Y-75192600D01*
X173603800Y-75192600D02*
X173603800Y-72507600D01*
X176651800Y-75192600D02*
X176651800Y-72507600D01*
X174731800Y-75192600D02*
X176651800Y-75192600D01*
X174731800Y-72507600D02*
X174731800Y-75192600D01*
X159577452Y-63432000D02*
X156804948Y-63432000D01*
X159577452Y-60012000D02*
X156804948Y-60012000D01*
X151561800Y-99949000D02*
X151561800Y-100711000D01*
X150799800Y-99949000D02*
X151561800Y-99949000D01*
X126161800Y-99949000D02*
X126161800Y-100711000D01*
X126923800Y-99949000D02*
X126161800Y-99949000D01*
X126161800Y-135001000D02*
X126923800Y-135001000D01*
X126161800Y-134239000D02*
X126161800Y-135001000D01*
X151561800Y-135001000D02*
X151561800Y-134239000D01*
X150799800Y-135001000D02*
X151561800Y-135001000D01*
X159172600Y-75599600D02*
X164372600Y-75599600D01*
X159172600Y-70459600D02*
X159172600Y-75599600D01*
X164372600Y-67859600D02*
X164372600Y-75599600D01*
X159172600Y-70459600D02*
X161772600Y-70459600D01*
X161772600Y-70459600D02*
X161772600Y-67859600D01*
X161772600Y-67859600D02*
X164372600Y-67859600D01*
X159172600Y-69189600D02*
X159172600Y-67859600D01*
X159172600Y-67859600D02*
X160502600Y-67859600D01*
X158408200Y-57617100D02*
X157958200Y-57617100D01*
X158408200Y-55767100D02*
X158408200Y-57617100D01*
X150608200Y-53217100D02*
X150608200Y-53467100D01*
X158408200Y-53217100D02*
X158408200Y-53467100D01*
X150608200Y-55767100D02*
X150608200Y-57617100D01*
X150608200Y-57617100D02*
X151058200Y-57617100D01*
X156208200Y-58167100D02*
X155758200Y-58167100D01*
X156208200Y-58167100D02*
X156208200Y-57717100D01*
X130895400Y-62754200D02*
X130895400Y-64084200D01*
X129565400Y-62754200D02*
X130895400Y-62754200D01*
X128295400Y-62754200D02*
X128295400Y-65414200D01*
X128295400Y-65414200D02*
X125695400Y-65414200D01*
X128295400Y-62754200D02*
X125695400Y-62754200D01*
X125695400Y-62754200D02*
X125695400Y-65414200D01*
X125695400Y-65294200D02*
X125695400Y-67954200D01*
X128295400Y-65294200D02*
X125695400Y-65294200D01*
X128295400Y-67954200D02*
X125695400Y-67954200D01*
X128295400Y-65294200D02*
X128295400Y-67954200D01*
X129565400Y-65294200D02*
X130895400Y-65294200D01*
X130895400Y-65294200D02*
X130895400Y-66624200D01*
X125695400Y-67834200D02*
X125695400Y-70494200D01*
X128295400Y-67834200D02*
X125695400Y-67834200D01*
X128295400Y-70494200D02*
X125695400Y-70494200D01*
X128295400Y-67834200D02*
X128295400Y-70494200D01*
X129565400Y-67834200D02*
X130895400Y-67834200D01*
X130895400Y-67834200D02*
X130895400Y-69164200D01*
X141037000Y-76978200D02*
X141037000Y-79638200D01*
X143637000Y-76978200D02*
X141037000Y-76978200D01*
X143637000Y-79638200D02*
X141037000Y-79638200D01*
X143637000Y-76978200D02*
X143637000Y-79638200D01*
X144907000Y-76978200D02*
X146237000Y-76978200D01*
X146237000Y-76978200D02*
X146237000Y-78308200D01*
X159457800Y-105914000D02*
X160557800Y-105914000D01*
X159457800Y-105644000D02*
X159457800Y-105914000D01*
X157957800Y-105644000D02*
X159457800Y-105644000D01*
X159457800Y-112274000D02*
X162287800Y-112274000D01*
X159457800Y-112544000D02*
X159457800Y-112274000D01*
X157957800Y-112544000D02*
X159457800Y-112544000D01*
X139250401Y-104032801D02*
X137750401Y-104032801D01*
X137750401Y-104032801D02*
X137750401Y-104302801D01*
X137750401Y-104302801D02*
X134920401Y-104302801D01*
X139250401Y-110932801D02*
X137750401Y-110932801D01*
X137750401Y-110932801D02*
X137750401Y-110662801D01*
X137750401Y-110662801D02*
X136650401Y-110662801D01*
X170105800Y-69636421D02*
X170105800Y-69961979D01*
X169085800Y-69636421D02*
X169085800Y-69961979D01*
X156008800Y-118501379D02*
X156008800Y-118175821D01*
X154988800Y-118501379D02*
X154988800Y-118175821D01*
X154963400Y-122336779D02*
X154963400Y-122011221D01*
X155983400Y-122336779D02*
X155983400Y-122011221D01*
X180896800Y-119725221D02*
X180896800Y-120050779D01*
X181916800Y-119725221D02*
X181916800Y-120050779D01*
X172133800Y-69961979D02*
X172133800Y-69636421D01*
X173153800Y-69961979D02*
X173153800Y-69636421D01*
X175181800Y-69961979D02*
X175181800Y-69636421D01*
X176201800Y-69961979D02*
X176201800Y-69636421D01*
X160170400Y-143169421D02*
X160170400Y-143494979D01*
X161190400Y-143169421D02*
X161190400Y-143494979D01*
X164183600Y-143494979D02*
X164183600Y-143169421D01*
X165203600Y-143494979D02*
X165203600Y-143169421D01*
X134635021Y-93575600D02*
X134960579Y-93575600D01*
X134635021Y-92555600D02*
X134960579Y-92555600D01*
X132120421Y-94333600D02*
X132445979Y-94333600D01*
X132120421Y-95353600D02*
X132445979Y-95353600D01*
X134050821Y-64594200D02*
X134376379Y-64594200D01*
X134050821Y-63574200D02*
X134376379Y-63574200D01*
X134050821Y-67134200D02*
X134376379Y-67134200D01*
X134050821Y-66114200D02*
X134376379Y-66114200D01*
X164971000Y-85074979D02*
X164971000Y-84749421D01*
X165991000Y-85074979D02*
X165991000Y-84749421D01*
X134050821Y-68654200D02*
X134376379Y-68654200D01*
X134050821Y-69674200D02*
X134376379Y-69674200D01*
X157749021Y-80516000D02*
X158074579Y-80516000D01*
X157749021Y-81536000D02*
X158074579Y-81536000D01*
X132941600Y-122239821D02*
X132941600Y-122565379D01*
X133961600Y-122239821D02*
X133961600Y-122565379D01*
X147474400Y-106542721D02*
X147474400Y-106868279D01*
X146454400Y-106542721D02*
X146454400Y-106868279D01*
X145171379Y-123950000D02*
X144845821Y-123950000D01*
X145171379Y-124970000D02*
X144845821Y-124970000D01*
X145171379Y-120140000D02*
X144845821Y-120140000D01*
X145171379Y-121160000D02*
X144845821Y-121160000D01*
X157624200Y-116570600D02*
X167394200Y-116570600D01*
X157624200Y-121640600D02*
X167394200Y-121640600D01*
X157624200Y-116570600D02*
X157624200Y-121640600D01*
X167394200Y-116570600D02*
X167394200Y-121640600D01*
X162976400Y-141308400D02*
X162976400Y-131538400D01*
X168046400Y-141308400D02*
X168046400Y-131538400D01*
X162976400Y-141308400D02*
X168046400Y-141308400D01*
X162976400Y-131538400D02*
X168046400Y-131538400D01*
X157261400Y-131538400D02*
X162331400Y-131538400D01*
X157261400Y-141308400D02*
X162331400Y-141308400D01*
X162331400Y-141308400D02*
X162331400Y-131538400D01*
X157261400Y-141308400D02*
X157261400Y-131538400D01*
X125695400Y-75454200D02*
X125695400Y-78114200D01*
X133375400Y-75454200D02*
X125695400Y-75454200D01*
X133375400Y-78114200D02*
X125695400Y-78114200D01*
X133375400Y-75454200D02*
X133375400Y-78114200D01*
X134645400Y-75454200D02*
X135975400Y-75454200D01*
X135975400Y-75454200D02*
X135975400Y-76784200D01*
X146237000Y-79518200D02*
X146237000Y-80848200D01*
X144907000Y-79518200D02*
X146237000Y-79518200D01*
X143637000Y-79518200D02*
X143637000Y-82178200D01*
X143637000Y-82178200D02*
X141037000Y-82178200D01*
X143637000Y-79518200D02*
X141037000Y-79518200D01*
X141037000Y-79518200D02*
X141037000Y-82178200D01*
X151317000Y-143722400D02*
X151317000Y-141062400D01*
X146177000Y-143722400D02*
X151317000Y-143722400D01*
X146177000Y-141062400D02*
X151317000Y-141062400D01*
X146177000Y-143722400D02*
X146177000Y-141062400D01*
X144907000Y-143722400D02*
X143577000Y-143722400D01*
X143577000Y-143722400D02*
X143577000Y-142392400D01*
X165294000Y-98466600D02*
X165294000Y-101126600D01*
X178054000Y-98466600D02*
X165294000Y-98466600D01*
X178054000Y-101126600D02*
X165294000Y-101126600D01*
X178054000Y-98466600D02*
X178054000Y-101126600D01*
X179324000Y-98466600D02*
X180654000Y-98466600D01*
X180654000Y-98466600D02*
X180654000Y-99796600D01*
X146720400Y-64364400D02*
X146495400Y-64364400D01*
X146720400Y-71614400D02*
X146395400Y-71614400D01*
X139470400Y-71614400D02*
X139795400Y-71614400D01*
X139470400Y-64364400D02*
X139795400Y-64364400D01*
X146720400Y-64364400D02*
X146720400Y-64689400D01*
X139470400Y-64364400D02*
X139470400Y-64689400D01*
X139470400Y-71614400D02*
X139470400Y-71289400D01*
X146720400Y-71614400D02*
X146720400Y-71289400D01*
X146495400Y-64364400D02*
X146495400Y-62939400D01*
X173705800Y-56447800D02*
X173705800Y-57022800D01*
X179455800Y-56447800D02*
X179455800Y-57097800D01*
X179455800Y-67097800D02*
X179455800Y-66447800D01*
X173705800Y-67097800D02*
X173705800Y-66447800D01*
X173705800Y-56447800D02*
X179455800Y-56447800D01*
X173705800Y-67097800D02*
X179455800Y-67097800D01*
X173705800Y-57022800D02*
X172105800Y-57022800D01*
X175345600Y-112665200D02*
G75*
G02X173345600Y-112665200I-1000000J0D01*
G01*
X173345600Y-112665200D02*
X171695600Y-112665200D01*
X171695600Y-112665200D02*
X171695600Y-133105200D01*
X171695600Y-133105200D02*
X176995600Y-133105200D01*
X176995600Y-133105200D02*
X176995600Y-112665200D01*
X176995600Y-112665200D02*
X175345600Y-112665200D01*
X161884200Y-91394600D02*
X163259200Y-91394600D01*
X161884200Y-82519600D02*
X157734200Y-82519600D01*
X161884200Y-91419600D02*
X157734200Y-91419600D01*
X161884200Y-82519600D02*
X161884200Y-82634600D01*
X157734200Y-82519600D02*
X157734200Y-82634600D01*
X157734200Y-91419600D02*
X157734200Y-91304600D01*
X161884200Y-91419600D02*
X161884200Y-91394600D01*
X170496000Y-80730200D02*
X170496000Y-81005200D01*
X178246000Y-80730200D02*
X178246000Y-81085200D01*
X178246000Y-91380200D02*
X178246000Y-91025200D01*
X170496000Y-91380200D02*
X170496000Y-91025200D01*
X170496000Y-80730200D02*
X178246000Y-80730200D01*
X170496000Y-91380200D02*
X178246000Y-91380200D01*
X170496000Y-81005200D02*
X168971000Y-81005200D01*
X137193200Y-116200000D02*
X137193200Y-116225000D01*
X141343200Y-116200000D02*
X141343200Y-116315000D01*
X141343200Y-125100000D02*
X141343200Y-124985000D01*
X137193200Y-125100000D02*
X137193200Y-124985000D01*
X137193200Y-116200000D02*
X141343200Y-116200000D01*
X137193200Y-125100000D02*
X141343200Y-125100000D01*
X137193200Y-116225000D02*
X135818200Y-116225000D01*
X137666000Y-61122800D02*
X131266000Y-61122800D01*
X137666000Y-56072800D02*
X131266000Y-56072800D01*
X137666000Y-56072800D02*
G75*
G02X137666000Y-61122800I0J-2525000D01*
G01*
X131266000Y-56072800D02*
G75*
G03X131266000Y-61122800I0J-2525000D01*
G01*
X137072914Y-99816557D02*
X137072914Y-99435557D01*
X137254342Y-99816557D02*
X137254342Y-99435557D01*
X137381342Y-99707700D01*
X137508342Y-99435557D01*
X137508342Y-99816557D01*
X137689771Y-99435557D02*
X137689771Y-99743985D01*
X137707914Y-99780271D01*
X137726057Y-99798414D01*
X137762342Y-99816557D01*
X137834914Y-99816557D01*
X137871200Y-99798414D01*
X137889342Y-99780271D01*
X137907485Y-99743985D01*
X137907485Y-99435557D01*
X133968671Y-73313471D02*
X133950528Y-73331614D01*
X133896100Y-73349757D01*
X133859814Y-73349757D01*
X133805385Y-73331614D01*
X133769100Y-73295328D01*
X133750957Y-73259042D01*
X133732814Y-73186471D01*
X133732814Y-73132042D01*
X133750957Y-73059471D01*
X133769100Y-73023185D01*
X133805385Y-72986900D01*
X133859814Y-72968757D01*
X133896100Y-72968757D01*
X133950528Y-72986900D01*
X133968671Y-73005042D01*
X134331528Y-73349757D02*
X134113814Y-73349757D01*
X134222671Y-73349757D02*
X134222671Y-72968757D01*
X134186385Y-73023185D01*
X134150100Y-73059471D01*
X134113814Y-73077614D01*
X134476671Y-73005042D02*
X134494814Y-72986900D01*
X134531100Y-72968757D01*
X134621814Y-72968757D01*
X134658100Y-72986900D01*
X134676242Y-73005042D01*
X134694385Y-73041328D01*
X134694385Y-73077614D01*
X134676242Y-73132042D01*
X134458528Y-73349757D01*
X134694385Y-73349757D01*
X133968671Y-70773471D02*
X133950528Y-70791614D01*
X133896100Y-70809757D01*
X133859814Y-70809757D01*
X133805385Y-70791614D01*
X133769100Y-70755328D01*
X133750957Y-70719042D01*
X133732814Y-70646471D01*
X133732814Y-70592042D01*
X133750957Y-70519471D01*
X133769100Y-70483185D01*
X133805385Y-70446900D01*
X133859814Y-70428757D01*
X133896100Y-70428757D01*
X133950528Y-70446900D01*
X133968671Y-70465042D01*
X134331528Y-70809757D02*
X134113814Y-70809757D01*
X134222671Y-70809757D02*
X134222671Y-70428757D01*
X134186385Y-70483185D01*
X134150100Y-70519471D01*
X134113814Y-70537614D01*
X134694385Y-70809757D02*
X134476671Y-70809757D01*
X134585528Y-70809757D02*
X134585528Y-70428757D01*
X134549242Y-70483185D01*
X134512957Y-70519471D01*
X134476671Y-70537614D01*
X168367871Y-124980700D02*
X168386014Y-124998842D01*
X168404157Y-125053271D01*
X168404157Y-125089557D01*
X168386014Y-125143985D01*
X168349728Y-125180271D01*
X168313442Y-125198414D01*
X168240871Y-125216557D01*
X168186442Y-125216557D01*
X168113871Y-125198414D01*
X168077585Y-125180271D01*
X168041300Y-125143985D01*
X168023157Y-125089557D01*
X168023157Y-125053271D01*
X168041300Y-124998842D01*
X168059442Y-124980700D01*
X168404157Y-124799271D02*
X168404157Y-124726700D01*
X168386014Y-124690414D01*
X168367871Y-124672271D01*
X168313442Y-124635985D01*
X168240871Y-124617842D01*
X168095728Y-124617842D01*
X168059442Y-124635985D01*
X168041300Y-124654128D01*
X168023157Y-124690414D01*
X168023157Y-124762985D01*
X168041300Y-124799271D01*
X168059442Y-124817414D01*
X168095728Y-124835557D01*
X168186442Y-124835557D01*
X168222728Y-124817414D01*
X168240871Y-124799271D01*
X168259014Y-124762985D01*
X168259014Y-124690414D01*
X168240871Y-124654128D01*
X168222728Y-124635985D01*
X168186442Y-124617842D01*
X163305271Y-126555500D02*
X163323414Y-126573642D01*
X163341557Y-126628071D01*
X163341557Y-126664357D01*
X163323414Y-126718785D01*
X163287128Y-126755071D01*
X163250842Y-126773214D01*
X163178271Y-126791357D01*
X163123842Y-126791357D01*
X163051271Y-126773214D01*
X163014985Y-126755071D01*
X162978700Y-126718785D01*
X162960557Y-126664357D01*
X162960557Y-126628071D01*
X162978700Y-126573642D01*
X162996842Y-126555500D01*
X162960557Y-126228928D02*
X162960557Y-126301500D01*
X162978700Y-126337785D01*
X162996842Y-126355928D01*
X163051271Y-126392214D01*
X163123842Y-126410357D01*
X163268985Y-126410357D01*
X163305271Y-126392214D01*
X163323414Y-126374071D01*
X163341557Y-126337785D01*
X163341557Y-126265214D01*
X163323414Y-126228928D01*
X163305271Y-126210785D01*
X163268985Y-126192642D01*
X163178271Y-126192642D01*
X163141985Y-126210785D01*
X163123842Y-126228928D01*
X163105700Y-126265214D01*
X163105700Y-126337785D01*
X163123842Y-126374071D01*
X163141985Y-126392214D01*
X163178271Y-126410357D01*
X181666700Y-106953957D02*
X181666700Y-106772528D01*
X181775557Y-106990242D02*
X181394557Y-106863242D01*
X181775557Y-106736242D01*
X181775557Y-106427814D02*
X181775557Y-106609242D01*
X181394557Y-106609242D01*
X181775557Y-106300814D02*
X181394557Y-106300814D01*
X181775557Y-106119385D02*
X181394557Y-106119385D01*
X181666700Y-105992385D01*
X181394557Y-105865385D01*
X181775557Y-105865385D01*
X125325414Y-71205271D02*
X125307271Y-71259700D01*
X125289128Y-71277842D01*
X125252842Y-71295985D01*
X125198414Y-71295985D01*
X125162128Y-71277842D01*
X125143985Y-71259700D01*
X125125842Y-71223414D01*
X125125842Y-71078271D01*
X125506842Y-71078271D01*
X125506842Y-71205271D01*
X125488700Y-71241557D01*
X125470557Y-71259700D01*
X125434271Y-71277842D01*
X125397985Y-71277842D01*
X125361700Y-71259700D01*
X125343557Y-71241557D01*
X125325414Y-71205271D01*
X125325414Y-71078271D01*
X125506842Y-71404842D02*
X125506842Y-71622557D01*
X125125842Y-71513700D02*
X125506842Y-71513700D01*
X125125842Y-71749557D02*
X125506842Y-71749557D01*
X125125842Y-71967271D01*
X125506842Y-71967271D01*
X125125842Y-72348271D02*
X125125842Y-72130557D01*
X125125842Y-72239414D02*
X125506842Y-72239414D01*
X125452414Y-72203128D01*
X125416128Y-72166842D01*
X125397985Y-72130557D01*
X125300014Y-73745271D02*
X125281871Y-73799700D01*
X125263728Y-73817842D01*
X125227442Y-73835985D01*
X125173014Y-73835985D01*
X125136728Y-73817842D01*
X125118585Y-73799700D01*
X125100442Y-73763414D01*
X125100442Y-73618271D01*
X125481442Y-73618271D01*
X125481442Y-73745271D01*
X125463300Y-73781557D01*
X125445157Y-73799700D01*
X125408871Y-73817842D01*
X125372585Y-73817842D01*
X125336300Y-73799700D01*
X125318157Y-73781557D01*
X125300014Y-73745271D01*
X125300014Y-73618271D01*
X125481442Y-73944842D02*
X125481442Y-74162557D01*
X125100442Y-74053700D02*
X125481442Y-74053700D01*
X125100442Y-74289557D02*
X125481442Y-74289557D01*
X125100442Y-74507271D01*
X125481442Y-74507271D01*
X125445157Y-74670557D02*
X125463300Y-74688700D01*
X125481442Y-74724985D01*
X125481442Y-74815700D01*
X125463300Y-74851985D01*
X125445157Y-74870128D01*
X125408871Y-74888271D01*
X125372585Y-74888271D01*
X125318157Y-74870128D01*
X125100442Y-74652414D01*
X125100442Y-74888271D01*
X164837271Y-61912400D02*
X164855414Y-61930542D01*
X164873557Y-61984971D01*
X164873557Y-62021257D01*
X164855414Y-62075685D01*
X164819128Y-62111971D01*
X164782842Y-62130114D01*
X164710271Y-62148257D01*
X164655842Y-62148257D01*
X164583271Y-62130114D01*
X164546985Y-62111971D01*
X164510700Y-62075685D01*
X164492557Y-62021257D01*
X164492557Y-61984971D01*
X164510700Y-61930542D01*
X164528842Y-61912400D01*
X164873557Y-61549542D02*
X164873557Y-61767257D01*
X164873557Y-61658400D02*
X164492557Y-61658400D01*
X164546985Y-61694685D01*
X164583271Y-61730971D01*
X164601414Y-61767257D01*
X160232271Y-56095900D02*
X160250414Y-56114042D01*
X160268557Y-56168471D01*
X160268557Y-56204757D01*
X160250414Y-56259185D01*
X160214128Y-56295471D01*
X160177842Y-56313614D01*
X160105271Y-56331757D01*
X160050842Y-56331757D01*
X159978271Y-56313614D01*
X159941985Y-56295471D01*
X159905700Y-56259185D01*
X159887557Y-56204757D01*
X159887557Y-56168471D01*
X159905700Y-56114042D01*
X159923842Y-56095900D01*
X159923842Y-55950757D02*
X159905700Y-55932614D01*
X159887557Y-55896328D01*
X159887557Y-55805614D01*
X159905700Y-55769328D01*
X159923842Y-55751185D01*
X159960128Y-55733042D01*
X159996414Y-55733042D01*
X160050842Y-55751185D01*
X160268557Y-55968900D01*
X160268557Y-55733042D01*
X143951271Y-57086500D02*
X143969414Y-57104642D01*
X143987557Y-57159071D01*
X143987557Y-57195357D01*
X143969414Y-57249785D01*
X143933128Y-57286071D01*
X143896842Y-57304214D01*
X143824271Y-57322357D01*
X143769842Y-57322357D01*
X143697271Y-57304214D01*
X143660985Y-57286071D01*
X143624700Y-57249785D01*
X143606557Y-57195357D01*
X143606557Y-57159071D01*
X143624700Y-57104642D01*
X143642842Y-57086500D01*
X143606557Y-56959500D02*
X143606557Y-56723642D01*
X143751700Y-56850642D01*
X143751700Y-56796214D01*
X143769842Y-56759928D01*
X143787985Y-56741785D01*
X143824271Y-56723642D01*
X143914985Y-56723642D01*
X143951271Y-56741785D01*
X143969414Y-56759928D01*
X143987557Y-56796214D01*
X143987557Y-56905071D01*
X143969414Y-56941357D01*
X143951271Y-56959500D01*
X143421100Y-59699071D02*
X143402957Y-59717214D01*
X143348528Y-59735357D01*
X143312242Y-59735357D01*
X143257814Y-59717214D01*
X143221528Y-59680928D01*
X143203385Y-59644642D01*
X143185242Y-59572071D01*
X143185242Y-59517642D01*
X143203385Y-59445071D01*
X143221528Y-59408785D01*
X143257814Y-59372500D01*
X143312242Y-59354357D01*
X143348528Y-59354357D01*
X143402957Y-59372500D01*
X143421100Y-59390642D01*
X143747671Y-59481357D02*
X143747671Y-59735357D01*
X143656957Y-59336214D02*
X143566242Y-59608357D01*
X143802100Y-59608357D01*
X158889700Y-113082271D02*
X158871557Y-113100414D01*
X158817128Y-113118557D01*
X158780842Y-113118557D01*
X158726414Y-113100414D01*
X158690128Y-113064128D01*
X158671985Y-113027842D01*
X158653842Y-112955271D01*
X158653842Y-112900842D01*
X158671985Y-112828271D01*
X158690128Y-112791985D01*
X158726414Y-112755700D01*
X158780842Y-112737557D01*
X158817128Y-112737557D01*
X158871557Y-112755700D01*
X158889700Y-112773842D01*
X159234414Y-112737557D02*
X159052985Y-112737557D01*
X159034842Y-112918985D01*
X159052985Y-112900842D01*
X159089271Y-112882700D01*
X159179985Y-112882700D01*
X159216271Y-112900842D01*
X159234414Y-112918985D01*
X159252557Y-112955271D01*
X159252557Y-113045985D01*
X159234414Y-113082271D01*
X159216271Y-113100414D01*
X159179985Y-113118557D01*
X159089271Y-113118557D01*
X159052985Y-113100414D01*
X159034842Y-113082271D01*
X167971671Y-55156100D02*
X167989814Y-55174242D01*
X168007957Y-55228671D01*
X168007957Y-55264957D01*
X167989814Y-55319385D01*
X167953528Y-55355671D01*
X167917242Y-55373814D01*
X167844671Y-55391957D01*
X167790242Y-55391957D01*
X167717671Y-55373814D01*
X167681385Y-55355671D01*
X167645100Y-55319385D01*
X167626957Y-55264957D01*
X167626957Y-55228671D01*
X167645100Y-55174242D01*
X167663242Y-55156100D01*
X167626957Y-55029100D02*
X167626957Y-54775100D01*
X168007957Y-54938385D01*
X182134671Y-71640700D02*
X182152814Y-71658842D01*
X182170957Y-71713271D01*
X182170957Y-71749557D01*
X182152814Y-71803985D01*
X182116528Y-71840271D01*
X182080242Y-71858414D01*
X182007671Y-71876557D01*
X181953242Y-71876557D01*
X181880671Y-71858414D01*
X181844385Y-71840271D01*
X181808100Y-71803985D01*
X181789957Y-71749557D01*
X181789957Y-71713271D01*
X181808100Y-71658842D01*
X181826242Y-71640700D01*
X181953242Y-71422985D02*
X181935100Y-71459271D01*
X181916957Y-71477414D01*
X181880671Y-71495557D01*
X181862528Y-71495557D01*
X181826242Y-71477414D01*
X181808100Y-71459271D01*
X181789957Y-71422985D01*
X181789957Y-71350414D01*
X181808100Y-71314128D01*
X181826242Y-71295985D01*
X181862528Y-71277842D01*
X181880671Y-71277842D01*
X181916957Y-71295985D01*
X181935100Y-71314128D01*
X181953242Y-71350414D01*
X181953242Y-71422985D01*
X181971385Y-71459271D01*
X181989528Y-71477414D01*
X182025814Y-71495557D01*
X182098385Y-71495557D01*
X182134671Y-71477414D01*
X182152814Y-71459271D01*
X182170957Y-71422985D01*
X182170957Y-71350414D01*
X182152814Y-71314128D01*
X182134671Y-71295985D01*
X182098385Y-71277842D01*
X182025814Y-71277842D01*
X181989528Y-71295985D01*
X181971385Y-71314128D01*
X181953242Y-71350414D01*
X177681671Y-138751128D02*
X177699814Y-138769271D01*
X177717957Y-138823700D01*
X177717957Y-138859985D01*
X177699814Y-138914414D01*
X177663528Y-138950700D01*
X177627242Y-138968842D01*
X177554671Y-138986985D01*
X177500242Y-138986985D01*
X177427671Y-138968842D01*
X177391385Y-138950700D01*
X177355100Y-138914414D01*
X177336957Y-138859985D01*
X177336957Y-138823700D01*
X177355100Y-138769271D01*
X177373242Y-138751128D01*
X177717957Y-138388271D02*
X177717957Y-138605985D01*
X177717957Y-138497128D02*
X177336957Y-138497128D01*
X177391385Y-138533414D01*
X177427671Y-138569700D01*
X177445814Y-138605985D01*
X177336957Y-138152414D02*
X177336957Y-138116128D01*
X177355100Y-138079842D01*
X177373242Y-138061700D01*
X177409528Y-138043557D01*
X177482100Y-138025414D01*
X177572814Y-138025414D01*
X177645385Y-138043557D01*
X177681671Y-138061700D01*
X177699814Y-138079842D01*
X177717957Y-138116128D01*
X177717957Y-138152414D01*
X177699814Y-138188700D01*
X177681671Y-138206842D01*
X177645385Y-138224985D01*
X177572814Y-138243128D01*
X177482100Y-138243128D01*
X177409528Y-138224985D01*
X177373242Y-138206842D01*
X177355100Y-138188700D01*
X177336957Y-138152414D01*
X130971471Y-53171271D02*
X130953328Y-53189414D01*
X130898900Y-53207557D01*
X130862614Y-53207557D01*
X130808185Y-53189414D01*
X130771900Y-53153128D01*
X130753757Y-53116842D01*
X130735614Y-53044271D01*
X130735614Y-52989842D01*
X130753757Y-52917271D01*
X130771900Y-52880985D01*
X130808185Y-52844700D01*
X130862614Y-52826557D01*
X130898900Y-52826557D01*
X130953328Y-52844700D01*
X130971471Y-52862842D01*
X131334328Y-53207557D02*
X131116614Y-53207557D01*
X131225471Y-53207557D02*
X131225471Y-52826557D01*
X131189185Y-52880985D01*
X131152900Y-52917271D01*
X131116614Y-52935414D01*
X131461328Y-52826557D02*
X131697185Y-52826557D01*
X131570185Y-52971700D01*
X131624614Y-52971700D01*
X131660900Y-52989842D01*
X131679042Y-53007985D01*
X131697185Y-53044271D01*
X131697185Y-53134985D01*
X131679042Y-53171271D01*
X131660900Y-53189414D01*
X131624614Y-53207557D01*
X131515757Y-53207557D01*
X131479471Y-53189414D01*
X131461328Y-53171271D01*
X137473871Y-53145871D02*
X137455728Y-53164014D01*
X137401300Y-53182157D01*
X137365014Y-53182157D01*
X137310585Y-53164014D01*
X137274300Y-53127728D01*
X137256157Y-53091442D01*
X137238014Y-53018871D01*
X137238014Y-52964442D01*
X137256157Y-52891871D01*
X137274300Y-52855585D01*
X137310585Y-52819300D01*
X137365014Y-52801157D01*
X137401300Y-52801157D01*
X137455728Y-52819300D01*
X137473871Y-52837442D01*
X137836728Y-53182157D02*
X137619014Y-53182157D01*
X137727871Y-53182157D02*
X137727871Y-52801157D01*
X137691585Y-52855585D01*
X137655300Y-52891871D01*
X137619014Y-52910014D01*
X138163300Y-52928157D02*
X138163300Y-53182157D01*
X138072585Y-52783014D02*
X137981871Y-53055157D01*
X138217728Y-53055157D01*
X168548957Y-61114214D02*
X168167957Y-61114214D01*
X168167957Y-61023500D01*
X168186100Y-60969071D01*
X168222385Y-60932785D01*
X168258671Y-60914642D01*
X168331242Y-60896500D01*
X168385671Y-60896500D01*
X168458242Y-60914642D01*
X168494528Y-60932785D01*
X168530814Y-60969071D01*
X168548957Y-61023500D01*
X168548957Y-61114214D01*
X168548957Y-60533642D02*
X168548957Y-60751357D01*
X168548957Y-60642500D02*
X168167957Y-60642500D01*
X168222385Y-60678785D01*
X168258671Y-60715071D01*
X168276814Y-60751357D01*
X168118157Y-73788814D02*
X167737157Y-73788814D01*
X167737157Y-73698100D01*
X167755300Y-73643671D01*
X167791585Y-73607385D01*
X167827871Y-73589242D01*
X167900442Y-73571100D01*
X167954871Y-73571100D01*
X168027442Y-73589242D01*
X168063728Y-73607385D01*
X168100014Y-73643671D01*
X168118157Y-73698100D01*
X168118157Y-73788814D01*
X167773442Y-73425957D02*
X167755300Y-73407814D01*
X167737157Y-73371528D01*
X167737157Y-73280814D01*
X167755300Y-73244528D01*
X167773442Y-73226385D01*
X167809728Y-73208242D01*
X167846014Y-73208242D01*
X167900442Y-73226385D01*
X168118157Y-73444100D01*
X168118157Y-73208242D01*
X171166157Y-73788814D02*
X170785157Y-73788814D01*
X170785157Y-73698100D01*
X170803300Y-73643671D01*
X170839585Y-73607385D01*
X170875871Y-73589242D01*
X170948442Y-73571100D01*
X171002871Y-73571100D01*
X171075442Y-73589242D01*
X171111728Y-73607385D01*
X171148014Y-73643671D01*
X171166157Y-73698100D01*
X171166157Y-73788814D01*
X170785157Y-73444100D02*
X170785157Y-73208242D01*
X170930300Y-73335242D01*
X170930300Y-73280814D01*
X170948442Y-73244528D01*
X170966585Y-73226385D01*
X171002871Y-73208242D01*
X171093585Y-73208242D01*
X171129871Y-73226385D01*
X171148014Y-73244528D01*
X171166157Y-73280814D01*
X171166157Y-73389671D01*
X171148014Y-73425957D01*
X171129871Y-73444100D01*
X174214157Y-73788814D02*
X173833157Y-73788814D01*
X173833157Y-73698100D01*
X173851300Y-73643671D01*
X173887585Y-73607385D01*
X173923871Y-73589242D01*
X173996442Y-73571100D01*
X174050871Y-73571100D01*
X174123442Y-73589242D01*
X174159728Y-73607385D01*
X174196014Y-73643671D01*
X174214157Y-73698100D01*
X174214157Y-73788814D01*
X173960157Y-73244528D02*
X174214157Y-73244528D01*
X173815014Y-73335242D02*
X174087157Y-73425957D01*
X174087157Y-73190100D01*
X158064200Y-64344785D02*
X157937200Y-64344785D01*
X157937200Y-64544357D02*
X157937200Y-64163357D01*
X158118628Y-64163357D01*
X158463342Y-64544357D02*
X158245628Y-64544357D01*
X158354485Y-64544357D02*
X158354485Y-64163357D01*
X158318200Y-64217785D01*
X158281914Y-64254071D01*
X158245628Y-64272214D01*
X139224657Y-135445500D02*
X139188371Y-135427357D01*
X139133942Y-135427357D01*
X139079514Y-135445500D01*
X139043228Y-135481785D01*
X139025085Y-135518071D01*
X139006942Y-135590642D01*
X139006942Y-135645071D01*
X139025085Y-135717642D01*
X139043228Y-135753928D01*
X139079514Y-135790214D01*
X139133942Y-135808357D01*
X139170228Y-135808357D01*
X139224657Y-135790214D01*
X139242800Y-135772071D01*
X139242800Y-135645071D01*
X139170228Y-135645071D01*
X139406085Y-135808357D02*
X139406085Y-135427357D01*
X139551228Y-135427357D01*
X139587514Y-135445500D01*
X139605657Y-135463642D01*
X139623800Y-135499928D01*
X139623800Y-135554357D01*
X139605657Y-135590642D01*
X139587514Y-135608785D01*
X139551228Y-135626928D01*
X139406085Y-135626928D01*
X139768942Y-135790214D02*
X139823371Y-135808357D01*
X139914085Y-135808357D01*
X139950371Y-135790214D01*
X139968514Y-135772071D01*
X139986657Y-135735785D01*
X139986657Y-135699500D01*
X139968514Y-135663214D01*
X139950371Y-135645071D01*
X139914085Y-135626928D01*
X139841514Y-135608785D01*
X139805228Y-135590642D01*
X139787085Y-135572500D01*
X139768942Y-135536214D01*
X139768942Y-135499928D01*
X139787085Y-135463642D01*
X139805228Y-135445500D01*
X139841514Y-135427357D01*
X139932228Y-135427357D01*
X139986657Y-135445500D01*
X161210171Y-67031957D02*
X161210171Y-66650957D01*
X161609314Y-66995671D02*
X161591171Y-67013814D01*
X161536742Y-67031957D01*
X161500457Y-67031957D01*
X161446028Y-67013814D01*
X161409742Y-66977528D01*
X161391600Y-66941242D01*
X161373457Y-66868671D01*
X161373457Y-66814242D01*
X161391600Y-66741671D01*
X161409742Y-66705385D01*
X161446028Y-66669100D01*
X161500457Y-66650957D01*
X161536742Y-66650957D01*
X161591171Y-66669100D01*
X161609314Y-66687242D01*
X161754457Y-67013814D02*
X161808885Y-67031957D01*
X161899600Y-67031957D01*
X161935885Y-67013814D01*
X161954028Y-66995671D01*
X161972171Y-66959385D01*
X161972171Y-66923100D01*
X161954028Y-66886814D01*
X161935885Y-66868671D01*
X161899600Y-66850528D01*
X161827028Y-66832385D01*
X161790742Y-66814242D01*
X161772600Y-66796100D01*
X161754457Y-66759814D01*
X161754457Y-66723528D01*
X161772600Y-66687242D01*
X161790742Y-66669100D01*
X161827028Y-66650957D01*
X161917742Y-66650957D01*
X161972171Y-66669100D01*
X162135457Y-67031957D02*
X162135457Y-66650957D01*
X162280600Y-66650957D01*
X162316885Y-66669100D01*
X162335028Y-66687242D01*
X162353171Y-66723528D01*
X162353171Y-66777957D01*
X162335028Y-66814242D01*
X162316885Y-66832385D01*
X162280600Y-66850528D01*
X162135457Y-66850528D01*
X154381200Y-58758457D02*
X154381200Y-59030600D01*
X154363057Y-59085028D01*
X154326771Y-59121314D01*
X154272342Y-59139457D01*
X154236057Y-59139457D01*
X154762200Y-59139457D02*
X154544485Y-59139457D01*
X154653342Y-59139457D02*
X154653342Y-58758457D01*
X154617057Y-58812885D01*
X154580771Y-58849171D01*
X154544485Y-58867314D01*
X125075042Y-63632442D02*
X125075042Y-63451014D01*
X125456042Y-63451014D01*
X125274614Y-63759442D02*
X125274614Y-63886442D01*
X125075042Y-63940871D02*
X125075042Y-63759442D01*
X125456042Y-63759442D01*
X125456042Y-63940871D01*
X125075042Y-64104157D02*
X125456042Y-64104157D01*
X125456042Y-64194871D01*
X125437900Y-64249300D01*
X125401614Y-64285585D01*
X125365328Y-64303728D01*
X125292757Y-64321871D01*
X125238328Y-64321871D01*
X125165757Y-64303728D01*
X125129471Y-64285585D01*
X125093185Y-64249300D01*
X125075042Y-64194871D01*
X125075042Y-64104157D01*
X125075042Y-64684728D02*
X125075042Y-64467014D01*
X125075042Y-64575871D02*
X125456042Y-64575871D01*
X125401614Y-64539585D01*
X125365328Y-64503300D01*
X125347185Y-64467014D01*
X125100442Y-66197842D02*
X125100442Y-66016414D01*
X125481442Y-66016414D01*
X125300014Y-66324842D02*
X125300014Y-66451842D01*
X125100442Y-66506271D02*
X125100442Y-66324842D01*
X125481442Y-66324842D01*
X125481442Y-66506271D01*
X125100442Y-66669557D02*
X125481442Y-66669557D01*
X125481442Y-66760271D01*
X125463300Y-66814700D01*
X125427014Y-66850985D01*
X125390728Y-66869128D01*
X125318157Y-66887271D01*
X125263728Y-66887271D01*
X125191157Y-66869128D01*
X125154871Y-66850985D01*
X125118585Y-66814700D01*
X125100442Y-66760271D01*
X125100442Y-66669557D01*
X125445157Y-67032414D02*
X125463300Y-67050557D01*
X125481442Y-67086842D01*
X125481442Y-67177557D01*
X125463300Y-67213842D01*
X125445157Y-67231985D01*
X125408871Y-67250128D01*
X125372585Y-67250128D01*
X125318157Y-67231985D01*
X125100442Y-67014271D01*
X125100442Y-67250128D01*
X125125842Y-68737842D02*
X125125842Y-68556414D01*
X125506842Y-68556414D01*
X125325414Y-68864842D02*
X125325414Y-68991842D01*
X125125842Y-69046271D02*
X125125842Y-68864842D01*
X125506842Y-68864842D01*
X125506842Y-69046271D01*
X125125842Y-69209557D02*
X125506842Y-69209557D01*
X125506842Y-69300271D01*
X125488700Y-69354700D01*
X125452414Y-69390985D01*
X125416128Y-69409128D01*
X125343557Y-69427271D01*
X125289128Y-69427271D01*
X125216557Y-69409128D01*
X125180271Y-69390985D01*
X125143985Y-69354700D01*
X125125842Y-69300271D01*
X125125842Y-69209557D01*
X125506842Y-69554271D02*
X125506842Y-69790128D01*
X125361700Y-69663128D01*
X125361700Y-69717557D01*
X125343557Y-69753842D01*
X125325414Y-69771985D01*
X125289128Y-69790128D01*
X125198414Y-69790128D01*
X125162128Y-69771985D01*
X125143985Y-69753842D01*
X125125842Y-69717557D01*
X125125842Y-69608700D01*
X125143985Y-69572414D01*
X125162128Y-69554271D01*
X147409357Y-79133700D02*
X147028357Y-79133700D01*
X147028357Y-78988557D01*
X147046500Y-78952271D01*
X147064642Y-78934128D01*
X147100928Y-78915985D01*
X147155357Y-78915985D01*
X147191642Y-78934128D01*
X147209785Y-78952271D01*
X147227928Y-78988557D01*
X147227928Y-79133700D01*
X147409357Y-78534985D02*
X147227928Y-78661985D01*
X147409357Y-78752700D02*
X147028357Y-78752700D01*
X147028357Y-78607557D01*
X147046500Y-78571271D01*
X147064642Y-78553128D01*
X147100928Y-78534985D01*
X147155357Y-78534985D01*
X147191642Y-78553128D01*
X147209785Y-78571271D01*
X147227928Y-78607557D01*
X147227928Y-78752700D01*
X147209785Y-78371700D02*
X147209785Y-78244700D01*
X147409357Y-78190271D02*
X147409357Y-78371700D01*
X147028357Y-78371700D01*
X147028357Y-78190271D01*
X147391214Y-78045128D02*
X147409357Y-77990700D01*
X147409357Y-77899985D01*
X147391214Y-77863700D01*
X147373071Y-77845557D01*
X147336785Y-77827414D01*
X147300500Y-77827414D01*
X147264214Y-77845557D01*
X147246071Y-77863700D01*
X147227928Y-77899985D01*
X147209785Y-77972557D01*
X147191642Y-78008842D01*
X147173500Y-78026985D01*
X147137214Y-78045128D01*
X147100928Y-78045128D01*
X147064642Y-78026985D01*
X147046500Y-78008842D01*
X147028357Y-77972557D01*
X147028357Y-77881842D01*
X147046500Y-77827414D01*
X147391214Y-77682271D02*
X147409357Y-77627842D01*
X147409357Y-77537128D01*
X147391214Y-77500842D01*
X147373071Y-77482700D01*
X147336785Y-77464557D01*
X147300500Y-77464557D01*
X147264214Y-77482700D01*
X147246071Y-77500842D01*
X147227928Y-77537128D01*
X147209785Y-77609700D01*
X147191642Y-77645985D01*
X147173500Y-77664128D01*
X147137214Y-77682271D01*
X147100928Y-77682271D01*
X147064642Y-77664128D01*
X147046500Y-77645985D01*
X147028357Y-77609700D01*
X147028357Y-77518985D01*
X147046500Y-77464557D01*
X156961114Y-105136042D02*
X156924828Y-105117900D01*
X156888542Y-105081614D01*
X156834114Y-105027185D01*
X156797828Y-105009042D01*
X156761542Y-105009042D01*
X156779685Y-105099757D02*
X156743400Y-105081614D01*
X156707114Y-105045328D01*
X156688971Y-104972757D01*
X156688971Y-104845757D01*
X156707114Y-104773185D01*
X156743400Y-104736900D01*
X156779685Y-104718757D01*
X156852257Y-104718757D01*
X156888542Y-104736900D01*
X156924828Y-104773185D01*
X156942971Y-104845757D01*
X156942971Y-104972757D01*
X156924828Y-105045328D01*
X156888542Y-105081614D01*
X156852257Y-105099757D01*
X156779685Y-105099757D01*
X157305828Y-105099757D02*
X157088114Y-105099757D01*
X157196971Y-105099757D02*
X157196971Y-104718757D01*
X157160685Y-104773185D01*
X157124400Y-104809471D01*
X157088114Y-104827614D01*
X140184115Y-103191443D02*
X140147829Y-103173301D01*
X140111543Y-103137015D01*
X140057115Y-103082586D01*
X140020829Y-103064443D01*
X139984543Y-103064443D01*
X140002686Y-103155158D02*
X139966401Y-103137015D01*
X139930115Y-103100729D01*
X139911972Y-103028158D01*
X139911972Y-102901158D01*
X139930115Y-102828586D01*
X139966401Y-102792301D01*
X140002686Y-102774158D01*
X140075258Y-102774158D01*
X140111543Y-102792301D01*
X140147829Y-102828586D01*
X140165972Y-102901158D01*
X140165972Y-103028158D01*
X140147829Y-103100729D01*
X140111543Y-103137015D01*
X140075258Y-103155158D01*
X140002686Y-103155158D01*
X140311115Y-102810443D02*
X140329258Y-102792301D01*
X140365543Y-102774158D01*
X140456258Y-102774158D01*
X140492543Y-102792301D01*
X140510686Y-102810443D01*
X140528829Y-102846729D01*
X140528829Y-102883015D01*
X140510686Y-102937443D01*
X140292972Y-103155158D01*
X140528829Y-103155158D01*
X168371157Y-69862700D02*
X168189728Y-69989700D01*
X168371157Y-70080414D02*
X167990157Y-70080414D01*
X167990157Y-69935271D01*
X168008300Y-69898985D01*
X168026442Y-69880842D01*
X168062728Y-69862700D01*
X168117157Y-69862700D01*
X168153442Y-69880842D01*
X168171585Y-69898985D01*
X168189728Y-69935271D01*
X168189728Y-70080414D01*
X168371157Y-69499842D02*
X168371157Y-69717557D01*
X168371157Y-69608700D02*
X167990157Y-69608700D01*
X168044585Y-69644985D01*
X168080871Y-69681271D01*
X168099014Y-69717557D01*
X154241157Y-118402100D02*
X154059728Y-118529100D01*
X154241157Y-118619814D02*
X153860157Y-118619814D01*
X153860157Y-118474671D01*
X153878300Y-118438385D01*
X153896442Y-118420242D01*
X153932728Y-118402100D01*
X153987157Y-118402100D01*
X154023442Y-118420242D01*
X154041585Y-118438385D01*
X154059728Y-118474671D01*
X154059728Y-118619814D01*
X153896442Y-118256957D02*
X153878300Y-118238814D01*
X153860157Y-118202528D01*
X153860157Y-118111814D01*
X153878300Y-118075528D01*
X153896442Y-118057385D01*
X153932728Y-118039242D01*
X153969014Y-118039242D01*
X154023442Y-118057385D01*
X154241157Y-118275100D01*
X154241157Y-118039242D01*
X154215757Y-122237500D02*
X154034328Y-122364500D01*
X154215757Y-122455214D02*
X153834757Y-122455214D01*
X153834757Y-122310071D01*
X153852900Y-122273785D01*
X153871042Y-122255642D01*
X153907328Y-122237500D01*
X153961757Y-122237500D01*
X153998042Y-122255642D01*
X154016185Y-122273785D01*
X154034328Y-122310071D01*
X154034328Y-122455214D01*
X153834757Y-122110500D02*
X153834757Y-121874642D01*
X153979900Y-122001642D01*
X153979900Y-121947214D01*
X153998042Y-121910928D01*
X154016185Y-121892785D01*
X154052471Y-121874642D01*
X154143185Y-121874642D01*
X154179471Y-121892785D01*
X154197614Y-121910928D01*
X154215757Y-121947214D01*
X154215757Y-122056071D01*
X154197614Y-122092357D01*
X154179471Y-122110500D01*
X183009157Y-119951500D02*
X182827728Y-120078500D01*
X183009157Y-120169214D02*
X182628157Y-120169214D01*
X182628157Y-120024071D01*
X182646300Y-119987785D01*
X182664442Y-119969642D01*
X182700728Y-119951500D01*
X182755157Y-119951500D01*
X182791442Y-119969642D01*
X182809585Y-119987785D01*
X182827728Y-120024071D01*
X182827728Y-120169214D01*
X182755157Y-119624928D02*
X183009157Y-119624928D01*
X182610014Y-119715642D02*
X182882157Y-119806357D01*
X182882157Y-119570500D01*
X171386157Y-69862700D02*
X171204728Y-69989700D01*
X171386157Y-70080414D02*
X171005157Y-70080414D01*
X171005157Y-69935271D01*
X171023300Y-69898985D01*
X171041442Y-69880842D01*
X171077728Y-69862700D01*
X171132157Y-69862700D01*
X171168442Y-69880842D01*
X171186585Y-69898985D01*
X171204728Y-69935271D01*
X171204728Y-70080414D01*
X171005157Y-69517985D02*
X171005157Y-69699414D01*
X171186585Y-69717557D01*
X171168442Y-69699414D01*
X171150300Y-69663128D01*
X171150300Y-69572414D01*
X171168442Y-69536128D01*
X171186585Y-69517985D01*
X171222871Y-69499842D01*
X171313585Y-69499842D01*
X171349871Y-69517985D01*
X171368014Y-69536128D01*
X171386157Y-69572414D01*
X171386157Y-69663128D01*
X171368014Y-69699414D01*
X171349871Y-69717557D01*
X174434157Y-69862700D02*
X174252728Y-69989700D01*
X174434157Y-70080414D02*
X174053157Y-70080414D01*
X174053157Y-69935271D01*
X174071300Y-69898985D01*
X174089442Y-69880842D01*
X174125728Y-69862700D01*
X174180157Y-69862700D01*
X174216442Y-69880842D01*
X174234585Y-69898985D01*
X174252728Y-69935271D01*
X174252728Y-70080414D01*
X174053157Y-69536128D02*
X174053157Y-69608700D01*
X174071300Y-69644985D01*
X174089442Y-69663128D01*
X174143871Y-69699414D01*
X174216442Y-69717557D01*
X174361585Y-69717557D01*
X174397871Y-69699414D01*
X174416014Y-69681271D01*
X174434157Y-69644985D01*
X174434157Y-69572414D01*
X174416014Y-69536128D01*
X174397871Y-69517985D01*
X174361585Y-69499842D01*
X174270871Y-69499842D01*
X174234585Y-69517985D01*
X174216442Y-69536128D01*
X174198300Y-69572414D01*
X174198300Y-69644985D01*
X174216442Y-69681271D01*
X174234585Y-69699414D01*
X174270871Y-69717557D01*
X162282757Y-143395700D02*
X162101328Y-143522700D01*
X162282757Y-143613414D02*
X161901757Y-143613414D01*
X161901757Y-143468271D01*
X161919900Y-143431985D01*
X161938042Y-143413842D01*
X161974328Y-143395700D01*
X162028757Y-143395700D01*
X162065042Y-143413842D01*
X162083185Y-143431985D01*
X162101328Y-143468271D01*
X162101328Y-143613414D01*
X161901757Y-143268700D02*
X161901757Y-143014700D01*
X162282757Y-143177985D01*
X163435957Y-143395700D02*
X163254528Y-143522700D01*
X163435957Y-143613414D02*
X163054957Y-143613414D01*
X163054957Y-143468271D01*
X163073100Y-143431985D01*
X163091242Y-143413842D01*
X163127528Y-143395700D01*
X163181957Y-143395700D01*
X163218242Y-143413842D01*
X163236385Y-143431985D01*
X163254528Y-143468271D01*
X163254528Y-143613414D01*
X163218242Y-143177985D02*
X163200100Y-143214271D01*
X163181957Y-143232414D01*
X163145671Y-143250557D01*
X163127528Y-143250557D01*
X163091242Y-143232414D01*
X163073100Y-143214271D01*
X163054957Y-143177985D01*
X163054957Y-143105414D01*
X163073100Y-143069128D01*
X163091242Y-143050985D01*
X163127528Y-143032842D01*
X163145671Y-143032842D01*
X163181957Y-143050985D01*
X163200100Y-143069128D01*
X163218242Y-143105414D01*
X163218242Y-143177985D01*
X163236385Y-143214271D01*
X163254528Y-143232414D01*
X163290814Y-143250557D01*
X163363385Y-143250557D01*
X163399671Y-143232414D01*
X163417814Y-143214271D01*
X163435957Y-143177985D01*
X163435957Y-143105414D01*
X163417814Y-143069128D01*
X163399671Y-143050985D01*
X163363385Y-143032842D01*
X163290814Y-143032842D01*
X163254528Y-143050985D01*
X163236385Y-143069128D01*
X163218242Y-143105414D01*
X134734300Y-91807957D02*
X134607300Y-91626528D01*
X134516585Y-91807957D02*
X134516585Y-91426957D01*
X134661728Y-91426957D01*
X134698014Y-91445100D01*
X134716157Y-91463242D01*
X134734300Y-91499528D01*
X134734300Y-91553957D01*
X134716157Y-91590242D01*
X134698014Y-91608385D01*
X134661728Y-91626528D01*
X134516585Y-91626528D01*
X134915728Y-91807957D02*
X134988300Y-91807957D01*
X135024585Y-91789814D01*
X135042728Y-91771671D01*
X135079014Y-91717242D01*
X135097157Y-91644671D01*
X135097157Y-91499528D01*
X135079014Y-91463242D01*
X135060871Y-91445100D01*
X135024585Y-91426957D01*
X134952014Y-91426957D01*
X134915728Y-91445100D01*
X134897585Y-91463242D01*
X134879442Y-91499528D01*
X134879442Y-91590242D01*
X134897585Y-91626528D01*
X134915728Y-91644671D01*
X134952014Y-91662814D01*
X135024585Y-91662814D01*
X135060871Y-91644671D01*
X135079014Y-91626528D01*
X135097157Y-91590242D01*
X132038271Y-93585957D02*
X131911271Y-93404528D01*
X131820557Y-93585957D02*
X131820557Y-93204957D01*
X131965700Y-93204957D01*
X132001985Y-93223100D01*
X132020128Y-93241242D01*
X132038271Y-93277528D01*
X132038271Y-93331957D01*
X132020128Y-93368242D01*
X132001985Y-93386385D01*
X131965700Y-93404528D01*
X131820557Y-93404528D01*
X132401128Y-93585957D02*
X132183414Y-93585957D01*
X132292271Y-93585957D02*
X132292271Y-93204957D01*
X132255985Y-93259385D01*
X132219700Y-93295671D01*
X132183414Y-93313814D01*
X132636985Y-93204957D02*
X132673271Y-93204957D01*
X132709557Y-93223100D01*
X132727700Y-93241242D01*
X132745842Y-93277528D01*
X132763985Y-93350100D01*
X132763985Y-93440814D01*
X132745842Y-93513385D01*
X132727700Y-93549671D01*
X132709557Y-93567814D01*
X132673271Y-93585957D01*
X132636985Y-93585957D01*
X132600700Y-93567814D01*
X132582557Y-93549671D01*
X132564414Y-93513385D01*
X132546271Y-93440814D01*
X132546271Y-93350100D01*
X132564414Y-93277528D01*
X132582557Y-93241242D01*
X132600700Y-93223100D01*
X132636985Y-93204957D01*
X133968671Y-63062757D02*
X133841671Y-62881328D01*
X133750957Y-63062757D02*
X133750957Y-62681757D01*
X133896100Y-62681757D01*
X133932385Y-62699900D01*
X133950528Y-62718042D01*
X133968671Y-62754328D01*
X133968671Y-62808757D01*
X133950528Y-62845042D01*
X133932385Y-62863185D01*
X133896100Y-62881328D01*
X133750957Y-62881328D01*
X134331528Y-63062757D02*
X134113814Y-63062757D01*
X134222671Y-63062757D02*
X134222671Y-62681757D01*
X134186385Y-62736185D01*
X134150100Y-62772471D01*
X134113814Y-62790614D01*
X134694385Y-63062757D02*
X134476671Y-63062757D01*
X134585528Y-63062757D02*
X134585528Y-62681757D01*
X134549242Y-62736185D01*
X134512957Y-62772471D01*
X134476671Y-62790614D01*
X133968671Y-65678957D02*
X133841671Y-65497528D01*
X133750957Y-65678957D02*
X133750957Y-65297957D01*
X133896100Y-65297957D01*
X133932385Y-65316100D01*
X133950528Y-65334242D01*
X133968671Y-65370528D01*
X133968671Y-65424957D01*
X133950528Y-65461242D01*
X133932385Y-65479385D01*
X133896100Y-65497528D01*
X133750957Y-65497528D01*
X134331528Y-65678957D02*
X134113814Y-65678957D01*
X134222671Y-65678957D02*
X134222671Y-65297957D01*
X134186385Y-65352385D01*
X134150100Y-65388671D01*
X134113814Y-65406814D01*
X134476671Y-65334242D02*
X134494814Y-65316100D01*
X134531100Y-65297957D01*
X134621814Y-65297957D01*
X134658100Y-65316100D01*
X134676242Y-65334242D01*
X134694385Y-65370528D01*
X134694385Y-65406814D01*
X134676242Y-65461242D01*
X134458528Y-65678957D01*
X134694385Y-65678957D01*
X164223357Y-85157128D02*
X164041928Y-85284128D01*
X164223357Y-85374842D02*
X163842357Y-85374842D01*
X163842357Y-85229700D01*
X163860500Y-85193414D01*
X163878642Y-85175271D01*
X163914928Y-85157128D01*
X163969357Y-85157128D01*
X164005642Y-85175271D01*
X164023785Y-85193414D01*
X164041928Y-85229700D01*
X164041928Y-85374842D01*
X164223357Y-84794271D02*
X164223357Y-85011985D01*
X164223357Y-84903128D02*
X163842357Y-84903128D01*
X163896785Y-84939414D01*
X163933071Y-84975700D01*
X163951214Y-85011985D01*
X163842357Y-84667271D02*
X163842357Y-84431414D01*
X163987500Y-84558414D01*
X163987500Y-84503985D01*
X164005642Y-84467700D01*
X164023785Y-84449557D01*
X164060071Y-84431414D01*
X164150785Y-84431414D01*
X164187071Y-84449557D01*
X164205214Y-84467700D01*
X164223357Y-84503985D01*
X164223357Y-84612842D01*
X164205214Y-84649128D01*
X164187071Y-84667271D01*
X133968671Y-68218957D02*
X133841671Y-68037528D01*
X133750957Y-68218957D02*
X133750957Y-67837957D01*
X133896100Y-67837957D01*
X133932385Y-67856100D01*
X133950528Y-67874242D01*
X133968671Y-67910528D01*
X133968671Y-67964957D01*
X133950528Y-68001242D01*
X133932385Y-68019385D01*
X133896100Y-68037528D01*
X133750957Y-68037528D01*
X134331528Y-68218957D02*
X134113814Y-68218957D01*
X134222671Y-68218957D02*
X134222671Y-67837957D01*
X134186385Y-67892385D01*
X134150100Y-67928671D01*
X134113814Y-67946814D01*
X134658100Y-67964957D02*
X134658100Y-68218957D01*
X134567385Y-67819814D02*
X134476671Y-68091957D01*
X134712528Y-68091957D01*
X157666871Y-79768357D02*
X157539871Y-79586928D01*
X157449157Y-79768357D02*
X157449157Y-79387357D01*
X157594300Y-79387357D01*
X157630585Y-79405500D01*
X157648728Y-79423642D01*
X157666871Y-79459928D01*
X157666871Y-79514357D01*
X157648728Y-79550642D01*
X157630585Y-79568785D01*
X157594300Y-79586928D01*
X157449157Y-79586928D01*
X158029728Y-79768357D02*
X157812014Y-79768357D01*
X157920871Y-79768357D02*
X157920871Y-79387357D01*
X157884585Y-79441785D01*
X157848300Y-79478071D01*
X157812014Y-79496214D01*
X158374442Y-79387357D02*
X158193014Y-79387357D01*
X158174871Y-79568785D01*
X158193014Y-79550642D01*
X158229300Y-79532500D01*
X158320014Y-79532500D01*
X158356300Y-79550642D01*
X158374442Y-79568785D01*
X158392585Y-79605071D01*
X158392585Y-79695785D01*
X158374442Y-79732071D01*
X158356300Y-79750214D01*
X158320014Y-79768357D01*
X158229300Y-79768357D01*
X158193014Y-79750214D01*
X158174871Y-79732071D01*
X135053957Y-122647528D02*
X134872528Y-122774528D01*
X135053957Y-122865242D02*
X134672957Y-122865242D01*
X134672957Y-122720100D01*
X134691100Y-122683814D01*
X134709242Y-122665671D01*
X134745528Y-122647528D01*
X134799957Y-122647528D01*
X134836242Y-122665671D01*
X134854385Y-122683814D01*
X134872528Y-122720100D01*
X134872528Y-122865242D01*
X135053957Y-122284671D02*
X135053957Y-122502385D01*
X135053957Y-122393528D02*
X134672957Y-122393528D01*
X134727385Y-122429814D01*
X134763671Y-122466100D01*
X134781814Y-122502385D01*
X134672957Y-121958100D02*
X134672957Y-122030671D01*
X134691100Y-122066957D01*
X134709242Y-122085100D01*
X134763671Y-122121385D01*
X134836242Y-122139528D01*
X134981385Y-122139528D01*
X135017671Y-122121385D01*
X135035814Y-122103242D01*
X135053957Y-122066957D01*
X135053957Y-121994385D01*
X135035814Y-121958100D01*
X135017671Y-121939957D01*
X134981385Y-121921814D01*
X134890671Y-121921814D01*
X134854385Y-121939957D01*
X134836242Y-121958100D01*
X134818100Y-121994385D01*
X134818100Y-122066957D01*
X134836242Y-122103242D01*
X134854385Y-122121385D01*
X134890671Y-122139528D01*
X148566757Y-106950428D02*
X148385328Y-107077428D01*
X148566757Y-107168142D02*
X148185757Y-107168142D01*
X148185757Y-107023000D01*
X148203900Y-106986714D01*
X148222042Y-106968571D01*
X148258328Y-106950428D01*
X148312757Y-106950428D01*
X148349042Y-106968571D01*
X148367185Y-106986714D01*
X148385328Y-107023000D01*
X148385328Y-107168142D01*
X148566757Y-106587571D02*
X148566757Y-106805285D01*
X148566757Y-106696428D02*
X148185757Y-106696428D01*
X148240185Y-106732714D01*
X148276471Y-106769000D01*
X148294614Y-106805285D01*
X148185757Y-106460571D02*
X148185757Y-106206571D01*
X148566757Y-106369857D01*
X144763671Y-125775357D02*
X144636671Y-125593928D01*
X144545957Y-125775357D02*
X144545957Y-125394357D01*
X144691100Y-125394357D01*
X144727385Y-125412500D01*
X144745528Y-125430642D01*
X144763671Y-125466928D01*
X144763671Y-125521357D01*
X144745528Y-125557642D01*
X144727385Y-125575785D01*
X144691100Y-125593928D01*
X144545957Y-125593928D01*
X145126528Y-125775357D02*
X144908814Y-125775357D01*
X145017671Y-125775357D02*
X145017671Y-125394357D01*
X144981385Y-125448785D01*
X144945100Y-125485071D01*
X144908814Y-125503214D01*
X145344242Y-125557642D02*
X145307957Y-125539500D01*
X145289814Y-125521357D01*
X145271671Y-125485071D01*
X145271671Y-125466928D01*
X145289814Y-125430642D01*
X145307957Y-125412500D01*
X145344242Y-125394357D01*
X145416814Y-125394357D01*
X145453100Y-125412500D01*
X145471242Y-125430642D01*
X145489385Y-125466928D01*
X145489385Y-125485071D01*
X145471242Y-125521357D01*
X145453100Y-125539500D01*
X145416814Y-125557642D01*
X145344242Y-125557642D01*
X145307957Y-125575785D01*
X145289814Y-125593928D01*
X145271671Y-125630214D01*
X145271671Y-125702785D01*
X145289814Y-125739071D01*
X145307957Y-125757214D01*
X145344242Y-125775357D01*
X145416814Y-125775357D01*
X145453100Y-125757214D01*
X145471242Y-125739071D01*
X145489385Y-125702785D01*
X145489385Y-125630214D01*
X145471242Y-125593928D01*
X145453100Y-125575785D01*
X145416814Y-125557642D01*
X144763671Y-122016157D02*
X144636671Y-121834728D01*
X144545957Y-122016157D02*
X144545957Y-121635157D01*
X144691100Y-121635157D01*
X144727385Y-121653300D01*
X144745528Y-121671442D01*
X144763671Y-121707728D01*
X144763671Y-121762157D01*
X144745528Y-121798442D01*
X144727385Y-121816585D01*
X144691100Y-121834728D01*
X144545957Y-121834728D01*
X145126528Y-122016157D02*
X144908814Y-122016157D01*
X145017671Y-122016157D02*
X145017671Y-121635157D01*
X144981385Y-121689585D01*
X144945100Y-121725871D01*
X144908814Y-121744014D01*
X145307957Y-122016157D02*
X145380528Y-122016157D01*
X145416814Y-121998014D01*
X145434957Y-121979871D01*
X145471242Y-121925442D01*
X145489385Y-121852871D01*
X145489385Y-121707728D01*
X145471242Y-121671442D01*
X145453100Y-121653300D01*
X145416814Y-121635157D01*
X145344242Y-121635157D01*
X145307957Y-121653300D01*
X145289814Y-121671442D01*
X145271671Y-121707728D01*
X145271671Y-121798442D01*
X145289814Y-121834728D01*
X145307957Y-121852871D01*
X145344242Y-121871014D01*
X145416814Y-121871014D01*
X145453100Y-121852871D01*
X145471242Y-121834728D01*
X145489385Y-121798442D01*
X162282414Y-115612957D02*
X162155414Y-115431528D01*
X162064700Y-115612957D02*
X162064700Y-115231957D01*
X162209842Y-115231957D01*
X162246128Y-115250100D01*
X162264271Y-115268242D01*
X162282414Y-115304528D01*
X162282414Y-115358957D01*
X162264271Y-115395242D01*
X162246128Y-115413385D01*
X162209842Y-115431528D01*
X162064700Y-115431528D01*
X162391271Y-115231957D02*
X162518271Y-115612957D01*
X162645271Y-115231957D01*
X162971842Y-115612957D02*
X162754128Y-115612957D01*
X162862985Y-115612957D02*
X162862985Y-115231957D01*
X162826700Y-115286385D01*
X162790414Y-115322671D01*
X162754128Y-115340814D01*
X168955357Y-136650185D02*
X168773928Y-136777185D01*
X168955357Y-136867900D02*
X168574357Y-136867900D01*
X168574357Y-136722757D01*
X168592500Y-136686471D01*
X168610642Y-136668328D01*
X168646928Y-136650185D01*
X168701357Y-136650185D01*
X168737642Y-136668328D01*
X168755785Y-136686471D01*
X168773928Y-136722757D01*
X168773928Y-136867900D01*
X168574357Y-136541328D02*
X168955357Y-136414328D01*
X168574357Y-136287328D01*
X168610642Y-136178471D02*
X168592500Y-136160328D01*
X168574357Y-136124042D01*
X168574357Y-136033328D01*
X168592500Y-135997042D01*
X168610642Y-135978900D01*
X168646928Y-135960757D01*
X168683214Y-135960757D01*
X168737642Y-135978900D01*
X168955357Y-136196614D01*
X168955357Y-135960757D01*
X156864957Y-136650185D02*
X156683528Y-136777185D01*
X156864957Y-136867900D02*
X156483957Y-136867900D01*
X156483957Y-136722757D01*
X156502100Y-136686471D01*
X156520242Y-136668328D01*
X156556528Y-136650185D01*
X156610957Y-136650185D01*
X156647242Y-136668328D01*
X156665385Y-136686471D01*
X156683528Y-136722757D01*
X156683528Y-136867900D01*
X156483957Y-136541328D02*
X156864957Y-136414328D01*
X156483957Y-136287328D01*
X156483957Y-136196614D02*
X156483957Y-135960757D01*
X156629100Y-136087757D01*
X156629100Y-136033328D01*
X156647242Y-135997042D01*
X156665385Y-135978900D01*
X156701671Y-135960757D01*
X156792385Y-135960757D01*
X156828671Y-135978900D01*
X156846814Y-135997042D01*
X156864957Y-136033328D01*
X156864957Y-136142185D01*
X156846814Y-136178471D01*
X156828671Y-136196614D01*
X125067785Y-75775457D02*
X125049642Y-75829885D01*
X125049642Y-75920600D01*
X125067785Y-75956885D01*
X125085928Y-75975028D01*
X125122214Y-75993171D01*
X125158500Y-75993171D01*
X125194785Y-75975028D01*
X125212928Y-75956885D01*
X125231071Y-75920600D01*
X125249214Y-75848028D01*
X125267357Y-75811742D01*
X125285500Y-75793600D01*
X125321785Y-75775457D01*
X125358071Y-75775457D01*
X125394357Y-75793600D01*
X125412500Y-75811742D01*
X125430642Y-75848028D01*
X125430642Y-75938742D01*
X125412500Y-75993171D01*
X125085928Y-76374171D02*
X125067785Y-76356028D01*
X125049642Y-76301600D01*
X125049642Y-76265314D01*
X125067785Y-76210885D01*
X125104071Y-76174600D01*
X125140357Y-76156457D01*
X125212928Y-76138314D01*
X125267357Y-76138314D01*
X125339928Y-76156457D01*
X125376214Y-76174600D01*
X125412500Y-76210885D01*
X125430642Y-76265314D01*
X125430642Y-76301600D01*
X125412500Y-76356028D01*
X125394357Y-76374171D01*
X125049642Y-76755171D02*
X125231071Y-76628171D01*
X125049642Y-76537457D02*
X125430642Y-76537457D01*
X125430642Y-76682600D01*
X125412500Y-76718885D01*
X125394357Y-76737028D01*
X125358071Y-76755171D01*
X125303642Y-76755171D01*
X125267357Y-76737028D01*
X125249214Y-76718885D01*
X125231071Y-76682600D01*
X125231071Y-76537457D01*
X125249214Y-76918457D02*
X125249214Y-77045457D01*
X125049642Y-77099885D02*
X125049642Y-76918457D01*
X125430642Y-76918457D01*
X125430642Y-77099885D01*
X125249214Y-77263171D02*
X125249214Y-77390171D01*
X125049642Y-77444600D02*
X125049642Y-77263171D01*
X125430642Y-77263171D01*
X125430642Y-77444600D01*
X125049642Y-77607885D02*
X125430642Y-77607885D01*
X125049642Y-77825600D01*
X125430642Y-77825600D01*
X147391214Y-81328985D02*
X147409357Y-81274557D01*
X147409357Y-81183842D01*
X147391214Y-81147557D01*
X147373071Y-81129414D01*
X147336785Y-81111271D01*
X147300500Y-81111271D01*
X147264214Y-81129414D01*
X147246071Y-81147557D01*
X147227928Y-81183842D01*
X147209785Y-81256414D01*
X147191642Y-81292700D01*
X147173500Y-81310842D01*
X147137214Y-81328985D01*
X147100928Y-81328985D01*
X147064642Y-81310842D01*
X147046500Y-81292700D01*
X147028357Y-81256414D01*
X147028357Y-81165700D01*
X147046500Y-81111271D01*
X147209785Y-80947985D02*
X147209785Y-80820985D01*
X147409357Y-80766557D02*
X147409357Y-80947985D01*
X147028357Y-80947985D01*
X147028357Y-80766557D01*
X147445642Y-80349271D02*
X147427500Y-80385557D01*
X147391214Y-80421842D01*
X147336785Y-80476271D01*
X147318642Y-80512557D01*
X147318642Y-80548842D01*
X147409357Y-80530700D02*
X147391214Y-80566985D01*
X147354928Y-80603271D01*
X147282357Y-80621414D01*
X147155357Y-80621414D01*
X147082785Y-80603271D01*
X147046500Y-80566985D01*
X147028357Y-80530700D01*
X147028357Y-80458128D01*
X147046500Y-80421842D01*
X147082785Y-80385557D01*
X147155357Y-80367414D01*
X147282357Y-80367414D01*
X147354928Y-80385557D01*
X147391214Y-80421842D01*
X147409357Y-80458128D01*
X147409357Y-80530700D01*
X142368357Y-143217900D02*
X142368357Y-143000185D01*
X142749357Y-143109042D02*
X142368357Y-143109042D01*
X142549785Y-142873185D02*
X142549785Y-142746185D01*
X142749357Y-142691757D02*
X142749357Y-142873185D01*
X142368357Y-142873185D01*
X142368357Y-142691757D01*
X142749357Y-142347042D02*
X142749357Y-142528471D01*
X142368357Y-142528471D01*
X142549785Y-142220042D02*
X142549785Y-142093042D01*
X142749357Y-142038614D02*
X142749357Y-142220042D01*
X142368357Y-142220042D01*
X142368357Y-142038614D01*
X142749357Y-141875328D02*
X142368357Y-141875328D01*
X142640500Y-141748328D01*
X142368357Y-141621328D01*
X142749357Y-141621328D01*
X181445357Y-101692528D02*
X181445357Y-101474814D01*
X181826357Y-101583671D02*
X181445357Y-101583671D01*
X181445357Y-101275242D02*
X181445357Y-101202671D01*
X181463500Y-101166385D01*
X181499785Y-101130100D01*
X181572357Y-101111957D01*
X181699357Y-101111957D01*
X181771928Y-101130100D01*
X181808214Y-101166385D01*
X181826357Y-101202671D01*
X181826357Y-101275242D01*
X181808214Y-101311528D01*
X181771928Y-101347814D01*
X181699357Y-101365957D01*
X181572357Y-101365957D01*
X181499785Y-101347814D01*
X181463500Y-101311528D01*
X181445357Y-101275242D01*
X181862642Y-101039385D02*
X181862642Y-100749100D01*
X181717500Y-100676528D02*
X181717500Y-100495100D01*
X181826357Y-100712814D02*
X181445357Y-100585814D01*
X181826357Y-100458814D01*
X181826357Y-100331814D02*
X181445357Y-100331814D01*
X181826357Y-100114100D01*
X181445357Y-100114100D01*
X181862642Y-100023385D02*
X181862642Y-99733100D01*
X181626785Y-99515385D02*
X181644928Y-99460957D01*
X181663071Y-99442814D01*
X181699357Y-99424671D01*
X181753785Y-99424671D01*
X181790071Y-99442814D01*
X181808214Y-99460957D01*
X181826357Y-99497242D01*
X181826357Y-99642385D01*
X181445357Y-99642385D01*
X181445357Y-99515385D01*
X181463500Y-99479100D01*
X181481642Y-99460957D01*
X181517928Y-99442814D01*
X181554214Y-99442814D01*
X181590500Y-99460957D01*
X181608642Y-99479100D01*
X181626785Y-99515385D01*
X181626785Y-99642385D01*
X181445357Y-99188814D02*
X181445357Y-99116242D01*
X181463500Y-99079957D01*
X181499785Y-99043671D01*
X181572357Y-99025528D01*
X181699357Y-99025528D01*
X181771928Y-99043671D01*
X181808214Y-99079957D01*
X181826357Y-99116242D01*
X181826357Y-99188814D01*
X181808214Y-99225100D01*
X181771928Y-99261385D01*
X181699357Y-99279528D01*
X181572357Y-99279528D01*
X181499785Y-99261385D01*
X181463500Y-99225100D01*
X181445357Y-99188814D01*
X181717500Y-98880385D02*
X181717500Y-98698957D01*
X181826357Y-98916671D02*
X181445357Y-98789671D01*
X181826357Y-98662671D01*
X181826357Y-98317957D02*
X181644928Y-98444957D01*
X181826357Y-98535671D02*
X181445357Y-98535671D01*
X181445357Y-98390528D01*
X181463500Y-98354242D01*
X181481642Y-98336100D01*
X181517928Y-98317957D01*
X181572357Y-98317957D01*
X181608642Y-98336100D01*
X181626785Y-98354242D01*
X181644928Y-98390528D01*
X181644928Y-98535671D01*
X181826357Y-98154671D02*
X181445357Y-98154671D01*
X181445357Y-98063957D01*
X181463500Y-98009528D01*
X181499785Y-97973242D01*
X181536071Y-97955100D01*
X181608642Y-97936957D01*
X181663071Y-97936957D01*
X181735642Y-97955100D01*
X181771928Y-97973242D01*
X181808214Y-98009528D01*
X181826357Y-98063957D01*
X181826357Y-98154671D01*
X147182114Y-62097557D02*
X147182114Y-62405985D01*
X147200257Y-62442271D01*
X147218400Y-62460414D01*
X147254685Y-62478557D01*
X147327257Y-62478557D01*
X147363542Y-62460414D01*
X147381685Y-62442271D01*
X147399828Y-62405985D01*
X147399828Y-62097557D01*
X147780828Y-62478557D02*
X147563114Y-62478557D01*
X147671971Y-62478557D02*
X147671971Y-62097557D01*
X147635685Y-62151985D01*
X147599400Y-62188271D01*
X147563114Y-62206414D01*
X176290514Y-55314157D02*
X176290514Y-55622585D01*
X176308657Y-55658871D01*
X176326800Y-55677014D01*
X176363085Y-55695157D01*
X176435657Y-55695157D01*
X176471942Y-55677014D01*
X176490085Y-55658871D01*
X176508228Y-55622585D01*
X176508228Y-55314157D01*
X176671514Y-55350442D02*
X176689657Y-55332300D01*
X176725942Y-55314157D01*
X176816657Y-55314157D01*
X176852942Y-55332300D01*
X176871085Y-55350442D01*
X176889228Y-55386728D01*
X176889228Y-55423014D01*
X176871085Y-55477442D01*
X176653371Y-55695157D01*
X176889228Y-55695157D01*
X174055314Y-111456557D02*
X174055314Y-111764985D01*
X174073457Y-111801271D01*
X174091600Y-111819414D01*
X174127885Y-111837557D01*
X174200457Y-111837557D01*
X174236742Y-111819414D01*
X174254885Y-111801271D01*
X174273028Y-111764985D01*
X174273028Y-111456557D01*
X174418171Y-111456557D02*
X174654028Y-111456557D01*
X174527028Y-111601700D01*
X174581457Y-111601700D01*
X174617742Y-111619842D01*
X174635885Y-111637985D01*
X174654028Y-111674271D01*
X174654028Y-111764985D01*
X174635885Y-111801271D01*
X174617742Y-111819414D01*
X174581457Y-111837557D01*
X174472600Y-111837557D01*
X174436314Y-111819414D01*
X174418171Y-111801271D01*
X159518914Y-92135957D02*
X159518914Y-92444385D01*
X159537057Y-92480671D01*
X159555200Y-92498814D01*
X159591485Y-92516957D01*
X159664057Y-92516957D01*
X159700342Y-92498814D01*
X159718485Y-92480671D01*
X159736628Y-92444385D01*
X159736628Y-92135957D01*
X160081342Y-92262957D02*
X160081342Y-92516957D01*
X159990628Y-92117814D02*
X159899914Y-92389957D01*
X160135771Y-92389957D01*
X174080714Y-79596557D02*
X174080714Y-79904985D01*
X174098857Y-79941271D01*
X174117000Y-79959414D01*
X174153285Y-79977557D01*
X174225857Y-79977557D01*
X174262142Y-79959414D01*
X174280285Y-79941271D01*
X174298428Y-79904985D01*
X174298428Y-79596557D01*
X174661285Y-79596557D02*
X174479857Y-79596557D01*
X174461714Y-79777985D01*
X174479857Y-79759842D01*
X174516142Y-79741700D01*
X174606857Y-79741700D01*
X174643142Y-79759842D01*
X174661285Y-79777985D01*
X174679428Y-79814271D01*
X174679428Y-79904985D01*
X174661285Y-79941271D01*
X174643142Y-79959414D01*
X174606857Y-79977557D01*
X174516142Y-79977557D01*
X174479857Y-79959414D01*
X174461714Y-79941271D01*
X138977914Y-115066357D02*
X138977914Y-115374785D01*
X138996057Y-115411071D01*
X139014200Y-115429214D01*
X139050485Y-115447357D01*
X139123057Y-115447357D01*
X139159342Y-115429214D01*
X139177485Y-115411071D01*
X139195628Y-115374785D01*
X139195628Y-115066357D01*
X139540342Y-115066357D02*
X139467771Y-115066357D01*
X139431485Y-115084500D01*
X139413342Y-115102642D01*
X139377057Y-115157071D01*
X139358914Y-115229642D01*
X139358914Y-115374785D01*
X139377057Y-115411071D01*
X139395200Y-115429214D01*
X139431485Y-115447357D01*
X139504057Y-115447357D01*
X139540342Y-115429214D01*
X139558485Y-115411071D01*
X139576628Y-115374785D01*
X139576628Y-115284071D01*
X139558485Y-115247785D01*
X139540342Y-115229642D01*
X139504057Y-115211500D01*
X139431485Y-115211500D01*
X139395200Y-115229642D01*
X139377057Y-115247785D01*
X139358914Y-115284071D01*
X134286171Y-55591528D02*
X134286171Y-55772957D01*
X134159171Y-55391957D02*
X134286171Y-55591528D01*
X134413171Y-55391957D01*
X134739742Y-55772957D02*
X134522028Y-55772957D01*
X134630885Y-55772957D02*
X134630885Y-55391957D01*
X134594600Y-55446385D01*
X134558314Y-55482671D01*
X134522028Y-55500814D01*
M02*
